<svg width="250" height="19" viewBox="0 0 250 19" fill="none" xmlns="http://www.w3.org/2000/svg">
<path d="M1.14773 15V3.36364H5.60227C6.44318 3.36364 7.14205 3.49621 7.69886 3.76136C8.25947 4.02273 8.67803 4.38068 8.95455 4.83523C9.23485 5.28977 9.375 5.80492 9.375 6.38068C9.375 6.85417 9.28409 7.25947 9.10227 7.59659C8.92045 7.92992 8.67614 8.20076 8.36932 8.40909C8.0625 8.61742 7.7197 8.76705 7.34091 8.85795V8.97159C7.75379 8.99432 8.14962 9.12121 8.52841 9.35227C8.91098 9.57955 9.22348 9.90151 9.46591 10.3182C9.70833 10.7348 9.82955 11.2386 9.82955 11.8295C9.82955 12.4318 9.68371 12.9735 9.39205 13.4545C9.10038 13.9318 8.66099 14.3087 8.07386 14.5852C7.48674 14.8617 6.74811 15 5.85795 15H1.14773ZM3.25568 13.2386H5.52273C6.28788 13.2386 6.83902 13.0928 7.17614 12.8011C7.51705 12.5057 7.6875 12.1269 7.6875 11.6648C7.6875 11.3201 7.60227 11.0095 7.43182 10.733C7.26136 10.4527 7.01894 10.233 6.70455 10.0739C6.39015 9.91098 6.01515 9.82955 5.57955 9.82955H3.25568V13.2386ZM3.25568 8.3125H5.34091C5.70455 8.3125 6.0322 8.24621 6.32386 8.11364C6.61553 7.97727 6.8447 7.78598 7.01136 7.53977C7.18182 7.28977 7.26705 6.99432 7.26705 6.65341C7.26705 6.20265 7.10795 5.83144 6.78977 5.53977C6.47538 5.24811 6.00758 5.10227 5.38636 5.10227H3.25568V8.3125ZM11.5724 15V6.27273H13.5668V7.72727H13.6577C13.8168 7.22348 14.0895 6.83523 14.4759 6.5625C14.866 6.28598 15.3111 6.14773 15.8111 6.14773C15.9247 6.14773 16.0516 6.15341 16.1918 6.16477C16.3357 6.17235 16.455 6.18561 16.5497 6.20455V8.09659C16.4626 8.06629 16.3243 8.03977 16.1349 8.01705C15.9493 7.99053 15.7694 7.97727 15.5952 7.97727C15.2202 7.97727 14.883 8.05871 14.5838 8.22159C14.2884 8.38068 14.0554 8.60227 13.8849 8.88636C13.7145 9.17045 13.6293 9.49811 13.6293 9.86932V15H11.5724ZM20.2713 15.1761C19.7183 15.1761 19.2202 15.0777 18.777 14.8807C18.3376 14.6799 17.9891 14.3845 17.7315 13.9943C17.4777 13.6042 17.3509 13.1231 17.3509 12.5511C17.3509 12.0587 17.4418 11.6515 17.6236 11.3295C17.8054 11.0076 18.0535 10.75 18.3679 10.5568C18.6823 10.3636 19.0365 10.2178 19.4304 10.1193C19.8281 10.017 20.2391 9.94318 20.6634 9.89773C21.1747 9.8447 21.5895 9.79735 21.9077 9.75568C22.2259 9.71023 22.4569 9.64205 22.6009 9.55114C22.7486 9.45644 22.8224 9.31061 22.8224 9.11364V9.07955C22.8224 8.65152 22.6955 8.32008 22.4418 8.08523C22.188 7.85038 21.8224 7.73295 21.3452 7.73295C20.8414 7.73295 20.4418 7.8428 20.1463 8.0625C19.8546 8.2822 19.6577 8.54167 19.5554 8.84091L17.6349 8.56818C17.7865 8.03788 18.0365 7.5947 18.3849 7.23864C18.7334 6.87879 19.1596 6.60985 19.6634 6.43182C20.1671 6.25 20.724 6.15909 21.3338 6.15909C21.7543 6.15909 22.1728 6.20833 22.5895 6.30682C23.0062 6.4053 23.3868 6.56818 23.7315 6.79545C24.0762 7.01894 24.3527 7.32386 24.5611 7.71023C24.7732 8.09659 24.8793 8.57955 24.8793 9.15909V15H22.902V13.8011H22.8338C22.7088 14.0436 22.5327 14.2708 22.3054 14.483C22.0819 14.6913 21.7997 14.8598 21.4588 14.9886C21.1217 15.1136 20.7259 15.1761 20.2713 15.1761ZM20.8054 13.6648C21.2183 13.6648 21.5762 13.5833 21.8793 13.4205C22.1823 13.2538 22.4152 13.0341 22.5781 12.7614C22.7448 12.4886 22.8281 12.1913 22.8281 11.8693V10.8409C22.7637 10.8939 22.6539 10.9432 22.4986 10.9886C22.3471 11.0341 22.1766 11.0739 21.9872 11.108C21.7978 11.142 21.6103 11.1723 21.4247 11.1989C21.2391 11.2254 21.0781 11.2481 20.9418 11.267C20.6349 11.3087 20.3603 11.3769 20.1179 11.4716C19.8755 11.5663 19.6842 11.6989 19.544 11.8693C19.4039 12.036 19.3338 12.2519 19.3338 12.517C19.3338 12.8958 19.4721 13.1818 19.7486 13.375C20.0251 13.5682 20.3774 13.6648 20.8054 13.6648ZM29.0043 9.88636V15H26.9474V6.27273H28.9134V7.75568H29.0156C29.2164 7.26705 29.5365 6.87879 29.9759 6.59091C30.419 6.30303 30.9664 6.15909 31.6179 6.15909C32.2202 6.15909 32.7448 6.28788 33.1918 6.54545C33.6425 6.80303 33.991 7.17614 34.2372 7.66477C34.4872 8.15341 34.6103 8.74621 34.6065 9.44318V15H32.5497V9.76136C32.5497 9.17803 32.3982 8.72159 32.0952 8.39205C31.7959 8.0625 31.3812 7.89773 30.8509 7.89773C30.491 7.89773 30.1709 7.97727 29.8906 8.13636C29.6141 8.29167 29.3963 8.51705 29.2372 8.8125C29.0819 9.10795 29.0043 9.46591 29.0043 9.88636ZM39.9361 15.1534C39.2505 15.1534 38.6368 14.9773 38.0952 14.625C37.5535 14.2727 37.1255 13.7614 36.8111 13.0909C36.4967 12.4205 36.3395 11.6061 36.3395 10.6477C36.3395 9.67803 36.4986 8.85985 36.8168 8.19318C37.1387 7.52273 37.5724 7.01705 38.1179 6.67614C38.6634 6.33144 39.2713 6.15909 39.9418 6.15909C40.4531 6.15909 40.8736 6.24621 41.2031 6.42045C41.5327 6.59091 41.794 6.79735 41.9872 7.03977C42.1804 7.27841 42.33 7.50379 42.4361 7.71591H42.5213V3.36364H44.5838V15H42.5611V13.625H42.4361C42.33 13.8371 42.1766 14.0625 41.9759 14.3011C41.7751 14.536 41.5099 14.7367 41.1804 14.9034C40.8509 15.0701 40.4361 15.1534 39.9361 15.1534ZM40.5099 13.4659C40.9455 13.4659 41.3168 13.3485 41.6236 13.1136C41.9304 12.875 42.1634 12.5436 42.3224 12.1193C42.4815 11.6951 42.5611 11.2008 42.5611 10.6364C42.5611 10.072 42.4815 9.58144 42.3224 9.16477C42.1671 8.74811 41.9361 8.42424 41.6293 8.19318C41.3262 7.96212 40.9531 7.84659 40.5099 7.84659C40.0516 7.84659 39.669 7.96591 39.3622 8.20455C39.0554 8.44318 38.8243 8.77273 38.669 9.19318C38.5137 9.61364 38.4361 10.0947 38.4361 10.6364C38.4361 11.1818 38.5137 11.6686 38.669 12.0966C38.8281 12.5208 39.0611 12.8561 39.3679 13.1023C39.6785 13.3447 40.0592 13.4659 40.5099 13.4659Z" fill="#0B1A2B"/>
</svg>
