<svg width="250" height="17" viewBox="0 0 250 17" fill="none" xmlns="http://www.w3.org/2000/svg">
<path d="M9.42614 7H8.19318C8.12027 6.64536 7.99266 6.33381 7.81037 6.06534C7.63139 5.79688 7.41264 5.5715 7.15412 5.3892C6.89891 5.2036 6.61553 5.06439 6.30398 4.97159C5.99242 4.87879 5.66761 4.83239 5.32955 4.83239C4.71307 4.83239 4.15459 4.98816 3.65412 5.29972C3.15696 5.61127 2.76089 6.07031 2.46591 6.67685C2.17424 7.28338 2.02841 8.02746 2.02841 8.90909C2.02841 9.79072 2.17424 10.5348 2.46591 11.1413C2.76089 11.7479 3.15696 12.2069 3.65412 12.5185C4.15459 12.83 4.71307 12.9858 5.32955 12.9858C5.66761 12.9858 5.99242 12.9394 6.30398 12.8466C6.61553 12.7538 6.89891 12.6162 7.15412 12.4339C7.41264 12.2483 7.63139 12.0213 7.81037 11.7528C7.99266 11.4811 8.12027 11.1695 8.19318 10.8182H9.42614C9.33333 11.3385 9.1643 11.8042 8.91903 12.2152C8.67377 12.6262 8.36885 12.9759 8.00426 13.2642C7.63968 13.5492 7.23035 13.7663 6.77628 13.9155C6.32552 14.0646 5.84328 14.1392 5.32955 14.1392C4.46117 14.1392 3.68892 13.9271 3.01278 13.5028C2.33665 13.0786 1.80469 12.4754 1.4169 11.6932C1.02912 10.911 0.835227 9.98295 0.835227 8.90909C0.835227 7.83523 1.02912 6.9072 1.4169 6.125C1.80469 5.3428 2.33665 4.73958 3.01278 4.31534C3.68892 3.8911 4.46117 3.67898 5.32955 3.67898C5.84328 3.67898 6.32552 3.75355 6.77628 3.9027C7.23035 4.05185 7.63968 4.2706 8.00426 4.55895C8.36885 4.84399 8.67377 5.192 8.91903 5.60298C9.1643 6.01065 9.33333 6.47633 9.42614 7ZM14.4611 14.1591C13.7253 14.1591 13.0906 13.9967 12.557 13.6719C12.0267 13.3438 11.6174 12.8864 11.329 12.2997C11.044 11.7098 10.9015 11.0237 10.9015 10.2415C10.9015 9.45928 11.044 8.76989 11.329 8.1733C11.6174 7.57339 12.0184 7.10606 12.5321 6.77131C13.0492 6.43324 13.6524 6.2642 14.3418 6.2642C14.7395 6.2642 15.1323 6.33049 15.5201 6.46307C15.9078 6.59564 16.2608 6.81108 16.579 7.10938C16.8972 7.40436 17.1507 7.79545 17.3397 8.28267C17.5286 8.76989 17.623 9.36979 17.623 10.0824V10.5795H11.7367V9.56534H16.4299C16.4299 9.13447 16.3437 8.75 16.1713 8.41193C16.0023 8.07386 15.7604 7.80705 15.4455 7.61151C15.1339 7.41596 14.766 7.31818 14.3418 7.31818C13.8745 7.31818 13.4701 7.43419 13.1287 7.66619C12.7907 7.89489 12.5305 8.19318 12.3482 8.56108C12.1659 8.92898 12.0748 9.32339 12.0748 9.74432V10.4205C12.0748 10.9972 12.1742 11.486 12.373 11.8871C12.5752 12.2848 12.8553 12.5881 13.2132 12.7969C13.5712 13.0024 13.9872 13.1051 14.4611 13.1051C14.7694 13.1051 15.0478 13.062 15.2963 12.9759C15.5482 12.8864 15.7653 12.7538 15.9476 12.5781C16.1299 12.3991 16.2708 12.1771 16.3702 11.9119L17.5037 12.2301C17.3844 12.6146 17.1839 12.9527 16.9022 13.2443C16.6204 13.5327 16.2724 13.758 15.8581 13.9205C15.4438 14.0795 14.9782 14.1591 14.4611 14.1591ZM20.5811 9.40625V14H19.4078V6.36364H20.5414V7.55682H20.6408C20.8198 7.16903 21.0916 6.85748 21.4561 6.62216C21.8207 6.38352 22.2914 6.2642 22.8681 6.2642C23.3851 6.2642 23.8375 6.37027 24.2253 6.58239C24.6131 6.79119 24.9147 7.10938 25.1301 7.53693C25.3456 7.96117 25.4533 8.49811 25.4533 9.14773V14H24.28V9.22727C24.28 8.62737 24.1242 8.16004 23.8127 7.82528C23.5011 7.48722 23.0736 7.31818 22.53 7.31818C22.1555 7.31818 21.8207 7.39938 21.5257 7.56179C21.2341 7.72419 21.0037 7.96117 20.8347 8.27273C20.6657 8.58428 20.5811 8.96212 20.5811 9.40625ZM30.9183 6.36364V7.35795H26.9609V6.36364H30.9183ZM28.1143 4.53409H29.2876V11.8125C29.2876 12.1439 29.3357 12.3925 29.4318 12.5582C29.5313 12.7206 29.6572 12.83 29.8097 12.8864C29.9654 12.9394 30.1295 12.9659 30.3018 12.9659C30.4311 12.9659 30.5372 12.9593 30.62 12.946C30.7029 12.9295 30.7692 12.9162 30.8189 12.9062L31.0575 13.9602C30.978 13.9901 30.867 14.0199 30.7244 14.0497C30.5819 14.0829 30.4013 14.0994 30.1825 14.0994C29.8511 14.0994 29.5263 14.0282 29.2081 13.8857C28.8932 13.7431 28.6314 13.526 28.4226 13.2344C28.2171 12.9427 28.1143 12.5748 28.1143 12.1307V4.53409ZM32.6832 14V6.36364H33.8168V7.51705H33.8963C34.0355 7.1392 34.2874 6.83262 34.652 6.5973C35.0166 6.36198 35.4276 6.24432 35.8849 6.24432C35.9711 6.24432 36.0788 6.24597 36.2081 6.24929C36.3374 6.2526 36.4351 6.25758 36.5014 6.2642V7.45739C36.4616 7.44744 36.3705 7.43253 36.228 7.41264C36.0888 7.38944 35.9413 7.37784 35.7855 7.37784C35.4143 7.37784 35.0829 7.45573 34.7912 7.61151C34.5028 7.76397 34.2741 7.97609 34.1051 8.24787C33.9394 8.51634 33.8565 8.82292 33.8565 9.16761V14H32.6832ZM42.7047 10.8778V6.36364H43.878V14H42.7047V12.7074H42.6252C42.4462 13.0952 42.1678 13.425 41.79 13.6967C41.4121 13.9652 40.9348 14.0994 40.3581 14.0994C39.8809 14.0994 39.4566 13.995 39.0854 13.7862C38.7142 13.5741 38.4225 13.2559 38.2104 12.8317C37.9983 12.4041 37.8922 11.8655 37.8922 11.2159V6.36364H39.0655V11.1364C39.0655 11.6932 39.2213 12.1373 39.5328 12.4688C39.8477 12.8002 40.2488 12.9659 40.736 12.9659C41.0276 12.9659 41.3243 12.8913 41.6259 12.7422C41.9308 12.593 42.186 12.3643 42.3915 12.0561C42.6003 11.7479 42.7047 11.3551 42.7047 10.8778ZM46.027 14V6.36364H47.1605V7.55682H47.2599C47.419 7.14915 47.6759 6.83262 48.0305 6.60724C48.3852 6.37855 48.8111 6.2642 49.3082 6.2642C49.812 6.2642 50.2313 6.37855 50.5661 6.60724C50.9041 6.83262 51.1676 7.14915 51.3565 7.55682H51.4361C51.6316 7.16241 51.925 6.84919 52.3161 6.61719C52.7072 6.38187 53.1761 6.2642 53.723 6.2642C54.4058 6.2642 54.9643 6.47798 55.3984 6.90554C55.8326 7.32978 56.0497 7.991 56.0497 8.8892V14H54.8764V8.8892C54.8764 8.32576 54.7223 7.92306 54.4141 7.68111C54.1058 7.43916 53.7429 7.31818 53.3253 7.31818C52.7884 7.31818 52.3724 7.48059 52.0774 7.8054C51.7824 8.12689 51.6349 8.53456 51.6349 9.02841V14H50.4418V8.76989C50.4418 8.3357 50.3009 7.98603 50.0192 7.72088C49.7375 7.45241 49.3745 7.31818 48.9304 7.31818C48.6255 7.31818 48.3404 7.39938 48.0753 7.56179C47.8134 7.72419 47.6013 7.94957 47.4389 8.23793C47.2798 8.52296 47.2003 8.85275 47.2003 9.22727V14H46.027Z" fill="#0B1A2B"/>
<path d="M225.914 9.05029C225.914 8.36051 225.984 7.63794 226.126 6.88257C226.268 6.1272 226.462 5.39933 226.707 4.69897C226.952 3.99862 227.234 3.38818 227.551 2.86768H228.662C228.336 3.53206 228.054 4.22396 227.815 4.94336C227.576 5.66276 227.393 6.37264 227.266 7.073C227.139 7.77336 227.075 8.43245 227.075 9.05029C227.075 9.61312 227.131 10.1823 227.243 10.7578C227.356 11.3333 227.529 11.9417 227.764 12.5828C227.999 13.2239 228.298 13.9211 228.662 14.6743H227.551C227.014 13.756 226.607 12.8208 226.329 11.8687C226.052 10.9165 225.914 9.97705 225.914 9.05029ZM230.249 13.5V12.6304L233.391 9.22168C233.742 8.84082 234.034 8.50651 234.267 8.21875C234.5 7.93099 234.675 7.65698 234.794 7.39673C234.912 7.13647 234.972 6.86035 234.972 6.56836C234.972 6.23828 234.893 5.95264 234.737 5.71143C234.58 5.47021 234.369 5.28507 234.102 5.15601C233.835 5.02694 233.533 4.9624 233.194 4.9624C232.835 4.9624 232.523 5.0354 232.258 5.1814C231.994 5.32739 231.789 5.53263 231.646 5.79712C231.502 6.0616 231.43 6.37158 231.43 6.72705H230.274C230.274 6.16846 230.403 5.67757 230.662 5.25439C230.92 4.83122 231.271 4.5022 231.715 4.26733C232.16 4.03247 232.663 3.91504 233.226 3.91504C233.789 3.91504 234.287 4.03247 234.721 4.26733C235.155 4.5022 235.495 4.81852 235.743 5.21631C235.99 5.6141 236.114 6.06055 236.114 6.55566C236.114 6.89844 236.053 7.23169 235.93 7.55542C235.807 7.87915 235.592 8.24626 235.283 8.65674C234.974 9.06722 234.54 9.56868 233.981 10.1611L231.912 12.3638V12.4399H236.273V13.5H230.249ZM241.218 13.627C240.579 13.627 240.015 13.5138 239.526 13.2874C239.037 13.061 238.656 12.7489 238.384 12.3511C238.111 11.9533 237.974 11.4984 237.974 10.9863C237.974 10.5885 238.055 10.2193 238.215 9.87866C238.376 9.538 238.596 9.25342 238.875 9.0249C239.155 8.79639 239.47 8.65039 239.821 8.58691V8.53613C239.36 8.41764 238.994 8.16162 238.723 7.76807C238.452 7.37451 238.317 6.92806 238.317 6.42871C238.317 5.94629 238.442 5.51571 238.691 5.13696C238.941 4.75822 239.284 4.45988 239.72 4.24194C240.156 4.02401 240.655 3.91504 241.218 3.91504C241.772 3.91504 242.267 4.02401 242.703 4.24194C243.139 4.45988 243.483 4.75822 243.735 5.13696C243.986 5.51571 244.112 5.94629 244.112 6.42871C244.112 6.92806 243.976 7.37451 243.703 7.76807C243.43 8.16162 243.069 8.41764 242.621 8.53613V8.58691C242.963 8.65039 243.274 8.79639 243.554 9.0249C243.833 9.25342 244.055 9.538 244.22 9.87866C244.385 10.2193 244.468 10.5885 244.468 10.9863C244.468 11.4984 244.329 11.9533 244.052 12.3511C243.775 12.7489 243.392 13.061 242.903 13.2874C242.414 13.5138 241.853 13.627 241.218 13.627ZM241.218 12.5796C241.637 12.5796 241.999 12.5108 242.303 12.3733C242.608 12.2358 242.844 12.0432 243.011 11.7957C243.178 11.5481 243.262 11.2572 243.262 10.9229C243.262 10.5716 243.173 10.2616 242.995 9.99292C242.817 9.7242 242.574 9.51261 242.265 9.35815C241.956 9.20369 241.607 9.12646 241.218 9.12646C240.82 9.12646 240.467 9.20369 240.158 9.35815C239.849 9.51261 239.605 9.7242 239.428 9.99292C239.25 10.2616 239.161 10.5716 239.161 10.9229C239.161 11.2572 239.244 11.5481 239.409 11.7957C239.574 12.0432 239.811 12.2358 240.12 12.3733C240.429 12.5108 240.795 12.5796 241.218 12.5796ZM241.218 8.11719C241.552 8.11719 241.848 8.05054 242.106 7.91724C242.365 7.78394 242.569 7.59668 242.719 7.35547C242.869 7.11426 242.944 6.83496 242.944 6.51758C242.944 6.2002 242.872 5.92513 242.729 5.69238C242.585 5.45964 242.383 5.27873 242.122 5.14966C241.862 5.02059 241.561 4.95605 241.218 4.95605C240.871 4.95605 240.567 5.02059 240.307 5.14966C240.047 5.27873 239.845 5.45964 239.701 5.69238C239.557 5.92513 239.485 6.2002 239.485 6.51758C239.485 6.83496 239.558 7.11426 239.704 7.35547C239.85 7.59668 240.054 7.78394 240.316 7.91724C240.579 8.05054 240.879 8.11719 241.218 8.11719ZM245.852 14.6743C246.228 13.8999 246.533 13.19 246.766 12.5447C246.998 11.8993 247.169 11.291 247.277 10.7197C247.385 10.1484 247.438 9.59196 247.438 9.05029C247.438 8.43245 247.375 7.77336 247.248 7.073C247.121 6.37264 246.939 5.66276 246.702 4.94336C246.465 4.22396 246.182 3.53206 245.852 2.86768H246.962C247.28 3.38818 247.562 3.99862 247.81 4.69897C248.057 5.39933 248.251 6.12826 248.391 6.88574C248.53 7.64323 248.6 8.36475 248.6 9.05029C248.6 9.99398 248.459 10.9419 248.178 11.894C247.897 12.8462 247.491 13.7729 246.962 14.6743H245.852Z" fill="#8A9198"/>
</svg>
