<svg width="250" height="17" viewBox="0 0 250 17" fill="none" xmlns="http://www.w3.org/2000/svg">
<path d="M8.19318 7C8.08381 6.66525 7.93963 6.36529 7.76065 6.10014C7.58499 5.83168 7.37453 5.60298 7.12926 5.41406C6.88731 5.22514 6.61222 5.08097 6.30398 4.98153C5.99574 4.8821 5.65767 4.83239 5.28977 4.83239C4.68655 4.83239 4.13802 4.98816 3.64418 5.29972C3.15033 5.61127 2.75758 6.07031 2.46591 6.67685C2.17424 7.28338 2.02841 8.02746 2.02841 8.90909C2.02841 9.79072 2.1759 10.5348 2.47088 11.1413C2.76586 11.7479 3.16525 12.2069 3.66903 12.5185C4.17282 12.83 4.73958 12.9858 5.36932 12.9858C5.95265 12.9858 6.46638 12.8615 6.91051 12.6129C7.35795 12.361 7.70597 12.0064 7.95455 11.549C8.20644 11.0883 8.33239 10.5464 8.33239 9.9233L8.71023 10.0028H5.64773V8.90909H9.52557V10.0028C9.52557 10.8414 9.34659 11.5705 8.98864 12.1903C8.634 12.8101 8.14347 13.2907 7.51705 13.6321C6.89394 13.9702 6.17803 14.1392 5.36932 14.1392C4.4678 14.1392 3.67566 13.9271 2.9929 13.5028C2.31345 13.0786 1.78314 12.4754 1.40199 11.6932C1.02415 10.911 0.835227 9.98295 0.835227 8.90909C0.835227 8.10369 0.942945 7.3795 1.15838 6.73651C1.37713 6.0902 1.68537 5.54001 2.0831 5.08594C2.48082 4.63187 2.95147 4.28385 3.49503 4.0419C4.03859 3.79995 4.63684 3.67898 5.28977 3.67898C5.8267 3.67898 6.32718 3.76018 6.79119 3.92258C7.25852 4.08168 7.67448 4.30871 8.03906 4.60369C8.40696 4.89536 8.71354 5.24503 8.95881 5.6527C9.20407 6.05705 9.37311 6.50616 9.46591 7H8.19318ZM13.7253 14.179C13.2414 14.179 12.8023 14.0878 12.4078 13.9055C12.0134 13.7199 11.7002 13.4531 11.4682 13.1051C11.2362 12.7538 11.1202 12.3295 11.1202 11.8324C11.1202 11.3949 11.2064 11.0402 11.3787 10.7685C11.5511 10.4934 11.7814 10.2779 12.0698 10.1222C12.3581 9.96638 12.6763 9.85038 13.0243 9.77415C13.3757 9.6946 13.7286 9.63163 14.0833 9.58523C14.5473 9.52557 14.9235 9.48082 15.2118 9.45099C15.5035 9.41785 15.7156 9.36316 15.8482 9.28693C15.9841 9.2107 16.052 9.07812 16.052 8.8892V8.84943C16.052 8.3589 15.9178 7.97775 15.6493 7.70597C15.3842 7.43419 14.9815 7.2983 14.4412 7.2983C13.8811 7.2983 13.4419 7.42093 13.1238 7.66619C12.8056 7.91146 12.5819 8.1733 12.4526 8.4517L11.339 8.05398C11.5378 7.58996 11.803 7.22869 12.1344 6.97017C12.4692 6.70833 12.8337 6.52604 13.2282 6.4233C13.6259 6.31723 14.017 6.2642 14.4015 6.2642C14.6467 6.2642 14.9284 6.29403 15.2466 6.35369C15.5681 6.41004 15.878 6.5277 16.1763 6.70668C16.4779 6.88565 16.7282 7.15578 16.927 7.51705C17.1259 7.87831 17.2253 8.36222 17.2253 8.96875V14H16.052V12.9659H15.9924C15.9128 13.1316 15.7802 13.3089 15.5946 13.4979C15.409 13.6868 15.1621 13.8475 14.8539 13.9801C14.5456 14.1127 14.1694 14.179 13.7253 14.179ZM13.9043 13.125C14.3683 13.125 14.7594 13.0339 15.0776 12.8516C15.3991 12.6693 15.641 12.4339 15.8034 12.1456C15.9692 11.8572 16.052 11.554 16.052 11.2358V10.1619C16.0023 10.2216 15.8929 10.2763 15.7239 10.326C15.5582 10.3724 15.3659 10.4138 15.1472 10.4503C14.9318 10.4834 14.7213 10.5133 14.5158 10.5398C14.3136 10.563 14.1496 10.5829 14.0236 10.5994C13.7187 10.6392 13.4337 10.7038 13.1685 10.7933C12.9067 10.8795 12.6945 11.0104 12.5321 11.1861C12.373 11.3584 12.2935 11.5937 12.2935 11.892C12.2935 12.2997 12.4443 12.608 12.7459 12.8168C13.0508 13.0223 13.437 13.125 13.9043 13.125ZM19.3668 14V6.36364H20.5004V7.51705H20.5799C20.7191 7.1392 20.971 6.83262 21.3356 6.5973C21.7002 6.36198 22.1112 6.24432 22.5685 6.24432C22.6547 6.24432 22.7624 6.24597 22.8917 6.24929C23.021 6.2526 23.1187 6.25758 23.185 6.2642V7.45739C23.1452 7.44744 23.0541 7.43253 22.9116 7.41264C22.7724 7.38944 22.6249 7.37784 22.4691 7.37784C22.0979 7.37784 21.7665 7.45573 21.4748 7.61151C21.1864 7.76397 20.9577 7.97609 20.7887 8.24787C20.623 8.51634 20.5401 8.82292 20.5401 9.16761V14H19.3668ZM27.2269 14.1591C26.5906 14.1591 26.0288 13.9983 25.5415 13.6768C25.0543 13.352 24.6732 12.8946 24.3981 12.3047C24.123 11.7114 23.9854 11.0104 23.9854 10.2017C23.9854 9.39962 24.123 8.7036 24.3981 8.11364C24.6732 7.52367 25.056 7.06794 25.5465 6.74645C26.0371 6.42495 26.6038 6.2642 27.2468 6.2642C27.744 6.2642 28.1367 6.34706 28.4251 6.51278C28.7167 6.67519 28.9388 6.8608 29.0913 7.0696C29.247 7.27509 29.368 7.44413 29.4542 7.5767H29.5536V3.81818H30.7269V14H29.5934V12.8267H29.4542C29.368 12.9659 29.2454 13.1416 29.0863 13.3537C28.9272 13.5625 28.7002 13.7498 28.4052 13.9155C28.1102 14.0779 27.7174 14.1591 27.2269 14.1591ZM27.386 13.1051C27.8567 13.1051 28.2544 12.9825 28.5792 12.7372C28.904 12.4886 29.1509 12.1456 29.32 11.7081C29.489 11.2673 29.5735 10.7585 29.5735 10.1818C29.5735 9.61174 29.4906 9.11293 29.3249 8.68537C29.1592 8.2545 28.9139 7.91974 28.5891 7.68111C28.2643 7.43916 27.8633 7.31818 27.386 7.31818C26.8888 7.31818 26.4746 7.44579 26.1431 7.70099C25.815 7.95289 25.5681 8.29593 25.4023 8.73011C25.2399 9.16098 25.1587 9.64489 25.1587 10.1818C25.1587 10.7254 25.2416 11.2192 25.4073 11.6634C25.5763 12.1042 25.8249 12.4555 26.1531 12.7173C26.4845 12.9759 26.8955 13.1051 27.386 13.1051ZM36.2404 14.1591C35.5046 14.1591 34.8699 13.9967 34.3363 13.6719C33.806 13.3438 33.3967 12.8864 33.1083 12.2997C32.8233 11.7098 32.6808 11.0237 32.6808 10.2415C32.6808 9.45928 32.8233 8.76989 33.1083 8.1733C33.3967 7.57339 33.7977 7.10606 34.3114 6.77131C34.8285 6.43324 35.4317 6.2642 36.1211 6.2642C36.5188 6.2642 36.9116 6.33049 37.2994 6.46307C37.6871 6.59564 38.0401 6.81108 38.3583 7.10938C38.6765 7.40436 38.93 7.79545 39.119 8.28267C39.3079 8.76989 39.4023 9.36979 39.4023 10.0824V10.5795H33.516V9.56534H38.2092C38.2092 9.13447 38.123 8.75 37.9506 8.41193C37.7816 8.07386 37.5397 7.80705 37.2248 7.61151C36.9132 7.41596 36.5453 7.31818 36.1211 7.31818C35.6538 7.31818 35.2494 7.43419 34.908 7.66619C34.57 7.89489 34.3098 8.19318 34.1275 8.56108C33.9452 8.92898 33.854 9.32339 33.854 9.74432V10.4205C33.854 10.9972 33.9535 11.486 34.1523 11.8871C34.3545 12.2848 34.6346 12.5881 34.9925 12.7969C35.3505 13.0024 35.7665 13.1051 36.2404 13.1051C36.5487 13.1051 36.8271 13.062 37.0756 12.9759C37.3275 12.8864 37.5446 12.7538 37.7269 12.5781C37.9092 12.3991 38.0501 12.1771 38.1495 11.9119L39.283 12.2301C39.1637 12.6146 38.9632 12.9527 38.6815 13.2443C38.3997 13.5327 38.0517 13.758 37.6374 13.9205C37.2231 14.0795 36.7575 14.1591 36.2404 14.1591ZM42.3604 9.40625V14H41.1871V6.36364H42.3207V7.55682H42.4201C42.5991 7.16903 42.8709 6.85748 43.2354 6.62216C43.6 6.38352 44.0707 6.2642 44.6474 6.2642C45.1644 6.2642 45.6168 6.37027 46.0046 6.58239C46.3924 6.79119 46.694 7.10938 46.9094 7.53693C47.1249 7.96117 47.2326 8.49811 47.2326 9.14773V14H46.0593V9.22727C46.0593 8.62737 45.9035 8.16004 45.592 7.82528C45.2804 7.48722 44.8529 7.31818 44.3093 7.31818C43.9348 7.31818 43.6 7.39938 43.305 7.56179C43.0134 7.72419 42.783 7.96117 42.614 8.27273C42.445 8.58428 42.3604 8.96212 42.3604 9.40625ZM56.4164 14.1591C55.727 14.1591 55.1221 13.995 54.6017 13.6669C54.0847 13.3388 53.6803 12.8797 53.3887 12.2898C53.1003 11.6998 52.9561 11.0104 52.9561 10.2216C52.9561 9.42614 53.1003 8.73177 53.3887 8.13849C53.6803 7.54522 54.0847 7.08452 54.6017 6.75639C55.1221 6.42827 55.727 6.2642 56.4164 6.2642C57.1058 6.2642 57.709 6.42827 58.226 6.75639C58.7464 7.08452 59.1507 7.54522 59.4391 8.13849C59.7308 8.73177 59.8766 9.42614 59.8766 10.2216C59.8766 11.0104 59.7308 11.6998 59.4391 12.2898C59.1507 12.8797 58.7464 13.3388 58.226 13.6669C57.709 13.995 57.1058 14.1591 56.4164 14.1591ZM56.4164 13.1051C56.94 13.1051 57.3709 12.9709 57.709 12.7024C58.0471 12.4339 58.2973 12.081 58.4597 11.6435C58.6221 11.206 58.7033 10.732 58.7033 10.2216C58.7033 9.71117 58.6221 9.23556 58.4597 8.79474C58.2973 8.35393 58.0471 7.99763 57.709 7.72585C57.3709 7.45407 56.94 7.31818 56.4164 7.31818C55.8927 7.31818 55.4618 7.45407 55.1238 7.72585C54.7857 7.99763 54.5355 8.35393 54.373 8.79474C54.2106 9.23556 54.1294 9.71117 54.1294 10.2216C54.1294 10.732 54.2106 11.206 54.373 11.6435C54.5355 12.081 54.7857 12.4339 55.1238 12.7024C55.4618 12.9709 55.8927 13.1051 56.4164 13.1051ZM65.0682 6.36364V7.35795H60.9517V6.36364H65.0682ZM62.1847 14V5.30966C62.1847 4.87216 62.2874 4.50758 62.4929 4.21591C62.6984 3.92424 62.9652 3.70549 63.2933 3.55966C63.6214 3.41383 63.9678 3.34091 64.3324 3.34091C64.6207 3.34091 64.8561 3.36411 65.0384 3.41051C65.2206 3.45691 65.3565 3.5 65.446 3.53977L65.108 4.55398C65.0483 4.53409 64.9654 4.50923 64.8594 4.4794C64.7566 4.44957 64.6207 4.43466 64.4517 4.43466C64.0639 4.43466 63.7839 4.53243 63.6115 4.72798C63.4425 4.92353 63.358 5.21023 63.358 5.58807V14H62.1847ZM70.8091 14V3.81818H72.0421V12.9062H76.775V14H70.8091ZM78.525 14V6.36364H79.6983V14H78.525ZM79.1216 5.09091C78.8929 5.09091 78.6957 5.01302 78.53 4.85724C78.3676 4.70147 78.2864 4.5142 78.2864 4.29545C78.2864 4.0767 78.3676 3.88944 78.53 3.73366C78.6957 3.57789 78.8929 3.5 79.1216 3.5C79.3503 3.5 79.5459 3.57789 79.7083 3.73366C79.874 3.88944 79.9569 4.0767 79.9569 4.29545C79.9569 4.5142 79.874 4.70147 79.7083 4.85724C79.5459 5.01302 79.3503 5.09091 79.1216 5.09091ZM85.2479 6.36364V7.35795H81.1314V6.36364H85.2479ZM82.3643 14V5.30966C82.3643 4.87216 82.4671 4.50758 82.6726 4.21591C82.8781 3.92424 83.1449 3.70549 83.473 3.55966C83.8011 3.41383 84.1475 3.34091 84.5121 3.34091C84.8004 3.34091 85.0357 3.36411 85.218 3.41051C85.4003 3.45691 85.5362 3.5 85.6257 3.53977L85.2876 4.55398C85.228 4.53409 85.1451 4.50923 85.0391 4.4794C84.9363 4.44957 84.8004 4.43466 84.6314 4.43466C84.2436 4.43466 83.9635 4.53243 83.7912 4.72798C83.6222 4.92353 83.5376 5.21023 83.5376 5.58807V14H82.3643ZM89.7795 14.1591C89.0437 14.1591 88.409 13.9967 87.8754 13.6719C87.3451 13.3438 86.9357 12.8864 86.6474 12.2997C86.3623 11.7098 86.2198 11.0237 86.2198 10.2415C86.2198 9.45928 86.3623 8.76989 86.6474 8.1733C86.9357 7.57339 87.3368 7.10606 87.8505 6.77131C88.3675 6.43324 88.9708 6.2642 89.6602 6.2642C90.0579 6.2642 90.4506 6.33049 90.8384 6.46307C91.2262 6.59564 91.5792 6.81108 91.8974 7.10938C92.2156 7.40436 92.4691 7.79545 92.658 8.28267C92.8469 8.76989 92.9414 9.36979 92.9414 10.0824V10.5795H87.055V9.56534H91.7482C91.7482 9.13447 91.6621 8.75 91.4897 8.41193C91.3207 8.07386 91.0787 7.80705 90.7638 7.61151C90.4523 7.41596 90.0844 7.31818 89.6602 7.31818C89.1928 7.31818 88.7885 7.43419 88.4471 7.66619C88.109 7.89489 87.8488 8.19318 87.6665 8.56108C87.4843 8.92898 87.3931 9.32339 87.3931 9.74432V10.4205C87.3931 10.9972 87.4925 11.486 87.6914 11.8871C87.8936 12.2848 88.1737 12.5881 88.5316 12.7969C88.8896 13.0024 89.3055 13.1051 89.7795 13.1051C90.0877 13.1051 90.3661 13.062 90.6147 12.9759C90.8666 12.8864 91.0837 12.7538 91.266 12.5781C91.4483 12.3991 91.5891 12.1771 91.6886 11.9119L92.8221 12.2301C92.7028 12.6146 92.5022 12.9527 92.2205 13.2443C91.9388 13.5327 91.5908 13.758 91.1765 13.9205C90.7622 14.0795 90.2965 14.1591 89.7795 14.1591Z" fill="#0B1A2B"/>
<path d="M225.774 9.05029C225.774 8.36051 225.845 7.63794 225.987 6.88257C226.128 6.1272 226.322 5.39933 226.567 4.69897C226.813 3.99862 227.094 3.38818 227.412 2.86768H228.522C228.197 3.53206 227.914 4.22396 227.675 4.94336C227.436 5.66276 227.253 6.37264 227.126 7.073C226.999 7.77336 226.936 8.43245 226.936 9.05029C226.936 9.61312 226.992 10.1823 227.104 10.7578C227.216 11.3333 227.389 11.9417 227.624 12.5828C227.859 13.2239 228.159 13.9211 228.522 14.6743H227.412C226.874 13.756 226.467 12.8208 226.19 11.8687C225.913 10.9165 225.774 9.97705 225.774 9.05029ZM230.109 13.5V12.6304L233.251 9.22168C233.603 8.84082 233.895 8.50651 234.127 8.21875C234.36 7.93099 234.536 7.65698 234.654 7.39673C234.773 7.13647 234.832 6.86035 234.832 6.56836C234.832 6.23828 234.754 5.95264 234.597 5.71143C234.441 5.47021 234.229 5.28507 233.962 5.15601C233.696 5.02694 233.393 4.9624 233.055 4.9624C232.695 4.9624 232.383 5.0354 232.118 5.1814C231.854 5.32739 231.65 5.53263 231.506 5.79712C231.362 6.0616 231.29 6.37158 231.29 6.72705H230.135C230.135 6.16846 230.264 5.67757 230.522 5.25439C230.78 4.83122 231.131 4.5022 231.576 4.26733C232.02 4.03247 232.524 3.91504 233.086 3.91504C233.649 3.91504 234.148 4.03247 234.581 4.26733C235.015 4.5022 235.356 4.81852 235.603 5.21631C235.851 5.6141 235.975 6.06055 235.975 6.55566C235.975 6.89844 235.913 7.23169 235.791 7.55542C235.668 7.87915 235.452 8.24626 235.143 8.65674C234.834 9.06722 234.4 9.56868 233.842 10.1611L231.772 12.3638V12.4399H236.133V13.5H230.109ZM237.619 11.5767V10.5928L241.757 4.04199H242.487V5.55273H241.999L238.907 10.4404V10.5166H244.506V11.5767H237.619ZM242.068 13.5V11.2847L242.075 10.8213V4.04199H243.224V13.5H242.068ZM245.864 14.6743C246.241 13.8999 246.546 13.19 246.778 12.5447C247.011 11.8993 247.181 11.291 247.289 10.7197C247.397 10.1484 247.451 9.59196 247.451 9.05029C247.451 8.43245 247.388 7.77336 247.261 7.073C247.134 6.37264 246.952 5.66276 246.715 4.94336C246.478 4.22396 246.194 3.53206 245.864 2.86768H246.975C247.292 3.38818 247.575 3.99862 247.823 4.69897C248.07 5.39933 248.264 6.12826 248.403 6.88574C248.543 7.64323 248.613 8.36475 248.613 9.05029C248.613 9.99398 248.472 10.9419 248.191 11.894C247.909 12.8462 247.504 13.7729 246.975 14.6743H245.864Z" fill="#8A9198"/>
</svg>
