<svg width="250" height="17" viewBox="0 0 250 17" fill="none" xmlns="http://www.w3.org/2000/svg">
<path d="M9.30682 3.81818V14H8.11364L2.56534 6.00568H2.46591V14H1.23295V3.81818H2.42614L7.99432 11.8324H8.09375V3.81818H9.30682ZM13.862 14.179C13.3781 14.179 12.939 14.0878 12.5446 13.9055C12.1502 13.7199 11.8369 13.4531 11.6049 13.1051C11.3729 12.7538 11.2569 12.3295 11.2569 11.8324C11.2569 11.3949 11.3431 11.0402 11.5154 10.7685C11.6878 10.4934 11.9181 10.2779 12.2065 10.1222C12.4949 9.96638 12.813 9.85038 13.161 9.77415C13.5124 9.6946 13.8654 9.63163 14.22 9.58523C14.684 9.52557 15.0602 9.48082 15.3485 9.45099C15.6402 9.41785 15.8523 9.36316 15.9849 9.28693C16.1208 9.2107 16.1887 9.07812 16.1887 8.8892V8.84943C16.1887 8.3589 16.0545 7.97775 15.786 7.70597C15.5209 7.43419 15.1182 7.2983 14.5779 7.2983C14.0178 7.2983 13.5787 7.42093 13.2605 7.66619C12.9423 7.91146 12.7186 8.1733 12.5893 8.4517L11.4757 8.05398C11.6745 7.58996 11.9397 7.22869 12.2711 6.97017C12.6059 6.70833 12.9705 6.52604 13.3649 6.4233C13.7626 6.31723 14.1537 6.2642 14.5382 6.2642C14.7834 6.2642 15.0652 6.29403 15.3833 6.35369C15.7048 6.41004 16.0147 6.5277 16.313 6.70668C16.6146 6.88565 16.8649 7.15578 17.0637 7.51705C17.2626 7.87831 17.362 8.36222 17.362 8.96875V14H16.1887V12.9659H16.1291C16.0495 13.1316 15.917 13.3089 15.7314 13.4979C15.5458 13.6868 15.2988 13.8475 14.9906 13.9801C14.6824 14.1127 14.3062 14.179 13.862 14.179ZM14.041 13.125C14.505 13.125 14.8961 13.0339 15.2143 12.8516C15.5358 12.6693 15.7778 12.4339 15.9402 12.1456C16.1059 11.8572 16.1887 11.554 16.1887 11.2358V10.1619C16.139 10.2216 16.0297 10.2763 15.8606 10.326C15.6949 10.3724 15.5027 10.4138 15.2839 10.4503C15.0685 10.4834 14.858 10.5133 14.6525 10.5398C14.4503 10.563 14.2863 10.5829 14.1603 10.5994C13.8554 10.6392 13.5704 10.7038 13.3052 10.7933C13.0434 10.8795 12.8313 11.0104 12.6689 11.1861C12.5098 11.3584 12.4302 11.5937 12.4302 11.892C12.4302 12.2997 12.581 12.608 12.8826 12.8168C13.1876 13.0223 13.5737 13.125 14.041 13.125ZM22.8246 6.36364V7.35795H18.8672V6.36364H22.8246ZM20.0206 4.53409H21.1939V11.8125C21.1939 12.1439 21.242 12.3925 21.3381 12.5582C21.4375 12.7206 21.5634 12.83 21.7159 12.8864C21.8717 12.9394 22.0357 12.9659 22.2081 12.9659C22.3374 12.9659 22.4434 12.9593 22.5263 12.946C22.6091 12.9295 22.6754 12.9162 22.7251 12.9062L22.9638 13.9602C22.8842 13.9901 22.7732 14.0199 22.6307 14.0497C22.4882 14.0829 22.3075 14.0994 22.0888 14.0994C21.7573 14.0994 21.4325 14.0282 21.1143 13.8857C20.7995 13.7431 20.5376 13.526 20.3288 13.2344C20.1233 12.9427 20.0206 12.5748 20.0206 12.1307V4.53409ZM29.402 10.8778V6.36364H30.5753V14H29.402V12.7074H29.3224C29.1435 13.0952 28.8651 13.425 28.4872 13.6967C28.1094 13.9652 27.6321 14.0994 27.0554 14.0994C26.5781 14.0994 26.1539 13.995 25.7827 13.7862C25.4115 13.5741 25.1198 13.2559 24.9077 12.8317C24.6955 12.4041 24.5895 11.8655 24.5895 11.2159V6.36364H25.7628V11.1364C25.7628 11.6932 25.9186 12.1373 26.2301 12.4688C26.545 12.8002 26.946 12.9659 27.4332 12.9659C27.7249 12.9659 28.0215 12.8913 28.3232 12.7422C28.6281 12.593 28.8833 12.3643 29.0888 12.0561C29.2976 11.7479 29.402 11.3551 29.402 10.8778ZM32.7243 14V6.36364H33.8578V7.51705H33.9373C34.0765 7.1392 34.3284 6.83262 34.693 6.5973C35.0576 6.36198 35.4686 6.24432 35.926 6.24432C36.0121 6.24432 36.1199 6.24597 36.2491 6.24929C36.3784 6.2526 36.4761 6.25758 36.5424 6.2642V7.45739C36.5027 7.44744 36.4115 7.43253 36.269 7.41264C36.1298 7.38944 35.9823 7.37784 35.8265 7.37784C35.4553 7.37784 35.1239 7.45573 34.8322 7.61151C34.5439 7.76397 34.3152 7.97609 34.1461 8.24787C33.9804 8.51634 33.8975 8.82292 33.8975 9.16761V14H32.7243ZM40.9025 14.1591C40.1667 14.1591 39.532 13.9967 38.9984 13.6719C38.4681 13.3438 38.0588 12.8864 37.7704 12.2997C37.4854 11.7098 37.3429 11.0237 37.3429 10.2415C37.3429 9.45928 37.4854 8.76989 37.7704 8.1733C38.0588 7.57339 38.4598 7.10606 38.9735 6.77131C39.4906 6.43324 40.0938 6.2642 40.7832 6.2642C41.1809 6.2642 41.5737 6.33049 41.9615 6.46307C42.3493 6.59564 42.7022 6.81108 43.0204 7.10938C43.3386 7.40436 43.5922 7.79545 43.7811 8.28267C43.97 8.76989 44.0645 9.36979 44.0645 10.0824V10.5795H38.1781V9.56534H42.8713C42.8713 9.13447 42.7851 8.75 42.6127 8.41193C42.4437 8.07386 42.2018 7.80705 41.8869 7.61151C41.5753 7.41596 41.2074 7.31818 40.7832 7.31818C40.3159 7.31818 39.9115 7.43419 39.5701 7.66619C39.2321 7.89489 38.9719 8.19318 38.7896 8.56108C38.6073 8.92898 38.5162 9.32339 38.5162 9.74432V10.4205C38.5162 10.9972 38.6156 11.486 38.8145 11.8871C39.0166 12.2848 39.2967 12.5881 39.6547 12.7969C40.0126 13.0024 40.4286 13.1051 40.9025 13.1051C41.2108 13.1051 41.4892 13.062 41.7377 12.9759C41.9896 12.8864 42.2067 12.7538 42.389 12.5781C42.5713 12.3991 42.7122 12.1771 42.8116 11.9119L43.9451 12.2301C43.8258 12.6146 43.6253 12.9527 43.3436 13.2443C43.0618 13.5327 42.7138 13.758 42.2995 13.9205C41.8852 14.0795 41.4196 14.1591 40.9025 14.1591ZM49.9458 3.81818H51.4174L54.8777 12.2699H54.997L58.4572 3.81818H59.9288V14H58.7754V6.2642H58.676L55.4941 14H54.3805L51.1987 6.2642H51.0993V14H49.9458V3.81818ZM64.489 14.179C64.0051 14.179 63.5659 14.0878 63.1715 13.9055C62.7771 13.7199 62.4639 13.4531 62.2319 13.1051C61.9999 12.7538 61.8839 12.3295 61.8839 11.8324C61.8839 11.3949 61.9701 11.0402 62.1424 10.7685C62.3147 10.4934 62.5451 10.2779 62.8335 10.1222C63.1218 9.96638 63.44 9.85038 63.788 9.77415C64.1393 9.6946 64.4923 9.63163 64.8469 9.58523C65.311 9.52557 65.6871 9.48082 65.9755 9.45099C66.2672 9.41785 66.4793 9.36316 66.6119 9.28693C66.7478 9.2107 66.8157 9.07812 66.8157 8.8892V8.84943C66.8157 8.3589 66.6815 7.97775 66.413 7.70597C66.1478 7.43419 65.7451 7.2983 65.2049 7.2983C64.6448 7.2983 64.2056 7.42093 63.8874 7.66619C63.5692 7.91146 63.3455 8.1733 63.2163 8.4517L62.1026 8.05398C62.3015 7.58996 62.5666 7.22869 62.8981 6.97017C63.2328 6.70833 63.5974 6.52604 63.9918 6.4233C64.3896 6.31723 64.7807 6.2642 65.1651 6.2642C65.4104 6.2642 65.6921 6.29403 66.0103 6.35369C66.3318 6.41004 66.6417 6.5277 66.94 6.70668C67.2416 6.88565 67.4918 7.15578 67.6907 7.51705C67.8896 7.87831 67.989 8.36222 67.989 8.96875V14H66.8157V12.9659H66.756C66.6765 13.1316 66.5439 13.3089 66.3583 13.4979C66.1727 13.6868 65.9258 13.8475 65.6175 13.9801C65.3093 14.1127 64.9331 14.179 64.489 14.179ZM64.668 13.125C65.132 13.125 65.5231 13.0339 65.8413 12.8516C66.1628 12.6693 66.4047 12.4339 66.5671 12.1456C66.7328 11.8572 66.8157 11.554 66.8157 11.2358V10.1619C66.766 10.2216 66.6566 10.2763 66.4876 10.326C66.3219 10.3724 66.1296 10.4138 65.9109 10.4503C65.6954 10.4834 65.485 10.5133 65.2795 10.5398C65.0773 10.563 64.9132 10.5829 64.7873 10.5994C64.4824 10.6392 64.1973 10.7038 63.9322 10.7933C63.6703 10.8795 63.4582 11.0104 63.2958 11.1861C63.1367 11.3584 63.0572 11.5937 63.0572 11.892C63.0572 12.2997 63.208 12.608 63.5096 12.8168C63.8145 13.0223 64.2006 13.125 64.668 13.125ZM73.014 14.1591C72.3777 14.1591 71.8159 13.9983 71.3287 13.6768C70.8414 13.352 70.4603 12.8946 70.1852 12.3047C69.9101 11.7114 69.7725 11.0104 69.7725 10.2017C69.7725 9.39962 69.9101 8.7036 70.1852 8.11364C70.4603 7.52367 70.8431 7.06794 71.3336 6.74645C71.8242 6.42495 72.3909 6.2642 73.0339 6.2642C73.5311 6.2642 73.9238 6.34706 74.2122 6.51278C74.5038 6.67519 74.7259 6.8608 74.8784 7.0696C75.0342 7.27509 75.1551 7.44413 75.2413 7.5767H75.3407V3.81818H76.514V14H75.3805V12.8267H75.2413C75.1551 12.9659 75.0325 13.1416 74.8734 13.3537C74.7143 13.5625 74.4873 13.7498 74.1923 13.9155C73.8973 14.0779 73.5046 14.1591 73.014 14.1591ZM73.1731 13.1051C73.6438 13.1051 74.0415 12.9825 74.3663 12.7372C74.6911 12.4886 74.938 12.1456 75.1071 11.7081C75.2761 11.2673 75.3606 10.7585 75.3606 10.1818C75.3606 9.61174 75.2778 9.11293 75.112 8.68537C74.9463 8.2545 74.7011 7.91974 74.3762 7.68111C74.0514 7.43916 73.6504 7.31818 73.1731 7.31818C72.676 7.31818 72.2617 7.44579 71.9302 7.70099C71.6021 7.95289 71.3552 8.29593 71.1895 8.73011C71.027 9.16098 70.9458 9.64489 70.9458 10.1818C70.9458 10.7254 71.0287 11.2192 71.1944 11.6634C71.3635 12.1042 71.612 12.4555 71.9402 12.7173C72.2716 12.9759 72.6826 13.1051 73.1731 13.1051ZM82.0275 14.1591C81.2917 14.1591 80.657 13.9967 80.1234 13.6719C79.5931 13.3438 79.1838 12.8864 78.8954 12.2997C78.6104 11.7098 78.4679 11.0237 78.4679 10.2415C78.4679 9.45928 78.6104 8.76989 78.8954 8.1733C79.1838 7.57339 79.5848 7.10606 80.0985 6.77131C80.6156 6.43324 81.2188 6.2642 81.9082 6.2642C82.3059 6.2642 82.6987 6.33049 83.0865 6.46307C83.4743 6.59564 83.8272 6.81108 84.1454 7.10938C84.4636 7.40436 84.7172 7.79545 84.9061 8.28267C85.095 8.76989 85.1895 9.36979 85.1895 10.0824V10.5795H79.3031V9.56534H83.9963C83.9963 9.13447 83.9101 8.75 83.7377 8.41193C83.5687 8.07386 83.3268 7.80705 83.0119 7.61151C82.7003 7.41596 82.3324 7.31818 81.9082 7.31818C81.4409 7.31818 81.0365 7.43419 80.6951 7.66619C80.3571 7.89489 80.0969 8.19318 79.9146 8.56108C79.7323 8.92898 79.6412 9.32339 79.6412 9.74432V10.4205C79.6412 10.9972 79.7406 11.486 79.9395 11.8871C80.1416 12.2848 80.4217 12.5881 80.7797 12.7969C81.1376 13.0024 81.5536 13.1051 82.0275 13.1051C82.3358 13.1051 82.6142 13.062 82.8627 12.9759C83.1146 12.8864 83.3317 12.7538 83.514 12.5781C83.6963 12.3991 83.8372 12.1771 83.9366 11.9119L85.0701 12.2301C84.9508 12.6146 84.7503 12.9527 84.4686 13.2443C84.1868 13.5327 83.8388 13.758 83.4245 13.9205C83.0102 14.0795 82.5446 14.1591 82.0275 14.1591Z" fill="#0B1A2B"/>
<path d="M225.794 9.05029C225.794 8.36051 225.865 7.63794 226.007 6.88257C226.148 6.1272 226.342 5.39933 226.587 4.69897C226.833 3.99862 227.114 3.38818 227.432 2.86768H228.542C228.217 3.53206 227.934 4.22396 227.695 4.94336C227.456 5.66276 227.273 6.37264 227.146 7.073C227.019 7.77336 226.956 8.43245 226.956 9.05029C226.956 9.61312 227.012 10.1823 227.124 10.7578C227.236 11.3333 227.409 11.9417 227.644 12.5828C227.879 13.2239 228.179 13.9211 228.542 14.6743H227.432C226.894 13.756 226.487 12.8208 226.21 11.8687C225.933 10.9165 225.794 9.97705 225.794 9.05029ZM229.914 11.5767V10.5928L234.052 4.04199H234.782V5.55273H234.293L231.202 10.4404V10.5166H236.801V11.5767H229.914ZM234.363 13.5V11.2847L234.37 10.8213V4.04199H235.519V13.5H234.363ZM241.333 13.627C240.779 13.627 240.281 13.518 239.841 13.3C239.401 13.0821 239.05 12.7838 238.788 12.405C238.525 12.0263 238.383 11.5957 238.362 11.1133H239.53C239.556 11.3926 239.651 11.6423 239.816 11.8623C239.981 12.0824 240.196 12.2548 240.46 12.3796C240.725 12.5045 241.016 12.5669 241.333 12.5669C241.714 12.5669 242.053 12.478 242.352 12.3003C242.65 12.1226 242.884 11.8771 243.053 11.564C243.222 11.2508 243.307 10.8953 243.307 10.4976C243.307 10.0913 243.218 9.72738 243.041 9.40576C242.863 9.08415 242.621 8.8313 242.314 8.64722C242.007 8.46313 241.655 8.37109 241.257 8.37109C240.965 8.37109 240.669 8.41764 240.368 8.51074C240.068 8.60384 239.824 8.72233 239.638 8.86621L238.508 8.72656L239.067 4.04199H244.043V5.10205H240.083L239.759 7.86328H239.81C240.004 7.70247 240.25 7.57023 240.546 7.46655C240.842 7.36287 241.153 7.31104 241.479 7.31104C241.911 7.31104 242.309 7.38932 242.676 7.5459C243.042 7.70247 243.36 7.92358 243.631 8.20923C243.902 8.49487 244.112 8.83024 244.262 9.21533C244.413 9.60042 244.488 10.0215 244.488 10.4785C244.488 11.0837 244.351 11.6232 244.078 12.0972C243.805 12.5711 243.432 12.9446 242.958 13.2175C242.484 13.4905 241.942 13.627 241.333 13.627ZM245.872 14.6743C246.248 13.8999 246.553 13.19 246.786 12.5447C247.018 11.8993 247.189 11.291 247.297 10.7197C247.405 10.1484 247.458 9.59196 247.458 9.05029C247.458 8.43245 247.395 7.77336 247.268 7.073C247.141 6.37264 246.959 5.66276 246.722 4.94336C246.485 4.22396 246.202 3.53206 245.872 2.86768H246.982C247.3 3.38818 247.582 3.99862 247.83 4.69897C248.077 5.39933 248.271 6.12826 248.411 6.88574C248.55 7.64323 248.62 8.36475 248.62 9.05029C248.62 9.99398 248.479 10.9419 248.198 11.894C247.917 12.8462 247.511 13.7729 246.982 14.6743H245.872Z" fill="#8A9198"/>
</svg>
