<svg width="250" height="17" viewBox="0 0 250 17" fill="none" xmlns="http://www.w3.org/2000/svg">
<path d="M9.30682 3.81818V14H8.11364L2.56534 6.00568H2.46591V14H1.23295V3.81818H2.42614L7.99432 11.8324H8.09375V3.81818H9.30682ZM20.3649 8.90909C20.3649 9.98295 20.171 10.911 19.7832 11.6932C19.3954 12.4754 18.8635 13.0786 18.1873 13.5028C17.5112 13.9271 16.7389 14.1392 15.8706 14.1392C15.0022 14.1392 14.2299 13.9271 13.5538 13.5028C12.8777 13.0786 12.3457 12.4754 11.9579 11.6932C11.5701 10.911 11.3762 9.98295 11.3762 8.90909C11.3762 7.83523 11.5701 6.9072 11.9579 6.125C12.3457 5.3428 12.8777 4.73958 13.5538 4.31534C14.2299 3.8911 15.0022 3.67898 15.8706 3.67898C16.7389 3.67898 17.5112 3.8911 18.1873 4.31534C18.8635 4.73958 19.3954 5.3428 19.7832 6.125C20.171 6.9072 20.3649 7.83523 20.3649 8.90909ZM19.1717 8.90909C19.1717 8.02746 19.0242 7.28338 18.7292 6.67685C18.4376 6.07031 18.0415 5.61127 17.541 5.29972C17.0439 4.98816 16.487 4.83239 15.8706 4.83239C15.2541 4.83239 14.6956 4.98816 14.1951 5.29972C13.698 5.61127 13.3019 6.07031 13.0069 6.67685C12.7153 7.28338 12.5694 8.02746 12.5694 8.90909C12.5694 9.79072 12.7153 10.5348 13.0069 11.1413C13.3019 11.7479 13.698 12.2069 14.1951 12.5185C14.6956 12.83 15.2541 12.9858 15.8706 12.9858C16.487 12.9858 17.0439 12.83 17.541 12.5185C18.0415 12.2069 18.4376 11.7479 18.7292 11.1413C19.0242 10.5348 19.1717 9.79072 19.1717 8.90909ZM24.2875 14L21.5034 3.81818H22.7562L24.8841 12.1108H24.9835L27.1511 3.81818H28.5431L30.7108 12.1108H30.8102L32.938 3.81818H34.1909L31.4068 14H30.1341L27.8869 5.88636H27.8074L25.5602 14H24.2875ZM39.6646 14V3.81818H45.7697V4.91193H40.8975V8.35227H45.3123V9.44602H40.8975V14H39.6646ZM50.264 14.1591C49.5746 14.1591 48.9698 13.995 48.4494 13.6669C47.9324 13.3388 47.528 12.8797 47.2363 12.2898C46.948 11.6998 46.8038 11.0104 46.8038 10.2216C46.8038 9.42614 46.948 8.73177 47.2363 8.13849C47.528 7.54522 47.9324 7.08452 48.4494 6.75639C48.9698 6.42827 49.5746 6.2642 50.264 6.2642C50.9534 6.2642 51.5566 6.42827 52.0737 6.75639C52.594 7.08452 52.9984 7.54522 53.2868 8.13849C53.5784 8.73177 53.7243 9.42614 53.7243 10.2216C53.7243 11.0104 53.5784 11.6998 53.2868 12.2898C52.9984 12.8797 52.594 13.3388 52.0737 13.6669C51.5566 13.995 50.9534 14.1591 50.264 14.1591ZM50.264 13.1051C50.7877 13.1051 51.2186 12.9709 51.5566 12.7024C51.8947 12.4339 52.1449 12.081 52.3074 11.6435C52.4698 11.206 52.551 10.732 52.551 10.2216C52.551 9.71117 52.4698 9.23556 52.3074 8.79474C52.1449 8.35393 51.8947 7.99763 51.5566 7.72585C51.2186 7.45407 50.7877 7.31818 50.264 7.31818C49.7404 7.31818 49.3095 7.45407 48.9714 7.72585C48.6333 7.99763 48.3831 8.35393 48.2207 8.79474C48.0583 9.23556 47.9771 9.71117 47.9771 10.2216C47.9771 10.732 48.0583 11.206 48.2207 11.6435C48.3831 12.081 48.6333 12.4339 48.9714 12.7024C49.3095 12.9709 49.7404 13.1051 50.264 13.1051ZM58.6175 14.1591C57.9281 14.1591 57.3233 13.995 56.8029 13.6669C56.2859 13.3388 55.8815 12.8797 55.5898 12.2898C55.3015 11.6998 55.1573 11.0104 55.1573 10.2216C55.1573 9.42614 55.3015 8.73177 55.5898 8.13849C55.8815 7.54522 56.2859 7.08452 56.8029 6.75639C57.3233 6.42827 57.9281 6.2642 58.6175 6.2642C59.3069 6.2642 59.9102 6.42827 60.4272 6.75639C60.9476 7.08452 61.3519 7.54522 61.6403 8.13849C61.9319 8.73177 62.0778 9.42614 62.0778 10.2216C62.0778 11.0104 61.9319 11.6998 61.6403 12.2898C61.3519 12.8797 60.9476 13.3388 60.4272 13.6669C59.9102 13.995 59.3069 14.1591 58.6175 14.1591ZM58.6175 13.1051C59.1412 13.1051 59.5721 12.9709 59.9102 12.7024C60.2482 12.4339 60.4985 12.081 60.6609 11.6435C60.8233 11.206 60.9045 10.732 60.9045 10.2216C60.9045 9.71117 60.8233 9.23556 60.6609 8.79474C60.4985 8.35393 60.2482 7.99763 59.9102 7.72585C59.5721 7.45407 59.1412 7.31818 58.6175 7.31818C58.0939 7.31818 57.663 7.45407 57.3249 7.72585C56.9869 7.99763 56.7366 8.35393 56.5742 8.79474C56.4118 9.23556 56.3306 9.71117 56.3306 10.2216C56.3306 10.732 56.4118 11.206 56.5742 11.6435C56.7366 12.081 56.9869 12.4339 57.3249 12.7024C57.663 12.9709 58.0939 13.1051 58.6175 13.1051ZM66.7523 14.1591C66.1159 14.1591 65.5542 13.9983 65.0669 13.6768C64.5797 13.352 64.1986 12.8946 63.9235 12.3047C63.6484 11.7114 63.5108 11.0104 63.5108 10.2017C63.5108 9.39962 63.6484 8.7036 63.9235 8.11364C64.1986 7.52367 64.5814 7.06794 65.0719 6.74645C65.5624 6.42495 66.1292 6.2642 66.7722 6.2642C67.2694 6.2642 67.6621 6.34706 67.9505 6.51278C68.2421 6.67519 68.4642 6.8608 68.6167 7.0696C68.7724 7.27509 68.8934 7.44413 68.9796 7.5767H69.079V3.81818H70.2523V14H69.1188V12.8267H68.9796C68.8934 12.9659 68.7708 13.1416 68.6117 13.3537C68.4526 13.5625 68.2256 13.7498 67.9306 13.9155C67.6356 14.0779 67.2428 14.1591 66.7523 14.1591ZM66.9114 13.1051C67.382 13.1051 67.7798 12.9825 68.1046 12.7372C68.4294 12.4886 68.6763 12.1456 68.8453 11.7081C69.0144 11.2673 69.0989 10.7585 69.0989 10.1818C69.0989 9.61174 69.016 9.11293 68.8503 8.68537C68.6846 8.2545 68.4393 7.91974 68.1145 7.68111C67.7897 7.43916 67.3887 7.31818 66.9114 7.31818C66.4142 7.31818 65.9999 7.44579 65.6685 7.70099C65.3404 7.95289 65.0935 8.29593 64.9277 8.73011C64.7653 9.16098 64.6841 9.64489 64.6841 10.1818C64.6841 10.7254 64.767 11.2192 64.9327 11.6634C65.1017 12.1042 65.3503 12.4555 65.6784 12.7173C66.0099 12.9759 66.4209 13.1051 66.9114 13.1051ZM77.9732 8.07386L76.9192 8.37216C76.8529 8.1965 76.7551 8.0258 76.6259 7.86009C76.4999 7.69105 76.3276 7.55185 76.1088 7.44247C75.8901 7.3331 75.61 7.27841 75.2686 7.27841C74.8013 7.27841 74.4119 7.38613 74.1003 7.60156C73.7921 7.81368 73.638 8.08381 73.638 8.41193C73.638 8.7036 73.744 8.93395 73.9561 9.10298C74.1683 9.27202 74.4997 9.41288 74.9505 9.52557L76.084 9.80398C76.7667 9.9697 77.2755 10.2232 77.6103 10.5646C77.945 10.9027 78.1124 11.3385 78.1124 11.8722C78.1124 12.3097 77.9864 12.7008 77.7346 13.0455C77.486 13.3902 77.138 13.6619 76.6905 13.8608C76.2431 14.0597 75.7227 14.1591 75.1294 14.1591C74.3506 14.1591 73.7059 13.9901 73.1955 13.652C72.6851 13.3139 72.3619 12.8201 72.226 12.1705L73.3397 11.892C73.4457 12.303 73.6462 12.6113 73.9412 12.8168C74.2395 13.0223 74.629 13.125 75.1096 13.125C75.6564 13.125 76.0906 13.009 76.4121 12.777C76.7369 12.5417 76.8993 12.2599 76.8993 11.9318C76.8993 11.6667 76.8065 11.4446 76.6209 11.2656C76.4353 11.0833 76.1503 10.9474 75.7658 10.858L74.4931 10.5597C73.7937 10.3939 73.28 10.1371 72.9519 9.78906C72.6271 9.43774 72.4647 8.99858 72.4647 8.47159C72.4647 8.04072 72.5856 7.65956 72.8276 7.32812C73.0729 6.99669 73.406 6.73651 73.8269 6.54758C74.2511 6.35866 74.7317 6.2642 75.2686 6.2642C76.0243 6.2642 76.6176 6.42992 77.0485 6.76136C77.4827 7.0928 77.7909 7.5303 77.9732 8.07386Z" fill="#0B1A2B"/>
<path d="M226.114 9.05029C226.114 8.36051 226.185 7.63794 226.326 6.88257C226.468 6.1272 226.662 5.39933 226.907 4.69897C227.153 3.99862 227.434 3.38818 227.751 2.86768H228.862C228.536 3.53206 228.254 4.22396 228.015 4.94336C227.776 5.66276 227.593 6.37264 227.466 7.073C227.339 7.77336 227.275 8.43245 227.275 9.05029C227.275 9.61312 227.331 10.1823 227.444 10.7578C227.556 11.3333 227.729 11.9417 227.964 12.5828C228.199 13.2239 228.498 13.9211 228.862 14.6743H227.751C227.214 13.756 226.807 12.8208 226.53 11.8687C226.252 10.9165 226.114 9.97705 226.114 9.05029ZM233.255 13.627C232.701 13.627 232.203 13.518 231.763 13.3C231.323 13.0821 230.972 12.7838 230.709 12.405C230.447 12.0263 230.305 11.5957 230.284 11.1133H231.452C231.478 11.3926 231.573 11.6423 231.738 11.8623C231.903 12.0824 232.118 12.2548 232.382 12.3796C232.647 12.5045 232.938 12.5669 233.255 12.5669C233.636 12.5669 233.975 12.478 234.274 12.3003C234.572 12.1226 234.806 11.8771 234.975 11.564C235.144 11.2508 235.229 10.8953 235.229 10.4976C235.229 10.0913 235.14 9.72738 234.962 9.40576C234.785 9.08415 234.542 8.8313 234.236 8.64722C233.929 8.46313 233.576 8.37109 233.179 8.37109C232.887 8.37109 232.59 8.41764 232.29 8.51074C231.99 8.60384 231.746 8.72233 231.56 8.86621L230.43 8.72656L230.989 4.04199H235.965V5.10205H232.004L231.681 7.86328H231.731C231.926 7.70247 232.172 7.57023 232.468 7.46655C232.764 7.36287 233.075 7.31104 233.401 7.31104C233.833 7.31104 234.231 7.38932 234.597 7.5459C234.963 7.70247 235.282 7.92358 235.553 8.20923C235.824 8.49487 236.034 8.83024 236.184 9.21533C236.335 9.60042 236.41 10.0215 236.41 10.4785C236.41 11.0837 236.273 11.6232 236 12.0972C235.727 12.5711 235.354 12.9446 234.88 13.2175C234.406 13.4905 233.864 13.627 233.255 13.627ZM241.285 13.627C240.891 13.627 240.498 13.555 240.104 13.4111C239.71 13.2673 239.352 13.026 239.028 12.6875C238.704 12.349 238.445 11.8898 238.25 11.3101C238.056 10.7303 237.958 10.0046 237.958 9.13281C237.958 8.29915 238.038 7.55965 238.197 6.91431C238.355 6.26896 238.586 5.72306 238.888 5.27661C239.191 4.83016 239.556 4.49162 239.983 4.26099C240.411 4.03035 240.893 3.91504 241.431 3.91504C241.96 3.91504 242.434 4.02083 242.853 4.23242C243.271 4.44401 243.614 4.73812 243.881 5.11475C244.147 5.49137 244.319 5.92725 244.395 6.42236H243.214C243.109 6.01188 242.908 5.66911 242.611 5.39404C242.315 5.11898 241.922 4.98145 241.431 4.98145C240.948 4.98145 240.532 5.12321 240.183 5.40674C239.834 5.69027 239.567 6.09969 239.38 6.63501C239.194 7.17033 239.101 7.81673 239.101 8.57422H239.177C239.347 8.31185 239.55 8.08651 239.787 7.89819C240.024 7.70988 240.288 7.566 240.58 7.46655C240.872 7.36711 241.181 7.31738 241.507 7.31738C242.049 7.31738 242.544 7.45068 242.992 7.71729C243.441 7.98389 243.799 8.35311 244.068 8.82495C244.337 9.29679 244.471 9.8374 244.471 10.4468C244.471 11.035 244.34 11.5693 244.078 12.0496C243.815 12.5299 243.445 12.9128 242.967 13.1985C242.489 13.4841 241.928 13.627 241.285 13.627ZM241.285 12.5669C241.666 12.5669 242.008 12.4717 242.313 12.2812C242.618 12.0908 242.859 11.8359 243.037 11.5164C243.214 11.1969 243.303 10.8403 243.303 10.4468C243.303 10.0617 243.218 9.71151 243.046 9.39624C242.875 9.08097 242.639 8.83024 242.338 8.64404C242.038 8.45785 241.697 8.36475 241.316 8.36475C241.029 8.36475 240.761 8.42082 240.513 8.53296C240.266 8.6451 240.049 8.79956 239.863 8.99634C239.677 9.19312 239.532 9.4174 239.428 9.66919C239.324 9.92098 239.272 10.1844 239.272 10.4595C239.272 10.8319 239.359 11.1778 239.533 11.4973C239.706 11.8168 239.945 12.075 240.25 12.2717C240.555 12.4685 240.9 12.5669 241.285 12.5669ZM245.855 14.6743C246.232 13.8999 246.536 13.19 246.769 12.5447C247.002 11.8993 247.172 11.291 247.28 10.7197C247.388 10.1484 247.442 9.59196 247.442 9.05029C247.442 8.43245 247.378 7.77336 247.251 7.073C247.125 6.37264 246.943 5.66276 246.706 4.94336C246.469 4.22396 246.185 3.53206 245.855 2.86768H246.966C247.283 3.38818 247.566 3.99862 247.813 4.69897C248.061 5.39933 248.254 6.12826 248.394 6.88574C248.534 7.64323 248.604 8.36475 248.604 9.05029C248.604 9.99398 248.463 10.9419 248.181 11.894C247.9 12.8462 247.495 13.7729 246.966 14.6743H245.855Z" fill="#8A9198"/>
</svg>
