<svg width="250" height="17" viewBox="0 0 250 17" fill="none" xmlns="http://www.w3.org/2000/svg">
<path d="M9.82386 8.90909C9.82386 9.98295 9.62997 10.911 9.24219 11.6932C8.8544 12.4754 8.32244 13.0786 7.64631 13.5028C6.97017 13.9271 6.19792 14.1392 5.32955 14.1392C4.46117 14.1392 3.68892 13.9271 3.01278 13.5028C2.33665 13.0786 1.80469 12.4754 1.4169 11.6932C1.02912 10.911 0.835227 9.98295 0.835227 8.90909C0.835227 7.83523 1.02912 6.9072 1.4169 6.125C1.80469 5.3428 2.33665 4.73958 3.01278 4.31534C3.68892 3.8911 4.46117 3.67898 5.32955 3.67898C6.19792 3.67898 6.97017 3.8911 7.64631 4.31534C8.32244 4.73958 8.8544 5.3428 9.24219 6.125C9.62997 6.9072 9.82386 7.83523 9.82386 8.90909ZM8.63068 8.90909C8.63068 8.02746 8.48319 7.28338 8.18821 6.67685C7.89654 6.07031 7.50047 5.61127 7 5.29972C6.50284 4.98816 5.94602 4.83239 5.32955 4.83239C4.71307 4.83239 4.15459 4.98816 3.65412 5.29972C3.15696 5.61127 2.76089 6.07031 2.46591 6.67685C2.17424 7.28338 2.02841 8.02746 2.02841 8.90909C2.02841 9.79072 2.17424 10.5348 2.46591 11.1413C2.76089 11.7479 3.15696 12.2069 3.65412 12.5185C4.15459 12.83 4.71307 12.9858 5.32955 12.9858C5.94602 12.9858 6.50284 12.83 7 12.5185C7.50047 12.2069 7.89654 11.7479 8.18821 11.1413C8.48319 10.5348 8.63068 9.79072 8.63068 8.90909ZM11.897 14V3.81818H13.13V12.9062H17.8629V14H11.897ZM19.772 14V3.81818H21.005V12.9062H25.7379V14H19.772ZM26.2935 3.81818H27.7054L30.5293 8.57102H30.6486L33.4725 3.81818H34.8844L31.2054 9.80398V14H29.9725V9.80398L26.2935 3.81818Z" fill="#0B1A2B"/>
<path d="M228.554 9.05029C228.554 8.36051 228.625 7.63794 228.766 6.88257C228.908 6.1272 229.102 5.39933 229.347 4.69897C229.593 3.99862 229.874 3.38818 230.191 2.86768H231.302C230.976 3.53206 230.694 4.22396 230.455 4.94336C230.216 5.66276 230.033 6.37264 229.906 7.073C229.779 7.77336 229.715 8.43245 229.715 9.05029C229.715 9.61312 229.771 10.1823 229.884 10.7578C229.996 11.3333 230.169 11.9417 230.404 12.5828C230.639 13.2239 230.938 13.9211 231.302 14.6743H230.191C229.654 13.756 229.247 12.8208 228.969 11.8687C228.692 10.9165 228.554 9.97705 228.554 9.05029ZM236.057 4.04199V13.5H234.87V5.15918H234.806L232.521 6.854V5.55908L234.578 4.04199H236.057ZM241.217 13.627C240.578 13.627 240.014 13.5138 239.526 13.2874C239.037 13.061 238.656 12.7489 238.383 12.3511C238.11 11.9533 237.974 11.4984 237.974 10.9863C237.974 10.5885 238.054 10.2193 238.215 9.87866C238.376 9.538 238.596 9.25342 238.875 9.0249C239.154 8.79639 239.47 8.65039 239.821 8.58691V8.53613C239.36 8.41764 238.993 8.16162 238.723 7.76807C238.452 7.37451 238.316 6.92806 238.316 6.42871C238.316 5.94629 238.441 5.51571 238.691 5.13696C238.941 4.75822 239.283 4.45988 239.719 4.24194C240.155 4.02401 240.654 3.91504 241.217 3.91504C241.772 3.91504 242.267 4.02401 242.703 4.24194C243.139 4.45988 243.482 4.75822 243.734 5.13696C243.986 5.51571 244.112 5.94629 244.112 6.42871C244.112 6.92806 243.975 7.37451 243.702 7.76807C243.429 8.16162 243.069 8.41764 242.62 8.53613V8.58691C242.963 8.65039 243.274 8.79639 243.553 9.0249C243.833 9.25342 244.055 9.538 244.22 9.87866C244.385 10.2193 244.467 10.5885 244.467 10.9863C244.467 11.4984 244.329 11.9533 244.052 12.3511C243.774 12.7489 243.391 13.061 242.903 13.2874C242.414 13.5138 241.852 13.627 241.217 13.627ZM241.217 12.5796C241.636 12.5796 241.998 12.5108 242.303 12.3733C242.607 12.2358 242.843 12.0432 243.01 11.7957C243.178 11.5481 243.261 11.2572 243.261 10.9229C243.261 10.5716 243.172 10.2616 242.995 9.99292C242.817 9.7242 242.574 9.51261 242.265 9.35815C241.956 9.20369 241.607 9.12646 241.217 9.12646C240.819 9.12646 240.466 9.20369 240.157 9.35815C239.848 9.51261 239.605 9.7242 239.427 9.99292C239.25 10.2616 239.161 10.5716 239.161 10.9229C239.161 11.2572 239.243 11.5481 239.408 11.7957C239.573 12.0432 239.81 12.2358 240.119 12.3733C240.428 12.5108 240.794 12.5796 241.217 12.5796ZM241.217 8.11719C241.552 8.11719 241.848 8.05054 242.106 7.91724C242.364 7.78394 242.568 7.59668 242.719 7.35547C242.869 7.11426 242.944 6.83496 242.944 6.51758C242.944 6.2002 242.872 5.92513 242.728 5.69238C242.584 5.45964 242.382 5.27873 242.122 5.14966C241.862 5.02059 241.56 4.95605 241.217 4.95605C240.87 4.95605 240.567 5.02059 240.306 5.14966C240.046 5.27873 239.844 5.45964 239.7 5.69238C239.556 5.92513 239.484 6.2002 239.484 6.51758C239.484 6.83496 239.557 7.11426 239.703 7.35547C239.849 7.59668 240.054 7.78394 240.316 7.91724C240.578 8.05054 240.879 8.11719 241.217 8.11719ZM245.851 14.6743C246.228 13.8999 246.532 13.19 246.765 12.5447C246.998 11.8993 247.168 11.291 247.276 10.7197C247.384 10.1484 247.438 9.59196 247.438 9.05029C247.438 8.43245 247.375 7.77336 247.248 7.073C247.121 6.37264 246.939 5.66276 246.702 4.94336C246.465 4.22396 246.181 3.53206 245.851 2.86768H246.962C247.279 3.38818 247.562 3.99862 247.809 4.69897C248.057 5.39933 248.25 6.12826 248.39 6.88574C248.53 7.64323 248.6 8.36475 248.6 9.05029C248.6 9.99398 248.459 10.9419 248.177 11.894C247.896 12.8462 247.491 13.7729 246.962 14.6743H245.851Z" fill="#8A9198"/>
</svg>
