<svg width="250" height="18" viewBox="0 0 250 18" fill="none" xmlns="http://www.w3.org/2000/svg">
<path d="M6.80114 6.36364C6.74148 5.85985 6.49953 5.46875 6.07528 5.19034C5.65104 4.91193 5.13068 4.77273 4.5142 4.77273C4.06345 4.77273 3.66903 4.84564 3.33097 4.99148C2.99621 5.13731 2.73438 5.33783 2.54545 5.59304C2.35985 5.84825 2.26705 6.13826 2.26705 6.46307C2.26705 6.73485 2.33168 6.96851 2.46094 7.16406C2.59351 7.3563 2.76255 7.51705 2.96804 7.64631C3.17353 7.77225 3.38897 7.87666 3.61435 7.95952C3.83973 8.03906 4.04688 8.10369 4.2358 8.15341L5.26989 8.43182C5.53504 8.50142 5.83002 8.59754 6.15483 8.72017C6.48295 8.8428 6.79616 9.01018 7.09446 9.2223C7.39607 9.43111 7.64465 9.69957 7.8402 10.0277C8.03575 10.3558 8.13352 10.7585 8.13352 11.2358C8.13352 11.786 7.98935 12.2831 7.70099 12.7273C7.41596 13.1714 6.99834 13.5244 6.44815 13.7862C5.90128 14.0481 5.23674 14.179 4.45455 14.179C3.72538 14.179 3.09399 14.0613 2.56037 13.826C2.03007 13.5907 1.61245 13.2625 1.30753 12.8416C1.00592 12.4207 0.835227 11.9318 0.795455 11.375H2.06818C2.10133 11.7595 2.23059 12.0777 2.45597 12.3295C2.68466 12.5781 2.97301 12.7637 3.32102 12.8864C3.67235 13.0057 4.05019 13.0653 4.45455 13.0653C4.92519 13.0653 5.34777 12.9891 5.7223 12.8366C6.09683 12.6809 6.39347 12.4654 6.61222 12.1903C6.83097 11.9119 6.94034 11.5871 6.94034 11.2159C6.94034 10.8778 6.84588 10.6027 6.65696 10.3906C6.46804 10.1785 6.21946 10.0062 5.91122 9.87358C5.60298 9.741 5.26989 9.625 4.91193 9.52557L3.65909 9.16761C2.86364 8.93892 2.2339 8.61245 1.76989 8.18821C1.30587 7.76397 1.07386 7.20881 1.07386 6.52273C1.07386 5.95265 1.22798 5.45549 1.53622 5.03125C1.84777 4.60369 2.26539 4.27225 2.78906 4.03693C3.31605 3.7983 3.90436 3.67898 4.55398 3.67898C5.21023 3.67898 5.79356 3.79664 6.30398 4.03196C6.81439 4.26397 7.21875 4.58215 7.51705 4.98651C7.81866 5.39086 7.97775 5.8499 7.99432 6.36364H6.80114ZM13.1039 14.1591C12.4145 14.1591 11.8096 13.995 11.2892 13.6669C10.7722 13.3388 10.3678 12.8797 10.0762 12.2898C9.78782 11.6998 9.64364 11.0104 9.64364 10.2216C9.64364 9.42614 9.78782 8.73177 10.0762 8.13849C10.3678 7.54522 10.7722 7.08452 11.2892 6.75639C11.8096 6.42827 12.4145 6.2642 13.1039 6.2642C13.7933 6.2642 14.3965 6.42827 14.9135 6.75639C15.4339 7.08452 15.8382 7.54522 16.1266 8.13849C16.4183 8.73177 16.5641 9.42614 16.5641 10.2216C16.5641 11.0104 16.4183 11.6998 16.1266 12.2898C15.8382 12.8797 15.4339 13.3388 14.9135 13.6669C14.3965 13.995 13.7933 14.1591 13.1039 14.1591ZM13.1039 13.1051C13.6275 13.1051 14.0584 12.9709 14.3965 12.7024C14.7346 12.4339 14.9848 12.081 15.1472 11.6435C15.3096 11.206 15.3908 10.732 15.3908 10.2216C15.3908 9.71117 15.3096 9.23556 15.1472 8.79474C14.9848 8.35393 14.7346 7.99763 14.3965 7.72585C14.0584 7.45407 13.6275 7.31818 13.1039 7.31818C12.5802 7.31818 12.1493 7.45407 11.8113 7.72585C11.4732 7.99763 11.223 8.35393 11.0605 8.79474C10.8981 9.23556 10.8169 9.71117 10.8169 10.2216C10.8169 10.732 10.8981 11.206 11.0605 11.6435C11.223 12.081 11.4732 12.4339 11.8113 12.7024C12.1493 12.9709 12.5802 13.1051 13.1039 13.1051ZM19.5284 3.81818V14H18.3551V3.81818H19.5284ZM24.7598 17.0227C24.193 17.0227 23.7058 16.9498 23.2981 16.804C22.8904 16.6615 22.5507 16.4725 22.2789 16.2372C22.0105 16.0052 21.7967 15.7566 21.6376 15.4915L22.5723 14.8352C22.6783 14.9744 22.8126 15.1335 22.975 15.3125C23.1374 15.4948 23.3594 15.6522 23.6412 15.7848C23.9262 15.9207 24.2991 15.9886 24.7598 15.9886C25.3762 15.9886 25.885 15.8395 26.286 15.5412C26.6871 15.2429 26.8876 14.7756 26.8876 14.1392V12.5881H26.7882C26.702 12.7273 26.5794 12.8996 26.4203 13.1051C26.2645 13.3073 26.0391 13.4879 25.7441 13.647C25.4525 13.8028 25.0581 13.8807 24.5609 13.8807C23.9444 13.8807 23.3909 13.7348 22.9004 13.4432C22.4132 13.1515 22.027 12.7273 21.742 12.1705C21.4603 11.6136 21.3194 10.9375 21.3194 10.142C21.3194 9.35985 21.457 8.67874 21.7321 8.09872C22.0072 7.51539 22.39 7.06463 22.8805 6.74645C23.371 6.42495 23.9378 6.2642 24.5808 6.2642C25.0779 6.2642 25.4724 6.34706 25.764 6.51278C26.059 6.67519 26.2844 6.8608 26.4402 7.0696C26.5993 7.27509 26.7219 7.44413 26.8081 7.5767H26.9274V6.36364H28.0609V14.2188C28.0609 14.875 27.9118 15.4086 27.6135 15.8196C27.3185 16.2339 26.9208 16.5372 26.4203 16.7294C25.9231 16.925 25.3696 17.0227 24.7598 17.0227ZM24.72 12.8267C25.1906 12.8267 25.5884 12.719 25.9132 12.5036C26.238 12.2881 26.4849 11.9782 26.6539 11.5739C26.823 11.1695 26.9075 10.6856 26.9075 10.1222C26.9075 9.57197 26.8246 9.08641 26.6589 8.66548C26.4932 8.24455 26.2479 7.91477 25.9231 7.67614C25.5983 7.4375 25.1973 7.31818 24.72 7.31818C24.2228 7.31818 23.8085 7.44413 23.4771 7.69602C23.149 7.94792 22.902 8.28598 22.7363 8.71023C22.5739 9.13447 22.4927 9.60511 22.4927 10.1222C22.4927 10.6525 22.5756 11.1214 22.7413 11.5291C22.9103 11.9335 23.1589 12.2517 23.487 12.4837C23.8185 12.7124 24.2295 12.8267 24.72 12.8267ZM32.4558 14.179C31.9719 14.179 31.5327 14.0878 31.1383 13.9055C30.7439 13.7199 30.4307 13.4531 30.1987 13.1051C29.9667 12.7538 29.8507 12.3295 29.8507 11.8324C29.8507 11.3949 29.9368 11.0402 30.1092 10.7685C30.2815 10.4934 30.5119 10.2779 30.8002 10.1222C31.0886 9.96638 31.4068 9.85038 31.7548 9.77415C32.1061 9.6946 32.4591 9.63163 32.8137 9.58523C33.2778 9.52557 33.6539 9.48082 33.9423 9.45099C34.234 9.41785 34.4461 9.36316 34.5787 9.28693C34.7145 9.2107 34.7825 9.07812 34.7825 8.8892V8.84943C34.7825 8.3589 34.6483 7.97775 34.3798 7.70597C34.1146 7.43419 33.7119 7.2983 33.1717 7.2983C32.6116 7.2983 32.1724 7.42093 31.8542 7.66619C31.536 7.91146 31.3123 8.1733 31.1831 8.4517L30.0694 8.05398C30.2683 7.58996 30.5334 7.22869 30.8649 6.97017C31.1996 6.70833 31.5642 6.52604 31.9586 6.4233C32.3564 6.31723 32.7475 6.2642 33.1319 6.2642C33.3772 6.2642 33.6589 6.29403 33.9771 6.35369C34.2986 6.41004 34.6085 6.5277 34.9068 6.70668C35.2084 6.88565 35.4586 7.15578 35.6575 7.51705C35.8564 7.87831 35.9558 8.36222 35.9558 8.96875V14H34.7825V12.9659H34.7228C34.6433 13.1316 34.5107 13.3089 34.3251 13.4979C34.1395 13.6868 33.8926 13.8475 33.5843 13.9801C33.2761 14.1127 32.8999 14.179 32.4558 14.179ZM32.6348 13.125C33.0988 13.125 33.4899 13.0339 33.8081 12.8516C34.1296 12.6693 34.3715 12.4339 34.5339 12.1456C34.6996 11.8572 34.7825 11.554 34.7825 11.2358V10.1619C34.7328 10.2216 34.6234 10.2763 34.4544 10.326C34.2886 10.3724 34.0964 10.4138 33.8777 10.4503C33.6622 10.4834 33.4518 10.5133 33.2463 10.5398C33.0441 10.563 32.88 10.5829 32.7541 10.5994C32.4492 10.6392 32.1641 10.7038 31.899 10.7933C31.6371 10.8795 31.425 11.0104 31.2626 11.1861C31.1035 11.3584 31.024 11.5937 31.024 11.892C31.024 12.2997 31.1748 12.608 31.4764 12.8168C31.7813 13.0223 32.1674 13.125 32.6348 13.125ZM38.0973 14V6.36364H39.2308V7.51705H39.3104C39.4496 7.1392 39.7015 6.83262 40.0661 6.5973C40.4306 6.36198 40.8416 6.24432 41.299 6.24432C41.3852 6.24432 41.4929 6.24597 41.6222 6.24929C41.7514 6.2526 41.8492 6.25758 41.9155 6.2642V7.45739C41.8757 7.44744 41.7846 7.43253 41.642 7.41264C41.5028 7.38944 41.3554 7.37784 41.1996 7.37784C40.8284 7.37784 40.4969 7.45573 40.2053 7.61151C39.9169 7.76397 39.6882 7.97609 39.5192 8.24787C39.3535 8.51634 39.2706 8.82292 39.2706 9.16761V14H38.0973Z" fill="#0B1A2B"/>
<path d="M225.934 9.05029C225.934 8.36051 226.004 7.63794 226.146 6.88257C226.288 6.1272 226.482 5.39933 226.727 4.69897C226.972 3.99862 227.254 3.38818 227.571 2.86768H228.682C228.356 3.53206 228.074 4.22396 227.835 4.94336C227.596 5.66276 227.413 6.37264 227.286 7.073C227.159 7.77336 227.095 8.43245 227.095 9.05029C227.095 9.61312 227.151 10.1823 227.263 10.7578C227.376 11.3333 227.549 11.9417 227.784 12.5828C228.019 13.2239 228.318 13.9211 228.682 14.6743H227.571C227.034 13.756 226.627 12.8208 226.349 11.8687C226.072 10.9165 225.934 9.97705 225.934 9.05029ZM233.322 13.627C232.704 13.627 232.156 13.5212 231.678 13.3096C231.2 13.098 230.82 12.8039 230.539 12.4272C230.257 12.0506 230.106 11.6126 230.085 11.1133H231.304C231.329 11.4137 231.432 11.6729 231.612 11.8909C231.791 12.1088 232.028 12.276 232.323 12.3923C232.617 12.5087 232.944 12.5669 233.303 12.5669C233.701 12.5669 234.053 12.4981 234.36 12.3606C234.667 12.2231 234.909 12.0295 235.087 11.7798C235.265 11.5301 235.354 11.2424 235.354 10.9165C235.354 10.5737 235.268 10.2722 235.096 10.012C234.925 9.75171 234.676 9.54753 234.351 9.39941C234.025 9.2513 233.627 9.17725 233.157 9.17725H232.389V8.12988H233.157C233.525 8.12988 233.85 8.06323 234.132 7.92993C234.413 7.79663 234.632 7.60938 234.789 7.36816C234.945 7.12695 235.023 6.84342 235.023 6.51758C235.023 6.20443 234.955 5.93148 234.817 5.69873C234.68 5.46598 234.484 5.28507 234.23 5.15601C233.976 5.02694 233.678 4.9624 233.335 4.9624C233.013 4.9624 232.712 5.02059 232.43 5.13696C232.149 5.25334 231.918 5.41943 231.739 5.63525C231.559 5.85107 231.462 6.11344 231.45 6.42236H230.288C230.305 5.92725 230.453 5.49137 230.732 5.11475C231.012 4.73812 231.381 4.44401 231.84 4.23242C232.299 4.02083 232.806 3.91504 233.36 3.91504C233.949 3.91504 234.455 4.03353 234.881 4.27051C235.306 4.50749 235.633 4.81852 235.861 5.20361C236.09 5.5887 236.204 6.00553 236.204 6.4541C236.204 6.9873 236.063 7.4401 235.782 7.8125C235.501 8.1849 235.119 8.44303 234.636 8.58691V8.66309C235.038 8.72656 235.382 8.86198 235.668 9.06934C235.953 9.27669 236.171 9.53906 236.322 9.85645C236.472 10.1738 236.547 10.5314 236.547 10.9292C236.547 11.4455 236.407 11.9067 236.128 12.313C235.849 12.7192 235.466 13.0398 234.979 13.2747C234.492 13.5095 233.94 13.627 233.322 13.627ZM238.299 13.5V12.6304L241.441 9.22168C241.792 8.84082 242.084 8.50651 242.317 8.21875C242.55 7.93099 242.725 7.65698 242.844 7.39673C242.962 7.13647 243.021 6.86035 243.021 6.56836C243.021 6.23828 242.943 5.95264 242.787 5.71143C242.63 5.47021 242.418 5.28507 242.152 5.15601C241.885 5.02694 241.583 4.9624 241.244 4.9624C240.884 4.9624 240.572 5.0354 240.308 5.1814C240.043 5.32739 239.839 5.53263 239.695 5.79712C239.551 6.0616 239.479 6.37158 239.479 6.72705H238.324C238.324 6.16846 238.453 5.67757 238.711 5.25439C238.97 4.83122 239.321 4.5022 239.765 4.26733C240.209 4.03247 240.713 3.91504 241.276 3.91504C241.839 3.91504 242.337 4.03247 242.771 4.26733C243.205 4.5022 243.545 4.81852 243.793 5.21631C244.04 5.6141 244.164 6.06055 244.164 6.55566C244.164 6.89844 244.103 7.23169 243.98 7.55542C243.857 7.87915 243.641 8.24626 243.333 8.65674C243.024 9.06722 242.59 9.56868 242.031 10.1611L239.962 12.3638V12.4399H244.323V13.5H238.299ZM245.859 14.6743C246.236 13.8999 246.54 13.19 246.773 12.5447C247.006 11.8993 247.176 11.291 247.284 10.7197C247.392 10.1484 247.446 9.59196 247.446 9.05029C247.446 8.43245 247.382 7.77336 247.255 7.073C247.128 6.37264 246.946 5.66276 246.709 4.94336C246.472 4.22396 246.189 3.53206 245.859 2.86768H246.97C247.287 3.38818 247.57 3.99862 247.817 4.69897C248.065 5.39933 248.258 6.12826 248.398 6.88574C248.538 7.64323 248.607 8.36475 248.607 9.05029C248.607 9.99398 248.467 10.9419 248.185 11.894C247.904 12.8462 247.499 13.7729 246.97 14.6743H245.859Z" fill="#8A9198"/>
</svg>
