<svg width="478" height="73" viewBox="0 0 478 73" fill="none" xmlns="http://www.w3.org/2000/svg">
<mask id="path-1-inside-1_205_1203" fill="white">
<path d="M0 0H478V73H0V0Z"/>
</mask>
<path d="M0 0H478V73H0V0Z" fill="#F8FAFC"/>
<path d="M0 0V1H478V0V-1H0V0Z" fill="#E2E8F0" mask="url(#path-1-inside-1_205_1203)"/>
<path d="M179.406 37.8334L184.073 42.5L182.885 43.6667L176.219 37L182.885 30.3334L184.073 31.5L179.406 36.1667H189.552V37.8334H179.406Z" fill="#524E8D"/>
<path d="M198.72 43V31.3594H203.176C204.015 31.3594 204.712 31.4917 205.268 31.7563C205.824 32.0208 206.24 32.3806 206.515 32.8355C206.791 33.2904 206.929 33.8054 206.929 34.3806C206.929 34.8544 206.839 35.2592 206.658 35.595C206.477 35.9308 206.233 36.2031 205.928 36.4117C205.622 36.6204 205.279 36.7706 204.899 36.8625V36.9775C205.312 36.9965 205.708 37.121 206.087 37.3511C206.466 37.5812 206.777 37.9048 207.019 38.322C207.261 38.7392 207.382 39.2413 207.382 39.8281C207.382 40.4302 207.237 40.9708 206.947 41.4498C206.658 41.9289 206.22 42.307 205.634 42.5842C205.048 42.8614 204.309 43 203.419 43H198.72ZM200.806 41.2544H203.09C203.86 41.2544 204.415 41.1062 204.757 40.8097C205.098 40.5132 205.269 40.134 205.269 39.6719C205.269 39.3225 205.183 39.0086 205.011 38.7302C204.84 38.4517 204.596 38.2314 204.281 38.0691C203.966 37.9068 203.591 37.8256 203.157 37.8256H200.806V41.2544ZM200.806 36.3225H202.913C203.279 36.3225 203.608 36.2545 203.901 36.1186C204.193 35.9827 204.424 35.7893 204.594 35.5386C204.764 35.2879 204.849 34.991 204.849 34.6481C204.849 34.1973 204.69 33.8255 204.372 33.5328C204.054 33.2401 203.584 33.0937 202.96 33.0937H200.806V36.3225ZM211.616 43.1806C211.062 43.1806 210.563 43.0807 210.12 42.8808C209.677 42.6809 209.328 42.3851 209.071 41.9934C208.815 41.6018 208.687 41.1185 208.687 40.5437C208.687 40.0512 208.779 39.6441 208.964 39.3222C209.149 39.0003 209.4 38.743 209.716 38.5502C210.033 38.3573 210.39 38.2115 210.786 38.1127C211.182 38.0138 211.592 37.9421 212.015 37.8975C212.525 37.841 212.938 37.7918 213.253 37.7497C213.569 37.7076 213.802 37.6399 213.952 37.5467C214.101 37.4535 214.176 37.3085 214.176 37.1119V37.0706C214.176 36.7829 214.118 36.5395 214.002 36.3403C213.887 36.1411 213.716 35.9884 213.49 35.882C213.264 35.7757 212.985 35.7225 212.651 35.7225C212.314 35.7225 212.021 35.7745 211.772 35.8784C211.524 35.9824 211.322 36.1175 211.165 36.2837C211.008 36.45 210.893 36.63 210.82 36.8237L208.937 36.4375C209.11 35.9212 209.377 35.4951 209.736 35.1591C210.096 34.823 210.525 34.5719 211.024 34.4056C211.522 34.2394 212.062 34.1562 212.643 34.1562C213.053 34.1562 213.468 34.205 213.887 34.3025C214.306 34.4 214.691 34.5623 215.041 34.7894C215.391 35.0165 215.673 35.3232 215.886 35.7095C216.1 36.0959 216.206 36.5796 216.206 37.1606V43H214.264V41.7956H214.181C214.054 42.0437 213.876 42.2731 213.647 42.4836C213.418 42.6941 213.136 42.8629 212.8 42.99C212.464 43.1171 212.069 43.1806 211.616 43.1806ZM212.136 41.6713C212.556 41.6713 212.919 41.5884 213.225 41.4228C213.531 41.2572 213.768 41.0369 213.935 40.762C214.103 40.4871 214.187 40.1885 214.187 39.8662V38.8325C214.12 38.8871 214.009 38.9375 213.851 38.9837C213.694 39.03 213.517 39.0711 213.321 39.1072C213.124 39.1432 212.931 39.1742 212.743 39.2C212.554 39.2258 212.394 39.2475 212.262 39.265C211.957 39.3048 211.683 39.3727 211.439 39.4686C211.196 39.5645 211.004 39.697 210.865 39.8661C210.725 40.0352 210.655 40.2535 210.655 40.5213C210.655 40.7727 210.719 40.9836 210.847 41.1539C210.975 41.3242 211.151 41.453 211.373 41.5403C211.595 41.6276 211.849 41.6713 212.136 41.6713ZM222.149 43.1763C221.301 43.1763 220.565 42.9883 219.94 42.6123C219.316 42.2364 218.833 41.7104 218.491 41.0342C218.149 40.3581 217.978 39.5721 217.978 38.6763C217.978 37.7704 218.149 36.9786 218.491 36.3008C218.833 35.623 219.316 35.0961 219.94 34.7202C220.565 34.3442 221.301 34.1562 222.149 34.1562C222.636 34.1562 223.088 34.2194 223.505 34.3456C223.921 34.4719 224.293 34.6529 224.622 34.8886C224.951 35.1243 225.225 35.4116 225.445 35.7505C225.665 36.0893 225.823 36.4713 225.919 36.8965L224.016 37.2962C223.963 37.0704 223.882 36.8661 223.773 36.6833C223.665 36.5005 223.532 36.3433 223.376 36.2119C223.221 36.0804 223.041 35.9797 222.838 35.9098C222.635 35.8399 222.411 35.805 222.166 35.805C221.693 35.805 221.3 35.9306 220.987 36.1819C220.674 36.4331 220.439 36.7743 220.282 37.2053C220.125 37.6364 220.046 38.1248 220.046 38.6706C220.046 39.2079 220.125 39.6922 220.282 40.1234C220.439 40.5547 220.674 40.8965 220.987 41.1489C221.3 41.4013 221.693 41.5275 222.166 41.5275C222.414 41.5275 222.642 41.4913 222.848 41.4188C223.055 41.3463 223.238 41.2422 223.398 41.1064C223.558 40.9707 223.692 40.8067 223.801 40.6144C223.91 40.4221 223.99 40.2088 224.041 39.9744L225.939 40.3713C225.847 40.8088 225.69 41.1995 225.468 41.5436C225.246 41.8877 224.97 42.1818 224.641 42.4261C224.311 42.6704 223.936 42.8565 223.516 42.9844C223.095 43.1123 222.64 43.1763 222.149 43.1763ZM229.539 40.2475V37.7881H229.861L233.011 34.2656H235.397L231.535 38.5687H231.114L229.539 40.2475ZM227.681 43V31.3594H229.712V43H227.681ZM233.157 43L230.297 39.0219L231.674 37.5825L235.6 43H233.157ZM244.861 34.2656V35.8569H239.901V34.2656H244.861ZM241.141 32.1875H243.171V40.5403C243.171 40.8559 243.239 41.0877 243.374 41.2355C243.51 41.3833 243.733 41.4572 244.045 41.4572C244.135 41.4572 244.257 41.4463 244.41 41.4245C244.563 41.4028 244.687 41.3815 244.78 41.3606L245.1 42.9278C244.878 42.9968 244.65 43.0457 244.417 43.0745C244.185 43.1034 243.959 43.1178 243.741 43.1178C242.906 43.1178 242.263 42.9097 241.814 42.4934C241.365 42.0772 241.141 41.4842 241.141 40.7144V32.1875ZM250.105 43.1763C249.257 43.1763 248.52 42.9883 247.895 42.6123C247.269 42.2364 246.786 41.7104 246.444 41.0342C246.102 40.3581 245.931 39.5721 245.931 38.6763C245.931 37.7704 246.102 36.9786 246.444 36.3008C246.786 35.623 247.269 35.0961 247.895 34.7202C248.52 34.3442 249.257 34.1562 250.105 34.1562C250.956 34.1562 251.694 34.3442 252.32 34.7202C252.945 35.0961 253.428 35.623 253.77 36.3008C254.112 36.9786 254.283 37.7704 254.283 38.6763C254.283 39.5721 254.112 40.3581 253.77 41.0342C253.428 41.7104 252.945 42.2364 252.32 42.6123C251.694 42.9883 250.956 43.1763 250.105 43.1763ZM250.105 41.5275C250.579 41.5275 250.973 41.3999 251.287 41.1447C251.6 40.8895 251.834 40.5458 251.988 40.1136C252.143 39.6814 252.22 39.2004 252.22 38.6706C252.22 38.1356 252.143 37.6518 251.988 37.2191C251.834 36.7863 251.6 36.4425 251.287 36.1875C250.973 35.9325 250.579 35.805 250.105 35.805C249.632 35.805 249.24 35.9325 248.929 36.1875C248.618 36.4425 248.385 36.7855 248.231 37.2166C248.077 37.6476 248 38.1323 248 38.6706C248 39.2004 248.077 39.6814 248.231 40.1136C248.385 40.5458 248.618 40.8895 248.929 41.1447C249.24 41.3999 249.632 41.5275 250.105 41.5275ZM260.181 43V31.3594H262.267V41.2431H267.41V43H260.181ZM272.925 43.1763C272.077 43.1763 271.341 42.9883 270.715 42.6123C270.09 42.2364 269.606 41.7104 269.264 41.0342C268.923 40.3581 268.752 39.5721 268.752 38.6763C268.752 37.7704 268.923 36.9786 269.264 36.3008C269.606 35.623 270.09 35.0961 270.715 34.7202C271.341 34.3442 272.077 34.1562 272.925 34.1562C273.776 34.1562 274.515 34.3442 275.14 34.7202C275.765 35.0961 276.249 35.623 276.59 36.3008C276.932 36.9786 277.103 37.7704 277.103 38.6763C277.103 39.5721 276.932 40.3581 276.59 41.0342C276.249 41.7104 275.765 42.2364 275.14 42.6123C274.515 42.9883 273.776 43.1763 272.925 43.1763ZM272.925 41.5275C273.399 41.5275 273.793 41.3999 274.107 41.1447C274.421 40.8895 274.654 40.5458 274.809 40.1136C274.963 39.6814 275.04 39.2004 275.04 38.6706C275.04 38.1356 274.963 37.6518 274.809 37.2191C274.654 36.7863 274.421 36.4425 274.107 36.1875C273.793 35.9325 273.399 35.805 272.925 35.805C272.452 35.805 272.06 35.9325 271.749 36.1875C271.438 36.4425 271.205 36.7855 271.051 37.2166C270.897 37.6476 270.82 38.1323 270.82 38.6706C270.82 39.2004 270.897 39.6814 271.051 40.1136C271.205 40.5458 271.438 40.8895 271.749 41.1447C272.06 41.3999 272.452 41.5275 272.925 41.5275ZM282.643 46.4531C281.943 46.4531 281.334 46.3645 280.817 46.1873C280.3 46.0102 279.876 45.7688 279.546 45.4633C279.215 45.1578 278.977 44.8133 278.83 44.43L280.553 43.8138C280.644 43.9767 280.772 44.1433 280.935 44.3136C281.098 44.4839 281.317 44.6257 281.592 44.7389C281.867 44.8521 282.215 44.9088 282.638 44.9088C283.268 44.9088 283.772 44.7618 284.151 44.4678C284.529 44.1739 284.718 43.7144 284.718 43.0894V41.435H284.552C284.449 41.6467 284.302 41.8633 284.11 42.085C283.918 42.3067 283.659 42.493 283.334 42.6441C283.008 42.7951 282.594 42.8706 282.091 42.8706C281.422 42.8706 280.815 42.7128 280.271 42.397C279.726 42.0813 279.294 41.6076 278.974 40.9759C278.654 40.3443 278.494 39.5558 278.494 38.6106C278.494 37.6533 278.655 36.8436 278.978 36.1814C279.3 35.5192 279.734 35.0161 280.28 34.6722C280.826 34.3282 281.434 34.1562 282.106 34.1562C282.621 34.1562 283.046 34.2421 283.379 34.4139C283.712 34.5857 283.978 34.7932 284.176 35.0366C284.374 35.2799 284.526 35.505 284.63 35.7119H284.738V34.2656H286.732V43.0269C286.732 43.8013 286.555 44.4422 286.2 44.9497C285.846 45.4572 285.361 45.8346 284.745 46.082C284.129 46.3294 283.429 46.4531 282.643 46.4531ZM282.658 41.2663C283.103 41.2663 283.479 41.1602 283.786 40.948C284.094 40.7358 284.328 40.4295 284.488 40.0291C284.648 39.6287 284.728 39.1492 284.728 38.5906C284.728 38.0383 284.649 37.5556 284.49 37.1423C284.332 36.7291 284.099 36.4067 283.791 36.175C283.484 35.9433 283.106 35.8275 282.658 35.8275C282.201 35.8275 281.818 35.9483 281.508 36.19C281.199 36.4317 280.965 36.7599 280.808 37.1748C280.652 37.5897 280.573 38.0617 280.573 38.5906C280.573 39.1277 280.653 39.5973 280.811 39.9994C280.969 40.4015 281.204 40.7131 281.513 40.9344C281.823 41.1556 282.205 41.2663 282.658 41.2663ZM288.884 43V34.2656H290.915V43H288.884ZM289.902 33.03C289.578 33.03 289.3 32.921 289.068 32.703C288.836 32.485 288.72 32.2233 288.72 31.9181C288.72 31.6067 288.836 31.3433 289.068 31.128C289.3 30.9127 289.578 30.805 289.902 30.805C290.228 30.805 290.508 30.9126 290.74 31.1277C290.972 31.3428 291.089 31.6062 291.089 31.918C291.089 32.2235 290.972 32.4852 290.74 32.7031C290.508 32.921 290.228 33.03 289.902 33.03ZM295.102 37.8837V43H293.072V34.2656H294.997L295.025 36.425H294.866C295.107 35.6702 295.465 35.1034 295.941 34.7245C296.416 34.3457 297.01 34.1562 297.722 34.1562C298.322 34.1562 298.845 34.2844 299.293 34.5406C299.74 34.7969 300.088 35.1699 300.336 35.6597C300.584 36.1495 300.709 36.7454 300.709 37.4475V43H298.678V37.7587C298.678 37.1731 298.526 36.7141 298.222 36.3817C297.919 36.0493 297.501 35.8831 296.968 35.8831C296.609 35.8831 296.289 35.9616 296.008 36.1186C295.726 36.2756 295.504 36.5027 295.344 36.8001C295.183 37.0975 295.102 37.4587 295.102 37.8837Z" fill="#524E8D"/>
</svg>
