<svg width="414" height="21" viewBox="0 0 414 21" fill="none" xmlns="http://www.w3.org/2000/svg">
<path d="M1.00426 16V5.81818H7.62642V7.36435H2.84872V10.1286H7.28338V11.6747H2.84872V14.4538H7.66619V16H1.00426ZM9.42862 16V8.36364H11.1488V9.66122H11.2383C11.3974 9.22372 11.6609 8.88234 12.0288 8.63707C12.3967 8.38849 12.8358 8.2642 13.3462 8.2642C13.8633 8.2642 14.2991 8.39015 14.6538 8.64205C15.0117 8.89062 15.2636 9.23035 15.4094 9.66122H15.489C15.658 9.23698 15.9431 8.89891 16.3441 8.64702C16.7485 8.39181 17.2274 8.2642 17.7809 8.2642C18.4835 8.2642 19.0569 8.48627 19.5011 8.9304C19.9452 9.37453 20.1673 10.0225 20.1673 10.8743V16H18.3626V11.1527C18.3626 10.6787 18.2366 10.3324 17.9847 10.1136C17.7328 9.89157 17.4246 9.78054 17.06 9.78054C16.6258 9.78054 16.2861 9.91643 16.0408 10.1882C15.7989 10.4567 15.6779 10.8063 15.6779 11.2372V16H13.913V11.0781C13.913 10.6837 13.7937 10.3688 13.555 10.1335C13.3197 9.8982 13.0115 9.78054 12.6303 9.78054C12.3718 9.78054 12.1365 9.84683 11.9244 9.9794C11.7122 10.1087 11.5432 10.2926 11.4173 10.5312C11.2913 10.7666 11.2283 11.0417 11.2283 11.3565V16H9.42862ZM24.1905 16.1541C23.7066 16.1541 23.2708 16.0679 22.883 15.8956C22.4985 15.7199 22.1936 15.4614 21.9682 15.12C21.7462 14.7786 21.6351 14.3577 21.6351 13.8572C21.6351 13.4264 21.7147 13.0701 21.8738 12.7884C22.0328 12.5066 22.2499 12.2812 22.525 12.1122C22.8001 11.9432 23.11 11.8156 23.4547 11.7294C23.8027 11.6399 24.1623 11.5753 24.5336 11.5355C24.981 11.4891 25.3439 11.4477 25.6223 11.4112C25.9007 11.3714 26.1029 11.3118 26.2289 11.2322C26.3581 11.1494 26.4228 11.0218 26.4228 10.8494V10.8196C26.4228 10.4451 26.3117 10.1551 26.0897 9.94957C25.8676 9.74408 25.5478 9.64134 25.1301 9.64134C24.6893 9.64134 24.3397 9.73745 24.0811 9.92969C23.8259 10.1219 23.6536 10.349 23.5641 10.6108L21.8837 10.3722C22.0163 9.90814 22.235 9.52036 22.54 9.20881C22.8449 8.89394 23.2177 8.65862 23.6586 8.50284C24.0994 8.34375 24.5866 8.2642 25.1202 8.2642C25.4881 8.2642 25.8543 8.30729 26.2189 8.39347C26.5835 8.47964 26.9166 8.62216 27.2182 8.82102C27.5198 9.01657 27.7618 9.28338 27.9441 9.62145C28.1297 9.95952 28.2225 10.3821 28.2225 10.8892V16H26.4924V14.951H26.4327C26.3233 15.1631 26.1692 15.362 25.9703 15.5476C25.7748 15.7299 25.5279 15.8774 25.2296 15.9901C24.9346 16.0994 24.5882 16.1541 24.1905 16.1541ZM24.6578 14.8317C25.0191 14.8317 25.3323 14.7604 25.5975 14.6179C25.8626 14.4721 26.0665 14.2798 26.209 14.0412C26.3548 13.8026 26.4277 13.5424 26.4277 13.2607V12.3608C26.3714 12.4072 26.2753 12.4503 26.1394 12.4901C26.0068 12.5298 25.8577 12.5646 25.6919 12.5945C25.5262 12.6243 25.3622 12.6508 25.1998 12.674C25.0373 12.6972 24.8965 12.7171 24.7772 12.7337C24.5087 12.7701 24.2684 12.8298 24.0563 12.9126C23.8442 12.9955 23.6768 13.1115 23.5542 13.2607C23.4315 13.4065 23.3702 13.5954 23.3702 13.8274C23.3702 14.1589 23.4912 14.4091 23.7331 14.5781C23.9751 14.7472 24.2833 14.8317 24.6578 14.8317ZM30.0321 16V8.36364H31.8319V16H30.0321ZM30.937 7.27983C30.6519 7.27983 30.4067 7.18537 30.2012 6.99645C29.9957 6.80421 29.8929 6.57386 29.8929 6.3054C29.8929 6.03362 29.9957 5.80327 30.2012 5.61435C30.4067 5.42211 30.6519 5.32599 30.937 5.32599C31.2253 5.32599 31.4706 5.42211 31.6728 5.61435C31.8783 5.80327 31.981 6.03362 31.981 6.3054C31.981 6.57386 31.8783 6.80421 31.6728 6.99645C31.4706 7.18537 31.2253 7.27983 30.937 7.27983ZM35.4822 5.81818V16H33.6825V5.81818H35.4822ZM42.1926 16H40.2239L43.8084 5.81818H46.0854L49.6749 16H47.7061L44.9867 7.90625H44.9071L42.1926 16ZM42.2573 12.0078H47.6266V13.4893H42.2573V12.0078ZM53.5378 16.1342C52.9379 16.1342 52.401 15.9801 51.927 15.6719C51.4531 15.3636 51.0785 14.9162 50.8034 14.3295C50.5283 13.7429 50.3908 13.0303 50.3908 12.1918C50.3908 11.3433 50.53 10.6274 50.8084 10.044C51.0901 9.45739 51.4696 9.01491 51.9469 8.71662C52.4242 8.41501 52.9561 8.2642 53.5428 8.2642C53.9902 8.2642 54.3581 8.34044 54.6465 8.4929C54.9348 8.64205 55.1635 8.82268 55.3326 9.0348C55.5016 9.24361 55.6325 9.44081 55.7253 9.62642H55.7999V5.81818H57.6046V16H55.8347V14.7969H55.7253C55.6325 14.9825 55.4983 15.1797 55.3226 15.3885C55.147 15.594 54.915 15.7696 54.6266 15.9155C54.3382 16.0613 53.9753 16.1342 53.5378 16.1342ZM54.04 14.6577C54.4211 14.6577 54.7459 14.5549 55.0144 14.3494C55.2828 14.1406 55.4867 13.8506 55.6259 13.4794C55.7651 13.1082 55.8347 12.6757 55.8347 12.1818C55.8347 11.688 55.7651 11.2588 55.6259 10.8942C55.49 10.5296 55.2878 10.2462 55.0194 10.044C54.7542 9.84186 54.4277 9.74077 54.04 9.74077C53.6389 9.74077 53.3042 9.84517 53.0357 10.054C52.7672 10.2628 52.565 10.5511 52.4292 10.919C52.2933 11.2869 52.2253 11.7079 52.2253 12.1818C52.2253 12.6591 52.2933 13.085 52.4292 13.4595C52.5684 13.8307 52.7722 14.1241 53.0407 14.3395C53.3124 14.5516 53.6455 14.6577 54.04 14.6577ZM62.3562 16.1342C61.7563 16.1342 61.2193 15.9801 60.7454 15.6719C60.2714 15.3636 59.8969 14.9162 59.6218 14.3295C59.3467 13.7429 59.2092 13.0303 59.2092 12.1918C59.2092 11.3433 59.3484 10.6274 59.6268 10.044C59.9085 9.45739 60.288 9.01491 60.7653 8.71662C61.2425 8.41501 61.7745 8.2642 62.3612 8.2642C62.8086 8.2642 63.1765 8.34044 63.4648 8.4929C63.7532 8.64205 63.9819 8.82268 64.1509 9.0348C64.32 9.24361 64.4509 9.44081 64.5437 9.62642H64.6183V5.81818H66.4229V16H64.6531V14.7969H64.5437C64.4509 14.9825 64.3166 15.1797 64.141 15.3885C63.9653 15.594 63.7333 15.7696 63.445 15.9155C63.1566 16.0613 62.7937 16.1342 62.3562 16.1342ZM62.8583 14.6577C63.2395 14.6577 63.5643 14.5549 63.8327 14.3494C64.1012 14.1406 64.305 13.8506 64.4442 13.4794C64.5835 13.1082 64.6531 12.6757 64.6531 12.1818C64.6531 11.688 64.5835 11.2588 64.4442 10.8942C64.3084 10.5296 64.1062 10.2462 63.8377 10.044C63.5726 9.84186 63.2461 9.74077 62.8583 9.74077C62.4573 9.74077 62.1225 9.84517 61.854 10.054C61.5856 10.2628 61.3834 10.5511 61.2475 10.919C61.1116 11.2869 61.0437 11.7079 61.0437 12.1818C61.0437 12.6591 61.1116 13.085 61.2475 13.4595C61.3867 13.8307 61.5906 14.1241 61.859 14.3395C62.1308 14.5516 62.4639 14.6577 62.8583 14.6577ZM68.3407 16V8.36364H70.0858V9.63636H70.1653C70.3045 9.19555 70.5431 8.85582 70.8812 8.61719C71.2226 8.37524 71.612 8.25426 72.0495 8.25426C72.149 8.25426 72.26 8.25923 72.3826 8.26918C72.5086 8.2758 72.613 8.2874 72.6958 8.30398V9.95952C72.6196 9.933 72.4986 9.9098 72.3329 9.88991C72.1705 9.86671 72.0131 9.85511 71.8606 9.85511C71.5325 9.85511 71.2375 9.92637 70.9757 10.0689C70.7172 10.2081 70.5133 10.402 70.3642 10.6506C70.215 10.8991 70.1404 11.1858 70.1404 11.5107V16H68.3407ZM76.9577 16.1491C76.1921 16.1491 75.5309 15.9901 74.9741 15.6719C74.4206 15.3504 73.9947 14.8963 73.6964 14.3097C73.3981 13.7197 73.2489 13.0253 73.2489 12.2266C73.2489 11.4411 73.3981 10.7517 73.6964 10.1584C73.998 9.56179 74.4189 9.09777 74.9592 8.76633C75.4994 8.43158 76.1341 8.2642 76.8633 8.2642C77.3339 8.2642 77.7781 8.34044 78.1957 8.4929C78.6166 8.64205 78.9878 8.87405 79.3093 9.18892C79.6341 9.50379 79.8893 9.90483 80.0749 10.392C80.2605 10.8759 80.3533 11.4527 80.3533 12.1222V12.674H74.0941V11.4609H78.6282C78.6249 11.1162 78.5503 10.8097 78.4045 10.5412C78.2586 10.2694 78.0548 10.0556 77.793 9.89986C77.5344 9.74408 77.2328 9.66619 76.8881 9.66619C76.5202 9.66619 76.1971 9.75568 75.9187 9.93466C75.6403 10.1103 75.4232 10.3423 75.2674 10.6307C75.1149 10.9157 75.0371 11.2289 75.0337 11.5703V12.6293C75.0337 13.0734 75.1149 13.4545 75.2773 13.7727C75.4397 14.0876 75.6668 14.3295 75.9585 14.4986C76.2501 14.6643 76.5915 14.7472 76.9826 14.7472C77.2444 14.7472 77.4814 14.7107 77.6935 14.6378C77.9057 14.5616 78.0896 14.4505 78.2454 14.3047C78.4012 14.1589 78.5188 13.9782 78.5984 13.7628L80.2788 13.9517C80.1727 14.3958 79.9705 14.7836 79.6722 15.1151C79.3772 15.4432 78.9994 15.6984 78.5387 15.8807C78.078 16.0597 77.551 16.1491 76.9577 16.1491ZM87.9114 10.3821L86.2708 10.5611C86.2244 10.3954 86.1432 10.2396 86.0272 10.0938C85.9145 9.94792 85.762 9.83026 85.5698 9.74077C85.3775 9.65128 85.1422 9.60653 84.8638 9.60653C84.4893 9.60653 84.1744 9.68774 83.9192 9.85014C83.6673 10.0125 83.543 10.223 83.5463 10.4815C83.543 10.7036 83.6242 10.8842 83.79 11.0234C83.959 11.1626 84.2374 11.277 84.6252 11.3665L85.9277 11.6449C86.6503 11.8007 87.1872 12.0476 87.5385 12.3857C87.8932 12.7237 88.0721 13.1662 88.0755 13.7131C88.0721 14.1937 87.9313 14.6179 87.6529 14.9858C87.3778 15.3504 86.995 15.6354 86.5044 15.8409C86.0139 16.0464 85.4505 16.1491 84.8141 16.1491C83.8794 16.1491 83.1271 15.9536 82.557 15.5625C81.9869 15.1681 81.6472 14.6196 81.5378 13.9169L83.2928 13.7479C83.3723 14.0926 83.5414 14.3527 83.7999 14.5284C84.0584 14.7041 84.3948 14.7919 84.8091 14.7919C85.2367 14.7919 85.5797 14.7041 85.8382 14.5284C86.1001 14.3527 86.231 14.1357 86.231 13.8771C86.231 13.6584 86.1465 13.4777 85.9775 13.3352C85.8117 13.1927 85.5532 13.0833 85.2019 13.0071L83.8993 12.7337C83.1668 12.5812 82.6249 12.3243 82.2736 11.9631C81.9223 11.5985 81.7483 11.1378 81.7516 10.581C81.7483 10.1103 81.8759 9.70265 82.1344 9.35795C82.3962 9.00994 82.7592 8.74148 83.2232 8.55256C83.6905 8.36032 84.2291 8.2642 84.839 8.2642C85.7338 8.2642 86.4382 8.45478 86.9519 8.83594C87.4689 9.21709 87.7888 9.73248 87.9114 10.3821ZM95.595 10.3821L93.9544 10.5611C93.908 10.3954 93.8268 10.2396 93.7108 10.0938C93.5981 9.94792 93.4456 9.83026 93.2534 9.74077C93.0611 9.65128 92.8258 9.60653 92.5474 9.60653C92.1729 9.60653 91.858 9.68774 91.6028 9.85014C91.3509 10.0125 91.2266 10.223 91.2299 10.4815C91.2266 10.7036 91.3078 10.8842 91.4735 11.0234C91.6426 11.1626 91.921 11.277 92.3088 11.3665L93.6113 11.6449C94.3339 11.8007 94.8708 12.0476 95.2221 12.3857C95.5768 12.7237 95.7557 13.1662 95.7591 13.7131C95.7557 14.1937 95.6149 14.6179 95.3365 14.9858C95.0614 15.3504 94.6786 15.6354 94.188 15.8409C93.6975 16.0464 93.1341 16.1491 92.4977 16.1491C91.563 16.1491 90.8107 15.9536 90.2406 15.5625C89.6705 15.1681 89.3308 14.6196 89.2214 13.9169L90.9764 13.7479C91.0559 14.0926 91.225 14.3527 91.4835 14.5284C91.742 14.7041 92.0784 14.7919 92.4927 14.7919C92.9203 14.7919 93.2633 14.7041 93.5218 14.5284C93.7837 14.3527 93.9146 14.1357 93.9146 13.8771C93.9146 13.6584 93.8301 13.4777 93.661 13.3352C93.4953 13.1927 93.2368 13.0833 92.8855 13.0071L91.5829 12.7337C90.8504 12.5812 90.3085 12.3243 89.9572 11.9631C89.6059 11.5985 89.4319 11.1378 89.4352 10.581C89.4319 10.1103 89.5595 9.70265 89.818 9.35795C90.0798 9.00994 90.4428 8.74148 90.9068 8.55256C91.3741 8.36032 91.9127 8.2642 92.5225 8.2642C93.4174 8.2642 94.1217 8.45478 94.6355 8.83594C95.1525 9.21709 95.4724 9.73248 95.595 10.3821Z" fill="#334155"/>
</svg>
