<svg width="414" height="56" viewBox="0 0 414 56" fill="none" xmlns="http://www.w3.org/2000/svg">
<rect x="0.5" y="0.5" width="413" height="55" rx="7.5" fill="white"/>
<rect x="0.5" y="0.5" width="413" height="55" rx="7.5" stroke="#CBD5E1"/>
<path d="M50.4062 34V22.3594H57.5V23.6719H51.8906V27.4688H57.1172V28.7812H51.8906V32.6875H57.5703V34H50.4062ZM61.2578 28.7656V34H59.8516V25.2656H61.2031L61.2109 27.3828H61.0156C61.2812 26.5755 61.6602 26.0026 62.1523 25.6641C62.6445 25.3255 63.2214 25.1562 63.8828 25.1562C64.4714 25.1562 64.987 25.2773 65.4297 25.5195C65.8724 25.7617 66.2174 26.1263 66.4648 26.6133C66.7122 27.1003 66.8359 27.7135 66.8359 28.4531V34H65.4297V28.5703C65.4297 27.8984 65.2539 27.3724 64.9023 26.9922C64.5508 26.612 64.0703 26.4219 63.4609 26.4219C63.0443 26.4219 62.6693 26.513 62.3359 26.6953C62.0026 26.8776 61.7396 27.1432 61.5469 27.4922C61.3542 27.8411 61.2578 28.2656 61.2578 28.7656ZM72.7422 25.2656V26.4688H68.2266V25.2656H72.7422ZM69.5391 23.1875H70.9453V31.7344C70.9453 32.125 71.0247 32.4102 71.1836 32.5898C71.3424 32.7695 71.6068 32.8594 71.9766 32.8594C72.0651 32.8594 72.1784 32.849 72.3164 32.8281C72.4544 32.8073 72.5807 32.7865 72.6953 32.7656L72.9844 33.9531C72.8385 34.0052 72.6732 34.0443 72.4883 34.0703C72.3034 34.0964 72.1198 34.1094 71.9375 34.1094C71.1823 34.1094 70.5938 33.9102 70.1719 33.5117C69.75 33.1133 69.5391 32.5573 69.5391 31.8438V23.1875ZM78.0547 34.1875C77.2109 34.1875 76.4831 34 75.8711 33.625C75.2591 33.25 74.7878 32.7266 74.457 32.0547C74.1263 31.3828 73.9609 30.599 73.9609 29.7031C73.9609 28.8073 74.1224 28.0182 74.4453 27.3359C74.7682 26.6536 75.2253 26.1198 75.8164 25.7344C76.4076 25.349 77.099 25.1562 77.8906 25.1562C78.3542 25.1562 78.8112 25.2331 79.2617 25.3867C79.7122 25.5404 80.1211 25.7878 80.4883 26.1289C80.8555 26.4701 81.1484 26.9193 81.3672 27.4766C81.5859 28.0339 81.6953 28.7161 81.6953 29.5234V30.1094H74.9141V28.9219H80.9375L80.2812 29.3594C80.2812 28.7865 80.1914 28.2773 80.0117 27.832C79.832 27.3867 79.5651 27.0378 79.2109 26.7852C78.8568 26.5326 78.4167 26.4062 77.8906 26.4062C77.3646 26.4062 76.9141 26.5352 76.5391 26.793C76.1641 27.0508 75.8776 27.3867 75.6797 27.8008C75.4818 28.2148 75.3828 28.6589 75.3828 29.1328V29.9219C75.3828 30.5677 75.4948 31.1159 75.7188 31.5664C75.9427 32.0169 76.2565 32.3581 76.6602 32.5898C77.0638 32.8216 77.5312 32.9375 78.0625 32.9375C78.4062 32.9375 78.7188 32.888 79 32.7891C79.2812 32.6901 79.5234 32.5404 79.7266 32.3398C79.9297 32.1393 80.0859 31.8906 80.1953 31.5938L81.5547 31.9688C81.4193 32.4062 81.1901 32.7917 80.8672 33.125C80.5443 33.4583 80.1445 33.7188 79.668 33.9062C79.1914 34.0938 78.6536 34.1875 78.0547 34.1875ZM83.7109 34V25.2656H85.0703V26.6094H85.1641C85.3255 26.1667 85.6133 25.8112 86.0273 25.543C86.4414 25.2747 86.9089 25.1406 87.4297 25.1406C87.5339 25.1406 87.6576 25.1432 87.8008 25.1484C87.944 25.1536 88.0573 25.1589 88.1406 25.1641V26.5781C88.099 26.5677 87.9948 26.5521 87.8281 26.5312C87.6615 26.5104 87.4844 26.5 87.2969 26.5C86.8802 26.5 86.5065 26.5872 86.1758 26.7617C85.8451 26.9362 85.5859 27.1758 85.3984 27.4805C85.2109 27.7852 85.1172 28.1354 85.1172 28.5312V34H83.7109ZM94.0938 37.1641L94.4531 35.9453L94.6016 35.9844C94.888 36.0573 95.1484 36.0768 95.3828 36.043C95.6172 36.0091 95.8281 35.8932 96.0156 35.6953C96.2031 35.4974 96.3672 35.1901 96.5078 34.7734L96.7578 34.0469L93.4219 25.2656H94.9609L96.8203 30.4453C97.0182 30.987 97.1849 31.5234 97.3203 32.0547C97.4557 32.5859 97.599 33.1016 97.75 33.6016H97.2344C97.3854 33.1016 97.5299 32.5846 97.668 32.0508C97.806 31.5169 97.9714 30.9818 98.1641 30.4453L100.039 25.2656H101.57L97.7344 35.3047C97.5573 35.7682 97.3451 36.1497 97.0977 36.4492C96.8503 36.7487 96.5625 36.9701 96.2344 37.1133C95.9062 37.2565 95.5365 37.3281 95.125 37.3281C94.875 37.3281 94.6589 37.3099 94.4766 37.2734C94.2943 37.237 94.1667 37.2005 94.0938 37.1641ZM106.469 34.1875C105.677 34.1875 104.983 34 104.387 33.625C103.79 33.25 103.326 32.724 102.992 32.0469C102.659 31.3698 102.492 30.5833 102.492 29.6875C102.492 28.776 102.659 27.9805 102.992 27.3008C103.326 26.6211 103.79 26.0938 104.387 25.7188C104.983 25.3438 105.677 25.1562 106.469 25.1562C107.266 25.1562 107.964 25.3438 108.562 25.7188C109.161 26.0938 109.628 26.6211 109.961 27.3008C110.294 27.9805 110.461 28.776 110.461 29.6875C110.461 30.5833 110.294 31.3698 109.961 32.0469C109.628 32.724 109.161 33.25 108.562 33.625C107.964 34 107.266 34.1875 106.469 34.1875ZM106.469 32.9297C107.057 32.9297 107.542 32.7786 107.922 32.4766C108.302 32.1745 108.583 31.7773 108.766 31.2852C108.948 30.793 109.039 30.2604 109.039 29.6875C109.039 29.1094 108.948 28.5716 108.766 28.0742C108.583 27.5768 108.302 27.1758 107.922 26.8711C107.542 26.5664 107.057 26.4141 106.469 26.4141C105.885 26.4141 105.406 26.5664 105.031 26.8711C104.656 27.1758 104.378 27.5755 104.195 28.0703C104.013 28.5651 103.922 29.1042 103.922 29.6875C103.922 30.2604 104.013 30.793 104.195 31.2852C104.378 31.7773 104.656 32.1745 105.031 32.4766C105.406 32.7786 105.885 32.9297 106.469 32.9297ZM115.469 34.1094C114.88 34.1094 114.363 33.9883 113.918 33.7461C113.473 33.5039 113.126 33.138 112.879 32.6484C112.632 32.1589 112.508 31.5469 112.508 30.8125V25.2656H113.914V30.6953C113.914 31.3672 114.091 31.8932 114.445 32.2734C114.799 32.6536 115.281 32.8438 115.891 32.8438C116.307 32.8438 116.681 32.7526 117.012 32.5703C117.342 32.388 117.604 32.1211 117.797 31.7695C117.99 31.418 118.086 30.9948 118.086 30.5V25.2656H119.5V34H118.141V31.8828H118.328C118.057 32.7005 117.673 33.276 117.176 33.6094C116.678 33.9427 116.109 34.1094 115.469 34.1094ZM121.969 34V25.2656H123.328V26.6094H123.422C123.583 26.1667 123.871 25.8112 124.285 25.543C124.699 25.2747 125.167 25.1406 125.688 25.1406C125.792 25.1406 125.915 25.1432 126.059 25.1484C126.202 25.1536 126.315 25.1589 126.398 25.1641V26.5781C126.357 26.5677 126.253 26.5521 126.086 26.5312C125.919 26.5104 125.742 26.5 125.555 26.5C125.138 26.5 124.764 26.5872 124.434 26.7617C124.103 26.9362 123.844 27.1758 123.656 27.4805C123.469 27.7852 123.375 28.1354 123.375 28.5312V34H121.969ZM136.164 34.1875C135.32 34.1875 134.592 34 133.98 33.625C133.368 33.25 132.897 32.7266 132.566 32.0547C132.236 31.3828 132.07 30.599 132.07 29.7031C132.07 28.8073 132.232 28.0182 132.555 27.3359C132.878 26.6536 133.335 26.1198 133.926 25.7344C134.517 25.349 135.208 25.1562 136 25.1562C136.464 25.1562 136.921 25.2331 137.371 25.3867C137.822 25.5404 138.23 25.7878 138.598 26.1289C138.965 26.4701 139.258 26.9193 139.477 27.4766C139.695 28.0339 139.805 28.7161 139.805 29.5234V30.1094H133.023V28.9219H139.047L138.391 29.3594C138.391 28.7865 138.301 28.2773 138.121 27.832C137.941 27.3867 137.674 27.0378 137.32 26.7852C136.966 26.5326 136.526 26.4062 136 26.4062C135.474 26.4062 135.023 26.5352 134.648 26.793C134.273 27.0508 133.987 27.3867 133.789 27.8008C133.591 28.2148 133.492 28.6589 133.492 29.1328V29.9219C133.492 30.5677 133.604 31.1159 133.828 31.5664C134.052 32.0169 134.366 32.3581 134.77 32.5898C135.173 32.8216 135.641 32.9375 136.172 32.9375C136.516 32.9375 136.828 32.888 137.109 32.7891C137.391 32.6901 137.633 32.5404 137.836 32.3398C138.039 32.1393 138.195 31.8906 138.305 31.5938L139.664 31.9688C139.529 32.4062 139.299 32.7917 138.977 33.125C138.654 33.4583 138.254 33.7188 137.777 33.9062C137.301 34.0938 136.763 34.1875 136.164 34.1875ZM141.82 34V25.2656H143.188L143.195 27.2188H143.086C143.206 26.7448 143.395 26.3529 143.652 26.043C143.91 25.7331 144.212 25.5 144.559 25.3438C144.905 25.1875 145.266 25.1094 145.641 25.1094C146.276 25.1094 146.79 25.3047 147.184 25.6953C147.577 26.0859 147.831 26.599 147.945 27.2344H147.758C147.862 26.7969 148.052 26.4193 148.328 26.1016C148.604 25.7839 148.939 25.5391 149.332 25.3672C149.725 25.1953 150.154 25.1094 150.617 25.1094C151.122 25.1094 151.583 25.2188 152 25.4375C152.417 25.6562 152.749 25.987 152.996 26.4297C153.243 26.8724 153.367 27.4323 153.367 28.1094V34H151.961V28.1484C151.961 27.5182 151.784 27.0677 151.43 26.7969C151.076 26.526 150.664 26.3906 150.195 26.3906C149.805 26.3906 149.467 26.4727 149.184 26.6367C148.9 26.8008 148.681 27.026 148.527 27.3125C148.374 27.599 148.297 27.9271 148.297 28.2969V34H146.891V28.0078C146.891 27.5234 146.729 27.1328 146.406 26.8359C146.083 26.5391 145.674 26.3906 145.18 26.3906C144.841 26.3906 144.522 26.4701 144.223 26.6289C143.923 26.7878 143.682 27.0234 143.5 27.3359C143.318 27.6484 143.227 28.0365 143.227 28.5V34H141.82ZM158.281 34.2031C157.729 34.2031 157.228 34.099 156.777 33.8906C156.327 33.6823 155.969 33.3776 155.703 32.9766C155.438 32.5755 155.305 32.0885 155.305 31.5156C155.305 31.0156 155.404 30.6094 155.602 30.2969C155.799 29.9844 156.064 29.7383 156.395 29.5586C156.725 29.3789 157.091 29.2448 157.492 29.1562C157.893 29.0677 158.297 28.9974 158.703 28.9453C159.224 28.8776 159.648 28.8255 159.977 28.7891C160.305 28.7526 160.548 28.6901 160.707 28.6016C160.866 28.513 160.945 28.362 160.945 28.1484V28.1016C160.945 27.737 160.878 27.4284 160.742 27.1758C160.607 26.9232 160.404 26.7292 160.133 26.5938C159.862 26.4583 159.523 26.3906 159.117 26.3906C158.701 26.3906 158.344 26.4557 158.047 26.5859C157.75 26.7161 157.509 26.8789 157.324 27.0742C157.139 27.2695 157 27.4688 156.906 27.6719L155.555 27.2266C155.779 26.6953 156.081 26.2799 156.461 25.9805C156.841 25.681 157.26 25.4688 157.719 25.3438C158.177 25.2188 158.63 25.1562 159.078 25.1562C159.37 25.1562 159.702 25.1914 160.074 25.2617C160.447 25.332 160.806 25.4714 161.152 25.6797C161.499 25.888 161.785 26.1966 162.012 26.6055C162.238 27.0143 162.352 27.5599 162.352 28.2422V34H160.969V32.8125H160.875C160.776 33.0156 160.617 33.2253 160.398 33.4414C160.18 33.6576 159.896 33.8385 159.547 33.9844C159.198 34.1302 158.776 34.2031 158.281 34.2031ZM158.523 32.9609C159.044 32.9609 159.484 32.8594 159.844 32.6562C160.203 32.4531 160.477 32.1888 160.664 31.8633C160.852 31.5378 160.945 31.1979 160.945 30.8438V29.6328C160.888 29.7005 160.763 29.7617 160.57 29.8164C160.378 29.8711 160.158 29.9193 159.91 29.9609C159.663 30.0026 159.423 30.0378 159.191 30.0664C158.96 30.0951 158.776 30.1172 158.641 30.1328C158.302 30.1745 157.986 30.2461 157.691 30.3477C157.397 30.4492 157.161 30.5977 156.984 30.793C156.807 30.9883 156.719 31.2526 156.719 31.5859C156.719 31.888 156.797 32.1406 156.953 32.3438C157.109 32.5469 157.323 32.7005 157.594 32.8047C157.865 32.9089 158.174 32.9609 158.523 32.9609ZM164.82 34V25.2656H166.227V34H164.82ZM165.531 23.8359C165.266 23.8359 165.036 23.7448 164.844 23.5625C164.651 23.3802 164.555 23.1615 164.555 22.9062C164.555 22.6458 164.651 22.4258 164.844 22.2461C165.036 22.0664 165.266 21.9766 165.531 21.9766C165.802 21.9766 166.034 22.0664 166.227 22.2461C166.419 22.4258 166.516 22.6458 166.516 22.9062C166.516 23.1615 166.419 23.3802 166.227 23.5625C166.034 23.7448 165.802 23.8359 165.531 23.8359ZM170.102 22.3594V34H168.695V22.3594H170.102Z" fill="#94A3B8"/>
<path d="M20 36C19.45 36 18.9792 35.8042 18.5875 35.4125C18.1958 35.0208 18 34.55 18 34V22C18 21.45 18.1958 20.9792 18.5875 20.5875C18.9792 20.1958 19.45 20 20 20H36C36.55 20 37.0208 20.1958 37.4125 20.5875C37.8042 20.9792 38 21.45 38 22V34C38 34.55 37.8042 35.0208 37.4125 35.4125C37.0208 35.8042 36.55 36 36 36H20ZM28 29L20 24V34H36V24L28 29ZM28 27L36 22H20L28 27ZM20 24V22V24V34V24Z" fill="#94A3B8"/>
</svg>
