<svg width="480" height="20" viewBox="0 0 480 20" fill="none" xmlns="http://www.w3.org/2000/svg">
<path d="M94.3088 9.91406C94.3088 9.36719 94.4409 8.87044 94.7053 8.42383C94.9696 7.97721 95.3262 7.62174 95.7751 7.35742C96.224 7.0931 96.7196 6.96094 97.2619 6.96094C97.7359 6.96094 98.1722 7.06234 98.571 7.26514C98.9697 7.46794 99.3001 7.74251 99.5622 8.08887C99.8242 8.43522 99.9872 8.82943 100.051 9.27148H98.8478C98.7795 8.93424 98.5938 8.65625 98.2907 8.4375C97.9876 8.21875 97.6447 8.10938 97.2619 8.10938C96.9338 8.10938 96.633 8.19027 96.3596 8.35205C96.0861 8.51383 95.8674 8.73145 95.7033 9.00488C95.5392 9.27832 95.4572 9.58138 95.4572 9.91406C95.4572 10.2422 95.5392 10.5418 95.7033 10.813C95.8674 11.0841 96.0861 11.3006 96.3596 11.4624C96.633 11.6242 96.9338 11.7051 97.2619 11.7051C97.6447 11.7051 97.9694 11.5968 98.236 11.3804C98.5026 11.1639 98.6701 10.8848 98.7385 10.543H99.9416C99.8823 10.985 99.7297 11.3815 99.4836 11.7324C99.2375 12.0833 98.9242 12.3602 98.5436 12.563C98.1631 12.7658 97.7359 12.8672 97.2619 12.8672C96.7196 12.8672 96.224 12.7339 95.7751 12.4673C95.3262 12.2007 94.9696 11.8441 94.7053 11.3975C94.4409 10.9508 94.3088 10.4564 94.3088 9.91406ZM97.2072 15.1572C96.4826 15.1572 95.8036 15.0216 95.1701 14.7505C94.5366 14.4793 93.9784 14.1022 93.4953 13.6191C93.0122 13.1361 92.6351 12.5778 92.3639 11.9443C92.0928 11.3109 91.9572 10.6318 91.9572 9.90723C91.9572 9.18262 92.0928 8.50358 92.3639 7.87012C92.6351 7.23665 93.0122 6.67839 93.4953 6.19531C93.9784 5.71224 94.5366 5.33512 95.1701 5.06396C95.8036 4.79281 96.4826 4.65723 97.2072 4.65723C97.9318 4.65723 98.6109 4.79281 99.2443 5.06396C99.8778 5.33512 100.436 5.71224 100.919 6.19531C101.402 6.67839 101.779 7.23665 102.05 7.87012C102.322 8.50358 102.457 9.18262 102.457 9.90723C102.457 10.6318 102.322 11.3109 102.05 11.9443C101.779 12.5778 101.402 13.1361 100.919 13.6191C100.436 14.1022 99.8778 14.4793 99.2443 14.7505C98.6109 15.0216 97.9318 15.1572 97.2072 15.1572ZM97.2072 13.9678C97.7678 13.9678 98.293 13.863 98.7829 13.6533C99.2728 13.4437 99.7046 13.152 100.078 12.7783C100.452 12.4046 100.744 11.9728 100.953 11.4829C101.163 10.993 101.268 10.4678 101.268 9.90723C101.268 9.34668 101.163 8.82145 100.953 8.33154C100.744 7.84163 100.452 7.40983 100.078 7.03613C99.7046 6.66243 99.2728 6.37077 98.7829 6.16113C98.293 5.9515 97.7678 5.84668 97.2072 5.84668C96.6467 5.84668 96.1214 5.9515 95.6315 6.16113C95.1416 6.37077 94.7098 6.66243 94.3361 7.03613C93.9624 7.40983 93.6707 7.84163 93.4611 8.33154C93.2515 8.82145 93.1467 9.34668 93.1467 9.90723C93.1467 10.4678 93.2515 10.993 93.4611 11.4829C93.6707 11.9728 93.9624 12.4046 94.3361 12.7783C94.7098 13.152 95.1416 13.4437 95.6315 13.6533C96.1214 13.863 96.6467 13.9678 97.2072 13.9678ZM108.596 15V14.0635L111.98 10.3926C112.358 9.98242 112.672 9.6224 112.923 9.3125C113.174 9.0026 113.363 8.70752 113.49 8.42725C113.618 8.14697 113.682 7.84961 113.682 7.53516C113.682 7.17969 113.598 6.87207 113.429 6.6123C113.26 6.35254 113.032 6.15316 112.745 6.01416C112.458 5.87516 112.132 5.80566 111.768 5.80566C111.38 5.80566 111.044 5.88428 110.759 6.0415C110.475 6.19873 110.255 6.41976 110.1 6.70459C109.945 6.98942 109.867 7.32324 109.867 7.70605H108.623C108.623 7.10449 108.762 6.57585 109.04 6.12012C109.318 5.66439 109.696 5.31006 110.175 5.05713C110.653 4.8042 111.196 4.67773 111.802 4.67773C112.408 4.67773 112.945 4.8042 113.412 5.05713C113.879 5.31006 114.246 5.65072 114.512 6.0791C114.779 6.50749 114.912 6.98828 114.912 7.52148C114.912 7.89062 114.846 8.24951 114.714 8.59814C114.582 8.94678 114.349 9.34212 114.017 9.78418C113.684 10.2262 113.217 10.7663 112.615 11.4043L110.387 13.7764V13.8584H115.083V15H108.596ZM120.497 15.1367C119.741 15.1367 119.096 14.9316 118.563 14.5215C118.029 14.1113 117.622 13.5177 117.339 12.7407C117.056 11.9637 116.915 11.0215 116.915 9.91406C116.915 8.8112 117.058 7.87012 117.342 7.09082C117.627 6.31152 118.036 5.71452 118.57 5.2998C119.103 4.88509 119.745 4.67773 120.497 4.67773C121.249 4.67773 121.893 4.88509 122.428 5.2998C122.964 5.71452 123.373 6.31152 123.655 7.09082C123.938 7.87012 124.079 8.8112 124.079 9.91406C124.079 11.0169 123.939 11.958 123.659 12.7373C123.379 13.5166 122.972 14.1113 122.439 14.5215C121.905 14.9316 121.258 15.1367 120.497 15.1367ZM120.497 14.002C120.994 14.002 121.416 13.8402 121.762 13.5166C122.108 13.193 122.373 12.7271 122.555 12.1187C122.737 11.5103 122.828 10.7754 122.828 9.91406C122.828 9.04818 122.737 8.30876 122.555 7.6958C122.373 7.08285 122.108 6.61458 121.762 6.29102C121.416 5.96745 120.994 5.80566 120.497 5.80566C120.001 5.80566 119.579 5.96859 119.233 6.29443C118.886 6.62028 118.622 7.08854 118.44 7.69922C118.257 8.3099 118.166 9.04818 118.166 9.91406C118.166 10.7754 118.257 11.5103 118.44 12.1187C118.622 12.7271 118.886 13.193 119.233 13.5166C119.579 13.8402 120.001 14.002 120.497 14.002ZM125.966 15V14.0635L129.35 10.3926C129.728 9.98242 130.042 9.6224 130.293 9.3125C130.544 9.0026 130.733 8.70752 130.861 8.42725C130.988 8.14697 131.052 7.84961 131.052 7.53516C131.052 7.17969 130.968 6.87207 130.799 6.6123C130.63 6.35254 130.403 6.15316 130.115 6.01416C129.828 5.87516 129.502 5.80566 129.138 5.80566C128.751 5.80566 128.414 5.88428 128.13 6.0415C127.845 6.19873 127.625 6.41976 127.47 6.70459C127.315 6.98942 127.237 7.32324 127.237 7.70605H125.993C125.993 7.10449 126.132 6.57585 126.41 6.12012C126.688 5.66439 127.067 5.31006 127.545 5.05713C128.024 4.8042 128.566 4.67773 129.172 4.67773C129.778 4.67773 130.315 4.8042 130.782 5.05713C131.249 5.31006 131.616 5.65072 131.882 6.0791C132.149 6.50749 132.282 6.98828 132.282 7.52148C132.282 7.89062 132.216 8.24951 132.084 8.59814C131.952 8.94678 131.72 9.34212 131.387 9.78418C131.054 10.2262 130.587 10.7663 129.986 11.4043L127.757 13.7764V13.8584H132.453V15H125.966ZM134.053 12.9287V11.8691L138.51 4.81445H139.296V6.44141H138.77L135.441 11.7051V11.7871H141.47V12.9287H134.053ZM138.845 15V12.6143L138.852 12.1152V4.81445H140.089V15H138.845ZM150.623 15H148.162V13.8516H150.541C151.371 13.8516 152.058 13.6932 152.602 13.3765C153.147 13.0597 153.554 12.6051 153.822 12.0127C154.091 11.4202 154.226 10.7116 154.226 9.88672C154.226 9.07096 154.092 8.37028 153.826 7.78467C153.559 7.19906 153.163 6.74902 152.636 6.43457C152.11 6.12012 151.453 5.96289 150.664 5.96289H148.108V4.81445H150.753C151.747 4.81445 152.595 5.01725 153.299 5.42285C154.004 5.82845 154.544 6.41064 154.92 7.16943C155.296 7.92822 155.484 8.83398 155.484 9.88672C155.484 10.9486 155.294 11.8612 154.916 12.6245C154.538 13.3879 153.987 13.9746 153.262 14.3848C152.537 14.7949 151.658 15 150.623 15ZM148.743 4.81445V15H147.445V4.81445H148.743ZM160.611 15.1641C159.872 15.1641 159.235 15 158.7 14.6719C158.164 14.3438 157.752 13.8857 157.463 13.2979C157.173 12.71 157.028 12.0241 157.028 11.2402C157.028 10.4564 157.17 9.76595 157.452 9.16895C157.735 8.57194 158.135 8.10482 158.652 7.76758C159.169 7.43034 159.774 7.26172 160.467 7.26172C160.873 7.26172 161.272 7.32894 161.667 7.46338C162.061 7.59782 162.419 7.81429 162.74 8.11279C163.061 8.4113 163.318 8.80436 163.509 9.29199C163.7 9.77962 163.796 10.3766 163.796 11.083V11.5957H157.862V10.5566H163.133L162.559 10.9395C162.559 10.4382 162.48 9.99268 162.323 9.60303C162.166 9.21338 161.932 8.90804 161.622 8.68701C161.312 8.46598 160.927 8.35547 160.467 8.35547C160.007 8.35547 159.612 8.46826 159.284 8.69385C158.956 8.91943 158.706 9.21338 158.532 9.57568C158.359 9.93799 158.273 10.3265 158.273 10.7412V11.4316C158.273 11.9967 158.371 12.4764 158.567 12.8706C158.763 13.2648 159.037 13.5633 159.39 13.7661C159.744 13.9689 160.153 14.0703 160.617 14.0703C160.918 14.0703 161.192 14.027 161.438 13.9404C161.684 13.8538 161.896 13.7228 162.073 13.5474C162.251 13.3719 162.388 13.1543 162.484 12.8945L163.673 13.2227C163.555 13.6055 163.354 13.9427 163.071 14.2344C162.789 14.526 162.439 14.7539 162.022 14.918C161.605 15.082 161.135 15.1641 160.611 15.1641ZM165.56 15V7.35742H166.749V8.5332H166.831C166.973 8.14583 167.224 7.8348 167.587 7.6001C167.949 7.3654 168.358 7.24805 168.814 7.24805C168.905 7.24805 169.013 7.25033 169.138 7.25488C169.264 7.25944 169.363 7.264 169.436 7.26855V8.50586C169.399 8.49674 169.308 8.48307 169.162 8.46484C169.016 8.44661 168.862 8.4375 168.697 8.4375C168.333 8.4375 168.006 8.51383 167.716 8.6665C167.427 8.81917 167.2 9.02881 167.036 9.29541C166.872 9.56201 166.79 9.86849 166.79 10.2148V15H165.56ZM171.049 15V7.35742H172.245L172.252 9.06641H172.156C172.261 8.65169 172.426 8.30876 172.652 8.0376C172.878 7.76644 173.142 7.5625 173.445 7.42578C173.748 7.28906 174.064 7.2207 174.392 7.2207C174.948 7.2207 175.398 7.3916 175.742 7.7334C176.086 8.0752 176.308 8.52409 176.408 9.08008H176.244C176.335 8.69727 176.502 8.36686 176.743 8.08887C176.985 7.81087 177.278 7.59668 177.622 7.44629C177.966 7.2959 178.341 7.2207 178.746 7.2207C179.188 7.2207 179.592 7.31641 179.956 7.50781C180.321 7.69922 180.611 7.98861 180.828 8.37598C181.044 8.76335 181.153 9.25326 181.153 9.8457V15H179.922V9.87988C179.922 9.32845 179.767 8.93424 179.457 8.69727C179.147 8.46029 178.787 8.3418 178.377 8.3418C178.035 8.3418 177.74 8.41357 177.492 8.55713C177.244 8.70068 177.052 8.89779 176.918 9.14844C176.783 9.39909 176.716 9.6862 176.716 10.0098V15H175.486V9.75684C175.486 9.33301 175.344 8.99121 175.062 8.73145C174.779 8.47168 174.421 8.3418 173.988 8.3418C173.692 8.3418 173.413 8.4113 173.151 8.55029C172.889 8.68929 172.678 8.89551 172.519 9.16895C172.359 9.44238 172.279 9.7819 172.279 10.1875V15H171.049ZM182.588 15L186.286 4.81445H187.79L191.536 15H190.169L188.009 8.95703C187.877 8.58333 187.723 8.11735 187.548 7.55908C187.372 7.00081 187.159 6.28874 186.908 5.42285H187.154C186.908 6.29785 186.695 7.01904 186.515 7.58643C186.335 8.15381 186.186 8.61068 186.068 8.95703L183.969 15H182.588ZM184.447 12.1562V11.0215H189.677V12.1562H184.447ZM195.836 15.1641C195.203 15.1641 194.642 15.0023 194.154 14.6787C193.667 14.3551 193.286 13.8971 193.013 13.3047C192.739 12.7122 192.603 12.0104 192.603 11.1992C192.603 10.3926 192.741 9.69417 193.016 9.104C193.292 8.51383 193.674 8.05924 194.161 7.74023C194.649 7.42122 195.209 7.26172 195.843 7.26172C196.34 7.26172 196.734 7.34375 197.026 7.50781C197.317 7.67188 197.542 7.85758 197.699 8.06494C197.856 8.2723 197.976 8.44434 198.058 8.58105H198.153V4.81445H199.384V15H198.195V13.8174H198.058C197.976 13.9587 197.854 14.1353 197.692 14.3472C197.53 14.5591 197.302 14.7482 197.008 14.9146C196.715 15.0809 196.324 15.1641 195.836 15.1641ZM196.021 14.0635C196.486 14.0635 196.877 13.9416 197.196 13.6978C197.515 13.4539 197.757 13.1156 197.921 12.6826C198.085 12.2497 198.167 11.7507 198.167 11.1855C198.167 10.6204 198.086 10.1271 197.924 9.70557C197.763 9.28402 197.522 8.95475 197.203 8.71777C196.884 8.48079 196.49 8.3623 196.021 8.3623C195.538 8.3623 195.135 8.48763 194.814 8.73828C194.493 8.98893 194.252 9.32731 194.093 9.75342C193.933 10.1795 193.854 10.6569 193.854 11.1855C193.854 11.7188 193.935 12.203 194.096 12.6382C194.258 13.0734 194.501 13.4198 194.824 13.6772C195.148 13.9347 195.547 14.0635 196.021 14.0635ZM201.544 15V7.35742H202.74L202.747 9.06641H202.652C202.756 8.65169 202.922 8.30876 203.147 8.0376C203.373 7.76644 203.637 7.5625 203.94 7.42578C204.243 7.28906 204.559 7.2207 204.887 7.2207C205.443 7.2207 205.893 7.3916 206.237 7.7334C206.581 8.0752 206.803 8.52409 206.903 9.08008H206.739C206.831 8.69727 206.997 8.36686 207.238 8.08887C207.48 7.81087 207.773 7.59668 208.117 7.44629C208.461 7.2959 208.836 7.2207 209.241 7.2207C209.683 7.2207 210.087 7.31641 210.451 7.50781C210.816 7.69922 211.106 7.98861 211.323 8.37598C211.539 8.76335 211.648 9.25326 211.648 9.8457V15H210.417V9.87988C210.417 9.32845 210.262 8.93424 209.952 8.69727C209.642 8.46029 209.282 8.3418 208.872 8.3418C208.53 8.3418 208.235 8.41357 207.987 8.55713C207.739 8.70068 207.547 8.89779 207.413 9.14844C207.278 9.39909 207.211 9.6862 207.211 10.0098V15H205.981V9.75684C205.981 9.33301 205.839 8.99121 205.557 8.73145C205.274 8.47168 204.917 8.3418 204.484 8.3418C204.187 8.3418 203.908 8.4113 203.646 8.55029C203.384 8.68929 203.173 8.89551 203.014 9.16895C202.854 9.44238 202.775 9.7819 202.775 10.1875V15H201.544ZM213.808 15V7.35742H215.038V15H213.808ZM214.43 6.10645C214.197 6.10645 213.997 6.02669 213.828 5.86719C213.66 5.70768 213.575 5.51628 213.575 5.29297C213.575 5.0651 213.66 4.87256 213.828 4.71533C213.997 4.55811 214.197 4.47949 214.43 4.47949C214.667 4.47949 214.87 4.55811 215.038 4.71533C215.207 4.87256 215.291 5.0651 215.291 5.29297C215.291 5.51628 215.207 5.70768 215.038 5.86719C214.87 6.02669 214.667 6.10645 214.43 6.10645ZM218.429 10.4199V15H217.198V7.35742H218.381L218.388 9.20996H218.217C218.449 8.50358 218.781 8.00228 219.212 7.70605C219.642 7.40983 220.147 7.26172 220.726 7.26172C221.241 7.26172 221.692 7.36768 222.079 7.57959C222.467 7.7915 222.769 8.11051 222.985 8.53662C223.202 8.96273 223.31 9.49935 223.31 10.1465V15H222.079V10.249C222.079 9.66113 221.925 9.20085 221.618 8.86816C221.31 8.53548 220.89 8.36914 220.357 8.36914C219.992 8.36914 219.664 8.44889 219.372 8.6084C219.081 8.7679 218.85 9.00033 218.682 9.30566C218.513 9.611 218.429 9.98242 218.429 10.4199ZM229.558 15V4.81445H233.044C233.837 4.81445 234.49 4.95915 235.003 5.24854C235.515 5.53792 235.896 5.92643 236.144 6.41406C236.393 6.90169 236.517 7.44857 236.517 8.05469C236.517 8.66081 236.393 9.20996 236.144 9.70215C235.896 10.1943 235.516 10.5863 235.006 10.8779C234.496 11.1696 233.844 11.3154 233.051 11.3154H230.583V10.1738H232.989C233.527 10.1738 233.96 10.0815 234.288 9.89697C234.616 9.7124 234.855 9.45947 235.003 9.13818C235.151 8.81689 235.225 8.45573 235.225 8.05469C235.225 7.65365 235.151 7.29476 235.003 6.97803C234.855 6.6613 234.615 6.41178 234.285 6.22949C233.954 6.0472 233.518 5.95605 232.976 5.95605H230.857V15H229.558ZM240.488 15.1777C240.005 15.1777 239.567 15.0866 239.173 14.9043C238.778 14.722 238.465 14.4554 238.233 14.1045C238 13.7536 237.884 13.3275 237.884 12.8262C237.884 12.3887 237.971 12.0332 238.144 11.7598C238.317 11.4863 238.548 11.271 238.838 11.1138C239.127 10.9565 239.447 10.8392 239.798 10.7617C240.149 10.6842 240.502 10.6227 240.858 10.5771C241.313 10.5179 241.685 10.4723 241.972 10.4404C242.259 10.4085 242.472 10.3538 242.611 10.2764C242.75 10.1989 242.82 10.0667 242.82 9.87988V9.83887C242.82 9.51986 242.76 9.24984 242.642 9.02881C242.523 8.80778 242.346 8.63802 242.109 8.51953C241.872 8.40104 241.575 8.3418 241.22 8.3418C240.855 8.3418 240.543 8.39876 240.283 8.5127C240.024 8.62663 239.813 8.76904 239.651 8.93994C239.489 9.11084 239.367 9.28516 239.285 9.46289L238.103 9.07324C238.299 8.6084 238.563 8.24495 238.896 7.98291C239.228 7.72087 239.595 7.53516 239.996 7.42578C240.397 7.31641 240.794 7.26172 241.186 7.26172C241.441 7.26172 241.731 7.29248 242.057 7.354C242.383 7.41553 242.698 7.53743 243.001 7.71973C243.304 7.90202 243.554 8.17204 243.753 8.52979C243.951 8.88753 244.05 9.36491 244.05 9.96191V15H242.84V13.9609H242.758C242.671 14.1387 242.532 14.3221 242.341 14.5112C242.15 14.7004 241.901 14.8587 241.596 14.9863C241.291 15.1139 240.921 15.1777 240.488 15.1777ZM240.7 14.0908C241.156 14.0908 241.541 14.002 241.856 13.8242C242.17 13.6465 242.409 13.4152 242.573 13.1304C242.737 12.8455 242.82 12.5482 242.82 12.2383V11.1787C242.769 11.238 242.66 11.2915 242.491 11.3394C242.323 11.3872 242.13 11.4294 241.914 11.4658C241.697 11.5023 241.488 11.533 241.285 11.5581C241.082 11.5832 240.921 11.6025 240.803 11.6162C240.507 11.6527 240.23 11.7153 239.972 11.8042C239.715 11.8931 239.509 12.0229 239.354 12.1938C239.199 12.3647 239.121 12.596 239.121 12.8877C239.121 13.152 239.19 13.373 239.326 13.5508C239.463 13.7285 239.65 13.863 239.887 13.9541C240.124 14.0452 240.395 14.0908 240.7 14.0908ZM246.21 15V7.35742H247.4V8.5332H247.482C247.623 8.14583 247.875 7.8348 248.237 7.6001C248.599 7.3654 249.008 7.24805 249.464 7.24805C249.555 7.24805 249.663 7.25033 249.789 7.25488C249.914 7.25944 250.013 7.264 250.086 7.26855V8.50586C250.05 8.49674 249.959 8.48307 249.813 8.46484C249.667 8.44661 249.512 8.4375 249.348 8.4375C248.983 8.4375 248.656 8.51383 248.367 8.6665C248.077 8.81917 247.851 9.02881 247.687 9.29541C247.523 9.56201 247.441 9.86849 247.441 10.2148V15H246.21ZM253.62 15.1777C253.137 15.1777 252.699 15.0866 252.304 14.9043C251.91 14.722 251.597 14.4554 251.364 14.1045C251.132 13.7536 251.016 13.3275 251.016 12.8262C251.016 12.3887 251.102 12.0332 251.276 11.7598C251.449 11.4863 251.68 11.271 251.969 11.1138C252.259 10.9565 252.579 10.8392 252.93 10.7617C253.281 10.6842 253.634 10.6227 253.989 10.5771C254.445 10.5179 254.817 10.4723 255.104 10.4404C255.391 10.4085 255.604 10.3538 255.743 10.2764C255.882 10.1989 255.951 10.0667 255.951 9.87988V9.83887C255.951 9.51986 255.892 9.24984 255.774 9.02881C255.655 8.80778 255.477 8.63802 255.24 8.51953C255.003 8.40104 254.707 8.3418 254.352 8.3418C253.987 8.3418 253.675 8.39876 253.415 8.5127C253.155 8.62663 252.945 8.76904 252.783 8.93994C252.621 9.11084 252.499 9.28516 252.417 9.46289L251.235 9.07324C251.431 8.6084 251.695 8.24495 252.028 7.98291C252.36 7.72087 252.727 7.53516 253.128 7.42578C253.529 7.31641 253.926 7.26172 254.318 7.26172C254.573 7.26172 254.863 7.29248 255.189 7.354C255.515 7.41553 255.829 7.53743 256.133 7.71973C256.436 7.90202 256.686 8.17204 256.884 8.52979C257.083 8.88753 257.182 9.36491 257.182 9.96191V15H255.972V13.9609H255.89C255.803 14.1387 255.664 14.3221 255.473 14.5112C255.281 14.7004 255.033 14.8587 254.728 14.9863C254.422 15.1139 254.053 15.1777 253.62 15.1777ZM253.832 14.0908C254.288 14.0908 254.673 14.002 254.987 13.8242C255.302 13.6465 255.541 13.4152 255.705 13.1304C255.869 12.8455 255.951 12.5482 255.951 12.2383V11.1787C255.901 11.238 255.792 11.2915 255.623 11.3394C255.455 11.3872 255.262 11.4294 255.046 11.4658C254.829 11.5023 254.619 11.533 254.417 11.5581C254.214 11.5832 254.053 11.6025 253.935 11.6162C253.639 11.6527 253.362 11.7153 253.104 11.8042C252.847 11.8931 252.64 12.0229 252.486 12.1938C252.331 12.3647 252.253 12.596 252.253 12.8877C252.253 13.152 252.321 13.373 252.458 13.5508C252.595 13.7285 252.782 13.863 253.019 13.9541C253.256 14.0452 253.527 14.0908 253.832 14.0908ZM259.342 17.8574V7.35742H260.531V8.58105H260.668C260.755 8.44434 260.876 8.2723 261.03 8.06494C261.185 7.85758 261.409 7.67188 261.7 7.50781C261.992 7.34375 262.386 7.26172 262.883 7.26172C263.521 7.26172 264.083 7.42122 264.568 7.74023C265.053 8.05924 265.434 8.51383 265.71 9.104C265.985 9.69417 266.123 10.3926 266.123 11.1992C266.123 12.0104 265.987 12.7122 265.713 13.3047C265.44 13.8971 265.06 14.3551 264.575 14.6787C264.09 15.0023 263.528 15.1641 262.89 15.1641C262.407 15.1641 262.017 15.0809 261.721 14.9146C261.425 14.7482 261.197 14.5591 261.037 14.3472C260.878 14.1353 260.755 13.9587 260.668 13.8174H260.572V17.8574H259.342ZM262.705 14.0635C263.184 14.0635 263.584 13.9347 263.905 13.6772C264.226 13.4198 264.468 13.0734 264.63 12.6382C264.791 12.203 264.872 11.7188 264.872 11.1855C264.872 10.6569 264.793 10.1795 264.633 9.75342C264.473 9.32731 264.233 8.98893 263.912 8.73828C263.591 8.48763 263.188 8.3623 262.705 8.3623C262.236 8.3623 261.842 8.48079 261.523 8.71777C261.204 8.95475 260.963 9.28402 260.801 9.70557C260.64 10.1271 260.559 10.6204 260.559 11.1855C260.559 11.7507 260.641 12.2497 260.805 12.6826C260.969 13.1156 261.212 13.4539 261.533 13.6978C261.854 13.9416 262.245 14.0635 262.705 14.0635ZM269.145 10.4199V15H267.914V4.81445H269.145V9.20996H268.933C269.165 8.50358 269.497 8.00228 269.927 7.70605C270.358 7.40983 270.863 7.26172 271.442 7.26172C271.957 7.26172 272.409 7.36768 272.799 7.57959C273.188 7.7915 273.491 8.11051 273.708 8.53662C273.924 8.96273 274.032 9.49935 274.032 10.1465V15H272.795V10.249C272.795 9.66113 272.641 9.20085 272.334 8.86816C272.026 8.53548 271.606 8.36914 271.072 8.36914C270.708 8.36914 270.38 8.44889 270.088 8.6084C269.796 8.7679 269.566 9.00033 269.398 9.30566C269.229 9.611 269.145 9.98242 269.145 10.4199ZM278.332 15.1777C277.849 15.1777 277.411 15.0866 277.016 14.9043C276.622 14.722 276.309 14.4554 276.076 14.1045C275.844 13.7536 275.728 13.3275 275.728 12.8262C275.728 12.3887 275.814 12.0332 275.987 11.7598C276.161 11.4863 276.392 11.271 276.681 11.1138C276.971 10.9565 277.291 10.8392 277.642 10.7617C277.993 10.6842 278.346 10.6227 278.701 10.5771C279.157 10.5179 279.529 10.4723 279.816 10.4404C280.103 10.4085 280.316 10.3538 280.455 10.2764C280.594 10.1989 280.663 10.0667 280.663 9.87988V9.83887C280.663 9.51986 280.604 9.24984 280.486 9.02881C280.367 8.80778 280.189 8.63802 279.952 8.51953C279.715 8.40104 279.419 8.3418 279.064 8.3418C278.699 8.3418 278.387 8.39876 278.127 8.5127C277.867 8.62663 277.657 8.76904 277.495 8.93994C277.333 9.11084 277.211 9.28516 277.129 9.46289L275.946 9.07324C276.142 8.6084 276.407 8.24495 276.739 7.98291C277.072 7.72087 277.439 7.53516 277.84 7.42578C278.241 7.31641 278.638 7.26172 279.029 7.26172C279.285 7.26172 279.575 7.29248 279.901 7.354C280.227 7.41553 280.541 7.53743 280.844 7.71973C281.147 7.90202 281.398 8.17204 281.596 8.52979C281.795 8.88753 281.894 9.36491 281.894 9.96191V15H280.684V13.9609H280.602C280.515 14.1387 280.376 14.3221 280.185 14.5112C279.993 14.7004 279.745 14.8587 279.44 14.9863C279.134 15.1139 278.765 15.1777 278.332 15.1777ZM278.544 14.0908C279 14.0908 279.385 14.002 279.699 13.8242C280.014 13.6465 280.253 13.4152 280.417 13.1304C280.581 12.8455 280.663 12.5482 280.663 12.2383V11.1787C280.613 11.238 280.504 11.2915 280.335 11.3394C280.167 11.3872 279.974 11.4294 279.758 11.4658C279.541 11.5023 279.331 11.533 279.129 11.5581C278.926 11.5832 278.765 11.6025 278.647 11.6162C278.35 11.6527 278.074 11.7153 277.816 11.8042C277.559 11.8931 277.352 12.0229 277.197 12.1938C277.043 12.3647 276.965 12.596 276.965 12.8877C276.965 13.152 277.033 13.373 277.17 13.5508C277.307 13.7285 277.494 13.863 277.731 13.9541C277.968 14.0452 278.239 14.0908 278.544 14.0908ZM284.054 15V7.35742H285.243V8.5332H285.325C285.467 8.14583 285.718 7.8348 286.081 7.6001C286.443 7.3654 286.852 7.24805 287.308 7.24805C287.399 7.24805 287.507 7.25033 287.633 7.25488C287.758 7.25944 287.857 7.264 287.93 7.26855V8.50586C287.893 8.49674 287.802 8.48307 287.656 8.46484C287.511 8.44661 287.356 8.4375 287.192 8.4375C286.827 8.4375 286.5 8.51383 286.211 8.6665C285.921 8.81917 285.695 9.02881 285.53 9.29541C285.366 9.56201 285.284 9.86849 285.284 10.2148V15H284.054ZM289.543 15V7.35742H290.739L290.746 9.06641H290.651C290.755 8.65169 290.921 8.30876 291.146 8.0376C291.372 7.76644 291.636 7.5625 291.939 7.42578C292.242 7.28906 292.558 7.2207 292.886 7.2207C293.442 7.2207 293.892 7.3916 294.236 7.7334C294.58 8.0752 294.802 8.52409 294.903 9.08008H294.738C294.83 8.69727 294.996 8.36686 295.237 8.08887C295.479 7.81087 295.772 7.59668 296.116 7.44629C296.46 7.2959 296.835 7.2207 297.24 7.2207C297.682 7.2207 298.086 7.31641 298.45 7.50781C298.815 7.69922 299.105 7.98861 299.322 8.37598C299.538 8.76335 299.647 9.25326 299.647 9.8457V15H298.416V9.87988C298.416 9.32845 298.261 8.93424 297.951 8.69727C297.641 8.46029 297.281 8.3418 296.871 8.3418C296.529 8.3418 296.234 8.41357 295.986 8.55713C295.738 8.70068 295.546 8.89779 295.412 9.14844C295.277 9.39909 295.21 9.6862 295.21 10.0098V15H293.98V9.75684C293.98 9.33301 293.838 8.99121 293.556 8.73145C293.273 8.47168 292.916 8.3418 292.483 8.3418C292.186 8.3418 291.907 8.4113 291.645 8.55029C291.383 8.68929 291.172 8.89551 291.013 9.16895C290.853 9.44238 290.774 9.7819 290.774 10.1875V15H289.543ZM303.946 15.1777C303.463 15.1777 303.025 15.0866 302.631 14.9043C302.236 14.722 301.923 14.4554 301.691 14.1045C301.458 13.7536 301.342 13.3275 301.342 12.8262C301.342 12.3887 301.429 12.0332 301.602 11.7598C301.775 11.4863 302.006 11.271 302.296 11.1138C302.585 10.9565 302.905 10.8392 303.256 10.7617C303.607 10.6842 303.96 10.6227 304.316 10.5771C304.771 10.5179 305.143 10.4723 305.43 10.4404C305.717 10.4085 305.93 10.3538 306.069 10.2764C306.208 10.1989 306.278 10.0667 306.278 9.87988V9.83887C306.278 9.51986 306.218 9.24984 306.1 9.02881C305.981 8.80778 305.804 8.63802 305.567 8.51953C305.33 8.40104 305.033 8.3418 304.678 8.3418C304.313 8.3418 304.001 8.39876 303.741 8.5127C303.482 8.62663 303.271 8.76904 303.109 8.93994C302.947 9.11084 302.825 9.28516 302.743 9.46289L301.561 9.07324C301.757 8.6084 302.021 8.24495 302.354 7.98291C302.686 7.72087 303.053 7.53516 303.454 7.42578C303.855 7.31641 304.252 7.26172 304.644 7.26172C304.899 7.26172 305.189 7.29248 305.515 7.354C305.841 7.41553 306.156 7.53743 306.459 7.71973C306.762 7.90202 307.012 8.17204 307.211 8.52979C307.409 8.88753 307.508 9.36491 307.508 9.96191V15H306.298V13.9609H306.216C306.129 14.1387 305.99 14.3221 305.799 14.5112C305.608 14.7004 305.359 14.8587 305.054 14.9863C304.749 15.1139 304.379 15.1777 303.946 15.1777ZM304.158 14.0908C304.614 14.0908 304.999 14.002 305.314 13.8242C305.628 13.6465 305.867 13.4152 306.031 13.1304C306.195 12.8455 306.278 12.5482 306.278 12.2383V11.1787C306.227 11.238 306.118 11.2915 305.949 11.3394C305.781 11.3872 305.588 11.4294 305.372 11.4658C305.155 11.5023 304.946 11.533 304.743 11.5581C304.54 11.5832 304.379 11.6025 304.261 11.6162C303.965 11.6527 303.688 11.7153 303.43 11.8042C303.173 11.8931 302.967 12.0229 302.812 12.1938C302.657 12.3647 302.579 12.596 302.579 12.8877C302.579 13.152 302.648 13.373 302.784 13.5508C302.921 13.7285 303.108 13.863 303.345 13.9541C303.582 14.0452 303.853 14.0908 304.158 14.0908ZM312.779 15.1641C312.086 15.1641 311.479 15 310.957 14.6719C310.435 14.3438 310.028 13.8835 309.737 13.291C309.445 12.6986 309.299 12.0104 309.299 11.2266C309.299 10.429 309.445 9.73291 309.737 9.13818C310.028 8.54346 310.435 8.08203 310.957 7.75391C311.479 7.42578 312.086 7.26172 312.779 7.26172C313.148 7.26172 313.496 7.30957 313.824 7.40527C314.153 7.50098 314.452 7.63883 314.723 7.81885C314.994 7.99886 315.228 8.21989 315.424 8.48193C315.62 8.74398 315.77 9.04134 315.875 9.37402L314.693 9.70898C314.638 9.51302 314.554 9.33301 314.44 9.16895C314.326 9.00488 314.188 8.86247 314.026 8.7417C313.864 8.62093 313.679 8.52751 313.469 8.46143C313.259 8.39535 313.029 8.3623 312.779 8.3623C312.268 8.3623 311.849 8.49561 311.521 8.76221C311.193 9.02881 310.949 9.37858 310.789 9.81152C310.63 10.2445 310.55 10.7161 310.55 11.2266C310.55 11.7279 310.63 12.1938 310.789 12.6245C310.949 13.0552 311.193 13.4027 311.521 13.667C311.849 13.9313 312.268 14.0635 312.779 14.0635C313.034 14.0635 313.268 14.0293 313.483 13.9609C313.697 13.8926 313.887 13.7957 314.053 13.6704C314.22 13.5451 314.36 13.3958 314.474 13.2227C314.588 13.0495 314.672 12.8604 314.727 12.6553L315.903 12.9902C315.802 13.332 315.653 13.6362 315.455 13.9028C315.257 14.1694 315.021 14.3973 314.747 14.5864C314.474 14.7756 314.171 14.9191 313.838 15.0171C313.505 15.1151 313.152 15.1641 312.779 15.1641ZM317.27 17.7686L317.584 16.7021L317.714 16.7363C317.965 16.8001 318.193 16.8172 318.398 16.7876C318.603 16.758 318.787 16.6566 318.951 16.4834C319.115 16.3102 319.259 16.0413 319.382 15.6768L319.601 15.041L316.682 7.35742H318.029L319.655 11.8896C319.829 12.3636 319.974 12.833 320.093 13.2979C320.211 13.7627 320.337 14.2139 320.469 14.6514H320.018C320.15 14.2139 320.276 13.7616 320.397 13.2944C320.518 12.8273 320.663 12.359 320.831 11.8896L322.472 7.35742H323.812L320.455 16.1416C320.3 16.5472 320.115 16.881 319.898 17.1431C319.682 17.4051 319.43 17.5988 319.143 17.7241C318.856 17.8494 318.532 17.9121 318.172 17.9121C317.953 17.9121 317.764 17.8962 317.605 17.8643C317.445 17.8324 317.334 17.8005 317.27 17.7686ZM332.61 15.1777C331.876 15.1777 331.239 15.0592 330.699 14.8223C330.159 14.5853 329.736 14.2537 329.431 13.8276C329.126 13.4015 328.952 12.9036 328.911 12.334H330.244C330.281 12.7168 330.411 13.0324 330.634 13.2808C330.857 13.5291 331.143 13.7137 331.492 13.8345C331.841 13.9552 332.213 14.0156 332.61 14.0156C333.07 14.0156 333.483 13.9404 333.85 13.79C334.217 13.6396 334.508 13.4277 334.722 13.1543C334.936 12.8809 335.043 12.5641 335.043 12.2041C335.043 11.876 334.951 11.6094 334.766 11.4043C334.582 11.1992 334.337 11.0306 334.031 10.8984C333.726 10.7663 333.391 10.6501 333.027 10.5498L331.796 10.2012C330.976 9.96875 330.338 9.63607 329.882 9.20312C329.426 8.77018 329.198 8.21647 329.198 7.54199C329.198 6.96777 329.353 6.46533 329.663 6.03467C329.973 5.604 330.392 5.27018 330.921 5.0332C331.45 4.79622 332.042 4.67773 332.698 4.67773C333.368 4.67773 333.961 4.79622 334.476 5.0332C334.991 5.27018 335.397 5.59261 335.696 6.00049C335.994 6.40837 336.153 6.86979 336.171 7.38477H334.9C334.84 6.88802 334.603 6.50407 334.189 6.23291C333.774 5.96175 333.264 5.82617 332.657 5.82617C332.22 5.82617 331.836 5.89795 331.506 6.0415C331.175 6.18506 330.919 6.38102 330.737 6.62939C330.554 6.87777 330.463 7.16146 330.463 7.48047C330.463 7.83594 330.574 8.12191 330.795 8.33838C331.016 8.55485 331.278 8.72347 331.581 8.84424C331.884 8.96501 332.158 9.05957 332.404 9.12793L333.423 9.4082C333.696 9.48112 333.998 9.58138 334.329 9.70898C334.659 9.83659 334.975 10.0063 335.276 10.2183C335.576 10.4302 335.824 10.6991 336.017 11.0249C336.211 11.3507 336.308 11.7507 336.308 12.2246C336.308 12.7806 336.163 13.2819 335.874 13.7285C335.584 14.1751 335.164 14.5283 334.612 14.7881C334.061 15.0479 333.393 15.1777 332.61 15.1777ZM341.291 15.1641C340.598 15.1641 339.991 15 339.469 14.6719C338.948 14.3438 338.541 13.8835 338.249 13.291C337.958 12.6986 337.812 12.0104 337.812 11.2266C337.812 10.429 337.958 9.73291 338.249 9.13818C338.541 8.54346 338.948 8.08203 339.469 7.75391C339.991 7.42578 340.598 7.26172 341.291 7.26172C341.988 7.26172 342.599 7.42578 343.123 7.75391C343.647 8.08203 344.055 8.54346 344.347 9.13818C344.639 9.73291 344.784 10.429 344.784 11.2266C344.784 12.0104 344.639 12.6986 344.347 13.291C344.055 13.8835 343.647 14.3438 343.123 14.6719C342.599 15 341.988 15.1641 341.291 15.1641ZM341.291 14.0635C341.806 14.0635 342.23 13.9313 342.563 13.667C342.895 13.4027 343.141 13.0552 343.301 12.6245C343.46 12.1938 343.54 11.7279 343.54 11.2266C343.54 10.7207 343.46 10.2502 343.301 9.81494C343.141 9.37972 342.895 9.02881 342.563 8.76221C342.23 8.49561 341.806 8.3623 341.291 8.3623C340.781 8.3623 340.362 8.49561 340.033 8.76221C339.705 9.02881 339.461 9.37858 339.302 9.81152C339.142 10.2445 339.063 10.7161 339.063 11.2266C339.063 11.7279 339.142 12.1938 339.302 12.6245C339.461 13.0552 339.705 13.4027 340.033 13.667C340.362 13.9313 340.781 14.0635 341.291 14.0635ZM347.806 4.81445V15H346.575V4.81445H347.806ZM352.557 15.0957C352.042 15.0957 351.59 14.9897 351.2 14.7778C350.81 14.5659 350.507 14.2458 350.291 13.8174C350.074 13.389 349.966 12.8535 349.966 12.2109V7.35742H351.196V12.1084C351.196 12.6963 351.351 13.1566 351.661 13.4893C351.971 13.8219 352.393 13.9883 352.926 13.9883C353.291 13.9883 353.618 13.9085 353.907 13.749C354.196 13.5895 354.425 13.356 354.594 13.0483C354.763 12.7407 354.847 12.3704 354.847 11.9375V7.35742H356.084V15H354.895V13.1475H355.059C354.822 13.863 354.486 14.3665 354.05 14.6582C353.615 14.9499 353.117 15.0957 352.557 15.0957ZM361.252 7.35742V8.41016H357.301V7.35742H361.252ZM358.449 5.53906H359.68V13.0176C359.68 13.3594 359.749 13.6089 359.888 13.7661C360.027 13.9233 360.259 14.002 360.582 14.002C360.66 14.002 360.759 13.9928 360.88 13.9746C361 13.9564 361.111 13.9382 361.211 13.9199L361.464 14.959C361.336 15.0046 361.192 15.0387 361.03 15.0615C360.868 15.0843 360.708 15.0957 360.548 15.0957C359.887 15.0957 359.372 14.9214 359.003 14.5728C358.634 14.2241 358.449 13.7376 358.449 13.1133V5.53906ZM362.824 15V7.35742H364.055V15H362.824ZM363.446 6.10645C363.214 6.10645 363.014 6.02669 362.845 5.86719C362.676 5.70768 362.592 5.51628 362.592 5.29297C362.592 5.0651 362.676 4.87256 362.845 4.71533C363.014 4.55811 363.214 4.47949 363.446 4.47949C363.683 4.47949 363.886 4.55811 364.055 4.71533C364.223 4.87256 364.308 5.0651 364.308 5.29297C364.308 5.51628 364.223 5.70768 364.055 5.86719C363.886 6.02669 363.683 6.10645 363.446 6.10645ZM369.325 15.1641C368.633 15.1641 368.025 15 367.504 14.6719C366.982 14.3438 366.575 13.8835 366.283 13.291C365.992 12.6986 365.846 12.0104 365.846 11.2266C365.846 10.429 365.992 9.73291 366.283 9.13818C366.575 8.54346 366.982 8.08203 367.504 7.75391C368.025 7.42578 368.633 7.26172 369.325 7.26172C370.023 7.26172 370.633 7.42578 371.157 7.75391C371.681 8.08203 372.089 8.54346 372.381 9.13818C372.673 9.73291 372.819 10.429 372.819 11.2266C372.819 12.0104 372.673 12.6986 372.381 13.291C372.089 13.8835 371.681 14.3438 371.157 14.6719C370.633 15 370.023 15.1641 369.325 15.1641ZM369.325 14.0635C369.84 14.0635 370.264 13.9313 370.597 13.667C370.93 13.4027 371.176 13.0552 371.335 12.6245C371.495 12.1938 371.574 11.7279 371.574 11.2266C371.574 10.7207 371.495 10.2502 371.335 9.81494C371.176 9.37972 370.93 9.02881 370.597 8.76221C370.264 8.49561 369.84 8.3623 369.325 8.3623C368.815 8.3623 368.396 8.49561 368.068 8.76221C367.739 9.02881 367.496 9.37858 367.336 9.81152C367.177 10.2445 367.097 10.7161 367.097 11.2266C367.097 11.7279 367.177 12.1938 367.336 12.6245C367.496 13.0552 367.739 13.4027 368.068 13.667C368.396 13.9313 368.815 14.0635 369.325 14.0635ZM375.84 10.4199V15H374.61V7.35742H375.792L375.799 9.20996H375.628C375.861 8.50358 376.192 8.00228 376.623 7.70605C377.053 7.40983 377.558 7.26172 378.137 7.26172C378.652 7.26172 379.103 7.36768 379.49 7.57959C379.878 7.7915 380.18 8.11051 380.396 8.53662C380.613 8.96273 380.721 9.49935 380.721 10.1465V15H379.49V10.249C379.49 9.66113 379.337 9.20085 379.029 8.86816C378.721 8.53548 378.301 8.36914 377.768 8.36914C377.403 8.36914 377.075 8.44889 376.783 8.6084C376.492 8.7679 376.262 9.00033 376.093 9.30566C375.924 9.611 375.84 9.98242 375.84 10.4199ZM385.479 15.1641C384.955 15.1641 384.489 15.0877 384.081 14.9351C383.673 14.7824 383.337 14.5557 383.072 14.2549C382.808 13.9541 382.63 13.585 382.539 13.1475L383.708 12.8672C383.818 13.2865 384.024 13.5941 384.327 13.79C384.63 13.986 385.009 14.084 385.465 14.084C385.998 14.084 386.423 13.9701 386.74 13.7422C387.057 13.5143 387.215 13.2432 387.215 12.9287C387.215 12.6644 387.123 12.4445 386.938 12.269C386.754 12.0936 386.472 11.9626 386.094 11.876L384.822 11.5752C384.13 11.4111 383.615 11.1571 383.278 10.813C382.94 10.4689 382.772 10.028 382.772 9.49023C382.772 9.05273 382.895 8.6665 383.141 8.33154C383.387 7.99658 383.723 7.73454 384.149 7.54541C384.575 7.35628 385.059 7.26172 385.602 7.26172C386.126 7.26172 386.571 7.34033 386.938 7.49756C387.305 7.65479 387.604 7.87126 387.834 8.14697C388.064 8.42269 388.236 8.74056 388.35 9.10059L387.236 9.3877C387.131 9.11426 386.956 8.86589 386.713 8.64258C386.469 8.41927 386.101 8.30762 385.609 8.30762C385.153 8.30762 384.773 8.41243 384.47 8.62207C384.167 8.83171 384.016 9.09603 384.016 9.41504C384.016 9.69759 384.118 9.92432 384.323 10.0952C384.529 10.2661 384.854 10.404 385.301 10.5088L386.456 10.7822C387.149 10.9463 387.662 11.2004 387.994 11.5444C388.327 11.8885 388.493 12.3226 388.493 12.8467C388.493 13.2933 388.367 13.6909 388.114 14.0396C387.861 14.3882 387.508 14.6628 387.054 14.8633C386.601 15.0638 386.076 15.1641 385.479 15.1641Z" fill="#94A3B8"/>
</svg>
