<svg width="438" height="80" viewBox="0 0 438 80" fill="none" xmlns="http://www.w3.org/2000/svg">
<rect x="12" y="2" width="414" height="56" rx="8" fill="#524E8D"/>
<g filter="url(#filter0_dd_205_1199)">
<rect x="12" y="2" width="414" height="56" rx="8" fill="white" fill-opacity="0.01" shape-rendering="crispEdges"/>
</g>
<path d="M154.983 37.1905C153.936 37.1905 153.023 37.0295 152.247 36.7074C151.47 36.3853 150.865 35.9084 150.431 35.2767C149.998 34.645 149.767 33.8649 149.74 32.9362H152.351C152.385 33.3778 152.516 33.7464 152.745 34.042C152.973 34.3376 153.278 34.5591 153.66 34.7064C154.042 34.8538 154.474 34.9275 154.955 34.9275C155.433 34.9275 155.85 34.8577 156.206 34.7181C156.562 34.5786 156.839 34.3828 157.037 34.131C157.235 33.8791 157.334 33.5881 157.334 33.2581C157.334 32.9565 157.245 32.7047 157.068 32.5027C156.891 32.3008 156.634 32.1275 156.299 31.9829C155.963 31.8383 155.556 31.7094 155.078 31.5963L153.638 31.2383C152.53 30.9679 151.661 30.5441 151.033 29.9669C150.404 29.3897 150.09 28.6248 150.09 27.6722C150.09 26.8833 150.303 26.193 150.73 25.6013C151.157 25.0096 151.741 24.5496 152.483 24.2211C153.224 23.8927 154.069 23.7285 155.017 23.7285C155.986 23.7285 156.831 23.8943 157.551 24.2259C158.272 24.5575 158.834 25.0171 159.236 25.6048C159.639 26.1925 159.848 26.8696 159.861 27.6362H157.268C157.217 27.1114 156.992 26.7048 156.594 26.4163C156.195 26.1277 155.661 25.9835 154.993 25.9835C154.538 25.9835 154.149 26.0489 153.827 26.1797C153.505 26.3104 153.26 26.4904 153.093 26.7196C152.925 26.9487 152.841 27.2098 152.841 27.5029C152.841 27.8239 152.938 28.0903 153.134 28.3022C153.33 28.514 153.587 28.6865 153.907 28.8196C154.227 28.9528 154.571 29.0633 154.938 29.1512L156.119 29.4403C156.67 29.5657 157.184 29.7342 157.659 29.9457C158.134 30.1572 158.55 30.4166 158.907 30.7239C159.264 31.0312 159.541 31.3951 159.74 31.8156C159.938 32.2361 160.037 32.721 160.037 33.2703C160.037 34.0642 159.837 34.7554 159.436 35.3439C159.036 35.9323 158.459 36.3872 157.706 36.7086C156.952 37.0299 156.045 37.1905 154.983 37.1905ZM166.348 37.192C165.345 37.192 164.481 36.9866 163.754 36.5758C163.028 36.165 162.47 35.5816 162.08 34.8258C161.691 34.0699 161.496 33.1738 161.496 32.1375C161.496 31.1266 161.69 30.2397 162.077 29.4768C162.464 28.714 163.011 28.1189 163.719 27.6917C164.427 27.2644 165.259 27.0508 166.216 27.0508C166.858 27.0508 167.457 27.153 168.015 27.3575C168.572 27.562 169.062 27.8704 169.483 28.2827C169.904 28.6949 170.232 29.213 170.469 29.8368C170.706 30.4605 170.824 31.1933 170.824 32.0351V32.7749H162.578V31.1162H169.539L168.308 31.561C168.308 31.0493 168.229 30.6047 168.073 30.2272C167.917 29.8496 167.685 29.5567 167.379 29.3485C167.072 29.1402 166.691 29.0361 166.235 29.0361C165.779 29.0361 165.393 29.1416 165.075 29.3525C164.758 29.5634 164.516 29.8496 164.351 30.211C164.185 30.5724 164.102 30.9833 164.102 31.4437V32.6115C164.102 33.1798 164.197 33.6573 164.387 34.0439C164.578 34.4305 164.845 34.7209 165.19 34.9152C165.535 35.1095 165.935 35.2066 166.39 35.2066C166.698 35.2066 166.978 35.1628 167.229 35.0752C167.481 34.9876 167.697 34.858 167.878 34.6862C168.059 34.5144 168.197 34.3026 168.292 34.0509L170.675 34.4918C170.517 35.0346 170.241 35.5085 169.85 35.9136C169.458 36.3186 168.967 36.633 168.377 36.8566C167.787 37.0802 167.111 37.192 166.348 37.192ZM175.263 31.3107V37H172.627V27.1738H175.116L175.158 29.6269H175C175.257 28.8073 175.649 28.173 176.174 27.7241C176.699 27.2752 177.377 27.0508 178.206 27.0508C178.887 27.0508 179.481 27.1989 179.987 27.4951C180.493 27.7913 180.886 28.2157 181.166 28.7683C181.446 29.3209 181.586 29.9815 181.586 30.7503V37H178.95V31.2096C178.95 30.5993 178.792 30.1206 178.478 29.7736C178.163 29.4265 177.728 29.253 177.172 29.253C176.801 29.253 176.472 29.3342 176.184 29.4966C175.896 29.6589 175.67 29.8929 175.507 30.1984C175.344 30.504 175.263 30.8748 175.263 31.3107ZM187.425 37.1635C186.674 37.1635 185.996 36.9689 185.389 36.5798C184.783 36.1907 184.304 35.62 183.952 34.8678C183.601 34.1156 183.425 33.1942 183.425 32.1038C183.425 30.9844 183.606 30.0501 183.969 29.3008C184.331 28.5515 184.815 27.9892 185.419 27.6138C186.024 27.2385 186.688 27.0508 187.411 27.0508C187.967 27.0508 188.43 27.1444 188.801 27.3316C189.171 27.5188 189.47 27.7497 189.697 28.0242C189.925 28.2987 190.096 28.5665 190.211 28.8278H190.296V23.9043H192.932V37H190.339V35.4273H190.211C190.089 35.6912 189.913 35.9562 189.681 36.2223C189.449 36.4885 189.15 36.7119 188.783 36.8925C188.416 37.0732 187.964 37.1635 187.425 37.1635ZM188.237 35.0507C188.686 35.0507 189.068 34.9272 189.383 34.6802C189.699 34.4331 189.939 34.0883 190.104 33.6455C190.269 33.2028 190.351 32.6862 190.351 32.0957C190.351 31.4989 190.27 30.9817 190.106 30.5441C189.942 30.1065 189.703 29.7671 189.387 29.5256C189.072 29.2842 188.689 29.1635 188.237 29.1635C187.777 29.1635 187.391 29.2883 187.077 29.5378C186.764 29.7873 186.528 30.1321 186.369 30.5724C186.209 31.0127 186.13 31.5204 186.13 32.0957C186.13 32.6705 186.21 33.1807 186.371 33.6264C186.531 34.072 186.769 34.4208 187.083 34.6728C187.398 34.9247 187.783 35.0507 188.237 35.0507ZM199.503 37V23.9043H204.612C205.606 23.9043 206.452 24.0802 207.149 24.432C207.846 24.7838 208.378 25.2794 208.745 25.9188C209.112 26.5583 209.295 27.3072 209.295 28.1656C209.295 29.0303 209.109 29.7742 208.738 30.3972C208.366 31.0201 207.827 31.4977 207.12 31.8299C206.413 32.162 205.556 32.3281 204.549 32.3281H201.09V30.1545H204.124C204.67 30.1545 205.12 30.0796 205.474 29.9296C205.828 29.7797 206.092 29.5574 206.266 29.2629C206.441 28.9684 206.528 28.6026 206.528 28.1656C206.528 27.7232 206.441 27.3505 206.266 27.0474C206.092 26.7443 205.827 26.5135 205.472 26.355C205.116 26.1965 204.664 26.1173 204.116 26.1173H202.189V37H199.503ZM206.789 37L203.606 31.0408H206.512L209.767 37H206.789ZM215.488 37.192C214.485 37.192 213.62 36.9866 212.894 36.5758C212.167 36.165 211.61 35.5816 211.22 34.8258C210.831 34.0699 210.636 33.1738 210.636 32.1375C210.636 31.1266 210.829 30.2397 211.216 29.4768C211.603 28.714 212.151 28.1189 212.859 27.6917C213.566 27.2644 214.399 27.0508 215.356 27.0508C215.997 27.0508 216.597 27.153 217.155 27.3575C217.712 27.562 218.201 27.8704 218.622 28.2827C219.043 28.6949 219.372 29.213 219.609 29.8368C219.845 30.4605 219.964 31.1933 219.964 32.0351V32.7749H211.718V31.1162H218.679L217.447 31.561C217.447 31.0493 217.369 30.6047 217.213 30.2272C217.057 29.8496 216.825 29.5567 216.518 29.3485C216.212 29.1402 215.83 29.0361 215.375 29.0361C214.919 29.0361 214.532 29.1416 214.215 29.3525C213.898 29.5634 213.656 29.8496 213.49 30.211C213.325 30.5724 213.242 30.9833 213.242 31.4437V32.6115C213.242 33.1798 213.337 33.6573 213.527 34.0439C213.717 34.4305 213.985 34.7209 214.33 34.9152C214.675 35.1095 215.075 35.2066 215.53 35.2066C215.838 35.2066 216.117 35.1628 216.369 35.0752C216.62 34.9876 216.837 34.858 217.018 34.6862C217.199 34.5144 217.337 34.3026 217.431 34.0509L219.815 34.4918C219.656 35.0346 219.381 35.5085 218.989 35.9136C218.597 36.3186 218.107 36.633 217.517 36.8566C216.927 37.0802 216.251 37.192 215.488 37.192ZM225.671 37.192C224.88 37.192 224.18 37.0788 223.57 36.8524C222.96 36.6261 222.463 36.2982 222.077 35.8687C221.691 35.4393 221.441 34.9212 221.327 34.3144L223.784 33.8923C223.912 34.3491 224.137 34.6916 224.459 34.9199C224.78 35.1481 225.21 35.2622 225.749 35.2622C226.251 35.2622 226.648 35.1663 226.939 34.9746C227.231 34.7829 227.377 34.5403 227.377 34.2467C227.377 33.9892 227.273 33.7784 227.066 33.6146C226.859 33.4507 226.539 33.3241 226.106 33.235L224.415 32.8862C223.467 32.6911 222.759 32.3613 222.291 31.8967C221.822 31.4322 221.588 30.8321 221.588 30.0964C221.588 29.4674 221.76 28.9258 222.103 28.4714C222.446 28.017 222.927 27.6666 223.544 27.4203C224.162 27.1739 224.884 27.0508 225.711 27.0508C226.489 27.0508 227.162 27.1582 227.731 27.373C228.299 27.5878 228.758 27.8906 229.107 28.2815C229.457 28.6724 229.692 29.1357 229.814 29.6713L227.474 30.0832C227.371 29.7475 227.178 29.4732 226.895 29.2605C226.611 29.0477 226.231 28.9413 225.753 28.9413C225.319 28.9413 224.955 29.0326 224.662 29.2151C224.369 29.3976 224.222 29.6386 224.222 29.938C224.222 30.1842 224.317 30.3926 224.506 30.5633C224.696 30.734 225.022 30.8677 225.486 30.9645L227.251 31.3161C228.202 31.508 228.909 31.8228 229.373 32.2605C229.837 32.6981 230.069 33.2681 230.069 33.9704C230.069 34.6142 229.882 35.1777 229.506 35.6607C229.13 36.1438 228.612 36.5197 227.951 36.7886C227.291 37.0575 226.531 37.192 225.671 37.192ZM236.292 37.192C235.289 37.192 234.424 36.9866 233.698 36.5758C232.971 36.165 232.413 35.5816 232.024 34.8258C231.634 34.0699 231.44 33.1738 231.44 32.1375C231.44 31.1266 231.633 30.2397 232.02 29.4768C232.407 28.714 232.954 28.1189 233.662 27.6917C234.37 27.2644 235.202 27.0508 236.159 27.0508C236.801 27.0508 237.401 27.153 237.958 27.3575C238.516 27.562 239.005 27.8704 239.426 28.2827C239.847 28.6949 240.176 29.213 240.412 29.8368C240.649 30.4605 240.767 31.1933 240.767 32.0351V32.7749H232.521V31.1162H239.483L238.251 31.561C238.251 31.0493 238.173 30.6047 238.016 30.2272C237.86 29.8496 237.629 29.5567 237.322 29.3485C237.015 29.1402 236.634 29.0361 236.178 29.0361C235.723 29.0361 235.336 29.1416 235.019 29.3525C234.701 29.5634 234.46 29.8496 234.294 30.211C234.128 30.5724 234.045 30.9833 234.045 31.4437V32.6115C234.045 33.1798 234.141 33.6573 234.331 34.0439C234.521 34.4305 234.789 34.7209 235.134 34.9152C235.478 35.1095 235.879 35.2066 236.334 35.2066C236.641 35.2066 236.921 35.1628 237.173 35.0752C237.424 34.9876 237.64 34.858 237.821 34.6862C238.003 34.5144 238.14 34.3026 238.235 34.0509L240.619 34.4918C240.46 35.0346 240.185 35.5085 239.793 35.9136C239.401 36.3186 238.91 36.633 238.32 36.8566C237.73 37.0802 237.054 37.192 236.292 37.192ZM247.453 27.1738V29.1824H241.623V27.1738H247.453ZM242.976 24.8359H245.612V34.1237C245.612 34.4365 245.682 34.6672 245.821 34.8155C245.96 34.9639 246.189 35.0381 246.507 35.0381C246.609 35.0381 246.751 35.0255 246.932 35.0005C247.112 34.9755 247.25 34.9513 247.344 34.9278L247.721 36.9045C247.427 36.9916 247.136 37.0522 246.847 37.0862C246.559 37.1203 246.282 37.1373 246.016 37.1373C245.031 37.1373 244.278 36.8981 243.757 36.4198C243.237 35.9415 242.976 35.2535 242.976 34.3559V24.8359ZM253.485 37V23.9043H256.171V34.7735H261.818V37H253.485ZM263.603 37V27.1738H266.238V37H263.603ZM264.92 25.8929C264.523 25.8929 264.183 25.7602 263.9 25.4949C263.616 25.2295 263.475 24.9111 263.475 24.5396C263.475 24.1605 263.616 23.8398 263.9 23.5775C264.183 23.3152 264.523 23.1841 264.92 23.1841C265.318 23.1841 265.66 23.3151 265.943 23.577C266.227 23.8389 266.369 24.1597 266.369 24.5393C266.369 24.9113 266.227 25.2299 265.943 25.4951C265.66 25.7603 265.318 25.8929 264.92 25.8929ZM271.116 31.3107V37H268.481V27.1738H270.969L271.011 29.6269H270.853C271.111 28.8073 271.502 28.173 272.028 27.7241C272.553 27.2752 273.23 27.0508 274.06 27.0508C274.741 27.0508 275.335 27.1989 275.84 27.4951C276.346 27.7913 276.739 28.2157 277.019 28.7683C277.299 29.3209 277.439 29.9815 277.439 30.7503V37H274.803V31.2096C274.803 30.5993 274.646 30.1206 274.331 29.7736C274.016 29.4265 273.581 29.253 273.025 29.253C272.655 29.253 272.325 29.3342 272.037 29.4966C271.749 29.6589 271.524 29.8929 271.361 30.1984C271.198 30.504 271.116 30.8748 271.116 31.3107ZM282.078 34.1218V30.9515H282.478L285.692 27.1738H288.739L284.494 32.1019H283.872L282.078 34.1218ZM279.687 37V23.9043H282.322V37H279.687ZM285.82 37L282.874 32.6908L284.635 30.8199L288.927 37H285.82Z" fill="white"/>
<defs>
<filter id="filter0_dd_205_1199" x="0" y="0" width="438" height="80" filterUnits="userSpaceOnUse" color-interpolation-filters="sRGB">
<feFlood flood-opacity="0" result="BackgroundImageFix"/>
<feColorMatrix in="SourceAlpha" type="matrix" values="0 0 0 0 0 0 0 0 0 0 0 0 0 0 0 0 0 0 127 0" result="hardAlpha"/>
<feMorphology radius="4" operator="erode" in="SourceAlpha" result="effect1_dropShadow_205_1199"/>
<feOffset dy="4"/>
<feGaussianBlur stdDeviation="3"/>
<feComposite in2="hardAlpha" operator="out"/>
<feColorMatrix type="matrix" values="0 0 0 0 0.321569 0 0 0 0 0.305882 0 0 0 0 0.552941 0 0 0 0.2 0"/>
<feBlend mode="normal" in2="BackgroundImageFix" result="effect1_dropShadow_205_1199"/>
<feColorMatrix in="SourceAlpha" type="matrix" values="0 0 0 0 0 0 0 0 0 0 0 0 0 0 0 0 0 0 127 0" result="hardAlpha"/>
<feMorphology radius="3" operator="erode" in="SourceAlpha" result="effect2_dropShadow_205_1199"/>
<feOffset dy="10"/>
<feGaussianBlur stdDeviation="7.5"/>
<feComposite in2="hardAlpha" operator="out"/>
<feColorMatrix type="matrix" values="0 0 0 0 0.321569 0 0 0 0 0.305882 0 0 0 0 0.552941 0 0 0 0.2 0"/>
<feBlend mode="normal" in2="effect1_dropShadow_205_1199" result="effect2_dropShadow_205_1199"/>
<feBlend mode="normal" in="SourceGraphic" in2="effect2_dropShadow_205_1199" result="shape"/>
</filter>
</defs>
</svg>
