<svg width="414" height="131" viewBox="0 0 414 131" fill="none" xmlns="http://www.w3.org/2000/svg">
<path d="M66.731 30V8.17383H81.0921V11.8847H71.2071V17.9789H80.1276V21.6264H71.2071V30H66.731ZM90.7029 30.3199C89.0603 30.3199 87.6391 29.967 86.4392 29.2613C85.2393 28.5555 84.3149 27.5692 83.6662 26.3023C83.0175 25.0354 82.6931 23.5621 82.6931 21.8824C82.6931 20.1893 83.0175 18.7081 83.6662 17.439C84.3149 16.1698 85.2393 15.1824 86.4392 14.4766C87.6391 13.7708 89.0603 13.418 90.7029 13.418C92.35 13.418 93.772 13.7708 94.9689 14.4766C96.1657 15.1824 97.0885 16.1698 97.7373 17.439C98.386 18.7081 98.7104 20.1893 98.7104 21.8824C98.7104 23.5621 98.386 25.0354 97.7373 26.3023C97.0885 27.5692 96.1657 28.5555 94.9689 29.2613C93.772 29.967 92.35 30.3199 90.7029 30.3199ZM90.7029 26.8619C91.4847 26.8619 92.1385 26.6446 92.6641 26.2101C93.1898 25.7755 93.584 25.1812 93.8467 24.4271C94.1094 23.673 94.2407 22.8195 94.2407 21.8666C94.2407 20.9039 94.1094 20.0472 93.8467 19.2966C93.584 18.5459 93.1898 17.9548 92.6641 17.5233C92.1385 17.0917 91.4847 16.876 90.7029 16.876C89.9203 16.876 89.2671 17.0917 88.7433 17.5233C88.2195 17.9548 87.8262 18.5448 87.5635 19.2932C87.3008 20.0416 87.1695 20.8994 87.1695 21.8666C87.1695 22.8195 87.3008 23.673 87.5635 24.4271C87.8262 25.1812 88.2195 25.7755 88.7433 26.2101C89.2671 26.6446 89.9203 26.8619 90.7029 26.8619ZM101.772 30V13.623H106.029V16.4748H106.205C106.503 15.4654 107.005 14.7014 107.713 14.1826C108.421 13.6639 109.234 13.4045 110.153 13.4045C110.38 13.4045 110.623 13.4173 110.884 13.4429C111.145 13.4685 111.374 13.5046 111.573 13.5513V17.4763C111.378 17.4093 111.095 17.3549 110.722 17.3132C110.349 17.2715 109.999 17.2507 109.674 17.2507C109.004 17.2507 108.402 17.3958 107.869 17.686C107.336 17.9763 106.918 18.378 106.617 18.8913C106.315 19.4046 106.165 20.0007 106.165 20.6796V30H101.772ZM120.533 36.4746C119.169 36.4746 117.98 36.3023 116.967 35.9578C115.954 35.6133 115.13 35.1383 114.494 34.5329C113.858 33.9276 113.419 33.2347 113.177 32.4544L116.954 31.4097C117.093 31.7117 117.306 32.007 117.592 32.2955C117.878 32.5841 118.26 32.8205 118.737 33.0046C119.214 33.1888 119.808 33.2809 120.517 33.2809C121.636 33.2809 122.516 33.0238 123.158 32.5095C123.799 31.9953 124.12 31.1962 124.12 30.1122V27.0999H123.776C123.58 27.539 123.296 27.9628 122.925 28.3714C122.554 28.78 122.068 29.1149 121.467 29.3761C120.866 29.6374 120.123 29.768 119.237 29.768C118.007 29.768 116.889 29.479 115.881 28.9011C114.873 28.3232 114.07 27.4438 113.472 26.2629C112.875 25.082 112.576 23.5897 112.576 21.7857C112.576 19.9381 112.88 18.3943 113.489 17.1545C114.098 15.9146 114.908 14.9819 115.918 14.3563C116.928 13.7308 118.038 13.418 119.248 13.418C120.171 13.418 120.943 13.5729 121.565 13.8826C122.187 14.1924 122.691 14.5771 123.078 15.0369C123.465 15.4967 123.759 15.9442 123.96 16.3796H124.138V13.623H128.465V29.8631C128.465 31.338 128.126 32.5656 127.446 33.5462C126.766 34.5268 125.83 35.26 124.638 35.7458C123.445 36.2317 122.077 36.4746 120.533 36.4746ZM120.61 26.4275C121.363 26.4275 122.001 26.2426 122.524 25.8729C123.047 25.5032 123.446 24.9689 123.721 24.2699C123.996 23.571 124.134 22.734 124.134 21.7588C124.134 20.7865 123.997 19.9403 123.724 19.22C123.451 18.4997 123.054 17.9395 122.531 17.5394C122.008 17.1393 121.368 16.9392 120.61 16.9392C119.844 16.9392 119.198 17.146 118.674 17.5596C118.149 17.9732 117.753 18.5412 117.485 19.2638C117.218 19.9863 117.084 20.818 117.084 21.7588C117.084 22.7078 117.219 23.5329 117.489 24.2341C117.759 24.9352 118.156 25.4761 118.68 25.8566C119.205 26.2372 119.848 26.4275 120.61 26.4275ZM139.541 30.3199C137.898 30.3199 136.477 29.967 135.277 29.2613C134.077 28.5555 133.153 27.5692 132.504 26.3023C131.855 25.0354 131.531 23.5621 131.531 21.8824C131.531 20.1893 131.855 18.7081 132.504 17.439C133.153 16.1698 134.077 15.1824 135.277 14.4766C136.477 13.7708 137.898 13.418 139.541 13.418C141.188 13.418 142.61 13.7708 143.807 14.4766C145.004 15.1824 145.926 16.1698 146.575 17.439C147.224 18.7081 147.548 20.1893 147.548 21.8824C147.548 23.5621 147.224 25.0354 146.575 26.3023C145.926 27.5692 145.004 28.5555 143.807 29.2613C142.61 29.967 141.188 30.3199 139.541 30.3199ZM139.541 26.8619C140.323 26.8619 140.976 26.6446 141.502 26.2101C142.028 25.7755 142.422 25.1812 142.685 24.4271C142.947 23.673 143.079 22.8195 143.079 21.8666C143.079 20.9039 142.947 20.0472 142.685 19.2966C142.422 18.5459 142.028 17.9548 141.502 17.5233C140.976 17.0917 140.323 16.876 139.541 16.876C138.758 16.876 138.105 17.0917 137.581 17.5233C137.057 17.9548 136.664 18.5448 136.401 19.2932C136.139 20.0416 136.007 20.8994 136.007 21.8666C136.007 22.8195 136.139 23.673 136.401 24.4271C136.664 25.1812 137.057 25.7755 137.581 26.2101C138.105 26.6446 138.758 26.8619 139.541 26.8619ZM158.748 13.623V16.9706H149.031V13.623H158.748ZM151.286 9.72656H155.679V25.2061C155.679 25.7276 155.795 26.1119 156.027 26.3592C156.259 26.6065 156.64 26.7301 157.17 26.7301C157.341 26.7301 157.577 26.7092 157.878 26.6675C158.179 26.6258 158.408 26.5855 158.565 26.5464L159.194 29.8409C158.704 29.986 158.219 30.087 157.738 30.1437C157.257 30.2004 156.795 30.2288 156.353 30.2288C154.71 30.2288 153.455 29.8302 152.588 29.0331C151.72 28.2359 151.286 27.0892 151.286 25.5931V9.72656ZM168.801 30V8.17383H177.316C178.973 8.17383 180.383 8.48916 181.545 9.11983C182.707 9.75049 183.593 10.6199 184.204 11.7281C184.816 12.8363 185.122 14.1084 185.122 15.5444C185.122 16.9856 184.812 18.256 184.193 19.3555C183.573 20.455 182.675 21.3159 181.497 21.9383C180.318 22.5607 178.89 22.8718 177.212 22.8718H171.742V19.2627H176.503C177.413 19.2627 178.164 19.1045 178.756 18.7881C179.348 18.4717 179.789 18.0338 180.077 17.4746C180.366 16.9153 180.51 16.2719 180.51 15.5444C180.51 14.8063 180.366 14.1612 180.077 13.609C179.789 13.0569 179.347 12.6277 178.753 12.3215C178.158 12.0152 177.404 11.8621 176.489 11.8621H173.277V30H168.801ZM192.335 30.3176C191.295 30.3176 190.363 30.1341 189.539 29.7672C188.715 29.4003 188.068 28.8541 187.596 28.1285C187.124 27.4029 186.889 26.5004 186.889 25.4209C186.889 24.5045 187.056 23.7401 187.39 23.1278C187.724 22.5155 188.181 22.0225 188.762 21.6486C189.343 21.2748 190.002 20.9904 190.741 20.7954C191.48 20.6003 192.254 20.4645 193.063 20.388C194.008 20.2927 194.771 20.2029 195.352 20.1187C195.933 20.0346 196.359 19.9029 196.63 19.7237C196.902 19.5445 197.038 19.2784 197.038 18.9255V18.8534C197.038 18.386 196.938 17.9907 196.74 17.6674C196.541 17.344 196.251 17.0963 195.87 16.9241C195.489 16.752 195.02 16.6659 194.464 16.6659C193.904 16.6659 193.415 16.751 192.995 16.9213C192.576 17.0917 192.232 17.319 191.965 17.6035C191.697 17.888 191.504 18.2075 191.387 18.5619L187.357 17.8931C187.635 16.9392 188.101 16.1301 188.756 15.4657C189.411 14.8013 190.225 14.294 191.197 13.9436C192.17 13.5932 193.264 13.418 194.478 13.418C195.357 13.418 196.212 13.5221 197.042 13.7304C197.872 13.9387 198.617 14.2646 199.277 14.7079C199.937 15.1513 200.461 15.7246 200.849 16.428C201.237 17.1313 201.431 17.9802 201.431 18.9747V30H197.263V27.726H197.119C196.855 28.2334 196.503 28.6818 196.064 29.0713C195.624 29.4607 195.096 29.7658 194.479 29.9865C193.861 30.2072 193.147 30.3176 192.335 30.3176ZM193.572 27.237C194.264 27.237 194.872 27.0993 195.395 26.8239C195.919 26.5485 196.329 26.1768 196.625 25.7089C196.921 25.2409 197.069 24.7197 197.069 24.1453V22.3732C196.935 22.4632 196.738 22.5476 196.477 22.6265C196.216 22.7053 195.924 22.7758 195.603 22.8381C195.281 22.9004 194.964 22.9545 194.651 23.0003C194.338 23.0461 194.059 23.0863 193.816 23.1208C193.276 23.1937 192.801 23.3174 192.392 23.492C191.983 23.6666 191.665 23.9001 191.438 24.1925C191.212 24.4849 191.098 24.8513 191.098 25.2917C191.098 25.7157 191.205 26.072 191.419 26.3606C191.633 26.6491 191.925 26.8673 192.296 27.0152C192.667 27.163 193.092 27.237 193.572 27.237ZM211.683 30.3199C210.365 30.3199 209.197 30.1313 208.181 29.754C207.165 29.3768 206.335 28.8303 205.692 28.1146C205.049 27.3989 204.633 26.5353 204.443 25.524L208.538 24.8206C208.751 25.5819 209.126 26.1527 209.662 26.5331C210.198 26.9135 210.914 27.1036 211.812 27.1036C212.649 27.1036 213.31 26.9439 213.796 26.6244C214.282 26.3048 214.526 25.9005 214.526 25.4112C214.526 24.9819 214.353 24.6307 214.007 24.3576C213.662 24.0844 213.129 23.8736 212.408 23.7249L209.588 23.1437C208.009 22.8185 206.829 22.2688 206.048 21.4946C205.268 20.7203 204.877 19.7201 204.877 18.494C204.877 17.4457 205.164 16.5429 205.736 15.7856C206.308 15.0283 207.109 14.4443 208.138 14.0338C209.167 13.6232 210.37 13.418 211.749 13.418C213.046 13.418 214.168 13.597 215.115 13.955C216.062 14.313 216.827 14.8177 217.41 15.4692C217.992 16.1207 218.385 16.8928 218.587 17.7856L214.688 18.472C214.516 17.9124 214.194 17.4554 213.722 17.1008C213.249 16.7462 212.615 16.5689 211.819 16.5689C211.095 16.5689 210.489 16.721 210.001 17.0252C209.512 17.3294 209.268 17.731 209.268 18.23C209.268 18.6403 209.426 18.9877 209.741 19.2722C210.057 19.5567 210.601 19.7796 211.373 19.9409L214.316 20.5268C215.9 20.8467 217.079 21.3714 217.853 22.1008C218.626 22.8302 219.013 23.7801 219.013 24.9507C219.013 26.0237 218.7 26.9628 218.073 27.7679C217.447 28.5729 216.583 29.1996 215.483 29.6477C214.382 30.0958 213.115 30.3199 211.683 30.3199ZM228.485 30.3199C227.166 30.3199 225.999 30.1313 224.983 29.754C223.966 29.3768 223.137 28.8303 222.494 28.1146C221.851 27.3989 221.434 26.5353 221.244 25.524L225.339 24.8206C225.553 25.5819 225.927 26.1527 226.463 26.5331C226.999 26.9135 227.716 27.1036 228.614 27.1036C229.45 27.1036 230.112 26.9439 230.598 26.6244C231.084 26.3048 231.327 25.9005 231.327 25.4112C231.327 24.9819 231.155 24.6307 230.809 24.3576C230.464 24.0844 229.931 23.8736 229.21 23.7249L226.39 23.1437C224.811 22.8185 223.631 22.2688 222.85 21.4946C222.07 20.7203 221.679 19.7201 221.679 18.494C221.679 17.4457 221.965 16.5429 222.537 15.7856C223.11 15.0283 223.91 14.4443 224.939 14.0338C225.969 13.6232 227.172 13.418 228.551 13.418C229.848 13.418 230.97 13.597 231.917 13.955C232.864 14.313 233.629 14.8177 234.211 15.4692C234.794 16.1207 235.187 16.8928 235.389 17.7856L231.49 18.472C231.318 17.9124 230.996 17.4554 230.524 17.1008C230.051 16.7462 229.417 16.5689 228.621 16.5689C227.897 16.5689 227.291 16.721 226.803 17.0252C226.314 17.3294 226.07 17.731 226.07 18.23C226.07 18.6403 226.228 18.9877 226.543 19.2722C226.859 19.5567 227.403 19.7796 228.175 19.9409L231.117 20.5268C232.702 20.8467 233.881 21.3714 234.654 22.1008C235.428 22.8302 235.815 23.7801 235.815 24.9507C235.815 26.0237 235.502 26.9628 234.875 27.7679C234.249 28.5729 233.385 29.1996 232.284 29.6477C231.183 30.0958 229.917 30.3199 228.485 30.3199ZM242.194 30L237.363 13.623H241.972L243.395 19.6798C243.637 20.7618 243.899 21.9403 244.183 23.2152C244.466 24.4901 244.728 25.8983 244.967 27.4397H244.466C244.722 25.9297 245.001 24.5348 245.304 23.2551C245.607 21.9753 245.889 20.7835 246.151 19.6798L247.647 13.623H251.694L253.145 19.6798C253.397 20.7753 253.675 21.9605 253.978 23.2354C254.281 24.5103 254.561 25.9118 254.817 27.4397H254.325C254.563 25.9207 254.817 24.5238 255.085 23.2489C255.353 21.974 255.61 20.7843 255.856 19.6798L257.279 13.623H261.951L257.088 30H252.623L250.808 23.6796C250.63 23.0542 250.453 22.3575 250.277 21.5894C250.101 20.8213 249.929 20.039 249.763 19.2424C249.597 18.4459 249.427 17.7019 249.253 17.0105H250.029C249.866 17.6974 249.698 18.4402 249.527 19.2391C249.356 20.0379 249.184 20.8236 249.01 21.5961C248.837 22.3687 248.658 23.0632 248.475 23.6796L246.66 30H242.194ZM271.201 30.3199C269.558 30.3199 268.137 29.967 266.937 29.2613C265.737 28.5555 264.813 27.5692 264.164 26.3023C263.516 25.0354 263.191 23.5621 263.191 21.8824C263.191 20.1893 263.516 18.7081 264.164 17.439C264.813 16.1698 265.737 15.1824 266.937 14.4766C268.137 13.7708 269.558 13.418 271.201 13.418C272.848 13.418 274.27 13.7708 275.467 14.4766C276.664 15.1824 277.587 16.1698 278.235 17.439C278.884 18.7081 279.208 20.1893 279.208 21.8824C279.208 23.5621 278.884 25.0354 278.235 26.3023C277.587 27.5692 276.664 28.5555 275.467 29.2613C274.27 29.967 272.848 30.3199 271.201 30.3199ZM271.201 26.8619C271.983 26.8619 272.637 26.6446 273.162 26.2101C273.688 25.7755 274.082 25.1812 274.345 24.4271C274.607 23.673 274.739 22.8195 274.739 21.8666C274.739 20.9039 274.607 20.0472 274.345 19.2966C274.082 18.5459 273.688 17.9548 273.162 17.5233C272.637 17.0917 271.983 16.876 271.201 16.876C270.418 16.876 269.765 17.0917 269.241 17.5233C268.718 17.9548 268.324 18.5448 268.062 19.2932C267.799 20.0416 267.668 20.8994 267.668 21.8666C267.668 22.8195 267.799 23.673 268.062 24.4271C268.324 25.1812 268.718 25.7755 269.241 26.2101C269.765 26.6446 270.418 26.8619 271.201 26.8619ZM282.27 30V13.623H286.527V16.4748H286.703C287.001 15.4654 287.503 14.7014 288.211 14.1826C288.919 13.6639 289.732 13.4045 290.651 13.4045C290.878 13.4045 291.121 13.4173 291.382 13.4429C291.643 13.4685 291.872 13.5046 292.071 13.5513V17.4763C291.876 17.4093 291.593 17.3549 291.22 17.3132C290.847 17.2715 290.497 17.2507 290.172 17.2507C289.502 17.2507 288.9 17.3958 288.367 17.686C287.834 17.9763 287.416 18.378 287.115 18.8913C286.813 19.4046 286.663 20.0007 286.663 20.6796V30H282.27ZM299.742 30.2725C298.49 30.2725 297.358 29.9482 296.348 29.2997C295.337 28.6511 294.539 27.7 293.953 26.4463C293.367 25.1926 293.074 23.657 293.074 21.8396C293.074 19.974 293.376 18.4168 293.98 17.168C294.584 15.9191 295.39 14.9819 296.398 14.3563C297.406 13.7308 298.512 13.418 299.717 13.418C300.644 13.418 301.416 13.574 302.033 13.886C302.65 14.198 303.149 14.5828 303.528 15.0403C303.907 15.4978 304.192 15.9442 304.384 16.3796H304.525V8.17383H308.918V30H304.598V27.3788H304.384C304.182 27.8187 303.887 28.2604 303.501 28.7039C303.115 29.1475 302.616 29.5198 302.005 29.8208C301.393 30.1219 300.639 30.2725 299.742 30.2725ZM301.094 26.7512C301.843 26.7512 302.479 26.5453 303.005 26.1336C303.53 25.7219 303.93 25.1471 304.205 24.4092C304.481 23.6714 304.618 22.8103 304.618 21.8262C304.618 20.8315 304.482 19.9695 304.209 19.2402C303.936 18.5109 303.537 17.9451 303.011 17.5427C302.486 17.1404 301.847 16.9392 301.094 16.9392C300.328 16.9392 299.684 17.1472 299.162 17.563C298.639 17.9788 298.245 18.5536 297.98 19.2873C297.715 20.0211 297.582 20.8674 297.582 21.8262C297.582 22.7842 297.716 23.6345 297.983 24.3773C298.251 25.1201 298.647 25.7014 299.172 26.1213C299.696 26.5412 300.337 26.7512 301.094 26.7512ZM316.507 23.2884V22.9453C316.507 21.6971 316.617 20.7171 316.836 20.0054C317.055 19.2936 317.373 18.7267 317.79 18.3045C318.208 17.8824 318.716 17.4869 319.316 17.1182C319.976 16.6959 320.53 16.2346 320.978 15.7342C321.425 15.2338 321.649 14.6274 321.649 13.9149C321.649 13.4053 321.53 12.9659 321.291 12.5967C321.053 12.2275 320.733 11.9391 320.33 11.7316C319.927 11.5241 319.478 11.4203 318.983 11.4203C318.512 11.4203 318.066 11.5228 317.645 11.7278C317.223 11.9327 316.879 12.2364 316.612 12.6387C316.345 13.0411 316.198 13.5394 316.171 14.1337H311.948C311.97 12.7239 312.302 11.5577 312.944 10.6351C313.586 9.71241 314.437 9.02271 315.497 8.56597C316.558 8.10923 317.725 7.88086 318.999 7.88086C320.405 7.88086 321.646 8.11426 322.721 8.58105C323.796 9.04785 324.639 9.72109 325.249 10.6008C325.859 11.4805 326.163 12.5376 326.163 13.7722C326.163 15.0171 325.869 16.0555 325.28 16.8875C324.692 17.7194 323.897 18.4314 322.897 19.0234C322.335 19.362 321.871 19.699 321.504 20.0344C321.136 20.3697 320.866 20.7623 320.692 21.2121C320.519 21.6619 320.432 22.2396 320.432 22.9453V23.2884H316.507ZM318.486 30.2774C317.723 30.2774 317.099 30.0477 316.613 29.5881C316.127 29.1285 315.884 28.5326 315.884 27.8004C315.884 27.0636 316.127 26.4655 316.613 26.0059C317.099 25.5463 317.723 25.3165 318.486 25.3165C319.255 25.3165 319.88 25.5463 320.361 26.0059C320.842 26.4655 321.082 27.0636 321.082 27.8004C321.082 28.5326 320.842 29.1285 320.361 29.5881C319.88 30.0477 319.255 30.2774 318.486 30.2774Z" fill="#0F172A"/>
<path d="M1.40438 65V53.3594H3.15438L7.88875 60.8047C8.01375 60.9974 8.16479 61.2448 8.34188 61.5469C8.51896 61.849 8.71036 62.1901 8.91609 62.5703C9.12182 62.9505 9.32365 63.3568 9.52156 63.7891H9.31063C9.26375 63.3411 9.2299 62.9128 9.20906 62.5039C9.18823 62.0951 9.17521 61.7188 9.17 61.375C9.16479 61.0312 9.16219 60.7396 9.16219 60.5V53.3594H10.6466V65H8.88094L4.66219 58.375C4.46948 58.0677 4.27547 57.7513 4.08016 57.4258C3.88484 57.1003 3.66219 56.7148 3.41219 56.2695C3.16219 55.8242 2.85229 55.2734 2.4825 54.6172H2.75594C2.78198 55.1953 2.80542 55.7292 2.82625 56.2188C2.84708 56.7083 2.86401 57.1354 2.87703 57.5C2.89005 57.8646 2.89656 58.151 2.89656 58.3594V65H1.40438ZM16.8419 65.1875C16.0502 65.1875 15.3562 65 14.7598 64.625C14.1635 64.25 13.6986 63.724 13.3653 63.0469C13.032 62.3698 12.8653 61.5833 12.8653 60.6875C12.8653 59.776 13.032 58.9805 13.3653 58.3008C13.6986 57.6211 14.1635 57.0938 14.7598 56.7188C15.3562 56.3438 16.0502 56.1562 16.8419 56.1562C17.6388 56.1562 18.3367 56.3438 18.9356 56.7188C19.5346 57.0938 20.0007 57.6211 20.3341 58.3008C20.6674 58.9805 20.8341 59.776 20.8341 60.6875C20.8341 61.5833 20.6674 62.3698 20.3341 63.0469C20.0007 63.724 19.5346 64.25 18.9356 64.625C18.3367 65 17.6388 65.1875 16.8419 65.1875ZM16.8419 63.9297C17.4304 63.9297 17.9148 63.7786 18.295 63.4766C18.6752 63.1745 18.9565 62.7773 19.1388 62.2852C19.321 61.793 19.4122 61.2604 19.4122 60.6875C19.4122 60.1094 19.321 59.5716 19.1388 59.0742C18.9565 58.5768 18.6752 58.1758 18.295 57.8711C17.9148 57.5664 17.4304 57.4141 16.8419 57.4141C16.2585 57.4141 15.7794 57.5664 15.4044 57.8711C15.0294 58.1758 14.7507 58.5755 14.5684 59.0703C14.3861 59.5651 14.295 60.1042 14.295 60.6875C14.295 61.2604 14.3861 61.793 14.5684 62.2852C14.7507 62.7773 15.0294 63.1745 15.4044 63.4766C15.7794 63.7786 16.2585 63.9297 16.8419 63.9297ZM29.3419 65L26.6934 56.2656H28.1856L29.2481 60.0781C29.394 60.599 29.5502 61.1888 29.7169 61.8477C29.8835 62.5065 30.0476 63.2526 30.2091 64.0859H29.9669C30.1231 63.2891 30.282 62.5599 30.4434 61.8984C30.6049 61.237 30.7611 60.6302 30.9122 60.0781L31.9591 56.2656H33.4591L34.4903 60.0781C34.6361 60.6146 34.7885 61.2122 34.9473 61.8711C35.1062 62.5299 35.2638 63.2682 35.42 64.0859H35.17C35.3367 63.2786 35.502 62.5456 35.6661 61.8867C35.8302 61.2279 35.9877 60.625 36.1388 60.0781L37.2013 56.2656H38.6934L36.045 65H34.6466L33.5138 61.0469C33.3992 60.6458 33.2872 60.237 33.1778 59.8203C33.0684 59.4036 32.9617 58.9766 32.8575 58.5391C32.7533 58.1016 32.6466 57.6562 32.5372 57.2031H32.8497C32.7455 57.651 32.6401 58.0951 32.5333 58.5352C32.4265 58.9753 32.3184 59.4062 32.2091 59.8281C32.0997 60.25 31.9877 60.6562 31.8731 61.0469L30.7403 65H29.3419ZM43.7403 65.1875C42.9486 65.1875 42.2546 65 41.6583 64.625C41.0619 64.25 40.5971 63.724 40.2637 63.0469C39.9304 62.3698 39.7637 61.5833 39.7637 60.6875C39.7637 59.776 39.9304 58.9805 40.2637 58.3008C40.5971 57.6211 41.0619 57.0938 41.6583 56.7188C42.2546 56.3438 42.9486 56.1562 43.7403 56.1562C44.5372 56.1562 45.2351 56.3438 45.8341 56.7188C46.433 57.0938 46.8992 57.6211 47.2325 58.3008C47.5658 58.9805 47.7325 59.776 47.7325 60.6875C47.7325 61.5833 47.5658 62.3698 47.2325 63.0469C46.8992 63.724 46.433 64.25 45.8341 64.625C45.2351 65 44.5372 65.1875 43.7403 65.1875ZM43.7403 63.9297C44.3289 63.9297 44.8132 63.7786 45.1934 63.4766C45.5736 63.1745 45.8549 62.7773 46.0372 62.2852C46.2195 61.793 46.3106 61.2604 46.3106 60.6875C46.3106 60.1094 46.2195 59.5716 46.0372 59.0742C45.8549 58.5768 45.5736 58.1758 45.1934 57.8711C44.8132 57.5664 44.3289 57.4141 43.7403 57.4141C43.157 57.4141 42.6778 57.5664 42.3028 57.8711C41.9278 58.1758 41.6492 58.5755 41.4669 59.0703C41.2846 59.5651 41.1934 60.1042 41.1934 60.6875C41.1934 61.2604 41.2846 61.793 41.4669 62.2852C41.6492 62.7773 41.9278 63.1745 42.3028 63.4766C42.6778 63.7786 43.157 63.9297 43.7403 63.9297ZM49.7794 65V56.2656H51.1387V57.6094H51.2325C51.394 57.1667 51.6817 56.8112 52.0958 56.543C52.5098 56.2747 52.9773 56.1406 53.4981 56.1406C53.6023 56.1406 53.726 56.1432 53.8692 56.1484C54.0124 56.1536 54.1257 56.1589 54.2091 56.1641V57.5781C54.1674 57.5677 54.0632 57.5521 53.8966 57.5312C53.7299 57.5104 53.5528 57.5 53.3653 57.5C52.9486 57.5 52.5749 57.5872 52.2442 57.7617C51.9135 57.9362 51.6544 58.1758 51.4669 58.4805C51.2794 58.7852 51.1856 59.1354 51.1856 59.5312V65H49.7794ZM56.0528 65V56.2656H57.4122V57.6094H57.5059C57.6674 57.1667 57.9552 56.8112 58.3692 56.543C58.7833 56.2747 59.2507 56.1406 59.7716 56.1406C59.8757 56.1406 59.9994 56.1432 60.1427 56.1484C60.2859 56.1536 60.3992 56.1589 60.4825 56.1641V57.5781C60.4408 57.5677 60.3367 57.5521 60.17 57.5312C60.0033 57.5104 59.8262 57.5 59.6387 57.5C59.2221 57.5 58.8484 57.5872 58.5177 57.7617C58.1869 57.9362 57.9278 58.1758 57.7403 58.4805C57.5528 58.7852 57.4591 59.1354 57.4591 59.5312V65H56.0528ZM62.2325 65V56.2656H63.6387V65H62.2325ZM62.9434 54.8359C62.6778 54.8359 62.4486 54.7448 62.2559 54.5625C62.0632 54.3802 61.9669 54.1615 61.9669 53.9062C61.9669 53.6458 62.0632 53.4258 62.2559 53.2461C62.4486 53.0664 62.6778 52.9766 62.9434 52.9766C63.2143 52.9766 63.446 53.0664 63.6387 53.2461C63.8315 53.4258 63.9278 53.6458 63.9278 53.9062C63.9278 54.1615 63.8315 54.3802 63.6387 54.5625C63.446 54.7448 63.2143 54.8359 62.9434 54.8359ZM69.7794 65.1875C68.9356 65.1875 68.2078 65 67.5958 64.625C66.9838 64.25 66.5124 63.7266 66.1817 63.0547C65.851 62.3828 65.6856 61.599 65.6856 60.7031C65.6856 59.8073 65.8471 59.0182 66.17 58.3359C66.4929 57.6536 66.9499 57.1198 67.5411 56.7344C68.1322 56.349 68.8236 56.1562 69.6153 56.1562C70.0789 56.1562 70.5359 56.2331 70.9864 56.3867C71.4369 56.5404 71.8458 56.7878 72.213 57.1289C72.5802 57.4701 72.8731 57.9193 73.0919 58.4766C73.3106 59.0339 73.42 59.7161 73.42 60.5234V61.1094H66.6387V59.9219H72.6622L72.0059 60.3594C72.0059 59.7865 71.9161 59.2773 71.7364 58.832C71.5567 58.3867 71.2898 58.0378 70.9356 57.7852C70.5815 57.5326 70.1414 57.4062 69.6153 57.4062C69.0893 57.4062 68.6387 57.5352 68.2637 57.793C67.8887 58.0508 67.6023 58.3867 67.4044 58.8008C67.2065 59.2148 67.1075 59.6589 67.1075 60.1328V60.9219C67.1075 61.5677 67.2195 62.1159 67.4434 62.5664C67.6674 63.0169 67.9812 63.3581 68.3848 63.5898C68.7885 63.8216 69.2559 63.9375 69.7872 63.9375C70.1309 63.9375 70.4434 63.888 70.7247 63.7891C71.0059 63.6901 71.2481 63.5404 71.4512 63.3398C71.6544 63.1393 71.8106 62.8906 71.92 62.5938L73.2794 62.9688C73.144 63.4062 72.9148 63.7917 72.5919 64.125C72.269 64.4583 71.8692 64.7188 71.3927 64.9062C70.9161 65.0938 70.3783 65.1875 69.7794 65.1875ZM78.4044 65.1875C77.8054 65.1875 77.2729 65.1003 76.8067 64.9258C76.3406 64.7513 75.9565 64.4922 75.6544 64.1484C75.3523 63.8047 75.1492 63.3828 75.045 62.8828L76.3809 62.5625C76.5059 63.0417 76.7416 63.3932 77.088 63.6172C77.4343 63.8411 77.8679 63.9531 78.3887 63.9531C78.9981 63.9531 79.4838 63.8229 79.8458 63.5625C80.2078 63.3021 80.3887 62.9922 80.3887 62.6328C80.3887 62.3307 80.2833 62.0794 80.0723 61.8789C79.8614 61.6784 79.5398 61.5286 79.1075 61.4297L77.6544 61.0859C76.8627 60.8984 76.2742 60.6081 75.8887 60.2148C75.5033 59.8216 75.3106 59.3177 75.3106 58.7031C75.3106 58.2031 75.4512 57.7617 75.7325 57.3789C76.0137 56.9961 76.3979 56.6966 76.8848 56.4805C77.3718 56.2643 77.9252 56.1562 78.545 56.1562C79.144 56.1562 79.6531 56.2461 80.0723 56.4258C80.4916 56.6055 80.8328 56.8529 81.0958 57.168C81.3588 57.4831 81.5554 57.8464 81.6856 58.2578L80.4122 58.5859C80.2924 58.2734 80.0932 57.9896 79.8145 57.7344C79.5359 57.4792 79.1153 57.3516 78.5528 57.3516C78.032 57.3516 77.5984 57.4714 77.252 57.7109C76.9057 57.9505 76.7325 58.2526 76.7325 58.6172C76.7325 58.9401 76.8497 59.1992 77.0841 59.3945C77.3184 59.5898 77.6908 59.7474 78.2012 59.8672L79.5216 60.1797C80.3132 60.3672 80.8992 60.6576 81.2794 61.0508C81.6596 61.444 81.8497 61.9401 81.8497 62.5391C81.8497 63.0495 81.7052 63.5039 81.4161 63.9023C81.127 64.3008 80.7234 64.6146 80.2052 64.8438C79.6869 65.0729 79.0867 65.1875 78.4044 65.1875ZM84.2403 61.2578L84.1466 53.3594H85.7403L85.6387 61.2578H84.2403ZM84.9512 65.1016C84.6596 65.1016 84.4109 64.9987 84.2052 64.793C83.9994 64.5872 83.8966 64.3411 83.8966 64.0547C83.8966 63.763 83.9994 63.5143 84.2052 63.3086C84.4109 63.1029 84.6596 63 84.9512 63C85.2429 63 85.4903 63.1029 85.6934 63.3086C85.8966 63.5143 85.9981 63.763 85.9981 64.0547C85.9981 64.3411 85.8966 64.5872 85.6934 64.793C85.4903 64.9987 85.2429 65.1016 84.9512 65.1016ZM93.1544 65V53.3594H100.248V54.6719H94.6387V58.4688H99.8653V59.7812H94.6387V63.6875H100.318V65H93.1544ZM104.006 59.7656V65H102.6V56.2656H103.951L103.959 58.3828H103.764C104.029 57.5755 104.408 57.0026 104.9 56.6641C105.393 56.3255 105.969 56.1562 106.631 56.1562C107.219 56.1562 107.735 56.2773 108.178 56.5195C108.621 56.7617 108.966 57.1263 109.213 57.6133C109.46 58.1003 109.584 58.7135 109.584 59.4531V65H108.178V59.5703C108.178 58.8984 108.002 58.3724 107.65 57.9922C107.299 57.612 106.818 57.4219 106.209 57.4219C105.792 57.4219 105.417 57.513 105.084 57.6953C104.751 57.8776 104.488 58.1432 104.295 58.4922C104.102 58.8411 104.006 59.2656 104.006 59.7656ZM115.49 56.2656V57.4688H110.975V56.2656H115.49ZM112.287 54.1875H113.693V62.7344C113.693 63.125 113.773 63.4102 113.932 63.5898C114.091 63.7695 114.355 63.8594 114.725 63.8594C114.813 63.8594 114.927 63.849 115.065 63.8281C115.203 63.8073 115.329 63.7865 115.443 63.7656L115.732 64.9531C115.587 65.0052 115.421 65.0443 115.236 65.0703C115.052 65.0964 114.868 65.1094 114.686 65.1094C113.93 65.1094 113.342 64.9102 112.92 64.5117C112.498 64.1133 112.287 63.5573 112.287 62.8438V54.1875ZM120.803 65.1875C119.959 65.1875 119.231 65 118.619 64.625C118.007 64.25 117.536 63.7266 117.205 63.0547C116.874 62.3828 116.709 61.599 116.709 60.7031C116.709 59.8073 116.871 59.0182 117.193 58.3359C117.516 57.6536 117.973 57.1198 118.565 56.7344C119.156 56.349 119.847 56.1562 120.639 56.1562C121.102 56.1562 121.559 56.2331 122.01 56.3867C122.46 56.5404 122.869 56.7878 123.236 57.1289C123.604 57.4701 123.897 57.9193 124.115 58.4766C124.334 59.0339 124.443 59.7161 124.443 60.5234V61.1094H117.662V59.9219H123.686L123.029 60.3594C123.029 59.7865 122.94 59.2773 122.76 58.832C122.58 58.3867 122.313 58.0378 121.959 57.7852C121.605 57.5326 121.165 57.4062 120.639 57.4062C120.113 57.4062 119.662 57.5352 119.287 57.793C118.912 58.0508 118.626 58.3867 118.428 58.8008C118.23 59.2148 118.131 59.6589 118.131 60.1328V60.9219C118.131 61.5677 118.243 62.1159 118.467 62.5664C118.691 63.0169 119.005 63.3581 119.408 63.5898C119.812 63.8216 120.279 63.9375 120.811 63.9375C121.154 63.9375 121.467 63.888 121.748 63.7891C122.029 63.6901 122.272 63.5404 122.475 63.3398C122.678 63.1393 122.834 62.8906 122.943 62.5938L124.303 62.9688C124.167 63.4062 123.938 63.7917 123.615 64.125C123.292 64.4583 122.893 64.7188 122.416 64.9062C121.94 65.0938 121.402 65.1875 120.803 65.1875ZM126.459 65V56.2656H127.818V57.6094H127.912C128.074 57.1667 128.361 56.8112 128.775 56.543C129.19 56.2747 129.657 56.1406 130.178 56.1406C130.282 56.1406 130.406 56.1432 130.549 56.1484C130.692 56.1536 130.805 56.1589 130.889 56.1641V57.5781C130.847 57.5677 130.743 57.5521 130.576 57.5312C130.41 57.5104 130.232 57.5 130.045 57.5C129.628 57.5 129.255 57.5872 128.924 57.7617C128.593 57.9362 128.334 58.1758 128.147 58.4805C127.959 58.7852 127.865 59.1354 127.865 59.5312V65H126.459ZM136.842 68.1641L137.201 66.9453L137.35 66.9844C137.636 67.0573 137.897 67.0768 138.131 67.043C138.365 67.0091 138.576 66.8932 138.764 66.6953C138.951 66.4974 139.115 66.1901 139.256 65.7734L139.506 65.0469L136.17 56.2656H137.709L139.568 61.4453C139.766 61.987 139.933 62.5234 140.068 63.0547C140.204 63.5859 140.347 64.1016 140.498 64.6016H139.982C140.134 64.1016 140.278 63.5846 140.416 63.0508C140.554 62.5169 140.719 61.9818 140.912 61.4453L142.787 56.2656H144.318L140.482 66.3047C140.305 66.7682 140.093 67.1497 139.846 67.4492C139.598 67.7487 139.311 67.9701 138.982 68.1133C138.654 68.2565 138.285 68.3281 137.873 68.3281C137.623 68.3281 137.407 68.3099 137.225 68.2734C137.042 68.237 136.915 68.2005 136.842 68.1641ZM149.217 65.1875C148.425 65.1875 147.731 65 147.135 64.625C146.538 64.25 146.074 63.724 145.74 63.0469C145.407 62.3698 145.24 61.5833 145.24 60.6875C145.24 59.776 145.407 58.9805 145.74 58.3008C146.074 57.6211 146.538 57.0938 147.135 56.7188C147.731 56.3438 148.425 56.1562 149.217 56.1562C150.014 56.1562 150.712 56.3438 151.311 56.7188C151.91 57.0938 152.376 57.6211 152.709 58.3008C153.042 58.9805 153.209 59.776 153.209 60.6875C153.209 61.5833 153.042 62.3698 152.709 63.0469C152.376 63.724 151.91 64.25 151.311 64.625C150.712 65 150.014 65.1875 149.217 65.1875ZM149.217 63.9297C149.805 63.9297 150.29 63.7786 150.67 63.4766C151.05 63.1745 151.331 62.7773 151.514 62.2852C151.696 61.793 151.787 61.2604 151.787 60.6875C151.787 60.1094 151.696 59.5716 151.514 59.0742C151.331 58.5768 151.05 58.1758 150.67 57.8711C150.29 57.5664 149.805 57.4141 149.217 57.4141C148.634 57.4141 148.154 57.5664 147.779 57.8711C147.404 58.1758 147.126 58.5755 146.943 59.0703C146.761 59.5651 146.67 60.1042 146.67 60.6875C146.67 61.2604 146.761 61.793 146.943 62.2852C147.126 62.7773 147.404 63.1745 147.779 63.4766C148.154 63.7786 148.634 63.9297 149.217 63.9297ZM158.217 65.1094C157.628 65.1094 157.111 64.9883 156.666 64.7461C156.221 64.5039 155.874 64.138 155.627 63.6484C155.38 63.1589 155.256 62.5469 155.256 61.8125V56.2656H156.662V61.6953C156.662 62.3672 156.839 62.8932 157.193 63.2734C157.548 63.6536 158.029 63.8438 158.639 63.8438C159.055 63.8438 159.429 63.7526 159.76 63.5703C160.091 63.388 160.352 63.1211 160.545 62.7695C160.738 62.418 160.834 61.9948 160.834 61.5V56.2656H162.248V65H160.889V62.8828H161.076C160.805 63.7005 160.421 64.276 159.924 64.6094C159.427 64.9427 158.857 65.1094 158.217 65.1094ZM164.717 65V56.2656H166.076V57.6094H166.17C166.331 57.1667 166.619 56.8112 167.033 56.543C167.447 56.2747 167.915 56.1406 168.436 56.1406C168.54 56.1406 168.663 56.1432 168.807 56.1484C168.95 56.1536 169.063 56.1589 169.147 56.1641V57.5781C169.105 57.5677 169.001 57.5521 168.834 57.5312C168.667 57.5104 168.49 57.5 168.303 57.5C167.886 57.5 167.512 57.5872 167.182 57.7617C166.851 57.9362 166.592 58.1758 166.404 58.4805C166.217 58.7852 166.123 59.1354 166.123 59.5312V65H164.717ZM178.912 65.1875C178.068 65.1875 177.341 65 176.729 64.625C176.117 64.25 175.645 63.7266 175.315 63.0547C174.984 62.3828 174.818 61.599 174.818 60.7031C174.818 59.8073 174.98 59.0182 175.303 58.3359C175.626 57.6536 176.083 57.1198 176.674 56.7344C177.265 56.349 177.956 56.1562 178.748 56.1562C179.212 56.1562 179.669 56.2331 180.119 56.3867C180.57 56.5404 180.979 56.7878 181.346 57.1289C181.713 57.4701 182.006 57.9193 182.225 58.4766C182.443 59.0339 182.553 59.7161 182.553 60.5234V61.1094H175.772V59.9219H181.795L181.139 60.3594C181.139 59.7865 181.049 59.2773 180.869 58.832C180.69 58.3867 180.423 58.0378 180.068 57.7852C179.714 57.5326 179.274 57.4062 178.748 57.4062C178.222 57.4062 177.772 57.5352 177.397 57.793C177.022 58.0508 176.735 58.3867 176.537 58.8008C176.339 59.2148 176.24 59.6589 176.24 60.1328V60.9219C176.24 61.5677 176.352 62.1159 176.576 62.5664C176.8 63.0169 177.114 63.3581 177.518 63.5898C177.921 63.8216 178.389 63.9375 178.92 63.9375C179.264 63.9375 179.576 63.888 179.857 63.7891C180.139 63.6901 180.381 63.5404 180.584 63.3398C180.787 63.1393 180.943 62.8906 181.053 62.5938L182.412 62.9688C182.277 63.4062 182.048 63.7917 181.725 64.125C181.402 64.4583 181.002 64.7188 180.525 64.9062C180.049 65.0938 179.511 65.1875 178.912 65.1875ZM184.568 65V56.2656H185.936L185.943 58.2188H185.834C185.954 57.7448 186.143 57.3529 186.4 57.043C186.658 56.7331 186.96 56.5 187.307 56.3438C187.653 56.1875 188.014 56.1094 188.389 56.1094C189.024 56.1094 189.538 56.3047 189.932 56.6953C190.325 57.0859 190.579 57.599 190.693 58.2344H190.506C190.61 57.7969 190.8 57.4193 191.076 57.1016C191.352 56.7839 191.687 56.5391 192.08 56.3672C192.473 56.1953 192.902 56.1094 193.365 56.1094C193.871 56.1094 194.331 56.2188 194.748 56.4375C195.165 56.6562 195.497 56.987 195.744 57.4297C195.992 57.8724 196.115 58.4323 196.115 59.1094V65H194.709V59.1484C194.709 58.5182 194.532 58.0677 194.178 57.7969C193.824 57.526 193.412 57.3906 192.943 57.3906C192.553 57.3906 192.216 57.4727 191.932 57.6367C191.648 57.8008 191.429 58.026 191.275 58.3125C191.122 58.599 191.045 58.9271 191.045 59.2969V65H189.639V59.0078C189.639 58.5234 189.477 58.1328 189.154 57.8359C188.831 57.5391 188.423 57.3906 187.928 57.3906C187.589 57.3906 187.27 57.4701 186.971 57.6289C186.671 57.7878 186.43 58.0234 186.248 58.3359C186.066 58.6484 185.975 59.0365 185.975 59.5V65H184.568ZM201.029 65.2031C200.477 65.2031 199.976 65.099 199.525 64.8906C199.075 64.6823 198.717 64.3776 198.451 63.9766C198.186 63.5755 198.053 63.0885 198.053 62.5156C198.053 62.0156 198.152 61.6094 198.35 61.2969C198.548 60.9844 198.812 60.7383 199.143 60.5586C199.473 60.3789 199.839 60.2448 200.24 60.1562C200.641 60.0677 201.045 59.9974 201.451 59.9453C201.972 59.8776 202.397 59.8255 202.725 59.7891C203.053 59.7526 203.296 59.6901 203.455 59.6016C203.614 59.513 203.693 59.362 203.693 59.1484V59.1016C203.693 58.737 203.626 58.4284 203.49 58.1758C203.355 57.9232 203.152 57.7292 202.881 57.5938C202.61 57.4583 202.272 57.3906 201.865 57.3906C201.449 57.3906 201.092 57.4557 200.795 57.5859C200.498 57.7161 200.257 57.8789 200.072 58.0742C199.887 58.2695 199.748 58.4688 199.654 58.6719L198.303 58.2266C198.527 57.6953 198.829 57.2799 199.209 56.9805C199.589 56.681 200.009 56.4688 200.467 56.3438C200.925 56.2188 201.378 56.1562 201.826 56.1562C202.118 56.1562 202.45 56.1914 202.822 56.2617C203.195 56.332 203.554 56.4714 203.9 56.6797C204.247 56.888 204.533 57.1966 204.76 57.6055C204.986 58.0143 205.1 58.5599 205.1 59.2422V65H203.717V63.8125H203.623C203.524 64.0156 203.365 64.2253 203.147 64.4414C202.928 64.6576 202.644 64.8385 202.295 64.9844C201.946 65.1302 201.524 65.2031 201.029 65.2031ZM201.272 63.9609C201.792 63.9609 202.232 63.8594 202.592 63.6562C202.951 63.4531 203.225 63.1888 203.412 62.8633C203.6 62.5378 203.693 62.1979 203.693 61.8438V60.6328C203.636 60.7005 203.511 60.7617 203.318 60.8164C203.126 60.8711 202.906 60.9193 202.658 60.9609C202.411 61.0026 202.171 61.0378 201.94 61.0664C201.708 61.0951 201.524 61.1172 201.389 61.1328C201.05 61.1745 200.734 61.2461 200.44 61.3477C200.145 61.4492 199.91 61.5977 199.732 61.793C199.555 61.9883 199.467 62.2526 199.467 62.5859C199.467 62.888 199.545 63.1406 199.701 63.3438C199.857 63.5469 200.071 63.7005 200.342 63.8047C200.613 63.9089 200.923 63.9609 201.272 63.9609ZM207.568 65V56.2656H208.975V65H207.568ZM208.279 54.8359C208.014 54.8359 207.785 54.7448 207.592 54.5625C207.399 54.3802 207.303 54.1615 207.303 53.9062C207.303 53.6458 207.399 53.4258 207.592 53.2461C207.785 53.0664 208.014 52.9766 208.279 52.9766C208.55 52.9766 208.782 53.0664 208.975 53.2461C209.167 53.4258 209.264 53.6458 209.264 53.9062C209.264 54.1615 209.167 54.3802 208.975 54.5625C208.782 54.7448 208.55 54.8359 208.279 54.8359ZM212.85 53.3594V65H211.443V53.3594H212.85ZM222.264 65.2031C221.712 65.2031 221.21 65.099 220.76 64.8906C220.309 64.6823 219.951 64.3776 219.686 63.9766C219.42 63.5755 219.287 63.0885 219.287 62.5156C219.287 62.0156 219.386 61.6094 219.584 61.2969C219.782 60.9844 220.046 60.7383 220.377 60.5586C220.708 60.3789 221.074 60.2448 221.475 60.1562C221.876 60.0677 222.279 59.9974 222.686 59.9453C223.206 59.8776 223.631 59.8255 223.959 59.7891C224.287 59.7526 224.531 59.6901 224.69 59.6016C224.848 59.513 224.928 59.362 224.928 59.1484V59.1016C224.928 58.737 224.86 58.4284 224.725 58.1758C224.589 57.9232 224.386 57.7292 224.115 57.5938C223.844 57.4583 223.506 57.3906 223.1 57.3906C222.683 57.3906 222.326 57.4557 222.029 57.5859C221.732 57.7161 221.492 57.8789 221.307 58.0742C221.122 58.2695 220.982 58.4688 220.889 58.6719L219.537 58.2266C219.761 57.6953 220.063 57.2799 220.443 56.9805C220.824 56.681 221.243 56.4688 221.701 56.3438C222.16 56.2188 222.613 56.1562 223.061 56.1562C223.352 56.1562 223.684 56.1914 224.057 56.2617C224.429 56.332 224.788 56.4714 225.135 56.6797C225.481 56.888 225.768 57.1966 225.994 57.6055C226.221 58.0143 226.334 58.5599 226.334 59.2422V65H224.951V63.8125H224.857C224.759 64.0156 224.6 64.2253 224.381 64.4414C224.162 64.6576 223.878 64.8385 223.529 64.9844C223.18 65.1302 222.759 65.2031 222.264 65.2031ZM222.506 63.9609C223.027 63.9609 223.467 63.8594 223.826 63.6562C224.186 63.4531 224.459 63.1888 224.647 62.8633C224.834 62.5378 224.928 62.1979 224.928 61.8438V60.6328C224.871 60.7005 224.746 60.7617 224.553 60.8164C224.36 60.8711 224.14 60.9193 223.893 60.9609C223.645 61.0026 223.406 61.0378 223.174 61.0664C222.942 61.0951 222.759 61.1172 222.623 61.1328C222.285 61.1745 221.968 61.2461 221.674 61.3477C221.38 61.4492 221.144 61.5977 220.967 61.793C220.79 61.9883 220.701 62.2526 220.701 62.5859C220.701 62.888 220.779 63.1406 220.936 63.3438C221.092 63.5469 221.305 63.7005 221.576 63.8047C221.847 63.9089 222.157 63.9609 222.506 63.9609ZM232.076 65.1875C231.352 65.1875 230.712 65.0026 230.154 64.6328C229.597 64.263 229.162 63.7396 228.85 63.0625C228.537 62.3854 228.381 61.5833 228.381 60.6562C228.381 59.7344 228.538 58.9362 228.854 58.2617C229.169 57.5872 229.605 57.0677 230.162 56.7031C230.719 56.3385 231.36 56.1562 232.084 56.1562C232.652 56.1562 233.102 56.25 233.436 56.4375C233.769 56.625 234.025 56.8372 234.205 57.0742C234.385 57.3112 234.522 57.5078 234.615 57.6641H234.725V53.3594H236.131V65H234.772V63.6484H234.615C234.522 63.8099 234.382 64.0117 234.197 64.2539C234.012 64.4961 233.752 64.7122 233.416 64.9023C233.08 65.0924 232.634 65.1875 232.076 65.1875ZM232.287 63.9297C232.818 63.9297 233.266 63.7904 233.631 63.5117C233.996 63.2331 234.272 62.8464 234.459 62.3516C234.647 61.8568 234.74 61.2865 234.74 60.6406C234.74 59.9948 234.648 59.431 234.463 58.9492C234.278 58.4674 234.003 58.0911 233.639 57.8203C233.274 57.5495 232.824 57.4141 232.287 57.4141C231.735 57.4141 231.275 57.5573 230.908 57.8438C230.541 58.1302 230.266 58.5169 230.084 59.0039C229.902 59.4909 229.811 60.0365 229.811 60.6406C229.811 61.25 229.903 61.8034 230.088 62.3008C230.273 62.7982 230.55 63.194 230.92 63.4883C231.29 63.7826 231.746 63.9297 232.287 63.9297ZM241.873 65.1875C241.149 65.1875 240.509 65.0026 239.951 64.6328C239.394 64.263 238.959 63.7396 238.647 63.0625C238.334 62.3854 238.178 61.5833 238.178 60.6562C238.178 59.7344 238.335 58.9362 238.65 58.2617C238.966 57.5872 239.402 57.0677 239.959 56.7031C240.516 56.3385 241.157 56.1562 241.881 56.1562C242.449 56.1562 242.899 56.25 243.232 56.4375C243.566 56.625 243.822 56.8372 244.002 57.0742C244.182 57.3112 244.318 57.5078 244.412 57.6641H244.522V53.3594H245.928V65H244.568V63.6484H244.412C244.318 63.8099 244.179 64.0117 243.994 64.2539C243.809 64.4961 243.549 64.7122 243.213 64.9023C242.877 65.0924 242.43 65.1875 241.873 65.1875ZM242.084 63.9297C242.615 63.9297 243.063 63.7904 243.428 63.5117C243.792 63.2331 244.068 62.8464 244.256 62.3516C244.443 61.8568 244.537 61.2865 244.537 60.6406C244.537 59.9948 244.445 59.431 244.26 58.9492C244.075 58.4674 243.8 58.0911 243.436 57.8203C243.071 57.5495 242.621 57.4141 242.084 57.4141C241.532 57.4141 241.072 57.5573 240.705 57.8438C240.338 58.1302 240.063 58.5169 239.881 59.0039C239.699 59.4909 239.607 60.0365 239.607 60.6406C239.607 61.25 239.7 61.8034 239.885 62.3008C240.07 62.7982 240.347 63.194 240.717 63.4883C241.087 63.7826 241.542 63.9297 242.084 63.9297ZM248.397 65V56.2656H249.756V57.6094H249.85C250.011 57.1667 250.299 56.8112 250.713 56.543C251.127 56.2747 251.594 56.1406 252.115 56.1406C252.219 56.1406 252.343 56.1432 252.486 56.1484C252.63 56.1536 252.743 56.1589 252.826 56.1641V57.5781C252.785 57.5677 252.68 57.5521 252.514 57.5312C252.347 57.5104 252.17 57.5 251.982 57.5C251.566 57.5 251.192 57.5872 250.861 57.7617C250.531 57.9362 250.272 58.1758 250.084 58.4805C249.897 58.7852 249.803 59.1354 249.803 59.5312V65H248.397ZM257.826 65.1875C256.982 65.1875 256.255 65 255.643 64.625C255.031 64.25 254.559 63.7266 254.229 63.0547C253.898 62.3828 253.732 61.599 253.732 60.7031C253.732 59.8073 253.894 59.0182 254.217 58.3359C254.54 57.6536 254.997 57.1198 255.588 56.7344C256.179 56.349 256.871 56.1562 257.662 56.1562C258.126 56.1562 258.583 56.2331 259.033 56.3867C259.484 56.5404 259.893 56.7878 260.26 57.1289C260.627 57.4701 260.92 57.9193 261.139 58.4766C261.357 59.0339 261.467 59.7161 261.467 60.5234V61.1094H254.686V59.9219H260.709L260.053 60.3594C260.053 59.7865 259.963 59.2773 259.783 58.832C259.604 58.3867 259.337 58.0378 258.982 57.7852C258.628 57.5326 258.188 57.4062 257.662 57.4062C257.136 57.4062 256.686 57.5352 256.311 57.793C255.936 58.0508 255.649 58.3867 255.451 58.8008C255.253 59.2148 255.154 59.6589 255.154 60.1328V60.9219C255.154 61.5677 255.266 62.1159 255.49 62.5664C255.714 63.0169 256.028 63.3581 256.432 63.5898C256.835 63.8216 257.303 63.9375 257.834 63.9375C258.178 63.9375 258.49 63.888 258.772 63.7891C259.053 63.6901 259.295 63.5404 259.498 63.3398C259.701 63.1393 259.857 62.8906 259.967 62.5938L261.326 62.9688C261.191 63.4062 260.962 63.7917 260.639 64.125C260.316 64.4583 259.916 64.7188 259.44 64.9062C258.963 65.0938 258.425 65.1875 257.826 65.1875ZM266.451 65.1875C265.852 65.1875 265.32 65.1003 264.854 64.9258C264.387 64.7513 264.003 64.4922 263.701 64.1484C263.399 63.8047 263.196 63.3828 263.092 62.8828L264.428 62.5625C264.553 63.0417 264.789 63.3932 265.135 63.6172C265.481 63.8411 265.915 63.9531 266.436 63.9531C267.045 63.9531 267.531 63.8229 267.893 63.5625C268.255 63.3021 268.436 62.9922 268.436 62.6328C268.436 62.3307 268.33 62.0794 268.119 61.8789C267.908 61.6784 267.587 61.5286 267.154 61.4297L265.701 61.0859C264.91 60.8984 264.321 60.6081 263.936 60.2148C263.55 59.8216 263.358 59.3177 263.358 58.7031C263.358 58.2031 263.498 57.7617 263.779 57.3789C264.061 56.9961 264.445 56.6966 264.932 56.4805C265.419 56.2643 265.972 56.1562 266.592 56.1562C267.191 56.1562 267.7 56.2461 268.119 56.4258C268.539 56.6055 268.88 56.8529 269.143 57.168C269.406 57.4831 269.602 57.8464 269.733 58.2578L268.459 58.5859C268.339 58.2734 268.14 57.9896 267.861 57.7344C267.583 57.4792 267.162 57.3516 266.6 57.3516C266.079 57.3516 265.645 57.4714 265.299 57.7109C264.953 57.9505 264.779 58.2526 264.779 58.6172C264.779 58.9401 264.897 59.1992 265.131 59.3945C265.365 59.5898 265.738 59.7474 266.248 59.8672L267.568 60.1797C268.36 60.3672 268.946 60.6576 269.326 61.0508C269.706 61.444 269.897 61.9401 269.897 62.5391C269.897 63.0495 269.752 63.5039 269.463 63.9023C269.174 64.3008 268.77 64.6146 268.252 64.8438C267.734 65.0729 267.134 65.1875 266.451 65.1875ZM274.897 65.1875C274.298 65.1875 273.765 65.1003 273.299 64.9258C272.833 64.7513 272.449 64.4922 272.147 64.1484C271.844 63.8047 271.641 63.3828 271.537 62.8828L272.873 62.5625C272.998 63.0417 273.234 63.3932 273.58 63.6172C273.927 63.8411 274.36 63.9531 274.881 63.9531C275.49 63.9531 275.976 63.8229 276.338 63.5625C276.7 63.3021 276.881 62.9922 276.881 62.6328C276.881 62.3307 276.775 62.0794 276.565 61.8789C276.354 61.6784 276.032 61.5286 275.6 61.4297L274.147 61.0859C273.355 60.8984 272.766 60.6081 272.381 60.2148C271.996 59.8216 271.803 59.3177 271.803 58.7031C271.803 58.2031 271.943 57.7617 272.225 57.3789C272.506 56.9961 272.89 56.6966 273.377 56.4805C273.864 56.2643 274.417 56.1562 275.037 56.1562C275.636 56.1562 276.145 56.2461 276.565 56.4258C276.984 56.6055 277.325 56.8529 277.588 57.168C277.851 57.4831 278.048 57.8464 278.178 58.2578L276.904 58.5859C276.785 58.2734 276.585 57.9896 276.307 57.7344C276.028 57.4792 275.608 57.3516 275.045 57.3516C274.524 57.3516 274.091 57.4714 273.744 57.7109C273.398 57.9505 273.225 58.2526 273.225 58.6172C273.225 58.9401 273.342 59.1992 273.576 59.3945C273.811 59.5898 274.183 59.7474 274.693 59.8672L276.014 60.1797C276.805 60.3672 277.391 60.6576 277.772 61.0508C278.152 61.444 278.342 61.9401 278.342 62.5391C278.342 63.0495 278.197 63.5039 277.908 63.9023C277.619 64.3008 277.216 64.6146 276.697 64.8438C276.179 65.0729 275.579 65.1875 274.897 65.1875ZM287.318 65.2031C286.766 65.2031 286.265 65.099 285.815 64.8906C285.364 64.6823 285.006 64.3776 284.74 63.9766C284.475 63.5755 284.342 63.0885 284.342 62.5156C284.342 62.0156 284.441 61.6094 284.639 61.2969C284.837 60.9844 285.101 60.7383 285.432 60.5586C285.762 60.3789 286.128 60.2448 286.529 60.1562C286.93 60.0677 287.334 59.9974 287.74 59.9453C288.261 59.8776 288.686 59.8255 289.014 59.7891C289.342 59.7526 289.585 59.6901 289.744 59.6016C289.903 59.513 289.983 59.362 289.983 59.1484V59.1016C289.983 58.737 289.915 58.4284 289.779 58.1758C289.644 57.9232 289.441 57.7292 289.17 57.5938C288.899 57.4583 288.561 57.3906 288.154 57.3906C287.738 57.3906 287.381 57.4557 287.084 57.5859C286.787 57.7161 286.546 57.8789 286.361 58.0742C286.177 58.2695 286.037 58.4688 285.943 58.6719L284.592 58.2266C284.816 57.6953 285.118 57.2799 285.498 56.9805C285.878 56.681 286.298 56.4688 286.756 56.3438C287.214 56.2188 287.667 56.1562 288.115 56.1562C288.407 56.1562 288.739 56.1914 289.111 56.2617C289.484 56.332 289.843 56.4714 290.19 56.6797C290.536 56.888 290.822 57.1966 291.049 57.6055C291.275 58.0143 291.389 58.5599 291.389 59.2422V65H290.006V63.8125H289.912C289.813 64.0156 289.654 64.2253 289.436 64.4414C289.217 64.6576 288.933 64.8385 288.584 64.9844C288.235 65.1302 287.813 65.2031 287.318 65.2031ZM287.561 63.9609C288.081 63.9609 288.522 63.8594 288.881 63.6562C289.24 63.4531 289.514 63.1888 289.701 62.8633C289.889 62.5378 289.983 62.1979 289.983 61.8438V60.6328C289.925 60.7005 289.8 60.7617 289.608 60.8164C289.415 60.8711 289.195 60.9193 288.947 60.9609C288.7 61.0026 288.46 61.0378 288.229 61.0664C287.997 61.0951 287.813 61.1172 287.678 61.1328C287.339 61.1745 287.023 61.2461 286.729 61.3477C286.434 61.4492 286.199 61.5977 286.022 61.793C285.844 61.9883 285.756 62.2526 285.756 62.5859C285.756 62.888 285.834 63.1406 285.99 63.3438C286.147 63.5469 286.36 63.7005 286.631 63.8047C286.902 63.9089 287.212 63.9609 287.561 63.9609ZM295.264 59.7656V65H293.858V56.2656H295.209L295.217 58.3828H295.022C295.287 57.5755 295.666 57.0026 296.158 56.6641C296.65 56.3255 297.227 56.1562 297.889 56.1562C298.477 56.1562 298.993 56.2773 299.436 56.5195C299.878 56.7617 300.223 57.1263 300.471 57.6133C300.718 58.1003 300.842 58.7135 300.842 59.4531V65H299.436V59.5703C299.436 58.8984 299.26 58.3724 298.908 57.9922C298.557 57.612 298.076 57.4219 297.467 57.4219C297.05 57.4219 296.675 57.513 296.342 57.6953C296.009 57.8776 295.746 58.1432 295.553 58.4922C295.36 58.8411 295.264 59.2656 295.264 59.7656ZM306.584 65.1875C305.86 65.1875 305.219 65.0026 304.662 64.6328C304.105 64.263 303.67 63.7396 303.358 63.0625C303.045 62.3854 302.889 61.5833 302.889 60.6562C302.889 59.7344 303.046 58.9362 303.361 58.2617C303.677 57.5872 304.113 57.0677 304.67 56.7031C305.227 56.3385 305.868 56.1562 306.592 56.1562C307.16 56.1562 307.61 56.25 307.943 56.4375C308.277 56.625 308.533 56.8372 308.713 57.0742C308.893 57.3112 309.029 57.5078 309.123 57.6641H309.233V53.3594H310.639V65H309.279V63.6484H309.123C309.029 63.8099 308.89 64.0117 308.705 64.2539C308.52 64.4961 308.26 64.7122 307.924 64.9023C307.588 65.0924 307.141 65.1875 306.584 65.1875ZM306.795 63.9297C307.326 63.9297 307.774 63.7904 308.139 63.5117C308.503 63.2331 308.779 62.8464 308.967 62.3516C309.154 61.8568 309.248 61.2865 309.248 60.6406C309.248 59.9948 309.156 59.431 308.971 58.9492C308.786 58.4674 308.511 58.0911 308.147 57.8203C307.782 57.5495 307.331 57.4141 306.795 57.4141C306.243 57.4141 305.783 57.5573 305.416 57.8438C305.049 58.1302 304.774 58.5169 304.592 59.0039C304.41 59.4909 304.318 60.0365 304.318 60.6406C304.318 61.25 304.411 61.8034 304.596 62.3008C304.781 62.7982 305.058 63.194 305.428 63.4883C305.798 63.7826 306.253 63.9297 306.795 63.9297ZM319.568 65L316.92 56.2656H318.412L319.475 60.0781C319.621 60.599 319.777 61.1888 319.943 61.8477C320.11 62.5065 320.274 63.2526 320.436 64.0859H320.193C320.35 63.2891 320.509 62.5599 320.67 61.8984C320.831 61.237 320.988 60.6302 321.139 60.0781L322.186 56.2656H323.686L324.717 60.0781C324.863 60.6146 325.015 61.2122 325.174 61.8711C325.333 62.5299 325.49 63.2682 325.647 64.0859H325.397C325.563 63.2786 325.729 62.5456 325.893 61.8867C326.057 61.2279 326.214 60.625 326.365 60.0781L327.428 56.2656H328.92L326.272 65H324.873L323.74 61.0469C323.626 60.6458 323.514 60.237 323.404 59.8203C323.295 59.4036 323.188 58.9766 323.084 58.5391C322.98 58.1016 322.873 57.6562 322.764 57.2031H323.076C322.972 57.651 322.867 58.0951 322.76 58.5352C322.653 58.9753 322.545 59.4062 322.436 59.8281C322.326 60.25 322.214 60.6562 322.1 61.0469L320.967 65H319.568ZM334.084 65.1875C333.24 65.1875 332.512 65 331.9 64.625C331.289 64.25 330.817 63.7266 330.486 63.0547C330.156 62.3828 329.99 61.599 329.99 60.7031C329.99 59.8073 330.152 59.0182 330.475 58.3359C330.798 57.6536 331.255 57.1198 331.846 56.7344C332.437 56.349 333.128 56.1562 333.92 56.1562C334.384 56.1562 334.841 56.2331 335.291 56.3867C335.742 56.5404 336.15 56.7878 336.518 57.1289C336.885 57.4701 337.178 57.9193 337.397 58.4766C337.615 59.0339 337.725 59.7161 337.725 60.5234V61.1094H330.943V59.9219H336.967L336.311 60.3594C336.311 59.7865 336.221 59.2773 336.041 58.832C335.861 58.3867 335.594 58.0378 335.24 57.7852C334.886 57.5326 334.446 57.4062 333.92 57.4062C333.394 57.4062 332.943 57.5352 332.568 57.793C332.193 58.0508 331.907 58.3867 331.709 58.8008C331.511 59.2148 331.412 59.6589 331.412 60.1328V60.9219C331.412 61.5677 331.524 62.1159 331.748 62.5664C331.972 63.0169 332.286 63.3581 332.69 63.5898C333.093 63.8216 333.561 63.9375 334.092 63.9375C334.436 63.9375 334.748 63.888 335.029 63.7891C335.311 63.6901 335.553 63.5404 335.756 63.3398C335.959 63.1393 336.115 62.8906 336.225 62.5938L337.584 62.9688C337.449 63.4062 337.219 63.7917 336.897 64.125C336.574 64.4583 336.174 64.7188 335.697 64.9062C335.221 65.0938 334.683 65.1875 334.084 65.1875ZM340.084 57.7891L339.912 53.3594H341.428L341.256 57.7891H340.084ZM345.709 53.3594V65H344.303V53.3594H345.709ZM349.584 53.3594V65H348.178V53.3594H349.584ZM359.522 65.1875C358.923 65.1875 358.39 65.1003 357.924 64.9258C357.458 64.7513 357.074 64.4922 356.772 64.1484C356.469 63.8047 356.266 63.3828 356.162 62.8828L357.498 62.5625C357.623 63.0417 357.859 63.3932 358.205 63.6172C358.552 63.8411 358.985 63.9531 359.506 63.9531C360.115 63.9531 360.601 63.8229 360.963 63.5625C361.325 63.3021 361.506 62.9922 361.506 62.6328C361.506 62.3307 361.4 62.0794 361.19 61.8789C360.979 61.6784 360.657 61.5286 360.225 61.4297L358.772 61.0859C357.98 60.8984 357.391 60.6081 357.006 60.2148C356.621 59.8216 356.428 59.3177 356.428 58.7031C356.428 58.2031 356.568 57.7617 356.85 57.3789C357.131 56.9961 357.515 56.6966 358.002 56.4805C358.489 56.2643 359.042 56.1562 359.662 56.1562C360.261 56.1562 360.77 56.2461 361.19 56.4258C361.609 56.6055 361.95 56.8529 362.213 57.168C362.476 57.4831 362.673 57.8464 362.803 58.2578L361.529 58.5859C361.41 58.2734 361.21 57.9896 360.932 57.7344C360.653 57.4792 360.233 57.3516 359.67 57.3516C359.149 57.3516 358.716 57.4714 358.369 57.7109C358.023 57.9505 357.85 58.2526 357.85 58.6172C357.85 58.9401 357.967 59.1992 358.201 59.3945C358.436 59.5898 358.808 59.7474 359.318 59.8672L360.639 60.1797C361.43 60.3672 362.016 60.6576 362.397 61.0508C362.777 61.444 362.967 61.9401 362.967 62.5391C362.967 63.0495 362.822 63.5039 362.533 63.9023C362.244 64.3008 361.841 64.6146 361.322 64.8438C360.804 65.0729 360.204 65.1875 359.522 65.1875ZM368.67 65.1875C367.826 65.1875 367.098 65 366.486 64.625C365.874 64.25 365.403 63.7266 365.072 63.0547C364.742 62.3828 364.576 61.599 364.576 60.7031C364.576 59.8073 364.738 59.0182 365.061 58.3359C365.384 57.6536 365.841 57.1198 366.432 56.7344C367.023 56.349 367.714 56.1562 368.506 56.1562C368.969 56.1562 369.427 56.2331 369.877 56.3867C370.328 56.5404 370.736 56.7878 371.104 57.1289C371.471 57.4701 371.764 57.9193 371.983 58.4766C372.201 59.0339 372.311 59.7161 372.311 60.5234V61.1094H365.529V59.9219H371.553L370.897 60.3594C370.897 59.7865 370.807 59.2773 370.627 58.832C370.447 58.3867 370.18 58.0378 369.826 57.7852C369.472 57.5326 369.032 57.4062 368.506 57.4062C367.98 57.4062 367.529 57.5352 367.154 57.793C366.779 58.0508 366.493 58.3867 366.295 58.8008C366.097 59.2148 365.998 59.6589 365.998 60.1328V60.9219C365.998 61.5677 366.11 62.1159 366.334 62.5664C366.558 63.0169 366.872 63.3581 367.275 63.5898C367.679 63.8216 368.147 63.9375 368.678 63.9375C369.022 63.9375 369.334 63.888 369.615 63.7891C369.897 63.6901 370.139 63.5404 370.342 63.3398C370.545 63.1393 370.701 62.8906 370.811 62.5938L372.17 62.9688C372.035 63.4062 371.805 63.7917 371.483 64.125C371.16 64.4583 370.76 64.7188 370.283 64.9062C369.807 65.0938 369.269 65.1875 368.67 65.1875ZM375.733 59.7656V65H374.326V56.2656H375.678L375.686 58.3828H375.49C375.756 57.5755 376.135 57.0026 376.627 56.6641C377.119 56.3255 377.696 56.1562 378.358 56.1562C378.946 56.1562 379.462 56.2773 379.904 56.5195C380.347 56.7617 380.692 57.1263 380.94 57.6133C381.187 58.1003 381.311 58.7135 381.311 59.4531V65H379.904V59.5703C379.904 58.8984 379.729 58.3724 379.377 57.9922C379.025 57.612 378.545 57.4219 377.936 57.4219C377.519 57.4219 377.144 57.513 376.811 57.6953C376.477 57.8776 376.214 58.1432 376.022 58.4922C375.829 58.8411 375.733 59.2656 375.733 59.7656ZM387.053 65.1875C386.329 65.1875 385.688 65.0026 385.131 64.6328C384.574 64.263 384.139 63.7396 383.826 63.0625C383.514 62.3854 383.358 61.5833 383.358 60.6562C383.358 59.7344 383.515 58.9362 383.83 58.2617C384.145 57.5872 384.581 57.0677 385.139 56.7031C385.696 56.3385 386.337 56.1562 387.061 56.1562C387.628 56.1562 388.079 56.25 388.412 56.4375C388.746 56.625 389.002 56.8372 389.182 57.0742C389.361 57.3112 389.498 57.5078 389.592 57.6641H389.701V53.3594H391.108V65H389.748V63.6484H389.592C389.498 63.8099 389.359 64.0117 389.174 64.2539C388.989 64.4961 388.729 64.7122 388.393 64.9023C388.057 65.0924 387.61 65.1875 387.053 65.1875ZM387.264 63.9297C387.795 63.9297 388.243 63.7904 388.608 63.5117C388.972 63.2331 389.248 62.8464 389.436 62.3516C389.623 61.8568 389.717 61.2865 389.717 60.6406C389.717 59.9948 389.624 59.431 389.44 58.9492C389.255 58.4674 388.98 58.0911 388.615 57.8203C388.251 57.5495 387.8 57.4141 387.264 57.4141C386.712 57.4141 386.252 57.5573 385.885 57.8438C385.518 58.1302 385.243 58.5169 385.061 59.0039C384.878 59.4909 384.787 60.0365 384.787 60.6406C384.787 61.25 384.88 61.8034 385.065 62.3008C385.249 62.7982 385.527 63.194 385.897 63.4883C386.266 63.7826 386.722 63.9297 387.264 63.9297ZM69.9552 94.1641L70.3145 92.9453L70.463 92.9844C70.7494 93.0573 71.0098 93.0768 71.2442 93.043C71.4786 93.0091 71.6895 92.8932 71.877 92.6953C72.0645 92.4974 72.2286 92.1901 72.3692 91.7734L72.6192 91.0469L69.2833 82.2656H70.8223L72.6817 87.4453C72.8796 87.987 73.0463 88.5234 73.1817 89.0547C73.3171 89.5859 73.4604 90.1016 73.6114 90.6016H73.0958C73.2468 90.1016 73.3914 89.5846 73.5294 89.0508C73.6674 88.5169 73.8328 87.9818 74.0255 87.4453L75.9005 82.2656H77.4317L73.5958 92.3047C73.4187 92.7682 73.2065 93.1497 72.9591 93.4492C72.7117 93.7487 72.4239 93.9701 72.0958 94.1133C71.7677 94.2565 71.3979 94.3281 70.9864 94.3281C70.7364 94.3281 70.5203 94.3099 70.338 94.2734C70.1557 94.237 70.0281 94.2005 69.9552 94.1641ZM82.3302 91.1875C81.5385 91.1875 80.8445 91 80.2481 90.625C79.6518 90.25 79.1869 89.724 78.8536 89.0469C78.5203 88.3698 78.3536 87.5833 78.3536 86.6875C78.3536 85.776 78.5203 84.9805 78.8536 84.3008C79.1869 83.6211 79.6518 83.0938 80.2481 82.7188C80.8445 82.3438 81.5385 82.1562 82.3302 82.1562C83.127 82.1562 83.8249 82.3438 84.4239 82.7188C85.0229 83.0938 85.489 83.6211 85.8223 84.3008C86.1557 84.9805 86.3223 85.776 86.3223 86.6875C86.3223 87.5833 86.1557 88.3698 85.8223 89.0469C85.489 89.724 85.0229 90.25 84.4239 90.625C83.8249 91 83.127 91.1875 82.3302 91.1875ZM82.3302 89.9297C82.9187 89.9297 83.4031 89.7786 83.7833 89.4766C84.1635 89.1745 84.4447 88.7773 84.627 88.2852C84.8093 87.793 84.9005 87.2604 84.9005 86.6875C84.9005 86.1094 84.8093 85.5716 84.627 85.0742C84.4447 84.5768 84.1635 84.1758 83.7833 83.8711C83.4031 83.5664 82.9187 83.4141 82.3302 83.4141C81.7468 83.4141 81.2677 83.5664 80.8927 83.8711C80.5177 84.1758 80.239 84.5755 80.0567 85.0703C79.8744 85.5651 79.7833 86.1042 79.7833 86.6875C79.7833 87.2604 79.8744 87.793 80.0567 88.2852C80.239 88.7773 80.5177 89.1745 80.8927 89.4766C81.2677 89.7786 81.7468 89.9297 82.3302 89.9297ZM91.3302 91.1094C90.7416 91.1094 90.2247 90.9883 89.7794 90.7461C89.3341 90.5039 88.9877 90.138 88.7403 89.6484C88.4929 89.1589 88.3692 88.5469 88.3692 87.8125V82.2656H89.7755V87.6953C89.7755 88.3672 89.9526 88.8932 90.3067 89.2734C90.6609 89.6536 91.1427 89.8438 91.752 89.8438C92.1687 89.8438 92.5424 89.7526 92.8731 89.5703C93.2039 89.388 93.4656 89.1211 93.6583 88.7695C93.851 88.418 93.9473 87.9948 93.9473 87.5V82.2656H95.3614V91H94.002V88.8828H94.1895C93.9187 89.7005 93.5346 90.276 93.0372 90.6094C92.5398 90.9427 91.9708 91.1094 91.3302 91.1094ZM104.775 91.2031C104.223 91.2031 103.722 91.099 103.272 90.8906C102.821 90.6823 102.463 90.3776 102.197 89.9766C101.932 89.5755 101.799 89.0885 101.799 88.5156C101.799 88.0156 101.898 87.6094 102.096 87.2969C102.294 86.9844 102.558 86.7383 102.889 86.5586C103.219 86.3789 103.585 86.2448 103.986 86.1562C104.387 86.0677 104.791 85.9974 105.197 85.9453C105.718 85.8776 106.143 85.8255 106.471 85.7891C106.799 85.7526 107.042 85.6901 107.201 85.6016C107.36 85.513 107.44 85.362 107.44 85.1484V85.1016C107.44 84.737 107.372 84.4284 107.236 84.1758C107.101 83.9232 106.898 83.7292 106.627 83.5938C106.356 83.4583 106.018 83.3906 105.611 83.3906C105.195 83.3906 104.838 83.4557 104.541 83.5859C104.244 83.7161 104.003 83.8789 103.818 84.0742C103.634 84.2695 103.494 84.4688 103.4 84.6719L102.049 84.2266C102.273 83.6953 102.575 83.2799 102.955 82.9805C103.335 82.681 103.755 82.4688 104.213 82.3438C104.671 82.2188 105.124 82.1562 105.572 82.1562C105.864 82.1562 106.196 82.1914 106.568 82.2617C106.941 82.332 107.3 82.4714 107.647 82.6797C107.993 82.888 108.279 83.1966 108.506 83.6055C108.732 84.0143 108.846 84.5599 108.846 85.2422V91H107.463V89.8125H107.369C107.27 90.0156 107.111 90.2253 106.893 90.4414C106.674 90.6576 106.39 90.8385 106.041 90.9844C105.692 91.1302 105.27 91.2031 104.775 91.2031ZM105.018 89.9609C105.538 89.9609 105.979 89.8594 106.338 89.6562C106.697 89.4531 106.971 89.1888 107.158 88.8633C107.346 88.5378 107.44 88.1979 107.44 87.8438V86.6328C107.382 86.7005 107.257 86.7617 107.065 86.8164C106.872 86.8711 106.652 86.9193 106.404 86.9609C106.157 87.0026 105.917 87.0378 105.686 87.0664C105.454 87.0951 105.27 87.1172 105.135 87.1328C104.796 87.1745 104.48 87.2461 104.186 87.3477C103.891 87.4492 103.656 87.5977 103.479 87.793C103.302 87.9883 103.213 88.2526 103.213 88.5859C103.213 88.888 103.291 89.1406 103.447 89.3438C103.604 89.5469 103.817 89.7005 104.088 89.8047C104.359 89.9089 104.669 89.9609 105.018 89.9609ZM117.221 79.3594V91H115.815V79.3594H117.221ZM119.69 91V82.2656H121.096V91H119.69ZM120.4 80.8359C120.135 80.8359 119.906 80.7448 119.713 80.5625C119.52 80.3802 119.424 80.1615 119.424 79.9062C119.424 79.6458 119.52 79.4258 119.713 79.2461C119.906 79.0664 120.135 78.9766 120.4 78.9766C120.671 78.9766 120.903 79.0664 121.096 79.2461C121.288 79.4258 121.385 79.6458 121.385 79.9062C121.385 80.1615 121.288 80.3802 121.096 80.5625C120.903 80.7448 120.671 80.8359 120.4 80.8359ZM124.971 85.7656V91H123.565V82.2656H124.916L124.924 84.3828H124.729C124.994 83.5755 125.373 83.0026 125.865 82.6641C126.357 82.3255 126.934 82.1562 127.596 82.1562C128.184 82.1562 128.7 82.2773 129.143 82.5195C129.585 82.7617 129.93 83.1263 130.178 83.6133C130.425 84.1003 130.549 84.7135 130.549 85.4531V91H129.143V85.5703C129.143 84.8984 128.967 84.3724 128.615 83.9922C128.264 83.612 127.783 83.4219 127.174 83.4219C126.757 83.4219 126.382 83.513 126.049 83.6953C125.716 83.8776 125.453 84.1432 125.26 84.4922C125.067 84.8411 124.971 85.2656 124.971 85.7656ZM134.338 87.8594V86.1172H134.596L138.33 82.2656H140.072L136.033 86.4141H135.877L134.338 87.8594ZM133.018 91V79.3594H134.424V91H133.018ZM138.541 91L135.197 86.7266L136.197 85.7344L140.346 91H138.541ZM149.736 82.2656V83.4688H145.221V82.2656H149.736ZM146.533 80.1875H147.94V88.7344C147.94 89.125 148.019 89.4102 148.178 89.5898C148.337 89.7695 148.601 89.8594 148.971 89.8594C149.059 89.8594 149.173 89.849 149.311 89.8281C149.449 89.8073 149.575 89.7865 149.69 89.7656L149.979 90.9531C149.833 91.0052 149.667 91.0443 149.482 91.0703C149.298 91.0964 149.114 91.1094 148.932 91.1094C148.177 91.1094 147.588 90.9102 147.166 90.5117C146.744 90.1133 146.533 89.5573 146.533 88.8438V80.1875ZM154.932 91.1875C154.14 91.1875 153.446 91 152.85 90.625C152.253 90.25 151.788 89.724 151.455 89.0469C151.122 88.3698 150.955 87.5833 150.955 86.6875C150.955 85.776 151.122 84.9805 151.455 84.3008C151.788 83.6211 152.253 83.0938 152.85 82.7188C153.446 82.3438 154.14 82.1562 154.932 82.1562C155.729 82.1562 156.427 82.3438 157.025 82.7188C157.624 83.0938 158.091 83.6211 158.424 84.3008C158.757 84.9805 158.924 85.776 158.924 86.6875C158.924 87.5833 158.757 88.3698 158.424 89.0469C158.091 89.724 157.624 90.25 157.025 90.625C156.427 91 155.729 91.1875 154.932 91.1875ZM154.932 89.9297C155.52 89.9297 156.005 89.7786 156.385 89.4766C156.765 89.1745 157.046 88.7773 157.229 88.2852C157.411 87.793 157.502 87.2604 157.502 86.6875C157.502 86.1094 157.411 85.5716 157.229 85.0742C157.046 84.5768 156.765 84.1758 156.385 83.8711C156.005 83.5664 155.52 83.4141 154.932 83.4141C154.348 83.4141 153.869 83.5664 153.494 83.8711C153.119 84.1758 152.841 84.5755 152.658 85.0703C152.476 85.5651 152.385 86.1042 152.385 86.6875C152.385 87.2604 152.476 87.793 152.658 88.2852C152.841 88.7773 153.119 89.1745 153.494 89.4766C153.869 89.7786 154.348 89.9297 154.932 89.9297ZM165.471 91V82.2656H166.83V83.6094H166.924C167.085 83.1667 167.373 82.8112 167.787 82.543C168.201 82.2747 168.669 82.1406 169.19 82.1406C169.294 82.1406 169.417 82.1432 169.561 82.1484C169.704 82.1536 169.817 82.1589 169.9 82.1641V83.5781C169.859 83.5677 169.755 83.5521 169.588 83.5312C169.421 83.5104 169.244 83.5 169.057 83.5C168.64 83.5 168.266 83.5872 167.936 83.7617C167.605 83.9362 167.346 84.1758 167.158 84.4805C166.971 84.7852 166.877 85.1354 166.877 85.5312V91H165.471ZM174.9 91.1875C174.057 91.1875 173.329 91 172.717 90.625C172.105 90.25 171.634 89.7266 171.303 89.0547C170.972 88.3828 170.807 87.599 170.807 86.7031C170.807 85.8073 170.968 85.0182 171.291 84.3359C171.614 83.6536 172.071 83.1198 172.662 82.7344C173.253 82.349 173.945 82.1562 174.736 82.1562C175.2 82.1562 175.657 82.2331 176.107 82.3867C176.558 82.5404 176.967 82.7878 177.334 83.1289C177.701 83.4701 177.994 83.9193 178.213 84.4766C178.432 85.0339 178.541 85.7161 178.541 86.5234V87.1094H171.76V85.9219H177.783L177.127 86.3594C177.127 85.7865 177.037 85.2773 176.857 84.832C176.678 84.3867 176.411 84.0378 176.057 83.7852C175.703 83.5326 175.262 83.4062 174.736 83.4062C174.21 83.4062 173.76 83.5352 173.385 83.793C173.01 84.0508 172.723 84.3867 172.525 84.8008C172.328 85.2148 172.229 85.6589 172.229 86.1328V86.9219C172.229 87.5677 172.341 88.1159 172.565 88.5664C172.788 89.0169 173.102 89.3581 173.506 89.5898C173.91 89.8216 174.377 89.9375 174.908 89.9375C175.252 89.9375 175.565 89.888 175.846 89.7891C176.127 89.6901 176.369 89.5404 176.572 89.3398C176.775 89.1393 176.932 88.8906 177.041 88.5938L178.4 88.9688C178.265 89.4062 178.036 89.7917 177.713 90.125C177.39 90.4583 176.99 90.7188 176.514 90.9062C176.037 91.0938 175.499 91.1875 174.9 91.1875ZM183.525 91.1875C182.927 91.1875 182.394 91.1003 181.928 90.9258C181.462 90.7513 181.078 90.4922 180.775 90.1484C180.473 89.8047 180.27 89.3828 180.166 88.8828L181.502 88.5625C181.627 89.0417 181.863 89.3932 182.209 89.6172C182.555 89.8411 182.989 89.9531 183.51 89.9531C184.119 89.9531 184.605 89.8229 184.967 89.5625C185.329 89.3021 185.51 88.9922 185.51 88.6328C185.51 88.3307 185.404 88.0794 185.193 87.8789C184.982 87.6784 184.661 87.5286 184.229 87.4297L182.775 87.0859C181.984 86.8984 181.395 86.6081 181.01 86.2148C180.624 85.8216 180.432 85.3177 180.432 84.7031C180.432 84.2031 180.572 83.7617 180.854 83.3789C181.135 82.9961 181.519 82.6966 182.006 82.4805C182.493 82.2643 183.046 82.1562 183.666 82.1562C184.265 82.1562 184.774 82.2461 185.193 82.4258C185.613 82.6055 185.954 82.8529 186.217 83.168C186.48 83.4831 186.677 83.8464 186.807 84.2578L185.533 84.5859C185.413 84.2734 185.214 83.9896 184.936 83.7344C184.657 83.4792 184.236 83.3516 183.674 83.3516C183.153 83.3516 182.719 83.4714 182.373 83.7109C182.027 83.9505 181.854 84.2526 181.854 84.6172C181.854 84.9401 181.971 85.1992 182.205 85.3945C182.44 85.5898 182.812 85.7474 183.322 85.8672L184.643 86.1797C185.434 86.3672 186.02 86.6576 186.4 87.0508C186.781 87.444 186.971 87.9401 186.971 88.5391C186.971 89.0495 186.826 89.5039 186.537 89.9023C186.248 90.3008 185.844 90.6146 185.326 90.8438C184.808 91.0729 184.208 91.1875 183.525 91.1875ZM192.674 91.1875C191.83 91.1875 191.102 91 190.49 90.625C189.878 90.25 189.407 89.7266 189.076 89.0547C188.746 88.3828 188.58 87.599 188.58 86.7031C188.58 85.8073 188.742 85.0182 189.065 84.3359C189.387 83.6536 189.844 83.1198 190.436 82.7344C191.027 82.349 191.718 82.1562 192.51 82.1562C192.973 82.1562 193.43 82.2331 193.881 82.3867C194.331 82.5404 194.74 82.7878 195.107 83.1289C195.475 83.4701 195.768 83.9193 195.986 84.4766C196.205 85.0339 196.315 85.7161 196.315 86.5234V87.1094H189.533V85.9219H195.557L194.9 86.3594C194.9 85.7865 194.811 85.2773 194.631 84.832C194.451 84.3867 194.184 84.0378 193.83 83.7852C193.476 83.5326 193.036 83.4062 192.51 83.4062C191.984 83.4062 191.533 83.5352 191.158 83.793C190.783 84.0508 190.497 84.3867 190.299 84.8008C190.101 85.2148 190.002 85.6589 190.002 86.1328V86.9219C190.002 87.5677 190.114 88.1159 190.338 88.5664C190.562 89.0169 190.876 89.3581 191.279 89.5898C191.683 89.8216 192.15 89.9375 192.682 89.9375C193.025 89.9375 193.338 89.888 193.619 89.7891C193.9 89.6901 194.143 89.5404 194.346 89.3398C194.549 89.1393 194.705 88.8906 194.815 88.5938L196.174 88.9688C196.038 89.4062 195.809 89.7917 195.486 90.125C195.163 90.4583 194.764 90.7188 194.287 90.9062C193.811 91.0938 193.273 91.1875 192.674 91.1875ZM201.768 82.2656V83.4688H197.252V82.2656H201.768ZM198.565 80.1875H199.971V88.7344C199.971 89.125 200.05 89.4102 200.209 89.5898C200.368 89.7695 200.632 89.8594 201.002 89.8594C201.091 89.8594 201.204 89.849 201.342 89.8281C201.48 89.8073 201.606 89.7865 201.721 89.7656L202.01 90.9531C201.864 91.0052 201.699 91.0443 201.514 91.0703C201.329 91.0964 201.145 91.1094 200.963 91.1094C200.208 91.1094 199.619 90.9102 199.197 90.5117C198.775 90.1133 198.565 89.5573 198.565 88.8438V80.1875ZM207.924 94.1641L208.283 92.9453L208.432 92.9844C208.718 93.0573 208.979 93.0768 209.213 93.043C209.447 93.0091 209.658 92.8932 209.846 92.6953C210.033 92.4974 210.197 92.1901 210.338 91.7734L210.588 91.0469L207.252 82.2656H208.791L210.65 87.4453C210.848 87.987 211.015 88.5234 211.15 89.0547C211.286 89.5859 211.429 90.1016 211.58 90.6016H211.065C211.216 90.1016 211.36 89.5846 211.498 89.0508C211.636 88.5169 211.802 87.9818 211.994 87.4453L213.869 82.2656H215.4L211.565 92.3047C211.387 92.7682 211.175 93.1497 210.928 93.4492C210.68 93.7487 210.393 93.9701 210.065 94.1133C209.736 94.2565 209.367 94.3281 208.955 94.3281C208.705 94.3281 208.489 94.3099 208.307 94.2734C208.124 94.237 207.997 94.2005 207.924 94.1641ZM220.299 91.1875C219.507 91.1875 218.813 91 218.217 90.625C217.621 90.25 217.156 89.724 216.822 89.0469C216.489 88.3698 216.322 87.5833 216.322 86.6875C216.322 85.776 216.489 84.9805 216.822 84.3008C217.156 83.6211 217.621 83.0938 218.217 82.7188C218.813 82.3438 219.507 82.1562 220.299 82.1562C221.096 82.1562 221.794 82.3438 222.393 82.7188C222.992 83.0938 223.458 83.6211 223.791 84.3008C224.124 84.9805 224.291 85.776 224.291 86.6875C224.291 87.5833 224.124 88.3698 223.791 89.0469C223.458 89.724 222.992 90.25 222.393 90.625C221.794 91 221.096 91.1875 220.299 91.1875ZM220.299 89.9297C220.887 89.9297 221.372 89.7786 221.752 89.4766C222.132 89.1745 222.413 88.7773 222.596 88.2852C222.778 87.793 222.869 87.2604 222.869 86.6875C222.869 86.1094 222.778 85.5716 222.596 85.0742C222.413 84.5768 222.132 84.1758 221.752 83.8711C221.372 83.5664 220.887 83.4141 220.299 83.4141C219.716 83.4141 219.236 83.5664 218.861 83.8711C218.486 84.1758 218.208 84.5755 218.025 85.0703C217.843 85.5651 217.752 86.1042 217.752 86.6875C217.752 87.2604 217.843 87.793 218.025 88.2852C218.208 88.7773 218.486 89.1745 218.861 89.4766C219.236 89.7786 219.716 89.9297 220.299 89.9297ZM229.299 91.1094C228.71 91.1094 228.193 90.9883 227.748 90.7461C227.303 90.5039 226.956 90.138 226.709 89.6484C226.462 89.1589 226.338 88.5469 226.338 87.8125V82.2656H227.744V87.6953C227.744 88.3672 227.921 88.8932 228.275 89.2734C228.63 89.6536 229.111 89.8438 229.721 89.8438C230.137 89.8438 230.511 89.7526 230.842 89.5703C231.173 89.388 231.434 89.1211 231.627 88.7695C231.82 88.418 231.916 87.9948 231.916 87.5V82.2656H233.33V91H231.971V88.8828H232.158C231.887 89.7005 231.503 90.276 231.006 90.6094C230.509 90.9427 229.94 91.1094 229.299 91.1094ZM235.799 91V82.2656H237.158V83.6094H237.252C237.413 83.1667 237.701 82.8112 238.115 82.543C238.529 82.2747 238.997 82.1406 239.518 82.1406C239.622 82.1406 239.746 82.1432 239.889 82.1484C240.032 82.1536 240.145 82.1589 240.229 82.1641V83.5781C240.187 83.5677 240.083 83.5521 239.916 83.5312C239.749 83.5104 239.572 83.5 239.385 83.5C238.968 83.5 238.594 83.5872 238.264 83.7617C237.933 83.9362 237.674 84.1758 237.486 84.4805C237.299 84.7852 237.205 85.1354 237.205 85.5312V91H235.799ZM246.322 94.2656V82.2656H247.682V83.6641H247.838C247.937 83.5078 248.075 83.3112 248.252 83.0742C248.429 82.8372 248.684 82.625 249.018 82.4375C249.351 82.25 249.802 82.1562 250.369 82.1562C251.098 82.1562 251.74 82.3385 252.295 82.7031C252.85 83.0677 253.285 83.5872 253.6 84.2617C253.915 84.9362 254.072 85.7344 254.072 86.6562C254.072 87.5833 253.916 88.3854 253.604 89.0625C253.291 89.7396 252.857 90.263 252.303 90.6328C251.748 91.0026 251.106 91.1875 250.377 91.1875C249.825 91.1875 249.38 91.0924 249.041 90.9023C248.703 90.7122 248.442 90.4961 248.26 90.2539C248.078 90.0117 247.937 89.8099 247.838 89.6484H247.729V94.2656H246.322ZM250.166 89.9297C250.713 89.9297 251.17 89.7826 251.537 89.4883C251.904 89.194 252.18 88.7982 252.365 88.3008C252.55 87.8034 252.643 87.25 252.643 86.6406C252.643 86.0365 252.552 85.4909 252.369 85.0039C252.187 84.5169 251.912 84.1302 251.545 83.8438C251.178 83.5573 250.718 83.4141 250.166 83.4141C249.63 83.4141 249.179 83.5495 248.815 83.8203C248.45 84.0911 248.175 84.4674 247.99 84.9492C247.805 85.431 247.713 85.9948 247.713 86.6406C247.713 87.2865 247.807 87.8568 247.994 88.3516C248.182 88.8464 248.459 89.2331 248.826 89.5117C249.193 89.7904 249.64 89.9297 250.166 89.9297ZM258.721 91.2031C258.169 91.2031 257.667 91.099 257.217 90.8906C256.766 90.6823 256.408 90.3776 256.143 89.9766C255.877 89.5755 255.744 89.0885 255.744 88.5156C255.744 88.0156 255.843 87.6094 256.041 87.2969C256.239 86.9844 256.503 86.7383 256.834 86.5586C257.165 86.3789 257.531 86.2448 257.932 86.1562C258.333 86.0677 258.736 85.9974 259.143 85.9453C259.663 85.8776 260.088 85.8255 260.416 85.7891C260.744 85.7526 260.988 85.6901 261.147 85.6016C261.305 85.513 261.385 85.362 261.385 85.1484V85.1016C261.385 84.737 261.317 84.4284 261.182 84.1758C261.046 83.9232 260.843 83.7292 260.572 83.5938C260.302 83.4583 259.963 83.3906 259.557 83.3906C259.14 83.3906 258.783 83.4557 258.486 83.5859C258.19 83.7161 257.949 83.8789 257.764 84.0742C257.579 84.2695 257.44 84.4688 257.346 84.6719L255.994 84.2266C256.218 83.6953 256.52 83.2799 256.9 82.9805C257.281 82.681 257.7 82.4688 258.158 82.3438C258.617 82.2188 259.07 82.1562 259.518 82.1562C259.809 82.1562 260.141 82.1914 260.514 82.2617C260.886 82.332 261.246 82.4714 261.592 82.6797C261.938 82.888 262.225 83.1966 262.451 83.6055C262.678 84.0143 262.791 84.5599 262.791 85.2422V91H261.408V89.8125H261.315C261.216 90.0156 261.057 90.2253 260.838 90.4414C260.619 90.6576 260.335 90.8385 259.986 90.9844C259.637 91.1302 259.216 91.2031 258.721 91.2031ZM258.963 89.9609C259.484 89.9609 259.924 89.8594 260.283 89.6562C260.643 89.4531 260.916 89.1888 261.104 88.8633C261.291 88.5378 261.385 88.1979 261.385 87.8438V86.6328C261.328 86.7005 261.203 86.7617 261.01 86.8164C260.817 86.8711 260.597 86.9193 260.35 86.9609C260.102 87.0026 259.863 87.0378 259.631 87.0664C259.399 87.0951 259.216 87.1172 259.08 87.1328C258.742 87.1745 258.425 87.2461 258.131 87.3477C257.837 87.4492 257.601 87.5977 257.424 87.793C257.247 87.9883 257.158 88.2526 257.158 88.5859C257.158 88.888 257.236 89.1406 257.393 89.3438C257.549 89.5469 257.762 89.7005 258.033 89.8047C258.304 89.9089 258.614 89.9609 258.963 89.9609ZM268.229 91.1875C267.63 91.1875 267.097 91.1003 266.631 90.9258C266.165 90.7513 265.781 90.4922 265.479 90.1484C265.177 89.8047 264.973 89.3828 264.869 88.8828L266.205 88.5625C266.33 89.0417 266.566 89.3932 266.912 89.6172C267.259 89.8411 267.692 89.9531 268.213 89.9531C268.822 89.9531 269.308 89.8229 269.67 89.5625C270.032 89.3021 270.213 88.9922 270.213 88.6328C270.213 88.3307 270.108 88.0794 269.897 87.8789C269.686 87.6784 269.364 87.5286 268.932 87.4297L267.479 87.0859C266.687 86.8984 266.098 86.6081 265.713 86.2148C265.328 85.8216 265.135 85.3177 265.135 84.7031C265.135 84.2031 265.275 83.7617 265.557 83.3789C265.838 82.9961 266.222 82.6966 266.709 82.4805C267.196 82.2643 267.749 82.1562 268.369 82.1562C268.968 82.1562 269.477 82.2461 269.897 82.4258C270.316 82.6055 270.657 82.8529 270.92 83.168C271.183 83.4831 271.38 83.8464 271.51 84.2578L270.236 84.5859C270.117 84.2734 269.917 83.9896 269.639 83.7344C269.36 83.4792 268.94 83.3516 268.377 83.3516C267.856 83.3516 267.423 83.4714 267.076 83.7109C266.73 83.9505 266.557 84.2526 266.557 84.6172C266.557 84.9401 266.674 85.1992 266.908 85.3945C267.143 85.5898 267.515 85.7474 268.025 85.8672L269.346 86.1797C270.137 86.3672 270.723 86.6576 271.104 87.0508C271.484 87.444 271.674 87.9401 271.674 88.5391C271.674 89.0495 271.529 89.5039 271.24 89.9023C270.951 90.3008 270.548 90.6146 270.029 90.8438C269.511 91.0729 268.911 91.1875 268.229 91.1875ZM276.674 91.1875C276.075 91.1875 275.542 91.1003 275.076 90.9258C274.61 90.7513 274.226 90.4922 273.924 90.1484C273.622 89.8047 273.419 89.3828 273.315 88.8828L274.65 88.5625C274.775 89.0417 275.011 89.3932 275.358 89.6172C275.704 89.8411 276.137 89.9531 276.658 89.9531C277.268 89.9531 277.753 89.8229 278.115 89.5625C278.477 89.3021 278.658 88.9922 278.658 88.6328C278.658 88.3307 278.553 88.0794 278.342 87.8789C278.131 87.6784 277.809 87.5286 277.377 87.4297L275.924 87.0859C275.132 86.8984 274.544 86.6081 274.158 86.2148C273.773 85.8216 273.58 85.3177 273.58 84.7031C273.58 84.2031 273.721 83.7617 274.002 83.3789C274.283 82.9961 274.667 82.6966 275.154 82.4805C275.641 82.2643 276.195 82.1562 276.815 82.1562C277.414 82.1562 277.923 82.2461 278.342 82.4258C278.761 82.6055 279.102 82.8529 279.365 83.168C279.628 83.4831 279.825 83.8464 279.955 84.2578L278.682 84.5859C278.562 84.2734 278.363 83.9896 278.084 83.7344C277.805 83.4792 277.385 83.3516 276.822 83.3516C276.302 83.3516 275.868 83.4714 275.522 83.7109C275.175 83.9505 275.002 84.2526 275.002 84.6172C275.002 84.9401 275.119 85.1992 275.354 85.3945C275.588 85.5898 275.96 85.7474 276.471 85.8672L277.791 86.1797C278.583 86.3672 279.169 86.6576 279.549 87.0508C279.929 87.444 280.119 87.9401 280.119 88.5391C280.119 89.0495 279.975 89.5039 279.686 89.9023C279.397 90.3008 278.993 90.6146 278.475 90.8438C277.956 91.0729 277.356 91.1875 276.674 91.1875ZM284.111 91L281.463 82.2656H282.955L284.018 86.0781C284.164 86.599 284.32 87.1888 284.486 87.8477C284.653 88.5065 284.817 89.2526 284.979 90.0859H284.736C284.893 89.2891 285.052 88.5599 285.213 87.8984C285.374 87.237 285.531 86.6302 285.682 86.0781L286.729 82.2656H288.229L289.26 86.0781C289.406 86.6146 289.558 87.2122 289.717 87.8711C289.876 88.5299 290.033 89.2682 290.19 90.0859H289.94C290.106 89.2786 290.272 88.5456 290.436 87.8867C290.6 87.2279 290.757 86.625 290.908 86.0781L291.971 82.2656H293.463L290.815 91H289.416L288.283 87.0469C288.169 86.6458 288.057 86.237 287.947 85.8203C287.838 85.4036 287.731 84.9766 287.627 84.5391C287.523 84.1016 287.416 83.6562 287.307 83.2031H287.619C287.515 83.651 287.41 84.0951 287.303 84.5352C287.196 84.9753 287.088 85.4062 286.979 85.8281C286.869 86.25 286.757 86.6562 286.643 87.0469L285.51 91H284.111ZM298.51 91.1875C297.718 91.1875 297.024 91 296.428 90.625C295.831 90.25 295.367 89.724 295.033 89.0469C294.7 88.3698 294.533 87.5833 294.533 86.6875C294.533 85.776 294.7 84.9805 295.033 84.3008C295.367 83.6211 295.831 83.0938 296.428 82.7188C297.024 82.3438 297.718 82.1562 298.51 82.1562C299.307 82.1562 300.005 82.3438 300.604 82.7188C301.203 83.0938 301.669 83.6211 302.002 84.3008C302.335 84.9805 302.502 85.776 302.502 86.6875C302.502 87.5833 302.335 88.3698 302.002 89.0469C301.669 89.724 301.203 90.25 300.604 90.625C300.005 91 299.307 91.1875 298.51 91.1875ZM298.51 89.9297C299.098 89.9297 299.583 89.7786 299.963 89.4766C300.343 89.1745 300.624 88.7773 300.807 88.2852C300.989 87.793 301.08 87.2604 301.08 86.6875C301.08 86.1094 300.989 85.5716 300.807 85.0742C300.624 84.5768 300.343 84.1758 299.963 83.8711C299.583 83.5664 299.098 83.4141 298.51 83.4141C297.927 83.4141 297.447 83.5664 297.072 83.8711C296.697 84.1758 296.419 84.5755 296.236 85.0703C296.054 85.5651 295.963 86.1042 295.963 86.6875C295.963 87.2604 296.054 87.793 296.236 88.2852C296.419 88.7773 296.697 89.1745 297.072 89.4766C297.447 89.7786 297.927 89.9297 298.51 89.9297ZM304.549 91V82.2656H305.908V83.6094H306.002C306.164 83.1667 306.451 82.8112 306.865 82.543C307.279 82.2747 307.747 82.1406 308.268 82.1406C308.372 82.1406 308.496 82.1432 308.639 82.1484C308.782 82.1536 308.895 82.1589 308.979 82.1641V83.5781C308.937 83.5677 308.833 83.5521 308.666 83.5312C308.499 83.5104 308.322 83.5 308.135 83.5C307.718 83.5 307.344 83.5872 307.014 83.7617C306.683 83.9362 306.424 84.1758 306.236 84.4805C306.049 84.7852 305.955 85.1354 305.955 85.5312V91H304.549ZM313.58 91.1875C312.856 91.1875 312.216 91.0026 311.658 90.6328C311.101 90.263 310.666 89.7396 310.354 89.0625C310.041 88.3854 309.885 87.5833 309.885 86.6562C309.885 85.7344 310.042 84.9362 310.358 84.2617C310.673 83.5872 311.109 83.0677 311.666 82.7031C312.223 82.3385 312.864 82.1562 313.588 82.1562C314.156 82.1562 314.606 82.25 314.94 82.4375C315.273 82.625 315.529 82.8372 315.709 83.0742C315.889 83.3112 316.025 83.5078 316.119 83.6641H316.229V79.3594H317.635V91H316.275V89.6484H316.119C316.025 89.8099 315.886 90.0117 315.701 90.2539C315.516 90.4961 315.256 90.7122 314.92 90.9023C314.584 91.0924 314.137 91.1875 313.58 91.1875ZM313.791 89.9297C314.322 89.9297 314.77 89.7904 315.135 89.5117C315.499 89.2331 315.775 88.8464 315.963 88.3516C316.15 87.8568 316.244 87.2865 316.244 86.6406C316.244 85.9948 316.152 85.431 315.967 84.9492C315.782 84.4674 315.507 84.0911 315.143 83.8203C314.778 83.5495 314.328 83.4141 313.791 83.4141C313.239 83.4141 312.779 83.5573 312.412 83.8438C312.045 84.1302 311.77 84.5169 311.588 85.0039C311.406 85.4909 311.315 86.0365 311.315 86.6406C311.315 87.25 311.407 87.8034 311.592 88.3008C311.777 88.7982 312.054 89.194 312.424 89.4883C312.794 89.7826 313.249 89.9297 313.791 89.9297ZM321.174 91.1016C320.882 91.1016 320.634 90.9987 320.428 90.793C320.222 90.5872 320.119 90.3385 320.119 90.0469C320.119 89.7552 320.222 89.5065 320.428 89.3008C320.634 89.0951 320.882 88.9922 321.174 88.9922C321.466 88.9922 321.714 89.0951 321.92 89.3008C322.126 89.5065 322.229 89.7552 322.229 90.0469C322.229 90.3385 322.126 90.5872 321.92 90.793C321.714 90.9987 321.466 91.1016 321.174 91.1016Z" fill="#64748B"/>
</svg>
