<svg width="310" height="102" viewBox="0 0 310 102" fill="none" xmlns="http://www.w3.org/2000/svg">
<g clip-path="url(#clip0_205_1175)">
<path d="M153.198 23.1439C153.206 28.8913 150.814 32.6498 146.017 34.4195C144.682 34.9147 143.445 35.1623 142.314 35.1664L152.989 49.7419L146.046 49.7541L133.462 31.6392H133.36L133.393 49.7744L127.838 49.7825L127.769 10.6586L139.549 10.6384C144.145 10.6302 147.524 11.718 149.691 13.8977C152.026 16.1869 153.198 19.2676 153.206 23.1439H153.198ZM147.643 23.152C147.639 20.7897 146.82 18.9835 145.19 17.7374C143.559 16.4872 141.56 15.8662 139.193 15.8703L133.327 15.8784L133.352 30.8396L137.157 30.8314C138.529 30.8314 139.783 30.7137 140.913 30.4824C142.044 30.251 143.142 29.8695 144.202 29.3418C145.263 28.8101 146.103 28.0146 146.718 26.9592C147.332 25.8999 147.639 24.6294 147.635 23.152H147.643Z" fill="#1A0B3D"/>
<path d="M186.144 34.7199C186.144 35.6331 186.094 36.5464 185.992 37.4596L162.377 37.5002C162.93 39.8178 164.057 41.7215 165.757 43.2111C167.457 44.7007 169.456 45.4435 171.754 45.4394C173.433 45.4394 175.018 44.993 176.509 44.1122C178 43.2314 179.119 42.034 179.872 40.5241L185.222 40.516C184.128 43.5033 182.35 45.9062 179.885 47.7165C177.419 49.5308 174.641 50.44 171.557 50.4441C167.543 50.4522 164.118 48.9301 161.284 45.8778C158.449 42.8255 157.028 39.2293 157.02 35.0852C157.011 30.8355 158.412 27.2149 161.218 24.2235C164.024 21.2321 167.485 19.7343 171.602 19.7262C175.616 19.7181 179.037 21.1874 181.871 24.1342C184.706 27.081 186.127 30.6082 186.135 34.7158L186.144 34.7199ZM180.79 33.2546C180.646 30.8679 179.659 28.8507 177.82 27.1987C175.981 25.5508 173.896 24.7268 171.565 24.7309C169.23 24.7309 167.149 25.5629 165.318 27.219C163.487 28.875 162.504 30.8964 162.369 33.283L180.786 33.2505L180.79 33.2546Z" fill="#1A0B3D"/>
<path d="M216.779 49.6283L211.429 49.6364L211.4 33.7782C211.388 27.702 209.016 24.666 204.285 24.6741C201.783 24.6782 199.906 25.5346 198.657 27.2393C197.408 28.9441 196.785 31.1156 196.789 33.7498L196.818 49.6608L191.468 49.6689L191.415 20.4812L196.404 20.4731V23.5823H196.511C198.428 20.9805 201.201 19.6776 204.838 19.6695C209.401 19.6613 212.764 21.3945 214.931 24.8689C216.136 26.7644 216.742 29.2566 216.746 32.3495L216.775 49.6324L216.779 49.6283Z" fill="#1A0B3D"/>
<path d="M247.595 20.3878L231.923 59.3534L226.368 59.3615L230.518 49.0275L219.098 20.4365L224.861 20.4284L233.287 43.069L241.84 20.4L247.603 20.3919L247.595 20.3878Z" fill="#1A0B3D"/>
<path d="M279.827 34.8214C279.835 39.0345 278.348 42.6673 275.37 45.7074C272.392 48.7516 268.759 50.2777 264.47 50.2858C260.251 50.294 256.63 48.78 253.607 45.748C250.584 42.716 249.069 39.0589 249.061 34.7727C249.052 30.523 250.564 26.9268 253.595 23.9882C256.626 21.0495 260.231 19.5761 264.417 19.5721C268.636 19.5639 272.257 21.0333 275.28 23.98C278.303 26.9268 279.819 30.5392 279.827 34.8254V34.8214ZM271.557 42.1843C273.507 40.1264 274.482 37.6748 274.477 34.8295C274.473 31.9842 273.49 29.561 271.532 27.5641C269.574 25.563 267.207 24.5686 264.429 24.5726C261.652 24.5767 259.289 25.5914 257.335 27.6168C255.385 29.6422 254.41 32.0735 254.414 34.9188C254.418 37.7641 255.401 40.2035 257.359 42.237C259.317 44.2705 261.685 45.2853 264.462 45.2812C267.239 45.2771 269.607 44.2462 271.557 42.1883V42.1843Z" fill="#1A0B3D"/>
<path d="M310 49.47L305.113 49.4781V46.3162H305.007C304.253 47.6516 303.098 48.6379 301.537 49.2711C299.977 49.9043 298.342 50.2249 296.626 50.229C293.402 50.2331 290.691 49.2752 288.491 47.3431C285.984 45.1351 284.722 41.3968 284.714 36.1283L284.686 20.3229L290.035 20.3148L290.064 36.1202C290.068 38.9655 290.605 41.1939 291.67 42.8093C292.735 44.4248 294.57 45.2284 297.179 45.2244C299.751 45.2203 301.636 44.3558 302.832 42.6307C304.028 40.9057 304.626 38.6773 304.622 35.9376L304.593 20.2905L309.943 20.2823L309.996 49.47H310Z" fill="#1A0B3D"/>
<path d="M67.2267 40.2319C63.9866 38.3851 63.9784 33.7539 67.2144 31.8949L86.2084 20.9886L93.6062 16.743C101.995 11.9251 112.506 17.912 112.518 27.5235V31.002C112.551 46.5922 95.5314 56.3661 81.8911 48.5933L67.2267 40.236V40.2319Z" fill="#1A0B3D"/>
<path d="M78.2294 8.02442C83.4234 10.9955 83.4234 18.4234 78.2294 21.3945L73.9858 23.8217L62.5328 30.3728C60.5421 31.5093 58.0557 30.0887 58.0557 27.8116V14.7094V4.82194C58.0557 1.11615 62.1027 -1.19743 65.3428 0.653434L73.9858 5.59719L78.2294 8.02442Z" fill="#FF7F50"/>
<path d="M69.746 68.9527C64.552 71.9238 58.0596 68.2099 58.0596 62.2677V57.4132V44.3111C58.0596 42.034 60.546 40.6093 62.5367 41.7499L73.9897 48.301L82.6326 53.2447C85.8686 55.0956 85.8686 59.7268 82.6326 61.5817L73.9897 66.5255L69.746 68.9527Z" fill="#524E8D"/>
<path d="M45.2956 40.2319C48.5357 38.3851 48.5439 33.7539 45.3079 31.8949L26.3138 20.9886L18.9161 16.743C10.5312 11.9251 0.0203383 17.912 0.0039535 27.5235V31.002C-0.0288161 46.5922 16.9909 56.3661 30.6312 48.5933L45.2956 40.236V40.2319Z" fill="#1A0B3D"/>
<path d="M34.2968 8.02442C29.1029 10.9955 29.1029 18.4234 34.2968 21.3945L38.5405 23.8217L49.9935 30.3728C51.9842 31.5093 54.4706 30.0887 54.4706 27.8116V14.7094V4.82194C54.4706 1.11615 50.4236 -1.19743 47.1835 0.653434L38.5405 5.59719L34.2968 8.02442Z" fill="#FF7F50"/>
<path d="M42.7804 68.9527C47.9744 71.9238 54.4669 68.2099 54.4669 62.2677V57.4132V44.3111C54.4669 42.034 51.9805 40.6093 49.9897 41.7499L38.5368 48.301L29.8938 53.2447C26.6578 55.0956 26.6578 59.7268 29.8938 61.5817L38.5368 66.5255L42.7804 68.9527Z" fill="#524E8D"/>
<path d="M88.8016 4.99243C87.1672 4.99243 85.8359 6.31158 85.8359 7.93108C85.8359 9.55059 87.1672 10.8697 88.8016 10.8697C90.436 10.8697 91.7672 9.55059 91.7672 7.93108C91.7672 6.31158 90.436 4.99243 88.8016 4.99243ZM88.8016 10.5044C87.3679 10.5044 86.2046 9.3517 86.2046 7.93108C86.2046 6.51047 87.3679 5.35773 88.8016 5.35773C90.2352 5.35773 91.3986 6.51047 91.3986 7.93108C91.3986 9.3517 90.2312 10.5044 88.8016 10.5044Z" fill="#1A0B3D"/>
<path d="M89.4283 8.34509C89.9035 8.17056 90.1369 7.79714 90.1369 7.22889C90.1369 6.84735 90.0222 6.54293 89.7888 6.31564C89.5758 6.10051 89.2399 5.99092 88.7893 5.99498H87.626L87.6342 9.85907H88.1831V8.06909H88.1913L89.4365 9.85907H90.1206L89.0678 8.41815C89.1784 8.41815 89.3013 8.3938 89.4324 8.34509H89.4283ZM88.5558 7.99197H88.179V6.51452H88.7565C88.99 6.51452 89.1866 6.57541 89.3505 6.69717C89.5102 6.81894 89.5922 7.00159 89.5922 7.23295C89.5922 7.37907 89.5635 7.5049 89.502 7.61043C89.4406 7.71596 89.3587 7.79308 89.2522 7.84585C89.1457 7.89861 89.0392 7.9392 88.9245 7.9595C88.8139 7.97979 88.691 7.99603 88.5558 7.99603V7.99197Z" fill="#1A0B3D"/>
</g>
<defs>
<clipPath id="clip0_205_1175">
<rect width="310" height="70" fill="white"/>
</clipPath>
</defs>
</svg>
