<svg width="250" height="19" viewBox="0 0 250 19" fill="none" xmlns="http://www.w3.org/2000/svg">
<path d="M11.108 7.28977H8.98295C8.92235 6.94129 8.81061 6.63258 8.64773 6.36364C8.48485 6.09091 8.2822 5.85985 8.03977 5.67045C7.79735 5.48106 7.52083 5.33901 7.21023 5.24432C6.90341 5.14583 6.57197 5.09659 6.21591 5.09659C5.58333 5.09659 5.02273 5.25568 4.53409 5.57386C4.04545 5.88826 3.66288 6.35038 3.38636 6.96023C3.10985 7.56629 2.97159 8.30682 2.97159 9.18182C2.97159 10.072 3.10985 10.822 3.38636 11.4318C3.66667 12.0379 4.04924 12.4962 4.53409 12.8068C5.02273 13.1136 5.58144 13.267 6.21023 13.267C6.55871 13.267 6.88447 13.2216 7.1875 13.1307C7.49432 13.036 7.76894 12.8977 8.01136 12.7159C8.25758 12.5341 8.46402 12.3106 8.63068 12.0455C8.80114 11.7803 8.91856 11.4773 8.98295 11.1364L11.108 11.1477C11.0284 11.7008 10.8561 12.2197 10.5909 12.7045C10.3295 13.1894 9.98674 13.6174 9.5625 13.9886C9.13826 14.3561 8.64205 14.6439 8.07386 14.8523C7.50568 15.0568 6.875 15.1591 6.18182 15.1591C5.15909 15.1591 4.24621 14.9223 3.44318 14.4489C2.64015 13.9754 2.00758 13.2917 1.54545 12.3977C1.08333 11.5038 0.852273 10.4318 0.852273 9.18182C0.852273 7.92803 1.08523 6.85606 1.55114 5.96591C2.01705 5.07197 2.65152 4.38826 3.45455 3.91477C4.25758 3.44129 5.16667 3.20455 6.18182 3.20455C6.82955 3.20455 7.43182 3.29545 7.98864 3.47727C8.54545 3.65909 9.04167 3.92614 9.47727 4.27841C9.91288 4.62689 10.2708 5.05492 10.5511 5.5625C10.8352 6.06629 11.0208 6.64205 11.108 7.28977ZM15.4588 15.1761C14.9058 15.1761 14.4077 15.0777 13.9645 14.8807C13.5251 14.6799 13.1766 14.3845 12.919 13.9943C12.6652 13.6042 12.5384 13.1231 12.5384 12.5511C12.5384 12.0587 12.6293 11.6515 12.8111 11.3295C12.9929 11.0076 13.241 10.75 13.5554 10.5568C13.8698 10.3636 14.224 10.2178 14.6179 10.1193C15.0156 10.017 15.4266 9.94318 15.8509 9.89773C16.3622 9.8447 16.777 9.79735 17.0952 9.75568C17.4134 9.71023 17.6444 9.64205 17.7884 9.55114C17.9361 9.45644 18.0099 9.31061 18.0099 9.11364V9.07955C18.0099 8.65152 17.883 8.32008 17.6293 8.08523C17.3755 7.85038 17.0099 7.73295 16.5327 7.73295C16.0289 7.73295 15.6293 7.8428 15.3338 8.0625C15.0421 8.2822 14.8452 8.54167 14.7429 8.84091L12.8224 8.56818C12.974 8.03788 13.224 7.5947 13.5724 7.23864C13.9209 6.87879 14.3471 6.60985 14.8509 6.43182C15.3546 6.25 15.9115 6.15909 16.5213 6.15909C16.9418 6.15909 17.3603 6.20833 17.777 6.30682C18.1937 6.4053 18.5743 6.56818 18.919 6.79545C19.2637 7.01894 19.5402 7.32386 19.7486 7.71023C19.9607 8.09659 20.0668 8.57955 20.0668 9.15909V15H18.0895V13.8011H18.0213C17.8963 14.0436 17.7202 14.2708 17.4929 14.483C17.2694 14.6913 16.9872 14.8598 16.6463 14.9886C16.3092 15.1136 15.9134 15.1761 15.4588 15.1761ZM15.9929 13.6648C16.4058 13.6648 16.7637 13.5833 17.0668 13.4205C17.3698 13.2538 17.6027 13.0341 17.7656 12.7614C17.9323 12.4886 18.0156 12.1913 18.0156 11.8693V10.8409C17.9512 10.8939 17.8414 10.9432 17.6861 10.9886C17.5346 11.0341 17.3641 11.0739 17.1747 11.108C16.9853 11.142 16.7978 11.1723 16.6122 11.1989C16.4266 11.2254 16.2656 11.2481 16.1293 11.267C15.8224 11.3087 15.5478 11.3769 15.3054 11.4716C15.063 11.5663 14.8717 11.6989 14.7315 11.8693C14.5914 12.036 14.5213 12.2519 14.5213 12.517C14.5213 12.8958 14.6596 13.1818 14.9361 13.375C15.2126 13.5682 15.5649 13.6648 15.9929 13.6648ZM26.4929 6.27273V7.86364H21.4759V6.27273H26.4929ZM22.7145 4.18182H24.7713V12.375C24.7713 12.6515 24.813 12.8636 24.8963 13.0114C24.9834 13.1553 25.0971 13.2538 25.2372 13.3068C25.3774 13.3598 25.5327 13.3864 25.7031 13.3864C25.8319 13.3864 25.9493 13.3769 26.0554 13.358C26.1652 13.339 26.2486 13.322 26.3054 13.3068L26.652 14.9148C26.5421 14.9527 26.3849 14.9943 26.1804 15.0398C25.9796 15.0852 25.7334 15.1117 25.4418 15.1193C24.9266 15.1345 24.4626 15.0568 24.0497 14.8864C23.6368 14.7121 23.3092 14.4432 23.0668 14.0795C22.8281 13.7159 22.7107 13.2614 22.7145 12.7159V4.18182ZM31.983 15.1705C31.108 15.1705 30.3523 14.9886 29.7159 14.625C29.0833 14.2576 28.5966 13.7386 28.2557 13.0682C27.9148 12.3939 27.7443 11.6004 27.7443 10.6875C27.7443 9.78977 27.9148 9.00189 28.2557 8.32386C28.6004 7.64205 29.0814 7.11174 29.6989 6.73295C30.3163 6.35038 31.0417 6.15909 31.875 6.15909C32.4129 6.15909 32.9205 6.24621 33.3977 6.42045C33.8788 6.59091 34.303 6.85606 34.6705 7.21591C35.0417 7.57576 35.3333 8.03409 35.5455 8.59091C35.7576 9.14394 35.8636 9.80303 35.8636 10.5682V11.1989H28.7102V9.8125H33.892C33.8883 9.41856 33.803 9.06818 33.6364 8.76136C33.4697 8.45076 33.2367 8.20644 32.9375 8.02841C32.642 7.85038 32.2973 7.76136 31.9034 7.76136C31.483 7.76136 31.1136 7.86364 30.7955 8.06818C30.4773 8.26894 30.2292 8.53409 30.0511 8.86364C29.8769 9.18939 29.7879 9.54735 29.7841 9.9375V11.1477C29.7841 11.6553 29.8769 12.0909 30.0625 12.4545C30.2481 12.8144 30.5076 13.0909 30.8409 13.2841C31.1742 13.4735 31.5644 13.5682 32.0114 13.5682C32.3106 13.5682 32.5814 13.5265 32.8239 13.4432C33.0663 13.3561 33.2765 13.2292 33.4545 13.0625C33.6326 12.8958 33.767 12.6894 33.858 12.4432L35.7784 12.6591C35.6572 13.1667 35.4261 13.6098 35.0852 13.9886C34.7481 14.3636 34.3163 14.6553 33.7898 14.8636C33.2633 15.0682 32.661 15.1705 31.983 15.1705ZM41.3991 18.4545C40.6605 18.4545 40.026 18.3542 39.4957 18.1534C38.9654 17.9564 38.5393 17.6913 38.2173 17.358C37.8954 17.0246 37.6719 16.6553 37.5469 16.25L39.3991 15.8011C39.4825 15.9716 39.6037 16.1402 39.7628 16.3068C39.9219 16.4773 40.1359 16.6174 40.4048 16.7273C40.6776 16.8409 41.0204 16.8977 41.4332 16.8977C42.0166 16.8977 42.4995 16.7557 42.8821 16.4716C43.2647 16.1913 43.456 15.7292 43.456 15.0852V13.4318H43.3537C43.2476 13.6439 43.0923 13.8617 42.8878 14.0852C42.687 14.3087 42.42 14.4962 42.0866 14.6477C41.7571 14.7992 41.3423 14.875 40.8423 14.875C40.1719 14.875 39.5639 14.7178 39.0185 14.4034C38.4768 14.0852 38.045 13.6117 37.723 12.983C37.4048 12.3504 37.2457 11.5587 37.2457 10.608C37.2457 9.64962 37.4048 8.84091 37.723 8.18182C38.045 7.51894 38.4787 7.01705 39.0241 6.67614C39.5696 6.33144 40.1776 6.15909 40.848 6.15909C41.3594 6.15909 41.7798 6.24621 42.1094 6.42045C42.4427 6.59091 42.7079 6.79735 42.9048 7.03977C43.1018 7.27841 43.2514 7.50379 43.3537 7.71591H43.4673V6.27273H45.4957V15.142C45.4957 15.8883 45.3177 16.5057 44.9616 16.9943C44.6056 17.483 44.1188 17.8485 43.5014 18.0909C42.884 18.3333 42.1832 18.4545 41.3991 18.4545ZM41.4162 13.2614C41.8518 13.2614 42.223 13.1553 42.5298 12.9432C42.8366 12.7311 43.0696 12.4261 43.2287 12.0284C43.3878 11.6307 43.4673 11.1534 43.4673 10.5966C43.4673 10.0473 43.3878 9.56629 43.2287 9.15341C43.0734 8.74053 42.8423 8.42045 42.5355 8.19318C42.2325 7.96212 41.8594 7.84659 41.4162 7.84659C40.9579 7.84659 40.5753 7.96591 40.2685 8.20455C39.9616 8.44318 39.7306 8.77083 39.5753 9.1875C39.42 9.60038 39.3423 10.0701 39.3423 10.5966C39.3423 11.1307 39.42 11.5985 39.5753 12C39.7344 12.3977 39.9673 12.7083 40.2741 12.9318C40.5848 13.1515 40.9654 13.2614 41.4162 13.2614ZM51.4105 15.1705C50.5582 15.1705 49.8196 14.983 49.1946 14.608C48.5696 14.233 48.0848 13.7083 47.7401 13.0341C47.3991 12.3598 47.2287 11.572 47.2287 10.6705C47.2287 9.76894 47.3991 8.97917 47.7401 8.30114C48.0848 7.62311 48.5696 7.09659 49.1946 6.72159C49.8196 6.34659 50.5582 6.15909 51.4105 6.15909C52.2628 6.15909 53.0014 6.34659 53.6264 6.72159C54.2514 7.09659 54.7344 7.62311 55.0753 8.30114C55.42 8.97917 55.5923 9.76894 55.5923 10.6705C55.5923 11.572 55.42 12.3598 55.0753 13.0341C54.7344 13.7083 54.2514 14.233 53.6264 14.608C53.0014 14.983 52.2628 15.1705 51.4105 15.1705ZM51.4219 13.5227C51.884 13.5227 52.2704 13.3958 52.581 13.142C52.8916 12.8845 53.1226 12.5398 53.2741 12.108C53.4295 11.6761 53.5071 11.1951 53.5071 10.6648C53.5071 10.1307 53.4295 9.64773 53.2741 9.21591C53.1226 8.7803 52.8916 8.43371 52.581 8.17614C52.2704 7.91856 51.884 7.78977 51.4219 7.78977C50.9484 7.78977 50.5545 7.91856 50.2401 8.17614C49.9295 8.43371 49.6965 8.7803 49.5412 9.21591C49.3897 9.64773 49.3139 10.1307 49.3139 10.6648C49.3139 11.1951 49.3897 11.6761 49.5412 12.108C49.6965 12.5398 49.9295 12.8845 50.2401 13.142C50.5545 13.3958 50.9484 13.5227 51.4219 13.5227ZM57.3381 15V6.27273H59.3324V7.72727H59.4233C59.5824 7.22348 59.8551 6.83523 60.2415 6.5625C60.6316 6.28598 61.0767 6.14773 61.5767 6.14773C61.6903 6.14773 61.8172 6.15341 61.9574 6.16477C62.1013 6.17235 62.2206 6.18561 62.3153 6.20455V8.09659C62.2282 8.06629 62.09 8.03977 61.9006 8.01705C61.715 7.99053 61.535 7.97727 61.3608 7.97727C60.9858 7.97727 60.6487 8.05871 60.3494 8.22159C60.054 8.38068 59.821 8.60227 59.6506 8.88636C59.4801 9.17045 59.3949 9.49811 59.3949 9.86932V15H57.3381ZM65.2259 18.2727C64.9455 18.2727 64.6861 18.25 64.4474 18.2045C64.2126 18.1629 64.0251 18.1136 63.8849 18.0568L64.3622 16.4545C64.6615 16.5417 64.9285 16.5833 65.1634 16.5795C65.3982 16.5758 65.6046 16.5019 65.7827 16.358C65.9645 16.2178 66.1179 15.983 66.2429 15.6534L66.419 15.1818L63.2543 6.27273H65.4361L67.4474 12.8636H67.5384L69.5554 6.27273H71.7429L68.2486 16.0568C68.0857 16.5189 67.8698 16.9148 67.6009 17.2443C67.3319 17.5777 67.0024 17.8314 66.6122 18.0057C66.2259 18.1837 65.7637 18.2727 65.2259 18.2727Z" fill="#0B1A2B"/>
</svg>
