<svg width="250" height="17" viewBox="0 0 250 17" fill="none" xmlns="http://www.w3.org/2000/svg">
<path d="M1.23295 3.81818H2.70455L6.16477 12.2699H6.28409L9.74432 3.81818H11.2159V14H10.0625V6.2642H9.96307L6.78125 14H5.66761L2.4858 6.2642H2.38636V14H1.23295V3.81818ZM13.5289 14V6.36364H14.7022V14H13.5289ZM14.1255 5.09091C13.8968 5.09091 13.6996 5.01302 13.5339 4.85724C13.3715 4.70147 13.2903 4.5142 13.2903 4.29545C13.2903 4.0767 13.3715 3.88944 13.5339 3.73366C13.6996 3.57789 13.8968 3.5 14.1255 3.5C14.3542 3.5 14.5498 3.57789 14.7122 3.73366C14.8779 3.88944 14.9608 4.0767 14.9608 4.29545C14.9608 4.5142 14.8779 4.70147 14.7122 4.85724C14.5498 5.01302 14.3542 5.09091 14.1255 5.09091ZM18.0245 9.40625V14H16.8512V6.36364H17.9847V7.55682H18.0842C18.2631 7.16903 18.5349 6.85748 18.8995 6.62216C19.2641 6.38352 19.7347 6.2642 20.3114 6.2642C20.8285 6.2642 21.2809 6.37027 21.6687 6.58239C22.0565 6.79119 22.3581 7.10938 22.5735 7.53693C22.7889 7.96117 22.8967 8.49811 22.8967 9.14773V14H21.7234V9.22727C21.7234 8.62737 21.5676 8.16004 21.256 7.82528C20.9445 7.48722 20.5169 7.31818 19.9734 7.31818C19.5988 7.31818 19.2641 7.39938 18.9691 7.56179C18.6774 7.72419 18.4471 7.96117 18.2781 8.27273C18.109 8.58428 18.0245 8.96212 18.0245 9.40625ZM28.2424 14.1591C27.5066 14.1591 26.8719 13.9967 26.3382 13.6719C25.8079 13.3438 25.3986 12.8864 25.1103 12.2997C24.8252 11.7098 24.6827 11.0237 24.6827 10.2415C24.6827 9.45928 24.8252 8.76989 25.1103 8.1733C25.3986 7.57339 25.7997 7.10606 26.3134 6.77131C26.8304 6.43324 27.4337 6.2642 28.123 6.2642C28.5208 6.2642 28.9135 6.33049 29.3013 6.46307C29.6891 6.59564 30.0421 6.81108 30.3603 7.10938C30.6784 7.40436 30.932 7.79545 31.1209 8.28267C31.3098 8.76989 31.4043 9.36979 31.4043 10.0824V10.5795H25.5179V9.56534H30.2111C30.2111 9.13447 30.1249 8.75 29.9526 8.41193C29.7836 8.07386 29.5416 7.80705 29.2267 7.61151C28.9152 7.41596 28.5473 7.31818 28.123 7.31818C27.6557 7.31818 27.2514 7.43419 26.91 7.66619C26.5719 7.89489 26.3117 8.19318 26.1294 8.56108C25.9471 8.92898 25.856 9.32339 25.856 9.74432V10.4205C25.856 10.9972 25.9554 11.486 26.1543 11.8871C26.3565 12.2848 26.6365 12.5881 26.9945 12.7969C27.3525 13.0024 27.7684 13.1051 28.2424 13.1051C28.5506 13.1051 28.829 13.062 29.0776 12.9759C29.3295 12.8864 29.5466 12.7538 29.7289 12.5781C29.9112 12.3991 30.052 12.1771 30.1515 11.9119L31.285 12.2301C31.1657 12.6146 30.9651 12.9527 30.6834 13.2443C30.4017 13.5327 30.0537 13.758 29.6394 13.9205C29.2251 14.0795 28.7594 14.1591 28.2424 14.1591ZM33.1891 14V6.36364H34.3226V7.51705H34.4022C34.5414 7.1392 34.7933 6.83262 35.1578 6.5973C35.5224 6.36198 35.9334 6.24432 36.3908 6.24432C36.477 6.24432 36.5847 6.24597 36.714 6.24929C36.8432 6.2526 36.941 6.25758 37.0073 6.2642V7.45739C36.9675 7.44744 36.8764 7.43253 36.7338 7.41264C36.5946 7.38944 36.4471 7.37784 36.2914 7.37784C35.9202 7.37784 35.5887 7.45573 35.2971 7.61151C35.0087 7.76397 34.78 7.97609 34.611 8.24787C34.4453 8.51634 34.3624 8.82292 34.3624 9.16761V14H33.1891ZM40.6452 14.179C40.1613 14.179 39.7222 14.0878 39.3278 13.9055C38.9334 13.7199 38.6201 13.4531 38.3881 13.1051C38.1561 12.7538 38.0401 12.3295 38.0401 11.8324C38.0401 11.3949 38.1263 11.0402 38.2987 10.7685C38.471 10.4934 38.7013 10.2779 38.9897 10.1222C39.2781 9.96638 39.5962 9.85038 39.9442 9.77415C40.2956 9.6946 40.6486 9.63163 41.0032 9.58523C41.4672 9.52557 41.8434 9.48082 42.1317 9.45099C42.4234 9.41785 42.6355 9.36316 42.7681 9.28693C42.904 9.2107 42.9719 9.07812 42.9719 8.8892V8.84943C42.9719 8.3589 42.8377 7.97775 42.5692 7.70597C42.3041 7.43419 41.9014 7.2983 41.3612 7.2983C40.801 7.2983 40.3619 7.42093 40.0437 7.66619C39.7255 7.91146 39.5018 8.1733 39.3725 8.4517L38.2589 8.05398C38.4577 7.58996 38.7229 7.22869 39.0543 6.97017C39.3891 6.70833 39.7537 6.52604 40.1481 6.4233C40.5458 6.31723 40.9369 6.2642 41.3214 6.2642C41.5666 6.2642 41.8484 6.29403 42.1665 6.35369C42.488 6.41004 42.7979 6.5277 43.0962 6.70668C43.3978 6.88565 43.6481 7.15578 43.8469 7.51705C44.0458 7.87831 44.1452 8.36222 44.1452 8.96875V14H42.9719V12.9659H42.9123C42.8327 13.1316 42.7002 13.3089 42.5146 13.4979C42.329 13.6868 42.082 13.8475 41.7738 13.9801C41.4656 14.1127 41.0894 14.179 40.6452 14.179ZM40.8242 13.125C41.2882 13.125 41.6793 13.0339 41.9975 12.8516C42.319 12.6693 42.561 12.4339 42.7234 12.1456C42.8891 11.8572 42.9719 11.554 42.9719 11.2358V10.1619C42.9222 10.2216 42.8129 10.2763 42.6438 10.326C42.4781 10.3724 42.2859 10.4138 42.0671 10.4503C41.8517 10.4834 41.6412 10.5133 41.4357 10.5398C41.2335 10.563 41.0695 10.5829 40.9435 10.5994C40.6386 10.6392 40.3536 10.7038 40.0884 10.7933C39.8266 10.8795 39.6145 11.0104 39.4521 11.1861C39.293 11.3584 39.2134 11.5937 39.2134 11.892C39.2134 12.2997 39.3642 12.608 39.6658 12.8168C39.9708 13.0223 40.3569 13.125 40.8242 13.125ZM47.46 3.81818V14H46.2868V3.81818H47.46ZM55.0181 8.07386L53.9641 8.37216C53.8978 8.1965 53.8001 8.0258 53.6708 7.86009C53.5449 7.69105 53.3725 7.55185 53.1538 7.44247C52.935 7.3331 52.6549 7.27841 52.3136 7.27841C51.8462 7.27841 51.4568 7.38613 51.1452 7.60156C50.837 7.81368 50.6829 8.08381 50.6829 8.41193C50.6829 8.7036 50.7889 8.93395 51.0011 9.10298C51.2132 9.27202 51.5446 9.41288 51.9954 9.52557L53.1289 9.80398C53.8117 9.9697 54.3204 10.2232 54.6552 10.5646C54.9899 10.9027 55.1573 11.3385 55.1573 11.8722C55.1573 12.3097 55.0314 12.7008 54.7795 13.0455C54.5309 13.3902 54.1829 13.6619 53.7354 13.8608C53.288 14.0597 52.7676 14.1591 52.1744 14.1591C51.3955 14.1591 50.7508 13.9901 50.2404 13.652C49.73 13.3139 49.4068 12.8201 49.271 12.1705L50.3846 11.892C50.4906 12.303 50.6912 12.6113 50.9862 12.8168C51.2844 13.0223 51.6739 13.125 52.1545 13.125C52.7013 13.125 53.1355 13.009 53.457 12.777C53.7818 12.5417 53.9442 12.2599 53.9442 11.9318C53.9442 11.6667 53.8514 11.4446 53.6658 11.2656C53.4802 11.0833 53.1952 10.9474 52.8107 10.858L51.538 10.5597C50.8387 10.3939 50.3249 10.1371 49.9968 9.78906C49.672 9.43774 49.5096 8.99858 49.5096 8.47159C49.5096 8.04072 49.6306 7.65956 49.8725 7.32812C50.1178 6.99669 50.4509 6.73651 50.8718 6.54758C51.296 6.35866 51.7766 6.2642 52.3136 6.2642C53.0692 6.2642 53.6625 6.42992 54.0934 6.76136C54.5276 7.0928 54.8358 7.5303 55.0181 8.07386Z" fill="#0B1A2B"/>
<path d="M225.904 9.05029C225.904 8.36051 225.975 7.63794 226.116 6.88257C226.258 6.1272 226.452 5.39933 226.697 4.69897C226.943 3.99862 227.224 3.38818 227.542 2.86768H228.652C228.326 3.53206 228.044 4.22396 227.805 4.94336C227.566 5.66276 227.383 6.37264 227.256 7.073C227.129 7.77336 227.065 8.43245 227.065 9.05029C227.065 9.61312 227.122 10.1823 227.234 10.7578C227.346 11.3333 227.519 11.9417 227.754 12.5828C227.989 13.2239 228.288 13.9211 228.652 14.6743H227.542C227.004 13.756 226.597 12.8208 226.32 11.8687C226.042 10.9165 225.904 9.97705 225.904 9.05029ZM233.089 13.627C232.552 13.627 232.074 13.5212 231.655 13.3096C231.236 13.098 230.893 12.8018 230.626 12.4209C230.36 12.04 230.188 11.5978 230.112 11.0942H231.306C231.403 11.5132 231.6 11.8623 231.896 12.1416C232.192 12.4209 232.59 12.5605 233.089 12.5605C233.572 12.5605 233.986 12.4188 234.333 12.1353C234.681 11.8517 234.948 11.4412 235.136 10.9038C235.325 10.3664 235.419 9.7168 235.419 8.95508H235.343C235.174 9.21322 234.97 9.43644 234.733 9.62476C234.496 9.81307 234.233 9.95907 233.943 10.0627C233.653 10.1664 233.343 10.2183 233.013 10.2183C232.472 10.2183 231.974 10.0839 231.521 9.81519C231.069 9.54647 230.708 9.17619 230.439 8.70435C230.17 8.2325 230.036 7.69401 230.036 7.08887C230.036 6.50065 230.169 5.96427 230.436 5.47974C230.703 4.9952 231.076 4.61011 231.556 4.32446C232.037 4.03882 232.601 3.90234 233.248 3.91504C233.637 3.91927 234.027 3.99438 234.416 4.14038C234.805 4.28638 235.161 4.52653 235.482 4.86084C235.804 5.19515 236.062 5.65007 236.257 6.22559C236.451 6.80111 236.549 7.52474 236.549 8.39648C236.549 9.23438 236.469 9.97705 236.311 10.6245C236.152 11.272 235.923 11.8189 235.622 12.2654C235.322 12.7118 234.958 13.0504 234.53 13.281C234.103 13.5116 233.623 13.627 233.089 13.627ZM233.191 9.16455C233.479 9.16455 233.747 9.10742 233.997 8.99316C234.247 8.87891 234.465 8.72339 234.651 8.52661C234.837 8.32983 234.983 8.10555 235.089 7.85376C235.195 7.60197 235.248 7.33643 235.248 7.05713C235.248 6.6932 235.16 6.3536 234.984 6.03833C234.809 5.72306 234.569 5.46704 234.267 5.27026C233.964 5.07349 233.618 4.9751 233.229 4.9751C232.848 4.9751 232.506 5.06925 232.204 5.25757C231.901 5.44588 231.661 5.69979 231.483 6.01929C231.306 6.33879 231.217 6.6932 231.217 7.08252C231.217 7.46761 231.302 7.81779 231.474 8.13306C231.645 8.44832 231.879 8.69906 232.175 8.88525C232.472 9.07145 232.81 9.16455 233.191 9.16455ZM238.301 13.5V12.6304L241.443 9.22168C241.794 8.84082 242.086 8.50651 242.319 8.21875C242.552 7.93099 242.727 7.65698 242.846 7.39673C242.964 7.13647 243.023 6.86035 243.023 6.56836C243.023 6.23828 242.945 5.95264 242.789 5.71143C242.632 5.47021 242.42 5.28507 242.154 5.15601C241.887 5.02694 241.585 4.9624 241.246 4.9624C240.886 4.9624 240.574 5.0354 240.31 5.1814C240.045 5.32739 239.841 5.53263 239.697 5.79712C239.553 6.0616 239.481 6.37158 239.481 6.72705H238.326C238.326 6.16846 238.455 5.67757 238.713 5.25439C238.972 4.83122 239.323 4.5022 239.767 4.26733C240.211 4.03247 240.715 3.91504 241.278 3.91504C241.841 3.91504 242.339 4.03247 242.773 4.26733C243.206 4.5022 243.547 4.81852 243.795 5.21631C244.042 5.6141 244.166 6.06055 244.166 6.55566C244.166 6.89844 244.105 7.23169 243.982 7.55542C243.859 7.87915 243.643 8.24626 243.334 8.65674C243.026 9.06722 242.592 9.56868 242.033 10.1611L239.964 12.3638V12.4399H244.325V13.5H238.301ZM245.861 14.6743C246.237 13.8999 246.542 13.19 246.775 12.5447C247.008 11.8993 247.178 11.291 247.286 10.7197C247.394 10.1484 247.448 9.59196 247.448 9.05029C247.448 8.43245 247.384 7.77336 247.257 7.073C247.13 6.37264 246.948 5.66276 246.711 4.94336C246.474 4.22396 246.191 3.53206 245.861 2.86768H246.972C247.289 3.38818 247.572 3.99862 247.819 4.69897C248.067 5.39933 248.26 6.12826 248.4 6.88574C248.54 7.64323 248.609 8.36475 248.609 9.05029C248.609 9.99398 248.469 10.9419 248.187 11.894C247.906 12.8462 247.501 13.7729 246.972 14.6743H245.861Z" fill="#8A9198"/>
</svg>
