<svg width="250" height="17" viewBox="0 0 250 17" fill="none" xmlns="http://www.w3.org/2000/svg">
<path d="M1.00426 3.81818H3.26136L6.28409 11.196H6.40341L9.42614 3.81818H11.6832V14H9.91335V7.00497H9.81889L7.00497 13.9702H5.68253L2.86861 6.99006H2.77415V14H1.00426V3.81818ZM18.4794 10.7884V6.36364H20.2791V14H18.5341V12.6428H18.4545C18.2822 13.0703 17.9988 13.42 17.6044 13.6918C17.2133 13.9635 16.7311 14.0994 16.1577 14.0994C15.6572 14.0994 15.2147 13.9884 14.8303 13.7663C14.4491 13.541 14.1508 13.2145 13.9354 12.7869C13.7199 12.3561 13.6122 11.8357 13.6122 11.2259V6.36364H15.4119V10.9474C15.4119 11.4313 15.5445 11.8158 15.8097 12.1009C16.0748 12.3859 16.4228 12.5284 16.8537 12.5284C17.1188 12.5284 17.3757 12.4638 17.6243 12.3345C17.8729 12.2053 18.0767 12.013 18.2358 11.7578C18.3982 11.4993 18.4794 11.1761 18.4794 10.7884ZM23.9295 3.81818V14H22.1298V3.81818H23.9295ZM29.5934 6.36364V7.75568H25.2035V6.36364H29.5934ZM26.2873 4.53409H28.087V11.7031C28.087 11.9451 28.1235 12.1307 28.1964 12.2599C28.2726 12.3859 28.372 12.4721 28.4947 12.5185C28.6173 12.5649 28.7532 12.5881 28.9023 12.5881C29.015 12.5881 29.1178 12.5798 29.2106 12.5632C29.3067 12.5466 29.3796 12.5317 29.4293 12.5185L29.7326 13.9254C29.6365 13.9586 29.4989 13.995 29.32 14.0348C29.1443 14.0746 28.9289 14.0978 28.6737 14.1044C28.2229 14.1177 27.8169 14.0497 27.4556 13.9006C27.0943 13.7481 26.8076 13.5128 26.5955 13.1946C26.3867 12.8764 26.284 12.4787 26.2873 12.0014V4.53409ZM31.0985 14V6.36364H32.8983V14H31.0985ZM32.0034 5.27983C31.7183 5.27983 31.4731 5.18537 31.2676 4.99645C31.0621 4.80421 30.9593 4.57386 30.9593 4.3054C30.9593 4.03362 31.0621 3.80327 31.2676 3.61435C31.4731 3.42211 31.7183 3.32599 32.0034 3.32599C32.2917 3.32599 32.537 3.42211 32.7392 3.61435C32.9447 3.80327 33.0474 4.03362 33.0474 4.3054C33.0474 4.57386 32.9447 4.80421 32.7392 4.99645C32.537 5.18537 32.2917 5.27983 32.0034 5.27983ZM41.57 6.36364L38.8505 14H36.8619L34.1424 6.36364H36.0614L37.8164 12.0362H37.896L39.6559 6.36364H41.57ZM42.8153 14V6.36364H44.6151V14H42.8153ZM43.7202 5.27983C43.4351 5.27983 43.1899 5.18537 42.9844 4.99645C42.7789 4.80421 42.6761 4.57386 42.6761 4.3054C42.6761 4.03362 42.7789 3.80327 42.9844 3.61435C43.1899 3.42211 43.4351 3.32599 43.7202 3.32599C44.0085 3.32599 44.2538 3.42211 44.456 3.61435C44.6615 3.80327 44.7642 4.03362 44.7642 4.3054C44.7642 4.57386 44.6615 4.80421 44.456 4.99645C44.2538 5.18537 44.0085 5.27983 43.7202 5.27983ZM50.2789 6.36364V7.75568H45.889V6.36364H50.2789ZM46.9728 4.53409H48.7725V11.7031C48.7725 11.9451 48.809 12.1307 48.8819 12.2599C48.9582 12.3859 49.0576 12.4721 49.1802 12.5185C49.3029 12.5649 49.4387 12.5881 49.5879 12.5881C49.7006 12.5881 49.8033 12.5798 49.8961 12.5632C49.9922 12.5466 50.0652 12.5317 50.1149 12.5185L50.4181 13.9254C50.322 13.9586 50.1845 13.995 50.0055 14.0348C49.8298 14.0746 49.6144 14.0978 49.3592 14.1044C48.9084 14.1177 48.5024 14.0497 48.1412 13.9006C47.7799 13.7481 47.4932 13.5128 47.2811 13.1946C47.0723 12.8764 46.9695 12.4787 46.9728 12.0014V4.53409ZM53.9815 14.1541C53.4976 14.1541 53.0618 14.0679 52.674 13.8956C52.2895 13.7199 51.9846 13.4614 51.7592 13.12C51.5372 12.7786 51.4261 12.3577 51.4261 11.8572C51.4261 11.4264 51.5057 11.0701 51.6648 10.7884C51.8239 10.5066 52.041 10.2812 52.3161 10.1122C52.5911 9.94318 52.901 9.81558 53.2457 9.7294C53.5938 9.63991 53.9534 9.57528 54.3246 9.53551C54.772 9.48911 55.1349 9.44768 55.4134 9.41122C55.6918 9.37145 55.8939 9.31179 56.0199 9.23224C56.1491 9.14938 56.2138 9.02178 56.2138 8.84943V8.8196C56.2138 8.44508 56.1027 8.15507 55.8807 7.94957C55.6586 7.74408 55.3388 7.64134 54.9212 7.64134C54.4804 7.64134 54.1307 7.73745 53.8722 7.92969C53.617 8.12192 53.4446 8.34896 53.3551 8.6108L51.6747 8.37216C51.8073 7.90814 52.026 7.52036 52.331 7.20881C52.6359 6.89394 53.0088 6.65862 53.4496 6.50284C53.8904 6.34375 54.3776 6.2642 54.9112 6.2642C55.2791 6.2642 55.6454 6.30729 56.0099 6.39347C56.3745 6.47964 56.7076 6.62216 57.0092 6.82102C57.3108 7.01657 57.5528 7.28338 57.7351 7.62145C57.9207 7.95952 58.0135 8.3821 58.0135 8.8892V14H56.2834V12.951H56.2237C56.1143 13.1631 55.9602 13.362 55.7614 13.5476C55.5658 13.7299 55.3189 13.8774 55.0206 13.9901C54.7256 14.0994 54.3793 14.1541 53.9815 14.1541ZM54.4489 12.8317C54.8101 12.8317 55.1233 12.7604 55.3885 12.6179C55.6536 12.4721 55.8575 12.2798 56 12.0412C56.1458 11.8026 56.2188 11.5424 56.2188 11.2607V10.3608C56.1624 10.4072 56.0663 10.4503 55.9304 10.4901C55.7978 10.5298 55.6487 10.5646 55.483 10.5945C55.3172 10.6243 55.1532 10.6508 54.9908 10.674C54.8284 10.6972 54.6875 10.7171 54.5682 10.7337C54.2997 10.7701 54.0594 10.8298 53.8473 10.9126C53.6352 10.9955 53.4678 11.1115 53.3452 11.2607C53.2225 11.4065 53.1612 11.5954 53.1612 11.8274C53.1612 12.1589 53.2822 12.4091 53.5241 12.5781C53.7661 12.7472 54.0743 12.8317 54.4489 12.8317ZM59.8232 14V6.36364H61.5433V7.66122H61.6328C61.7919 7.22372 62.0554 6.88234 62.4233 6.63707C62.7912 6.38849 63.2304 6.2642 63.7408 6.2642C64.2578 6.2642 64.6937 6.39015 65.0483 6.64205C65.4063 6.89062 65.6581 7.23035 65.804 7.66122H65.8835C66.0526 7.23698 66.3376 6.89891 66.7386 6.64702C67.143 6.39181 67.6219 6.2642 68.1754 6.2642C68.8781 6.2642 69.4515 6.48627 69.8956 6.9304C70.3397 7.37453 70.5618 8.02249 70.5618 8.87429V14H68.7571V9.1527C68.7571 8.67874 68.6312 8.33239 68.3793 8.11364C68.1274 7.89157 67.8191 7.78054 67.4545 7.78054C67.0204 7.78054 66.6806 7.91643 66.4354 8.18821C66.1934 8.45668 66.0724 8.80634 66.0724 9.23722V14H64.3075V9.07812C64.3075 8.68371 64.1882 8.36884 63.9496 8.13352C63.7143 7.8982 63.406 7.78054 63.0249 7.78054C62.7663 7.78054 62.531 7.84683 62.3189 7.9794C62.1068 8.10866 61.9377 8.29261 61.8118 8.53125C61.6858 8.76657 61.6229 9.04167 61.6229 9.35653V14H59.8232ZM72.3876 14V6.36364H74.1873V14H72.3876ZM73.2924 5.27983C73.0074 5.27983 72.7621 5.18537 72.5566 4.99645C72.3511 4.80421 72.2484 4.57386 72.2484 4.3054C72.2484 4.03362 72.3511 3.80327 72.5566 3.61435C72.7621 3.42211 73.0074 3.32599 73.2924 3.32599C73.5808 3.32599 73.8261 3.42211 74.0282 3.61435C74.2337 3.80327 74.3365 4.03362 74.3365 4.3054C74.3365 4.57386 74.2337 4.80421 74.0282 4.99645C73.8261 5.18537 73.5808 5.27983 73.2924 5.27983ZM77.8377 9.52557V14H76.038V6.36364H77.7582V7.66122H77.8477C78.0233 7.23366 78.3034 6.89394 78.6879 6.64205C79.0756 6.39015 79.5546 6.2642 80.1246 6.2642C80.6516 6.2642 81.1107 6.37689 81.5018 6.60227C81.8962 6.82765 82.2011 7.15412 82.4165 7.58168C82.6353 8.00923 82.743 8.52794 82.7397 9.13778V14H80.94V9.41619C80.94 8.90578 80.8074 8.50639 80.5423 8.21804C80.2804 7.92969 79.9175 7.78551 79.4535 7.78551C79.1386 7.78551 78.8585 7.85511 78.6133 7.99432C78.3713 8.13021 78.1808 8.32741 78.0415 8.58594C77.9057 8.84446 77.8377 9.15767 77.8377 9.52557ZM90.6048 8.3821L88.9641 8.56108C88.9177 8.39536 88.8365 8.23958 88.7205 8.09375C88.6078 7.94792 88.4554 7.83026 88.2631 7.74077C88.0709 7.65128 87.8356 7.60653 87.5572 7.60653C87.1826 7.60653 86.8678 7.68774 86.6126 7.85014C86.3607 8.01255 86.2364 8.22301 86.2397 8.48153C86.2364 8.7036 86.3176 8.88423 86.4833 9.02344C86.6523 9.16264 86.9308 9.27699 87.3185 9.36648L88.6211 9.64489C89.3436 9.80066 89.8806 10.0476 90.2319 10.3857C90.5865 10.7237 90.7655 11.1662 90.7688 11.7131C90.7655 12.1937 90.6246 12.6179 90.3462 12.9858C90.0711 13.3504 89.6883 13.6354 89.1978 13.8409C88.7073 14.0464 88.1438 14.1491 87.5075 14.1491C86.5728 14.1491 85.8204 13.9536 85.2504 13.5625C84.6803 13.1681 84.3406 12.6196 84.2312 11.9169L85.9862 11.7479C86.0657 12.0926 86.2347 12.3527 86.4933 12.5284C86.7518 12.7041 87.0882 12.7919 87.5025 12.7919C87.93 12.7919 88.2731 12.7041 88.5316 12.5284C88.7934 12.3527 88.9244 12.1357 88.9244 11.8771C88.9244 11.6584 88.8398 11.4777 88.6708 11.3352C88.5051 11.1927 88.2466 11.0833 87.8952 11.0071L86.5927 10.7337C85.8602 10.5812 85.3183 10.3243 84.967 9.96307C84.6156 9.59848 84.4416 9.13778 84.445 8.58097C84.4416 8.11032 84.5692 7.70265 84.8278 7.35795C85.0896 7.00994 85.4525 6.74148 85.9165 6.55256C86.3839 6.36032 86.9225 6.2642 87.5323 6.2642C88.4272 6.2642 89.1315 6.45478 89.6452 6.83594C90.1623 7.21709 90.4821 7.73248 90.6048 8.3821Z" fill="#0B1A2B"/>
<path d="M220.474 9.05029C220.474 8.36051 220.545 7.63794 220.686 6.88257C220.828 6.1272 221.022 5.39933 221.267 4.69897C221.513 3.99862 221.794 3.38818 222.111 2.86768H223.222C222.896 3.53206 222.614 4.22396 222.375 4.94336C222.136 5.66276 221.953 6.37264 221.826 7.073C221.699 7.77336 221.635 8.43245 221.635 9.05029C221.635 9.61312 221.691 10.1823 221.803 10.7578C221.916 11.3333 222.089 11.9417 222.324 12.5828C222.559 13.2239 222.858 13.9211 223.222 14.6743H222.111C221.574 13.756 221.167 12.8208 220.889 11.8687C220.612 10.9165 220.474 9.97705 220.474 9.05029ZM227.977 4.04199V13.5H226.79V5.15918H226.726L224.441 6.854V5.55908L226.498 4.04199H227.977ZM230.097 13.5V12.6304L233.239 9.22168C233.59 8.84082 233.882 8.50651 234.115 8.21875C234.347 7.93099 234.523 7.65698 234.642 7.39673C234.76 7.13647 234.819 6.86035 234.819 6.56836C234.819 6.23828 234.741 5.95264 234.584 5.71143C234.428 5.47021 234.216 5.28507 233.95 5.15601C233.683 5.02694 233.381 4.9624 233.042 4.9624C232.682 4.9624 232.37 5.0354 232.106 5.1814C231.841 5.32739 231.637 5.53263 231.493 5.79712C231.349 6.0616 231.277 6.37158 231.277 6.72705H230.122C230.122 6.16846 230.251 5.67757 230.509 5.25439C230.767 4.83122 231.119 4.5022 231.563 4.26733C232.007 4.03247 232.511 3.91504 233.074 3.91504C233.637 3.91504 234.135 4.03247 234.569 4.26733C235.002 4.5022 235.343 4.81852 235.591 5.21631C235.838 5.6141 235.962 6.06055 235.962 6.55566C235.962 6.89844 235.901 7.23169 235.778 7.55542C235.655 7.87915 235.439 8.24626 235.13 8.65674C234.821 9.06722 234.388 9.56868 233.829 10.1611L231.76 12.3638V12.4399H236.121V13.5H230.097ZM237.606 11.5767V10.5928L241.745 4.04199H242.475V5.55273H241.986L238.895 10.4404V10.5166H244.493V11.5767H237.606ZM242.056 13.5V11.2847L242.062 10.8213V4.04199H243.211V13.5H242.056ZM245.852 14.6743C246.228 13.8999 246.533 13.19 246.766 12.5447C246.998 11.8993 247.169 11.291 247.277 10.7197C247.385 10.1484 247.438 9.59196 247.438 9.05029C247.438 8.43245 247.375 7.77336 247.248 7.073C247.121 6.37264 246.939 5.66276 246.702 4.94336C246.465 4.22396 246.182 3.53206 245.852 2.86768H246.962C247.28 3.38818 247.562 3.99862 247.81 4.69897C248.057 5.39933 248.251 6.12826 248.391 6.88574C248.53 7.64323 248.6 8.36475 248.6 9.05029C248.6 9.99398 248.459 10.9419 248.178 11.894C247.897 12.8462 247.491 13.7729 246.962 14.6743H245.852Z" fill="#8A9198"/>
</svg>
