<svg width="250" height="18" viewBox="0 0 250 18" fill="none" xmlns="http://www.w3.org/2000/svg">
<path d="M9.82386 8.90909C9.82386 9.98295 9.62997 10.911 9.24219 11.6932C8.8544 12.4754 8.32244 13.0786 7.64631 13.5028C6.97017 13.9271 6.19792 14.1392 5.32955 14.1392C4.46117 14.1392 3.68892 13.9271 3.01278 13.5028C2.33665 13.0786 1.80469 12.4754 1.4169 11.6932C1.02912 10.911 0.835227 9.98295 0.835227 8.90909C0.835227 7.83523 1.02912 6.9072 1.4169 6.125C1.80469 5.3428 2.33665 4.73958 3.01278 4.31534C3.68892 3.8911 4.46117 3.67898 5.32955 3.67898C6.19792 3.67898 6.97017 3.8911 7.64631 4.31534C8.32244 4.73958 8.8544 5.3428 9.24219 6.125C9.62997 6.9072 9.82386 7.83523 9.82386 8.90909ZM8.63068 8.90909C8.63068 8.02746 8.48319 7.28338 8.18821 6.67685C7.89654 6.07031 7.50047 5.61127 7 5.29972C6.50284 4.98816 5.94602 4.83239 5.32955 4.83239C4.71307 4.83239 4.15459 4.98816 3.65412 5.29972C3.15696 5.61127 2.76089 6.07031 2.46591 6.67685C2.17424 7.28338 2.02841 8.02746 2.02841 8.90909C2.02841 9.79072 2.17424 10.5348 2.46591 11.1413C2.76089 11.7479 3.15696 12.2069 3.65412 12.5185C4.15459 12.83 4.71307 12.9858 5.32955 12.9858C5.94602 12.9858 6.50284 12.83 7 12.5185C7.50047 12.2069 7.89654 11.7479 8.18821 11.1413C8.48319 10.5348 8.63068 9.79072 8.63068 8.90909ZM11.7379 14V6.36364H12.8714V7.55682H12.9709C13.13 7.14915 13.3868 6.83262 13.7415 6.60724C14.0961 6.37855 14.522 6.2642 15.0192 6.2642C15.523 6.2642 15.9422 6.37855 16.277 6.60724C16.6151 6.83262 16.8786 7.14915 17.0675 7.55682H17.147C17.3426 7.16241 17.6359 6.84919 18.027 6.61719C18.4181 6.38187 18.8871 6.2642 19.4339 6.2642C20.1167 6.2642 20.6752 6.47798 21.1094 6.90554C21.5436 7.32978 21.7607 7.991 21.7607 8.8892V14H20.5874V8.8892C20.5874 8.32576 20.4332 7.92306 20.125 7.68111C19.8168 7.43916 19.4538 7.31818 19.0362 7.31818C18.4993 7.31818 18.0833 7.48059 17.7884 7.8054C17.4934 8.12689 17.3459 8.53456 17.3459 9.02841V14H16.1527V8.76989C16.1527 8.3357 16.0118 7.98603 15.7301 7.72088C15.4484 7.45241 15.0855 7.31818 14.6413 7.31818C14.3364 7.31818 14.0514 7.39938 13.7862 7.56179C13.5244 7.72419 13.3123 7.94957 13.1499 8.23793C12.9908 8.52296 12.9112 8.85275 12.9112 9.22727V14H11.7379ZM27.1076 14.1591C26.3718 14.1591 25.7371 13.9967 25.2035 13.6719C24.6732 13.3438 24.2638 12.8864 23.9755 12.2997C23.6905 11.7098 23.5479 11.0237 23.5479 10.2415C23.5479 9.45928 23.6905 8.76989 23.9755 8.1733C24.2638 7.57339 24.6649 7.10606 25.1786 6.77131C25.6957 6.43324 26.2989 6.2642 26.9883 6.2642C27.386 6.2642 27.7788 6.33049 28.1665 6.46307C28.5543 6.59564 28.9073 6.81108 29.2255 7.10938C29.5437 7.40436 29.7972 7.79545 29.9862 8.28267C30.1751 8.76989 30.2695 9.36979 30.2695 10.0824V10.5795H24.3832V9.56534H29.0763C29.0763 9.13447 28.9902 8.75 28.8178 8.41193C28.6488 8.07386 28.4068 7.80705 28.092 7.61151C27.7804 7.41596 27.4125 7.31818 26.9883 7.31818C26.521 7.31818 26.1166 7.43419 25.7752 7.66619C25.4371 7.89489 25.177 8.19318 24.9947 8.56108C24.8124 8.92898 24.7212 9.32339 24.7212 9.74432V10.4205C24.7212 10.9972 24.8207 11.486 25.0195 11.8871C25.2217 12.2848 25.5018 12.5881 25.8597 12.7969C26.2177 13.0024 26.6336 13.1051 27.1076 13.1051C27.4158 13.1051 27.6942 13.062 27.9428 12.9759C28.1947 12.8864 28.4118 12.7538 28.5941 12.5781C28.7764 12.3991 28.9173 12.1771 29.0167 11.9119L30.1502 12.2301C30.0309 12.6146 29.8304 12.9527 29.5487 13.2443C29.2669 13.5327 28.9189 13.758 28.5046 13.9205C28.0903 14.0795 27.6246 14.1591 27.1076 14.1591ZM35.1367 17.0227C34.57 17.0227 34.0827 16.9498 33.6751 16.804C33.2674 16.6615 32.9277 16.4725 32.6559 16.2372C32.3874 16.0052 32.1737 15.7566 32.0146 15.4915L32.9492 14.8352C33.0553 14.9744 33.1895 15.1335 33.3519 15.3125C33.5143 15.4948 33.7364 15.6522 34.0181 15.7848C34.3031 15.9207 34.676 15.9886 35.1367 15.9886C35.7532 15.9886 36.262 15.8395 36.663 15.5412C37.064 15.2429 37.2646 14.7756 37.2646 14.1392V12.5881H37.1651C37.079 12.7273 36.9563 12.8996 36.7972 13.1051C36.6415 13.3073 36.4161 13.4879 36.1211 13.647C35.8294 13.8028 35.435 13.8807 34.9379 13.8807C34.3214 13.8807 33.7679 13.7348 33.2773 13.4432C32.7901 13.1515 32.404 12.7273 32.119 12.1705C31.8372 11.6136 31.6964 10.9375 31.6964 10.142C31.6964 9.35985 31.8339 8.67874 32.109 8.09872C32.3841 7.51539 32.7669 7.06463 33.2575 6.74645C33.748 6.42495 34.3147 6.2642 34.9577 6.2642C35.4549 6.2642 35.8493 6.34706 36.141 6.51278C36.436 6.67519 36.6613 6.8608 36.8171 7.0696C36.9762 7.27509 37.0988 7.44413 37.185 7.5767H37.3043V6.36364H38.4379V14.2188C38.4379 14.875 38.2887 15.4086 37.9904 15.8196C37.6954 16.2339 37.2977 16.5372 36.7972 16.7294C36.3001 16.925 35.7466 17.0227 35.1367 17.0227ZM35.0969 12.8267C35.5676 12.8267 35.9653 12.719 36.2901 12.5036C36.6149 12.2881 36.8619 11.9782 37.0309 11.5739C37.1999 11.1695 37.2844 10.6856 37.2844 10.1222C37.2844 9.57197 37.2016 9.08641 37.0359 8.66548C36.8701 8.24455 36.6249 7.91477 36.3001 7.67614C35.9753 7.4375 35.5742 7.31818 35.0969 7.31818C34.5998 7.31818 34.1855 7.44413 33.854 7.69602C33.5259 7.94792 33.279 8.28598 33.1133 8.71023C32.9509 9.13447 32.8697 9.60511 32.8697 10.1222C32.8697 10.6525 32.9525 11.1214 33.1183 11.5291C33.2873 11.9335 33.5359 12.2517 33.864 12.4837C34.1954 12.7124 34.6064 12.8267 35.0969 12.8267ZM42.8327 14.179C42.3488 14.179 41.9097 14.0878 41.5153 13.9055C41.1209 13.7199 40.8076 13.4531 40.5756 13.1051C40.3436 12.7538 40.2276 12.3295 40.2276 11.8324C40.2276 11.3949 40.3138 11.0402 40.4862 10.7685C40.6585 10.4934 40.8888 10.2779 41.1772 10.1222C41.4656 9.96638 41.7837 9.85038 42.1317 9.77415C42.4831 9.6946 42.8361 9.63163 43.1907 9.58523C43.6547 9.52557 44.0309 9.48082 44.3192 9.45099C44.6109 9.41785 44.823 9.36316 44.9556 9.28693C45.0915 9.2107 45.1594 9.07812 45.1594 8.8892V8.84943C45.1594 8.3589 45.0252 7.97775 44.7567 7.70597C44.4916 7.43419 44.0889 7.2983 43.5487 7.2983C42.9885 7.2983 42.5494 7.42093 42.2312 7.66619C41.913 7.91146 41.6893 8.1733 41.56 8.4517L40.4464 8.05398C40.6452 7.58996 40.9104 7.22869 41.2418 6.97017C41.5766 6.70833 41.9412 6.52604 42.3356 6.4233C42.7333 6.31723 43.1244 6.2642 43.5089 6.2642C43.7541 6.2642 44.0359 6.29403 44.354 6.35369C44.6755 6.41004 44.9854 6.5277 45.2837 6.70668C45.5853 6.88565 45.8356 7.15578 46.0344 7.51705C46.2333 7.87831 46.3327 8.36222 46.3327 8.96875V14H45.1594V12.9659H45.0998C45.0202 13.1316 44.8877 13.3089 44.7021 13.4979C44.5165 13.6868 44.2695 13.8475 43.9613 13.9801C43.6531 14.1127 43.2769 14.179 42.8327 14.179ZM43.0117 13.125C43.4757 13.125 43.8668 13.0339 44.185 12.8516C44.5065 12.6693 44.7485 12.4339 44.9109 12.1456C45.0766 11.8572 45.1594 11.554 45.1594 11.2358V10.1619C45.1097 10.2216 45.0004 10.2763 44.8313 10.326C44.6656 10.3724 44.4734 10.4138 44.2546 10.4503C44.0392 10.4834 43.8287 10.5133 43.6232 10.5398C43.421 10.563 43.257 10.5829 43.131 10.5994C42.8261 10.6392 42.5411 10.7038 42.2759 10.7933C42.0141 10.8795 41.802 11.0104 41.6396 11.1861C41.4805 11.3584 41.4009 11.5937 41.4009 11.892C41.4009 12.2997 41.5517 12.608 41.8533 12.8168C42.1583 13.0223 42.5444 13.125 43.0117 13.125ZM55.8322 14.1392C55.176 14.1392 54.591 14.0265 54.0772 13.8011C53.5668 13.5758 53.1608 13.2625 52.8592 12.8615C52.5609 12.4571 52.3985 11.9882 52.372 11.4545H53.6248C53.6513 11.7827 53.764 12.0661 53.9629 12.3047C54.1618 12.54 54.4219 12.7223 54.7434 12.8516C55.0649 12.9808 55.4212 13.0455 55.8123 13.0455C56.2498 13.0455 56.6376 12.9692 56.9757 12.8168C57.3137 12.6643 57.5789 12.4522 57.7711 12.1804C57.9634 11.9086 58.0595 11.5938 58.0595 11.2358C58.0595 10.8613 57.9667 10.5315 57.7811 10.2464C57.5955 9.9581 57.3237 9.73272 56.9657 9.57031C56.6078 9.40791 56.1703 9.3267 55.6532 9.3267H54.8379V8.23295H55.6532C56.0576 8.23295 56.4122 8.16004 56.7172 8.0142C57.0254 7.86837 57.2657 7.66288 57.438 7.39773C57.6137 7.13258 57.7015 6.82102 57.7015 6.46307C57.7015 6.11837 57.6253 5.81842 57.4728 5.56321C57.3204 5.308 57.1049 5.10914 56.8265 4.96662C56.5514 4.8241 56.2266 4.75284 55.8521 4.75284C55.5008 4.75284 55.1693 4.81747 54.8578 4.94673C54.5495 5.07268 54.2976 5.25663 54.1021 5.49858C53.9065 5.73722 53.8005 6.02557 53.7839 6.36364H52.5907C52.6106 5.83002 52.7714 5.36269 53.073 4.96165C53.3746 4.55729 53.769 4.24242 54.2562 4.01705C54.7467 3.79167 55.2853 3.67898 55.872 3.67898C56.5017 3.67898 57.042 3.80658 57.4927 4.06179C57.9435 4.31368 58.2898 4.64678 58.5318 5.06108C58.7737 5.47538 58.8947 5.92282 58.8947 6.40341C58.8947 6.9768 58.7439 7.46567 58.4423 7.87003C58.144 8.27438 57.738 8.55445 57.2243 8.71023V8.78977C57.8672 8.89583 58.3694 9.16927 58.7306 9.61009C59.0919 10.0476 59.2725 10.5895 59.2725 11.2358C59.2725 11.7893 59.1217 12.2865 58.8201 12.7273C58.5218 13.1648 58.1142 13.5095 57.5971 13.7614C57.0801 14.0133 56.4918 14.1392 55.8322 14.1392Z" fill="#0B1A2B"/>
<path d="M225.444 9.05029C225.444 8.36051 225.515 7.63794 225.656 6.88257C225.798 6.1272 225.992 5.39933 226.237 4.69897C226.483 3.99862 226.764 3.38818 227.082 2.86768H228.192C227.867 3.53206 227.584 4.22396 227.345 4.94336C227.106 5.66276 226.923 6.37264 226.796 7.073C226.669 7.77336 226.605 8.43245 226.605 9.05029C226.605 9.61312 226.662 10.1823 226.774 10.7578C226.886 11.3333 227.059 11.9417 227.294 12.5828C227.529 13.2239 227.828 13.9211 228.192 14.6743H227.082C226.544 13.756 226.137 12.8208 225.86 11.8687C225.582 10.9165 225.444 9.97705 225.444 9.05029ZM229.563 11.5767V10.5928L233.702 4.04199H234.432V5.55273H233.943L230.852 10.4404V10.5166H236.451V11.5767H229.563ZM234.013 13.5V11.2847L234.02 10.8213V4.04199H235.168V13.5H234.013ZM241.218 13.627C240.579 13.627 240.015 13.5138 239.526 13.2874C239.037 13.061 238.656 12.7489 238.384 12.3511C238.111 11.9533 237.974 11.4984 237.974 10.9863C237.974 10.5885 238.055 10.2193 238.215 9.87866C238.376 9.538 238.596 9.25342 238.875 9.0249C239.155 8.79639 239.47 8.65039 239.821 8.58691V8.53613C239.36 8.41764 238.994 8.16162 238.723 7.76807C238.452 7.37451 238.317 6.92806 238.317 6.42871C238.317 5.94629 238.442 5.51571 238.691 5.13696C238.941 4.75822 239.284 4.45988 239.72 4.24194C240.156 4.02401 240.655 3.91504 241.218 3.91504C241.772 3.91504 242.267 4.02401 242.703 4.24194C243.139 4.45988 243.483 4.75822 243.735 5.13696C243.986 5.51571 244.112 5.94629 244.112 6.42871C244.112 6.92806 243.976 7.37451 243.703 7.76807C243.43 8.16162 243.069 8.41764 242.621 8.53613V8.58691C242.963 8.65039 243.274 8.79639 243.554 9.0249C243.833 9.25342 244.055 9.538 244.22 9.87866C244.385 10.2193 244.468 10.5885 244.468 10.9863C244.468 11.4984 244.329 11.9533 244.052 12.3511C243.775 12.7489 243.392 13.061 242.903 13.2874C242.414 13.5138 241.853 13.627 241.218 13.627ZM241.218 12.5796C241.637 12.5796 241.999 12.5108 242.303 12.3733C242.608 12.2358 242.844 12.0432 243.011 11.7957C243.178 11.5481 243.262 11.2572 243.262 10.9229C243.262 10.5716 243.173 10.2616 242.995 9.99292C242.817 9.7242 242.574 9.51261 242.265 9.35815C241.956 9.20369 241.607 9.12646 241.218 9.12646C240.82 9.12646 240.467 9.20369 240.158 9.35815C239.849 9.51261 239.605 9.7242 239.428 9.99292C239.25 10.2616 239.161 10.5716 239.161 10.9229C239.161 11.2572 239.244 11.5481 239.409 11.7957C239.574 12.0432 239.811 12.2358 240.12 12.3733C240.429 12.5108 240.795 12.5796 241.218 12.5796ZM241.218 8.11719C241.552 8.11719 241.848 8.05054 242.106 7.91724C242.365 7.78394 242.569 7.59668 242.719 7.35547C242.869 7.11426 242.944 6.83496 242.944 6.51758C242.944 6.2002 242.872 5.92513 242.729 5.69238C242.585 5.45964 242.383 5.27873 242.122 5.14966C241.862 5.02059 241.561 4.95605 241.218 4.95605C240.871 4.95605 240.567 5.02059 240.307 5.14966C240.047 5.27873 239.845 5.45964 239.701 5.69238C239.557 5.92513 239.485 6.2002 239.485 6.51758C239.485 6.83496 239.558 7.11426 239.704 7.35547C239.85 7.59668 240.054 7.78394 240.316 7.91724C240.579 8.05054 240.879 8.11719 241.218 8.11719ZM245.852 14.6743C246.228 13.8999 246.533 13.19 246.766 12.5447C246.998 11.8993 247.169 11.291 247.277 10.7197C247.385 10.1484 247.438 9.59196 247.438 9.05029C247.438 8.43245 247.375 7.77336 247.248 7.073C247.121 6.37264 246.939 5.66276 246.702 4.94336C246.465 4.22396 246.182 3.53206 245.852 2.86768H246.962C247.28 3.38818 247.562 3.99862 247.81 4.69897C248.057 5.39933 248.251 6.12826 248.391 6.88574C248.53 7.64323 248.6 8.36475 248.6 9.05029C248.6 9.99398 248.459 10.9419 248.178 11.894C247.897 12.8462 247.491 13.7729 246.962 14.6743H245.852Z" fill="#8A9198"/>
</svg>
