<svg width="250" height="17" viewBox="0 0 250 17" fill="none" xmlns="http://www.w3.org/2000/svg">
<path d="M1.23295 14V3.81818H4.6733C5.47206 3.81818 6.125 3.96236 6.6321 4.25071C7.14252 4.53575 7.52036 4.92188 7.76562 5.40909C8.01089 5.89631 8.13352 6.43987 8.13352 7.03977C8.13352 7.63968 8.01089 8.1849 7.76562 8.67543C7.52367 9.16596 7.14915 9.55705 6.64205 9.84872C6.13494 10.1371 5.48532 10.2812 4.69318 10.2812H2.22727V9.1875H4.65341C5.20028 9.1875 5.63944 9.09304 5.97088 8.90412C6.30232 8.7152 6.54261 8.45999 6.69176 8.13849C6.84422 7.81368 6.92045 7.44744 6.92045 7.03977C6.92045 6.6321 6.84422 6.26752 6.69176 5.94602C6.54261 5.62453 6.30066 5.37263 5.96591 5.19034C5.63116 5.00473 5.18703 4.91193 4.63352 4.91193H2.46591V14H1.23295ZM9.96058 14V6.36364H11.0941V7.51705H11.1737C11.3129 7.1392 11.5647 6.83262 11.9293 6.5973C12.2939 6.36198 12.7049 6.24432 13.1623 6.24432C13.2485 6.24432 13.3562 6.24597 13.4854 6.24929C13.6147 6.2526 13.7125 6.25758 13.7788 6.2642V7.45739C13.739 7.44744 13.6478 7.43253 13.5053 7.41264C13.3661 7.38944 13.2186 7.37784 13.0629 7.37784C12.6916 7.37784 12.3602 7.45573 12.0685 7.61151C11.7802 7.76397 11.5515 7.97609 11.3825 8.24787C11.2167 8.51634 11.1339 8.82292 11.1339 9.16761V14H9.96058ZM18.1388 14.1591C17.4031 14.1591 16.7683 13.9967 16.2347 13.6719C15.7044 13.3438 15.2951 12.8864 15.0067 12.2997C14.7217 11.7098 14.5792 11.0237 14.5792 10.2415C14.5792 9.45928 14.7217 8.76989 15.0067 8.1733C15.2951 7.57339 15.6961 7.10606 16.2099 6.77131C16.7269 6.43324 17.3301 6.2642 18.0195 6.2642C18.4173 6.2642 18.81 6.33049 19.1978 6.46307C19.5856 6.59564 19.9386 6.81108 20.2567 7.10938C20.5749 7.40436 20.8285 7.79545 21.0174 8.28267C21.2063 8.76989 21.3008 9.36979 21.3008 10.0824V10.5795H15.4144V9.56534H20.1076C20.1076 9.13447 20.0214 8.75 19.8491 8.41193C19.68 8.07386 19.4381 7.80705 19.1232 7.61151C18.8117 7.41596 18.4438 7.31818 18.0195 7.31818C17.5522 7.31818 17.1478 7.43419 16.8065 7.66619C16.4684 7.89489 16.2082 8.19318 16.0259 8.56108C15.8436 8.92898 15.7525 9.32339 15.7525 9.74432V10.4205C15.7525 10.9972 15.8519 11.486 16.0508 11.8871C16.253 12.2848 16.533 12.5881 16.891 12.7969C17.2489 13.0024 17.6649 13.1051 18.1388 13.1051C18.4471 13.1051 18.7255 13.062 18.9741 12.9759C19.226 12.8864 19.4431 12.7538 19.6254 12.5781C19.8076 12.3991 19.9485 12.1771 20.0479 11.9119L21.1815 12.2301C21.0621 12.6146 20.8616 12.9527 20.5799 13.2443C20.2982 13.5327 19.9502 13.758 19.5359 13.9205C19.1216 14.0795 18.6559 14.1591 18.1388 14.1591ZM29.9066 14.1392C29.2371 14.1392 28.6604 14.0166 28.1765 13.7713C27.6926 13.526 27.3197 13.1896 27.0579 12.7621C26.796 12.3345 26.6651 11.8456 26.6651 11.2955C26.6651 10.8712 26.7546 10.495 26.9336 10.1669C27.1159 9.83546 27.3661 9.52888 27.6843 9.24716C28.0058 8.96212 28.3754 8.67708 28.793 8.39205L30.2646 7.2983C30.5529 7.10937 30.7833 6.9072 30.9556 6.69176C31.1313 6.47633 31.2191 6.1946 31.2191 5.84659C31.2191 5.58807 31.1048 5.33783 30.8761 5.09588C30.6507 4.85393 30.354 4.73295 29.9862 4.73295C29.7276 4.73295 29.4989 4.79924 29.3001 4.93182C29.1045 5.06108 28.9504 5.2268 28.8377 5.42898C28.7283 5.62784 28.6737 5.83333 28.6737 6.04545C28.6737 6.28409 28.7383 6.52604 28.8675 6.77131C29.0001 7.01326 29.1675 7.26184 29.3697 7.51705C29.5752 7.76894 29.7873 8.02746 30.006 8.29261L34.6793 14H33.2674L29.4094 9.34659C29.0515 8.91572 28.7267 8.52462 28.435 8.1733C28.1433 7.82197 27.9113 7.47562 27.739 7.13423C27.5666 6.79285 27.4805 6.4233 27.4805 6.02557C27.4805 5.56818 27.5816 5.16714 27.7837 4.82244C27.9892 4.47443 28.2759 4.20431 28.6438 4.01207C29.015 3.81652 29.4492 3.71875 29.9464 3.71875C30.4568 3.71875 30.896 3.81818 31.2638 4.01705C31.6317 4.21259 31.9151 4.47277 32.114 4.79758C32.3129 5.11908 32.4123 5.46875 32.4123 5.84659C32.4123 6.33381 32.2913 6.75639 32.0494 7.11435C31.8074 7.4723 31.4776 7.8054 31.06 8.11364L29.0316 9.625C28.5742 9.96307 28.2643 10.2912 28.1019 10.6094C27.9395 10.9276 27.8583 11.1562 27.8583 11.2955C27.8583 11.6136 27.9412 11.9103 28.1069 12.1854C28.2726 12.4605 28.5063 12.6825 28.8079 12.8516C29.1095 13.0206 29.4625 13.1051 29.8668 13.1051C30.2513 13.1051 30.6258 13.0239 30.9904 12.8615C31.355 12.6958 31.6848 12.4571 31.9798 12.1456C32.2781 11.834 32.5134 11.4595 32.6857 11.022C32.8614 10.5845 32.9492 10.0923 32.9492 9.54545H34.0827C34.0827 10.2216 34.0049 10.7734 33.8491 11.201C33.6933 11.6286 33.5176 11.9633 33.3221 12.2053C33.1265 12.4472 32.9691 12.6278 32.8498 12.7472C32.81 12.7969 32.7736 12.8466 32.7404 12.8963C32.7073 12.946 32.6708 12.9957 32.631 13.0455C32.3029 13.4134 31.8886 13.6884 31.3881 13.8707C30.8877 14.0497 30.3938 14.1392 29.9066 14.1392ZM40.0748 14V3.81818H43.5151C44.3139 3.81818 44.9668 3.96236 45.4739 4.25071C45.9843 4.53575 46.3622 4.92188 46.6074 5.40909C46.8527 5.89631 46.9753 6.43987 46.9753 7.03977C46.9753 7.63968 46.8527 8.1849 46.6074 8.67543C46.3655 9.16596 45.9909 9.55705 45.4838 9.84872C44.9767 10.1371 44.3271 10.2812 43.535 10.2812H41.0691V9.1875H43.4952C44.0421 9.1875 44.4812 9.09304 44.8127 8.90412C45.1441 8.7152 45.3844 8.45999 45.5336 8.13849C45.686 7.81368 45.7623 7.44744 45.7623 7.03977C45.7623 6.6321 45.686 6.26752 45.5336 5.94602C45.3844 5.62453 45.1425 5.37263 44.8077 5.19034C44.473 5.00473 44.0288 4.91193 43.4753 4.91193H41.3077V14H40.0748ZM48.8024 14V6.36364H49.9359V7.51705H50.0154C50.1547 7.1392 50.4065 6.83262 50.7711 6.5973C51.1357 6.36198 51.5467 6.24432 52.0041 6.24432C52.0903 6.24432 52.198 6.24597 52.3272 6.24929C52.4565 6.2526 52.5543 6.25758 52.6206 6.2642V7.45739C52.5808 7.44744 52.4896 7.43253 52.3471 7.41264C52.2079 7.38944 52.0604 7.37784 51.9047 7.37784C51.5334 7.37784 51.202 7.45573 50.9103 7.61151C50.622 7.76397 50.3933 7.97609 50.2243 8.24787C50.0585 8.51634 49.9757 8.82292 49.9757 9.16761V14H48.8024ZM56.8812 14.1591C56.1918 14.1591 55.5869 13.995 55.0666 13.6669C54.5495 13.3388 54.1452 12.8797 53.8535 12.2898C53.5652 11.6998 53.421 11.0104 53.421 10.2216C53.421 9.42614 53.5652 8.73177 53.8535 8.13849C54.1452 7.54522 54.5495 7.08452 55.0666 6.75639C55.5869 6.42827 56.1918 6.2642 56.8812 6.2642C57.5706 6.2642 58.1738 6.42827 58.6909 6.75639C59.2112 7.08452 59.6156 7.54522 59.9039 8.13849C60.1956 8.73177 60.3414 9.42614 60.3414 10.2216C60.3414 11.0104 60.1956 11.6998 59.9039 12.2898C59.6156 12.8797 59.2112 13.3388 58.6909 13.6669C58.1738 13.995 57.5706 14.1591 56.8812 14.1591ZM56.8812 13.1051C57.4049 13.1051 57.8358 12.9709 58.1738 12.7024C58.5119 12.4339 58.7621 12.081 58.9245 11.6435C59.0869 11.206 59.1681 10.732 59.1681 10.2216C59.1681 9.71117 59.0869 9.23556 58.9245 8.79474C58.7621 8.35393 58.5119 7.99763 58.1738 7.72585C57.8358 7.45407 57.4049 7.31818 56.8812 7.31818C56.3575 7.31818 55.9267 7.45407 55.5886 7.72585C55.2505 7.99763 55.0003 8.35393 54.8379 8.79474C54.6755 9.23556 54.5943 9.71117 54.5943 10.2216C54.5943 10.732 54.6755 11.206 54.8379 11.6435C55.0003 12.081 55.2505 12.4339 55.5886 12.7024C55.9267 12.9709 56.3575 13.1051 56.8812 13.1051ZM62.2915 14V3.81818H63.4648V7.5767H63.5643C63.6504 7.44413 63.7698 7.27509 63.9222 7.0696C64.078 6.8608 64.3001 6.67519 64.5884 6.51278C64.8801 6.34706 65.2745 6.2642 65.7717 6.2642C66.4147 6.2642 66.9814 6.42495 67.4719 6.74645C67.9625 7.06794 68.3453 7.52367 68.6204 8.11364C68.8955 8.7036 69.033 9.39962 69.033 10.2017C69.033 11.0104 68.8955 11.7114 68.6204 12.3047C68.3453 12.8946 67.9641 13.352 67.4769 13.6768C66.9897 13.9983 66.4279 14.1591 65.7915 14.1591C65.301 14.1591 64.9083 14.0779 64.6133 13.9155C64.3183 13.7498 64.0913 13.5625 63.9322 13.3537C63.7731 13.1416 63.6504 12.9659 63.5643 12.8267H63.4251V14H62.2915ZM63.445 10.1818C63.445 10.7585 63.5295 11.2673 63.6985 11.7081C63.8675 12.1456 64.1145 12.4886 64.4393 12.7372C64.7641 12.9825 65.1618 13.1051 65.6325 13.1051C66.123 13.1051 66.5323 12.9759 66.8604 12.7173C67.1919 12.4555 67.4405 12.1042 67.6062 11.6634C67.7752 11.2192 67.8597 10.7254 67.8597 10.1818C67.8597 9.64489 67.7769 9.16098 67.6112 8.73011C67.4487 8.29593 67.2018 7.95289 66.8704 7.70099C66.5423 7.44579 66.1296 7.31818 65.6325 7.31818C65.1552 7.31818 64.7541 7.43916 64.4293 7.68111C64.1045 7.91974 63.8593 8.2545 63.6935 8.68537C63.5278 9.11293 63.445 9.61174 63.445 10.1818ZM70.8278 14V6.36364H72.0011V14H70.8278ZM71.4244 5.09091C71.1957 5.09091 70.9985 5.01302 70.8327 4.85724C70.6703 4.70147 70.5891 4.5142 70.5891 4.29545C70.5891 4.0767 70.6703 3.88944 70.8327 3.73366C70.9985 3.57789 71.1957 3.5 71.4244 3.5C71.6531 3.5 71.8486 3.57789 72.011 3.73366C72.1767 3.88944 72.2596 4.0767 72.2596 4.29545C72.2596 4.5142 72.1767 4.70147 72.011 4.85724C71.8486 5.01302 71.6531 5.09091 71.4244 5.09091ZM77.2523 14.1591C76.5629 14.1591 75.958 13.995 75.4377 13.6669C74.9206 13.3388 74.5163 12.8797 74.2246 12.2898C73.9363 11.6998 73.7921 11.0104 73.7921 10.2216C73.7921 9.42614 73.9363 8.73177 74.2246 8.13849C74.5163 7.54522 74.9206 7.08452 75.4377 6.75639C75.958 6.42827 76.5629 6.2642 77.2523 6.2642C77.9417 6.2642 78.5449 6.42827 79.062 6.75639C79.5823 7.08452 79.9867 7.54522 80.275 8.13849C80.5667 8.73177 80.7125 9.42614 80.7125 10.2216C80.7125 11.0104 80.5667 11.6998 80.275 12.2898C79.9867 12.8797 79.5823 13.3388 79.062 13.6669C78.5449 13.995 77.9417 14.1591 77.2523 14.1591ZM77.2523 13.1051C77.776 13.1051 78.2069 12.9709 78.5449 12.7024C78.883 12.4339 79.1332 12.081 79.2956 11.6435C79.458 11.206 79.5392 10.732 79.5392 10.2216C79.5392 9.71117 79.458 9.23556 79.2956 8.79474C79.1332 8.35393 78.883 7.99763 78.5449 7.72585C78.2069 7.45407 77.776 7.31818 77.2523 7.31818C76.7286 7.31818 76.2978 7.45407 75.9597 7.72585C75.6216 7.99763 75.3714 8.35393 75.209 8.79474C75.0466 9.23556 74.9654 9.71117 74.9654 10.2216C74.9654 10.732 75.0466 11.206 75.209 11.6435C75.3714 12.081 75.6216 12.4339 75.9597 12.7024C76.2978 12.9709 76.7286 13.1051 77.2523 13.1051ZM85.8246 6.36364V7.35795H81.8672V6.36364H85.8246ZM83.0206 4.53409H84.1939V11.8125C84.1939 12.1439 84.242 12.3925 84.3381 12.5582C84.4375 12.7206 84.5634 12.83 84.7159 12.8864C84.8717 12.9394 85.0357 12.9659 85.2081 12.9659C85.3374 12.9659 85.4434 12.9593 85.5263 12.946C85.6091 12.9295 85.6754 12.9162 85.7251 12.9062L85.9638 13.9602C85.8842 13.9901 85.7732 14.0199 85.6307 14.0497C85.4882 14.0829 85.3075 14.0994 85.0888 14.0994C84.7573 14.0994 84.4325 14.0282 84.1143 13.8857C83.7995 13.7431 83.5376 13.526 83.3288 13.2344C83.1233 12.9427 83.0206 12.5748 83.0206 12.1307V4.53409ZM87.5895 14V6.36364H88.7628V14H87.5895ZM88.1861 5.09091C87.9574 5.09091 87.7602 5.01302 87.5945 4.85724C87.4321 4.70147 87.3509 4.5142 87.3509 4.29545C87.3509 4.0767 87.4321 3.88944 87.5945 3.73366C87.7602 3.57789 87.9574 3.5 88.1861 3.5C88.4148 3.5 88.6103 3.57789 88.7727 3.73366C88.9384 3.88944 89.0213 4.0767 89.0213 4.29545C89.0213 4.5142 88.9384 4.70147 88.7727 4.85724C88.6103 5.01302 88.4148 5.09091 88.1861 5.09091ZM94.014 14.1591C93.2981 14.1591 92.6816 13.9901 92.1646 13.652C91.6475 13.3139 91.2498 12.8482 90.9714 12.255C90.693 11.6617 90.5538 10.9839 90.5538 10.2216C90.5538 9.44602 90.6963 8.7616 90.9814 8.16832C91.2697 7.57173 91.6708 7.10606 92.1845 6.77131C92.7015 6.43324 93.3047 6.2642 93.9941 6.2642C94.5311 6.2642 95.015 6.36364 95.4458 6.5625C95.8767 6.76136 96.2297 7.03977 96.5048 7.39773C96.7799 7.75568 96.9506 8.1733 97.0169 8.65057H95.8436C95.7541 8.30256 95.5552 7.99432 95.247 7.72585C94.9421 7.45407 94.5311 7.31818 94.014 7.31818C93.5566 7.31818 93.1556 7.4375 92.8109 7.67614C92.4695 7.91146 92.2027 8.24455 92.0105 8.67543C91.8216 9.10298 91.7271 9.60511 91.7271 10.1818C91.7271 10.7718 91.8199 11.2855 92.0055 11.723C92.1944 12.1605 92.4596 12.5002 92.801 12.7422C93.1457 12.9841 93.55 13.1051 94.014 13.1051C94.319 13.1051 94.5957 13.0521 94.8443 12.946C95.0929 12.84 95.3033 12.6875 95.4757 12.4886C95.648 12.2898 95.7707 12.0511 95.8436 11.7727H97.0169C96.9506 12.2235 96.7865 12.6295 96.5247 12.9908C96.2662 13.3487 95.9231 13.6338 95.4956 13.8459C95.0713 14.0547 94.5775 14.1591 94.014 14.1591ZM104.141 8.07386L103.087 8.37216C103.021 8.1965 102.923 8.0258 102.794 7.86009C102.668 7.69105 102.496 7.55185 102.277 7.44247C102.058 7.3331 101.778 7.27841 101.437 7.27841C100.969 7.27841 100.58 7.38613 100.268 7.60156C99.96 7.81368 99.8059 8.08381 99.8059 8.41193C99.8059 8.7036 99.912 8.93395 100.124 9.10298C100.336 9.27202 100.668 9.41288 101.118 9.52557L102.252 9.80398C102.935 9.9697 103.443 10.2232 103.778 10.5646C104.113 10.9027 104.28 11.3385 104.28 11.8722C104.28 12.3097 104.154 12.7008 103.903 13.0455C103.654 13.3902 103.306 13.6619 102.858 13.8608C102.411 14.0597 101.891 14.1591 101.297 14.1591C100.519 14.1591 99.8739 13.9901 99.3635 13.652C98.853 13.3139 98.5299 12.8201 98.394 12.1705L99.5076 11.892C99.6137 12.303 99.8142 12.6113 100.109 12.8168C100.407 13.0223 100.797 13.125 101.278 13.125C101.824 13.125 102.259 13.009 102.58 12.777C102.905 12.5417 103.067 12.2599 103.067 11.9318C103.067 11.6667 102.974 11.4446 102.789 11.2656C102.603 11.0833 102.318 10.9474 101.934 10.858L100.661 10.5597C99.9617 10.3939 99.448 10.1371 99.1199 9.78906C98.795 9.43774 98.6326 8.99858 98.6326 8.47159C98.6326 8.04072 98.7536 7.65956 98.9956 7.32812C99.2408 6.99669 99.5739 6.73651 99.9949 6.54758C100.419 6.35866 100.9 6.2642 101.437 6.2642C102.192 6.2642 102.786 6.42992 103.216 6.76136C103.651 7.0928 103.959 7.5303 104.141 8.07386Z" fill="#0B1A2B"/>
<path d="M225.464 9.05029C225.464 8.36051 225.535 7.63794 225.677 6.88257C225.818 6.1272 226.012 5.39933 226.257 4.69897C226.503 3.99862 226.784 3.38818 227.102 2.86768H228.212C227.887 3.53206 227.604 4.22396 227.365 4.94336C227.126 5.66276 226.943 6.37264 226.816 7.073C226.689 7.77336 226.625 8.43245 226.625 9.05029C226.625 9.61312 226.682 10.1823 226.794 10.7578C226.906 11.3333 227.079 11.9417 227.314 12.5828C227.549 13.2239 227.848 13.9211 228.212 14.6743H227.102C226.564 13.756 226.157 12.8208 225.88 11.8687C225.602 10.9165 225.464 9.97705 225.464 9.05029ZM232.853 13.627C232.235 13.627 231.687 13.5212 231.208 13.3096C230.73 13.098 230.351 12.8039 230.069 12.4272C229.788 12.0506 229.636 11.6126 229.615 11.1133H230.834C230.859 11.4137 230.962 11.6729 231.142 11.8909C231.322 12.1088 231.559 12.276 231.853 12.3923C232.147 12.5087 232.474 12.5669 232.833 12.5669C233.231 12.5669 233.584 12.4981 233.89 12.3606C234.197 12.2231 234.439 12.0295 234.617 11.7798C234.795 11.5301 234.884 11.2424 234.884 10.9165C234.884 10.5737 234.798 10.2722 234.627 10.012C234.455 9.75171 234.207 9.54753 233.881 9.39941C233.555 9.2513 233.157 9.17725 232.688 9.17725H231.919V8.12988H232.688C233.056 8.12988 233.38 8.06323 233.662 7.92993C233.943 7.79663 234.162 7.60938 234.319 7.36816C234.475 7.12695 234.554 6.84342 234.554 6.51758C234.554 6.20443 234.485 5.93148 234.347 5.69873C234.21 5.46598 234.014 5.28507 233.76 5.15601C233.506 5.02694 233.208 4.9624 232.865 4.9624C232.544 4.9624 232.242 5.02059 231.961 5.13696C231.679 5.25334 231.449 5.41943 231.269 5.63525C231.089 5.85107 230.993 6.11344 230.98 6.42236H229.818C229.835 5.92725 229.983 5.49137 230.263 5.11475C230.542 4.73812 230.911 4.44401 231.37 4.23242C231.83 4.02083 232.336 3.91504 232.891 3.91504C233.479 3.91504 233.986 4.03353 234.411 4.27051C234.836 4.50749 235.163 4.81852 235.392 5.20361C235.62 5.5887 235.734 6.00553 235.734 6.4541C235.734 6.9873 235.594 7.4401 235.312 7.8125C235.031 8.1849 234.649 8.44303 234.167 8.58691V8.66309C234.569 8.72656 234.912 8.86198 235.198 9.06934C235.484 9.27669 235.702 9.53906 235.852 9.85645C236.002 10.1738 236.077 10.5314 236.077 10.9292C236.077 11.4455 235.938 11.9067 235.658 12.313C235.379 12.7192 234.996 13.0398 234.509 13.2747C234.023 13.5095 233.47 13.627 232.853 13.627ZM237.613 11.5767V10.5928L241.752 4.04199H242.482V5.55273H241.993L238.902 10.4404V10.5166H244.5V11.5767H237.613ZM242.063 13.5V11.2847L242.069 10.8213V4.04199H243.218V13.5H242.063ZM245.859 14.6743C246.236 13.8999 246.54 13.19 246.773 12.5447C247.006 11.8993 247.176 11.291 247.284 10.7197C247.392 10.1484 247.446 9.59196 247.446 9.05029C247.446 8.43245 247.382 7.77336 247.255 7.073C247.128 6.37264 246.946 5.66276 246.709 4.94336C246.472 4.22396 246.189 3.53206 245.859 2.86768H246.97C247.287 3.38818 247.57 3.99862 247.817 4.69897C248.065 5.39933 248.258 6.12826 248.398 6.88574C248.538 7.64323 248.607 8.36475 248.607 9.05029C248.607 9.99398 248.467 10.9419 248.185 11.894C247.904 12.8462 247.499 13.7729 246.97 14.6743H245.859Z" fill="#8A9198"/>
</svg>
