<svg width="250" height="17" viewBox="0 0 250 17" fill="none" xmlns="http://www.w3.org/2000/svg">
<path d="M1.65057 3.81818L4.6733 12.3892H4.79261L7.81534 3.81818H9.10795L5.36932 14H4.09659L0.357955 3.81818H1.65057ZM10.5348 14V6.36364H11.7081V14H10.5348ZM11.1314 5.09091C10.9027 5.09091 10.7055 5.01302 10.5398 4.85724C10.3774 4.70147 10.2962 4.5142 10.2962 4.29545C10.2962 4.0767 10.3774 3.88944 10.5398 3.73366C10.7055 3.57789 10.9027 3.5 11.1314 3.5C11.3601 3.5 11.5556 3.57789 11.718 3.73366C11.8838 3.88944 11.9666 4.0767 11.9666 4.29545C11.9666 4.5142 11.8838 4.70147 11.718 4.85724C11.5556 5.01302 11.3601 5.09091 11.1314 5.09091ZM17.1781 6.36364V7.35795H13.2207V6.36364H17.1781ZM14.3741 4.53409H15.5474V11.8125C15.5474 12.1439 15.5955 12.3925 15.6916 12.5582C15.791 12.7206 15.917 12.83 16.0694 12.8864C16.2252 12.9394 16.3893 12.9659 16.5616 12.9659C16.6909 12.9659 16.7969 12.9593 16.8798 12.946C16.9627 12.9295 17.0289 12.9162 17.0787 12.9062L17.3173 13.9602C17.2377 13.9901 17.1267 14.0199 16.9842 14.0497C16.8417 14.0829 16.661 14.0994 16.4423 14.0994C16.1109 14.0994 15.786 14.0282 15.4679 13.8857C15.153 13.7431 14.8912 13.526 14.6824 13.2344C14.4769 12.9427 14.3741 12.5748 14.3741 12.1307V4.53409ZM21.1902 14.179C20.7063 14.179 20.2671 14.0878 19.8727 13.9055C19.4783 13.7199 19.1651 13.4531 18.9331 13.1051C18.7011 12.7538 18.585 12.3295 18.585 11.8324C18.585 11.3949 18.6712 11.0402 18.8436 10.7685C19.0159 10.4934 19.2463 10.2779 19.5346 10.1222C19.823 9.96638 20.1412 9.85038 20.4892 9.77415C20.8405 9.6946 21.1935 9.63163 21.5481 9.58523C22.0121 9.52557 22.3883 9.48082 22.6767 9.45099C22.9683 9.41785 23.1805 9.36316 23.313 9.28693C23.4489 9.2107 23.5169 9.07812 23.5169 8.8892V8.84943C23.5169 8.3589 23.3826 7.97775 23.1142 7.70597C22.849 7.43419 22.4463 7.2983 21.9061 7.2983C21.3459 7.2983 20.9068 7.42093 20.5886 7.66619C20.2704 7.91146 20.0467 8.1733 19.9174 8.4517L18.8038 8.05398C19.0027 7.58996 19.2678 7.22869 19.5993 6.97017C19.934 6.70833 20.2986 6.52604 20.693 6.4233C21.0907 6.31723 21.4818 6.2642 21.8663 6.2642C22.1116 6.2642 22.3933 6.29403 22.7115 6.35369C23.033 6.41004 23.3429 6.5277 23.6412 6.70668C23.9428 6.88565 24.193 7.15578 24.3919 7.51705C24.5907 7.87831 24.6902 8.36222 24.6902 8.96875V14H23.5169V12.9659H23.4572C23.3777 13.1316 23.2451 13.3089 23.0595 13.4979C22.8739 13.6868 22.627 13.8475 22.3187 13.9801C22.0105 14.1127 21.6343 14.179 21.1902 14.179ZM21.3691 13.125C21.8332 13.125 22.2243 13.0339 22.5424 12.8516C22.8639 12.6693 23.1059 12.4339 23.2683 12.1456C23.434 11.8572 23.5169 11.554 23.5169 11.2358V10.1619C23.4672 10.2216 23.3578 10.2763 23.1887 10.326C23.023 10.3724 22.8308 10.4138 22.612 10.4503C22.3966 10.4834 22.1861 10.5133 21.9806 10.5398C21.7785 10.563 21.6144 10.5829 21.4885 10.5994C21.1835 10.6392 20.8985 10.7038 20.6333 10.7933C20.3715 10.8795 20.1594 11.0104 19.997 11.1861C19.8379 11.3584 19.7583 11.5937 19.7583 11.892C19.7583 12.2997 19.9092 12.608 20.2108 12.8168C20.5157 13.0223 20.9018 13.125 21.3691 13.125ZM26.8317 14V6.36364H27.9652V7.55682H28.0646C28.2237 7.14915 28.4806 6.83262 28.8352 6.60724C29.1899 6.37855 29.6158 6.2642 30.1129 6.2642C30.6167 6.2642 31.036 6.37855 31.3707 6.60724C31.7088 6.83262 31.9723 7.14915 32.1612 7.55682H32.2408C32.4363 7.16241 32.7296 6.84919 33.1207 6.61719C33.5118 6.38187 33.9808 6.2642 34.5277 6.2642C35.2105 6.2642 35.7689 6.47798 36.2031 6.90554C36.6373 7.32978 36.8544 7.991 36.8544 8.8892V14H35.6811V8.8892C35.6811 8.32576 35.527 7.92306 35.2188 7.68111C34.9105 7.43916 34.5476 7.31818 34.13 7.31818C33.593 7.31818 33.1771 7.48059 32.8821 7.8054C32.5871 8.12689 32.4396 8.53456 32.4396 9.02841V14H31.2464V8.76989C31.2464 8.3357 31.1056 7.98603 30.8239 7.72088C30.5421 7.45241 30.1792 7.31818 29.7351 7.31818C29.4302 7.31818 29.1451 7.39938 28.88 7.56179C28.6181 7.72419 28.406 7.94957 28.2436 8.23793C28.0845 8.52296 28.005 8.85275 28.005 9.22727V14H26.8317ZM38.9996 14V6.36364H40.1729V14H38.9996ZM39.5962 5.09091C39.3675 5.09091 39.1703 5.01302 39.0046 4.85724C38.8422 4.70147 38.761 4.5142 38.761 4.29545C38.761 4.0767 38.8422 3.88944 39.0046 3.73366C39.1703 3.57789 39.3675 3.5 39.5962 3.5C39.8249 3.5 40.0205 3.57789 40.1829 3.73366C40.3486 3.88944 40.4315 4.0767 40.4315 4.29545C40.4315 4.5142 40.3486 4.70147 40.1829 4.85724C40.0205 5.01302 39.8249 5.09091 39.5962 5.09091ZM43.4952 9.40625V14H42.3219V6.36364H43.4554V7.55682H43.5549C43.7338 7.16903 44.0056 6.85748 44.3702 6.62216C44.7348 6.38352 45.2054 6.2642 45.7821 6.2642C46.2992 6.2642 46.7516 6.37027 47.1394 6.58239C47.5272 6.79119 47.8288 7.10938 48.0442 7.53693C48.2596 7.96117 48.3674 8.49811 48.3674 9.14773V14H47.1941V9.22727C47.1941 8.62737 47.0383 8.16004 46.7267 7.82528C46.4152 7.48722 45.9876 7.31818 45.4441 7.31818C45.0695 7.31818 44.7348 7.39938 44.4398 7.56179C44.1481 7.72419 43.9178 7.96117 43.7488 8.27273C43.5797 8.58428 43.4952 8.96212 43.4952 9.40625ZM62.8011 7H61.5682C61.4953 6.64536 61.3677 6.33381 61.1854 6.06534C61.0064 5.79688 60.7876 5.5715 60.5291 5.3892C60.2739 5.2036 59.9905 5.06439 59.679 4.97159C59.3674 4.87879 59.0426 4.83239 58.7045 4.83239C58.0881 4.83239 57.5296 4.98816 57.0291 5.29972C56.532 5.61127 56.1359 6.07031 55.8409 6.67685C55.5492 7.28338 55.4034 8.02746 55.4034 8.90909C55.4034 9.79072 55.5492 10.5348 55.8409 11.1413C56.1359 11.7479 56.532 12.2069 57.0291 12.5185C57.5296 12.83 58.0881 12.9858 58.7045 12.9858C59.0426 12.9858 59.3674 12.9394 59.679 12.8466C59.9905 12.7538 60.2739 12.6162 60.5291 12.4339C60.7876 12.2483 61.0064 12.0213 61.1854 11.7528C61.3677 11.4811 61.4953 11.1695 61.5682 10.8182H62.8011C62.7083 11.3385 62.5393 11.8042 62.294 12.2152C62.0488 12.6262 61.7438 12.9759 61.3793 13.2642C61.0147 13.5492 60.6054 13.7663 60.1513 13.9155C59.7005 14.0646 59.2183 14.1392 58.7045 14.1392C57.8362 14.1392 57.0639 13.9271 56.3878 13.5028C55.7116 13.0786 55.1797 12.4754 54.7919 11.6932C54.4041 10.911 54.2102 9.98295 54.2102 8.90909C54.2102 7.83523 54.4041 6.9072 54.7919 6.125C55.1797 5.3428 55.7116 4.73958 56.3878 4.31534C57.0639 3.8911 57.8362 3.67898 58.7045 3.67898C59.2183 3.67898 59.7005 3.75355 60.1513 3.9027C60.6054 4.05185 61.0147 4.2706 61.3793 4.55895C61.7438 4.84399 62.0488 5.192 62.294 5.60298C62.5393 6.01065 62.7083 6.47633 62.8011 7Z" fill="#0B1A2B"/>
<path d="M226.134 9.05029C226.134 8.36051 226.205 7.63794 226.346 6.88257C226.488 6.1272 226.682 5.39933 226.927 4.69897C227.173 3.99862 227.454 3.38818 227.771 2.86768H228.882C228.556 3.53206 228.274 4.22396 228.035 4.94336C227.796 5.66276 227.613 6.37264 227.486 7.073C227.359 7.77336 227.295 8.43245 227.295 9.05029C227.295 9.61312 227.351 10.1823 227.464 10.7578C227.576 11.3333 227.749 11.9417 227.984 12.5828C228.219 13.2239 228.518 13.9211 228.882 14.6743H227.771C227.234 13.756 226.827 12.8208 226.55 11.8687C226.272 10.9165 226.134 9.97705 226.134 9.05029ZM233.51 13.627C232.871 13.627 232.307 13.5138 231.818 13.2874C231.329 13.061 230.948 12.7489 230.676 12.3511C230.403 11.9533 230.266 11.4984 230.266 10.9863C230.266 10.5885 230.347 10.2193 230.507 9.87866C230.668 9.538 230.888 9.25342 231.167 9.0249C231.447 8.79639 231.762 8.65039 232.113 8.58691V8.53613C231.652 8.41764 231.286 8.16162 231.015 7.76807C230.744 7.37451 230.609 6.92806 230.609 6.42871C230.609 5.94629 230.734 5.51571 230.983 5.13696C231.233 4.75822 231.576 4.45988 232.012 4.24194C232.448 4.02401 232.947 3.91504 233.51 3.91504C234.064 3.91504 234.559 4.02401 234.995 4.24194C235.431 4.45988 235.775 4.75822 236.027 5.13696C236.278 5.51571 236.404 5.94629 236.404 6.42871C236.404 6.92806 236.268 7.37451 235.995 7.76807C235.722 8.16162 235.361 8.41764 234.913 8.53613V8.58691C235.255 8.65039 235.566 8.79639 235.846 9.0249C236.125 9.25342 236.347 9.538 236.512 9.87866C236.677 10.2193 236.76 10.5885 236.76 10.9863C236.76 11.4984 236.621 11.9533 236.344 12.3511C236.067 12.7489 235.684 13.061 235.195 13.2874C234.706 13.5138 234.145 13.627 233.51 13.627ZM233.51 12.5796C233.929 12.5796 234.291 12.5108 234.595 12.3733C234.9 12.2358 235.136 12.0432 235.303 11.7957C235.47 11.5481 235.554 11.2572 235.554 10.9229C235.554 10.5716 235.465 10.2616 235.287 9.99292C235.109 9.7242 234.866 9.51261 234.557 9.35815C234.248 9.20369 233.899 9.12646 233.51 9.12646C233.112 9.12646 232.759 9.20369 232.45 9.35815C232.141 9.51261 231.897 9.7242 231.72 9.99292C231.542 10.2616 231.453 10.5716 231.453 10.9229C231.453 11.2572 231.536 11.5481 231.701 11.7957C231.866 12.0432 232.103 12.2358 232.412 12.3733C232.721 12.5108 233.087 12.5796 233.51 12.5796ZM233.51 8.11719C233.844 8.11719 234.14 8.05054 234.398 7.91724C234.657 7.78394 234.861 7.59668 235.011 7.35547C235.161 7.11426 235.236 6.83496 235.236 6.51758C235.236 6.2002 235.164 5.92513 235.021 5.69238C234.877 5.45964 234.675 5.27873 234.414 5.14966C234.154 5.02059 233.853 4.95605 233.51 4.95605C233.163 4.95605 232.859 5.02059 232.599 5.14966C232.339 5.27873 232.137 5.45964 231.993 5.69238C231.849 5.92513 231.777 6.2002 231.777 6.51758C231.777 6.83496 231.85 7.11426 231.996 7.35547C232.142 7.59668 232.346 7.78394 232.608 7.91724C232.871 8.05054 233.171 8.11719 233.51 8.11719ZM241.317 13.627C240.763 13.627 240.266 13.518 239.826 13.3C239.386 13.0821 239.034 12.7838 238.772 12.405C238.51 12.0263 238.368 11.5957 238.347 11.1133H239.515C239.54 11.3926 239.635 11.6423 239.8 11.8623C239.965 12.0824 240.18 12.2548 240.445 12.3796C240.709 12.5045 241 12.5669 241.317 12.5669C241.698 12.5669 242.038 12.478 242.336 12.3003C242.635 12.1226 242.868 11.8771 243.038 11.564C243.207 11.2508 243.292 10.8953 243.292 10.4976C243.292 10.0913 243.203 9.72738 243.025 9.40576C242.847 9.08415 242.605 8.8313 242.298 8.64722C241.991 8.46313 241.639 8.37109 241.241 8.37109C240.949 8.37109 240.653 8.41764 240.353 8.51074C240.052 8.60384 239.809 8.72233 239.623 8.86621L238.493 8.72656L239.051 4.04199H244.028V5.10205H240.067L239.743 7.86328H239.794C239.989 7.70247 240.234 7.57023 240.53 7.46655C240.826 7.36287 241.138 7.31104 241.463 7.31104C241.895 7.31104 242.294 7.38932 242.66 7.5459C243.026 7.70247 243.344 7.92358 243.615 8.20923C243.886 8.49487 244.097 8.83024 244.247 9.21533C244.397 9.60042 244.472 10.0215 244.472 10.4785C244.472 11.0837 244.336 11.6232 244.063 12.0972C243.79 12.5711 243.416 12.9446 242.942 13.2175C242.468 13.4905 241.927 13.627 241.317 13.627ZM245.856 14.6743C246.233 13.8999 246.537 13.19 246.77 12.5447C247.003 11.8993 247.173 11.291 247.281 10.7197C247.389 10.1484 247.443 9.59196 247.443 9.05029C247.443 8.43245 247.379 7.77336 247.252 7.073C247.125 6.37264 246.944 5.66276 246.707 4.94336C246.47 4.22396 246.186 3.53206 245.856 2.86768H246.967C247.284 3.38818 247.567 3.99862 247.814 4.69897C248.062 5.39933 248.255 6.12826 248.395 6.88574C248.535 7.64323 248.604 8.36475 248.604 9.05029C248.604 9.99398 248.464 10.9419 248.182 11.894C247.901 12.8462 247.496 13.7729 246.967 14.6743H245.856Z" fill="#8A9198"/>
</svg>
