<svg width="250" height="17" viewBox="0 0 250 17" fill="none" xmlns="http://www.w3.org/2000/svg">
<path d="M1.65057 3.81818L4.6733 12.3892H4.79261L7.81534 3.81818H9.10795L5.36932 14H4.09659L0.357955 3.81818H1.65057ZM10.5348 14V6.36364H11.7081V14H10.5348ZM11.1314 5.09091C10.9027 5.09091 10.7055 5.01302 10.5398 4.85724C10.3774 4.70147 10.2962 4.5142 10.2962 4.29545C10.2962 4.0767 10.3774 3.88944 10.5398 3.73366C10.7055 3.57789 10.9027 3.5 11.1314 3.5C11.3601 3.5 11.5556 3.57789 11.718 3.73366C11.8838 3.88944 11.9666 4.0767 11.9666 4.29545C11.9666 4.5142 11.8838 4.70147 11.718 4.85724C11.5556 5.01302 11.3601 5.09091 11.1314 5.09091ZM17.1781 6.36364V7.35795H13.2207V6.36364H17.1781ZM14.3741 4.53409H15.5474V11.8125C15.5474 12.1439 15.5955 12.3925 15.6916 12.5582C15.791 12.7206 15.917 12.83 16.0694 12.8864C16.2252 12.9394 16.3893 12.9659 16.5616 12.9659C16.6909 12.9659 16.7969 12.9593 16.8798 12.946C16.9627 12.9295 17.0289 12.9162 17.0787 12.9062L17.3173 13.9602C17.2377 13.9901 17.1267 14.0199 16.9842 14.0497C16.8417 14.0829 16.661 14.0994 16.4423 14.0994C16.1109 14.0994 15.786 14.0282 15.4679 13.8857C15.153 13.7431 14.8912 13.526 14.6824 13.2344C14.4769 12.9427 14.3741 12.5748 14.3741 12.1307V4.53409ZM21.1902 14.179C20.7063 14.179 20.2671 14.0878 19.8727 13.9055C19.4783 13.7199 19.1651 13.4531 18.9331 13.1051C18.7011 12.7538 18.585 12.3295 18.585 11.8324C18.585 11.3949 18.6712 11.0402 18.8436 10.7685C19.0159 10.4934 19.2463 10.2779 19.5346 10.1222C19.823 9.96638 20.1412 9.85038 20.4892 9.77415C20.8405 9.6946 21.1935 9.63163 21.5481 9.58523C22.0121 9.52557 22.3883 9.48082 22.6767 9.45099C22.9683 9.41785 23.1805 9.36316 23.313 9.28693C23.4489 9.2107 23.5169 9.07812 23.5169 8.8892V8.84943C23.5169 8.3589 23.3826 7.97775 23.1142 7.70597C22.849 7.43419 22.4463 7.2983 21.9061 7.2983C21.3459 7.2983 20.9068 7.42093 20.5886 7.66619C20.2704 7.91146 20.0467 8.1733 19.9174 8.4517L18.8038 8.05398C19.0027 7.58996 19.2678 7.22869 19.5993 6.97017C19.934 6.70833 20.2986 6.52604 20.693 6.4233C21.0907 6.31723 21.4818 6.2642 21.8663 6.2642C22.1116 6.2642 22.3933 6.29403 22.7115 6.35369C23.033 6.41004 23.3429 6.5277 23.6412 6.70668C23.9428 6.88565 24.193 7.15578 24.3919 7.51705C24.5907 7.87831 24.6902 8.36222 24.6902 8.96875V14H23.5169V12.9659H23.4572C23.3777 13.1316 23.2451 13.3089 23.0595 13.4979C22.8739 13.6868 22.627 13.8475 22.3187 13.9801C22.0105 14.1127 21.6343 14.179 21.1902 14.179ZM21.3691 13.125C21.8332 13.125 22.2243 13.0339 22.5424 12.8516C22.8639 12.6693 23.1059 12.4339 23.2683 12.1456C23.434 11.8572 23.5169 11.554 23.5169 11.2358V10.1619C23.4672 10.2216 23.3578 10.2763 23.1887 10.326C23.023 10.3724 22.8308 10.4138 22.612 10.4503C22.3966 10.4834 22.1861 10.5133 21.9806 10.5398C21.7785 10.563 21.6144 10.5829 21.4885 10.5994C21.1835 10.6392 20.8985 10.7038 20.6333 10.7933C20.3715 10.8795 20.1594 11.0104 19.997 11.1861C19.8379 11.3584 19.7583 11.5937 19.7583 11.892C19.7583 12.2997 19.9092 12.608 20.2108 12.8168C20.5157 13.0223 20.9018 13.125 21.3691 13.125ZM26.8317 14V6.36364H27.9652V7.55682H28.0646C28.2237 7.14915 28.4806 6.83262 28.8352 6.60724C29.1899 6.37855 29.6158 6.2642 30.1129 6.2642C30.6167 6.2642 31.036 6.37855 31.3707 6.60724C31.7088 6.83262 31.9723 7.14915 32.1612 7.55682H32.2408C32.4363 7.16241 32.7296 6.84919 33.1207 6.61719C33.5118 6.38187 33.9808 6.2642 34.5277 6.2642C35.2105 6.2642 35.7689 6.47798 36.2031 6.90554C36.6373 7.32978 36.8544 7.991 36.8544 8.8892V14H35.6811V8.8892C35.6811 8.32576 35.527 7.92306 35.2188 7.68111C34.9105 7.43916 34.5476 7.31818 34.13 7.31818C33.593 7.31818 33.1771 7.48059 32.8821 7.8054C32.5871 8.12689 32.4396 8.53456 32.4396 9.02841V14H31.2464V8.76989C31.2464 8.3357 31.1056 7.98603 30.8239 7.72088C30.5421 7.45241 30.1792 7.31818 29.7351 7.31818C29.4302 7.31818 29.1451 7.39938 28.88 7.56179C28.6181 7.72419 28.406 7.94957 28.2436 8.23793C28.0845 8.52296 28.005 8.85275 28.005 9.22727V14H26.8317ZM38.9996 14V6.36364H40.1729V14H38.9996ZM39.5962 5.09091C39.3675 5.09091 39.1703 5.01302 39.0046 4.85724C38.8422 4.70147 38.761 4.5142 38.761 4.29545C38.761 4.0767 38.8422 3.88944 39.0046 3.73366C39.1703 3.57789 39.3675 3.5 39.5962 3.5C39.8249 3.5 40.0205 3.57789 40.1829 3.73366C40.3486 3.88944 40.4315 4.0767 40.4315 4.29545C40.4315 4.5142 40.3486 4.70147 40.1829 4.85724C40.0205 5.01302 39.8249 5.09091 39.5962 5.09091ZM43.4952 9.40625V14H42.3219V6.36364H43.4554V7.55682H43.5549C43.7338 7.16903 44.0056 6.85748 44.3702 6.62216C44.7348 6.38352 45.2054 6.2642 45.7821 6.2642C46.2992 6.2642 46.7516 6.37027 47.1394 6.58239C47.5272 6.79119 47.8288 7.10938 48.0442 7.53693C48.2596 7.96117 48.3674 8.49811 48.3674 9.14773V14H47.1941V9.22727C47.1941 8.62737 47.0383 8.16004 46.7267 7.82528C46.4152 7.48722 45.9876 7.31818 45.4441 7.31818C45.0695 7.31818 44.7348 7.39938 44.4398 7.56179C44.1481 7.72419 43.9178 7.96117 43.7488 8.27273C43.5797 8.58428 43.4952 8.96212 43.4952 9.40625ZM57.75 14H54.608V3.81818H57.8892C58.8769 3.81818 59.7221 4.02202 60.4247 4.42969C61.1274 4.83404 61.666 5.41572 62.0405 6.17472C62.415 6.9304 62.6023 7.83523 62.6023 8.8892C62.6023 9.94981 62.4134 10.8629 62.0355 11.6286C61.6577 12.3909 61.1075 12.9775 60.3849 13.3885C59.6624 13.7962 58.7841 14 57.75 14ZM55.8409 12.9062H57.6705C58.5123 12.9062 59.21 12.7438 59.7635 12.419C60.317 12.0942 60.7296 11.6319 61.0014 11.032C61.2732 10.4321 61.4091 9.7178 61.4091 8.8892C61.4091 8.06723 61.2749 7.35961 61.0064 6.76633C60.7379 6.16974 60.3369 5.71236 59.8033 5.39418C59.2696 5.07268 58.6051 4.91193 57.8097 4.91193H55.8409V12.9062Z" fill="#0B1A2B"/>
<path d="M225.904 9.05029C225.904 8.36051 225.975 7.63794 226.116 6.88257C226.258 6.1272 226.452 5.39933 226.697 4.69897C226.943 3.99862 227.224 3.38818 227.542 2.86768H228.652C228.326 3.53206 228.044 4.22396 227.805 4.94336C227.566 5.66276 227.383 6.37264 227.256 7.073C227.129 7.77336 227.065 8.43245 227.065 9.05029C227.065 9.61312 227.122 10.1823 227.234 10.7578C227.346 11.3333 227.519 11.9417 227.754 12.5828C227.989 13.2239 228.288 13.9211 228.652 14.6743H227.542C227.004 13.756 226.597 12.8208 226.32 11.8687C226.042 10.9165 225.904 9.97705 225.904 9.05029ZM233.362 13.627C232.969 13.627 232.575 13.555 232.182 13.4111C231.788 13.2673 231.429 13.026 231.106 12.6875C230.782 12.349 230.523 11.8898 230.328 11.3101C230.133 10.7303 230.036 10.0046 230.036 9.13281C230.036 8.29915 230.115 7.55965 230.274 6.91431C230.433 6.26896 230.663 5.72306 230.966 5.27661C231.269 4.83016 231.634 4.49162 232.061 4.26099C232.488 4.03035 232.971 3.91504 233.508 3.91504C234.037 3.91504 234.511 4.02083 234.93 4.23242C235.349 4.44401 235.692 4.73812 235.958 5.11475C236.225 5.49137 236.396 5.92725 236.473 6.42236H235.292C235.186 6.01188 234.985 5.66911 234.689 5.39404C234.393 5.11898 233.999 4.98145 233.508 4.98145C233.026 4.98145 232.61 5.12321 232.261 5.40674C231.912 5.69027 231.644 6.09969 231.458 6.63501C231.272 7.17033 231.179 7.81673 231.179 8.57422H231.255C231.424 8.31185 231.627 8.08651 231.864 7.89819C232.101 7.70988 232.366 7.566 232.658 7.46655C232.95 7.36711 233.259 7.31738 233.584 7.31738C234.126 7.31738 234.621 7.45068 235.07 7.71729C235.518 7.98389 235.877 8.35311 236.146 8.82495C236.414 9.29679 236.549 9.8374 236.549 10.4468C236.549 11.035 236.418 11.5693 236.155 12.0496C235.893 12.5299 235.523 12.9128 235.044 13.1985C234.566 13.4841 234.006 13.627 233.362 13.627ZM233.362 12.5669C233.743 12.5669 234.086 12.4717 234.391 12.2812C234.695 12.0908 234.937 11.8359 235.114 11.5164C235.292 11.1969 235.381 10.8403 235.381 10.4468C235.381 10.0617 235.295 9.71151 235.124 9.39624C234.952 9.08097 234.716 8.83024 234.416 8.64404C234.116 8.45785 233.775 8.36475 233.394 8.36475C233.106 8.36475 232.839 8.42082 232.591 8.53296C232.344 8.6451 232.127 8.79956 231.94 8.99634C231.754 9.19312 231.609 9.4174 231.506 9.66919C231.402 9.92098 231.35 10.1844 231.35 10.4595C231.35 10.8319 231.437 11.1778 231.61 11.4973C231.784 11.8168 232.023 12.075 232.328 12.2717C232.632 12.4685 232.977 12.5669 233.362 12.5669ZM238.301 13.5V12.6304L241.443 9.22168C241.794 8.84082 242.086 8.50651 242.319 8.21875C242.552 7.93099 242.727 7.65698 242.846 7.39673C242.964 7.13647 243.023 6.86035 243.023 6.56836C243.023 6.23828 242.945 5.95264 242.789 5.71143C242.632 5.47021 242.42 5.28507 242.154 5.15601C241.887 5.02694 241.585 4.9624 241.246 4.9624C240.886 4.9624 240.574 5.0354 240.31 5.1814C240.045 5.32739 239.841 5.53263 239.697 5.79712C239.553 6.0616 239.481 6.37158 239.481 6.72705H238.326C238.326 6.16846 238.455 5.67757 238.713 5.25439C238.972 4.83122 239.323 4.5022 239.767 4.26733C240.211 4.03247 240.715 3.91504 241.278 3.91504C241.841 3.91504 242.339 4.03247 242.773 4.26733C243.206 4.5022 243.547 4.81852 243.795 5.21631C244.042 5.6141 244.166 6.06055 244.166 6.55566C244.166 6.89844 244.105 7.23169 243.982 7.55542C243.859 7.87915 243.643 8.24626 243.334 8.65674C243.026 9.06722 242.592 9.56868 242.033 10.1611L239.964 12.3638V12.4399H244.325V13.5H238.301ZM245.861 14.6743C246.237 13.8999 246.542 13.19 246.775 12.5447C247.008 11.8993 247.178 11.291 247.286 10.7197C247.394 10.1484 247.448 9.59196 247.448 9.05029C247.448 8.43245 247.384 7.77336 247.257 7.073C247.13 6.37264 246.948 5.66276 246.711 4.94336C246.474 4.22396 246.191 3.53206 245.861 2.86768H246.972C247.289 3.38818 247.572 3.99862 247.819 4.69897C248.067 5.39933 248.26 6.12826 248.4 6.88574C248.54 7.64323 248.609 8.36475 248.609 9.05029C248.609 9.99398 248.469 10.9419 248.187 11.894C247.906 12.8462 247.501 13.7729 246.972 14.6743H245.861Z" fill="#8A9198"/>
</svg>
