<svg width="382" height="48" viewBox="0 0 382 48" fill="none" xmlns="http://www.w3.org/2000/svg">
<path d="M4.53835 21L0.37642 6.45455H3.7358L6.14347 16.5611H6.2642L8.92045 6.45455H11.7969L14.446 16.5824H14.5739L16.9815 6.45455H20.3409L16.179 21H13.1818L10.4119 11.4901H10.2983L7.53551 21H4.53835ZM25.7298 21.2131C24.6076 21.2131 23.6417 20.9858 22.832 20.5312C22.0271 20.072 21.4068 19.4233 20.9712 18.5852C20.5356 17.7424 20.3178 16.7457 20.3178 15.5952C20.3178 14.473 20.5356 13.4882 20.9712 12.6406C21.4068 11.7931 22.02 11.1326 22.8107 10.6591C23.6062 10.1856 24.5389 9.94886 25.609 9.94886C26.3287 9.94886 26.9987 10.0649 27.619 10.2969C28.244 10.5241 28.7885 10.8674 29.2525 11.3267C29.7212 11.786 30.0858 12.3636 30.3462 13.0597C30.6067 13.7509 30.7369 14.5606 30.7369 15.4886V16.3196H21.5252V14.4446H27.8888C27.8888 14.009 27.7942 13.6231 27.6048 13.2869C27.4154 12.9508 27.1526 12.688 26.8164 12.4986C26.485 12.3045 26.0991 12.2074 25.6587 12.2074C25.1995 12.2074 24.7923 12.3139 24.4371 12.527C24.0868 12.7353 23.8121 13.017 23.6133 13.3722C23.4144 13.7225 23.3126 14.1132 23.3079 14.544V16.3267C23.3079 16.8665 23.4073 17.3329 23.6062 17.7259C23.8098 18.1188 24.0962 18.4219 24.4656 18.6349C24.8349 18.848 25.2728 18.9545 25.7795 18.9545C26.1156 18.9545 26.4234 18.9072 26.7028 18.8125C26.9821 18.7178 27.2212 18.5758 27.4201 18.3864C27.619 18.197 27.7705 17.965 27.8746 17.6903L30.6729 17.875C30.5309 18.5473 30.2397 19.1345 29.7994 19.6364C29.3638 20.1335 28.8003 20.5218 28.109 20.8011C27.4225 21.0758 26.6294 21.2131 25.7298 21.2131ZM35.7369 6.45455V21H32.7113V6.45455H35.7369ZM43.0895 21.2131C41.9721 21.2131 41.0109 20.9763 40.206 20.5028C39.4058 20.0246 38.7902 19.3617 38.3594 18.5142C37.9332 17.6667 37.7202 16.6913 37.7202 15.5881C37.7202 14.4706 37.9356 13.4905 38.3665 12.6477C38.8021 11.8002 39.42 11.1397 40.2202 10.6662C41.0204 10.188 41.9721 9.94886 43.0753 9.94886C44.027 9.94886 44.8603 10.1217 45.5753 10.4673C46.2902 10.813 46.8561 11.2983 47.2727 11.9233C47.6894 12.5483 47.919 13.2822 47.9616 14.125H45.1065C45.026 13.5805 44.813 13.1425 44.4673 12.8111C44.1264 12.4749 43.679 12.3068 43.125 12.3068C42.6562 12.3068 42.2467 12.4347 41.8963 12.6903C41.5507 12.9413 41.2808 13.3082 41.0866 13.7912C40.8925 14.2741 40.7955 14.8589 40.7955 15.5455C40.7955 16.2415 40.8902 16.8333 41.0795 17.321C41.2737 17.8087 41.5459 18.1804 41.8963 18.4361C42.2467 18.6918 42.6562 18.8196 43.125 18.8196C43.4706 18.8196 43.7808 18.7486 44.0554 18.6065C44.3348 18.4645 44.5644 18.2585 44.7443 17.9886C44.929 17.714 45.0497 17.3849 45.1065 17.0014H47.9616C47.9143 17.8348 47.687 18.5687 47.2798 19.2031C46.8774 19.8329 46.321 20.3253 45.6108 20.6804C44.9006 21.0355 44.0601 21.2131 43.0895 21.2131ZM54.8278 21.2131C53.7246 21.2131 52.7705 20.9787 51.9656 20.5099C51.1654 20.0365 50.5475 19.3783 50.1119 18.5355C49.6763 17.688 49.4585 16.7055 49.4585 15.5881C49.4585 14.4612 49.6763 13.4763 50.1119 12.6335C50.5475 11.786 51.1654 11.1278 51.9656 10.6591C52.7705 10.1856 53.7246 9.94886 54.8278 9.94886C55.931 9.94886 56.8827 10.1856 57.6829 10.6591C58.4878 11.1278 59.1081 11.786 59.5437 12.6335C59.9793 13.4763 60.1971 14.4612 60.1971 15.5881C60.1971 16.7055 59.9793 17.688 59.5437 18.5355C59.1081 19.3783 58.4878 20.0365 57.6829 20.5099C56.8827 20.9787 55.931 21.2131 54.8278 21.2131ZM54.842 18.8693C55.3439 18.8693 55.7629 18.7273 56.0991 18.4432C56.4353 18.1544 56.6886 17.7614 56.859 17.2642C57.0342 16.767 57.1218 16.2012 57.1218 15.5668C57.1218 14.9323 57.0342 14.3665 56.859 13.8693C56.6886 13.3722 56.4353 12.9792 56.0991 12.6903C55.7629 12.4015 55.3439 12.2571 54.842 12.2571C54.3353 12.2571 53.9092 12.4015 53.5636 12.6903C53.2227 12.9792 52.9646 13.3722 52.7894 13.8693C52.619 14.3665 52.5337 14.9323 52.5337 15.5668C52.5337 16.2012 52.619 16.767 52.7894 17.2642C52.9646 17.7614 53.2227 18.1544 53.5636 18.4432C53.9092 18.7273 54.3353 18.8693 54.842 18.8693ZM62.1644 21V10.0909H65.0479V12.0156H65.1758C65.4031 11.3764 65.7818 10.8722 66.3121 10.5028C66.8424 10.1335 67.4769 9.94886 68.2156 9.94886C68.9637 9.94886 69.6005 10.1359 70.1261 10.5099C70.6516 10.8793 71.002 11.3812 71.1772 12.0156H71.2908C71.5134 11.3906 71.9158 10.8911 72.4982 10.517C73.0853 10.1383 73.779 9.94886 74.5792 9.94886C75.5972 9.94886 76.4234 10.2732 77.0579 10.9219C77.6971 11.5658 78.0167 12.4796 78.0167 13.6634V21H74.9982V14.2599C74.9982 13.6539 74.8372 13.1993 74.5153 12.8963C74.1933 12.5933 73.7908 12.4418 73.3079 12.4418C72.7586 12.4418 72.3301 12.617 72.0224 12.9673C71.7146 13.313 71.5607 13.7699 71.5607 14.3381V21H68.6275V14.196C68.6275 13.661 68.4736 13.2348 68.1658 12.9176C67.8628 12.6004 67.4627 12.4418 66.9656 12.4418C66.6294 12.4418 66.3263 12.527 66.0565 12.6974C65.7913 12.8632 65.5806 13.0975 65.4244 13.4006C65.2681 13.6989 65.19 14.0492 65.19 14.4517V21H62.1644ZM85.3782 21.2131C84.256 21.2131 83.2901 20.9858 82.4805 20.5312C81.6755 20.072 81.0553 19.4233 80.6197 18.5852C80.1841 17.7424 79.9663 16.7457 79.9663 15.5952C79.9663 14.473 80.1841 13.4882 80.6197 12.6406C81.0553 11.7931 81.6684 11.1326 82.4592 10.6591C83.2546 10.1856 84.1874 9.94886 85.2575 9.94886C85.9772 9.94886 86.6471 10.0649 87.2674 10.2969C87.8924 10.5241 88.4369 10.8674 88.9009 11.3267C89.3697 11.786 89.7343 12.3636 89.9947 13.0597C90.2551 13.7509 90.3853 14.5606 90.3853 15.4886V16.3196H81.1737V14.4446H87.5373C87.5373 14.009 87.4426 13.6231 87.2532 13.2869C87.0638 12.9508 86.801 12.688 86.4648 12.4986C86.1334 12.3045 85.7475 12.2074 85.3072 12.2074C84.8479 12.2074 84.4407 12.3139 84.0856 12.527C83.7352 12.7353 83.4606 13.017 83.2617 13.3722C83.0629 13.7225 82.9611 14.1132 82.9563 14.544V16.3267C82.9563 16.8665 83.0558 17.3329 83.2546 17.7259C83.4582 18.1188 83.7447 18.4219 84.114 18.6349C84.4833 18.848 84.9213 18.9545 85.4279 18.9545C85.7641 18.9545 86.0719 18.9072 86.3512 18.8125C86.6306 18.7178 86.8697 18.5758 87.0685 18.3864C87.2674 18.197 87.4189 17.965 87.5231 17.6903L90.3214 17.875C90.1793 18.5473 89.8881 19.1345 89.4478 19.6364C89.0122 20.1335 88.4487 20.5218 87.7575 20.8011C87.0709 21.0758 86.2778 21.2131 85.3782 21.2131ZM97.0455 21V6.45455H102.869C103.939 6.45455 104.832 6.61316 105.547 6.9304C106.262 7.24763 106.799 7.68797 107.159 8.25142C107.519 8.81013 107.699 9.45407 107.699 10.1832C107.699 10.7514 107.585 11.2509 107.358 11.6818C107.131 12.108 106.818 12.4583 106.42 12.733C106.027 13.0028 105.578 13.1946 105.071 13.3082V13.4503C105.625 13.474 106.143 13.6302 106.626 13.919C107.114 14.2079 107.509 14.6127 107.812 15.1335C108.116 15.6496 108.267 16.2652 108.267 16.9801C108.267 17.7519 108.075 18.4408 107.692 19.0469C107.313 19.6482 106.752 20.1241 106.009 20.4744C105.265 20.8248 104.349 21 103.26 21H97.0455ZM100.121 18.4858H102.628C103.485 18.4858 104.11 18.3224 104.503 17.9957C104.896 17.6643 105.092 17.224 105.092 16.6747C105.092 16.2723 104.995 15.9171 104.801 15.6094C104.607 15.3016 104.33 15.0601 103.97 14.8849C103.615 14.7098 103.191 14.6222 102.699 14.6222H100.121V18.4858ZM100.121 12.5412H102.401C102.822 12.5412 103.196 12.4678 103.523 12.321C103.854 12.1695 104.115 11.9564 104.304 11.6818C104.498 11.4072 104.595 11.0781 104.595 10.6946C104.595 10.169 104.408 9.74527 104.034 9.4233C103.665 9.10133 103.139 8.94034 102.457 8.94034H100.121V12.5412ZM113.322 21.206C112.626 21.206 112.006 21.0852 111.461 20.8438C110.917 20.5975 110.486 20.2353 110.169 19.7571C109.856 19.2741 109.7 18.6728 109.7 17.9531C109.7 17.3471 109.811 16.8381 110.034 16.4261C110.256 16.0142 110.559 15.6828 110.943 15.4318C111.326 15.1809 111.762 14.9915 112.25 14.8636C112.742 14.7358 113.258 14.6458 113.798 14.5938C114.432 14.5275 114.944 14.4659 115.332 14.4091C115.72 14.3475 116.002 14.2576 116.177 14.1392C116.352 14.0208 116.44 13.8456 116.44 13.6136V13.571C116.44 13.1212 116.298 12.7732 116.014 12.527C115.734 12.2808 115.337 12.1577 114.821 12.1577C114.276 12.1577 113.843 12.2784 113.521 12.5199C113.199 12.7566 112.986 13.0549 112.882 13.4148L110.083 13.1875C110.225 12.5246 110.505 11.9517 110.922 11.4688C111.338 10.9811 111.876 10.607 112.534 10.3466C113.197 10.0814 113.964 9.94886 114.835 9.94886C115.441 9.94886 116.021 10.0199 116.575 10.1619C117.134 10.304 117.628 10.5241 118.059 10.8224C118.495 11.1207 118.838 11.5043 119.089 11.973C119.34 12.437 119.466 12.9934 119.466 13.642V21H116.596V19.4872H116.511C116.336 19.8281 116.101 20.1288 115.808 20.3892C115.514 20.6449 115.162 20.8461 114.75 20.9929C114.338 21.1349 113.862 21.206 113.322 21.206ZM114.189 19.1179C114.634 19.1179 115.027 19.0303 115.368 18.8551C115.708 18.6752 115.976 18.4337 116.17 18.1307C116.364 17.8277 116.461 17.4844 116.461 17.1009V15.9432C116.367 16.0047 116.236 16.0616 116.071 16.1136C115.91 16.161 115.727 16.206 115.524 16.2486C115.32 16.2865 115.117 16.322 114.913 16.3551C114.709 16.3835 114.525 16.4096 114.359 16.4332C114.004 16.4853 113.694 16.5682 113.429 16.6818C113.163 16.7955 112.958 16.9493 112.811 17.1435C112.664 17.3329 112.591 17.5696 112.591 17.8537C112.591 18.2656 112.74 18.5805 113.038 18.7983C113.341 19.0114 113.725 19.1179 114.189 19.1179ZM126.742 21.2131C125.624 21.2131 124.663 20.9763 123.858 20.5028C123.058 20.0246 122.443 19.3617 122.012 18.5142C121.586 17.6667 121.373 16.6913 121.373 15.5881C121.373 14.4706 121.588 13.4905 122.019 12.6477C122.454 11.8002 123.072 11.1397 123.873 10.6662C124.673 10.188 125.624 9.94886 126.728 9.94886C127.679 9.94886 128.513 10.1217 129.228 10.4673C129.943 10.813 130.508 11.2983 130.925 11.9233C131.342 12.5483 131.571 13.2822 131.614 14.125H128.759C128.678 13.5805 128.465 13.1425 128.12 12.8111C127.779 12.4749 127.331 12.3068 126.777 12.3068C126.309 12.3068 125.899 12.4347 125.549 12.6903C125.203 12.9413 124.933 13.3082 124.739 13.7912C124.545 14.2741 124.448 14.8589 124.448 15.5455C124.448 16.2415 124.542 16.8333 124.732 17.321C124.926 17.8087 125.198 18.1804 125.549 18.4361C125.899 18.6918 126.309 18.8196 126.777 18.8196C127.123 18.8196 127.433 18.7486 127.708 18.6065C127.987 18.4645 128.217 18.2585 128.397 17.9886C128.581 17.714 128.702 17.3849 128.759 17.0014H131.614C131.567 17.8348 131.339 18.5687 130.932 19.2031C130.53 19.8329 129.973 20.3253 129.263 20.6804C128.553 21.0355 127.712 21.2131 126.742 21.2131ZM136.293 17.8608L136.3 14.2315H136.74L140.234 10.0909H143.707L139.013 15.5739H138.295L136.293 17.8608ZM133.551 21V6.45455H136.577V21H133.551ZM140.369 21L137.159 16.2486L139.176 14.1108L143.913 21H140.369Z" fill="#0F172A"/>
<path d="M1.23295 43V32.8182H4.6733C5.47206 32.8182 6.125 32.9624 6.6321 33.2507C7.14252 33.5357 7.52036 33.9219 7.76562 34.4091C8.01089 34.8963 8.13352 35.4399 8.13352 36.0398C8.13352 36.6397 8.01089 37.1849 7.76562 37.6754C7.52367 38.166 7.14915 38.5571 6.64205 38.8487C6.13494 39.1371 5.48532 39.2812 4.69318 39.2812H2.22727V38.1875H4.65341C5.20028 38.1875 5.63944 38.093 5.97088 37.9041C6.30232 37.7152 6.54261 37.46 6.69176 37.1385C6.84422 36.8137 6.92045 36.4474 6.92045 36.0398C6.92045 35.6321 6.84422 35.2675 6.69176 34.946C6.54261 34.6245 6.30066 34.3726 5.96591 34.1903C5.63116 34.0047 5.18703 33.9119 4.63352 33.9119H2.46591V43H1.23295ZM11.1339 32.8182V43H9.96058V32.8182H11.1339ZM16.4846 43.1591C15.7488 43.1591 15.1141 42.9967 14.5804 42.6719C14.0501 42.3438 13.6408 41.8864 13.3525 41.2997C13.0674 40.7098 12.9249 40.0237 12.9249 39.2415C12.9249 38.4593 13.0674 37.7699 13.3525 37.1733C13.6408 36.5734 14.0418 36.1061 14.5556 35.7713C15.0726 35.4332 15.6758 35.2642 16.3652 35.2642C16.763 35.2642 17.1557 35.3305 17.5435 35.4631C17.9313 35.5956 18.2843 35.8111 18.6025 36.1094C18.9206 36.4044 19.1742 36.7955 19.3631 37.2827C19.552 37.7699 19.6465 38.3698 19.6465 39.0824V39.5795H13.7601V38.5653H18.4533C18.4533 38.1345 18.3671 37.75 18.1948 37.4119C18.0257 37.0739 17.7838 36.8071 17.4689 36.6115C17.1574 36.416 16.7895 36.3182 16.3652 36.3182C15.8979 36.3182 15.4935 36.4342 15.1522 36.6662C14.8141 36.8949 14.5539 37.1932 14.3716 37.5611C14.1893 37.929 14.0982 38.3234 14.0982 38.7443V39.4205C14.0982 39.9972 14.1976 40.486 14.3965 40.8871C14.5987 41.2848 14.8787 41.5881 15.2367 41.7969C15.5946 42.0024 16.0106 42.1051 16.4846 42.1051C16.7928 42.1051 17.0712 42.062 17.3198 41.9759C17.5717 41.8864 17.7888 41.7538 17.9711 41.5781C18.1534 41.3991 18.2942 41.1771 18.3936 40.9119L19.5272 41.2301C19.4078 41.6146 19.2073 41.9527 18.9256 42.2443C18.6439 42.5327 18.2959 42.758 17.8816 42.9205C17.4673 43.0795 17.0016 43.1591 16.4846 43.1591ZM23.6784 43.179C23.1945 43.179 22.7554 43.0878 22.361 42.9055C21.9666 42.7199 21.6533 42.4531 21.4213 42.1051C21.1893 41.7538 21.0733 41.3295 21.0733 40.8324C21.0733 40.3949 21.1595 40.0402 21.3319 39.7685C21.5042 39.4934 21.7346 39.2779 22.0229 39.1222C22.3113 38.9664 22.6294 38.8504 22.9775 38.7741C23.3288 38.6946 23.6818 38.6316 24.0364 38.5852C24.5004 38.5256 24.8766 38.4808 25.165 38.451C25.4566 38.4179 25.6687 38.3632 25.8013 38.2869C25.9372 38.2107 26.0051 38.0781 26.0051 37.8892V37.8494C26.0051 37.3589 25.8709 36.9777 25.6025 36.706C25.3373 36.4342 24.9346 36.2983 24.3944 36.2983C23.8342 36.2983 23.3951 36.4209 23.0769 36.6662C22.7587 36.9115 22.535 37.1733 22.4057 37.4517L21.2921 37.054C21.4909 36.59 21.7561 36.2287 22.0875 35.9702C22.4223 35.7083 22.7869 35.526 23.1813 35.4233C23.579 35.3172 23.9701 35.2642 24.3546 35.2642C24.5998 35.2642 24.8816 35.294 25.1998 35.3537C25.5212 35.41 25.8311 35.5277 26.1294 35.7067C26.431 35.8857 26.6813 36.1558 26.8801 36.517C27.079 36.8783 27.1784 37.3622 27.1784 37.9688V43H26.0051V41.9659H25.9455C25.8659 42.1316 25.7334 42.3089 25.5478 42.4979C25.3622 42.6868 25.1152 42.8475 24.807 42.9801C24.4988 43.1127 24.1226 43.179 23.6784 43.179ZM23.8574 42.125C24.3214 42.125 24.7125 42.0339 25.0307 41.8516C25.3522 41.6693 25.5942 41.4339 25.7566 41.1456C25.9223 40.8572 26.0051 40.554 26.0051 40.2358V39.1619C25.9554 39.2216 25.8461 39.2763 25.677 39.326C25.5113 39.3724 25.3191 39.4138 25.1003 39.4503C24.8849 39.4834 24.6744 39.5133 24.4689 39.5398C24.2667 39.563 24.1027 39.5829 23.9767 39.5994C23.6718 39.6392 23.3868 39.7038 23.1216 39.7933C22.8598 39.8795 22.6477 40.0104 22.4853 40.1861C22.3262 40.3584 22.2466 40.5937 22.2466 40.892C22.2466 41.2997 22.3974 41.608 22.699 41.8168C23.004 42.0223 23.3901 42.125 23.8574 42.125ZM34.729 37.0739L33.6751 37.3722C33.6088 37.1965 33.511 37.0258 33.3817 36.8601C33.2558 36.6911 33.0835 36.5518 32.8647 36.4425C32.646 36.3331 32.3659 36.2784 32.0245 36.2784C31.5572 36.2784 31.1677 36.3861 30.8562 36.6016C30.5479 36.8137 30.3938 37.0838 30.3938 37.4119C30.3938 37.7036 30.4999 37.9339 30.712 38.103C30.9241 38.272 31.2556 38.4129 31.7063 38.5256L32.8398 38.804C33.5226 38.9697 34.0314 39.2232 34.3661 39.5646C34.7009 39.9027 34.8683 40.3385 34.8683 40.8722C34.8683 41.3097 34.7423 41.7008 34.4904 42.0455C34.2418 42.3902 33.8938 42.6619 33.4464 42.8608C32.9989 43.0597 32.4786 43.1591 31.8853 43.1591C31.1064 43.1591 30.4618 42.9901 29.9513 42.652C29.4409 42.3139 29.1178 41.8201 28.9819 41.1705L30.0955 40.892C30.2016 41.303 30.4021 41.6113 30.6971 41.8168C30.9954 42.0223 31.3848 42.125 31.8654 42.125C32.4123 42.125 32.8465 42.009 33.168 41.777C33.4928 41.5417 33.6552 41.2599 33.6552 40.9318C33.6552 40.6667 33.5624 40.4446 33.3768 40.2656C33.1912 40.0833 32.9061 39.9474 32.5217 39.858L31.2489 39.5597C30.5496 39.3939 30.0359 39.1371 29.7077 38.7891C29.3829 38.4377 29.2205 37.9986 29.2205 37.4716C29.2205 37.0407 29.3415 36.6596 29.5835 36.3281C29.8287 35.9967 30.1618 35.7365 30.5827 35.5476C31.007 35.3587 31.4876 35.2642 32.0245 35.2642C32.7802 35.2642 33.3735 35.4299 33.8043 35.7614C34.2385 36.0928 34.5468 36.5303 34.729 37.0739ZM39.8361 43.1591C39.1003 43.1591 38.4656 42.9967 37.932 42.6719C37.4017 42.3438 36.9924 41.8864 36.704 41.2997C36.419 40.7098 36.2765 40.0237 36.2765 39.2415C36.2765 38.4593 36.419 37.7699 36.704 37.1733C36.9924 36.5734 37.3934 36.1061 37.9071 35.7713C38.4242 35.4332 39.0274 35.2642 39.7168 35.2642C40.1145 35.2642 40.5073 35.3305 40.8951 35.4631C41.2828 35.5956 41.6358 35.8111 41.954 36.1094C42.2722 36.4044 42.5257 36.7955 42.7147 37.2827C42.9036 37.7699 42.998 38.3698 42.998 39.0824V39.5795H37.1117V38.5653H41.8049C41.8049 38.1345 41.7187 37.75 41.5463 37.4119C41.3773 37.0739 41.1354 36.8071 40.8205 36.6115C40.5089 36.416 40.141 36.3182 39.7168 36.3182C39.2495 36.3182 38.8451 36.4342 38.5037 36.6662C38.1657 36.8949 37.9055 37.1932 37.7232 37.5611C37.5409 37.929 37.4498 38.3234 37.4498 38.7443V39.4205C37.4498 39.9972 37.5492 40.486 37.748 40.8871C37.9502 41.2848 38.2303 41.5881 38.5882 41.7969C38.9462 42.0024 39.3622 42.1051 39.8361 42.1051C40.1444 42.1051 40.4228 42.062 40.6713 41.9759C40.9232 41.8864 41.1403 41.7538 41.3226 41.5781C41.5049 41.3991 41.6458 41.1771 41.7452 40.9119L42.8787 41.2301C42.7594 41.6146 42.5589 41.9527 42.2772 42.2443C41.9954 42.5327 41.6474 42.758 41.2331 42.9205C40.8188 43.0795 40.3532 43.1591 39.8361 43.1591ZM51.9221 43.1591C51.1863 43.1591 50.5516 42.9967 50.0179 42.6719C49.4876 42.3438 49.0783 41.8864 48.79 41.2997C48.5049 40.7098 48.3624 40.0237 48.3624 39.2415C48.3624 38.4593 48.5049 37.7699 48.79 37.1733C49.0783 36.5734 49.4793 36.1061 49.9931 35.7713C50.5101 35.4332 51.1133 35.2642 51.8027 35.2642C52.2005 35.2642 52.5932 35.3305 52.981 35.4631C53.3688 35.5956 53.7218 35.8111 54.04 36.1094C54.3581 36.4044 54.6117 36.7955 54.8006 37.2827C54.9895 37.7699 55.084 38.3698 55.084 39.0824V39.5795H49.1976V38.5653H53.8908C53.8908 38.1345 53.8046 37.75 53.6323 37.4119C53.4632 37.0739 53.2213 36.8071 52.9064 36.6115C52.5949 36.416 52.227 36.3182 51.8027 36.3182C51.3354 36.3182 50.931 36.4342 50.5897 36.6662C50.2516 36.8949 49.9914 37.1932 49.8091 37.5611C49.6268 37.929 49.5357 38.3234 49.5357 38.7443V39.4205C49.5357 39.9972 49.6351 40.486 49.834 40.8871C50.0362 41.2848 50.3162 41.5881 50.6742 41.7969C51.0321 42.0024 51.4481 42.1051 51.9221 42.1051C52.2303 42.1051 52.5087 42.062 52.7573 41.9759C53.0092 41.8864 53.2263 41.7538 53.4086 41.5781C53.5909 41.3991 53.7317 41.1771 53.8311 40.9119L54.9647 41.2301C54.8453 41.6146 54.6448 41.9527 54.3631 42.2443C54.0814 42.5327 53.7334 42.758 53.3191 42.9205C52.9048 43.0795 52.4391 43.1591 51.9221 43.1591ZM58.0421 38.4062V43H56.8688V35.3636H58.0023V36.5568H58.1017C58.2807 36.169 58.5525 35.8575 58.9171 35.6222C59.2817 35.3835 59.7523 35.2642 60.329 35.2642C60.8461 35.2642 61.2985 35.3703 61.6863 35.5824C62.074 35.7912 62.3757 36.1094 62.5911 36.5369C62.8065 36.9612 62.9142 37.4981 62.9142 38.1477V43H61.7409V38.2273C61.7409 37.6274 61.5852 37.16 61.2736 36.8253C60.9621 36.4872 60.5345 36.3182 59.9909 36.3182C59.6164 36.3182 59.2817 36.3994 58.9867 36.5618C58.695 36.7242 58.4647 36.9612 58.2956 37.2727C58.1266 37.5843 58.0421 37.9621 58.0421 38.4062ZM68.3793 35.3636V36.358H64.4219V35.3636H68.3793ZM65.5753 33.5341H66.7486V40.8125C66.7486 41.1439 66.7966 41.3925 66.8928 41.5582C66.9922 41.7206 67.1181 41.83 67.2706 41.8864C67.4264 41.9394 67.5904 41.9659 67.7628 41.9659C67.892 41.9659 67.9981 41.9593 68.081 41.946C68.1638 41.9295 68.2301 41.9162 68.2798 41.9062L68.5185 42.9602C68.4389 42.9901 68.3279 43.0199 68.1854 43.0497C68.0429 43.0829 67.8622 43.0994 67.6435 43.0994C67.312 43.0994 66.9872 43.0282 66.669 42.8857C66.3542 42.7431 66.0923 42.526 65.8835 42.2344C65.678 41.9427 65.5753 41.5748 65.5753 41.1307V33.5341ZM73.2638 43.1591C72.5281 43.1591 71.8933 42.9967 71.3597 42.6719C70.8294 42.3438 70.4201 41.8864 70.1317 41.2997C69.8467 40.7098 69.7042 40.0237 69.7042 39.2415C69.7042 38.4593 69.8467 37.7699 70.1317 37.1733C70.4201 36.5734 70.8211 36.1061 71.3349 35.7713C71.8519 35.4332 72.4551 35.2642 73.1445 35.2642C73.5423 35.2642 73.935 35.3305 74.3228 35.4631C74.7106 35.5956 75.0636 35.8111 75.3817 36.1094C75.6999 36.4044 75.9535 36.7955 76.1424 37.2827C76.3313 37.7699 76.4258 38.3698 76.4258 39.0824V39.5795H70.5394V38.5653H75.2326C75.2326 38.1345 75.1464 37.75 74.9741 37.4119C74.805 37.0739 74.5631 36.8071 74.2482 36.6115C73.9367 36.416 73.5688 36.3182 73.1445 36.3182C72.6772 36.3182 72.2728 36.4342 71.9315 36.6662C71.5934 36.8949 71.3332 37.1932 71.1509 37.5611C70.9686 37.929 70.8775 38.3234 70.8775 38.7443V39.4205C70.8775 39.9972 70.9769 40.486 71.1758 40.8871C71.378 41.2848 71.658 41.5881 72.016 41.7969C72.3739 42.0024 72.7899 42.1051 73.2638 42.1051C73.5721 42.1051 73.8505 42.062 74.0991 41.9759C74.351 41.8864 74.5681 41.7538 74.7504 41.5781C74.9326 41.3991 75.0735 41.1771 75.1729 40.9119L76.3065 41.2301C76.1871 41.6146 75.9866 41.9527 75.7049 42.2443C75.4232 42.5327 75.0752 42.758 74.6609 42.9205C74.2466 43.0795 73.7809 43.1591 73.2638 43.1591ZM78.2106 43V35.3636H79.3441V36.517H79.4237C79.5629 36.1392 79.8147 35.8326 80.1793 35.5973C80.5439 35.362 80.9549 35.2443 81.4123 35.2443C81.4985 35.2443 81.6062 35.246 81.7354 35.2493C81.8647 35.2526 81.9625 35.2576 82.0288 35.2642V36.4574C81.989 36.4474 81.8978 36.4325 81.7553 36.4126C81.6161 36.3894 81.4686 36.3778 81.3129 36.3778C80.9416 36.3778 80.6102 36.4557 80.3185 36.6115C80.0302 36.764 79.8015 36.9761 79.6325 37.2479C79.4667 37.5163 79.3839 37.8229 79.3839 38.1676V43H78.2106ZM88.1127 45.8636C87.9139 45.8636 87.7366 45.8471 87.5808 45.8139C87.425 45.7841 87.3173 45.7543 87.2576 45.7244L87.5559 44.6903C87.841 44.7633 88.0929 44.7898 88.3116 44.7699C88.5304 44.75 88.7243 44.6522 88.8933 44.4766C89.0656 44.3042 89.2231 44.0241 89.3656 43.6364L89.5843 43.0398L86.7605 35.3636H88.0332L90.1412 41.4489H90.2207L92.3287 35.3636H93.6014L90.3599 44.1136C90.2141 44.508 90.0334 44.8345 89.818 45.093C89.6026 45.3549 89.3523 45.5488 89.0673 45.6747C88.7856 45.8007 88.4674 45.8636 88.1127 45.8636ZM97.9789 43.1591C97.2895 43.1591 96.6846 42.995 96.1642 42.6669C95.6472 42.3388 95.2428 41.8797 94.9512 41.2898C94.6628 40.6998 94.5186 40.0104 94.5186 39.2216C94.5186 38.4261 94.6628 37.7318 94.9512 37.1385C95.2428 36.5452 95.6472 36.0845 96.1642 35.7564C96.6846 35.4283 97.2895 35.2642 97.9789 35.2642C98.6683 35.2642 99.2715 35.4283 99.7885 35.7564C100.309 36.0845 100.713 36.5452 101.002 37.1385C101.293 37.7318 101.439 38.4261 101.439 39.2216C101.439 40.0104 101.293 40.6998 101.002 41.2898C100.713 41.8797 100.309 42.3388 99.7885 42.6669C99.2715 42.995 98.6683 43.1591 97.9789 43.1591ZM97.9789 42.1051C98.5025 42.1051 98.9334 41.9709 99.2715 41.7024C99.6096 41.4339 99.8598 41.081 100.022 40.6435C100.185 40.206 100.266 39.732 100.266 39.2216C100.266 38.7112 100.185 38.2356 100.022 37.7947C99.8598 37.3539 99.6096 36.9976 99.2715 36.7259C98.9334 36.4541 98.5025 36.3182 97.9789 36.3182C97.4552 36.3182 97.0243 36.4541 96.6863 36.7259C96.3482 36.9976 96.098 37.3539 95.9355 37.7947C95.7731 38.2356 95.6919 38.7112 95.6919 39.2216C95.6919 39.732 95.7731 40.206 95.9355 40.6435C96.098 41.081 96.3482 41.4339 96.6863 41.7024C97.0243 41.9709 97.4552 42.1051 97.9789 42.1051ZM108.043 39.8778V35.3636H109.216V43H108.043V41.7074H107.963C107.784 42.0952 107.506 42.425 107.128 42.6967C106.75 42.9652 106.273 43.0994 105.696 43.0994C105.219 43.0994 104.795 42.995 104.423 42.7862C104.052 42.5741 103.76 42.2559 103.548 41.8317C103.336 41.4041 103.23 40.8655 103.23 40.2159V35.3636H104.403V40.1364C104.403 40.6932 104.559 41.1373 104.871 41.4688C105.186 41.8002 105.587 41.9659 106.074 41.9659C106.366 41.9659 106.662 41.8913 106.964 41.7422C107.269 41.593 107.524 41.3643 107.729 41.0561C107.938 40.7479 108.043 40.3551 108.043 39.8778ZM111.365 43V35.3636H112.498V36.517H112.578C112.717 36.1392 112.969 35.8326 113.334 35.5973C113.698 35.362 114.109 35.2443 114.567 35.2443C114.653 35.2443 114.76 35.246 114.89 35.2493C115.019 35.2526 115.117 35.2576 115.183 35.2642V36.4574C115.143 36.4474 115.052 36.4325 114.91 36.4126C114.77 36.3894 114.623 36.3778 114.467 36.3778C114.096 36.3778 113.765 36.4557 113.473 36.6115C113.184 36.764 112.956 36.9761 112.787 37.2479C112.621 37.5163 112.538 37.8229 112.538 38.1676V43H111.365ZM123.614 43.1591C122.898 43.1591 122.281 42.9901 121.764 42.652C121.247 42.3139 120.849 41.8482 120.571 41.255C120.293 40.6617 120.153 39.9839 120.153 39.2216C120.153 38.446 120.296 37.7616 120.581 37.1683C120.869 36.5717 121.27 36.1061 121.784 35.7713C122.301 35.4332 122.904 35.2642 123.594 35.2642C124.131 35.2642 124.615 35.3636 125.045 35.5625C125.476 35.7614 125.829 36.0398 126.104 36.3977C126.379 36.7557 126.55 37.1733 126.616 37.6506H125.443C125.354 37.3026 125.155 36.9943 124.847 36.7259C124.542 36.4541 124.131 36.3182 123.614 36.3182C123.156 36.3182 122.755 36.4375 122.411 36.6761C122.069 36.9115 121.802 37.2446 121.61 37.6754C121.421 38.103 121.327 38.6051 121.327 39.1818C121.327 39.7718 121.42 40.2855 121.605 40.723C121.794 41.1605 122.059 41.5002 122.401 41.7422C122.745 41.9841 123.15 42.1051 123.614 42.1051C123.919 42.1051 124.195 42.0521 124.444 41.946C124.692 41.84 124.903 41.6875 125.075 41.4886C125.248 41.2898 125.37 41.0511 125.443 40.7727H126.616C126.55 41.2235 126.386 41.6295 126.124 41.9908C125.866 42.3487 125.523 42.6338 125.095 42.8459C124.671 43.0547 124.177 43.1591 123.614 43.1591ZM128.332 43V35.3636H129.465V36.517H129.545C129.684 36.1392 129.936 35.8326 130.3 35.5973C130.665 35.362 131.076 35.2443 131.533 35.2443C131.62 35.2443 131.727 35.246 131.857 35.2493C131.986 35.2526 132.084 35.2576 132.15 35.2642V36.4574C132.11 36.4474 132.019 36.4325 131.876 36.4126C131.737 36.3894 131.59 36.3778 131.434 36.3778C131.063 36.3778 130.731 36.4557 130.44 36.6115C130.151 36.764 129.923 36.9761 129.754 37.2479C129.588 37.5163 129.505 37.8229 129.505 38.1676V43H128.332ZM136.51 43.1591C135.774 43.1591 135.139 42.9967 134.606 42.6719C134.076 42.3438 133.666 41.8864 133.378 41.2997C133.093 40.7098 132.95 40.0237 132.95 39.2415C132.95 38.4593 133.093 37.7699 133.378 37.1733C133.666 36.5734 134.067 36.1061 134.581 35.7713C135.098 35.4332 135.701 35.2642 136.391 35.2642C136.788 35.2642 137.181 35.3305 137.569 35.4631C137.957 35.5956 138.31 35.8111 138.628 36.1094C138.946 36.4044 139.2 36.7955 139.388 37.2827C139.577 37.7699 139.672 38.3698 139.672 39.0824V39.5795H133.786V38.5653H138.479C138.479 38.1345 138.393 37.75 138.22 37.4119C138.051 37.0739 137.809 36.8071 137.494 36.6115C137.183 36.416 136.815 36.3182 136.391 36.3182C135.923 36.3182 135.519 36.4342 135.178 36.6662C134.839 36.8949 134.579 37.1932 134.397 37.5611C134.215 37.929 134.124 38.3234 134.124 38.7443V39.4205C134.124 39.9972 134.223 40.486 134.422 40.8871C134.624 41.2848 134.904 41.5881 135.262 41.7969C135.62 42.0024 136.036 42.1051 136.51 42.1051C136.818 42.1051 137.097 42.062 137.345 41.9759C137.597 41.8864 137.814 41.7538 137.996 41.5781C138.179 41.3991 138.32 41.1771 138.419 40.9119L139.553 41.2301C139.433 41.6146 139.233 41.9527 138.951 42.2443C138.669 42.5327 138.321 42.758 137.907 42.9205C137.493 43.0795 137.027 43.1591 136.51 43.1591ZM144.34 43.1591C143.704 43.1591 143.142 42.9983 142.655 42.6768C142.168 42.352 141.786 41.8946 141.511 41.3047C141.236 40.7114 141.099 40.0104 141.099 39.2017C141.099 38.3996 141.236 37.7036 141.511 37.1136C141.786 36.5237 142.169 36.0679 142.66 35.7464C143.15 35.425 143.717 35.2642 144.36 35.2642C144.857 35.2642 145.25 35.3471 145.538 35.5128C145.83 35.6752 146.052 35.8608 146.205 36.0696C146.36 36.2751 146.481 36.4441 146.567 36.5767H146.667V32.8182H147.84V43H146.707V41.8267H146.567C146.481 41.9659 146.359 42.1416 146.2 42.3537C146.04 42.5625 145.813 42.7498 145.518 42.9155C145.223 43.0779 144.831 43.1591 144.34 43.1591ZM144.499 42.1051C144.97 42.1051 145.368 41.9825 145.692 41.7372C146.017 41.4886 146.264 41.1456 146.433 40.7081C146.602 40.2673 146.687 39.7585 146.687 39.1818C146.687 38.6117 146.604 38.1129 146.438 37.6854C146.272 37.2545 146.027 36.9197 145.702 36.6811C145.378 36.4392 144.977 36.3182 144.499 36.3182C144.002 36.3182 143.588 36.4458 143.256 36.701C142.928 36.9529 142.681 37.2959 142.516 37.7301C142.353 38.161 142.272 38.6449 142.272 39.1818C142.272 39.7254 142.355 40.2192 142.521 40.6634C142.69 41.1042 142.938 41.4555 143.266 41.7173C143.598 41.9759 144.009 42.1051 144.499 42.1051ZM153.354 43.1591C152.618 43.1591 151.983 42.9967 151.45 42.6719C150.919 42.3438 150.51 41.8864 150.222 41.2997C149.937 40.7098 149.794 40.0237 149.794 39.2415C149.794 38.4593 149.937 37.7699 150.222 37.1733C150.51 36.5734 150.911 36.1061 151.425 35.7713C151.942 35.4332 152.545 35.2642 153.234 35.2642C153.632 35.2642 154.025 35.3305 154.413 35.4631C154.8 35.5956 155.153 35.8111 155.472 36.1094C155.79 36.4044 156.043 36.7955 156.232 37.2827C156.421 37.7699 156.516 38.3698 156.516 39.0824V39.5795H150.629V38.5653H155.322C155.322 38.1345 155.236 37.75 155.064 37.4119C154.895 37.0739 154.653 36.8071 154.338 36.6115C154.027 36.416 153.659 36.3182 153.234 36.3182C152.767 36.3182 152.363 36.4342 152.021 36.6662C151.683 36.8949 151.423 37.1932 151.241 37.5611C151.058 37.929 150.967 38.3234 150.967 38.7443V39.4205C150.967 39.9972 151.067 40.486 151.266 40.8871C151.468 41.2848 151.748 41.5881 152.106 41.7969C152.464 42.0024 152.88 42.1051 153.354 42.1051C153.662 42.1051 153.94 42.062 154.189 41.9759C154.441 41.8864 154.658 41.7538 154.84 41.5781C155.022 41.3991 155.163 41.1771 155.263 40.9119L156.396 41.2301C156.277 41.6146 156.076 41.9527 155.795 42.2443C155.513 42.5327 155.165 42.758 154.751 42.9205C154.336 43.0795 153.871 43.1591 153.354 43.1591ZM159.474 38.4062V43H158.3V35.3636H159.434V36.5568H159.533C159.712 36.169 159.984 35.8575 160.349 35.6222C160.713 35.3835 161.184 35.2642 161.761 35.2642C162.278 35.2642 162.73 35.3703 163.118 35.5824C163.506 35.7912 163.807 36.1094 164.023 36.5369C164.238 36.9612 164.346 37.4981 164.346 38.1477V43H163.173V38.2273C163.173 37.6274 163.017 37.16 162.705 36.8253C162.394 36.4872 161.966 36.3182 161.423 36.3182C161.048 36.3182 160.713 36.3994 160.418 36.5618C160.127 36.7242 159.896 36.9612 159.727 37.2727C159.558 37.5843 159.474 37.9621 159.474 38.4062ZM169.811 35.3636V36.358H165.854V35.3636H169.811ZM167.007 33.5341H168.18V40.8125C168.18 41.1439 168.228 41.3925 168.324 41.5582C168.424 41.7206 168.55 41.83 168.702 41.8864C168.858 41.9394 169.022 41.9659 169.194 41.9659C169.324 41.9659 169.43 41.9593 169.513 41.946C169.595 41.9295 169.662 41.9162 169.711 41.9062L169.95 42.9602C169.871 42.9901 169.76 43.0199 169.617 43.0497C169.474 43.0829 169.294 43.0994 169.075 43.0994C168.744 43.0994 168.419 43.0282 168.101 42.8857C167.786 42.7431 167.524 42.526 167.315 42.2344C167.11 41.9427 167.007 41.5748 167.007 41.1307V33.5341ZM171.576 43V35.3636H172.749V43H171.576ZM172.172 34.0909C171.944 34.0909 171.747 34.013 171.581 33.8572C171.418 33.7015 171.337 33.5142 171.337 33.2955C171.337 33.0767 171.418 32.8894 171.581 32.7337C171.747 32.5779 171.944 32.5 172.172 32.5C172.401 32.5 172.597 32.5779 172.759 32.7337C172.925 32.8894 173.008 33.0767 173.008 33.2955C173.008 33.5142 172.925 33.7015 172.759 33.8572C172.597 34.013 172.401 34.0909 172.172 34.0909ZM177.145 43.179C176.661 43.179 176.222 43.0878 175.828 42.9055C175.433 42.7199 175.12 42.4531 174.888 42.1051C174.656 41.7538 174.54 41.3295 174.54 40.8324C174.54 40.3949 174.626 40.0402 174.799 39.7685C174.971 39.4934 175.201 39.2779 175.49 39.1222C175.778 38.9664 176.096 38.8504 176.444 38.7741C176.796 38.6946 177.149 38.6316 177.503 38.5852C177.967 38.5256 178.343 38.4808 178.632 38.451C178.923 38.4179 179.136 38.3632 179.268 38.2869C179.404 38.2107 179.472 38.0781 179.472 37.8892V37.8494C179.472 37.3589 179.338 36.9777 179.069 36.706C178.804 36.4342 178.401 36.2983 177.861 36.2983C177.301 36.2983 176.862 36.4209 176.544 36.6662C176.225 36.9115 176.002 37.1733 175.873 37.4517L174.759 37.054C174.958 36.59 175.223 36.2287 175.554 35.9702C175.889 35.7083 176.254 35.526 176.648 35.4233C177.046 35.3172 177.437 35.2642 177.821 35.2642C178.067 35.2642 178.348 35.294 178.667 35.3537C178.988 35.41 179.298 35.5277 179.596 35.7067C179.898 35.8857 180.148 36.1558 180.347 36.517C180.546 36.8783 180.645 37.3622 180.645 37.9688V43H179.472V41.9659H179.412C179.333 42.1316 179.2 42.3089 179.015 42.4979C178.829 42.6868 178.582 42.8475 178.274 42.9801C177.966 43.1127 177.589 43.179 177.145 43.179ZM177.324 42.125C177.788 42.125 178.179 42.0339 178.498 41.8516C178.819 41.6693 179.061 41.4339 179.223 41.1456C179.389 40.8572 179.472 40.554 179.472 40.2358V39.1619C179.422 39.2216 179.313 39.2763 179.144 39.326C178.978 39.3724 178.786 39.4138 178.567 39.4503C178.352 39.4834 178.141 39.5133 177.936 39.5398C177.734 39.563 177.569 39.5829 177.444 39.5994C177.139 39.6392 176.854 39.7038 176.588 39.7933C176.327 39.8795 176.114 40.0104 175.952 40.1861C175.793 40.3584 175.713 40.5937 175.713 40.892C175.713 41.2997 175.864 41.608 176.166 41.8168C176.471 42.0223 176.857 42.125 177.324 42.125ZM183.96 32.8182V43H182.787V32.8182H183.96ZM191.518 37.0739L190.464 37.3722C190.398 37.1965 190.3 37.0258 190.171 36.8601C190.045 36.6911 189.873 36.5518 189.654 36.4425C189.435 36.3331 189.155 36.2784 188.814 36.2784C188.346 36.2784 187.957 36.3861 187.645 36.6016C187.337 36.8137 187.183 37.0838 187.183 37.4119C187.183 37.7036 187.289 37.9339 187.501 38.103C187.713 38.272 188.045 38.4129 188.495 38.5256L189.629 38.804C190.312 38.9697 190.82 39.2232 191.155 39.5646C191.49 39.9027 191.657 40.3385 191.657 40.8722C191.657 41.3097 191.531 41.7008 191.279 42.0455C191.031 42.3902 190.683 42.6619 190.235 42.8608C189.788 43.0597 189.268 43.1591 188.674 43.1591C187.895 43.1591 187.251 42.9901 186.74 42.652C186.23 42.3139 185.907 41.8201 185.771 41.1705L186.885 40.892C186.991 41.303 187.191 41.6113 187.486 41.8168C187.784 42.0223 188.174 42.125 188.654 42.125C189.201 42.125 189.636 42.009 189.957 41.777C190.282 41.5417 190.444 41.2599 190.444 40.9318C190.444 40.6667 190.351 40.4446 190.166 40.2656C189.98 40.0833 189.695 39.9474 189.311 39.858L188.038 39.5597C187.339 39.3939 186.825 39.1371 186.497 38.7891C186.172 38.4377 186.01 37.9986 186.01 37.4716C186.01 37.0407 186.131 36.6596 186.373 36.3281C186.618 35.9967 186.951 35.7365 187.372 35.5476C187.796 35.3587 188.277 35.2642 188.814 35.2642C189.569 35.2642 190.163 35.4299 190.593 35.7614C191.028 36.0928 191.336 36.5303 191.518 37.0739ZM200.682 35.3636V36.358H196.725V35.3636H200.682ZM197.878 33.5341H199.051V40.8125C199.051 41.1439 199.099 41.3925 199.195 41.5582C199.295 41.7206 199.421 41.83 199.573 41.8864C199.729 41.9394 199.893 41.9659 200.066 41.9659C200.195 41.9659 200.301 41.9593 200.384 41.946C200.467 41.9295 200.533 41.9162 200.583 41.9062L200.821 42.9602C200.742 42.9901 200.631 43.0199 200.488 43.0497C200.346 43.0829 200.165 43.0994 199.946 43.0994C199.615 43.0994 199.29 43.0282 198.972 42.8857C198.657 42.7431 198.395 42.526 198.186 42.2344C197.981 41.9427 197.878 41.5748 197.878 41.1307V33.5341ZM205.467 43.1591C204.778 43.1591 204.173 42.995 203.653 42.6669C203.135 42.3388 202.731 41.8797 202.439 41.2898C202.151 40.6998 202.007 40.0104 202.007 39.2216C202.007 38.4261 202.151 37.7318 202.439 37.1385C202.731 36.5452 203.135 36.0845 203.653 35.7564C204.173 35.4283 204.778 35.2642 205.467 35.2642C206.157 35.2642 206.76 35.4283 207.277 35.7564C207.797 36.0845 208.202 36.5452 208.49 37.1385C208.782 37.7318 208.927 38.4261 208.927 39.2216C208.927 40.0104 208.782 40.6998 208.49 41.2898C208.202 41.8797 207.797 42.3388 207.277 42.6669C206.76 42.995 206.157 43.1591 205.467 43.1591ZM205.467 42.1051C205.991 42.1051 206.422 41.9709 206.76 41.7024C207.098 41.4339 207.348 41.081 207.51 40.6435C207.673 40.206 207.754 39.732 207.754 39.2216C207.754 38.7112 207.673 38.2356 207.51 37.7947C207.348 37.3539 207.098 36.9976 206.76 36.7259C206.422 36.4541 205.991 36.3182 205.467 36.3182C204.943 36.3182 204.513 36.4541 204.175 36.7259C203.836 36.9976 203.586 37.3539 203.424 37.7947C203.261 38.2356 203.18 38.7112 203.18 39.2216C203.18 39.732 203.261 40.206 203.424 40.6435C203.586 41.081 203.836 41.4339 204.175 41.7024C204.513 41.9709 204.943 42.1051 205.467 42.1051ZM216.903 43.179C216.419 43.179 215.98 43.0878 215.586 42.9055C215.191 42.7199 214.878 42.4531 214.646 42.1051C214.414 41.7538 214.298 41.3295 214.298 40.8324C214.298 40.3949 214.384 40.0402 214.556 39.7685C214.729 39.4934 214.959 39.2779 215.248 39.1222C215.536 38.9664 215.854 38.8504 216.202 38.7741C216.553 38.6946 216.906 38.6316 217.261 38.5852C217.725 38.5256 218.101 38.4808 218.39 38.451C218.681 38.4179 218.893 38.3632 219.026 38.2869C219.162 38.2107 219.23 38.0781 219.23 37.8892V37.8494C219.23 37.3589 219.096 36.9777 218.827 36.706C218.562 36.4342 218.159 36.2983 217.619 36.2983C217.059 36.2983 216.62 36.4209 216.301 36.6662C215.983 36.9115 215.76 37.1733 215.63 37.4517L214.517 37.054C214.716 36.59 214.981 36.2287 215.312 35.9702C215.647 35.7083 216.011 35.526 216.406 35.4233C216.804 35.3172 217.195 35.2642 217.579 35.2642C217.824 35.2642 218.106 35.294 218.424 35.3537C218.746 35.41 219.056 35.5277 219.354 35.7067C219.656 35.8857 219.906 36.1558 220.105 36.517C220.304 36.8783 220.403 37.3622 220.403 37.9688V43H219.23V41.9659H219.17C219.091 42.1316 218.958 42.3089 218.772 42.4979C218.587 42.6868 218.34 42.8475 218.032 42.9801C217.723 43.1127 217.347 43.179 216.903 43.179ZM217.082 42.125C217.546 42.125 217.937 42.0339 218.255 41.8516C218.577 41.6693 218.819 41.4339 218.981 41.1456C219.147 40.8572 219.23 40.554 219.23 40.2358V39.1619C219.18 39.2216 219.071 39.2763 218.902 39.326C218.736 39.3724 218.544 39.4138 218.325 39.4503C218.109 39.4834 217.899 39.5133 217.694 39.5398C217.491 39.563 217.327 39.5829 217.201 39.5994C216.896 39.6392 216.611 39.7038 216.346 39.7933C216.084 39.8795 215.872 40.0104 215.71 40.1861C215.551 40.3584 215.471 40.5937 215.471 40.892C215.471 41.2997 215.622 41.608 215.924 41.8168C216.229 42.0223 216.615 42.125 217.082 42.125ZM225.647 43.1591C224.931 43.1591 224.314 42.9901 223.797 42.652C223.28 42.3139 222.883 41.8482 222.604 41.255C222.326 40.6617 222.187 39.9839 222.187 39.2216C222.187 38.446 222.329 37.7616 222.614 37.1683C222.903 36.5717 223.304 36.1061 223.817 35.7713C224.334 35.4332 224.938 35.2642 225.627 35.2642C226.164 35.2642 226.648 35.3636 227.079 35.5625C227.51 35.7614 227.863 36.0398 228.138 36.3977C228.413 36.7557 228.583 37.1733 228.65 37.6506H227.476C227.387 37.3026 227.188 36.9943 226.88 36.7259C226.575 36.4541 226.164 36.3182 225.647 36.3182C225.189 36.3182 224.788 36.4375 224.444 36.6761C224.102 36.9115 223.836 37.2446 223.643 37.6754C223.454 38.103 223.36 38.6051 223.36 39.1818C223.36 39.7718 223.453 40.2855 223.638 40.723C223.827 41.1605 224.092 41.5002 224.434 41.7422C224.778 41.9841 225.183 42.1051 225.647 42.1051C225.952 42.1051 226.229 42.0521 226.477 41.946C226.726 41.84 226.936 41.6875 227.108 41.4886C227.281 41.2898 227.403 41.0511 227.476 40.7727H228.65C228.583 41.2235 228.419 41.6295 228.157 41.9908C227.899 42.3487 227.556 42.6338 227.128 42.8459C226.704 43.0547 226.21 43.1591 225.647 43.1591ZM233.467 43.1591C232.751 43.1591 232.135 42.9901 231.618 42.652C231.101 42.3139 230.703 41.8482 230.425 41.255C230.146 40.6617 230.007 39.9839 230.007 39.2216C230.007 38.446 230.149 37.7616 230.434 37.1683C230.723 36.5717 231.124 36.1061 231.638 35.7713C232.155 35.4332 232.758 35.2642 233.447 35.2642C233.984 35.2642 234.468 35.3636 234.899 35.5625C235.33 35.7614 235.683 36.0398 235.958 36.3977C236.233 36.7557 236.404 37.1733 236.47 37.6506H235.297C235.207 37.3026 235.008 36.9943 234.7 36.7259C234.395 36.4541 233.984 36.3182 233.467 36.3182C233.01 36.3182 232.609 36.4375 232.264 36.6761C231.923 36.9115 231.656 37.2446 231.464 37.6754C231.275 38.103 231.18 38.6051 231.18 39.1818C231.18 39.7718 231.273 40.2855 231.459 40.723C231.648 41.1605 231.913 41.5002 232.254 41.7422C232.599 41.9841 233.003 42.1051 233.467 42.1051C233.772 42.1051 234.049 42.0521 234.297 41.946C234.546 41.84 234.756 41.6875 234.929 41.4886C235.101 41.2898 235.224 41.0511 235.297 40.7727H236.47C236.404 41.2235 236.24 41.6295 235.978 41.9908C235.719 42.3487 235.376 42.6338 234.949 42.8459C234.524 43.0547 234.031 43.1591 233.467 43.1591ZM241.387 43.1591C240.651 43.1591 240.016 42.9967 239.483 42.6719C238.952 42.3438 238.543 41.8864 238.255 41.2997C237.97 40.7098 237.827 40.0237 237.827 39.2415C237.827 38.4593 237.97 37.7699 238.255 37.1733C238.543 36.5734 238.944 36.1061 239.458 35.7713C239.975 35.4332 240.578 35.2642 241.268 35.2642C241.665 35.2642 242.058 35.3305 242.446 35.4631C242.834 35.5956 243.187 35.8111 243.505 36.1094C243.823 36.4044 244.077 36.7955 244.265 37.2827C244.454 37.7699 244.549 38.3698 244.549 39.0824V39.5795H238.662V38.5653H243.356C243.356 38.1345 243.269 37.75 243.097 37.4119C242.928 37.0739 242.686 36.8071 242.371 36.6115C242.06 36.416 241.692 36.3182 241.268 36.3182C240.8 36.3182 240.396 36.4342 240.055 36.6662C239.716 36.8949 239.456 37.1932 239.274 37.5611C239.092 37.929 239.001 38.3234 239.001 38.7443V39.4205C239.001 39.9972 239.1 40.486 239.299 40.8871C239.501 41.2848 239.781 41.5881 240.139 41.7969C240.497 42.0024 240.913 42.1051 241.387 42.1051C241.695 42.1051 241.974 42.062 242.222 41.9759C242.474 41.8864 242.691 41.7538 242.873 41.5781C243.056 41.3991 243.197 41.1771 243.296 40.9119L244.43 41.2301C244.31 41.6146 244.11 41.9527 243.828 42.2443C243.546 42.5327 243.198 42.758 242.784 42.9205C242.37 43.0795 241.904 43.1591 241.387 43.1591ZM251.743 37.0739L250.689 37.3722C250.622 37.1965 250.525 37.0258 250.395 36.8601C250.269 36.6911 250.097 36.5518 249.878 36.4425C249.66 36.3331 249.38 36.2784 249.038 36.2784C248.571 36.2784 248.181 36.3861 247.87 36.6016C247.562 36.8137 247.407 37.0838 247.407 37.4119C247.407 37.7036 247.514 37.9339 247.726 38.103C247.938 38.272 248.269 38.4129 248.72 38.5256L249.854 38.804C250.536 38.9697 251.045 39.2232 251.38 39.5646C251.715 39.9027 251.882 40.3385 251.882 40.8722C251.882 41.3097 251.756 41.7008 251.504 42.0455C251.256 42.3902 250.907 42.6619 250.46 42.8608C250.013 43.0597 249.492 43.1591 248.899 43.1591C248.12 43.1591 247.475 42.9901 246.965 42.652C246.455 42.3139 246.131 41.8201 245.996 41.1705L247.109 40.892C247.215 41.303 247.416 41.6113 247.711 41.8168C248.009 42.0223 248.398 42.125 248.879 42.125C249.426 42.125 249.86 42.009 250.182 41.777C250.506 41.5417 250.669 41.2599 250.669 40.9318C250.669 40.6667 250.576 40.4446 250.39 40.2656C250.205 40.0833 249.92 39.9474 249.535 39.858L248.263 39.5597C247.563 39.3939 247.05 39.1371 246.721 38.7891C246.397 38.4377 246.234 37.9986 246.234 37.4716C246.234 37.0407 246.355 36.6596 246.597 36.3281C246.842 35.9967 247.175 35.7365 247.596 35.5476C248.021 35.3587 248.501 35.2642 249.038 35.2642C249.794 35.2642 250.387 35.4299 250.818 35.7614C251.252 36.0928 251.56 36.5303 251.743 37.0739ZM259.057 37.0739L258.003 37.3722C257.937 37.1965 257.839 37.0258 257.71 36.8601C257.584 36.6911 257.412 36.5518 257.193 36.4425C256.974 36.3331 256.694 36.2784 256.353 36.2784C255.885 36.2784 255.496 36.3861 255.184 36.6016C254.876 36.8137 254.722 37.0838 254.722 37.4119C254.722 37.7036 254.828 37.9339 255.04 38.103C255.252 38.272 255.584 38.4129 256.034 38.5256L257.168 38.804C257.851 38.9697 258.359 39.2232 258.694 39.5646C259.029 39.9027 259.196 40.3385 259.196 40.8722C259.196 41.3097 259.07 41.7008 258.819 42.0455C258.57 42.3902 258.222 42.6619 257.775 42.8608C257.327 43.0597 256.807 43.1591 256.213 43.1591C255.435 43.1591 254.79 42.9901 254.279 42.652C253.769 42.3139 253.446 41.8201 253.31 41.1705L254.424 40.892C254.53 41.303 254.73 41.6113 255.025 41.8168C255.324 42.0223 255.713 42.125 256.194 42.125C256.74 42.125 257.175 42.009 257.496 41.777C257.821 41.5417 257.983 41.2599 257.983 40.9318C257.983 40.6667 257.891 40.4446 257.705 40.2656C257.519 40.0833 257.234 39.9474 256.85 39.858L255.577 39.5597C254.878 39.3939 254.364 39.1371 254.036 38.7891C253.711 38.4377 253.549 37.9986 253.549 37.4716C253.549 37.0407 253.67 36.6596 253.912 36.3281C254.157 35.9967 254.49 35.7365 254.911 35.5476C255.335 35.3587 255.816 35.2642 256.353 35.2642C257.108 35.2642 257.702 35.4299 258.132 35.7614C258.567 36.0928 258.875 36.5303 259.057 37.0739ZM268.221 35.3636V36.358H264.264V35.3636H268.221ZM265.417 33.5341H266.59V40.8125C266.59 41.1439 266.638 41.3925 266.735 41.5582C266.834 41.7206 266.96 41.83 267.112 41.8864C267.268 41.9394 267.432 41.9659 267.605 41.9659C267.734 41.9659 267.84 41.9593 267.923 41.946C268.006 41.9295 268.072 41.9162 268.122 41.9062L268.36 42.9602C268.281 42.9901 268.17 43.0199 268.027 43.0497C267.885 43.0829 267.704 43.0994 267.485 43.0994C267.154 43.0994 266.829 43.0282 266.511 42.8857C266.196 42.7431 265.934 42.526 265.725 42.2344C265.52 41.9427 265.417 41.5748 265.417 41.1307V33.5341ZM271.323 38.4062V43H270.15V32.8182H271.323V36.5568H271.423C271.602 36.1624 271.87 35.8492 272.228 35.6172C272.589 35.3819 273.07 35.2642 273.67 35.2642C274.19 35.2642 274.646 35.3686 275.037 35.5774C275.428 35.7829 275.731 36.0994 275.947 36.527C276.166 36.9512 276.275 37.4915 276.275 38.1477V43H275.102V38.2273C275.102 37.6207 274.944 37.1518 274.629 36.8203C274.318 36.4856 273.885 36.3182 273.332 36.3182C272.947 36.3182 272.603 36.3994 272.298 36.5618C271.996 36.7242 271.758 36.9612 271.582 37.2727C271.41 37.5843 271.323 37.9621 271.323 38.4062ZM281.623 43.1591C280.887 43.1591 280.253 42.9967 279.719 42.6719C279.189 42.3438 278.779 41.8864 278.491 41.2997C278.206 40.7098 278.064 40.0237 278.064 39.2415C278.064 38.4593 278.206 37.7699 278.491 37.1733C278.779 36.5734 279.181 36.1061 279.694 35.7713C280.211 35.4332 280.815 35.2642 281.504 35.2642C281.902 35.2642 282.294 35.3305 282.682 35.4631C283.07 35.5956 283.423 35.8111 283.741 36.1094C284.059 36.4044 284.313 36.7955 284.502 37.2827C284.691 37.7699 284.785 38.3698 284.785 39.0824V39.5795H278.899V38.5653H283.592C283.592 38.1345 283.506 37.75 283.333 37.4119C283.164 37.0739 282.922 36.8071 282.608 36.6115C282.296 36.416 281.928 36.3182 281.504 36.3182C281.037 36.3182 280.632 36.4342 280.291 36.6662C279.953 36.8949 279.693 37.1932 279.51 37.5611C279.328 37.929 279.237 38.3234 279.237 38.7443V39.4205C279.237 39.9972 279.336 40.486 279.535 40.8871C279.737 41.2848 280.017 41.5881 280.375 41.7969C280.733 42.0024 281.149 42.1051 281.623 42.1051C281.931 42.1051 282.21 42.062 282.458 41.9759C282.71 41.8864 282.927 41.7538 283.11 41.5781C283.292 41.3991 283.433 41.1771 283.532 40.9119L284.666 41.2301C284.547 41.6146 284.346 41.9527 284.064 42.2443C283.783 42.5327 283.435 42.758 283.02 42.9205C282.606 43.0795 282.14 43.1591 281.623 43.1591ZM293.391 43.1591C292.755 43.1591 292.193 42.9983 291.706 42.6768C291.218 42.352 290.837 41.8946 290.562 41.3047C290.287 40.7114 290.15 40.0104 290.15 39.2017C290.15 38.3996 290.287 37.7036 290.562 37.1136C290.837 36.5237 291.22 36.0679 291.711 35.7464C292.201 35.425 292.768 35.2642 293.411 35.2642C293.908 35.2642 294.301 35.3471 294.589 35.5128C294.881 35.6752 295.103 35.8608 295.255 36.0696C295.411 36.2751 295.532 36.4441 295.618 36.5767H295.718V32.8182H296.891V43H295.757V41.8267H295.618C295.532 41.9659 295.409 42.1416 295.25 42.3537C295.091 42.5625 294.864 42.7498 294.569 42.9155C294.274 43.0779 293.882 43.1591 293.391 43.1591ZM293.55 42.1051C294.021 42.1051 294.418 41.9825 294.743 41.7372C295.068 41.4886 295.315 41.1456 295.484 40.7081C295.653 40.2673 295.738 39.7585 295.738 39.1818C295.738 38.6117 295.655 38.1129 295.489 37.6854C295.323 37.2545 295.078 36.9197 294.753 36.6811C294.428 36.4392 294.027 36.3182 293.55 36.3182C293.053 36.3182 292.639 36.4458 292.307 36.701C291.979 36.9529 291.732 37.2959 291.566 37.7301C291.404 38.161 291.323 38.6449 291.323 39.1818C291.323 39.7254 291.406 40.2192 291.571 40.6634C291.74 41.1042 291.989 41.4555 292.317 41.7173C292.649 41.9759 293.06 42.1051 293.55 42.1051ZM301.45 43.179C300.966 43.179 300.527 43.0878 300.132 42.9055C299.738 42.7199 299.425 42.4531 299.193 42.1051C298.961 41.7538 298.845 41.3295 298.845 40.8324C298.845 40.3949 298.931 40.0402 299.103 39.7685C299.276 39.4934 299.506 39.2779 299.794 39.1222C300.083 38.9664 300.401 38.8504 300.749 38.7741C301.1 38.6946 301.453 38.6316 301.808 38.5852C302.272 38.5256 302.648 38.4808 302.936 38.451C303.228 38.4179 303.44 38.3632 303.573 38.2869C303.709 38.2107 303.777 38.0781 303.777 37.8892V37.8494C303.777 37.3589 303.642 36.9777 303.374 36.706C303.109 36.4342 302.706 36.2983 302.166 36.2983C301.606 36.2983 301.167 36.4209 300.848 36.6662C300.53 36.9115 300.306 37.1733 300.177 37.4517L299.064 37.054C299.262 36.59 299.528 36.2287 299.859 35.9702C300.194 35.7083 300.558 35.526 300.953 35.4233C301.35 35.3172 301.742 35.2642 302.126 35.2642C302.371 35.2642 302.653 35.294 302.971 35.3537C303.293 35.41 303.603 35.5277 303.901 35.7067C304.203 35.8857 304.453 36.1558 304.652 36.517C304.85 36.8783 304.95 37.3622 304.95 37.9688V43H303.777V41.9659H303.717C303.637 42.1316 303.505 42.3089 303.319 42.4979C303.134 42.6868 302.887 42.8475 302.578 42.9801C302.27 43.1127 301.894 43.179 301.45 43.179ZM301.629 42.125C302.093 42.125 302.484 42.0339 302.802 41.8516C303.124 41.6693 303.366 41.4339 303.528 41.1456C303.694 40.8572 303.777 40.554 303.777 40.2358V39.1619C303.727 39.2216 303.618 39.2763 303.449 39.326C303.283 39.3724 303.091 39.4138 302.872 39.4503C302.656 39.4834 302.446 39.5133 302.24 39.5398C302.038 39.563 301.874 39.5829 301.748 39.5994C301.443 39.6392 301.158 39.7038 300.893 39.7933C300.631 39.8795 300.419 40.0104 300.257 40.1861C300.098 40.3584 300.018 40.5937 300.018 40.892C300.018 41.2997 300.169 41.608 300.471 41.8168C300.775 42.0223 301.162 42.125 301.629 42.125ZM312.501 37.0739L311.447 37.3722C311.38 37.1965 311.282 37.0258 311.153 36.8601C311.027 36.6911 310.855 36.5518 310.636 36.4425C310.417 36.3331 310.137 36.2784 309.796 36.2784C309.329 36.2784 308.939 36.3861 308.628 36.6016C308.319 36.8137 308.165 37.0838 308.165 37.4119C308.165 37.7036 308.271 37.9339 308.483 38.103C308.696 38.272 309.027 38.4129 309.478 38.5256L310.611 38.804C311.294 38.9697 311.803 39.2232 312.138 39.5646C312.472 39.9027 312.64 40.3385 312.64 40.8722C312.64 41.3097 312.514 41.7008 312.262 42.0455C312.013 42.3902 311.665 42.6619 311.218 42.8608C310.77 43.0597 310.25 43.1591 309.657 43.1591C308.878 43.1591 308.233 42.9901 307.723 42.652C307.212 42.3139 306.889 41.8201 306.753 41.1705L307.867 40.892C307.973 41.303 308.174 41.6113 308.469 41.8168C308.767 42.0223 309.156 42.125 309.637 42.125C310.184 42.125 310.618 42.009 310.939 41.777C311.264 41.5417 311.427 41.2599 311.427 40.9318C311.427 40.6667 311.334 40.4446 311.148 40.2656C310.963 40.0833 310.678 39.9474 310.293 39.858L309.02 39.5597C308.321 39.3939 307.807 39.1371 307.479 38.7891C307.154 38.4377 306.992 37.9986 306.992 37.4716C306.992 37.0407 307.113 36.6596 307.355 36.3281C307.6 35.9967 307.933 35.7365 308.354 35.5476C308.778 35.3587 309.259 35.2642 309.796 35.2642C310.552 35.2642 311.145 35.4299 311.576 35.7614C312.01 36.0928 312.318 36.5303 312.501 37.0739ZM315.579 38.4062V43H314.406V32.8182H315.579V36.5568H315.679C315.858 36.1624 316.126 35.8492 316.484 35.6172C316.845 35.3819 317.326 35.2642 317.926 35.2642C318.446 35.2642 318.902 35.3686 319.293 35.5774C319.684 35.7829 319.987 36.0994 320.203 36.527C320.422 36.9512 320.531 37.4915 320.531 38.1477V43H319.358V38.2273C319.358 37.6207 319.2 37.1518 318.885 36.8203C318.574 36.4856 318.141 36.3182 317.588 36.3182C317.203 36.3182 316.859 36.3994 316.554 36.5618C316.252 36.7242 316.013 36.9612 315.838 37.2727C315.665 37.5843 315.579 37.9621 315.579 38.4062ZM322.836 43V32.8182H324.01V36.5767H324.109C324.195 36.4441 324.315 36.2751 324.467 36.0696C324.623 35.8608 324.845 35.6752 325.133 35.5128C325.425 35.3471 325.819 35.2642 326.317 35.2642C326.96 35.2642 327.526 35.425 328.017 35.7464C328.507 36.0679 328.89 36.5237 329.165 37.1136C329.44 37.7036 329.578 38.3996 329.578 39.2017C329.578 40.0104 329.44 40.7114 329.165 41.3047C328.89 41.8946 328.509 42.352 328.022 42.6768C327.535 42.9983 326.973 43.1591 326.336 43.1591C325.846 43.1591 325.453 43.0779 325.158 42.9155C324.863 42.7498 324.636 42.5625 324.477 42.3537C324.318 42.1416 324.195 41.9659 324.109 41.8267H323.97V43H322.836ZM323.99 39.1818C323.99 39.7585 324.074 40.2673 324.243 40.7081C324.412 41.1456 324.659 41.4886 324.984 41.7372C325.309 41.9825 325.707 42.1051 326.177 42.1051C326.668 42.1051 327.077 41.9759 327.405 41.7173C327.737 41.4555 327.985 41.1042 328.151 40.6634C328.32 40.2192 328.405 39.7254 328.405 39.1818C328.405 38.6449 328.322 38.161 328.156 37.7301C327.994 37.2959 327.747 36.9529 327.415 36.701C327.087 36.4458 326.675 36.3182 326.177 36.3182C325.7 36.3182 325.299 36.4392 324.974 36.6811C324.649 36.9197 324.404 37.2545 324.238 37.6854C324.073 38.1129 323.99 38.6117 323.99 39.1818ZM334.475 43.1591C333.786 43.1591 333.181 42.995 332.66 42.6669C332.143 42.3388 331.739 41.8797 331.447 41.2898C331.159 40.6998 331.015 40.0104 331.015 39.2216C331.015 38.4261 331.159 37.7318 331.447 37.1385C331.739 36.5452 332.143 36.0845 332.66 35.7564C333.181 35.4283 333.786 35.2642 334.475 35.2642C335.164 35.2642 335.768 35.4283 336.285 35.7564C336.805 36.0845 337.209 36.5452 337.498 37.1385C337.789 37.7318 337.935 38.4261 337.935 39.2216C337.935 40.0104 337.789 40.6998 337.498 41.2898C337.209 41.8797 336.805 42.3388 336.285 42.6669C335.768 42.995 335.164 43.1591 334.475 43.1591ZM334.475 42.1051C334.999 42.1051 335.43 41.9709 335.768 41.7024C336.106 41.4339 336.356 41.081 336.518 40.6435C336.681 40.206 336.762 39.732 336.762 39.2216C336.762 38.7112 336.681 38.2356 336.518 37.7947C336.356 37.3539 336.106 36.9976 335.768 36.7259C335.43 36.4541 334.999 36.3182 334.475 36.3182C333.951 36.3182 333.52 36.4541 333.182 36.7259C332.844 36.9976 332.594 37.3539 332.432 37.7947C332.269 38.2356 332.188 38.7112 332.188 39.2216C332.188 39.732 332.269 40.206 332.432 40.6435C332.594 41.081 332.844 41.4339 333.182 41.7024C333.52 41.9709 333.951 42.1051 334.475 42.1051ZM341.973 43.179C341.489 43.179 341.05 43.0878 340.656 42.9055C340.261 42.7199 339.948 42.4531 339.716 42.1051C339.484 41.7538 339.368 41.3295 339.368 40.8324C339.368 40.3949 339.454 40.0402 339.627 39.7685C339.799 39.4934 340.029 39.2779 340.318 39.1222C340.606 38.9664 340.924 38.8504 341.272 38.7741C341.624 38.6946 341.977 38.6316 342.331 38.5852C342.795 38.5256 343.172 38.4808 343.46 38.451C343.752 38.4179 343.964 38.3632 344.096 38.2869C344.232 38.2107 344.3 38.0781 344.3 37.8892V37.8494C344.3 37.3589 344.166 36.9777 343.897 36.706C343.632 36.4342 343.23 36.2983 342.689 36.2983C342.129 36.2983 341.69 36.4209 341.372 36.6662C341.054 36.9115 340.83 37.1733 340.701 37.4517L339.587 37.054C339.786 36.59 340.051 36.2287 340.382 35.9702C340.717 35.7083 341.082 35.526 341.476 35.4233C341.874 35.3172 342.265 35.2642 342.65 35.2642C342.895 35.2642 343.176 35.294 343.495 35.3537C343.816 35.41 344.126 35.5277 344.424 35.7067C344.726 35.8857 344.976 36.1558 345.175 36.517C345.374 36.8783 345.473 37.3622 345.473 37.9688V43H344.3V41.9659H344.24C344.161 42.1316 344.028 42.3089 343.843 42.4979C343.657 42.6868 343.41 42.8475 343.102 42.9801C342.794 43.1127 342.417 43.179 341.973 43.179ZM342.152 42.125C342.616 42.125 343.007 42.0339 343.326 41.8516C343.647 41.6693 343.889 41.4339 344.051 41.1456C344.217 40.8572 344.3 40.554 344.3 40.2358V39.1619C344.25 39.2216 344.141 39.2763 343.972 39.326C343.806 39.3724 343.614 39.4138 343.395 39.4503C343.18 39.4834 342.969 39.5133 342.764 39.5398C342.562 39.563 342.398 39.5829 342.272 39.5994C341.967 39.6392 341.682 39.7038 341.417 39.7933C341.155 39.8795 340.943 40.0104 340.78 40.1861C340.621 40.3584 340.542 40.5937 340.542 40.892C340.542 41.2997 340.692 41.608 340.994 41.8168C341.299 42.0223 341.685 42.125 342.152 42.125ZM347.615 43V35.3636H348.748V36.517H348.828C348.967 36.1392 349.219 35.8326 349.584 35.5973C349.948 35.362 350.359 35.2443 350.817 35.2443C350.903 35.2443 351.01 35.246 351.14 35.2493C351.269 35.2526 351.367 35.2576 351.433 35.2642V36.4574C351.393 36.4474 351.302 36.4325 351.16 36.4126C351.02 36.3894 350.873 36.3778 350.717 36.3778C350.346 36.3778 350.015 36.4557 349.723 36.6115C349.434 36.764 349.206 36.9761 349.037 37.2479C348.871 37.5163 348.788 37.8229 348.788 38.1676V43H347.615ZM355.475 43.1591C354.839 43.1591 354.277 42.9983 353.79 42.6768C353.302 42.352 352.921 41.8946 352.646 41.3047C352.371 40.7114 352.233 40.0104 352.233 39.2017C352.233 38.3996 352.371 37.7036 352.646 37.1136C352.921 36.5237 353.304 36.0679 353.795 35.7464C354.285 35.425 354.852 35.2642 355.495 35.2642C355.992 35.2642 356.385 35.3471 356.673 35.5128C356.965 35.6752 357.187 35.8608 357.339 36.0696C357.495 36.2751 357.616 36.4441 357.702 36.5767H357.802V32.8182H358.975V43H357.841V41.8267H357.702C357.616 41.9659 357.493 42.1416 357.334 42.3537C357.175 42.5625 356.948 42.7498 356.653 42.9155C356.358 43.0779 355.965 43.1591 355.475 43.1591ZM355.634 42.1051C356.105 42.1051 356.502 41.9825 356.827 41.7372C357.152 41.4886 357.399 41.1456 357.568 40.7081C357.737 40.2673 357.822 39.7585 357.822 39.1818C357.822 38.6117 357.739 38.1129 357.573 37.6854C357.407 37.2545 357.162 36.9197 356.837 36.6811C356.512 36.4392 356.111 36.3182 355.634 36.3182C355.137 36.3182 354.723 36.4458 354.391 36.701C354.063 36.9529 353.816 37.2959 353.65 37.7301C353.488 38.161 353.407 38.6449 353.407 39.1818C353.407 39.7254 353.49 40.2192 353.655 40.6634C353.824 41.1042 354.073 41.4555 354.401 41.7173C354.733 41.9759 355.144 42.1051 355.634 42.1051Z" fill="#64748B"/>
</svg>
