<svg width="382" height="32" viewBox="0 0 382 32" fill="none" xmlns="http://www.w3.org/2000/svg">
<mask id="path-1-inside-1_198_1222" fill="white">
<path d="M0 15.5H382V16.5H0V15.5Z"/>
</mask>
<path d="M0 15.5V16.5H382V15.5V14.5H0V15.5Z" fill="#E2E8F0" mask="url(#path-1-inside-1_198_1222)"/>
<rect width="150.5" height="16" transform="translate(115.75 8)" fill="white"/>
<path d="M136.344 20.1172C135.598 20.1172 134.933 19.9365 134.349 19.5752C133.765 19.2139 133.305 18.6982 132.969 18.0283C132.633 17.3584 132.465 16.5625 132.465 15.6406C132.465 14.7148 132.633 13.917 132.969 13.2471C133.305 12.5771 133.765 12.0605 134.349 11.6973C134.933 11.334 135.598 11.1523 136.344 11.1523C137.09 11.1523 137.754 11.334 138.336 11.6973C138.918 12.0605 139.376 12.5771 139.71 13.2471C140.044 13.917 140.211 14.7148 140.211 15.6406C140.211 16.5625 140.044 17.3584 139.71 18.0283C139.376 18.6982 138.918 19.2139 138.336 19.5752C137.754 19.9365 137.09 20.1172 136.344 20.1172ZM136.344 19.0859C136.863 19.0859 137.333 18.9541 137.753 18.6904C138.173 18.4268 138.507 18.0381 138.755 17.5244C139.003 17.0107 139.127 16.3828 139.127 15.6406C139.127 14.8906 139.003 14.2588 138.755 13.7451C138.507 13.2314 138.173 12.8428 137.753 12.5791C137.333 12.3154 136.863 12.1836 136.344 12.1836C135.82 12.1836 135.348 12.3164 134.926 12.582C134.504 12.8477 134.169 13.2373 133.921 13.751C133.673 14.2646 133.549 14.8945 133.549 15.6406C133.549 16.3828 133.673 17.0098 133.921 17.5215C134.169 18.0332 134.504 18.4219 134.926 18.6875C135.348 18.9531 135.82 19.0859 136.344 19.0859ZM141.98 20V11.2695H144.969C145.648 11.2695 146.208 11.3857 146.647 11.6182C147.087 11.8506 147.413 12.1699 147.626 12.5762C147.839 12.9824 147.945 13.4453 147.945 13.9648C147.945 14.4844 147.839 14.9434 147.626 15.3418C147.413 15.7402 147.088 16.0518 146.65 16.2764C146.213 16.501 145.654 16.6133 144.975 16.6133H142.602V15.623H144.922C145.383 15.623 145.753 15.5557 146.032 15.4209C146.312 15.2861 146.516 15.0947 146.645 14.8467C146.773 14.5986 146.838 14.3047 146.838 13.9648C146.838 13.6172 146.773 13.3154 146.645 13.0596C146.516 12.8037 146.311 12.6045 146.029 12.4619C145.748 12.3193 145.375 12.248 144.91 12.248H143.094V20H141.98ZM146.996 20L144.887 16.0684H146.141L148.285 20H146.996ZM156.611 20.1172C155.865 20.1172 155.2 19.9365 154.616 19.5752C154.032 19.2139 153.573 18.6982 153.239 18.0283C152.905 17.3584 152.738 16.5625 152.738 15.6406C152.738 14.7148 152.905 13.917 153.239 13.2471C153.573 12.5771 154.032 12.0605 154.616 11.6973C155.2 11.334 155.865 11.1523 156.611 11.1523C157.053 11.1523 157.47 11.2168 157.862 11.3457C158.255 11.4746 158.607 11.6631 158.92 11.9111C159.232 12.1592 159.493 12.46 159.702 12.8135C159.911 13.167 160.055 13.5684 160.133 14.0176H159.02C158.957 13.7168 158.851 13.4531 158.7 13.2266C158.55 13 158.366 12.8086 158.149 12.6523C157.933 12.4961 157.693 12.3789 157.432 12.3008C157.17 12.2227 156.896 12.1836 156.611 12.1836C156.088 12.1836 155.615 12.3164 155.193 12.582C154.771 12.8477 154.438 13.2373 154.191 13.751C153.945 14.2646 153.822 14.8945 153.822 15.6406C153.822 16.3828 153.946 17.0107 154.194 17.5244C154.442 18.0381 154.777 18.4268 155.199 18.6904C155.621 18.9541 156.092 19.0859 156.611 19.0859C156.896 19.0859 157.17 19.0459 157.432 18.9658C157.693 18.8857 157.933 18.7686 158.149 18.6143C158.366 18.46 158.55 18.2686 158.7 18.04C158.851 17.8115 158.957 17.5488 159.02 17.252H160.133C160.059 17.6973 159.917 18.0957 159.708 18.4473C159.499 18.7988 159.238 19.0996 158.926 19.3496C158.613 19.5996 158.261 19.79 157.868 19.9209C157.476 20.0518 157.057 20.1172 156.611 20.1172ZM165.383 20.1172C164.637 20.1172 163.972 19.9365 163.388 19.5752C162.804 19.2139 162.344 18.6982 162.008 18.0283C161.672 17.3584 161.504 16.5625 161.504 15.6406C161.504 14.7148 161.672 13.917 162.008 13.2471C162.344 12.5771 162.804 12.0605 163.388 11.6973C163.972 11.334 164.637 11.1523 165.383 11.1523C166.129 11.1523 166.793 11.334 167.375 11.6973C167.957 12.0605 168.415 12.5771 168.749 13.2471C169.083 13.917 169.25 14.7148 169.25 15.6406C169.25 16.5625 169.083 17.3584 168.749 18.0283C168.415 18.6982 167.957 19.2139 167.375 19.5752C166.793 19.9365 166.129 20.1172 165.383 20.1172ZM165.383 19.0859C165.902 19.0859 166.372 18.9541 166.792 18.6904C167.212 18.4268 167.546 18.0381 167.794 17.5244C168.042 17.0107 168.166 16.3828 168.166 15.6406C168.166 14.8906 168.042 14.2588 167.794 13.7451C167.546 13.2314 167.212 12.8428 166.792 12.5791C166.372 12.3154 165.902 12.1836 165.383 12.1836C164.859 12.1836 164.387 12.3164 163.965 12.582C163.543 12.8477 163.208 13.2373 162.96 13.751C162.712 14.2646 162.588 14.8945 162.588 15.6406C162.588 16.3828 162.712 17.0098 162.96 17.5215C163.208 18.0332 163.543 18.4219 163.965 18.6875C164.387 18.9531 164.859 19.0859 165.383 19.0859ZM171.02 20V11.2695H172.332L175.883 16.8535C175.977 16.998 176.09 17.1836 176.223 17.4102C176.355 17.6367 176.499 17.8926 176.653 18.1777C176.808 18.4629 176.959 18.7676 177.107 19.0918H176.949C176.914 18.7559 176.889 18.4346 176.873 18.1279C176.857 17.8213 176.848 17.5391 176.844 17.2812C176.84 17.0234 176.838 16.8047 176.838 16.625V11.2695H177.951V20H176.627L173.463 15.0312C173.318 14.8008 173.173 14.5635 173.026 14.3193C172.88 14.0752 172.713 13.7861 172.525 13.4521C172.338 13.1182 172.105 12.7051 171.828 12.2129H172.033C172.053 12.6465 172.07 13.0469 172.086 13.4141C172.102 13.7812 172.114 14.1016 172.124 14.375C172.134 14.6484 172.139 14.8633 172.139 15.0195V20H171.02ZM179.58 12.2539V11.2695H186.178V12.2539H183.441V20H182.328V12.2539H179.58ZM188.92 11.2695V20H187.807V11.2695H188.92ZM191.029 20V11.2695H192.342L195.893 16.8535C195.986 16.998 196.1 17.1836 196.232 17.4102C196.365 17.6367 196.509 17.8926 196.663 18.1777C196.817 18.4629 196.969 18.7676 197.117 19.0918H196.959C196.924 18.7559 196.898 18.4346 196.883 18.1279C196.867 17.8213 196.857 17.5391 196.854 17.2812C196.85 17.0234 196.848 16.8047 196.848 16.625V11.2695H197.961V20H196.637L193.473 15.0312C193.328 14.8008 193.183 14.5635 193.036 14.3193C192.89 14.0752 192.723 13.7861 192.535 13.4521C192.348 13.1182 192.115 12.7051 191.838 12.2129H192.043C192.062 12.6465 192.08 13.0469 192.096 13.4141C192.111 13.7812 192.124 14.1016 192.134 14.375C192.144 14.6484 192.148 14.8633 192.148 15.0195V20H191.029ZM203.486 20.1406C202.799 20.1406 202.198 20.0059 201.685 19.7363C201.171 19.4668 200.773 19.0977 200.492 18.6289C200.211 18.1602 200.07 17.627 200.07 17.0293V11.2695H201.184V16.9414C201.184 17.3594 201.276 17.7314 201.462 18.0576C201.647 18.3838 201.912 18.6406 202.256 18.8281C202.6 19.0156 203.01 19.1094 203.486 19.1094C203.963 19.1094 204.372 19.0156 204.714 18.8281C205.056 18.6406 205.318 18.3838 205.502 18.0576C205.686 17.7314 205.777 17.3594 205.777 16.9414V11.2695H206.891V17.0293C206.891 17.627 206.75 18.1602 206.469 18.6289C206.188 19.0977 205.792 19.4668 205.282 19.7363C204.772 20.0059 204.174 20.1406 203.486 20.1406ZM209 20V11.2695H214.32V12.2539H210.113V15.1016H214.033V16.0859H210.113V19.0156H214.373V20H209ZM221.217 20L218.838 11.2695H219.975L221.357 16.625C221.432 16.9102 221.502 17.2002 221.568 17.4951C221.635 17.79 221.699 18.0889 221.762 18.3916C221.824 18.6943 221.883 19.0059 221.938 19.3262H221.803C221.861 19.0059 221.922 18.6943 221.984 18.3916C222.047 18.0889 222.113 17.79 222.184 17.4951C222.254 17.2002 222.326 16.9102 222.4 16.625L223.812 11.2695H225.078L226.479 16.625C226.557 16.9102 226.63 17.2002 226.698 17.4951C226.767 17.79 226.834 18.0889 226.9 18.3916C226.967 18.6943 227.029 19.0059 227.088 19.3262H226.936C226.994 19.0059 227.055 18.6943 227.117 18.3916C227.18 18.0889 227.246 17.79 227.316 17.4951C227.387 17.2002 227.457 16.9102 227.527 16.625L228.904 11.2695H230.053L227.662 20H226.367L224.867 14.4688C224.77 14.1094 224.676 13.7178 224.586 13.2939C224.496 12.8701 224.408 12.3809 224.322 11.8262H224.557C224.471 12.3496 224.387 12.8174 224.305 13.2295C224.223 13.6416 224.125 14.0547 224.012 14.4688L222.518 20H221.217ZM232.525 11.2695V20H231.412V11.2695H232.525ZM234.154 12.2539V11.2695H240.752V12.2539H238.016V20H236.902V12.2539H234.154ZM242.381 20V11.2695H243.494V15.043H248.076V11.2695H249.189V20H248.076V16.0273H243.494V20H242.381Z" fill="#64748B"/>
</svg>
