<svg width="382" height="49" viewBox="0 0 382 49" fill="none" xmlns="http://www.w3.org/2000/svg">
<rect x="0.5" y="0.5" width="381" height="48" rx="7.5" fill="#F8FAFC"/>
<rect x="0.5" y="0.5" width="381" height="48" rx="7.5" stroke="#E2E8F0"/>
<g clip-path="url(#clip0_198_1194)">
<path d="M44.7955 30.2045C44.2424 30.2045 43.7405 30.1004 43.2898 29.892C42.839 29.6799 42.4811 29.375 42.2159 28.9773C41.9508 28.5758 41.8182 28.0909 41.8182 27.5227C41.8182 27.0227 41.9167 26.6174 42.1136 26.3068C42.3106 25.9924 42.5739 25.7462 42.9034 25.5682C43.233 25.3902 43.5966 25.2576 43.9943 25.1705C44.3958 25.0795 44.7992 25.0076 45.2045 24.9545C45.7348 24.8864 46.1648 24.8352 46.4943 24.8011C46.8277 24.7633 47.0701 24.7008 47.2216 24.6136C47.3769 24.5265 47.4545 24.375 47.4545 24.1591V24.1136C47.4545 23.553 47.3011 23.1174 46.9943 22.8068C46.6913 22.4962 46.2311 22.3409 45.6136 22.3409C44.9735 22.3409 44.4716 22.4811 44.108 22.7614C43.7443 23.0417 43.4886 23.3409 43.3409 23.6591L42.0682 23.2045C42.2955 22.6742 42.5985 22.2614 42.9773 21.9659C43.3598 21.6667 43.7765 21.4583 44.2273 21.3409C44.6818 21.2197 45.1288 21.1591 45.5682 21.1591C45.8485 21.1591 46.1705 21.1932 46.5341 21.2614C46.9015 21.3258 47.2557 21.4602 47.5966 21.6648C47.9413 21.8693 48.2273 22.178 48.4545 22.5909C48.6818 23.0038 48.7955 23.5568 48.7955 24.25V30H47.4545V28.8182H47.3864C47.2955 29.0076 47.1439 29.2102 46.9318 29.4261C46.7197 29.642 46.4375 29.8258 46.0852 29.9773C45.733 30.1288 45.303 30.2045 44.7955 30.2045ZM45 29C45.5303 29 45.9773 28.8958 46.3409 28.6875C46.7083 28.4792 46.9848 28.2102 47.1705 27.8807C47.3598 27.5511 47.4545 27.2045 47.4545 26.8409V25.6136C47.3977 25.6818 47.2727 25.7443 47.0795 25.8011C46.8902 25.8542 46.6705 25.9015 46.4205 25.9432C46.1742 25.9811 45.9337 26.0152 45.6989 26.0455C45.4678 26.072 45.2803 26.0947 45.1364 26.1136C44.7879 26.1591 44.4621 26.233 44.1591 26.3352C43.8598 26.4337 43.6174 26.5833 43.4318 26.7841C43.25 26.9811 43.1591 27.25 43.1591 27.5909C43.1591 28.0568 43.3314 28.4091 43.6761 28.6477C44.0246 28.8826 44.4659 29 45 29ZM54.5384 30.1818C53.8111 30.1818 53.169 29.9981 52.6122 29.6307C52.0554 29.2595 51.6198 28.7367 51.3054 28.0625C50.991 27.3845 50.8338 26.5833 50.8338 25.6591C50.8338 24.7424 50.991 23.947 51.3054 23.2727C51.6198 22.5985 52.0573 22.0777 52.6179 21.7102C53.1785 21.3428 53.8262 21.1591 54.5611 21.1591C55.1293 21.1591 55.5781 21.2538 55.9077 21.4432C56.241 21.6288 56.4948 21.8409 56.669 22.0795C56.8471 22.3144 56.9853 22.5076 57.0838 22.6591H57.1974V18.3636H58.5384V30H57.2429V28.6591H57.0838C56.9853 28.8182 56.8452 29.0189 56.6634 29.2614C56.4815 29.5 56.2221 29.714 55.8849 29.9034C55.5478 30.089 55.099 30.1818 54.5384 30.1818ZM54.7202 28.9773C55.258 28.9773 55.7126 28.8371 56.0838 28.5568C56.455 28.2727 56.7372 27.8807 56.9304 27.3807C57.1236 26.8769 57.2202 26.2955 57.2202 25.6364C57.2202 24.9848 57.1255 24.4148 56.9361 23.9261C56.7467 23.4337 56.4664 23.0511 56.0952 22.7784C55.724 22.5019 55.2656 22.3636 54.7202 22.3636C54.152 22.3636 53.6785 22.5095 53.2997 22.8011C52.9247 23.089 52.6425 23.4811 52.4531 23.9773C52.2675 24.4697 52.1747 25.0227 52.1747 25.6364C52.1747 26.2576 52.2694 26.822 52.4588 27.3295C52.652 27.8333 52.9361 28.2348 53.3111 28.5341C53.6899 28.8295 54.1596 28.9773 54.7202 28.9773ZM61.1804 30V21.2727H62.4759V22.6364H62.5895C62.7713 22.1705 63.0649 21.8087 63.4702 21.5511C63.8755 21.2898 64.3622 21.1591 64.9304 21.1591C65.5062 21.1591 65.9853 21.2898 66.3679 21.5511C66.7543 21.8087 67.0554 22.1705 67.2713 22.6364H67.3622C67.5857 22.1856 67.9209 21.8277 68.3679 21.5625C68.8149 21.2936 69.3509 21.1591 69.9759 21.1591C70.7562 21.1591 71.3944 21.4034 71.8906 21.892C72.3868 22.3769 72.6349 23.1326 72.6349 24.1591V30H71.294V24.1591C71.294 23.5152 71.1179 23.0549 70.7656 22.7784C70.4134 22.5019 69.9986 22.3636 69.5213 22.3636C68.9077 22.3636 68.4323 22.5492 68.0952 22.9205C67.758 23.2879 67.5895 23.7538 67.5895 24.3182V30H66.2259V24.0227C66.2259 23.5265 66.0649 23.1269 65.7429 22.8239C65.4209 22.517 65.0062 22.3636 64.4986 22.3636C64.1501 22.3636 63.8243 22.4564 63.5213 22.642C63.2221 22.8277 62.9796 23.0852 62.794 23.4148C62.6122 23.7405 62.5213 24.1174 62.5213 24.5455V30H61.1804ZM75.0866 30V21.2727H76.4276V30H75.0866ZM75.7685 19.8182C75.5071 19.8182 75.2817 19.7292 75.0923 19.5511C74.9067 19.3731 74.8139 19.1591 74.8139 18.9091C74.8139 18.6591 74.9067 18.4451 75.0923 18.267C75.2817 18.089 75.5071 18 75.7685 18C76.0298 18 76.2533 18.089 76.4389 18.267C76.6283 18.4451 76.723 18.6591 76.723 18.9091C76.723 19.1591 76.6283 19.3731 76.4389 19.5511C76.2533 19.7292 76.0298 19.8182 75.7685 19.8182ZM80.2244 24.75V30H78.8835V21.2727H80.179V22.6364H80.2926C80.4972 22.1932 80.8078 21.8371 81.2244 21.5682C81.6411 21.2955 82.179 21.1591 82.8381 21.1591C83.429 21.1591 83.946 21.2803 84.3892 21.5227C84.8324 21.7614 85.1771 22.125 85.4233 22.6136C85.6695 23.0985 85.7926 23.7121 85.7926 24.4545V30H84.4517V24.5455C84.4517 23.8598 84.2737 23.3258 83.9176 22.9432C83.5616 22.5568 83.0729 22.3636 82.4517 22.3636C82.0237 22.3636 81.6411 22.4564 81.304 22.642C80.9706 22.8277 80.7074 23.0985 80.5142 23.4545C80.321 23.8106 80.2244 24.2424 80.2244 24.75ZM94.9474 33.0682C93.7884 33.0682 92.7637 32.9091 91.8736 32.5909C90.9834 32.2765 90.2353 31.8125 89.6293 31.1989C89.0232 30.5852 88.5649 29.8333 88.2543 28.9432C87.9437 28.053 87.7884 27.0341 87.7884 25.8864C87.7884 24.7765 87.9455 23.7841 88.2599 22.9091C88.5781 22.0341 89.0384 21.2917 89.6406 20.6818C90.2467 20.0682 90.9815 19.6004 91.8452 19.2784C92.7126 18.9564 93.6937 18.7955 94.7884 18.7955C95.8527 18.7955 96.7846 18.9697 97.5838 19.3182C98.3868 19.6629 99.0573 20.1307 99.5952 20.7216C100.137 21.3087 100.542 21.9697 100.811 22.7045C101.084 23.4394 101.22 24.197 101.22 24.9773C101.22 25.5265 101.194 26.0833 101.141 26.6477C101.088 27.2121 100.976 27.7311 100.805 28.2045C100.635 28.6742 100.372 29.053 100.016 29.3409C99.6634 29.6288 99.1861 29.7727 98.5838 29.7727C98.3187 29.7727 98.027 29.7311 97.7088 29.6477C97.3906 29.5644 97.1084 29.4261 96.8622 29.233C96.616 29.0398 96.4702 28.7803 96.4247 28.4545H96.3565C96.2656 28.6742 96.1255 28.8826 95.9361 29.0795C95.7505 29.2765 95.5062 29.4337 95.2031 29.5511C94.9039 29.6686 94.5384 29.7197 94.1065 29.7045C93.6141 29.6856 93.1804 29.5758 92.8054 29.375C92.4304 29.1705 92.116 28.8939 91.8622 28.5455C91.6122 28.1932 91.4228 27.786 91.294 27.3239C91.169 26.858 91.1065 26.3561 91.1065 25.8182C91.1065 25.3068 91.1823 24.839 91.3338 24.4148C91.4853 23.9905 91.6955 23.6193 91.9645 23.3011C92.2372 22.983 92.5554 22.7292 92.919 22.5398C93.2865 22.3466 93.6823 22.2273 94.1065 22.1818C94.4853 22.1439 94.83 22.161 95.1406 22.233C95.4512 22.3011 95.7069 22.4053 95.9077 22.5455C96.1084 22.6818 96.2353 22.8333 96.2884 23H96.3565V22.3636H97.5611V27.5C97.5611 27.8182 97.6501 28.0985 97.8281 28.3409C98.0062 28.5833 98.2656 28.7045 98.6065 28.7045C98.9929 28.7045 99.2884 28.572 99.4929 28.3068C99.7012 28.0417 99.8433 27.6326 99.919 27.0795C99.9986 26.5265 100.038 25.8182 100.038 24.9545C100.038 24.447 99.9683 23.947 99.8281 23.4545C99.6918 22.9583 99.4834 22.4943 99.2031 22.0625C98.9266 21.6307 98.5762 21.25 98.152 20.9205C97.7277 20.5909 97.2296 20.3333 96.6577 20.1477C96.0895 19.9583 95.4437 19.8636 94.7202 19.8636C93.83 19.8636 93.0327 20.0019 92.3281 20.2784C91.6274 20.5511 91.0308 20.9508 90.5384 21.4773C90.0497 22 89.6766 22.6364 89.419 23.3864C89.1652 24.1326 89.0384 24.9811 89.0384 25.9318C89.0384 26.8977 89.1652 27.7557 89.419 28.5057C89.6766 29.2557 90.0554 29.8883 90.5554 30.4034C91.0592 30.9186 91.6823 31.3087 92.4247 31.5739C93.1671 31.8428 94.0232 31.9773 94.9929 31.9773C95.4096 31.9773 95.8205 31.9375 96.2259 31.858C96.6312 31.7784 96.9891 31.6913 97.2997 31.5966C97.6103 31.5019 97.8338 31.4318 97.9702 31.3864L98.2884 32.4318C98.0535 32.5303 97.7467 32.6288 97.3679 32.7273C96.9929 32.8258 96.5914 32.9072 96.1634 32.9716C95.7391 33.036 95.3338 33.0682 94.9474 33.0682ZM94.2884 28.5455C94.7959 28.5455 95.2069 28.4432 95.5213 28.2386C95.8357 28.0341 96.0649 27.7254 96.2088 27.3125C96.3527 26.8996 96.4247 26.3788 96.4247 25.75C96.4247 25.1136 96.3452 24.6174 96.1861 24.2614C96.027 23.9053 95.7921 23.6553 95.4815 23.5114C95.1709 23.3674 94.7884 23.2955 94.3338 23.2955C93.902 23.2955 93.5327 23.4091 93.2259 23.6364C92.9228 23.8598 92.6899 24.1591 92.527 24.5341C92.3679 24.9053 92.2884 25.3106 92.2884 25.75C92.2884 26.2348 92.3527 26.6913 92.4815 27.1193C92.6103 27.5436 92.8205 27.8883 93.1122 28.1534C93.4039 28.4148 93.7959 28.5455 94.2884 28.5455ZM103.227 33.2727V21.2727H104.523V22.6591H104.682C104.78 22.5076 104.917 22.3144 105.091 22.0795C105.269 21.8409 105.523 21.6288 105.852 21.4432C106.186 21.2538 106.636 21.1591 107.205 21.1591C107.939 21.1591 108.587 21.3428 109.148 21.7102C109.708 22.0777 110.146 22.5985 110.46 23.2727C110.775 23.947 110.932 24.7424 110.932 25.6591C110.932 26.5833 110.775 27.3845 110.46 28.0625C110.146 28.7367 109.71 29.2595 109.153 29.6307C108.597 29.9981 107.955 30.1818 107.227 30.1818C106.667 30.1818 106.218 30.089 105.881 29.9034C105.544 29.714 105.284 29.5 105.102 29.2614C104.92 29.0189 104.78 28.8182 104.682 28.6591H104.568V33.2727H103.227ZM104.545 25.6364C104.545 26.2955 104.642 26.8769 104.835 27.3807C105.028 27.8807 105.311 28.2727 105.682 28.5568C106.053 28.8371 106.508 28.9773 107.045 28.9773C107.606 28.9773 108.074 28.8295 108.449 28.5341C108.828 28.2348 109.112 27.8333 109.301 27.3295C109.494 26.822 109.591 26.2576 109.591 25.6364C109.591 25.0227 109.496 24.4697 109.307 23.9773C109.121 23.4811 108.839 23.089 108.46 22.8011C108.085 22.5095 107.614 22.3636 107.045 22.3636C106.5 22.3636 106.042 22.5019 105.67 22.7784C105.299 23.0511 105.019 23.4337 104.83 23.9261C104.64 24.4148 104.545 24.9848 104.545 25.6364ZM115.545 30.2045C114.992 30.2045 114.491 30.1004 114.04 29.892C113.589 29.6799 113.231 29.375 112.966 28.9773C112.701 28.5758 112.568 28.0909 112.568 27.5227C112.568 27.0227 112.667 26.6174 112.864 26.3068C113.061 25.9924 113.324 25.7462 113.653 25.5682C113.983 25.3902 114.347 25.2576 114.744 25.1705C115.146 25.0795 115.549 25.0076 115.955 24.9545C116.485 24.8864 116.915 24.8352 117.244 24.8011C117.578 24.7633 117.82 24.7008 117.972 24.6136C118.127 24.5265 118.205 24.375 118.205 24.1591V24.1136C118.205 23.553 118.051 23.1174 117.744 22.8068C117.441 22.4962 116.981 22.3409 116.364 22.3409C115.723 22.3409 115.222 22.4811 114.858 22.7614C114.494 23.0417 114.239 23.3409 114.091 23.6591L112.818 23.2045C113.045 22.6742 113.348 22.2614 113.727 21.9659C114.11 21.6667 114.527 21.4583 114.977 21.3409C115.432 21.2197 115.879 21.1591 116.318 21.1591C116.598 21.1591 116.92 21.1932 117.284 21.2614C117.652 21.3258 118.006 21.4602 118.347 21.6648C118.691 21.8693 118.977 22.178 119.205 22.5909C119.432 23.0038 119.545 23.5568 119.545 24.25V30H118.205V28.8182H118.136C118.045 29.0076 117.894 29.2102 117.682 29.4261C117.47 29.642 117.188 29.8258 116.835 29.9773C116.483 30.1288 116.053 30.2045 115.545 30.2045ZM115.75 29C116.28 29 116.727 28.8958 117.091 28.6875C117.458 28.4792 117.735 28.2102 117.92 27.8807C118.11 27.5511 118.205 27.2045 118.205 26.8409V25.6136C118.148 25.6818 118.023 25.7443 117.83 25.8011C117.64 25.8542 117.42 25.9015 117.17 25.9432C116.924 25.9811 116.684 26.0152 116.449 26.0455C116.218 26.072 116.03 26.0947 115.886 26.1136C115.538 26.1591 115.212 26.233 114.909 26.3352C114.61 26.4337 114.367 26.5833 114.182 26.7841C114 26.9811 113.909 27.25 113.909 27.5909C113.909 28.0568 114.081 28.4091 114.426 28.6477C114.775 28.8826 115.216 29 115.75 29ZM121.993 30V21.2727H123.288V22.5909H123.379C123.538 22.1591 123.826 21.8087 124.243 21.5398C124.66 21.2708 125.129 21.1364 125.652 21.1364C125.75 21.1364 125.874 21.1383 126.021 21.142C126.169 21.1458 126.281 21.1515 126.357 21.1591V22.5227C126.311 22.5114 126.207 22.4943 126.044 22.4716C125.885 22.4451 125.716 22.4318 125.538 22.4318C125.114 22.4318 124.735 22.5208 124.402 22.6989C124.072 22.8731 123.811 23.1155 123.618 23.4261C123.429 23.733 123.334 24.0833 123.334 24.4773V30H121.993ZM130.514 30.2045C129.961 30.2045 129.459 30.1004 129.009 29.892C128.558 29.6799 128.2 29.375 127.935 28.9773C127.67 28.5758 127.537 28.0909 127.537 27.5227C127.537 27.0227 127.635 26.6174 127.832 26.3068C128.029 25.9924 128.293 25.7462 128.622 25.5682C128.952 25.3902 129.315 25.2576 129.713 25.1705C130.115 25.0795 130.518 25.0076 130.923 24.9545C131.454 24.8864 131.884 24.8352 132.213 24.8011C132.546 24.7633 132.789 24.7008 132.94 24.6136C133.096 24.5265 133.173 24.375 133.173 24.1591V24.1136C133.173 23.553 133.02 23.1174 132.713 22.8068C132.41 22.4962 131.95 22.3409 131.332 22.3409C130.692 22.3409 130.19 22.4811 129.827 22.7614C129.463 23.0417 129.207 23.3409 129.06 23.6591L127.787 23.2045C128.014 22.6742 128.317 22.2614 128.696 21.9659C129.079 21.6667 129.495 21.4583 129.946 21.3409C130.401 21.2197 130.848 21.1591 131.287 21.1591C131.567 21.1591 131.889 21.1932 132.253 21.2614C132.62 21.3258 132.974 21.4602 133.315 21.6648C133.66 21.8693 133.946 22.178 134.173 22.5909C134.401 23.0038 134.514 23.5568 134.514 24.25V30H133.173V28.8182H133.105C133.014 29.0076 132.863 29.2102 132.651 29.4261C132.438 29.642 132.156 29.8258 131.804 29.9773C131.452 30.1288 131.022 30.2045 130.514 30.2045ZM130.719 29C131.249 29 131.696 28.8958 132.06 28.6875C132.427 28.4792 132.704 28.2102 132.889 27.8807C133.079 27.5511 133.173 27.2045 133.173 26.8409V25.6136C133.116 25.6818 132.991 25.7443 132.798 25.8011C132.609 25.8542 132.389 25.9015 132.139 25.9432C131.893 25.9811 131.652 26.0152 131.418 26.0455C131.187 26.072 130.999 26.0947 130.855 26.1136C130.507 26.1591 130.181 26.233 129.878 26.3352C129.579 26.4337 129.336 26.5833 129.151 26.7841C128.969 26.9811 128.878 27.25 128.878 27.5909C128.878 28.0568 129.05 28.4091 129.395 28.6477C129.743 28.8826 130.185 29 130.719 29ZM136.962 33.2727V21.2727H138.257V22.6591H138.416C138.515 22.5076 138.651 22.3144 138.825 22.0795C139.003 21.8409 139.257 21.6288 139.587 21.4432C139.92 21.2538 140.371 21.1591 140.939 21.1591C141.674 21.1591 142.321 21.3428 142.882 21.7102C143.443 22.0777 143.88 22.5985 144.195 23.2727C144.509 23.947 144.666 24.7424 144.666 25.6591C144.666 26.5833 144.509 27.3845 144.195 28.0625C143.88 28.7367 143.445 29.2595 142.888 29.6307C142.331 29.9981 141.689 30.1818 140.962 30.1818C140.401 30.1818 139.952 30.089 139.615 29.9034C139.278 29.714 139.018 29.5 138.837 29.2614C138.655 29.0189 138.515 28.8182 138.416 28.6591H138.303V33.2727H136.962ZM138.28 25.6364C138.28 26.2955 138.376 26.8769 138.57 27.3807C138.763 27.8807 139.045 28.2727 139.416 28.5568C139.787 28.8371 140.242 28.9773 140.78 28.9773C141.34 28.9773 141.808 28.8295 142.183 28.5341C142.562 28.2348 142.846 27.8333 143.036 27.3295C143.229 26.822 143.325 26.2576 143.325 25.6364C143.325 25.0227 143.231 24.4697 143.041 23.9773C142.856 23.4811 142.573 23.089 142.195 22.8011C141.82 22.5095 141.348 22.3636 140.78 22.3636C140.234 22.3636 139.776 22.5019 139.405 22.7784C139.034 23.0511 138.753 23.4337 138.564 23.9261C138.375 24.4148 138.28 24.9848 138.28 25.6364ZM148.053 24.75V30H146.712V18.3636H148.053V22.6364H148.166C148.371 22.1856 148.678 21.8277 149.087 21.5625C149.5 21.2936 150.049 21.1591 150.734 21.1591C151.329 21.1591 151.85 21.2784 152.297 21.517C152.744 21.7519 153.09 22.1136 153.337 22.6023C153.587 23.0871 153.712 23.7045 153.712 24.4545V30H152.371V24.5455C152.371 23.8523 152.191 23.3163 151.831 22.9375C151.475 22.5549 150.981 22.3636 150.348 22.3636C149.909 22.3636 149.515 22.4564 149.166 22.642C148.821 22.8277 148.549 23.0985 148.348 23.4545C148.151 23.8106 148.053 24.2424 148.053 24.75ZM158.733 30.2045C158.18 30.2045 157.678 30.1004 157.227 29.892C156.777 29.6799 156.419 29.375 156.153 28.9773C155.888 28.5758 155.756 28.0909 155.756 27.5227C155.756 27.0227 155.854 26.6174 156.051 26.3068C156.248 25.9924 156.511 25.7462 156.841 25.5682C157.17 25.3902 157.534 25.2576 157.932 25.1705C158.333 25.0795 158.737 25.0076 159.142 24.9545C159.672 24.8864 160.102 24.8352 160.432 24.8011C160.765 24.7633 161.008 24.7008 161.159 24.6136C161.314 24.5265 161.392 24.375 161.392 24.1591V24.1136C161.392 23.553 161.239 23.1174 160.932 22.8068C160.629 22.4962 160.169 22.3409 159.551 22.3409C158.911 22.3409 158.409 22.4811 158.045 22.7614C157.682 23.0417 157.426 23.3409 157.278 23.6591L156.006 23.2045C156.233 22.6742 156.536 22.2614 156.915 21.9659C157.297 21.6667 157.714 21.4583 158.165 21.3409C158.619 21.2197 159.066 21.1591 159.506 21.1591C159.786 21.1591 160.108 21.1932 160.472 21.2614C160.839 21.3258 161.193 21.4602 161.534 21.6648C161.879 21.8693 162.165 22.178 162.392 22.5909C162.619 23.0038 162.733 23.5568 162.733 24.25V30H161.392V28.8182H161.324C161.233 29.0076 161.081 29.2102 160.869 29.4261C160.657 29.642 160.375 29.8258 160.023 29.9773C159.67 30.1288 159.241 30.2045 158.733 30.2045ZM158.938 29C159.468 29 159.915 28.8958 160.278 28.6875C160.646 28.4792 160.922 28.2102 161.108 27.8807C161.297 27.5511 161.392 27.2045 161.392 26.8409V25.6136C161.335 25.6818 161.21 25.7443 161.017 25.8011C160.828 25.8542 160.608 25.9015 160.358 25.9432C160.112 25.9811 159.871 26.0152 159.636 26.0455C159.405 26.072 159.218 26.0947 159.074 26.1136C158.725 26.1591 158.4 26.233 158.097 26.3352C157.797 26.4337 157.555 26.5833 157.369 26.7841C157.188 26.9811 157.097 27.25 157.097 27.5909C157.097 28.0568 157.269 28.4091 157.614 28.6477C157.962 28.8826 158.403 29 158.938 29ZM165.18 30V21.2727H166.476V22.5909H166.567C166.726 22.1591 167.014 21.8087 167.43 21.5398C167.847 21.2708 168.317 21.1364 168.839 21.1364C168.938 21.1364 169.061 21.1383 169.209 21.142C169.357 21.1458 169.468 21.1515 169.544 21.1591V22.5227C169.499 22.5114 169.394 22.4943 169.232 22.4716C169.072 22.4451 168.904 22.4318 168.726 22.4318C168.302 22.4318 167.923 22.5208 167.589 22.6989C167.26 22.8731 166.999 23.1155 166.805 23.4261C166.616 23.733 166.521 24.0833 166.521 24.4773V30H165.18ZM171.134 30V21.2727H172.429V22.6364H172.543C172.724 22.1705 173.018 21.8087 173.423 21.5511C173.829 21.2898 174.315 21.1591 174.884 21.1591C175.459 21.1591 175.938 21.2898 176.321 21.5511C176.707 21.8087 177.009 22.1705 177.224 22.6364H177.315C177.539 22.1856 177.874 21.8277 178.321 21.5625C178.768 21.2936 179.304 21.1591 179.929 21.1591C180.709 21.1591 181.348 21.4034 181.844 21.892C182.34 22.3769 182.588 23.1326 182.588 24.1591V30H181.247V24.1591C181.247 23.5152 181.071 23.0549 180.719 22.7784C180.366 22.5019 179.952 22.3636 179.474 22.3636C178.861 22.3636 178.385 22.5492 178.048 22.9205C177.711 23.2879 177.543 23.7538 177.543 24.3182V30H176.179V24.0227C176.179 23.5265 176.018 23.1269 175.696 22.8239C175.374 22.517 174.959 22.3636 174.452 22.3636C174.103 22.3636 173.777 22.4564 173.474 22.642C173.175 22.8277 172.933 23.0852 172.747 23.4148C172.565 23.7405 172.474 24.1174 172.474 24.5455V30H171.134ZM187.608 30.2045C187.055 30.2045 186.553 30.1004 186.102 29.892C185.652 29.6799 185.294 29.375 185.028 28.9773C184.763 28.5758 184.631 28.0909 184.631 27.5227C184.631 27.0227 184.729 26.6174 184.926 26.3068C185.123 25.9924 185.386 25.7462 185.716 25.5682C186.045 25.3902 186.409 25.2576 186.807 25.1705C187.208 25.0795 187.612 25.0076 188.017 24.9545C188.547 24.8864 188.977 24.8352 189.307 24.8011C189.64 24.7633 189.883 24.7008 190.034 24.6136C190.189 24.5265 190.267 24.375 190.267 24.1591V24.1136C190.267 23.553 190.114 23.1174 189.807 22.8068C189.504 22.4962 189.044 22.3409 188.426 22.3409C187.786 22.3409 187.284 22.4811 186.92 22.7614C186.557 23.0417 186.301 23.3409 186.153 23.6591L184.881 23.2045C185.108 22.6742 185.411 22.2614 185.79 21.9659C186.172 21.6667 186.589 21.4583 187.04 21.3409C187.494 21.2197 187.941 21.1591 188.381 21.1591C188.661 21.1591 188.983 21.1932 189.347 21.2614C189.714 21.3258 190.068 21.4602 190.409 21.6648C190.754 21.8693 191.04 22.178 191.267 22.5909C191.494 23.0038 191.608 23.5568 191.608 24.25V30H190.267V28.8182H190.199C190.108 29.0076 189.956 29.2102 189.744 29.4261C189.532 29.642 189.25 29.8258 188.898 29.9773C188.545 30.1288 188.116 30.2045 187.608 30.2045ZM187.812 29C188.343 29 188.79 28.8958 189.153 28.6875C189.521 28.4792 189.797 28.2102 189.983 27.8807C190.172 27.5511 190.267 27.2045 190.267 26.8409V25.6136C190.21 25.6818 190.085 25.7443 189.892 25.8011C189.703 25.8542 189.483 25.9015 189.233 25.9432C188.987 25.9811 188.746 26.0152 188.511 26.0455C188.28 26.072 188.093 26.0947 187.949 26.1136C187.6 26.1591 187.275 26.233 186.972 26.3352C186.672 26.4337 186.43 26.5833 186.244 26.7841C186.063 26.9811 185.972 27.25 185.972 27.5909C185.972 28.0568 186.144 28.4091 186.489 28.6477C186.837 28.8826 187.278 29 187.812 29ZM197.601 30.1818C196.783 30.1818 196.078 29.9886 195.487 29.6023C194.896 29.2159 194.442 28.6837 194.124 28.0057C193.805 27.3277 193.646 26.553 193.646 25.6818C193.646 24.7955 193.809 24.0133 194.135 23.3352C194.464 22.6534 194.923 22.1212 195.51 21.7386C196.101 21.3523 196.79 21.1591 197.578 21.1591C198.192 21.1591 198.745 21.2727 199.237 21.5C199.73 21.7273 200.133 22.0455 200.447 22.4545C200.762 22.8636 200.957 23.3409 201.033 23.8864H199.692C199.589 23.4886 199.362 23.1364 199.01 22.8295C198.661 22.5189 198.192 22.3636 197.601 22.3636C197.078 22.3636 196.62 22.5 196.226 22.7727C195.836 23.0417 195.531 23.4223 195.311 23.9148C195.095 24.4034 194.987 24.9773 194.987 25.6364C194.987 26.3106 195.093 26.8977 195.305 27.3977C195.521 27.8977 195.824 28.286 196.214 28.5625C196.608 28.839 197.071 28.9773 197.601 28.9773C197.949 28.9773 198.266 28.9167 198.55 28.7955C198.834 28.6742 199.074 28.5 199.271 28.2727C199.468 28.0455 199.608 27.7727 199.692 27.4545H201.033C200.957 27.9697 200.769 28.4337 200.47 28.8466C200.175 29.2557 199.783 29.5814 199.294 29.8239C198.809 30.0625 198.245 30.1818 197.601 30.1818ZM203.857 33.2727C203.629 33.2727 203.427 33.2538 203.249 33.2159C203.071 33.1818 202.947 33.1477 202.879 33.1136L203.22 31.9318C203.546 32.0152 203.834 32.0455 204.084 32.0227C204.334 32 204.555 31.8883 204.749 31.6875C204.946 31.4905 205.125 31.1705 205.288 30.7273L205.538 30.0455L202.311 21.2727H203.766L206.175 28.2273H206.266L208.675 21.2727H210.129L206.425 31.2727C206.258 31.7235 206.052 32.0966 205.805 32.392C205.559 32.6913 205.273 32.9129 204.947 33.0568C204.625 33.2008 204.262 33.2727 203.857 33.2727ZM212.33 30.0909C212.049 30.0909 211.809 29.9905 211.608 29.7898C211.407 29.589 211.307 29.3485 211.307 29.0682C211.307 28.7879 211.407 28.5473 211.608 28.3466C211.809 28.1458 212.049 28.0455 212.33 28.0455C212.61 28.0455 212.85 28.1458 213.051 28.3466C213.252 28.5473 213.352 28.7879 213.352 29.0682C213.352 29.2538 213.305 29.4242 213.21 29.5795C213.119 29.7348 212.996 29.8598 212.841 29.9545C212.689 30.0455 212.519 30.0909 212.33 30.0909ZM219.304 30.1818C218.486 30.1818 217.781 29.9886 217.19 29.6023C216.599 29.2159 216.145 28.6837 215.827 28.0057C215.509 27.3277 215.349 26.553 215.349 25.6818C215.349 24.7955 215.512 24.0133 215.838 23.3352C216.168 22.6534 216.626 22.1212 217.213 21.7386C217.804 21.3523 218.493 21.1591 219.281 21.1591C219.895 21.1591 220.448 21.2727 220.94 21.5C221.433 21.7273 221.836 22.0455 222.151 22.4545C222.465 22.8636 222.66 23.3409 222.736 23.8864H221.395C221.293 23.4886 221.065 23.1364 220.713 22.8295C220.365 22.5189 219.895 22.3636 219.304 22.3636C218.781 22.3636 218.323 22.5 217.929 22.7727C217.539 23.0417 217.234 23.4223 217.014 23.9148C216.798 24.4034 216.69 24.9773 216.69 25.6364C216.69 26.3106 216.796 26.8977 217.009 27.3977C217.224 27.8977 217.527 28.286 217.918 28.5625C218.312 28.839 218.774 28.9773 219.304 28.9773C219.652 28.9773 219.969 28.9167 220.253 28.7955C220.537 28.6742 220.777 28.5 220.974 28.2727C221.171 28.0455 221.312 27.7727 221.395 27.4545H222.736C222.66 27.9697 222.473 28.4337 222.173 28.8466C221.878 29.2557 221.486 29.5814 220.997 29.8239C220.512 30.0625 219.948 30.1818 219.304 30.1818ZM228.241 30.1818C227.454 30.1818 226.762 29.9943 226.168 29.6193C225.577 29.2443 225.115 28.7197 224.781 28.0455C224.452 27.3712 224.287 26.5833 224.287 25.6818C224.287 24.7727 224.452 23.9792 224.781 23.3011C225.115 22.6231 225.577 22.0966 226.168 21.7216C226.762 21.3466 227.454 21.1591 228.241 21.1591C229.029 21.1591 229.719 21.3466 230.31 21.7216C230.904 22.0966 231.366 22.6231 231.696 23.3011C232.029 23.9792 232.196 24.7727 232.196 25.6818C232.196 26.5833 232.029 27.3712 231.696 28.0455C231.366 28.7197 230.904 29.2443 230.31 29.6193C229.719 29.9943 229.029 30.1818 228.241 30.1818ZM228.241 28.9773C228.84 28.9773 229.332 28.8239 229.719 28.517C230.105 28.2102 230.391 27.8068 230.577 27.3068C230.762 26.8068 230.855 26.2652 230.855 25.6818C230.855 25.0985 230.762 24.5549 230.577 24.0511C230.391 23.5473 230.105 23.1402 229.719 22.8295C229.332 22.5189 228.84 22.3636 228.241 22.3636C227.643 22.3636 227.151 22.5189 226.764 22.8295C226.378 23.1402 226.092 23.5473 225.906 24.0511C225.721 24.5549 225.628 25.0985 225.628 25.6818C225.628 26.2652 225.721 26.8068 225.906 27.3068C226.092 27.8068 226.378 28.2102 226.764 28.517C227.151 28.8239 227.643 28.9773 228.241 28.9773ZM234.243 30V21.2727H235.538V22.6364H235.652C235.834 22.1705 236.127 21.8087 236.533 21.5511C236.938 21.2898 237.425 21.1591 237.993 21.1591C238.569 21.1591 239.048 21.2898 239.43 21.5511C239.817 21.8087 240.118 22.1705 240.334 22.6364H240.425C240.648 22.1856 240.983 21.8277 241.43 21.5625C241.877 21.2936 242.413 21.1591 243.038 21.1591C243.819 21.1591 244.457 21.4034 244.953 21.892C245.449 22.3769 245.697 23.1326 245.697 24.1591V30H244.357V24.1591C244.357 23.5152 244.18 23.0549 243.828 22.7784C243.476 22.5019 243.061 22.3636 242.584 22.3636C241.97 22.3636 241.495 22.5492 241.158 22.9205C240.821 23.2879 240.652 23.7538 240.652 24.3182V30H239.288V24.0227C239.288 23.5265 239.127 23.1269 238.805 22.8239C238.483 22.517 238.069 22.3636 237.561 22.3636C237.213 22.3636 236.887 22.4564 236.584 22.642C236.285 22.8277 236.042 23.0852 235.857 23.4148C235.675 23.7405 235.584 24.1174 235.584 24.5455V30H234.243Z" fill="#6B7280"/>
</g>
<path d="M13.6667 24.1134C13.2083 24.1134 12.816 23.9502 12.4896 23.6238C12.1632 23.2974 12 22.905 12 22.4467V12.4467C12 11.9884 12.1632 11.596 12.4896 11.2696C12.816 10.9432 13.2083 10.78 13.6667 10.78H27C27.4583 10.78 27.8507 10.9432 28.1771 11.2696C28.5035 11.596 28.6667 11.9884 28.6667 12.4467V22.4467C28.6667 22.905 28.5035 23.2974 28.1771 23.6238C27.8507 23.9502 27.4583 24.1134 27 24.1134H13.6667ZM20.3333 18.28L13.6667 14.1134V22.4467H27V14.1134L20.3333 18.28ZM20.3333 16.6134L27 12.4467H13.6667L20.3333 16.6134ZM13.6667 14.1134V12.4467V14.1134V22.4467V14.1134Z" fill="#94A3B8"/>
<defs>
<clipPath id="clip0_198_1194">
<rect width="324" height="19" fill="white" transform="translate(41 15)"/>
</clipPath>
</defs>
</svg>
