<svg width="122" height="20" viewBox="0 0 122 20" fill="none" xmlns="http://www.w3.org/2000/svg">
<path d="M1.02376 15V4.81445H7.54468V6.3517H2.84921V9.40985H7.08968V10.9274H2.84921V15H1.02376ZM12.0386 15.1542C11.2967 15.1542 10.6521 14.9897 10.1049 14.6608C9.55765 14.3319 9.1345 13.8716 8.83545 13.2799C8.5364 12.6883 8.38688 12.0006 8.38688 11.2167C8.38688 10.4241 8.5364 9.73127 8.83545 9.13818C9.1345 8.5451 9.55765 8.08408 10.1049 7.75514C10.6521 7.42619 11.2967 7.26172 12.0386 7.26172C12.7835 7.26172 13.4294 7.42619 13.9765 7.75514C14.5235 8.08408 14.9466 8.5451 15.2456 9.13818C15.5447 9.73127 15.6942 10.4241 15.6942 11.2167C15.6942 12.0006 15.5447 12.6883 15.2456 13.2799C14.9466 13.8716 14.5235 14.3319 13.9765 14.6608C13.4294 14.9897 12.7835 15.1542 12.0386 15.1542ZM12.0386 13.7116C12.4535 13.7116 12.7982 13.5999 13.0726 13.3766C13.3471 13.1533 13.5518 12.8526 13.6867 12.4744C13.8215 12.0962 13.889 11.6754 13.889 11.2118C13.889 10.7437 13.8215 10.3203 13.6867 9.94167C13.5518 9.56305 13.3471 9.26218 13.0726 9.03905C12.7982 8.81592 12.4535 8.70436 12.0386 8.70436C11.625 8.70436 11.282 8.81592 11.0097 9.03905C10.7373 9.26218 10.5337 9.56232 10.3988 9.93949C10.2639 10.3167 10.1965 10.7408 10.1965 11.2118C10.1965 11.6754 10.2639 12.0962 10.3988 12.4744C10.5337 12.8526 10.7373 13.1533 11.0097 13.3766C11.282 13.5999 11.625 13.7116 12.0386 13.7116ZM17.246 15V7.35742H18.967V8.63656H19.049C19.1886 8.19341 19.4289 7.85202 19.7699 7.6124C20.1109 7.37278 20.5002 7.25297 20.9379 7.25297C21.0389 7.25297 21.1508 7.25771 21.2737 7.26719C21.3966 7.27667 21.501 7.28943 21.5871 7.30547V8.93897C21.5145 8.91509 21.3959 8.89362 21.2312 8.87457C21.0665 8.85552 20.9062 8.846 20.7503 8.846C20.4202 8.846 20.124 8.91659 19.8617 9.05778C19.5993 9.19896 19.3939 9.39383 19.2455 9.64239C19.097 9.89094 19.0228 10.1786 19.0228 10.5052V15H17.246ZM25.792 18.0215C25.1793 18.0215 24.6467 17.944 24.194 17.7889C23.7414 17.6339 23.3706 17.4227 23.0815 17.1554C22.7925 16.888 22.5838 16.5867 22.4555 16.2513L23.963 15.712C24.0428 15.8546 24.1542 16.0004 24.2971 16.1494C24.44 16.2984 24.6317 16.4225 24.8721 16.5216C25.1126 16.6206 25.4176 16.6702 25.7871 16.6702C26.3387 16.6702 26.78 16.5416 27.1111 16.2843C27.4421 16.0271 27.6076 15.6251 27.6076 15.0782V13.6306H27.4619C27.372 13.8158 27.2431 14.0054 27.0752 14.1994C26.9074 14.3933 26.6809 14.5564 26.396 14.6886C26.1111 14.8207 25.7488 14.8868 25.3091 14.8868C24.723 14.8868 24.1919 14.7487 23.7158 14.4724C23.2396 14.1961 22.8615 13.7817 22.5814 13.2289C22.3013 12.6762 22.1613 11.9864 22.1613 11.1593C22.1613 10.3217 22.3023 9.61315 22.5844 9.03373C22.8665 8.45432 23.2464 8.01413 23.724 7.71317C24.2016 7.4122 24.7342 7.26172 25.3217 7.26172C25.7729 7.26172 26.1442 7.33687 26.4357 7.48717C26.7272 7.63747 26.9596 7.81908 27.1331 8.03199C27.3065 8.24491 27.439 8.44188 27.5305 8.62289H27.6246V7.35742H29.3696V15.0235C29.3696 15.7011 29.2146 16.2619 28.9044 16.706C28.5942 17.15 28.1697 17.4803 27.6309 17.6968C27.092 17.9132 26.479 18.0215 25.792 18.0215ZM25.8046 13.483C26.1939 13.483 26.5231 13.3901 26.7921 13.2045C27.0611 13.0188 27.2657 12.7508 27.406 12.4004C27.5462 12.0501 27.6164 11.6305 27.6164 11.1418C27.6164 10.6585 27.547 10.2361 27.4082 9.87454C27.2693 9.51297 27.0654 9.23082 26.7965 9.02811C26.5275 8.8254 26.1969 8.72405 25.8046 8.72405C25.4052 8.72405 25.0699 8.82978 24.7989 9.04124C24.5278 9.2527 24.3237 9.53995 24.1865 9.90298C24.0493 10.266 23.9807 10.679 23.9807 11.1418C23.9807 11.6117 24.05 12.0226 24.1887 12.3745C24.3273 12.7263 24.5322 12.999 24.8032 13.1926C25.0743 13.3862 25.4081 13.483 25.8046 13.483ZM34.5699 15.1542C33.828 15.1542 33.1834 14.9897 32.6361 14.6608C32.0889 14.3319 31.6658 13.8716 31.3667 13.2799C31.0677 12.6883 30.9181 12.0006 30.9181 11.2167C30.9181 10.4241 31.0677 9.73127 31.3667 9.13818C31.6658 8.5451 32.0889 8.08408 32.6361 7.75514C33.1834 7.42619 33.828 7.26172 34.5699 7.26172C35.3147 7.26172 35.9607 7.42619 36.5077 7.75514C37.0548 8.08408 37.4778 8.5451 37.7769 9.13818C38.0759 9.73127 38.2255 10.4241 38.2255 11.2167C38.2255 12.0006 38.0759 12.6883 37.7769 13.2799C37.4778 13.8716 37.0548 14.3319 36.5077 14.6608C35.9607 14.9897 35.3147 15.1542 34.5699 15.1542ZM34.5699 13.7116C34.9848 13.7116 35.3295 13.5999 35.6039 13.3766C35.8783 13.1533 36.083 12.8526 36.2179 12.4744C36.3528 12.0962 36.4202 11.6754 36.4202 11.2118C36.4202 10.7437 36.3528 10.3203 36.2179 9.94167C36.083 9.56305 35.8783 9.26218 35.6039 9.03905C35.3295 8.81592 34.9848 8.70436 34.5699 8.70436C34.1563 8.70436 33.8133 8.81592 33.5409 9.03905C33.2686 9.26218 33.065 9.56232 32.9301 9.93949C32.7952 10.3167 32.7277 10.7408 32.7277 11.2118C32.7277 11.6754 32.7952 12.0962 32.9301 12.4744C33.065 12.8526 33.2686 13.1533 33.5409 13.3766C33.8133 13.5999 34.1563 13.7116 34.5699 13.7116ZM43.3117 7.35742V8.74975H38.9717V7.35742H43.3117ZM40.0561 5.53906H41.8329V12.8478C41.8329 13.124 41.8922 13.3267 42.0106 13.456C42.1291 13.5854 42.3247 13.6501 42.5974 13.6501C42.6766 13.6501 42.7831 13.6405 42.917 13.6215C43.0509 13.6024 43.1589 13.5838 43.2411 13.5656L43.5211 14.9368C43.3263 14.9972 43.127 15.04 42.9234 15.0652C42.7198 15.0905 42.5226 15.1031 42.3319 15.1031C41.6006 15.1031 41.0385 14.921 40.6455 14.5568C40.2526 14.1925 40.0561 13.6736 40.0561 13.0001V5.53906ZM48.247 17.8574V7.35742H49.9876V8.62289H50.0997C50.1913 8.44188 50.3211 8.24564 50.4891 8.03418C50.6572 7.82272 50.8858 7.64111 51.175 7.48936C51.4642 7.3376 51.8359 7.26172 52.29 7.26172C52.8804 7.26172 53.4126 7.4122 53.8865 7.71317C54.3603 8.01413 54.7372 8.45724 55.017 9.04248C55.2968 9.62773 55.4367 10.345 55.4367 11.1943C55.4367 12.0301 55.3 12.7418 55.0266 13.3293C54.7531 13.9168 54.3791 14.3654 53.9044 14.675C53.4297 14.9846 52.8897 15.1395 52.2845 15.1395C51.8474 15.1395 51.4836 15.0649 51.1931 14.9158C50.9026 14.7667 50.6711 14.5878 50.4984 14.3792C50.3258 14.1705 50.1929 13.9742 50.0997 13.7903H50.0237V17.8574H48.247ZM51.8022 13.6771C52.2003 13.6771 52.5338 13.5689 52.8026 13.3524C53.0714 13.1359 53.2743 12.8396 53.4115 12.4635C53.5487 12.0873 53.6173 11.6613 53.6173 11.1855C53.6173 10.711 53.5494 10.2886 53.4137 9.91829C53.278 9.54797 53.0757 9.25634 52.8069 9.04343C52.5381 8.83051 52.2032 8.72405 51.8022 8.72405C51.4115 8.72405 51.0813 8.82613 50.8115 9.0303C50.5417 9.23447 50.3374 9.52026 50.1986 9.88767C50.0598 10.2551 49.9904 10.6877 49.9904 11.1855C49.9904 11.6801 50.0605 12.1143 50.2008 12.4882C50.3411 12.8621 50.5468 13.1537 50.8181 13.3631C51.0893 13.5724 51.4174 13.6771 51.8022 13.6771ZM59.2572 15.158C58.7725 15.158 58.3363 15.0706 57.9487 14.8957C57.561 14.7208 57.2551 14.462 57.0309 14.1193C56.8066 13.7765 56.6945 13.3537 56.6945 12.8508C56.6945 12.4198 56.7754 12.0636 56.9371 11.7819C57.0988 11.5003 57.3182 11.2751 57.5952 11.1064C57.8723 10.9377 58.1843 10.8101 58.5311 10.7236C58.8779 10.6371 59.2364 10.5743 59.6066 10.5353C60.0525 10.4859 60.4137 10.4428 60.6901 10.406C60.9666 10.3692 61.1702 10.31 61.301 10.2284C61.4318 10.1468 61.4972 10.02 61.4972 9.84789V9.8118C61.4972 9.56005 61.4466 9.34704 61.3453 9.17277C61.244 8.99849 61.0946 8.86483 60.897 8.77177C60.6994 8.67871 60.4548 8.63218 60.1634 8.63218C59.8677 8.63218 59.6113 8.67766 59.3942 8.76862C59.1771 8.85959 58.9999 8.9778 58.8627 9.12327C58.7256 9.26874 58.625 9.42624 58.561 9.59578L56.9133 9.2578C57.065 8.80609 57.2981 8.43321 57.6127 8.13917C57.9274 7.84514 58.3029 7.62539 58.7392 7.47992C59.1755 7.33445 59.6478 7.26172 60.1562 7.26172C60.5148 7.26172 60.8775 7.30437 61.2444 7.38969C61.6112 7.475 61.9478 7.617 62.2542 7.8157C62.5605 8.0144 62.8071 8.28278 62.9938 8.62084C63.1806 8.9589 63.274 9.38213 63.274 9.89055V15H61.5743V13.9462H61.5021C61.3909 14.1633 61.2351 14.3639 61.0347 14.5481C60.8342 14.7323 60.5871 14.8801 60.2933 14.9912C59.9994 15.1024 59.654 15.158 59.2572 15.158ZM59.7127 13.8374C60.0799 13.8374 60.3973 13.7649 60.665 13.62C60.9327 13.475 61.1399 13.2823 61.2868 13.0418C61.4336 12.8012 61.507 12.54 61.507 12.258V11.3534C61.4487 11.4012 61.3508 11.4453 61.2134 11.4858C61.0759 11.5262 60.9211 11.5622 60.7489 11.5938C60.5768 11.6253 60.4081 11.6524 60.2431 11.675C60.078 11.6976 59.9379 11.7166 59.8227 11.7319C59.556 11.7667 59.316 11.8261 59.1028 11.91C58.8896 11.994 58.722 12.1099 58.5998 12.2578C58.4777 12.4058 58.4166 12.5968 58.4166 12.8311C58.4166 13.0511 58.4727 13.2357 58.5848 13.3847C58.6969 13.5337 58.8501 13.6464 59.0444 13.7228C59.2388 13.7992 59.4615 13.8374 59.7127 13.8374ZM68.0496 15.1542C67.4648 15.1542 66.9463 15.0701 66.4941 14.9018C66.0419 14.7336 65.6718 14.488 65.3837 14.1651C65.0956 13.8421 64.9068 13.4504 64.8173 12.99L66.4808 12.6777C66.5837 13.0543 66.769 13.3345 67.0367 13.5181C67.3045 13.7018 67.654 13.7936 68.0851 13.7936C68.5232 13.7936 68.8706 13.7059 69.1275 13.5306C69.3843 13.3552 69.5127 13.139 69.5127 12.882C69.5127 12.6603 69.4282 12.4777 69.2593 12.3343C69.0903 12.1908 68.8306 12.0815 68.4802 12.0064L67.1792 11.7253C66.457 11.5694 65.9182 11.3137 65.5629 10.9582C65.2076 10.6026 65.03 10.1445 65.03 9.58375C65.03 9.11179 65.16 8.70219 65.4201 8.35492C65.6801 8.00766 66.0412 7.73864 66.5034 7.54787C66.9656 7.3571 67.5015 7.26172 68.1111 7.26172C68.6893 7.26172 69.1869 7.34361 69.6038 7.5074C70.0207 7.67119 70.3581 7.90038 70.6162 8.19496C70.8742 8.48954 71.0536 8.83571 71.1544 9.23347L69.5702 9.54273C69.4817 9.27749 69.3234 9.0525 69.0952 8.86774C68.867 8.68299 68.547 8.59061 68.1352 8.59061C67.7582 8.59061 67.4432 8.67287 67.1901 8.83739C66.9371 9.00191 66.8106 9.21497 66.8106 9.47656C66.8106 9.69841 66.8939 9.88207 67.0604 10.0275C67.2269 10.173 67.5048 10.2883 67.894 10.3734L69.1944 10.6469C69.9183 10.8011 70.456 11.049 70.8076 11.3906C71.1591 11.7322 71.3349 12.1725 71.3349 12.7113C71.3349 13.194 71.1953 13.6187 70.9161 13.9854C70.637 14.3521 70.2505 14.6386 69.7569 14.8448C69.2633 15.0511 68.6941 15.1542 68.0496 15.1542ZM75.74 15.1542C75.1552 15.1542 74.6367 15.0701 74.1846 14.9018C73.7324 14.7336 73.3622 14.488 73.0741 14.1651C72.786 13.8421 72.5972 13.4504 72.5077 12.99L74.1713 12.6777C74.2741 13.0543 74.4594 13.3345 74.7272 13.5181C74.995 13.7018 75.3444 13.7936 75.7755 13.7936C76.2136 13.7936 76.561 13.7059 76.8179 13.5306C77.0747 13.3552 77.2032 13.139 77.2032 12.882C77.2032 12.6603 77.1187 12.4777 76.9497 12.3343C76.7807 12.1908 76.521 12.0815 76.1707 12.0064L74.8697 11.7253C74.1474 11.5694 73.6087 11.3137 73.2534 10.9582C72.8981 10.6026 72.7204 10.1445 72.7204 9.58375C72.7204 9.11179 72.8505 8.70219 73.1105 8.35492C73.3705 8.00766 73.7317 7.73864 74.1939 7.54787C74.656 7.3571 75.1919 7.26172 75.8015 7.26172C76.3797 7.26172 76.8773 7.34361 77.2942 7.5074C77.7111 7.67119 78.0486 7.90038 78.3066 8.19496C78.5646 8.48954 78.7441 8.83571 78.8449 9.23347L77.2606 9.54273C77.1722 9.27749 77.0139 9.0525 76.7856 8.86774C76.5574 8.68299 76.2374 8.59061 75.8256 8.59061C75.4486 8.59061 75.1336 8.67287 74.8806 8.83739C74.6276 9.00191 74.501 9.21497 74.501 9.47656C74.501 9.69841 74.5843 9.88207 74.7508 10.0275C74.9174 10.173 75.1952 10.2883 75.5844 10.3734L76.8849 10.6469C77.6087 10.8011 78.1465 11.049 78.498 11.3906C78.8496 11.7322 79.0253 12.1725 79.0253 12.7113C79.0253 13.194 78.8857 13.6187 78.6066 13.9854C78.3274 14.3521 77.941 14.6386 77.4473 14.8448C76.9537 15.0511 76.3846 15.1542 75.74 15.1542ZM82.1745 15L79.899 7.35742H81.7682L82.5207 10.3538C82.6385 10.8423 82.7657 11.381 82.9026 11.9698C83.0394 12.5586 83.1686 13.2143 83.2902 13.9369H83.0635C83.1887 13.2347 83.322 12.5881 83.4632 11.997C83.6045 11.4059 83.738 10.8582 83.8636 10.3538L84.6344 7.35742H86.3308L87.083 10.3538C87.204 10.8511 87.3349 11.3941 87.4755 11.9829C87.6162 12.5717 87.7491 13.223 87.8743 13.9369H87.6482C87.7711 13.2289 87.8981 12.5805 88.0294 11.9917C88.1606 11.4029 88.2866 10.8569 88.4073 10.3538L89.1598 7.35742H91.0487L88.7633 15H86.9663L86.071 11.8806C85.9822 11.5691 85.8945 11.2331 85.8078 10.8726C85.7211 10.5121 85.6367 10.1441 85.5546 9.76871C85.4725 9.39328 85.3885 9.03193 85.3027 8.68467H85.6351C85.5538 9.02902 85.471 9.38964 85.3866 9.76653C85.3022 10.1434 85.2171 10.5136 85.1312 10.877C85.0453 11.2404 84.9572 11.5749 84.8668 11.8806L83.9715 15H82.1745ZM95.3961 15.1542C94.6541 15.1542 94.0095 14.9897 93.4623 14.6608C92.9151 14.3319 92.4919 13.8716 92.1929 13.2799C91.8938 12.6883 91.7443 12.0006 91.7443 11.2167C91.7443 10.4241 91.8938 9.73127 92.1929 9.13818C92.4919 8.5451 92.9151 8.08408 93.4623 7.75514C94.0095 7.42619 94.6541 7.26172 95.3961 7.26172C96.1409 7.26172 96.7868 7.42619 97.3339 7.75514C97.881 8.08408 98.304 8.5451 98.6031 9.13818C98.9021 9.73127 99.0516 10.4241 99.0516 11.2167C99.0516 12.0006 98.9021 12.6883 98.6031 13.2799C98.304 13.8716 97.881 14.3319 97.3339 14.6608C96.7868 14.9897 96.1409 15.1542 95.3961 15.1542ZM95.3961 13.7116C95.811 13.7116 96.1556 13.5999 96.4301 13.3766C96.7045 13.1533 96.9092 12.8526 97.0441 12.4744C97.179 12.0962 97.2464 11.6754 97.2464 11.2118C97.2464 10.7437 97.179 10.3203 97.0441 9.94167C96.9092 9.56305 96.7045 9.26218 96.4301 9.03905C96.1556 8.81592 95.811 8.70436 95.3961 8.70436C94.9824 8.70436 94.6394 8.81592 94.3671 9.03905C94.0948 9.26218 93.8911 9.56232 93.7562 9.93949C93.6213 10.3167 93.5539 10.7408 93.5539 11.2118C93.5539 11.6754 93.6213 12.0962 93.7562 12.4744C93.8911 12.8526 94.0948 13.1533 94.3671 13.3766C94.6394 13.5999 94.9824 13.7116 95.3961 13.7116ZM100.603 15V7.35742H102.324V8.63656H102.406C102.546 8.19341 102.786 7.85202 103.127 7.6124C103.468 7.37278 103.858 7.25297 104.295 7.25297C104.396 7.25297 104.508 7.25771 104.631 7.26719C104.754 7.27667 104.858 7.28943 104.944 7.30547V8.93897C104.872 8.91509 104.753 8.89362 104.589 8.87457C104.424 8.85552 104.264 8.846 104.108 8.846C103.778 8.846 103.481 8.91659 103.219 9.05778C102.957 9.19896 102.751 9.39383 102.603 9.64239C102.454 9.89094 102.38 10.1786 102.38 10.5052V15H100.603ZM108.671 15.1395C108.07 15.1395 107.531 14.9846 107.054 14.675C106.578 14.3654 106.202 13.9168 105.929 13.3293C105.655 12.7418 105.519 12.0301 105.519 11.1943C105.519 10.345 105.659 9.62773 105.938 9.04248C106.218 8.45724 106.596 8.01413 107.072 7.71317C107.549 7.4122 108.08 7.26172 108.665 7.26172C109.12 7.26172 109.491 7.3376 109.78 7.48936C110.07 7.64111 110.299 7.82272 110.47 8.03418C110.64 8.24564 110.769 8.44188 110.856 8.62289H110.932V4.81445H112.708V15H110.968V13.7903H110.856C110.765 13.9742 110.633 14.1705 110.459 14.3792C110.285 14.5878 110.054 14.7667 109.766 14.9158C109.478 15.0649 109.113 15.1395 108.671 15.1395ZM109.153 13.6771C109.541 13.6771 109.87 13.5724 110.14 13.3631C110.409 13.1537 110.614 12.8621 110.755 12.4882C110.895 12.1143 110.965 11.6801 110.965 11.1855C110.965 10.6877 110.896 10.2551 110.757 9.88767C110.618 9.52026 110.414 9.23447 110.144 9.0303C109.874 8.82613 109.544 8.72405 109.153 8.72405C108.754 8.72405 108.419 8.83051 108.15 9.04343C107.88 9.25634 107.677 9.54797 107.542 9.91829C107.406 10.2886 107.338 10.711 107.338 11.1855C107.338 11.6613 107.407 12.0873 107.544 12.4635C107.681 12.8396 107.885 13.1359 108.156 13.3524C108.427 13.5689 108.76 13.6771 109.153 13.6771ZM116.298 11.8888V11.757C116.298 11.1606 116.352 10.695 116.46 10.3605C116.569 10.0259 116.726 9.75985 116.932 9.56242C117.137 9.365 117.386 9.17779 117.677 9.00078C117.983 8.80865 118.24 8.58803 118.447 8.33893C118.655 8.08982 118.759 7.78836 118.759 7.43453C118.759 7.16965 118.697 6.94142 118.573 6.74983C118.45 6.55824 118.284 6.4089 118.075 6.3018C117.866 6.19471 117.633 6.14116 117.376 6.14116C117.139 6.14116 116.914 6.19165 116.701 6.29264C116.487 6.39363 116.311 6.54621 116.173 6.75038C116.035 6.95455 115.957 7.21213 115.94 7.52312H114.193C114.208 6.89312 114.36 6.36776 114.65 5.94703C114.94 5.5263 115.324 5.20957 115.801 4.99684C116.279 4.7841 116.805 4.67773 117.38 4.67773C118.016 4.67773 118.573 4.7887 119.052 5.01065C119.532 5.23259 119.907 5.548 120.177 5.95688C120.447 6.36576 120.582 6.84883 120.582 7.40609C120.582 7.97721 120.451 8.4575 120.187 8.84697C119.923 9.23644 119.562 9.56807 119.104 9.84187C118.832 10.0065 118.609 10.1687 118.434 10.3285C118.26 10.4882 118.133 10.6776 118.052 10.8965C117.971 11.1155 117.931 11.4023 117.931 11.757V11.8888H116.298ZM117.125 15.1159C116.803 15.1159 116.536 15.0144 116.325 14.8115C116.114 14.6085 116.008 14.3513 116.008 14.04C116.008 13.7257 116.114 13.4671 116.325 13.2641C116.536 13.0611 116.803 12.9596 117.125 12.9596C117.449 12.9596 117.716 13.0611 117.925 13.2641C118.134 13.4671 118.238 13.7257 118.238 14.04C118.238 14.3513 118.134 14.6085 117.925 14.8115C117.716 15.0144 117.449 15.1159 117.125 15.1159Z" fill="#524E8D"/>
</svg>
