<svg width="382" height="20" viewBox="0 0 382 20" fill="none" xmlns="http://www.w3.org/2000/svg">
<path d="M1.11861 15V4.81818H7.50213V6.14062H2.65483V9.2429H7.16903V10.5604H2.65483V13.6776H7.56179V15H1.11861ZM9.43484 15V7.36364H10.8617V8.60653H10.9561C11.1152 8.18561 11.3754 7.85748 11.7367 7.62216C12.098 7.38352 12.5305 7.2642 13.0343 7.2642C13.5447 7.2642 13.9722 7.38352 14.3169 7.62216C14.665 7.8608 14.9218 8.18892 15.0875 8.60653H15.1671C15.3494 8.19886 15.6394 7.87405 16.0371 7.6321C16.4348 7.38684 16.9088 7.2642 17.459 7.2642C18.1517 7.2642 18.7168 7.4813 19.1543 7.91548C19.5951 8.34967 19.8155 9.00426 19.8155 9.87926V15H18.329V10.0185C18.329 9.50142 18.1882 9.12689 17.9064 8.89489C17.6247 8.66288 17.2883 8.54688 16.8972 8.54688C16.4133 8.54688 16.0371 8.69602 15.7686 8.99432C15.5002 9.2893 15.3659 9.6688 15.3659 10.1328V15H13.8844V9.92401C13.8844 9.50971 13.7551 9.17661 13.4966 8.92472C13.2381 8.67282 12.9017 8.54688 12.4874 8.54688C12.2057 8.54688 11.9455 8.62145 11.7069 8.7706C11.4715 8.91643 11.281 9.12026 11.1351 9.3821C10.9926 9.64394 10.9213 9.94721 10.9213 10.2919V15H9.43484ZM24.0302 15.169C23.5463 15.169 23.1088 15.0795 22.7177 14.9006C22.3266 14.7183 22.0167 14.4548 21.788 14.1101C21.5626 13.7654 21.4499 13.3428 21.4499 12.8423C21.4499 12.4115 21.5328 12.0568 21.6985 11.7784C21.8642 11.5 22.0879 11.2796 22.3697 11.1172C22.6514 10.9548 22.9663 10.8321 23.3143 10.7493C23.6623 10.6664 24.0169 10.6035 24.3782 10.5604C24.8356 10.5073 25.2068 10.4643 25.4918 10.4311C25.7769 10.3946 25.984 10.3366 26.1133 10.2571C26.2425 10.1776 26.3072 10.0483 26.3072 9.86932V9.83452C26.3072 9.40033 26.1845 9.06392 25.9393 8.82528C25.6973 8.58665 25.3361 8.46733 24.8555 8.46733C24.355 8.46733 23.9606 8.57836 23.6722 8.80043C23.3872 9.01918 23.19 9.26278 23.0806 9.53125L21.6836 9.21307C21.8493 8.74905 22.0913 8.37453 22.4094 8.08949C22.7309 7.80114 23.1005 7.59233 23.5181 7.46307C23.9357 7.33049 24.3749 7.2642 24.8356 7.2642C25.1405 7.2642 25.4637 7.30066 25.805 7.37358C26.1497 7.44318 26.4712 7.57244 26.7695 7.76136C27.0711 7.95028 27.3181 8.22041 27.5103 8.57173C27.7025 8.91974 27.7987 9.37216 27.7987 9.92898V15H26.3469V13.956H26.2873C26.1912 14.1482 26.047 14.3371 25.8548 14.5227C25.6625 14.7083 25.4156 14.8625 25.114 14.9851C24.8124 15.1077 24.4511 15.169 24.0302 15.169ZM24.3533 13.9759C24.7643 13.9759 25.1156 13.8946 25.4073 13.7322C25.7023 13.5698 25.926 13.3577 26.0785 13.0959C26.2343 12.8307 26.3121 12.5473 26.3121 12.2457V11.2614C26.2591 11.3144 26.1564 11.3641 26.0039 11.4105C25.8548 11.4536 25.6841 11.4917 25.4918 11.5249C25.2996 11.5547 25.1123 11.5829 24.93 11.6094C24.7478 11.6326 24.5953 11.6525 24.4727 11.669C24.1843 11.7055 23.9208 11.7668 23.6822 11.853C23.4469 11.9392 23.2579 12.0634 23.1154 12.2259C22.9762 12.3849 22.9066 12.5971 22.9066 12.8622C22.9066 13.2301 23.0425 13.5085 23.3143 13.6974C23.5861 13.883 23.9324 13.9759 24.3533 13.9759ZM29.7786 15V7.36364H31.2651V15H29.7786ZM30.5293 6.18537C30.2708 6.18537 30.0487 6.09919 29.8631 5.92685C29.6808 5.75118 29.5897 5.54238 29.5897 5.30043C29.5897 5.05516 29.6808 4.84635 29.8631 4.67401C30.0487 4.49834 30.2708 4.41051 30.5293 4.41051C30.7878 4.41051 31.0082 4.49834 31.1905 4.67401C31.3761 4.84635 31.4689 5.05516 31.4689 5.30043C31.4689 5.54238 31.3761 5.75118 31.1905 5.92685C31.0082 6.09919 30.7878 6.18537 30.5293 6.18537ZM34.7514 4.81818V15H33.2649V4.81818H34.7514ZM41.4357 15H39.805L43.4691 4.81818H45.244L48.908 15H47.2773L44.3988 6.66761H44.3192L41.4357 15ZM41.7092 11.0128H46.9989V12.3054H41.7092V11.0128ZM52.9947 15.1491C52.3782 15.1491 51.828 14.9917 51.3441 14.6768C50.8635 14.3587 50.4857 13.9062 50.2106 13.3196C49.9388 12.7296 49.8029 12.022 49.8029 11.1967C49.8029 10.3714 49.9405 9.66548 50.2156 9.07884C50.494 8.49219 50.8751 8.04309 51.359 7.73153C51.8429 7.41998 52.3915 7.2642 53.0046 7.2642C53.4786 7.2642 53.8597 7.34375 54.1481 7.50284C54.4397 7.65862 54.6651 7.84091 54.8242 8.04972C54.9866 8.25852 55.1126 8.44247 55.2021 8.60156H55.2915V4.81818H56.7781V15H55.3263V13.8118H55.2021C55.1126 13.9742 54.9833 14.1598 54.8143 14.3686C54.6486 14.5774 54.4199 14.7597 54.1282 14.9155C53.8365 15.0713 53.4587 15.1491 52.9947 15.1491ZM53.3228 13.8814C53.7504 13.8814 54.1116 13.7687 54.4066 13.5433C54.7049 13.3146 54.9303 12.9981 55.0827 12.5938C55.2385 12.1894 55.3164 11.7187 55.3164 11.1818C55.3164 10.6515 55.2402 10.1875 55.0877 9.78977C54.9353 9.39205 54.7115 9.08215 54.4165 8.86009C54.1216 8.63802 53.757 8.52699 53.3228 8.52699C52.8754 8.52699 52.5025 8.64299 52.2042 8.875C51.9059 9.10701 51.6805 9.42353 51.5281 9.82457C51.3789 10.2256 51.3043 10.678 51.3043 11.1818C51.3043 11.6922 51.3806 12.1513 51.533 12.5589C51.6855 12.9666 51.9109 13.2898 52.2092 13.5284C52.5108 13.7637 52.882 13.8814 53.3228 13.8814ZM61.7583 15.1491C61.1419 15.1491 60.5917 14.9917 60.1078 14.6768C59.6272 14.3587 59.2493 13.9062 58.9743 13.3196C58.7025 12.7296 58.5666 12.022 58.5666 11.1967C58.5666 10.3714 58.7041 9.66548 58.9792 9.07884C59.2576 8.49219 59.6388 8.04309 60.1227 7.73153C60.6066 7.41998 61.1551 7.2642 61.7683 7.2642C62.2422 7.2642 62.6234 7.34375 62.9118 7.50284C63.2034 7.65862 63.4288 7.84091 63.5879 8.04972C63.7503 8.25852 63.8762 8.44247 63.9657 8.60156H64.0552V4.81818H65.5417V15H64.09V13.8118H63.9657C63.8762 13.9742 63.747 14.1598 63.5779 14.3686C63.4122 14.5774 63.1835 14.7597 62.8919 14.9155C62.6002 15.0713 62.2224 15.1491 61.7583 15.1491ZM62.0865 13.8814C62.514 13.8814 62.8753 13.7687 63.1703 13.5433C63.4686 13.3146 63.694 12.9981 63.8464 12.5938C64.0022 12.1894 64.0801 11.7187 64.0801 11.1818C64.0801 10.6515 64.0038 10.1875 63.8514 9.78977C63.6989 9.39205 63.4752 9.08215 63.1802 8.86009C62.8852 8.63802 62.5207 8.52699 62.0865 8.52699C61.639 8.52699 61.2662 8.64299 60.9679 8.875C60.6696 9.10701 60.4442 9.42353 60.2917 9.82457C60.1426 10.2256 60.068 10.678 60.068 11.1818C60.068 11.6922 60.1442 12.1513 60.2967 12.5589C60.4492 12.9666 60.6745 13.2898 60.9728 13.5284C61.2744 13.7637 61.6457 13.8814 62.0865 13.8814ZM67.6634 15V7.36364H69.1001V8.5767H69.1797C69.3189 8.16572 69.5642 7.84257 69.9155 7.60724C70.2701 7.36861 70.6712 7.24929 71.1186 7.24929C71.2114 7.24929 71.3208 7.2526 71.4467 7.25923C71.576 7.26586 71.6771 7.27415 71.75 7.28409V8.70597C71.6903 8.68939 71.5843 8.67116 71.4318 8.65128C71.2794 8.62808 71.1269 8.61648 70.9744 8.61648C70.6231 8.61648 70.3099 8.69105 70.0348 8.8402C69.763 8.98603 69.5476 9.18987 69.3885 9.4517C69.2294 9.71023 69.1499 10.0052 69.1499 10.3366V15H67.6634ZM76.0542 15.1541C75.3018 15.1541 74.6538 14.9934 74.1103 14.6719C73.57 14.3471 73.1524 13.8913 72.8574 13.3047C72.5658 12.7147 72.4199 12.0237 72.4199 11.2315C72.4199 10.4493 72.5658 9.75994 72.8574 9.16335C73.1524 8.56676 73.5634 8.10109 74.0904 7.76633C74.6207 7.43158 75.2405 7.2642 75.9498 7.2642C76.3806 7.2642 76.7982 7.33546 77.2026 7.47798C77.6069 7.6205 77.9699 7.84422 78.2914 8.14915C78.6129 8.45407 78.8664 8.85014 79.052 9.33736C79.2376 9.82126 79.3304 10.4096 79.3304 11.1023V11.6293H73.2601V10.5156H77.8738C77.8738 10.1245 77.7942 9.77817 77.6351 9.47656C77.476 9.17164 77.2523 8.93134 76.964 8.75568C76.6789 8.58002 76.3442 8.49219 75.9597 8.49219C75.5421 8.49219 75.1775 8.59493 74.8659 8.80043C74.5577 9.0026 74.3191 9.26776 74.15 9.59588C73.9843 9.92069 73.9015 10.2737 73.9015 10.6548V11.5249C73.9015 12.0353 73.9909 12.4695 74.1699 12.8274C74.3522 13.1854 74.6058 13.4588 74.9306 13.6477C75.2554 13.8333 75.6349 13.9261 76.0691 13.9261C76.3508 13.9261 76.6077 13.8864 76.8397 13.8068C77.0717 13.724 77.2722 13.6013 77.4412 13.4389C77.6103 13.2765 77.7395 13.076 77.829 12.8374L79.236 13.0909C79.1233 13.5052 78.9211 13.8681 78.6294 14.1797C78.3411 14.4879 77.9782 14.7282 77.5407 14.9006C77.1065 15.0696 76.611 15.1541 76.0542 15.1541ZM86.7021 9.22798L85.3548 9.46662C85.2984 9.29427 85.2089 9.13021 85.0863 8.97443C84.967 8.81865 84.8046 8.69105 84.5991 8.59162C84.3936 8.49219 84.1367 8.44247 83.8285 8.44247C83.4076 8.44247 83.0562 8.53693 82.7745 8.72585C82.4928 8.91146 82.3519 9.15175 82.3519 9.44673C82.3519 9.70194 82.4464 9.90743 82.6353 10.0632C82.8242 10.219 83.1291 10.3466 83.5501 10.446L84.7631 10.7244C85.4658 10.8868 85.9895 11.1371 86.3342 11.4751C86.6789 11.8132 86.8512 12.2524 86.8512 12.7926C86.8512 13.25 86.7186 13.6577 86.4535 14.0156C86.1916 14.3703 85.8254 14.6487 85.3548 14.8509C84.8874 15.053 84.3455 15.1541 83.729 15.1541C82.8739 15.1541 82.1763 14.9718 81.636 14.6072C81.0958 14.2393 80.7643 13.7173 80.6417 13.0412L82.0785 12.8224C82.168 13.197 82.3519 13.4804 82.6303 13.6726C82.9087 13.8615 83.2717 13.956 83.7191 13.956C84.2063 13.956 84.5958 13.8549 84.8874 13.6527C85.1791 13.4472 85.3249 13.197 85.3249 12.902C85.3249 12.6634 85.2354 12.4628 85.0565 12.3004C84.8808 12.138 84.6107 12.0154 84.2461 11.9325L82.9535 11.6491C82.2409 11.4867 81.7139 11.2282 81.3725 10.8736C81.0344 10.5189 80.8654 10.0698 80.8654 9.52628C80.8654 9.07552 80.9914 8.68111 81.2433 8.34304C81.4951 8.00497 81.8432 7.74148 82.2873 7.55256C82.7314 7.36032 83.2402 7.2642 83.8136 7.2642C84.6388 7.2642 85.2885 7.44318 85.7624 7.80114C86.2364 8.15578 86.5496 8.63139 86.7021 9.22798ZM94.2079 9.22798L92.8606 9.46662C92.8043 9.29427 92.7148 9.13021 92.5922 8.97443C92.4728 8.81865 92.3104 8.69105 92.1049 8.59162C91.8994 8.49219 91.6426 8.44247 91.3343 8.44247C90.9134 8.44247 90.5621 8.53693 90.2804 8.72585C89.9986 8.91146 89.8578 9.15175 89.8578 9.44673C89.8578 9.70194 89.9522 9.90743 90.1412 10.0632C90.3301 10.219 90.635 10.3466 91.0559 10.446L92.269 10.7244C92.9717 10.8868 93.4953 11.1371 93.84 11.4751C94.1847 11.8132 94.3571 12.2524 94.3571 12.7926C94.3571 13.25 94.2245 13.6577 93.9593 14.0156C93.6975 14.3703 93.3313 14.6487 92.8606 14.8509C92.3933 15.053 91.8514 15.1541 91.2349 15.1541C90.3798 15.1541 89.6821 14.9718 89.1419 14.6072C88.6016 14.2393 88.2702 13.7173 88.1475 13.0412L89.5843 12.8224C89.6738 13.197 89.8578 13.4804 90.1362 13.6726C90.4146 13.8615 90.7775 13.956 91.225 13.956C91.7122 13.956 92.1016 13.8549 92.3933 13.6527C92.685 13.4472 92.8308 13.197 92.8308 12.902C92.8308 12.6634 92.7413 12.4628 92.5623 12.3004C92.3867 12.138 92.1165 12.0154 91.752 11.9325L90.4593 11.6491C89.7467 11.4867 89.2198 11.2282 88.8784 10.8736C88.5403 10.5189 88.3713 10.0698 88.3713 9.52628C88.3713 9.07552 88.4972 8.68111 88.7491 8.34304C89.001 8.00497 89.349 7.74148 89.7931 7.55256C90.2373 7.36032 90.746 7.2642 91.3194 7.2642C92.1447 7.2642 92.7943 7.44318 93.2683 7.80114C93.7422 8.15578 94.0555 8.63139 94.2079 9.22798Z" fill="#334155"/>
</svg>
