<svg width="157" height="19" viewBox="0 0 157 19" fill="none" xmlns="http://www.w3.org/2000/svg">
<g clip-path="url(#clip0_205_2366)">
<path d="M4.5 12.8636C4.04167 12.8636 3.62311 12.7519 3.24432 12.5284C2.86553 12.3011 2.5625 11.9981 2.33523 11.6193C2.11174 11.2405 2 10.822 2 10.3636C2 9.90152 2.11174 9.48295 2.33523 9.10795C2.5625 8.72917 2.86553 8.42803 3.24432 8.20455C3.62311 7.97727 4.04167 7.86364 4.5 7.86364C4.96212 7.86364 5.38068 7.97727 5.75568 8.20455C6.13447 8.42803 6.43561 8.72917 6.65909 9.10795C6.88636 9.48295 7 9.90152 7 10.3636C7 10.822 6.88636 11.2405 6.65909 11.6193C6.43561 11.9981 6.13447 12.3011 5.75568 12.5284C5.38068 12.7519 4.96212 12.8636 4.5 12.8636ZM13.5 12.8636C13.0417 12.8636 12.6231 12.7519 12.2443 12.5284C11.8655 12.3011 11.5625 11.9981 11.3352 11.6193C11.1117 11.2405 11 10.822 11 10.3636C11 9.90152 11.1117 9.48295 11.3352 9.10795C11.5625 8.72917 11.8655 8.42803 12.2443 8.20455C12.6231 7.97727 13.0417 7.86364 13.5 7.86364C13.9621 7.86364 14.3807 7.97727 14.7557 8.20455C15.1345 8.42803 15.4356 8.72917 15.6591 9.10795C15.8864 9.48295 16 9.90152 16 10.3636C16 10.822 15.8864 11.2405 15.6591 11.6193C15.4356 11.9981 15.1345 12.3011 14.7557 12.5284C14.3807 12.7519 13.9621 12.8636 13.5 12.8636ZM22.5 12.8636C22.0417 12.8636 21.6231 12.7519 21.2443 12.5284C20.8655 12.3011 20.5625 11.9981 20.3352 11.6193C20.1117 11.2405 20 10.822 20 10.3636C20 9.90152 20.1117 9.48295 20.3352 9.10795C20.5625 8.72917 20.8655 8.42803 21.2443 8.20455C21.6231 7.97727 22.0417 7.86364 22.5 7.86364C22.9621 7.86364 23.3807 7.97727 23.7557 8.20455C24.1345 8.42803 24.4356 8.72917 24.6591 9.10795C24.8864 9.48295 25 9.90152 25 10.3636C25 10.822 24.8864 11.2405 24.6591 11.6193C24.4356 11.9981 24.1345 12.3011 23.7557 12.5284C23.3807 12.7519 22.9621 12.8636 22.5 12.8636ZM31.5 12.8636C31.0417 12.8636 30.6231 12.7519 30.2443 12.5284C29.8655 12.3011 29.5625 11.9981 29.3352 11.6193C29.1117 11.2405 29 10.822 29 10.3636C29 9.90152 29.1117 9.48295 29.3352 9.10795C29.5625 8.72917 29.8655 8.42803 30.2443 8.20455C30.6231 7.97727 31.0417 7.86364 31.5 7.86364C31.9621 7.86364 32.3807 7.97727 32.7557 8.20455C33.1345 8.42803 33.4356 8.72917 33.6591 9.10795C33.8864 9.48295 34 9.90152 34 10.3636C34 10.822 33.8864 11.2405 33.6591 11.6193C33.4356 11.9981 33.1345 12.3011 32.7557 12.5284C32.3807 12.7519 31.9621 12.8636 31.5 12.8636ZM40.5 12.8636C40.0417 12.8636 39.6231 12.7519 39.2443 12.5284C38.8655 12.3011 38.5625 11.9981 38.3352 11.6193C38.1117 11.2405 38 10.822 38 10.3636C38 9.90152 38.1117 9.48295 38.3352 9.10795C38.5625 8.72917 38.8655 8.42803 39.2443 8.20455C39.6231 7.97727 40.0417 7.86364 40.5 7.86364C40.9621 7.86364 41.3807 7.97727 41.7557 8.20455C42.1345 8.42803 42.4356 8.72917 42.6591 9.10795C42.8864 9.48295 43 9.90152 43 10.3636C43 10.822 42.8864 11.2405 42.6591 11.6193C42.4356 11.9981 42.1345 12.3011 41.7557 12.5284C41.3807 12.7519 40.9621 12.8636 40.5 12.8636ZM49.5 12.8636C49.0417 12.8636 48.6231 12.7519 48.2443 12.5284C47.8655 12.3011 47.5625 11.9981 47.3352 11.6193C47.1117 11.2405 47 10.822 47 10.3636C47 9.90152 47.1117 9.48295 47.3352 9.10795C47.5625 8.72917 47.8655 8.42803 48.2443 8.20455C48.6231 7.97727 49.0417 7.86364 49.5 7.86364C49.9621 7.86364 50.3807 7.97727 50.7557 8.20455C51.1345 8.42803 51.4356 8.72917 51.6591 9.10795C51.8864 9.48295 52 9.90152 52 10.3636C52 10.822 51.8864 11.2405 51.6591 11.6193C51.4356 11.9981 51.1345 12.3011 50.7557 12.5284C50.3807 12.7519 49.9621 12.8636 49.5 12.8636ZM58.5 12.8636C58.0417 12.8636 57.6231 12.7519 57.2443 12.5284C56.8655 12.3011 56.5625 11.9981 56.3352 11.6193C56.1117 11.2405 56 10.822 56 10.3636C56 9.90152 56.1117 9.48295 56.3352 9.10795C56.5625 8.72917 56.8655 8.42803 57.2443 8.20455C57.6231 7.97727 58.0417 7.86364 58.5 7.86364C58.9621 7.86364 59.3807 7.97727 59.7557 8.20455C60.1345 8.42803 60.4356 8.72917 60.6591 9.10795C60.8864 9.48295 61 9.90152 61 10.3636C61 10.822 60.8864 11.2405 60.6591 11.6193C60.4356 11.9981 60.1345 12.3011 59.7557 12.5284C59.3807 12.7519 58.9621 12.8636 58.5 12.8636ZM67.5 12.8636C67.0417 12.8636 66.6231 12.7519 66.2443 12.5284C65.8655 12.3011 65.5625 11.9981 65.3352 11.6193C65.1117 11.2405 65 10.822 65 10.3636C65 9.90152 65.1117 9.48295 65.3352 9.10795C65.5625 8.72917 65.8655 8.42803 66.2443 8.20455C66.6231 7.97727 67.0417 7.86364 67.5 7.86364C67.9621 7.86364 68.3807 7.97727 68.7557 8.20455C69.1345 8.42803 69.4356 8.72917 69.6591 9.10795C69.8864 9.48295 70 9.90152 70 10.3636C70 10.822 69.8864 11.2405 69.6591 11.6193C69.4356 11.9981 69.1345 12.3011 68.7557 12.5284C68.3807 12.7519 67.9621 12.8636 67.5 12.8636Z" fill="#6B7280"/>
</g>
<defs>
<clipPath id="clip0_205_2366">
<rect width="157" height="19" fill="white"/>
</clipPath>
</defs>
</svg>
