<svg width="382" height="49" viewBox="0 0 382 49" fill="none" xmlns="http://www.w3.org/2000/svg">
<rect x="0.5" y="0.5" width="381" height="48" rx="7.5" fill="#F8FAFC"/>
<rect x="0.5" y="0.5" width="381" height="48" rx="7.5" stroke="#E2E8F0"/>
<g clip-path="url(#clip0_198_1203)">
<path d="M45.5 27.8636C45.0417 27.8636 44.6231 27.7519 44.2443 27.5284C43.8655 27.3011 43.5625 26.9981 43.3352 26.6193C43.1117 26.2405 43 25.822 43 25.3636C43 24.9015 43.1117 24.483 43.3352 24.108C43.5625 23.7292 43.8655 23.428 44.2443 23.2045C44.6231 22.9773 45.0417 22.8636 45.5 22.8636C45.9621 22.8636 46.3807 22.9773 46.7557 23.2045C47.1345 23.428 47.4356 23.7292 47.6591 24.108C47.8864 24.483 48 24.9015 48 25.3636C48 25.822 47.8864 26.2405 47.6591 26.6193C47.4356 26.9981 47.1345 27.3011 46.7557 27.5284C46.3807 27.7519 45.9621 27.8636 45.5 27.8636ZM54.5 27.8636C54.0417 27.8636 53.6231 27.7519 53.2443 27.5284C52.8655 27.3011 52.5625 26.9981 52.3352 26.6193C52.1117 26.2405 52 25.822 52 25.3636C52 24.9015 52.1117 24.483 52.3352 24.108C52.5625 23.7292 52.8655 23.428 53.2443 23.2045C53.6231 22.9773 54.0417 22.8636 54.5 22.8636C54.9621 22.8636 55.3807 22.9773 55.7557 23.2045C56.1345 23.428 56.4356 23.7292 56.6591 24.108C56.8864 24.483 57 24.9015 57 25.3636C57 25.822 56.8864 26.2405 56.6591 26.6193C56.4356 26.9981 56.1345 27.3011 55.7557 27.5284C55.3807 27.7519 54.9621 27.8636 54.5 27.8636ZM63.5 27.8636C63.0417 27.8636 62.6231 27.7519 62.2443 27.5284C61.8655 27.3011 61.5625 26.9981 61.3352 26.6193C61.1117 26.2405 61 25.822 61 25.3636C61 24.9015 61.1117 24.483 61.3352 24.108C61.5625 23.7292 61.8655 23.428 62.2443 23.2045C62.6231 22.9773 63.0417 22.8636 63.5 22.8636C63.9621 22.8636 64.3807 22.9773 64.7557 23.2045C65.1345 23.428 65.4356 23.7292 65.6591 24.108C65.8864 24.483 66 24.9015 66 25.3636C66 25.822 65.8864 26.2405 65.6591 26.6193C65.4356 26.9981 65.1345 27.3011 64.7557 27.5284C64.3807 27.7519 63.9621 27.8636 63.5 27.8636ZM72.5 27.8636C72.0417 27.8636 71.6231 27.7519 71.2443 27.5284C70.8655 27.3011 70.5625 26.9981 70.3352 26.6193C70.1117 26.2405 70 25.822 70 25.3636C70 24.9015 70.1117 24.483 70.3352 24.108C70.5625 23.7292 70.8655 23.428 71.2443 23.2045C71.6231 22.9773 72.0417 22.8636 72.5 22.8636C72.9621 22.8636 73.3807 22.9773 73.7557 23.2045C74.1345 23.428 74.4356 23.7292 74.6591 24.108C74.8864 24.483 75 24.9015 75 25.3636C75 25.822 74.8864 26.2405 74.6591 26.6193C74.4356 26.9981 74.1345 27.3011 73.7557 27.5284C73.3807 27.7519 72.9621 27.8636 72.5 27.8636ZM81.5 27.8636C81.0417 27.8636 80.6231 27.7519 80.2443 27.5284C79.8655 27.3011 79.5625 26.9981 79.3352 26.6193C79.1117 26.2405 79 25.822 79 25.3636C79 24.9015 79.1117 24.483 79.3352 24.108C79.5625 23.7292 79.8655 23.428 80.2443 23.2045C80.6231 22.9773 81.0417 22.8636 81.5 22.8636C81.9621 22.8636 82.3807 22.9773 82.7557 23.2045C83.1345 23.428 83.4356 23.7292 83.6591 24.108C83.8864 24.483 84 24.9015 84 25.3636C84 25.822 83.8864 26.2405 83.6591 26.6193C83.4356 26.9981 83.1345 27.3011 82.7557 27.5284C82.3807 27.7519 81.9621 27.8636 81.5 27.8636ZM90.5 27.8636C90.0417 27.8636 89.6231 27.7519 89.2443 27.5284C88.8655 27.3011 88.5625 26.9981 88.3352 26.6193C88.1117 26.2405 88 25.822 88 25.3636C88 24.9015 88.1117 24.483 88.3352 24.108C88.5625 23.7292 88.8655 23.428 89.2443 23.2045C89.6231 22.9773 90.0417 22.8636 90.5 22.8636C90.9621 22.8636 91.3807 22.9773 91.7557 23.2045C92.1345 23.428 92.4356 23.7292 92.6591 24.108C92.8864 24.483 93 24.9015 93 25.3636C93 25.822 92.8864 26.2405 92.6591 26.6193C92.4356 26.9981 92.1345 27.3011 91.7557 27.5284C91.3807 27.7519 90.9621 27.8636 90.5 27.8636ZM99.5 27.8636C99.0417 27.8636 98.6231 27.7519 98.2443 27.5284C97.8655 27.3011 97.5625 26.9981 97.3352 26.6193C97.1117 26.2405 97 25.822 97 25.3636C97 24.9015 97.1117 24.483 97.3352 24.108C97.5625 23.7292 97.8655 23.428 98.2443 23.2045C98.6231 22.9773 99.0417 22.8636 99.5 22.8636C99.9621 22.8636 100.381 22.9773 100.756 23.2045C101.134 23.428 101.436 23.7292 101.659 24.108C101.886 24.483 102 24.9015 102 25.3636C102 25.822 101.886 26.2405 101.659 26.6193C101.436 26.9981 101.134 27.3011 100.756 27.5284C100.381 27.7519 99.9621 27.8636 99.5 27.8636ZM108.5 27.8636C108.042 27.8636 107.623 27.7519 107.244 27.5284C106.866 27.3011 106.563 26.9981 106.335 26.6193C106.112 26.2405 106 25.822 106 25.3636C106 24.9015 106.112 24.483 106.335 24.108C106.563 23.7292 106.866 23.428 107.244 23.2045C107.623 22.9773 108.042 22.8636 108.5 22.8636C108.962 22.8636 109.381 22.9773 109.756 23.2045C110.134 23.428 110.436 23.7292 110.659 24.108C110.886 24.483 111 24.9015 111 25.3636C111 25.822 110.886 26.2405 110.659 26.6193C110.436 26.9981 110.134 27.3011 109.756 27.5284C109.381 27.7519 108.962 27.8636 108.5 27.8636Z" fill="#6B7280"/>
</g>
<path d="M13.6667 28.28C13.2083 28.28 12.816 28.1168 12.4896 27.7904C12.1632 27.4641 12 27.0717 12 26.6134V18.28C12 17.8217 12.1632 17.4293 12.4896 17.1029C12.816 16.7766 13.2083 16.6134 13.6667 16.6134H14.5V14.9467C14.5 13.7939 14.9062 12.8113 15.7188 11.9988C16.5312 11.1863 17.5139 10.78 18.6667 10.78C19.8194 10.78 20.8021 11.1863 21.6146 11.9988C22.4271 12.8113 22.8333 13.7939 22.8333 14.9467V16.6134H23.6667C24.125 16.6134 24.5174 16.7766 24.8438 17.1029C25.1701 17.4293 25.3333 17.8217 25.3333 18.28V26.6134C25.3333 27.0717 25.1701 27.4641 24.8438 27.7904C24.5174 28.1168 24.125 28.28 23.6667 28.28H13.6667ZM13.6667 26.6134H23.6667V18.28H13.6667V26.6134ZM18.6667 24.1134C19.125 24.1134 19.5174 23.9502 19.8438 23.6238C20.1701 23.2974 20.3333 22.905 20.3333 22.4467C20.3333 21.9884 20.1701 21.596 19.8438 21.2696C19.5174 20.9432 19.125 20.78 18.6667 20.78C18.2083 20.78 17.816 20.9432 17.4896 21.2696C17.1632 21.596 17 21.9884 17 22.4467C17 22.905 17.1632 23.2974 17.4896 23.6238C17.816 23.9502 18.2083 24.1134 18.6667 24.1134ZM16.1667 16.6134H21.1667V14.9467C21.1667 14.2523 20.9236 13.662 20.4375 13.1759C19.9514 12.6898 19.3611 12.4467 18.6667 12.4467C17.9722 12.4467 17.3819 12.6898 16.8958 13.1759C16.4097 13.662 16.1667 14.2523 16.1667 14.9467V16.6134ZM13.6667 26.6134V18.28V26.6134Z" fill="#94A3B8"/>
<path d="M360.834 28.25C361.875 28.25 362.761 27.8854 363.49 27.1562C364.219 26.4271 364.584 25.5417 364.584 24.5C364.584 23.4583 364.219 22.5729 363.49 21.8438C362.761 21.1146 361.875 20.75 360.834 20.75C359.792 20.75 358.907 21.1146 358.177 21.8438C357.448 22.5729 357.084 23.4583 357.084 24.5C357.084 25.5417 357.448 26.4271 358.177 27.1562C358.907 27.8854 359.792 28.25 360.834 28.25ZM360.834 26.75C360.209 26.75 359.677 26.5312 359.24 26.0938C358.802 25.6562 358.584 25.125 358.584 24.5C358.584 23.875 358.802 23.3438 359.24 22.9062C359.677 22.4688 360.209 22.25 360.834 22.25C361.459 22.25 361.99 22.4688 362.427 22.9062C362.865 23.3438 363.084 23.875 363.084 24.5C363.084 25.125 362.865 25.6562 362.427 26.0938C361.99 26.5312 361.459 26.75 360.834 26.75ZM360.834 30.75C358.806 30.75 356.959 30.184 355.292 29.0521C353.625 27.9201 352.417 26.4028 351.667 24.5C352.417 22.5972 353.625 21.0799 355.292 19.9479C356.959 18.816 358.806 18.25 360.834 18.25C362.861 18.25 364.709 18.816 366.375 19.9479C368.042 21.0799 369.25 22.5972 370 24.5C369.25 26.4028 368.042 27.9201 366.375 29.0521C364.709 30.184 362.861 30.75 360.834 30.75ZM360.834 29.0833C362.403 29.0833 363.844 28.6701 365.157 27.8438C366.469 27.0174 367.473 25.9028 368.167 24.5C367.473 23.0972 366.469 21.9826 365.157 21.1562C363.844 20.3299 362.403 19.9167 360.834 19.9167C359.264 19.9167 357.823 20.3299 356.511 21.1562C355.198 21.9826 354.195 23.0972 353.5 24.5C354.195 25.9028 355.198 27.0174 356.511 27.8438C357.823 28.6701 359.264 29.0833 360.834 29.0833Z" fill="#94A3B8"/>
<defs>
<clipPath id="clip0_198_1203">
<rect width="300" height="19" fill="white" transform="translate(41 15)"/>
</clipPath>
</defs>
</svg>
