<svg width="382" height="20" viewBox="0 0 382 20" fill="none" xmlns="http://www.w3.org/2000/svg">
<path d="M1.11861 15V4.81818H4.74787C5.54001 4.81818 6.19626 4.96236 6.71662 5.25071C7.23698 5.53906 7.62642 5.93347 7.88494 6.43395C8.14347 6.93111 8.27273 7.49124 8.27273 8.11435C8.27273 8.74077 8.14181 9.30421 7.87997 9.80469C7.62145 10.3018 7.23035 10.6963 6.70668 10.9879C6.18632 11.2763 5.53172 11.4205 4.7429 11.4205H2.24716V10.1179H4.60369C5.10417 10.1179 5.51018 10.0317 5.82173 9.85938C6.13329 9.68371 6.36198 9.44508 6.50781 9.14347C6.65365 8.84186 6.72656 8.49882 6.72656 8.11435C6.72656 7.72988 6.65365 7.38849 6.50781 7.0902C6.36198 6.7919 6.13163 6.55824 5.81676 6.3892C5.50521 6.22017 5.09422 6.13565 4.58381 6.13565H2.65483V15H1.11861ZM12.1083 15.169C11.6244 15.169 11.1869 15.0795 10.7958 14.9006C10.4047 14.7183 10.0948 14.4548 9.86612 14.1101C9.64074 13.7654 9.52805 13.3428 9.52805 12.8423C9.52805 12.4115 9.61091 12.0568 9.77663 11.7784C9.94235 11.5 10.1661 11.2796 10.4478 11.1172C10.7295 10.9548 11.0444 10.8321 11.3924 10.7493C11.7404 10.6664 12.0951 10.6035 12.4563 10.5604C12.9137 10.5073 13.2849 10.4643 13.57 10.4311C13.855 10.3946 14.0621 10.3366 14.1914 10.2571C14.3207 10.1776 14.3853 10.0483 14.3853 9.86932V9.83452C14.3853 9.40033 14.2627 9.06392 14.0174 8.82528C13.7755 8.58665 13.4142 8.46733 12.9336 8.46733C12.4331 8.46733 12.0387 8.57836 11.7504 8.80043C11.4653 9.01918 11.2681 9.26278 11.1587 9.53125L9.76172 9.21307C9.92744 8.74905 10.1694 8.37453 10.4876 8.08949C10.8091 7.80114 11.1786 7.59233 11.5962 7.46307C12.0138 7.33049 12.453 7.2642 12.9137 7.2642C13.2186 7.2642 13.5418 7.30066 13.8832 7.37358C14.2279 7.44318 14.5494 7.57244 14.8477 7.76136C15.1493 7.95028 15.3962 8.22041 15.5884 8.57173C15.7807 8.91974 15.8768 9.37216 15.8768 9.92898V15H14.4251V13.956H14.3654C14.2693 14.1482 14.1251 14.3371 13.9329 14.5227C13.7406 14.7083 13.4937 14.8625 13.1921 14.9851C12.8905 15.1077 12.5292 15.169 12.1083 15.169ZM12.4315 13.9759C12.8424 13.9759 13.1938 13.8946 13.4854 13.7322C13.7804 13.5698 14.0041 13.3577 14.1566 13.0959C14.3124 12.8307 14.3903 12.5473 14.3903 12.2457V11.2614C14.3372 11.3144 14.2345 11.3641 14.082 11.4105C13.9329 11.4536 13.7622 11.4917 13.57 11.5249C13.3777 11.5547 13.1905 11.5829 13.0082 11.6094C12.8259 11.6326 12.6734 11.6525 12.5508 11.669C12.2624 11.7055 11.9989 11.7668 11.7603 11.853C11.525 11.9392 11.3361 12.0634 11.1935 12.2259C11.0543 12.3849 10.9847 12.5971 10.9847 12.8622C10.9847 13.2301 11.1206 13.5085 11.3924 13.6974C11.6642 13.883 12.0105 13.9759 12.4315 13.9759ZM23.579 9.22798L22.2317 9.46662C22.1754 9.29427 22.0859 9.13021 21.9632 8.97443C21.8439 8.81865 21.6815 8.69105 21.476 8.59162C21.2705 8.49219 21.0137 8.44247 20.7054 8.44247C20.2845 8.44247 19.9332 8.53693 19.6515 8.72585C19.3697 8.91146 19.2289 9.15175 19.2289 9.44673C19.2289 9.70194 19.3233 9.90743 19.5123 10.0632C19.7012 10.219 20.0061 10.3466 20.427 10.446L21.6401 10.7244C22.3427 10.8868 22.8664 11.1371 23.2111 11.4751C23.5558 11.8132 23.7282 12.2524 23.7282 12.7926C23.7282 13.25 23.5956 13.6577 23.3304 14.0156C23.0686 14.3703 22.7024 14.6487 22.2317 14.8509C21.7644 15.053 21.2225 15.1541 20.606 15.1541C19.7509 15.1541 19.0532 14.9718 18.513 14.6072C17.9727 14.2393 17.6413 13.7173 17.5186 13.0412L18.9554 12.8224C19.0449 13.197 19.2289 13.4804 19.5073 13.6726C19.7857 13.8615 20.1486 13.956 20.5961 13.956C21.0833 13.956 21.4727 13.8549 21.7644 13.6527C22.056 13.4472 22.2019 13.197 22.2019 12.902C22.2019 12.6634 22.1124 12.4628 21.9334 12.3004C21.7578 12.138 21.4876 12.0154 21.123 11.9325L19.8304 11.6491C19.1178 11.4867 18.5908 11.2282 18.2495 10.8736C17.9114 10.5189 17.7424 10.0698 17.7424 9.52628C17.7424 9.07552 17.8683 8.68111 18.1202 8.34304C18.3721 8.00497 18.7201 7.74148 19.1642 7.55256C19.6084 7.36032 20.1171 7.2642 20.6905 7.2642C21.5158 7.2642 22.1654 7.44318 22.6394 7.80114C23.1133 8.15578 23.4266 8.63139 23.579 9.22798ZM31.0849 9.22798L29.7376 9.46662C29.6812 9.29427 29.5917 9.13021 29.4691 8.97443C29.3498 8.81865 29.1874 8.69105 28.9819 8.59162C28.7764 8.49219 28.5195 8.44247 28.2113 8.44247C27.7904 8.44247 27.439 8.53693 27.1573 8.72585C26.8756 8.91146 26.7347 9.15175 26.7347 9.44673C26.7347 9.70194 26.8292 9.90743 27.0181 10.0632C27.207 10.219 27.512 10.3466 27.9329 10.446L29.146 10.7244C29.8486 10.8868 30.3723 11.1371 30.717 11.4751C31.0617 11.8132 31.234 12.2524 31.234 12.7926C31.234 13.25 31.1014 13.6577 30.8363 14.0156C30.5745 14.3703 30.2082 14.6487 29.7376 14.8509C29.2702 15.053 28.7283 15.1541 28.1119 15.1541C27.2567 15.1541 26.5591 14.9718 26.0188 14.6072C25.4786 14.2393 25.1471 13.7173 25.0245 13.0412L26.4613 12.8224C26.5508 13.197 26.7347 13.4804 27.0131 13.6726C27.2915 13.8615 27.6545 13.956 28.1019 13.956C28.5891 13.956 28.9786 13.8549 29.2702 13.6527C29.5619 13.4472 29.7077 13.197 29.7077 12.902C29.7077 12.6634 29.6183 12.4628 29.4393 12.3004C29.2636 12.138 28.9935 12.0154 28.6289 11.9325L27.3363 11.6491C26.6237 11.4867 26.0967 11.2282 25.7553 10.8736C25.4173 10.5189 25.2482 10.0698 25.2482 9.52628C25.2482 9.07552 25.3742 8.68111 25.6261 8.34304C25.878 8.00497 26.226 7.74148 26.6701 7.55256C27.1142 7.36032 27.623 7.2642 28.1964 7.2642C29.0217 7.2642 29.6713 7.44318 30.1452 7.80114C30.6192 8.15578 30.9324 8.63139 31.0849 9.22798ZM34.524 15L32.2768 7.36364H33.813L35.3095 12.9716H35.3841L36.8855 7.36364H38.4217L39.9132 12.9467H39.9877L41.4743 7.36364H43.0105L40.7683 15H39.252L37.7008 9.48651H37.5865L36.0353 15H34.524ZM47.4054 15.1541C46.6895 15.1541 46.0647 14.9901 45.5311 14.6619C44.9975 14.3338 44.5832 13.8748 44.2882 13.2848C43.9932 12.6948 43.8457 12.0054 43.8457 11.2166C43.8457 10.4245 43.9932 9.73177 44.2882 9.13849C44.5832 8.54522 44.9975 8.08452 45.5311 7.75639C46.0647 7.42827 46.6895 7.2642 47.4054 7.2642C48.1213 7.2642 48.746 7.42827 49.2797 7.75639C49.8133 8.08452 50.2276 8.54522 50.5225 9.13849C50.8175 9.73177 50.965 10.4245 50.965 11.2166C50.965 12.0054 50.8175 12.6948 50.5225 13.2848C50.2276 13.8748 49.8133 14.3338 49.2797 14.6619C48.746 14.9901 48.1213 15.1541 47.4054 15.1541ZM47.4103 13.9062C47.8743 13.9062 48.2588 13.7836 48.5637 13.5384C48.8687 13.2931 49.094 12.9666 49.2399 12.5589C49.389 12.1513 49.4636 11.7022 49.4636 11.2116C49.4636 10.7244 49.389 10.277 49.2399 9.86932C49.094 9.45833 48.8687 9.12855 48.5637 8.87997C48.2588 8.63139 47.8743 8.5071 47.4103 8.5071C46.943 8.5071 46.5552 8.63139 46.247 8.87997C45.9421 9.12855 45.715 9.45833 45.5659 9.86932C45.42 10.277 45.3471 10.7244 45.3471 11.2116C45.3471 11.7022 45.42 12.1513 45.5659 12.5589C45.715 12.9666 45.9421 13.2931 46.247 13.5384C46.5552 13.7836 46.943 13.9062 47.4103 13.9062ZM52.6243 15V7.36364H54.0611V8.5767H54.1406C54.2798 8.16572 54.5251 7.84257 54.8764 7.60724C55.2311 7.36861 55.6321 7.24929 56.0795 7.24929C56.1723 7.24929 56.2817 7.2526 56.4077 7.25923C56.5369 7.26586 56.638 7.27415 56.7109 7.28409V8.70597C56.6513 8.68939 56.5452 8.67116 56.3928 8.65128C56.2403 8.62808 56.0878 8.61648 55.9354 8.61648C55.584 8.61648 55.2708 8.69105 54.9957 8.8402C54.724 8.98603 54.5085 9.18987 54.3494 9.4517C54.1903 9.71023 54.1108 10.0052 54.1108 10.3366V15H52.6243ZM60.5826 15.1491C59.9661 15.1491 59.4159 14.9917 58.932 14.6768C58.4514 14.3587 58.0736 13.9062 57.7985 13.3196C57.5267 12.7296 57.3908 12.022 57.3908 11.1967C57.3908 10.3714 57.5283 9.66548 57.8034 9.07884C58.0819 8.49219 58.463 8.04309 58.9469 7.73153C59.4308 7.41998 59.9793 7.2642 60.5925 7.2642C61.0665 7.2642 61.4476 7.34375 61.736 7.50284C62.0276 7.65862 62.253 7.84091 62.4121 8.04972C62.5745 8.25852 62.7005 8.44247 62.79 8.60156H62.8794V4.81818H64.3659V15H62.9142V13.8118H62.79C62.7005 13.9742 62.5712 14.1598 62.4022 14.3686C62.2364 14.5774 62.0078 14.7597 61.7161 14.9155C61.4244 15.0713 61.0466 15.1491 60.5826 15.1491ZM60.9107 13.8814C61.3382 13.8814 61.6995 13.7687 61.9945 13.5433C62.2928 13.3146 62.5182 12.9981 62.6706 12.5938C62.8264 12.1894 62.9043 11.7187 62.9043 11.1818C62.9043 10.6515 62.8281 10.1875 62.6756 9.78977C62.5231 9.39205 62.2994 9.08215 62.0044 8.86009C61.7095 8.63802 61.3449 8.52699 60.9107 8.52699C60.4632 8.52699 60.0904 8.64299 59.7921 8.875C59.4938 9.10701 59.2684 9.42353 59.1159 9.82457C58.9668 10.2256 58.8922 10.678 58.8922 11.1818C58.8922 11.6922 58.9685 12.1513 59.1209 12.5589C59.2734 12.9666 59.4988 13.2898 59.7971 13.5284C60.0987 13.7637 60.4699 13.8814 60.9107 13.8814Z" fill="#334155"/>
</svg>
