<svg width="93" height="16" viewBox="0 0 93 16" fill="none" xmlns="http://www.w3.org/2000/svg">
<path d="M4.66667 13.8333C3.31528 13.493 2.19965 12.7177 1.31979 11.5073C0.439931 10.2968 0 8.95274 0 7.47496V3.91663L4.66667 2.16663L9.33333 3.91663V7.47496C9.33333 8.30135 9.19236 9.09614 8.91042 9.85933C8.62847 10.6225 8.225 11.2958 7.7 11.8791L5.83333 10.0125C5.65833 10.1194 5.47118 10.1996 5.27187 10.2531C5.07257 10.3066 4.87083 10.3333 4.66667 10.3333C4.025 10.3333 3.47569 10.1048 3.01875 9.64788C2.56181 9.19093 2.33333 8.64163 2.33333 7.99996C2.33333 7.35829 2.56181 6.80899 3.01875 6.35204C3.47569 5.8951 4.025 5.66663 4.66667 5.66663C5.30833 5.66663 5.85764 5.8951 6.31458 6.35204C6.77153 6.80899 7 7.35829 7 7.99996C7 8.21385 6.97326 8.42045 6.91979 8.61975C6.86632 8.81906 6.78611 9.01107 6.67917 9.19579L7.55417 10.0708C7.74861 9.67218 7.89931 9.25413 8.00625 8.81663C8.11319 8.37913 8.16667 7.9319 8.16667 7.47496V4.71871L4.66667 3.40621L1.16667 4.71871V7.47496C1.16667 8.65135 1.49722 9.72079 2.15833 10.6833C2.81944 11.6458 3.65556 12.2875 4.66667 12.6083C4.91944 12.5305 5.16007 12.4309 5.38854 12.3093C5.61701 12.1878 5.84306 12.0444 6.06667 11.8791L6.88333 12.6958C6.5625 12.9583 6.21493 13.1868 5.84062 13.3812C5.46632 13.5757 5.075 13.7263 4.66667 13.8333ZM4.66667 9.16663C4.9875 9.16663 5.26215 9.05239 5.49062 8.82392C5.7191 8.59545 5.83333 8.32079 5.83333 7.99996C5.83333 7.67913 5.7191 7.40447 5.49062 7.176C5.26215 6.94753 4.9875 6.83329 4.66667 6.83329C4.34583 6.83329 4.07118 6.94753 3.84271 7.176C3.61424 7.40447 3.5 7.67913 3.5 7.99996C3.5 8.32079 3.61424 8.59545 3.84271 8.82392C4.07118 9.05239 4.34583 9.16663 4.66667 9.16663Z" fill="#64748B"/>
<path d="M14.3877 12V3.26953H17.376C18.0557 3.26953 18.6152 3.39355 19.0547 3.6416C19.4941 3.88965 19.8203 4.22266 20.0332 4.64062C20.2461 5.05859 20.3525 5.52734 20.3525 6.04688C20.3525 6.56641 20.2461 7.03711 20.0332 7.45898C19.8203 7.88086 19.4951 8.2168 19.0576 8.4668C18.6201 8.7168 18.0615 8.8418 17.3818 8.8418H15.2666V7.86328H17.3291C17.79 7.86328 18.1611 7.78418 18.4424 7.62598C18.7236 7.46777 18.9277 7.25098 19.0547 6.97559C19.1816 6.7002 19.2451 6.39062 19.2451 6.04688C19.2451 5.70312 19.1816 5.39551 19.0547 5.12402C18.9277 4.85254 18.7227 4.63867 18.4395 4.48242C18.1562 4.32617 17.7822 4.24805 17.3174 4.24805H15.501V12H14.3877ZM21.9229 12V5.44922H22.9424V6.45703H23.0127C23.1338 6.125 23.3496 5.8584 23.6602 5.65723C23.9707 5.45605 24.3213 5.35547 24.7119 5.35547C24.79 5.35547 24.8828 5.35742 24.9902 5.36133C25.0977 5.36523 25.1826 5.36914 25.2451 5.37305V6.43359C25.2139 6.42578 25.1357 6.41406 25.0107 6.39844C24.8857 6.38281 24.7529 6.375 24.6123 6.375C24.2998 6.375 24.0195 6.44043 23.7715 6.57129C23.5234 6.70215 23.3291 6.88184 23.1885 7.11035C23.0479 7.33887 22.9775 7.60156 22.9775 7.89844V12H21.9229ZM26.5576 12V5.44922H27.6123V12H26.5576ZM27.0908 4.37695C26.8916 4.37695 26.7197 4.30859 26.5752 4.17188C26.4307 4.03516 26.3584 3.87109 26.3584 3.67969C26.3584 3.48438 26.4307 3.31934 26.5752 3.18457C26.7197 3.0498 26.8916 2.98242 27.0908 2.98242C27.2939 2.98242 27.4678 3.0498 27.6123 3.18457C27.7568 3.31934 27.8291 3.48438 27.8291 3.67969C27.8291 3.87109 27.7568 4.03516 27.6123 4.17188C27.4678 4.30859 27.2939 4.37695 27.0908 4.37695ZM31.3564 12L28.8545 5.44922H30.0088L31.4033 9.33398C31.5518 9.73633 31.6777 10.1377 31.7812 10.5381C31.8848 10.9385 31.9932 11.3262 32.1064 11.7012H31.7197C31.833 11.3262 31.9414 10.9385 32.0449 10.5381C32.1484 10.1377 32.2725 9.73633 32.417 9.33398L33.8115 5.44922H34.9658L32.4639 12H31.3564ZM37.9834 12.1523C37.5693 12.1523 37.1934 12.0742 36.8555 11.918C36.5176 11.7617 36.249 11.5332 36.0498 11.2324C35.8506 10.9316 35.751 10.5664 35.751 10.1367C35.751 9.76172 35.8252 9.45703 35.9736 9.22266C36.1221 8.98828 36.3203 8.80371 36.5684 8.66895C36.8164 8.53418 37.0908 8.43359 37.3916 8.36719C37.6924 8.30078 37.9951 8.24805 38.2998 8.20898C38.6904 8.1582 39.0088 8.11914 39.2549 8.0918C39.501 8.06445 39.6836 8.01758 39.8027 7.95117C39.9219 7.88477 39.9814 7.77148 39.9814 7.61133V7.57617C39.9814 7.30273 39.9307 7.07129 39.8291 6.88184C39.7275 6.69238 39.5752 6.54688 39.3721 6.44531C39.1689 6.34375 38.915 6.29297 38.6104 6.29297C38.2979 6.29297 38.0303 6.3418 37.8076 6.43945C37.585 6.53711 37.4043 6.65918 37.2656 6.80566C37.127 6.95215 37.0225 7.10156 36.9521 7.25391L35.9385 6.91992C36.1064 6.52148 36.333 6.20996 36.6182 5.98535C36.9033 5.76074 37.2178 5.60156 37.5615 5.50781C37.9053 5.41406 38.2451 5.36719 38.5811 5.36719C38.7998 5.36719 39.0488 5.39355 39.3281 5.44629C39.6074 5.49902 39.877 5.60352 40.1367 5.75977C40.3965 5.91602 40.6113 6.14746 40.7812 6.4541C40.9512 6.76074 41.0361 7.16992 41.0361 7.68164V12H39.999V11.1094H39.9287C39.8545 11.2617 39.7354 11.4189 39.5713 11.5811C39.4072 11.7432 39.1943 11.8789 38.9326 11.9883C38.6709 12.0977 38.3545 12.1523 37.9834 12.1523ZM38.165 11.2207C38.5557 11.2207 38.8857 11.1445 39.1553 10.9922C39.4248 10.8398 39.6299 10.6416 39.7705 10.3975C39.9111 10.1533 39.9814 9.89844 39.9814 9.63281V8.72461C39.9385 8.77539 39.8447 8.82129 39.7002 8.8623C39.5557 8.90332 39.3906 8.93945 39.2051 8.9707C39.0195 9.00195 38.8398 9.02832 38.666 9.0498C38.4922 9.07129 38.3545 9.08789 38.2529 9.09961C37.999 9.13086 37.7617 9.18457 37.541 9.26074C37.3203 9.33691 37.1436 9.44824 37.0107 9.59473C36.8779 9.74121 36.8115 9.93945 36.8115 10.1895C36.8115 10.416 36.8701 10.6055 36.9873 10.7578C37.1045 10.9102 37.2646 11.0254 37.4678 11.1035C37.6709 11.1816 37.9033 11.2207 38.165 11.2207ZM45.5537 12.1406C44.96 12.1406 44.4395 12 43.9922 11.7188C43.5449 11.4375 43.1963 11.043 42.9463 10.5352C42.6963 10.0273 42.5713 9.4375 42.5713 8.76562C42.5713 8.08203 42.6963 7.48535 42.9463 6.97559C43.1963 6.46582 43.5449 6.07031 43.9922 5.78906C44.4395 5.50781 44.96 5.36719 45.5537 5.36719C45.8701 5.36719 46.1689 5.4082 46.4502 5.49023C46.7314 5.57227 46.9883 5.69043 47.2207 5.84473C47.4531 5.99902 47.6533 6.18848 47.8213 6.41309C47.9893 6.6377 48.1182 6.89258 48.208 7.17773L47.1943 7.46484C47.1475 7.29688 47.0752 7.14258 46.9775 7.00195C46.8799 6.86133 46.7617 6.73926 46.623 6.63574C46.4844 6.53223 46.3252 6.45215 46.1455 6.39551C45.9658 6.33887 45.7686 6.31055 45.5537 6.31055C45.1162 6.31055 44.7568 6.4248 44.4756 6.65332C44.1943 6.88184 43.9854 7.18164 43.8486 7.55273C43.7119 7.92383 43.6436 8.32812 43.6436 8.76562C43.6436 9.19531 43.7119 9.59473 43.8486 9.96387C43.9854 10.333 44.1943 10.6309 44.4756 10.8574C44.7568 11.084 45.1162 11.1973 45.5537 11.1973C45.7725 11.1973 45.9736 11.168 46.1572 11.1094C46.3408 11.0508 46.5039 10.9678 46.6465 10.8604C46.7891 10.7529 46.9092 10.625 47.0068 10.4766C47.1045 10.3281 47.1768 10.166 47.2236 9.99023L48.2314 10.2773C48.1455 10.5703 48.0176 10.8311 47.8477 11.0596C47.6777 11.2881 47.4756 11.4834 47.2412 11.6455C47.0068 11.8076 46.7471 11.9307 46.4619 12.0146C46.1768 12.0986 45.874 12.1406 45.5537 12.1406ZM49.4033 14.373L49.6729 13.459L49.7842 13.4883C49.999 13.543 50.1943 13.5576 50.3701 13.5322C50.5459 13.5068 50.7041 13.4199 50.8447 13.2715C50.9854 13.123 51.1084 12.8926 51.2139 12.5801L51.4014 12.0352L48.8994 5.44922H50.0537L51.4482 9.33398C51.5967 9.74023 51.7217 10.1426 51.8232 10.541C51.9248 10.9395 52.0322 11.3262 52.1455 11.7012H51.7588C51.8721 11.3262 51.9805 10.9385 52.084 10.5381C52.1875 10.1377 52.3115 9.73633 52.4561 9.33398L53.8623 5.44922H55.0107L52.1338 12.9785C52.001 13.3262 51.8418 13.6123 51.6562 13.8369C51.4707 14.0615 51.2549 14.2275 51.0088 14.335C50.7627 14.4424 50.4854 14.4961 50.1768 14.4961C49.9893 14.4961 49.8271 14.4824 49.6904 14.4551C49.5537 14.4277 49.458 14.4004 49.4033 14.373ZM59.7568 12V3.26953H62.7451C63.4248 3.26953 63.9844 3.39355 64.4238 3.6416C64.8633 3.88965 65.1895 4.22266 65.4023 4.64062C65.6152 5.05859 65.7217 5.52734 65.7217 6.04688C65.7217 6.56641 65.6152 7.03711 65.4023 7.45898C65.1895 7.88086 64.8643 8.2168 64.4268 8.4668C63.9893 8.7168 63.4307 8.8418 62.751 8.8418H60.6357V7.86328H62.6982C63.1592 7.86328 63.5303 7.78418 63.8115 7.62598C64.0928 7.46777 64.2969 7.25098 64.4238 6.97559C64.5508 6.7002 64.6143 6.39062 64.6143 6.04688C64.6143 5.70312 64.5508 5.39551 64.4238 5.12402C64.2969 4.85254 64.0918 4.63867 63.8086 4.48242C63.5254 4.32617 63.1514 4.24805 62.6865 4.24805H60.8701V12H59.7568ZM69.8936 12.1406C69.2998 12.1406 68.7793 12 68.332 11.7188C67.8848 11.4375 67.5361 11.043 67.2861 10.5352C67.0361 10.0273 66.9111 9.4375 66.9111 8.76562C66.9111 8.08203 67.0361 7.48535 67.2861 6.97559C67.5361 6.46582 67.8848 6.07031 68.332 5.78906C68.7793 5.50781 69.2998 5.36719 69.8936 5.36719C70.4912 5.36719 71.0146 5.50781 71.4639 5.78906C71.9131 6.07031 72.2627 6.46582 72.5127 6.97559C72.7627 7.48535 72.8877 8.08203 72.8877 8.76562C72.8877 9.4375 72.7627 10.0273 72.5127 10.5352C72.2627 11.043 71.9131 11.4375 71.4639 11.7188C71.0146 12 70.4912 12.1406 69.8936 12.1406ZM69.8936 11.1973C70.335 11.1973 70.6982 11.084 70.9834 10.8574C71.2686 10.6309 71.4795 10.333 71.6162 9.96387C71.7529 9.59473 71.8213 9.19531 71.8213 8.76562C71.8213 8.33203 71.7529 7.92871 71.6162 7.55566C71.4795 7.18262 71.2686 6.88184 70.9834 6.65332C70.6982 6.4248 70.335 6.31055 69.8936 6.31055C69.4561 6.31055 69.0967 6.4248 68.8154 6.65332C68.5342 6.88184 68.3252 7.18164 68.1885 7.55273C68.0518 7.92383 67.9834 8.32812 67.9834 8.76562C67.9834 9.19531 68.0518 9.59473 68.1885 9.96387C68.3252 10.333 68.5342 10.6309 68.8154 10.8574C69.0967 11.084 69.4561 11.1973 69.8936 11.1973ZM75.4775 3.26953V12H74.4229V3.26953H75.4775ZM77.3291 12V5.44922H78.3838V12H77.3291ZM77.8623 4.37695C77.6631 4.37695 77.4912 4.30859 77.3467 4.17188C77.2021 4.03516 77.1299 3.87109 77.1299 3.67969C77.1299 3.48438 77.2021 3.31934 77.3467 3.18457C77.4912 3.0498 77.6631 2.98242 77.8623 2.98242C78.0654 2.98242 78.2393 3.0498 78.3838 3.18457C78.5283 3.31934 78.6006 3.48438 78.6006 3.67969C78.6006 3.87109 78.5283 4.03516 78.3838 4.17188C78.2393 4.30859 78.0654 4.37695 77.8623 4.37695ZM82.9014 12.1406C82.3076 12.1406 81.7871 12 81.3398 11.7188C80.8926 11.4375 80.5439 11.043 80.2939 10.5352C80.0439 10.0273 79.9189 9.4375 79.9189 8.76562C79.9189 8.08203 80.0439 7.48535 80.2939 6.97559C80.5439 6.46582 80.8926 6.07031 81.3398 5.78906C81.7871 5.50781 82.3076 5.36719 82.9014 5.36719C83.2178 5.36719 83.5166 5.4082 83.7979 5.49023C84.0791 5.57227 84.3359 5.69043 84.5684 5.84473C84.8008 5.99902 85.001 6.18848 85.1689 6.41309C85.3369 6.6377 85.4658 6.89258 85.5557 7.17773L84.542 7.46484C84.4951 7.29688 84.4229 7.14258 84.3252 7.00195C84.2275 6.86133 84.1094 6.73926 83.9707 6.63574C83.832 6.53223 83.6729 6.45215 83.4932 6.39551C83.3135 6.33887 83.1162 6.31055 82.9014 6.31055C82.4639 6.31055 82.1045 6.4248 81.8232 6.65332C81.542 6.88184 81.333 7.18164 81.1963 7.55273C81.0596 7.92383 80.9912 8.32812 80.9912 8.76562C80.9912 9.19531 81.0596 9.59473 81.1963 9.96387C81.333 10.333 81.542 10.6309 81.8232 10.8574C82.1045 11.084 82.4639 11.1973 82.9014 11.1973C83.1201 11.1973 83.3213 11.168 83.5049 11.1094C83.6885 11.0508 83.8516 10.9678 83.9941 10.8604C84.1367 10.7529 84.2568 10.625 84.3545 10.4766C84.4521 10.3281 84.5244 10.166 84.5713 9.99023L85.5791 10.2773C85.4932 10.5703 85.3652 10.8311 85.1953 11.0596C85.0254 11.2881 84.8232 11.4834 84.5889 11.6455C84.3545 11.8076 84.0947 11.9307 83.8096 12.0146C83.5244 12.0986 83.2217 12.1406 82.9014 12.1406ZM86.751 14.373L87.0205 13.459L87.1318 13.4883C87.3467 13.543 87.542 13.5576 87.7178 13.5322C87.8936 13.5068 88.0518 13.4199 88.1924 13.2715C88.333 13.123 88.4561 12.8926 88.5615 12.5801L88.749 12.0352L86.2471 5.44922H87.4014L88.7959 9.33398C88.9443 9.74023 89.0693 10.1426 89.1709 10.541C89.2725 10.9395 89.3799 11.3262 89.4932 11.7012H89.1064C89.2197 11.3262 89.3281 10.9385 89.4316 10.5381C89.5352 10.1377 89.6592 9.73633 89.8037 9.33398L91.21 5.44922H92.3584L89.4814 12.9785C89.3486 13.3262 89.1895 13.6123 89.0039 13.8369C88.8184 14.0615 88.6025 14.2275 88.3564 14.335C88.1104 14.4424 87.833 14.4961 87.5244 14.4961C87.3369 14.4961 87.1748 14.4824 87.0381 14.4551C86.9014 14.4277 86.8057 14.4004 86.751 14.373Z" fill="#64748B"/>
</svg>
