<svg width="97" height="20" viewBox="0 0 97 20" fill="none" xmlns="http://www.w3.org/2000/svg">
<path d="M1.23047 15V4.81445H4.7168C5.50977 4.81445 6.1626 4.95003 6.67529 5.22119C7.18799 5.49235 7.56852 5.86491 7.81689 6.33887C8.06527 6.81283 8.18945 7.35286 8.18945 7.95898C8.18945 8.5651 8.06527 9.10059 7.81689 9.56543C7.56852 10.0303 7.18913 10.3937 6.67871 10.6558C6.16829 10.9178 5.5166 11.0488 4.72363 11.0488H1.95508V9.89355H4.66211C5.19987 9.89355 5.63167 9.81494 5.95752 9.65771C6.28337 9.50049 6.52148 9.27718 6.67188 8.98779C6.82227 8.6984 6.89746 8.35547 6.89746 7.95898C6.89746 7.55339 6.82227 7.20133 6.67188 6.90283C6.52148 6.60433 6.28223 6.37191 5.9541 6.20557C5.62598 6.03923 5.19076 5.95605 4.64844 5.95605H2.5293V15H1.23047ZM7.08203 15L4.62109 10.4131H6.08398L8.58594 15H7.08203ZM13.0977 15.1641C12.3594 15.1641 11.7225 15 11.187 14.6719C10.6515 14.3438 10.2391 13.8857 9.94971 13.2979C9.66032 12.71 9.51562 12.0241 9.51562 11.2402C9.51562 10.4564 9.6569 9.76595 9.93945 9.16895C10.222 8.57194 10.6219 8.10482 11.1392 7.76758C11.6564 7.43034 12.2614 7.26172 12.9541 7.26172C13.3597 7.26172 13.7596 7.32894 14.1538 7.46338C14.548 7.59782 14.9058 7.81429 15.2271 8.11279C15.5483 8.4113 15.8047 8.80436 15.9961 9.29199C16.1875 9.77962 16.2832 10.3766 16.2832 11.083V11.5957H10.3496V10.5566H15.6201L15.0459 10.9395C15.0459 10.4382 14.9673 9.99268 14.8101 9.60303C14.6528 9.21338 14.4193 8.90804 14.1094 8.68701C13.7995 8.46598 13.4144 8.35547 12.9541 8.35547C12.4938 8.35547 12.0996 8.46826 11.7715 8.69385C11.4434 8.91943 11.1927 9.21338 11.0195 9.57568C10.8464 9.93799 10.7598 10.3265 10.7598 10.7412V11.4316C10.7598 11.9967 10.8577 12.4764 11.0537 12.8706C11.2497 13.2648 11.5243 13.5633 11.8774 13.7661C12.2306 13.9689 12.6396 14.0703 13.1045 14.0703C13.4053 14.0703 13.6787 14.027 13.9248 13.9404C14.1709 13.8538 14.3828 13.7228 14.5605 13.5474C14.7383 13.3719 14.875 13.1543 14.9707 12.8945L16.1602 13.2227C16.0417 13.6055 15.8411 13.9427 15.5586 14.2344C15.276 14.526 14.9263 14.7539 14.5093 14.918C14.0923 15.082 13.6217 15.1641 13.0977 15.1641ZM18.0469 15V7.35742H19.2432L19.25 9.06641H19.1543C19.2591 8.65169 19.4243 8.30876 19.6499 8.0376C19.8755 7.76644 20.1398 7.5625 20.4429 7.42578C20.7459 7.28906 21.0615 7.2207 21.3896 7.2207C21.9456 7.2207 22.3957 7.3916 22.7397 7.7334C23.0838 8.0752 23.306 8.52409 23.4062 9.08008H23.2422C23.3333 8.69727 23.4997 8.36686 23.7412 8.08887C23.9827 7.81087 24.2756 7.59668 24.6196 7.44629C24.9637 7.2959 25.3385 7.2207 25.7441 7.2207C26.1862 7.2207 26.5895 7.31641 26.9541 7.50781C27.3187 7.69922 27.6092 7.98861 27.8257 8.37598C28.0422 8.76335 28.1504 9.25326 28.1504 9.8457V15H26.9199V9.87988C26.9199 9.32845 26.765 8.93424 26.4551 8.69727C26.1452 8.46029 25.7852 8.3418 25.375 8.3418C25.0332 8.3418 24.7381 8.41357 24.4897 8.55713C24.2414 8.70068 24.05 8.89779 23.9155 9.14844C23.7811 9.39909 23.7139 9.6862 23.7139 10.0098V15H22.4834V9.75684C22.4834 9.33301 22.3421 8.99121 22.0596 8.73145C21.777 8.47168 21.4193 8.3418 20.9863 8.3418C20.6901 8.3418 20.411 8.4113 20.1489 8.55029C19.8869 8.68929 19.6761 8.89551 19.5166 9.16895C19.3571 9.44238 19.2773 9.7819 19.2773 10.1875V15H18.0469ZM33.5234 15.1641C32.7852 15.1641 32.1483 15 31.6128 14.6719C31.0773 14.3438 30.6649 13.8857 30.3755 13.2979C30.0861 12.71 29.9414 12.0241 29.9414 11.2402C29.9414 10.4564 30.0827 9.76595 30.3652 9.16895C30.6478 8.57194 31.0477 8.10482 31.5649 7.76758C32.0822 7.43034 32.6872 7.26172 33.3799 7.26172C33.7855 7.26172 34.1854 7.32894 34.5796 7.46338C34.9738 7.59782 35.3315 7.81429 35.6528 8.11279C35.9741 8.4113 36.2305 8.80436 36.4219 9.29199C36.6133 9.77962 36.709 10.3766 36.709 11.083V11.5957H30.7754V10.5566H36.0459L35.4717 10.9395C35.4717 10.4382 35.3931 9.99268 35.2358 9.60303C35.0786 9.21338 34.8451 8.90804 34.5352 8.68701C34.2253 8.46598 33.8402 8.35547 33.3799 8.35547C32.9196 8.35547 32.5254 8.46826 32.1973 8.69385C31.8691 8.91943 31.6185 9.21338 31.4453 9.57568C31.2721 9.93799 31.1855 10.3265 31.1855 10.7412V11.4316C31.1855 11.9967 31.2835 12.4764 31.4795 12.8706C31.6755 13.2648 31.95 13.5633 32.3032 13.7661C32.6564 13.9689 33.0654 14.0703 33.5303 14.0703C33.8311 14.0703 34.1045 14.027 34.3506 13.9404C34.5967 13.8538 34.8086 13.7228 34.9863 13.5474C35.1641 13.3719 35.3008 13.1543 35.3965 12.8945L36.5859 13.2227C36.4674 13.6055 36.2669 13.9427 35.9844 14.2344C35.7018 14.526 35.3521 14.7539 34.9351 14.918C34.5181 15.082 34.0475 15.1641 33.5234 15.1641ZM38.4727 15V7.35742H39.6689L39.6758 9.06641H39.5801C39.6849 8.65169 39.8501 8.30876 40.0757 8.0376C40.3013 7.76644 40.5656 7.5625 40.8687 7.42578C41.1717 7.28906 41.4873 7.2207 41.8154 7.2207C42.3714 7.2207 42.8215 7.3916 43.1655 7.7334C43.5096 8.0752 43.7318 8.52409 43.832 9.08008H43.668C43.7591 8.69727 43.9255 8.36686 44.167 8.08887C44.4085 7.81087 44.7013 7.59668 45.0454 7.44629C45.3895 7.2959 45.7643 7.2207 46.1699 7.2207C46.612 7.2207 47.0153 7.31641 47.3799 7.50781C47.7445 7.69922 48.035 7.98861 48.2515 8.37598C48.4679 8.76335 48.5762 9.25326 48.5762 9.8457V15H47.3457V9.87988C47.3457 9.32845 47.1908 8.93424 46.8809 8.69727C46.571 8.46029 46.2109 8.3418 45.8008 8.3418C45.459 8.3418 45.1639 8.41357 44.9155 8.55713C44.6672 8.70068 44.4757 8.89779 44.3413 9.14844C44.2069 9.39909 44.1396 9.6862 44.1396 10.0098V15H42.9092V9.75684C42.9092 9.33301 42.7679 8.99121 42.4854 8.73145C42.2028 8.47168 41.8451 8.3418 41.4121 8.3418C41.1159 8.3418 40.8368 8.4113 40.5747 8.55029C40.3127 8.68929 40.1019 8.89551 39.9424 9.16895C39.7829 9.44238 39.7031 9.7819 39.7031 10.1875V15H38.4727ZM54.2842 15.1641C53.8011 15.1641 53.4115 15.0809 53.1152 14.9146C52.819 14.7482 52.5911 14.5591 52.4316 14.3472C52.2721 14.1353 52.1491 13.9587 52.0625 13.8174H51.9258V15H50.7363V4.81445H51.9668V8.58105H52.0625C52.1491 8.44434 52.2699 8.2723 52.4248 8.06494C52.5798 7.85758 52.8031 7.67188 53.0947 7.50781C53.3864 7.34375 53.7806 7.26172 54.2773 7.26172C54.9154 7.26172 55.4771 7.42122 55.9624 7.74023C56.4478 8.05924 56.8283 8.51383 57.104 9.104C57.3797 9.69417 57.5176 10.3926 57.5176 11.1992C57.5176 12.0104 57.3809 12.7122 57.1074 13.3047C56.834 13.8971 56.4546 14.3551 55.9692 14.6787C55.4839 15.0023 54.9222 15.1641 54.2842 15.1641ZM54.0996 14.0635C54.5781 14.0635 54.978 13.9347 55.2993 13.6772C55.6206 13.4198 55.8621 13.0734 56.0239 12.6382C56.1857 12.203 56.2666 11.7188 56.2666 11.1855C56.2666 10.6569 56.1868 10.1795 56.0273 9.75342C55.8678 9.32731 55.6274 8.98893 55.3062 8.73828C54.9849 8.48763 54.5827 8.3623 54.0996 8.3623C53.6302 8.3623 53.236 8.48079 52.917 8.71777C52.598 8.95475 52.3576 9.28402 52.1958 9.70557C52.034 10.1271 51.9531 10.6204 51.9531 11.1855C51.9531 11.7507 52.0352 12.2497 52.1992 12.6826C52.3633 13.1156 52.606 13.4539 52.9272 13.6978C53.2485 13.9416 53.6393 14.0635 54.0996 14.0635ZM62.5215 15.1641C61.7832 15.1641 61.1463 15 60.6108 14.6719C60.0754 14.3438 59.6629 13.8857 59.3735 13.2979C59.0841 12.71 58.9395 12.0241 58.9395 11.2402C58.9395 10.4564 59.0807 9.76595 59.3633 9.16895C59.6458 8.57194 60.0457 8.10482 60.563 7.76758C61.0802 7.43034 61.6852 7.26172 62.3779 7.26172C62.7835 7.26172 63.1834 7.32894 63.5776 7.46338C63.9718 7.59782 64.3296 7.81429 64.6509 8.11279C64.9722 8.4113 65.2285 8.80436 65.4199 9.29199C65.6113 9.77962 65.707 10.3766 65.707 11.083V11.5957H59.7734V10.5566H65.0439L64.4697 10.9395C64.4697 10.4382 64.3911 9.99268 64.2339 9.60303C64.0767 9.21338 63.8431 8.90804 63.5332 8.68701C63.2233 8.46598 62.8382 8.35547 62.3779 8.35547C61.9176 8.35547 61.5234 8.46826 61.1953 8.69385C60.8672 8.91943 60.6165 9.21338 60.4434 9.57568C60.2702 9.93799 60.1836 10.3265 60.1836 10.7412V11.4316C60.1836 11.9967 60.2816 12.4764 60.4775 12.8706C60.6735 13.2648 60.9481 13.5633 61.3013 13.7661C61.6545 13.9689 62.0635 14.0703 62.5283 14.0703C62.8291 14.0703 63.1025 14.027 63.3486 13.9404C63.5947 13.8538 63.8066 13.7228 63.9844 13.5474C64.1621 13.3719 64.2988 13.1543 64.3945 12.8945L65.584 13.2227C65.4655 13.6055 65.265 13.9427 64.9824 14.2344C64.6999 14.526 64.3501 14.7539 63.9331 14.918C63.5161 15.082 63.0456 15.1641 62.5215 15.1641ZM67.4707 15V7.35742H68.6602V8.5332H68.7422C68.8835 8.14583 69.1353 7.8348 69.4976 7.6001C69.8599 7.3654 70.2689 7.24805 70.7246 7.24805C70.8158 7.24805 70.924 7.25033 71.0493 7.25488C71.1746 7.25944 71.2738 7.264 71.3467 7.26855V8.50586C71.3102 8.49674 71.2191 8.48307 71.0732 8.46484C70.9274 8.44661 70.7725 8.4375 70.6084 8.4375C70.2438 8.4375 69.9168 8.51383 69.6274 8.6665C69.3381 8.81917 69.1113 9.02881 68.9473 9.29541C68.7832 9.56201 68.7012 9.86849 68.7012 10.2148V15H67.4707ZM76.6787 15V7.35742H77.875L77.8818 9.06641H77.7861C77.891 8.65169 78.0562 8.30876 78.2817 8.0376C78.5073 7.76644 78.7716 7.5625 79.0747 7.42578C79.3778 7.28906 79.6934 7.2207 80.0215 7.2207C80.5775 7.2207 81.0275 7.3916 81.3716 7.7334C81.7157 8.0752 81.9378 8.52409 82.0381 9.08008H81.874C81.9652 8.69727 82.1315 8.36686 82.373 8.08887C82.6146 7.81087 82.9074 7.59668 83.2515 7.44629C83.5955 7.2959 83.9704 7.2207 84.376 7.2207C84.818 7.2207 85.2214 7.31641 85.5859 7.50781C85.9505 7.69922 86.241 7.98861 86.4575 8.37598C86.674 8.76335 86.7822 9.25326 86.7822 9.8457V15H85.5518V9.87988C85.5518 9.32845 85.3968 8.93424 85.0869 8.69727C84.777 8.46029 84.417 8.3418 84.0068 8.3418C83.665 8.3418 83.37 8.41357 83.1216 8.55713C82.8732 8.70068 82.6818 8.89779 82.5474 9.14844C82.4129 9.39909 82.3457 9.6862 82.3457 10.0098V15H81.1152V9.75684C81.1152 9.33301 80.974 8.99121 80.6914 8.73145C80.4089 8.47168 80.0511 8.3418 79.6182 8.3418C79.3219 8.3418 79.0428 8.4113 78.7808 8.55029C78.5187 8.68929 78.3079 8.89551 78.1484 9.16895C77.9889 9.44238 77.9092 9.7819 77.9092 10.1875V15H76.6787ZM92.1553 15.1641C91.417 15.1641 90.7801 15 90.2446 14.6719C89.7091 14.3438 89.2967 13.8857 89.0073 13.2979C88.7179 12.71 88.5732 12.0241 88.5732 11.2402C88.5732 10.4564 88.7145 9.76595 88.9971 9.16895C89.2796 8.57194 89.6795 8.10482 90.1968 7.76758C90.714 7.43034 91.319 7.26172 92.0117 7.26172C92.4173 7.26172 92.8172 7.32894 93.2114 7.46338C93.6056 7.59782 93.9634 7.81429 94.2847 8.11279C94.606 8.4113 94.8623 8.80436 95.0537 9.29199C95.2451 9.77962 95.3408 10.3766 95.3408 11.083V11.5957H89.4072V10.5566H94.6777L94.1035 10.9395C94.1035 10.4382 94.0249 9.99268 93.8677 9.60303C93.7104 9.21338 93.4769 8.90804 93.167 8.68701C92.8571 8.46598 92.472 8.35547 92.0117 8.35547C91.5514 8.35547 91.1572 8.46826 90.8291 8.69385C90.501 8.91943 90.2503 9.21338 90.0771 9.57568C89.904 9.93799 89.8174 10.3265 89.8174 10.7412V11.4316C89.8174 11.9967 89.9154 12.4764 90.1113 12.8706C90.3073 13.2648 90.5819 13.5633 90.9351 13.7661C91.2882 13.9689 91.6973 14.0703 92.1621 14.0703C92.4629 14.0703 92.7363 14.027 92.9824 13.9404C93.2285 13.8538 93.4404 13.7228 93.6182 13.5474C93.7959 13.3719 93.9326 13.1543 94.0283 12.8945L95.2178 13.2227C95.0993 13.6055 94.8988 13.9427 94.6162 14.2344C94.3337 14.526 93.9839 14.7539 93.5669 14.918C93.1499 15.082 92.6794 15.1641 92.1553 15.1641Z" fill="#475569"/>
</svg>
