<svg width="392" height="58" viewBox="0 0 392 58" fill="none" xmlns="http://www.w3.org/2000/svg">
<rect x="5" y="1" width="382" height="48" rx="8" fill="#FF8C61"/>
<g filter="url(#filter0_dd_198_1219)">
<rect x="5" y="1" width="382" height="48" rx="8" fill="white" fill-opacity="0.01" shape-rendering="crispEdges"/>
</g>
<path d="M174.76 31.1694C173.828 31.1694 173.018 31.0262 172.327 30.7399C171.637 30.4536 171.099 30.0297 170.713 29.4682C170.328 28.9067 170.123 28.2132 170.099 27.3878H172.419C172.45 27.7803 172.567 28.1079 172.77 28.3707C172.973 28.6334 173.244 28.8303 173.584 28.9613C173.923 29.0923 174.307 29.1578 174.734 29.1578C175.159 29.1578 175.53 29.0957 175.847 28.9717C176.163 28.8476 176.409 28.6736 176.585 28.4497C176.761 28.2258 176.849 27.9672 176.849 27.6739C176.849 27.4058 176.77 27.182 176.613 27.0024C176.455 26.8229 176.227 26.6689 175.929 26.5403C175.631 26.4118 175.269 26.2973 174.844 26.1967L173.564 25.8785C172.579 25.6382 171.807 25.2615 171.248 24.7484C170.689 24.2353 170.41 23.5554 170.41 22.7086C170.41 22.0074 170.6 21.3938 170.979 20.8678C171.359 20.3419 171.878 19.9329 172.537 19.641C173.196 19.3491 173.947 19.2031 174.79 19.2031C175.651 19.2031 176.402 19.3505 177.042 19.6452C177.683 19.94 178.182 20.3485 178.54 20.8709C178.898 21.3933 179.083 21.9952 179.096 22.6766H176.79C176.745 22.2101 176.545 21.8487 176.191 21.5922C175.837 21.3358 175.362 21.2076 174.768 21.2076C174.364 21.2076 174.018 21.2657 173.732 21.3819C173.446 21.4982 173.228 21.6581 173.079 21.8618C172.93 22.0655 172.855 22.2976 172.855 22.5581C172.855 22.8434 172.942 23.0803 173.116 23.2686C173.29 23.4569 173.519 23.6102 173.803 23.7286C174.088 23.8469 174.393 23.9451 174.719 24.0233L175.77 24.2803C176.259 24.3917 176.715 24.5415 177.138 24.7295C177.561 24.9175 177.93 25.1481 178.248 25.4212C178.565 25.6944 178.811 26.0178 178.988 26.3916C179.164 26.7654 179.252 27.1965 179.252 27.6847C179.252 28.3904 179.074 29.0048 178.718 29.5279C178.362 30.051 177.849 30.4553 177.18 30.7409C176.51 31.0266 175.703 31.1694 174.76 31.1694ZM180.912 31V22.2656H183.255V31H180.912ZM182.083 21.1271C181.73 21.1271 181.427 21.0091 181.176 20.7732C180.924 20.5373 180.798 20.2543 180.798 19.9241C180.798 19.5871 180.924 19.302 181.176 19.0689C181.427 18.8358 181.73 18.7192 182.083 18.7192C182.437 18.7192 182.74 18.8356 182.992 19.0684C183.245 19.3013 183.371 19.5864 183.371 19.9238C183.371 20.2545 183.245 20.5377 182.992 20.7735C182.74 21.0092 182.437 21.1271 182.083 21.1271ZM189.128 34.4531C188.401 34.4531 187.767 34.3612 187.227 34.1775C186.687 33.9937 186.247 33.7404 185.908 33.4176C185.569 33.0947 185.334 32.7252 185.206 32.309L187.22 31.7519C187.294 31.9129 187.407 32.0704 187.56 32.2243C187.713 32.3782 187.916 32.5042 188.171 32.6025C188.425 32.7007 188.742 32.7498 189.12 32.7498C189.717 32.7498 190.186 32.6127 190.528 32.3384C190.871 32.0641 191.042 31.638 191.042 31.0598V29.4533H190.858C190.754 29.6875 190.602 29.9135 190.404 30.1314C190.206 30.3493 189.947 30.528 189.627 30.6673C189.306 30.8066 188.91 30.8763 188.437 30.8763C187.782 30.8763 187.185 30.7221 186.647 30.4139C186.11 30.1057 185.682 29.6367 185.363 29.0069C185.044 28.3771 184.885 27.5812 184.885 26.6191C184.885 25.6336 185.047 24.8103 185.372 24.1491C185.697 23.4878 186.128 22.9904 186.667 22.6567C187.206 22.3231 187.798 22.1562 188.443 22.1562C188.935 22.1562 189.347 22.2389 189.679 22.4041C190.011 22.5693 190.28 22.7745 190.486 23.0197C190.692 23.2649 190.849 23.5036 190.956 23.7358H191.051V22.2656H193.359V30.927C193.359 31.7136 193.178 32.3683 192.816 32.8913C192.453 33.4143 191.954 33.8053 191.318 34.0644C190.682 34.3236 189.952 34.4531 189.128 34.4531ZM189.17 29.0947C189.571 29.0947 189.912 28.9961 190.191 28.7989C190.469 28.6017 190.682 28.3167 190.829 27.944C190.976 27.5712 191.049 27.1248 191.049 26.6047C191.049 26.0862 190.976 25.6348 190.831 25.2506C190.685 24.8665 190.473 24.5677 190.194 24.3543C189.915 24.141 189.574 24.0343 189.17 24.0343C188.761 24.0343 188.417 24.1445 188.137 24.3651C187.857 24.5857 187.646 24.8886 187.503 25.274C187.361 25.6594 187.289 26.1029 187.289 26.6047C187.289 27.1108 187.361 27.5509 187.505 27.9248C187.649 28.2988 187.861 28.5872 188.141 28.7902C188.42 28.9932 188.763 29.0947 189.17 29.0947ZM197.7 25.9428V31H195.357V22.2656H197.569L197.607 24.4461H197.466C197.695 23.7176 198.043 23.1538 198.51 22.7548C198.977 22.3558 199.579 22.1562 200.316 22.1562C200.922 22.1562 201.449 22.2879 201.899 22.5512C202.349 22.8145 202.698 23.1917 202.947 23.6829C203.196 24.1741 203.32 24.7614 203.32 25.4447V31H200.977V25.853C200.977 25.3105 200.837 24.885 200.558 24.5765C200.278 24.268 199.891 24.1138 199.397 24.1138C199.067 24.1138 198.775 24.186 198.519 24.3303C198.263 24.4746 198.062 24.6826 197.917 24.9542C197.772 25.2258 197.7 25.5553 197.7 25.9428ZM211.548 19.3594V31H209.161V19.3594H211.548ZM215.942 25.9428V31H213.599V22.2656H215.811L215.849 24.4461H215.708C215.937 23.7176 216.285 23.1538 216.752 22.7548C217.219 22.3558 217.821 22.1562 218.559 22.1562C219.164 22.1562 219.692 22.2879 220.141 22.5512C220.591 22.8145 220.94 23.1917 221.189 23.6829C221.438 24.1741 221.562 24.7614 221.562 25.4447V31H219.22V25.853C219.22 25.3105 219.08 24.885 218.8 24.5765C218.52 24.268 218.133 24.1138 217.639 24.1138C217.309 24.1138 217.017 24.186 216.761 24.3303C216.505 24.4746 216.304 24.6826 216.159 24.9542C216.015 25.2258 215.942 25.5553 215.942 25.9428Z" fill="white"/>
<defs>
<filter id="filter0_dd_198_1219" x="0" y="0" width="392" height="58" filterUnits="userSpaceOnUse" color-interpolation-filters="sRGB">
<feFlood flood-opacity="0" result="BackgroundImageFix"/>
<feColorMatrix in="SourceAlpha" type="matrix" values="0 0 0 0 0 0 0 0 0 0 0 0 0 0 0 0 0 0 127 0" result="hardAlpha"/>
<feMorphology radius="2" operator="erode" in="SourceAlpha" result="effect1_dropShadow_198_1219"/>
<feOffset dy="2"/>
<feGaussianBlur stdDeviation="2"/>
<feComposite in2="hardAlpha" operator="out"/>
<feColorMatrix type="matrix" values="0 0 0 0 0 0 0 0 0 0 0 0 0 0 0 0 0 0 0.1 0"/>
<feBlend mode="normal" in2="BackgroundImageFix" result="effect1_dropShadow_198_1219"/>
<feColorMatrix in="SourceAlpha" type="matrix" values="0 0 0 0 0 0 0 0 0 0 0 0 0 0 0 0 0 0 127 0" result="hardAlpha"/>
<feMorphology radius="1" operator="erode" in="SourceAlpha" result="effect2_dropShadow_198_1219"/>
<feOffset dy="4"/>
<feGaussianBlur stdDeviation="3"/>
<feComposite in2="hardAlpha" operator="out"/>
<feColorMatrix type="matrix" values="0 0 0 0 0 0 0 0 0 0 0 0 0 0 0 0 0 0 0.1 0"/>
<feBlend mode="normal" in2="effect1_dropShadow_198_1219" result="effect2_dropShadow_198_1219"/>
<feBlend mode="normal" in="SourceGraphic" in2="effect2_dropShadow_198_1219" result="shape"/>
</filter>
</defs>
</svg>
