<svg width="382" height="50" viewBox="0 0 382 50" fill="none" xmlns="http://www.w3.org/2000/svg">
<rect x="0.5" y="0.5" width="381" height="49" rx="7.5" stroke="#E2E8F0"/>
<path d="M132.325 25.2084C132.325 24.5584 132.267 23.9334 132.159 23.3334H123.525V26.8834H128.459C128.242 28.025 127.592 28.9917 126.617 29.6417V31.95H129.592C131.325 30.35 132.325 28 132.325 25.2084Z" fill="#4285F4"/>
<path d="M123.525 34.1667C126 34.1667 128.075 33.35 129.592 31.95L126.617 29.6417C125.8 30.1917 124.758 30.525 123.525 30.525C121.142 30.525 119.117 28.9167 118.392 26.75H115.342V29.1167C116.85 32.1083 119.942 34.1667 123.525 34.1667Z" fill="#34A853"/>
<path d="M118.392 26.7417C118.208 26.1917 118.1 25.6084 118.1 25.0001C118.1 24.3917 118.208 23.8084 118.392 23.2584V20.8917H115.342C114.717 22.1251 114.358 23.5167 114.358 25.0001C114.358 26.4834 114.717 27.8751 115.342 29.1084L117.717 27.2584L118.392 26.7417Z" fill="#FBBC05"/>
<path d="M123.525 19.4834C124.875 19.4834 126.075 19.95 127.033 20.85L129.658 18.225C128.067 16.7417 126 15.8334 123.525 15.8334C119.942 15.8334 116.85 17.8917 115.342 20.8917L118.392 23.2584C119.117 21.0917 121.142 19.4834 128.392 19.4834H123.525Z" fill="#EA4335"/>
<path d="M151.707 31.1562C150.654 31.1562 149.73 30.9143 148.935 30.4304C148.14 29.9465 147.52 29.2582 147.075 28.3654C146.63 27.4726 146.408 26.4143 146.408 25.1903C146.408 23.9475 146.633 22.8795 147.084 21.9862C147.535 21.093 148.154 20.4059 148.941 19.9248C149.728 19.4437 150.623 19.2031 151.628 19.2031C152.255 19.2031 152.841 19.2954 153.385 19.4801C153.93 19.6647 154.416 19.9282 154.844 20.2705C155.273 20.6128 155.626 21.0189 155.905 21.4887C156.184 21.9586 156.371 22.4767 156.468 23.043H154.639C154.532 22.6998 154.388 22.3925 154.206 22.1209C154.025 21.8494 153.808 21.6164 153.555 21.4221C153.302 21.2278 153.016 21.0798 152.697 20.9781C152.378 20.8764 152.028 20.8256 151.645 20.8256C150.991 20.8256 150.402 20.9925 149.877 21.3262C149.353 21.66 148.938 22.1508 148.634 22.7987C148.33 23.4465 148.178 24.2409 148.178 25.1819C148.178 26.1161 148.33 26.9066 148.635 27.5533C148.94 28.2 149.359 28.6917 149.89 29.0285C150.422 29.3653 151.029 29.5338 151.713 29.5338C152.337 29.5338 152.883 29.4069 153.351 29.1531C153.819 28.8993 154.181 28.5388 154.438 28.0717C154.695 27.6046 154.824 27.0535 154.824 26.4184L155.287 26.5002H151.971V25.0317H156.564V26.3656C156.564 27.347 156.355 28.1958 155.937 28.9121C155.519 29.6284 154.945 30.1815 154.216 30.5714C153.486 30.9613 152.65 31.1562 151.707 31.1562ZM162.317 31.1819C161.497 31.1819 160.782 30.9941 160.171 30.6187C159.56 30.2432 159.086 29.7172 158.748 29.0405C158.411 28.3639 158.242 27.5777 158.242 26.6819C158.242 25.7732 158.411 24.9795 158.748 24.3008C159.086 23.622 159.56 23.0949 160.171 22.7195C160.782 22.344 161.497 22.1562 162.317 22.1562C163.141 22.1562 163.859 22.344 164.471 22.7195C165.083 23.0949 165.558 23.622 165.896 24.3008C166.233 24.9795 166.402 25.7732 166.402 26.6819C166.402 27.5777 166.233 28.3639 165.896 29.0405C165.558 29.7172 165.083 30.2432 164.471 30.6187C163.859 30.9941 163.141 31.1819 162.317 31.1819ZM162.317 29.7286C162.848 29.7286 163.288 29.5893 163.635 29.3106C163.981 29.032 164.239 28.6616 164.407 28.1994C164.576 27.7372 164.66 27.2304 164.66 26.6791C164.66 26.1225 164.576 25.6117 164.407 25.1466C164.239 24.6816 163.981 24.3091 163.635 24.0293C163.288 23.7494 162.848 23.6095 162.317 23.6095C161.789 23.6095 161.354 23.7494 161.01 24.0293C160.667 24.3091 160.412 24.6805 160.243 25.1434C160.075 25.6064 159.991 26.1182 159.991 26.6791C159.991 27.2304 160.075 27.7372 160.243 28.1994C160.412 28.6616 160.667 29.032 161.01 29.3106C161.354 29.5893 161.789 29.7286 162.317 29.7286ZM171.981 31.1819C171.161 31.1819 170.446 30.9941 169.835 30.6187C169.224 30.2432 168.75 29.7172 168.413 29.0405C168.075 28.3639 167.906 27.5777 167.906 26.6819C167.906 25.7732 168.075 24.9795 168.413 24.3008C168.75 23.622 169.224 23.0949 169.835 22.7195C170.446 22.344 171.161 22.1562 171.981 22.1562C172.805 22.1562 173.523 22.344 174.135 22.7195C174.747 23.0949 175.222 23.622 175.56 24.3008C175.897 24.9795 176.066 25.7732 176.066 26.6819C176.066 27.5777 175.897 28.3639 175.56 29.0405C175.222 29.7172 174.747 30.2432 174.135 30.6187C173.523 30.9941 172.805 31.1819 171.981 31.1819ZM171.981 29.7286C172.513 29.7286 172.952 29.5893 173.299 29.3106C173.646 29.032 173.903 28.6616 174.071 28.1994C174.24 27.7372 174.324 27.2304 174.324 26.6791C174.324 26.1225 174.24 25.6117 174.071 25.1466C173.903 24.6816 173.646 24.3091 173.299 24.0293C172.952 23.7494 172.513 23.6095 171.981 23.6095C171.453 23.6095 171.018 23.7494 170.674 24.0293C170.331 24.3091 170.076 24.6805 169.907 25.1434C169.739 25.6064 169.655 26.1182 169.655 26.6791C169.655 27.2304 169.739 27.7372 169.907 28.1994C170.076 28.6616 170.331 29.032 170.674 29.3106C171.018 29.5893 171.453 29.7286 171.981 29.7286ZM181.625 34.4531C180.952 34.4531 180.369 34.3678 179.874 34.1972C179.38 34.0266 178.972 33.7972 178.651 33.509C178.329 33.2208 178.086 32.9015 177.922 32.5509L179.354 31.8756C179.462 32.0404 179.603 32.2162 179.777 32.4029C179.951 32.5896 180.186 32.7471 180.481 32.8753C180.776 33.0035 181.156 33.0677 181.623 33.0677C182.287 33.0677 182.826 32.9108 183.24 32.5972C183.655 32.2835 183.862 31.7908 183.862 31.1189V29.4167H183.712C183.612 29.6059 183.468 29.8132 183.283 30.0386C183.097 30.264 182.838 30.4581 182.508 30.6209C182.177 30.7836 181.745 30.865 181.213 30.865C180.529 30.865 179.912 30.7034 179.361 30.3802C178.81 30.0569 178.374 29.5785 178.053 28.945C177.731 28.3115 177.57 27.5305 177.57 26.6022C177.57 25.673 177.73 24.8769 178.05 24.2138C178.37 23.5506 178.807 23.0419 179.36 22.6877C179.913 22.3334 180.538 22.1562 181.236 22.1562C181.775 22.1562 182.211 22.2454 182.546 22.4237C182.88 22.6021 183.143 22.812 183.333 23.0534C183.523 23.2949 183.669 23.5064 183.771 23.688H183.891V22.2656H185.572V31.1267C185.572 31.8889 185.399 32.516 185.052 33.008C184.706 33.5001 184.235 33.8639 183.639 34.0996C183.043 34.3353 182.372 34.4531 181.625 34.4531ZM181.613 29.4378C182.101 29.4378 182.513 29.3242 182.849 29.097C183.185 28.8698 183.44 28.5422 183.614 28.1141C183.788 27.6861 183.875 27.1735 183.875 26.5766C183.875 25.9905 183.789 25.4764 183.617 25.0341C183.445 24.5918 183.192 24.2456 182.856 23.9957C182.52 23.7457 182.105 23.6208 181.613 23.6208C181.109 23.6208 180.687 23.7522 180.347 24.0149C180.007 24.2777 179.752 24.6313 179.581 25.0757C179.41 25.5201 179.325 26.0204 179.325 26.5766C179.325 27.1446 179.411 27.6437 179.584 28.0739C179.757 28.5041 180.014 28.839 180.353 29.0785C180.693 29.3181 181.113 29.4378 181.613 29.4378ZM189.605 19.3594V31H187.886V19.3594H189.605ZM195.682 31.1819C194.823 31.1819 194.081 30.996 193.458 30.6243C192.835 30.2526 192.355 29.7308 192.019 29.0589C191.683 28.387 191.516 27.599 191.516 26.6947C191.516 25.7979 191.681 25.0091 192.01 24.3282C192.34 23.6473 192.807 23.1151 193.411 22.7316C194.015 22.348 194.722 22.1562 195.534 22.1562C196.033 22.1562 196.515 22.2378 196.981 22.4008C197.446 22.5638 197.864 22.8201 198.233 23.1697C198.603 23.5193 198.896 23.9722 199.112 24.5286C199.328 25.0849 199.436 25.7569 199.436 26.5445V27.1544H192.471V25.8713H198.55L197.747 26.2947C197.747 25.7611 197.664 25.29 197.498 24.8812C197.332 24.4725 197.085 24.1531 196.759 23.923C196.432 23.6929 196.025 23.5778 195.539 23.5778C195.054 23.5778 194.639 23.695 194.295 23.9294C193.951 24.1637 193.688 24.4725 193.507 24.8556C193.326 25.2387 193.236 25.6565 193.236 26.1089V26.9809C193.236 27.5799 193.338 28.0868 193.544 28.5017C193.75 28.9166 194.038 29.2301 194.41 29.4422C194.781 29.6543 195.211 29.7603 195.7 29.7603C196.02 29.7603 196.312 29.7144 196.574 29.6224C196.836 29.5305 197.061 29.3922 197.25 29.2077C197.439 29.0231 197.584 28.7945 197.685 28.522L199.298 28.9027C199.16 29.3552 198.926 29.7525 198.595 30.0948C198.263 30.437 197.851 30.7038 197.359 30.895C196.866 31.0863 196.308 31.1819 195.682 31.1819ZM204.824 31L208.969 19.3594H211.155L215.37 31H213.444L211.177 24.524C211 23.9976 210.807 23.3779 210.597 22.6648C210.386 21.9518 210.143 21.0958 209.867 20.0969H210.227C209.957 21.1044 209.717 21.9689 209.508 22.6905C209.299 23.412 209.114 24.0232 208.952 24.524L206.754 31H204.824ZM207.07 27.9328V26.4447H213.124V27.9328H207.07ZM220.472 31.1819C219.652 31.1819 218.937 30.9941 218.327 30.6187C217.716 30.2432 217.242 29.7172 216.905 29.0405C216.567 28.3639 216.398 27.5777 216.398 26.6819C216.398 25.7732 216.567 24.9795 216.905 24.3008C217.242 23.622 217.716 23.0949 218.327 22.7195C218.937 22.344 219.652 22.1562 220.472 22.1562C220.927 22.1562 221.352 22.2152 221.747 22.333C222.143 22.4508 222.5 22.6201 222.82 22.8408C223.139 23.0615 223.41 23.3315 223.632 23.6506C223.854 23.9698 224.019 24.3307 224.126 24.7334L222.499 25.1247C222.441 24.8998 222.353 24.6948 222.233 24.5096C222.114 24.3244 221.969 24.1645 221.799 24.0298C221.628 23.895 221.432 23.7913 221.211 23.7186C220.99 23.6459 220.746 23.6095 220.48 23.6095C219.952 23.6095 219.516 23.7485 219.172 24.0265C218.828 24.3044 218.571 24.6749 218.402 25.1378C218.232 25.6007 218.147 26.1145 218.147 26.6791C218.147 27.2342 218.232 27.7426 218.402 28.2043C218.571 28.666 218.828 29.0355 219.172 29.3127C219.516 29.59 219.952 29.7286 220.48 29.7286C220.75 29.7286 220.998 29.6909 221.224 29.6156C221.449 29.5403 221.65 29.4329 221.825 29.2934C222 29.154 222.147 28.9867 222.267 28.7916C222.386 28.5965 222.474 28.3817 222.531 28.1474L224.152 28.5372C224.049 28.9513 223.885 29.3205 223.661 29.6448C223.436 29.9692 223.164 30.2465 222.843 30.4767C222.522 30.7069 222.161 30.882 221.761 31.002C221.361 31.1219 220.931 31.1819 220.472 31.1819ZM229.706 31.1819C228.887 31.1819 228.171 30.9941 227.561 30.6187C226.951 30.2432 226.477 29.7172 226.139 29.0405C225.802 28.3639 225.633 27.5777 225.633 26.6819C225.633 25.7732 225.802 24.9795 226.139 24.3008C226.477 23.622 226.951 23.0949 227.561 22.7195C228.171 22.344 228.887 22.1562 229.706 22.1562C230.161 22.1562 230.586 22.2152 230.982 22.333C231.377 22.4508 231.735 22.6201 232.054 22.8408C232.373 23.0615 232.644 23.3315 232.866 23.6506C233.088 23.9698 233.253 24.3307 233.361 24.7334L231.734 25.1247C231.676 24.8998 231.587 24.6948 231.468 24.5096C231.348 24.3244 231.203 24.1645 231.033 24.0298C230.863 23.895 230.667 23.7913 230.445 23.7186C230.224 23.6459 229.981 23.6095 229.715 23.6095C229.187 23.6095 228.751 23.7485 228.407 24.0265C228.063 24.3044 227.806 24.6749 227.636 25.1378C227.466 25.6007 227.382 26.1145 227.382 26.6791C227.382 27.2342 227.466 27.7426 227.636 28.2043C227.806 28.666 228.063 29.0355 228.407 29.3127C228.751 29.59 229.187 29.7286 229.715 29.7286C229.985 29.7286 230.233 29.6909 230.458 29.6156C230.684 29.5403 230.884 29.4329 231.059 29.2934C231.234 29.154 231.382 28.9867 231.501 28.7916C231.621 28.5965 231.709 28.3817 231.766 28.1474L233.386 28.5372C233.283 28.9513 233.119 29.3205 232.895 29.6448C232.671 29.9692 232.398 30.2465 232.077 30.4767C231.756 30.7069 231.396 30.882 230.995 31.002C230.595 31.1219 230.165 31.1819 229.706 31.1819ZM238.942 31.1819C238.122 31.1819 237.407 30.9941 236.796 30.6187C236.185 30.2432 235.711 29.7172 235.373 29.0405C235.036 28.3639 234.867 27.5777 234.867 26.6819C234.867 25.7732 235.036 24.9795 235.373 24.3008C235.711 23.622 236.185 23.0949 236.796 22.7195C237.407 22.344 238.122 22.1562 238.942 22.1562C239.766 22.1562 240.484 22.344 241.096 22.7195C241.708 23.0949 242.183 23.622 242.521 24.3008C242.858 24.9795 243.027 25.7732 243.027 26.6819C243.027 27.5777 242.858 28.3639 242.521 29.0405C242.183 29.7172 241.708 30.2432 241.096 30.6187C240.484 30.9941 239.766 31.1819 238.942 31.1819ZM238.942 29.7286C239.473 29.7286 239.913 29.5893 240.26 29.3106C240.606 29.032 240.864 28.6616 241.032 28.1994C241.201 27.7372 241.285 27.2304 241.285 26.6791C241.285 26.1225 241.201 25.6117 241.032 25.1466C240.864 24.6816 240.606 24.3091 240.26 24.0293C239.913 23.7494 239.473 23.6095 238.942 23.6095C238.414 23.6095 237.979 23.7494 237.635 24.0293C237.292 24.3091 237.037 24.6805 236.868 25.1434C236.7 25.6064 236.616 26.1182 236.616 26.6791C236.616 27.2304 236.7 27.7372 236.868 28.1994C237.037 28.6616 237.292 29.032 237.635 29.3106C237.979 29.5893 238.414 29.7286 238.942 29.7286ZM247.91 31.1094C247.317 31.1094 246.796 30.9848 246.348 30.7355C245.901 30.4863 245.553 30.1165 245.305 29.6259C245.057 29.1354 244.933 28.5319 244.933 27.8153V22.2656H246.652V27.6011C246.652 28.2298 246.817 28.7224 247.146 29.0787C247.476 29.435 247.927 29.6131 248.498 29.6131C248.886 29.6131 249.233 29.5283 249.538 29.3587C249.843 29.189 250.084 28.9413 250.26 28.6156C250.437 28.2898 250.526 27.8982 250.526 27.4409V22.2656H252.25V31H250.606L250.594 28.8617H250.765C250.507 29.6513 250.134 30.2233 249.646 30.5777C249.158 30.9322 248.579 31.1094 247.91 31.1094ZM256.277 25.8247V31H254.558V22.2656H256.197L256.214 24.4039H256.037C256.291 23.6229 256.659 23.053 257.143 22.6943C257.627 22.3356 258.212 22.1562 258.899 22.1562C259.493 22.1562 260.013 22.2809 260.458 22.5301C260.903 22.7793 261.249 23.1481 261.497 23.6365C261.745 24.1249 261.869 24.7295 261.869 25.4503V31H260.151V25.6645C260.151 25.0358 259.987 24.5432 259.659 24.1869C259.331 23.8306 258.882 23.6525 258.311 23.6525C257.924 23.6525 257.576 23.7373 257.268 23.9069C256.961 24.0766 256.719 24.323 256.542 24.6462C256.365 24.9693 256.277 25.3622 256.277 25.8247ZM267.922 22.2656V23.6628H263.184V22.2656H267.922ZM264.46 20.1875H266.178V28.6373C266.178 28.9905 266.252 29.2489 266.399 29.4127C266.546 29.5764 266.79 29.6583 267.131 29.6583C267.22 29.6583 267.338 29.6476 267.483 29.6263C267.629 29.605 267.754 29.584 267.858 29.5631L268.163 30.9405C267.978 31.001 267.782 31.045 267.573 31.0724C267.364 31.0999 267.16 31.1136 266.96 31.1136C266.164 31.1136 265.549 30.9099 265.113 30.5026C264.678 30.0952 264.46 29.5207 264.46 28.7791V20.1875Z" fill="#334155"/>
</svg>
