<svg width="438" height="80" viewBox="0 0 438 80" fill="none" xmlns="http://www.w3.org/2000/svg">
<rect x="12" y="2" width="414" height="56" rx="8" fill="#524E8D"/>
<g filter="url(#filter0_dd_205_1199)">
<rect x="12" y="2" width="414" height="56" rx="8" fill="white" fill-opacity="0.01" shape-rendering="crispEdges"/>
</g>
<path d="M193.252 27.674C193.201 27.1584 192.982 26.7578 192.594 26.4723C192.206 26.1868 191.68 26.044 191.015 26.044C190.563 26.044 190.182 26.108 189.871 26.2358C189.56 26.3594 189.321 26.532 189.155 26.7536C188.993 26.9751 188.912 27.2266 188.912 27.5078C188.904 27.7422 188.953 27.9467 189.059 28.1214C189.17 28.2962 189.321 28.4474 189.513 28.5753C189.705 28.6989 189.926 28.8075 190.178 28.9013C190.429 28.9908 190.698 29.0675 190.983 29.1314L192.159 29.4126C192.73 29.5405 193.254 29.7109 193.732 29.924C194.209 30.1371 194.622 30.3991 194.972 30.7102C195.321 31.0213 195.592 31.3878 195.784 31.8097C195.98 32.2315 196.08 32.7152 196.084 33.2607C196.08 34.0618 195.875 34.7564 195.47 35.3445C195.07 35.9283 194.49 36.3821 193.732 36.706C192.977 37.0256 192.068 37.1854 191.002 37.1854C189.945 37.1854 189.025 37.0234 188.241 36.6996C187.461 36.3757 186.852 35.8963 186.413 35.2614C185.978 34.6222 185.75 33.8317 185.729 32.8899H188.407C188.437 33.3288 188.563 33.6953 188.784 33.9893C189.01 34.2791 189.311 34.4986 189.686 34.6477C190.065 34.7926 190.493 34.8651 190.97 34.8651C191.439 34.8651 191.846 34.7969 192.191 34.6605C192.541 34.5241 192.811 34.3345 193.003 34.0916C193.195 33.8487 193.291 33.5696 193.291 33.2543C193.291 32.9602 193.203 32.7131 193.029 32.5128C192.858 32.3125 192.607 32.142 192.274 32.0014C191.946 31.8608 191.543 31.733 191.066 31.6179L189.641 31.2599C188.537 30.9915 187.666 30.5717 187.026 30.0007C186.387 29.4297 186.07 28.6605 186.074 27.6932C186.07 26.9006 186.281 26.2081 186.707 25.6158C187.137 25.0234 187.727 24.5611 188.477 24.2287C189.227 23.8963 190.08 23.7301 191.034 23.7301C192.006 23.7301 192.854 23.8963 193.578 24.2287C194.307 24.5611 194.874 25.0234 195.279 25.6158C195.683 26.2081 195.892 26.8942 195.905 27.674H193.252ZM197.895 37V27.1818H200.618V37H197.895ZM199.262 25.9162C198.858 25.9162 198.51 25.782 198.22 25.5135C197.935 25.2408 197.792 24.9148 197.792 24.5355C197.792 24.1605 197.935 23.8388 198.22 23.5703C198.51 23.2976 198.858 23.1612 199.262 23.1612C199.667 23.1612 200.012 23.2976 200.298 23.5703C200.588 23.8388 200.733 24.1605 200.733 24.5355C200.733 24.9148 200.588 25.2408 200.298 25.5135C200.012 25.782 199.667 25.9162 199.262 25.9162ZM207.222 40.8864C206.34 40.8864 205.584 40.7649 204.953 40.522C204.326 40.2834 203.828 39.9574 203.457 39.544C203.086 39.1307 202.846 38.6662 202.735 38.1506L205.253 37.8118C205.33 38.0078 205.451 38.1911 205.618 38.3615C205.784 38.532 206.003 38.6683 206.276 38.7706C206.553 38.8771 206.89 38.9304 207.286 38.9304C207.878 38.9304 208.366 38.7855 208.75 38.4957C209.138 38.2102 209.331 37.7308 209.331 37.0575V35.2614H209.216C209.097 35.5341 208.918 35.7919 208.679 36.0348C208.441 36.2777 208.134 36.4759 207.759 36.6293C207.384 36.7827 206.937 36.8594 206.417 36.8594C205.679 36.8594 205.008 36.6889 204.403 36.348C203.802 36.0028 203.323 35.4766 202.965 34.7692C202.611 34.0575 202.434 33.1584 202.434 32.0717C202.434 30.9595 202.616 30.0305 202.978 29.2848C203.34 28.5391 203.822 27.9808 204.422 27.6101C205.027 27.2393 205.69 27.054 206.41 27.054C206.96 27.054 207.42 27.1477 207.791 27.3352C208.162 27.5185 208.46 27.7486 208.686 28.0256C208.916 28.2983 209.093 28.5668 209.216 28.831H209.319V27.1818H212.023V37.0959C212.023 37.9311 211.818 38.63 211.409 39.1925C211 39.755 210.433 40.1768 209.709 40.4581C208.988 40.7436 208.16 40.8864 207.222 40.8864ZM207.28 34.8139C207.719 34.8139 208.089 34.7053 208.392 34.4879C208.699 34.2663 208.933 33.951 209.095 33.5419C209.261 33.1286 209.344 32.6342 209.344 32.0589C209.344 31.4837 209.263 30.9851 209.101 30.5632C208.939 30.1371 208.705 29.8068 208.398 29.5724C208.091 29.3381 207.719 29.2209 207.28 29.2209C206.832 29.2209 206.455 29.3423 206.148 29.5852C205.841 29.8239 205.609 30.1562 205.451 30.5824C205.294 31.0085 205.215 31.5007 205.215 32.0589C205.215 32.6257 205.294 33.1158 205.451 33.5291C205.613 33.9382 205.846 34.2557 206.148 34.4815C206.455 34.7031 206.832 34.8139 207.28 34.8139ZM216.912 31.3239V37H214.189V27.1818H216.785V28.9141H216.9C217.117 28.343 217.481 27.8913 217.993 27.5589C218.504 27.2223 219.124 27.054 219.853 27.054C220.535 27.054 221.129 27.2031 221.636 27.5014C222.143 27.7997 222.537 28.2259 222.819 28.7798C223.1 29.3295 223.241 29.9858 223.241 30.7486V37H220.518V31.2344C220.522 30.6335 220.368 30.1648 220.057 29.8281C219.746 29.4872 219.318 29.3168 218.773 29.3168C218.406 29.3168 218.082 29.3956 217.801 29.5533C217.524 29.7109 217.307 29.9411 217.149 30.2436C216.996 30.5419 216.917 30.902 216.912 31.3239ZM237.69 23.9091H240.458V32.4105C240.458 33.3651 240.23 34.2003 239.774 34.9162C239.322 35.6321 238.689 36.1903 237.875 36.5909C237.061 36.9872 236.113 37.1854 235.031 37.1854C233.944 37.1854 232.994 36.9872 232.18 36.5909C231.366 36.1903 230.733 35.6321 230.281 34.9162C229.83 34.2003 229.604 33.3651 229.604 32.4105V23.9091H232.372V32.174C232.372 32.6726 232.48 33.1158 232.698 33.5036C232.919 33.8913 233.23 34.196 233.631 34.4176C234.031 34.6392 234.498 34.75 235.031 34.75C235.568 34.75 236.034 34.6392 236.431 34.4176C236.831 34.196 237.14 33.8913 237.357 33.5036C237.579 33.1158 237.69 32.6726 237.69 32.174V23.9091ZM242.684 40.6818V27.1818H245.368V28.831H245.49C245.609 28.5668 245.782 28.2983 246.007 28.0256C246.238 27.7486 246.536 27.5185 246.902 27.3352C247.273 27.1477 247.733 27.054 248.283 27.054C248.999 27.054 249.659 27.2415 250.265 27.6165C250.87 27.9872 251.353 28.5476 251.716 29.2976C252.078 30.0433 252.259 30.9787 252.259 32.1037C252.259 33.1989 252.082 34.1236 251.728 34.8778C251.379 35.6278 250.902 36.1967 250.296 36.5845C249.696 36.968 249.022 37.1598 248.277 37.1598C247.748 37.1598 247.299 37.0724 246.928 36.8977C246.561 36.723 246.261 36.5036 246.027 36.2393C245.792 35.9709 245.613 35.7003 245.49 35.4276H245.407V40.6818H242.684ZM245.349 32.0909C245.349 32.6747 245.43 33.1839 245.592 33.6186C245.754 34.0533 245.988 34.392 246.295 34.6349C246.602 34.8736 246.975 34.9929 247.414 34.9929C247.857 34.9929 248.232 34.8714 248.539 34.6286C248.845 34.3814 249.078 34.0405 249.235 33.6058C249.397 33.1669 249.478 32.6619 249.478 32.0909C249.478 31.5241 249.399 31.0256 249.242 30.5952C249.084 30.1648 248.852 29.8281 248.545 29.5852C248.238 29.3423 247.861 29.2209 247.414 29.2209C246.97 29.2209 246.595 29.3381 246.289 29.5724C245.986 29.8068 245.754 30.1392 245.592 30.5696C245.43 31 245.349 31.5071 245.349 32.0909Z" fill="white"/>
<defs>
<filter id="filter0_dd_205_1199" x="0" y="0" width="438" height="80" filterUnits="userSpaceOnUse" color-interpolation-filters="sRGB">
<feFlood flood-opacity="0" result="BackgroundImageFix"/>
<feColorMatrix in="SourceAlpha" type="matrix" values="0 0 0 0 0 0 0 0 0 0 0 0 0 0 0 0 0 0 127 0" result="hardAlpha"/>
<feMorphology radius="4" operator="erode" in="SourceAlpha" result="effect1_dropShadow_205_1199"/>
<feOffset dy="4"/>
<feGaussianBlur stdDeviation="3"/>
<feComposite in2="hardAlpha" operator="out"/>
<feColorMatrix type="matrix" values="0 0 0 0 0.321569 0 0 0 0 0.305882 0 0 0 0 0.552941 0 0 0 0.2 0"/>
<feBlend mode="normal" in2="BackgroundImageFix" result="effect1_dropShadow_205_1199"/>
<feColorMatrix in="SourceAlpha" type="matrix" values="0 0 0 0 0 0 0 0 0 0 0 0 0 0 0 0 0 0 127 0" result="hardAlpha"/>
<feMorphology radius="3" operator="erode" in="SourceAlpha" result="effect2_dropShadow_205_1199"/>
<feOffset dy="10"/>
<feGaussianBlur stdDeviation="7.5"/>
<feComposite in2="hardAlpha" operator="out"/>
<feColorMatrix type="matrix" values="0 0 0 0 0.321569 0 0 0 0 0.305882 0 0 0 0 0.552941 0 0 0 0.2 0"/>
<feBlend mode="normal" in2="effect1_dropShadow_205_1199" result="effect2_dropShadow_205_1199"/>
<feBlend mode="normal" in="SourceGraphic" in2="effect2_dropShadow_205_1199" result="shape"/>
</filter>
</defs>
</svg>
