<svg width="119" height="16" viewBox="0 0 119 16" fill="none" xmlns="http://www.w3.org/2000/svg">
<path d="M5.80417 11.5C6.00833 11.5 6.1809 11.4295 6.32188 11.2885C6.46285 11.1475 6.53333 10.975 6.53333 10.7708C6.53333 10.5666 6.46285 10.3941 6.32188 10.2531C6.1809 10.1121 6.00833 10.0416 5.80417 10.0416C5.6 10.0416 5.42743 10.1121 5.28646 10.2531C5.14549 10.3941 5.075 10.5666 5.075 10.7708C5.075 10.975 5.14549 11.1475 5.28646 11.2885C5.42743 11.4295 5.6 11.5 5.80417 11.5ZM5.27917 9.25413H6.35833C6.35833 8.93329 6.39479 8.68052 6.46771 8.49579C6.54062 8.31107 6.74722 8.05829 7.0875 7.73746C7.34028 7.48468 7.53958 7.24406 7.68542 7.01558C7.83125 6.78711 7.90417 6.51246 7.90417 6.19163C7.90417 5.64718 7.70486 5.22913 7.30625 4.93746C6.90764 4.64579 6.43611 4.49996 5.89167 4.49996C5.3375 4.49996 4.88785 4.64579 4.54271 4.93746C4.19757 5.22913 3.95694 5.57913 3.82083 5.98746L4.78333 6.36663C4.83194 6.19163 4.94132 6.00204 5.11146 5.79788C5.2816 5.59371 5.54167 5.49163 5.89167 5.49163C6.20278 5.49163 6.43611 5.5767 6.59167 5.74683C6.74722 5.91697 6.825 6.10413 6.825 6.30829C6.825 6.50274 6.76667 6.68503 6.65 6.85517C6.53333 7.02531 6.3875 7.18329 6.2125 7.32913C5.78472 7.70829 5.52222 7.9951 5.425 8.18954C5.32778 8.38399 5.27917 8.73885 5.27917 9.25413ZM5.83333 13.8333C5.02639 13.8333 4.26806 13.6802 3.55833 13.3739C2.84861 13.0677 2.23125 12.652 1.70625 12.127C1.18125 11.602 0.765625 10.9847 0.459375 10.275C0.153125 9.56524 0 8.8069 0 7.99996C0 7.19302 0.153125 6.43468 0.459375 5.72496C0.765625 5.01524 1.18125 4.39788 1.70625 3.87288C2.23125 3.34788 2.84861 2.93225 3.55833 2.626C4.26806 2.31975 5.02639 2.16663 5.83333 2.16663C6.64028 2.16663 7.39861 2.31975 8.10833 2.626C8.81806 2.93225 9.43542 3.34788 9.96042 3.87288C10.4854 4.39788 10.901 5.01524 11.2073 5.72496C11.5135 6.43468 11.6667 7.19302 11.6667 7.99996C11.6667 8.8069 11.5135 9.56524 11.2073 10.275C10.901 10.9847 10.4854 11.602 9.96042 12.127C9.43542 12.652 8.81806 13.0677 8.10833 13.3739C7.39861 13.6802 6.64028 13.8333 5.83333 13.8333ZM5.83333 12.6666C7.13611 12.6666 8.23958 12.2145 9.14375 11.3104C10.0479 10.4062 10.5 9.30274 10.5 7.99996C10.5 6.69718 10.0479 5.59371 9.14375 4.68954C8.23958 3.78538 7.13611 3.33329 5.83333 3.33329C4.53056 3.33329 3.42708 3.78538 2.52292 4.68954C1.61875 5.59371 1.16667 6.69718 1.16667 7.99996C1.16667 9.30274 1.61875 10.4062 2.52292 11.3104C3.42708 12.2145 4.53056 12.6666 5.83333 12.6666Z" fill="#64748B"/>
<path d="M16.2412 4.25391V3.26953H22.8389V4.25391H20.1025V12H18.9893V4.25391H16.2412ZM26.1553 12.1406C25.5225 12.1406 24.9766 12 24.5176 11.7188C24.0586 11.4375 23.7051 11.0449 23.457 10.541C23.209 10.0371 23.085 9.44922 23.085 8.77734C23.085 8.10547 23.2061 7.51367 23.4482 7.00195C23.6904 6.49023 24.0332 6.08984 24.4766 5.80078C24.9199 5.51172 25.4385 5.36719 26.0322 5.36719C26.3799 5.36719 26.7227 5.4248 27.0605 5.54004C27.3984 5.65527 27.7051 5.84082 27.9805 6.09668C28.2559 6.35254 28.4756 6.68945 28.6396 7.10742C28.8037 7.52539 28.8857 8.03711 28.8857 8.64258V9.08203H23.7998V8.19141H28.3174L27.8252 8.51953C27.8252 8.08984 27.7578 7.70801 27.623 7.37402C27.4883 7.04004 27.2881 6.77832 27.0225 6.58887C26.7568 6.39941 26.4268 6.30469 26.0322 6.30469C25.6377 6.30469 25.2998 6.40137 25.0186 6.59473C24.7373 6.78809 24.5225 7.04004 24.374 7.35059C24.2256 7.66113 24.1514 7.99414 24.1514 8.34961V8.94141C24.1514 9.42578 24.2354 9.83691 24.4033 10.1748C24.5713 10.5127 24.8066 10.7686 25.1094 10.9424C25.4121 11.1162 25.7627 11.2031 26.1611 11.2031C26.4189 11.2031 26.6533 11.166 26.8643 11.0918C27.0752 11.0176 27.2568 10.9053 27.4092 10.7549C27.5615 10.6045 27.6787 10.418 27.7607 10.1953L28.7803 10.4766C28.6787 10.8047 28.5068 11.0938 28.2646 11.3438C28.0225 11.5938 27.7227 11.7891 27.3652 11.9297C27.0078 12.0703 26.6045 12.1406 26.1553 12.1406ZM33.0635 12.1406C32.4697 12.1406 31.9492 12 31.502 11.7188C31.0547 11.4375 30.7061 11.043 30.4561 10.5352C30.2061 10.0273 30.0811 9.4375 30.0811 8.76562C30.0811 8.08203 30.2061 7.48535 30.4561 6.97559C30.7061 6.46582 31.0547 6.07031 31.502 5.78906C31.9492 5.50781 32.4697 5.36719 33.0635 5.36719C33.3799 5.36719 33.6787 5.4082 33.96 5.49023C34.2412 5.57227 34.498 5.69043 34.7305 5.84473C34.9629 5.99902 35.1631 6.18848 35.3311 6.41309C35.499 6.6377 35.6279 6.89258 35.7178 7.17773L34.7041 7.46484C34.6572 7.29688 34.585 7.14258 34.4873 7.00195C34.3896 6.86133 34.2715 6.73926 34.1328 6.63574C33.9941 6.53223 33.835 6.45215 33.6553 6.39551C33.4756 6.33887 33.2783 6.31055 33.0635 6.31055C32.626 6.31055 32.2666 6.4248 31.9854 6.65332C31.7041 6.88184 31.4951 7.18164 31.3584 7.55273C31.2217 7.92383 31.1533 8.32812 31.1533 8.76562C31.1533 9.19531 31.2217 9.59473 31.3584 9.96387C31.4951 10.333 31.7041 10.6309 31.9854 10.8574C32.2666 11.084 32.626 11.1973 33.0635 11.1973C33.2822 11.1973 33.4834 11.168 33.667 11.1094C33.8506 11.0508 34.0137 10.9678 34.1562 10.8604C34.2988 10.7529 34.4189 10.625 34.5166 10.4766C34.6143 10.3281 34.6865 10.166 34.7334 9.99023L35.7412 10.2773C35.6553 10.5703 35.5273 10.8311 35.3574 11.0596C35.1875 11.2881 34.9854 11.4834 34.751 11.6455C34.5166 11.8076 34.2568 11.9307 33.9717 12.0146C33.6865 12.0986 33.3838 12.1406 33.0635 12.1406ZM38.3076 8.07422V12H37.2529V3.26953H38.3076V7.03711H38.126C38.3252 6.43164 38.6094 6.00195 38.9785 5.74805C39.3477 5.49414 39.7803 5.36719 40.2764 5.36719C40.7178 5.36719 41.1055 5.45801 41.4395 5.63965C41.7734 5.82129 42.0332 6.09473 42.2188 6.45996C42.4043 6.8252 42.4971 7.28516 42.4971 7.83984V12H41.4365V7.92773C41.4365 7.42383 41.3047 7.0293 41.041 6.74414C40.7773 6.45898 40.417 6.31641 39.96 6.31641C39.6475 6.31641 39.3662 6.38477 39.1162 6.52148C38.8662 6.6582 38.6689 6.85742 38.5244 7.11914C38.3799 7.38086 38.3076 7.69922 38.3076 8.07422ZM45.4033 8.07422V12H44.3486V5.44922H45.3623L45.3682 7.03711H45.2217C45.4209 6.43164 45.7051 6.00195 46.0742 5.74805C46.4434 5.49414 46.876 5.36719 47.3721 5.36719C47.8135 5.36719 48.2002 5.45801 48.5322 5.63965C48.8643 5.82129 49.123 6.09473 49.3086 6.45996C49.4941 6.8252 49.5869 7.28516 49.5869 7.83984V12H48.5322V7.92773C48.5322 7.42383 48.4004 7.0293 48.1367 6.74414C47.873 6.45898 47.5127 6.31641 47.0557 6.31641C46.7432 6.31641 46.4619 6.38477 46.2119 6.52148C45.9619 6.6582 45.7646 6.85742 45.6201 7.11914C45.4756 7.38086 45.4033 7.69922 45.4033 8.07422ZM51.4385 12V5.44922H52.4932V12H51.4385ZM51.9717 4.37695C51.7725 4.37695 51.6006 4.30859 51.4561 4.17188C51.3115 4.03516 51.2393 3.87109 51.2393 3.67969C51.2393 3.48438 51.3115 3.31934 51.4561 3.18457C51.6006 3.0498 51.7725 2.98242 51.9717 2.98242C52.1748 2.98242 52.3486 3.0498 52.4932 3.18457C52.6377 3.31934 52.71 3.48438 52.71 3.67969C52.71 3.87109 52.6377 4.03516 52.4932 4.17188C52.3486 4.30859 52.1748 4.37695 51.9717 4.37695ZM57.0107 12.1406C56.417 12.1406 55.8965 12 55.4492 11.7188C55.002 11.4375 54.6533 11.043 54.4033 10.5352C54.1533 10.0273 54.0283 9.4375 54.0283 8.76562C54.0283 8.08203 54.1533 7.48535 54.4033 6.97559C54.6533 6.46582 55.002 6.07031 55.4492 5.78906C55.8965 5.50781 56.417 5.36719 57.0107 5.36719C57.3271 5.36719 57.626 5.4082 57.9072 5.49023C58.1885 5.57227 58.4453 5.69043 58.6777 5.84473C58.9102 5.99902 59.1104 6.18848 59.2783 6.41309C59.4463 6.6377 59.5752 6.89258 59.665 7.17773L58.6514 7.46484C58.6045 7.29688 58.5322 7.14258 58.4346 7.00195C58.3369 6.86133 58.2188 6.73926 58.0801 6.63574C57.9414 6.53223 57.7822 6.45215 57.6025 6.39551C57.4229 6.33887 57.2256 6.31055 57.0107 6.31055C56.5732 6.31055 56.2139 6.4248 55.9326 6.65332C55.6514 6.88184 55.4424 7.18164 55.3057 7.55273C55.1689 7.92383 55.1006 8.32812 55.1006 8.76562C55.1006 9.19531 55.1689 9.59473 55.3057 9.96387C55.4424 10.333 55.6514 10.6309 55.9326 10.8574C56.2139 11.084 56.5732 11.1973 57.0107 11.1973C57.2295 11.1973 57.4307 11.168 57.6143 11.1094C57.7979 11.0508 57.9609 10.9678 58.1035 10.8604C58.2461 10.7529 58.3662 10.625 58.4639 10.4766C58.5615 10.3281 58.6338 10.166 58.6807 9.99023L59.6885 10.2773C59.6025 10.5703 59.4746 10.8311 59.3047 11.0596C59.1348 11.2881 58.9326 11.4834 58.6982 11.6455C58.4639 11.8076 58.2041 11.9307 57.9189 12.0146C57.6338 12.0986 57.3311 12.1406 57.0107 12.1406ZM63.1514 12.1523C62.7373 12.1523 62.3613 12.0742 62.0234 11.918C61.6855 11.7617 61.417 11.5332 61.2178 11.2324C61.0186 10.9316 60.9189 10.5664 60.9189 10.1367C60.9189 9.76172 60.9932 9.45703 61.1416 9.22266C61.29 8.98828 61.4883 8.80371 61.7363 8.66895C61.9844 8.53418 62.2588 8.43359 62.5596 8.36719C62.8604 8.30078 63.1631 8.24805 63.4678 8.20898C63.8584 8.1582 64.1768 8.11914 64.4229 8.0918C64.6689 8.06445 64.8516 8.01758 64.9707 7.95117C65.0898 7.88477 65.1494 7.77148 65.1494 7.61133V7.57617C65.1494 7.30273 65.0986 7.07129 64.9971 6.88184C64.8955 6.69238 64.7432 6.54688 64.54 6.44531C64.3369 6.34375 64.083 6.29297 63.7783 6.29297C63.4658 6.29297 63.1982 6.3418 62.9756 6.43945C62.7529 6.53711 62.5723 6.65918 62.4336 6.80566C62.2949 6.95215 62.1904 7.10156 62.1201 7.25391L61.1064 6.91992C61.2744 6.52148 61.501 6.20996 61.7861 5.98535C62.0713 5.76074 62.3857 5.60156 62.7295 5.50781C63.0732 5.41406 63.4131 5.36719 63.749 5.36719C63.9678 5.36719 64.2168 5.39355 64.4961 5.44629C64.7754 5.49902 65.0449 5.60352 65.3047 5.75977C65.5645 5.91602 65.7793 6.14746 65.9492 6.4541C66.1191 6.76074 66.2041 7.16992 66.2041 7.68164V12H65.167V11.1094H65.0967C65.0225 11.2617 64.9033 11.4189 64.7393 11.5811C64.5752 11.7432 64.3623 11.8789 64.1006 11.9883C63.8389 12.0977 63.5225 12.1523 63.1514 12.1523ZM63.333 11.2207C63.7236 11.2207 64.0537 11.1445 64.3232 10.9922C64.5928 10.8398 64.7979 10.6416 64.9385 10.3975C65.0791 10.1533 65.1494 9.89844 65.1494 9.63281V8.72461C65.1064 8.77539 65.0127 8.82129 64.8682 8.8623C64.7236 8.90332 64.5586 8.93945 64.373 8.9707C64.1875 9.00195 64.0078 9.02832 63.834 9.0498C63.6602 9.07129 63.5225 9.08789 63.4209 9.09961C63.167 9.13086 62.9297 9.18457 62.709 9.26074C62.4883 9.33691 62.3115 9.44824 62.1787 9.59473C62.0459 9.74121 61.9795 9.93945 61.9795 10.1895C61.9795 10.416 62.0381 10.6055 62.1553 10.7578C62.2725 10.9102 62.4326 11.0254 62.6357 11.1035C62.8389 11.1816 63.0713 11.2207 63.333 11.2207ZM69.1104 3.26953V12H68.0557V3.26953H69.1104ZM77.2607 12.1523C76.6318 12.1523 76.0859 12.0508 75.623 11.8477C75.1602 11.6445 74.7979 11.3604 74.5361 10.9951C74.2744 10.6299 74.126 10.2031 74.0908 9.71484H75.2334C75.2646 10.043 75.376 10.3135 75.5674 10.5264C75.7588 10.7393 76.0039 10.8975 76.3027 11.001C76.6016 11.1045 76.9209 11.1562 77.2607 11.1562C77.6553 11.1562 78.0098 11.0918 78.3242 10.9629C78.6387 10.834 78.8877 10.6523 79.0713 10.418C79.2549 10.1836 79.3467 9.91211 79.3467 9.60352C79.3467 9.32227 79.2676 9.09375 79.1094 8.91797C78.9512 8.74219 78.7412 8.59766 78.4795 8.48438C78.2178 8.37109 77.9307 8.27148 77.6182 8.18555L76.5635 7.88672C75.8604 7.6875 75.3135 7.40234 74.9229 7.03125C74.5322 6.66016 74.3369 6.18555 74.3369 5.60742C74.3369 5.11523 74.4697 4.68457 74.7354 4.31543C75.001 3.94629 75.3604 3.66016 75.8135 3.45703C76.2666 3.25391 76.7744 3.15234 77.3369 3.15234C77.9111 3.15234 78.4189 3.25391 78.8604 3.45703C79.3018 3.66016 79.6504 3.93652 79.9062 4.28613C80.1621 4.63574 80.2979 5.03125 80.3135 5.47266H79.2236C79.1729 5.04688 78.9697 4.71777 78.6143 4.48535C78.2588 4.25293 77.8213 4.13672 77.3018 4.13672C76.9268 4.13672 76.5977 4.19824 76.3145 4.32129C76.0312 4.44434 75.8115 4.6123 75.6553 4.8252C75.499 5.03809 75.4209 5.28125 75.4209 5.55469C75.4209 5.85938 75.5156 6.10449 75.7051 6.29004C75.8945 6.47559 76.1191 6.62012 76.3789 6.72363C76.6387 6.82715 76.874 6.9082 77.085 6.9668L77.958 7.20703C78.1924 7.26953 78.4512 7.35547 78.7344 7.46484C79.0176 7.57422 79.2881 7.71973 79.5459 7.90137C79.8037 8.08301 80.0156 8.31348 80.1816 8.59277C80.3477 8.87207 80.4307 9.21484 80.4307 9.62109C80.4307 10.0977 80.3066 10.5273 80.0586 10.9102C79.8105 11.293 79.4502 11.5957 78.9775 11.8184C78.5049 12.041 77.9326 12.1523 77.2607 12.1523ZM84.2568 12.082C83.8154 12.082 83.4277 11.9912 83.0938 11.8096C82.7598 11.6279 82.5 11.3535 82.3145 10.9863C82.1289 10.6191 82.0361 10.1602 82.0361 9.60938V5.44922H83.0908V9.52148C83.0908 10.0254 83.2236 10.4199 83.4893 10.7051C83.7549 10.9902 84.1162 11.1328 84.5732 11.1328C84.8857 11.1328 85.166 11.0645 85.4141 10.9277C85.6621 10.791 85.8584 10.5908 86.0029 10.3271C86.1475 10.0635 86.2197 9.74609 86.2197 9.375V5.44922H87.2803V12H86.2607V10.4121H86.4014C86.1982 11.0254 85.9102 11.457 85.5371 11.707C85.1641 11.957 84.7373 12.082 84.2568 12.082ZM89.1318 14.4492V5.44922H90.1514V6.49805H90.2686C90.3428 6.38086 90.4463 6.2334 90.5791 6.05566C90.7119 5.87793 90.9033 5.71875 91.1533 5.57812C91.4033 5.4375 91.7412 5.36719 92.167 5.36719C92.7139 5.36719 93.1953 5.50391 93.6113 5.77734C94.0273 6.05078 94.3535 6.44043 94.5898 6.94629C94.8262 7.45215 94.9443 8.05078 94.9443 8.74219C94.9443 9.4375 94.8271 10.0391 94.5928 10.5469C94.3584 11.0547 94.0332 11.4473 93.6172 11.7246C93.2012 12.002 92.7197 12.1406 92.1729 12.1406C91.7588 12.1406 91.4248 12.0693 91.1709 11.9268C90.917 11.7842 90.7217 11.6221 90.585 11.4404C90.4482 11.2588 90.3428 11.1074 90.2686 10.9863H90.1865V14.4492H89.1318ZM92.0146 11.1973C92.4248 11.1973 92.7676 11.0869 93.043 10.8662C93.3184 10.6455 93.5254 10.3486 93.6641 9.97559C93.8027 9.60254 93.8721 9.1875 93.8721 8.73047C93.8721 8.27734 93.8037 7.86816 93.667 7.50293C93.5303 7.1377 93.3242 6.84766 93.0488 6.63281C92.7734 6.41797 92.4287 6.31055 92.0146 6.31055C91.6123 6.31055 91.2744 6.41211 91.001 6.61523C90.7275 6.81836 90.5215 7.10059 90.3828 7.46191C90.2441 7.82324 90.1748 8.24609 90.1748 8.73047C90.1748 9.21484 90.2451 9.64258 90.3857 10.0137C90.5264 10.3848 90.7344 10.6748 91.0098 10.8838C91.2852 11.0928 91.6201 11.1973 92.0146 11.1973ZM96.4795 14.4492V5.44922H97.499V6.49805H97.6162C97.6904 6.38086 97.7939 6.2334 97.9268 6.05566C98.0596 5.87793 98.251 5.71875 98.501 5.57812C98.751 5.4375 99.0889 5.36719 99.5146 5.36719C100.062 5.36719 100.543 5.50391 100.959 5.77734C101.375 6.05078 101.701 6.44043 101.938 6.94629C102.174 7.45215 102.292 8.05078 102.292 8.74219C102.292 9.4375 102.175 10.0391 101.94 10.5469C101.706 11.0547 101.381 11.4473 100.965 11.7246C100.549 12.002 100.067 12.1406 99.5205 12.1406C99.1064 12.1406 98.7725 12.0693 98.5186 11.9268C98.2646 11.7842 98.0693 11.6221 97.9326 11.4404C97.7959 11.2588 97.6904 11.1074 97.6162 10.9863H97.5342V14.4492H96.4795ZM99.3623 11.1973C99.7725 11.1973 100.115 11.0869 100.391 10.8662C100.666 10.6455 100.873 10.3486 101.012 9.97559C101.15 9.60254 101.22 9.1875 101.22 8.73047C101.22 8.27734 101.151 7.86816 101.015 7.50293C100.878 7.1377 100.672 6.84766 100.396 6.63281C100.121 6.41797 99.7764 6.31055 99.3623 6.31055C98.96 6.31055 98.6221 6.41211 98.3486 6.61523C98.0752 6.81836 97.8691 7.10059 97.7305 7.46191C97.5918 7.82324 97.5225 8.24609 97.5225 8.73047C97.5225 9.21484 97.5928 9.64258 97.7334 10.0137C97.874 10.3848 98.082 10.6748 98.3574 10.8838C98.6328 11.0928 98.9678 11.1973 99.3623 11.1973ZM106.493 12.1406C105.899 12.1406 105.379 12 104.932 11.7188C104.484 11.4375 104.136 11.043 103.886 10.5352C103.636 10.0273 103.511 9.4375 103.511 8.76562C103.511 8.08203 103.636 7.48535 103.886 6.97559C104.136 6.46582 104.484 6.07031 104.932 5.78906C105.379 5.50781 105.899 5.36719 106.493 5.36719C107.091 5.36719 107.614 5.50781 108.063 5.78906C108.513 6.07031 108.862 6.46582 109.112 6.97559C109.362 7.48535 109.487 8.08203 109.487 8.76562C109.487 9.4375 109.362 10.0273 109.112 10.5352C108.862 11.043 108.513 11.4375 108.063 11.7188C107.614 12 107.091 12.1406 106.493 12.1406ZM106.493 11.1973C106.935 11.1973 107.298 11.084 107.583 10.8574C107.868 10.6309 108.079 10.333 108.216 9.96387C108.353 9.59473 108.421 9.19531 108.421 8.76562C108.421 8.33203 108.353 7.92871 108.216 7.55566C108.079 7.18262 107.868 6.88184 107.583 6.65332C107.298 6.4248 106.935 6.31055 106.493 6.31055C106.056 6.31055 105.696 6.4248 105.415 6.65332C105.134 6.88184 104.925 7.18164 104.788 7.55273C104.651 7.92383 104.583 8.32812 104.583 8.76562C104.583 9.19531 104.651 9.59473 104.788 9.96387C104.925 10.333 105.134 10.6309 105.415 10.8574C105.696 11.084 106.056 11.1973 106.493 11.1973ZM111.022 12V5.44922H112.042V6.45703H112.112C112.233 6.125 112.449 5.8584 112.76 5.65723C113.07 5.45605 113.421 5.35547 113.812 5.35547C113.89 5.35547 113.982 5.35742 114.09 5.36133C114.197 5.36523 114.282 5.36914 114.345 5.37305V6.43359C114.313 6.42578 114.235 6.41406 114.11 6.39844C113.985 6.38281 113.853 6.375 113.712 6.375C113.399 6.375 113.119 6.44043 112.871 6.57129C112.623 6.70215 112.429 6.88184 112.288 7.11035C112.147 7.33887 112.077 7.60156 112.077 7.89844V12H111.022ZM118.306 5.44922V6.35156H114.919V5.44922H118.306ZM115.903 3.89062H116.958V10.3008C116.958 10.5938 117.018 10.8076 117.137 10.9424C117.256 11.0771 117.454 11.1445 117.731 11.1445C117.798 11.1445 117.883 11.1367 117.986 11.1211C118.09 11.1055 118.185 11.0898 118.271 11.0742L118.487 11.9648C118.378 12.0039 118.254 12.0332 118.115 12.0527C117.977 12.0723 117.839 12.082 117.702 12.082C117.136 12.082 116.694 11.9326 116.378 11.6338C116.062 11.335 115.903 10.918 115.903 10.3828V3.89062Z" fill="#64748B"/>
</svg>
