<svg width="446" height="49" viewBox="0 0 446 49" fill="none" xmlns="http://www.w3.org/2000/svg">
<rect x="0.5" y="0.5" width="445" height="48" rx="7.5" fill="#F8FAFC"/>
<rect x="0.5" y="0.5" width="445" height="48" rx="7.5" stroke="#E2E8F0"/>
<g clip-path="url(#clip0_205_2347)">
<path d="M43.5682 24.75V30H42.2273V21.2727H43.5227V22.6364H43.6364C43.8409 22.1932 44.1515 21.8371 44.5682 21.5682C44.9848 21.2955 45.5227 21.1591 46.1818 21.1591C46.7727 21.1591 47.2898 21.2803 47.733 21.5227C48.1761 21.7614 48.5208 22.125 48.767 22.6136C49.0133 23.0985 49.1364 23.7121 49.1364 24.4545V30H47.7955V24.5455C47.7955 23.8598 47.6174 23.3258 47.2614 22.9432C46.9053 22.5568 46.4167 22.3636 45.7955 22.3636C45.3674 22.3636 44.9848 22.4564 44.6477 22.642C44.3144 22.8277 44.0511 23.0985 43.858 23.4545C43.6648 23.8106 43.5682 24.2424 43.5682 24.75ZM54.1548 30.2045C53.6018 30.2045 53.0999 30.1004 52.6491 29.892C52.1984 29.6799 51.8404 29.375 51.5753 28.9773C51.3101 28.5758 51.1776 28.0909 51.1776 27.5227C51.1776 27.0227 51.276 26.6174 51.473 26.3068C51.67 25.9924 51.9332 25.7462 52.2628 25.5682C52.5923 25.3902 52.956 25.2576 53.3537 25.1705C53.7552 25.0795 54.1586 25.0076 54.5639 24.9545C55.0942 24.8864 55.5241 24.8352 55.8537 24.8011C56.187 24.7633 56.4295 24.7008 56.581 24.6136C56.7363 24.5265 56.8139 24.375 56.8139 24.1591V24.1136C56.8139 23.553 56.6605 23.1174 56.3537 22.8068C56.0507 22.4962 55.5904 22.3409 54.973 22.3409C54.3329 22.3409 53.831 22.4811 53.4673 22.7614C53.1037 23.0417 52.848 23.3409 52.7003 23.6591L51.4276 23.2045C51.6548 22.6742 51.9579 22.2614 52.3366 21.9659C52.7192 21.6667 53.1359 21.4583 53.5866 21.3409C54.0412 21.2197 54.4882 21.1591 54.9276 21.1591C55.2079 21.1591 55.5298 21.1932 55.8935 21.2614C56.2609 21.3258 56.6151 21.4602 56.956 21.6648C57.3007 21.8693 57.5866 22.178 57.8139 22.5909C58.0412 23.0038 58.1548 23.5568 58.1548 24.25V30H56.8139V28.8182H56.7457C56.6548 29.0076 56.5033 29.2102 56.2912 29.4261C56.0791 29.642 55.7969 29.8258 55.4446 29.9773C55.0923 30.1288 54.6624 30.2045 54.1548 30.2045ZM54.3594 29C54.8897 29 55.3366 28.8958 55.7003 28.6875C56.0677 28.4792 56.3442 28.2102 56.5298 27.8807C56.7192 27.5511 56.8139 27.2045 56.8139 26.8409V25.6136C56.7571 25.6818 56.6321 25.7443 56.4389 25.8011C56.2495 25.8542 56.0298 25.9015 55.7798 25.9432C55.5336 25.9811 55.2931 26.0152 55.0582 26.0455C54.8272 26.072 54.6397 26.0947 54.4957 26.1136C54.1473 26.1591 53.8215 26.233 53.5185 26.3352C53.2192 26.4337 52.9768 26.5833 52.7912 26.7841C52.6094 26.9811 52.5185 27.25 52.5185 27.5909C52.5185 28.0568 52.6908 28.4091 53.0355 28.6477C53.384 28.8826 53.8253 29 54.3594 29ZM60.6023 30V21.2727H61.8977V22.6364H62.0114C62.1932 22.1705 62.4867 21.8087 62.892 21.5511C63.2973 21.2898 63.7841 21.1591 64.3523 21.1591C64.928 21.1591 65.4072 21.2898 65.7898 21.5511C66.1761 21.8087 66.4773 22.1705 66.6932 22.6364H66.7841C67.0076 22.1856 67.3428 21.8277 67.7898 21.5625C68.2367 21.2936 68.7727 21.1591 69.3977 21.1591C70.178 21.1591 70.8163 21.4034 71.3125 21.892C71.8087 22.3769 72.0568 23.1326 72.0568 24.1591V30H70.7159V24.1591C70.7159 23.5152 70.5398 23.0549 70.1875 22.7784C69.8352 22.5019 69.4205 22.3636 68.9432 22.3636C68.3295 22.3636 67.8542 22.5492 67.517 22.9205C67.1799 23.2879 67.0114 23.7538 67.0114 24.3182V30H65.6477V24.0227C65.6477 23.5265 65.4867 23.1269 65.1648 22.8239C64.8428 22.517 64.428 22.3636 63.9205 22.3636C63.572 22.3636 63.2462 22.4564 62.9432 22.642C62.6439 22.8277 62.4015 23.0852 62.2159 23.4148C62.0341 23.7405 61.9432 24.1174 61.9432 24.5455V30H60.6023ZM78.1676 30.1818C77.3267 30.1818 76.6013 29.9962 75.9915 29.625C75.3854 29.25 74.9176 28.7273 74.5881 28.0568C74.2623 27.3826 74.0994 26.5985 74.0994 25.7045C74.0994 24.8106 74.2623 24.0227 74.5881 23.3409C74.9176 22.6553 75.3759 22.1212 75.9631 21.7386C76.554 21.3523 77.2434 21.1591 78.0312 21.1591C78.4858 21.1591 78.9347 21.2348 79.3778 21.3864C79.821 21.5379 80.2244 21.7841 80.5881 22.125C80.9517 22.4621 81.2415 22.9091 81.4574 23.4659C81.6733 24.0227 81.7812 24.7083 81.7812 25.5227V26.0909H75.054V24.9318H80.4176C80.4176 24.4394 80.3191 24 80.1222 23.6136C79.929 23.2273 79.6525 22.9223 79.2926 22.6989C78.9366 22.4754 78.5161 22.3636 78.0312 22.3636C77.4972 22.3636 77.035 22.4962 76.6449 22.7614C76.2585 23.0227 75.9612 23.3636 75.7528 23.7841C75.5445 24.2045 75.4403 24.6553 75.4403 25.1364V25.9091C75.4403 26.5682 75.554 27.1269 75.7812 27.5852C76.0123 28.0398 76.3324 28.3864 76.7415 28.625C77.1506 28.8598 77.6259 28.9773 78.1676 28.9773C78.5199 28.9773 78.8381 28.928 79.1222 28.8295C79.41 28.7273 79.6581 28.5758 79.8665 28.375C80.0748 28.1705 80.2358 27.9167 80.3494 27.6136L81.6449 27.9773C81.5085 28.4167 81.2794 28.803 80.9574 29.1364C80.6354 29.4659 80.2377 29.7235 79.7642 29.9091C79.2907 30.0909 78.7585 30.1818 78.1676 30.1818ZM90.5256 33.0682C89.3665 33.0682 88.3419 32.9091 87.4517 32.5909C86.5616 32.2765 85.8134 31.8125 85.2074 31.1989C84.6013 30.5852 84.143 29.8333 83.8324 28.9432C83.5218 28.053 83.3665 27.0341 83.3665 25.8864C83.3665 24.7765 83.5237 23.7841 83.8381 22.9091C84.1563 22.0341 84.6165 21.2917 85.2188 20.6818C85.8248 20.0682 86.5597 19.6004 87.4233 19.2784C88.2907 18.9564 89.2718 18.7955 90.3665 18.7955C91.4309 18.7955 92.3627 18.9697 93.1619 19.3182C93.965 19.6629 94.6354 20.1307 95.1733 20.7216C95.715 21.3087 96.1203 21.9697 96.3892 22.7045C96.6619 23.4394 96.7983 24.197 96.7983 24.9773C96.7983 25.5265 96.7718 26.0833 96.7188 26.6477C96.6657 27.2121 96.554 27.7311 96.3835 28.2045C96.2131 28.6742 95.9498 29.053 95.5938 29.3409C95.2415 29.6288 94.7642 29.7727 94.1619 29.7727C93.8968 29.7727 93.6051 29.7311 93.2869 29.6477C92.9688 29.5644 92.6866 29.4261 92.4403 29.233C92.1941 29.0398 92.0483 28.7803 92.0028 28.4545H91.9347C91.8438 28.6742 91.7036 28.8826 91.5142 29.0795C91.3286 29.2765 91.0843 29.4337 90.7812 29.5511C90.482 29.6686 90.1165 29.7197 89.6847 29.7045C89.1922 29.6856 88.7585 29.5758 88.3835 29.375C88.0085 29.1705 87.6941 28.8939 87.4403 28.5455C87.1903 28.1932 87.0009 27.786 86.8722 27.3239C86.7472 26.858 86.6847 26.3561 86.6847 25.8182C86.6847 25.3068 86.7604 24.839 86.9119 24.4148C87.0634 23.9905 87.2737 23.6193 87.5426 23.3011C87.8153 22.983 88.1335 22.7292 88.4972 22.5398C88.8646 22.3466 89.2604 22.2273 89.6847 22.1818C90.0634 22.1439 90.4081 22.161 90.7188 22.233C91.0294 22.3011 91.285 22.4053 91.4858 22.5455C91.6866 22.6818 91.8134 22.8333 91.8665 23H91.9347V22.3636H93.1392V27.5C93.1392 27.8182 93.2282 28.0985 93.4062 28.3409C93.5843 28.5833 93.8438 28.7045 94.1847 28.7045C94.571 28.7045 94.8665 28.572 95.071 28.3068C95.2794 28.0417 95.4214 27.6326 95.4972 27.0795C95.5767 26.5265 95.6165 25.8182 95.6165 24.9545C95.6165 24.447 95.5464 23.947 95.4062 23.4545C95.2699 22.9583 95.0616 22.4943 94.7812 22.0625C94.5047 21.6307 94.1544 21.25 93.7301 20.9205C93.3059 20.5909 92.8078 20.3333 92.2358 20.1477C91.6676 19.9583 91.0218 19.8636 90.2983 19.8636C89.4081 19.8636 88.6108 20.0019 87.9062 20.2784C87.2055 20.5511 86.6089 20.9508 86.1165 21.4773C85.6278 22 85.2547 22.6364 84.9972 23.3864C84.7434 24.1326 84.6165 24.9811 84.6165 25.9318C84.6165 26.8977 84.7434 27.7557 84.9972 28.5057C85.2547 29.2557 85.6335 29.8883 86.1335 30.4034C86.6373 30.9186 87.2604 31.3087 88.0028 31.5739C88.7453 31.8428 89.6013 31.9773 90.571 31.9773C90.9877 31.9773 91.3987 31.9375 91.804 31.858C92.2093 31.7784 92.5672 31.6913 92.8778 31.5966C93.1884 31.5019 93.4119 31.4318 93.5483 31.3864L93.8665 32.4318C93.6316 32.5303 93.3248 32.6288 92.946 32.7273C92.571 32.8258 92.1695 32.9072 91.7415 32.9716C91.3172 33.036 90.9119 33.0682 90.5256 33.0682ZM89.8665 28.5455C90.3741 28.5455 90.785 28.4432 91.0994 28.2386C91.4138 28.0341 91.643 27.7254 91.7869 27.3125C91.9309 26.8996 92.0028 26.3788 92.0028 25.75C92.0028 25.1136 91.9233 24.6174 91.7642 24.2614C91.6051 23.9053 91.3703 23.6553 91.0597 23.5114C90.7491 23.3674 90.3665 23.2955 89.9119 23.2955C89.4801 23.2955 89.1108 23.4091 88.804 23.6364C88.5009 23.8598 88.268 24.1591 88.1051 24.5341C87.946 24.9053 87.8665 25.3106 87.8665 25.75C87.8665 26.2348 87.9309 26.6913 88.0597 27.1193C88.1884 27.5436 88.3987 27.8883 88.6903 28.1534C88.982 28.4148 89.3741 28.5455 89.8665 28.5455ZM102.464 30.1818C101.624 30.1818 100.898 29.9962 100.288 29.625C99.6823 29.25 99.2145 28.7273 98.8849 28.0568C98.5592 27.3826 98.3963 26.5985 98.3963 25.7045C98.3963 24.8106 98.5592 24.0227 98.8849 23.3409C99.2145 22.6553 99.6728 22.1212 100.26 21.7386C100.851 21.3523 101.54 21.1591 102.328 21.1591C102.783 21.1591 103.232 21.2348 103.675 21.3864C104.118 21.5379 104.521 21.7841 104.885 22.125C105.249 22.4621 105.538 22.9091 105.754 23.4659C105.97 24.0227 106.078 24.7083 106.078 25.5227V26.0909H99.3509V24.9318H104.714C104.714 24.4394 104.616 24 104.419 23.6136C104.226 23.2273 103.949 22.9223 103.589 22.6989C103.233 22.4754 102.813 22.3636 102.328 22.3636C101.794 22.3636 101.332 22.4962 100.942 22.7614C100.555 23.0227 100.258 23.3636 100.05 23.7841C99.8414 24.2045 99.7372 24.6553 99.7372 25.1364V25.9091C99.7372 26.5682 99.8509 27.1269 100.078 27.5852C100.309 28.0398 100.629 28.3864 101.038 28.625C101.447 28.8598 101.923 28.9773 102.464 28.9773C102.817 28.9773 103.135 28.928 103.419 28.8295C103.707 28.7273 103.955 28.5758 104.163 28.375C104.372 28.1705 104.533 27.9167 104.646 27.6136L105.942 27.9773C105.805 28.4167 105.576 28.803 105.254 29.1364C104.932 29.4659 104.535 29.7235 104.061 29.9091C103.588 30.0909 103.055 30.1818 102.464 30.1818ZM108.884 21.2727L110.974 24.8409L113.065 21.2727H114.611L111.793 25.6364L114.611 30H113.065L110.974 26.6136L108.884 30H107.338L110.111 25.6364L107.338 21.2727H108.884ZM119.092 30.2045C118.539 30.2045 118.037 30.1004 117.587 29.892C117.136 29.6799 116.778 29.375 116.513 28.9773C116.248 28.5758 116.115 28.0909 116.115 27.5227C116.115 27.0227 116.214 26.6174 116.411 26.3068C116.607 25.9924 116.871 25.7462 117.2 25.5682C117.53 25.3902 117.893 25.2576 118.291 25.1705C118.693 25.0795 119.096 25.0076 119.501 24.9545C120.032 24.8864 120.462 24.8352 120.791 24.8011C121.125 24.7633 121.367 24.7008 121.518 24.6136C121.674 24.5265 121.751 24.375 121.751 24.1591V24.1136C121.751 23.553 121.598 23.1174 121.291 22.8068C120.988 22.4962 120.528 22.3409 119.911 22.3409C119.27 22.3409 118.768 22.4811 118.405 22.7614C118.041 23.0417 117.786 23.3409 117.638 23.6591L116.365 23.2045C116.592 22.6742 116.895 22.2614 117.274 21.9659C117.657 21.6667 118.073 21.4583 118.524 21.3409C118.979 21.2197 119.426 21.1591 119.865 21.1591C120.145 21.1591 120.467 21.1932 120.831 21.2614C121.198 21.3258 121.553 21.4602 121.893 21.6648C122.238 21.8693 122.524 22.178 122.751 22.5909C122.979 23.0038 123.092 23.5568 123.092 24.25V30H121.751V28.8182H121.683C121.592 29.0076 121.441 29.2102 121.229 29.4261C121.017 29.642 120.734 29.8258 120.382 29.9773C120.03 30.1288 119.6 30.2045 119.092 30.2045ZM119.297 29C119.827 29 120.274 28.8958 120.638 28.6875C121.005 28.4792 121.282 28.2102 121.467 27.8807C121.657 27.5511 121.751 27.2045 121.751 26.8409V25.6136C121.695 25.6818 121.57 25.7443 121.376 25.8011C121.187 25.8542 120.967 25.9015 120.717 25.9432C120.471 25.9811 120.231 26.0152 119.996 26.0455C119.765 26.072 119.577 26.0947 119.433 26.1136C119.085 26.1591 118.759 26.233 118.456 26.3352C118.157 26.4337 117.914 26.5833 117.729 26.7841C117.547 26.9811 117.456 27.25 117.456 27.5909C117.456 28.0568 117.628 28.4091 117.973 28.6477C118.321 28.8826 118.763 29 119.297 29ZM125.54 30V21.2727H126.835V22.6364H126.949C127.131 22.1705 127.424 21.8087 127.83 21.5511C128.235 21.2898 128.722 21.1591 129.29 21.1591C129.866 21.1591 130.345 21.2898 130.727 21.5511C131.114 21.8087 131.415 22.1705 131.631 22.6364H131.722C131.945 22.1856 132.28 21.8277 132.727 21.5625C133.174 21.2936 133.71 21.1591 134.335 21.1591C135.116 21.1591 135.754 21.4034 136.25 21.892C136.746 22.3769 136.994 23.1326 136.994 24.1591V30H135.653V24.1591C135.653 23.5152 135.477 23.0549 135.125 22.7784C134.773 22.5019 134.358 22.3636 133.881 22.3636C133.267 22.3636 132.792 22.5492 132.455 22.9205C132.117 23.2879 131.949 23.7538 131.949 24.3182V30H130.585V24.0227C130.585 23.5265 130.424 23.1269 130.102 22.8239C129.78 22.517 129.366 22.3636 128.858 22.3636C128.509 22.3636 128.184 22.4564 127.881 22.642C127.581 22.8277 127.339 23.0852 127.153 23.4148C126.972 23.7405 126.881 24.1174 126.881 24.5455V30H125.54ZM139.446 33.2727V21.2727H140.741V22.6591H140.901C140.999 22.5076 141.135 22.3144 141.31 22.0795C141.488 21.8409 141.741 21.6288 142.071 21.4432C142.404 21.2538 142.855 21.1591 143.423 21.1591C144.158 21.1591 144.806 21.3428 145.366 21.7102C145.927 22.0777 146.365 22.5985 146.679 23.2727C146.993 23.947 147.151 24.7424 147.151 25.6591C147.151 26.5833 146.993 27.3845 146.679 28.0625C146.365 28.7367 145.929 29.2595 145.372 29.6307C144.815 29.9981 144.173 30.1818 143.446 30.1818C142.885 30.1818 142.437 30.089 142.099 29.9034C141.762 29.714 141.503 29.5 141.321 29.2614C141.139 29.0189 140.999 28.8182 140.901 28.6591H140.787V33.2727H139.446ZM140.764 25.6364C140.764 26.2955 140.861 26.8769 141.054 27.3807C141.247 27.8807 141.529 28.2727 141.901 28.5568C142.272 28.8371 142.726 28.9773 143.264 28.9773C143.825 28.9773 144.293 28.8295 144.668 28.5341C145.046 28.2348 145.33 27.8333 145.52 27.3295C145.713 26.822 145.81 26.2576 145.81 25.6364C145.81 25.0227 145.715 24.4697 145.526 23.9773C145.34 23.4811 145.058 23.089 144.679 22.8011C144.304 22.5095 143.832 22.3636 143.264 22.3636C142.719 22.3636 142.26 22.5019 141.889 22.7784C141.518 23.0511 141.238 23.4337 141.048 23.9261C140.859 24.4148 140.764 24.9848 140.764 25.6364ZM150.537 18.3636V30H149.196V18.3636H150.537ZM156.652 30.1818C155.811 30.1818 155.086 29.9962 154.476 29.625C153.87 29.25 153.402 28.7273 153.072 28.0568C152.747 27.3826 152.584 26.5985 152.584 25.7045C152.584 24.8106 152.747 24.0227 153.072 23.3409C153.402 22.6553 153.86 22.1212 154.447 21.7386C155.038 21.3523 155.728 21.1591 156.516 21.1591C156.97 21.1591 157.419 21.2348 157.862 21.3864C158.305 21.5379 158.709 21.7841 159.072 22.125C159.436 22.4621 159.726 22.9091 159.942 23.4659C160.158 24.0227 160.266 24.7083 160.266 25.5227V26.0909H153.538V24.9318H158.902C158.902 24.4394 158.804 24 158.607 23.6136C158.413 23.2273 158.137 22.9223 157.777 22.6989C157.421 22.4754 157 22.3636 156.516 22.3636C155.982 22.3636 155.519 22.4962 155.129 22.7614C154.743 23.0227 154.446 23.3636 154.237 23.7841C154.029 24.2045 153.925 24.6553 153.925 25.1364V25.9091C153.925 26.5682 154.038 27.1269 154.266 27.5852C154.497 28.0398 154.817 28.3864 155.226 28.625C155.635 28.8598 156.11 28.9773 156.652 28.9773C157.004 28.9773 157.322 28.928 157.607 28.8295C157.894 28.7273 158.143 28.5758 158.351 28.375C158.559 28.1705 158.72 27.9167 158.834 27.6136L160.129 27.9773C159.993 28.4167 159.764 28.803 159.442 29.1364C159.12 29.4659 158.722 29.7235 158.249 29.9091C157.775 30.0909 157.243 30.1818 156.652 30.1818ZM163.283 30.0909C163.002 30.0909 162.762 29.9905 162.561 29.7898C162.36 29.589 162.26 29.3485 162.26 29.0682C162.26 28.7879 162.36 28.5473 162.561 28.3466C162.762 28.1458 163.002 28.0455 163.283 28.0455C163.563 28.0455 163.804 28.1458 164.004 28.3466C164.205 28.5473 164.305 28.7879 164.305 29.0682C164.305 29.2538 164.258 29.4242 164.163 29.5795C164.072 29.7348 163.949 29.8598 163.794 29.9545C163.643 30.0455 163.472 30.0909 163.283 30.0909ZM170.257 30.1818C169.439 30.1818 168.734 29.9886 168.143 29.6023C167.553 29.2159 167.098 28.6837 166.78 28.0057C166.462 27.3277 166.303 26.553 166.303 25.6818C166.303 24.7955 166.465 24.0133 166.791 23.3352C167.121 22.6534 167.579 22.1212 168.166 21.7386C168.757 21.3523 169.446 21.1591 170.234 21.1591C170.848 21.1591 171.401 21.2727 171.893 21.5C172.386 21.7273 172.789 22.0455 173.104 22.4545C173.418 22.8636 173.613 23.3409 173.689 23.8864H172.348C172.246 23.4886 172.018 23.1364 171.666 22.8295C171.318 22.5189 170.848 22.3636 170.257 22.3636C169.734 22.3636 169.276 22.5 168.882 22.7727C168.492 23.0417 168.187 23.4223 167.967 23.9148C167.751 24.4034 167.643 24.9773 167.643 25.6364C167.643 26.3106 167.75 26.8977 167.962 27.3977C168.178 27.8977 168.481 28.286 168.871 28.5625C169.265 28.839 169.727 28.9773 170.257 28.9773C170.606 28.9773 170.922 28.9167 171.206 28.7955C171.49 28.6742 171.731 28.5 171.928 28.2727C172.125 28.0455 172.265 27.7727 172.348 27.4545H173.689C173.613 27.9697 173.426 28.4337 173.126 28.8466C172.831 29.2557 172.439 29.5814 171.95 29.8239C171.465 30.0625 170.901 30.1818 170.257 30.1818ZM179.195 30.1818C178.407 30.1818 177.715 29.9943 177.121 29.6193C176.53 29.2443 176.068 28.7197 175.734 28.0455C175.405 27.3712 175.24 26.5833 175.24 25.6818C175.24 24.7727 175.405 23.9792 175.734 23.3011C176.068 22.6231 176.53 22.0966 177.121 21.7216C177.715 21.3466 178.407 21.1591 179.195 21.1591C179.982 21.1591 180.672 21.3466 181.263 21.7216C181.857 22.0966 182.32 22.6231 182.649 23.3011C182.982 23.9792 183.149 24.7727 183.149 25.6818C183.149 26.5833 182.982 27.3712 182.649 28.0455C182.32 28.7197 181.857 29.2443 181.263 29.6193C180.672 29.9943 179.982 30.1818 179.195 30.1818ZM179.195 28.9773C179.793 28.9773 180.286 28.8239 180.672 28.517C181.058 28.2102 181.344 27.8068 181.53 27.3068C181.715 26.8068 181.808 26.2652 181.808 25.6818C181.808 25.0985 181.715 24.5549 181.53 24.0511C181.344 23.5473 181.058 23.1402 180.672 22.8295C180.286 22.5189 179.793 22.3636 179.195 22.3636C178.596 22.3636 178.104 22.5189 177.717 22.8295C177.331 23.1402 177.045 23.5473 176.859 24.0511C176.674 24.5549 176.581 25.0985 176.581 25.6818C176.581 26.2652 176.674 26.8068 176.859 27.3068C177.045 27.8068 177.331 28.2102 177.717 28.517C178.104 28.8239 178.596 28.9773 179.195 28.9773ZM185.196 30V21.2727H186.491V22.6364H186.605C186.787 22.1705 187.08 21.8087 187.486 21.5511C187.891 21.2898 188.378 21.1591 188.946 21.1591C189.522 21.1591 190.001 21.2898 190.384 21.5511C190.77 21.8087 191.071 22.1705 191.287 22.6364H191.378C191.601 22.1856 191.937 21.8277 192.384 21.5625C192.83 21.2936 193.366 21.1591 193.991 21.1591C194.772 21.1591 195.41 21.4034 195.906 21.892C196.402 22.3769 196.651 23.1326 196.651 24.1591V30H195.31V24.1591C195.31 23.5152 195.134 23.0549 194.781 22.7784C194.429 22.5019 194.014 22.3636 193.537 22.3636C192.923 22.3636 192.448 22.5492 192.111 22.9205C191.774 23.2879 191.605 23.7538 191.605 24.3182V30H190.241V24.0227C190.241 23.5265 190.08 23.1269 189.759 22.8239C189.437 22.517 189.022 22.3636 188.514 22.3636C188.166 22.3636 187.84 22.4564 187.537 22.642C187.238 22.8277 186.995 23.0852 186.81 23.4148C186.628 23.7405 186.537 24.1174 186.537 24.5455V30H185.196Z" fill="#6B7280"/>
</g>
<path d="M13.6667 24.1136C13.2083 24.1136 12.816 23.9504 12.4896 23.624C12.1632 23.2976 12 22.9053 12 22.4469V12.4469C12 11.9886 12.1632 11.5962 12.4896 11.2699C12.816 10.9435 13.2083 10.7803 13.6667 10.7803H27C27.4583 10.7803 27.8507 10.9435 28.1771 11.2699C28.5035 11.5962 28.6667 11.9886 28.6667 12.4469V22.4469C28.6667 22.9053 28.5035 23.2976 28.1771 23.624C27.8507 23.9504 27.4583 24.1136 27 24.1136H13.6667ZM20.3333 18.2803L13.6667 14.1136V22.4469H27V14.1136L20.3333 18.2803ZM20.3333 16.6136L27 12.4469H13.6667L20.3333 16.6136ZM13.6667 14.1136V12.4469V14.1136V22.4469V14.1136Z" fill="#94A3B8"/>
<defs>
<clipPath id="clip0_205_2347">
<rect width="388" height="19" fill="white" transform="translate(41 15)"/>
</clipPath>
</defs>
</svg>
