<svg width="95" height="11" viewBox="0 0 95 11" fill="none" xmlns="http://www.w3.org/2000/svg">
<path d="M0.000320911 10.6706V0.485077H6.61585V2.02233H1.82577V4.76876H6.26366V6.28632H1.82577V9.13337H6.64538V10.6706H0.000320911ZM8.3954 10.6706V3.02805H10.0642L10.1325 4.86499H10.0024C10.1137 4.41255 10.2843 4.04254 10.514 3.75498C10.7437 3.46741 11.0125 3.25404 11.3205 3.11486C11.6285 2.97568 11.9506 2.90609 12.2869 2.90609C12.838 2.90609 13.2835 3.07945 13.6235 3.42617C13.9635 3.77289 14.2033 4.28166 14.3429 4.95249H14.1296C14.2355 4.49749 14.415 4.11828 14.668 3.81486C14.921 3.51144 15.2221 3.28412 15.5711 3.13291C15.9201 2.9817 16.2924 2.90609 16.6882 2.90609C17.1466 2.90609 17.559 3.0059 17.9252 3.20551C18.2914 3.40511 18.5811 3.69819 18.7943 4.08474C19.0075 4.47129 19.1141 4.94849 19.1141 5.51633V10.6706H17.3373V5.78921C17.3373 5.31652 17.2078 4.9703 16.9488 4.75055C16.6898 4.5308 16.3781 4.42092 16.0139 4.42092C15.7279 4.42092 15.4804 4.48244 15.2714 4.60549C15.0624 4.72854 14.9017 4.89857 14.7894 5.11559C14.6771 5.33261 14.621 5.58486 14.621 5.87233V10.6706H12.8885V5.71046C12.8885 5.31944 12.7677 5.00676 12.5262 4.77243C12.2847 4.53809 11.9745 4.42092 11.5957 4.42092C11.3372 4.42092 11.0995 4.48099 10.8826 4.60112C10.6656 4.72125 10.493 4.89711 10.3647 5.12872C10.2363 5.36032 10.1722 5.64611 10.1722 5.98609V10.6706H8.3954ZM23.1381 10.8287C22.6533 10.8287 22.2172 10.7412 21.8295 10.5663C21.4419 10.3914 21.1359 10.1326 20.9117 9.78988C20.6875 9.44717 20.5754 9.02435 20.5754 8.5214C20.5754 8.09047 20.6562 7.73418 20.8179 7.45254C20.9796 7.1709 21.199 6.94572 21.4761 6.77701C21.7532 6.6083 22.0651 6.4807 22.4119 6.3942C22.7588 6.3077 23.1173 6.24495 23.4875 6.20594C23.9334 6.15654 24.2946 6.11342 24.571 6.0766C24.8474 6.03978 25.0511 5.98058 25.1819 5.899C25.3127 5.81743 25.3781 5.6906 25.3781 5.51852V5.48242C25.3781 5.23067 25.3274 5.01766 25.2262 4.84339C25.1249 4.66912 24.9755 4.53545 24.7779 4.44239C24.5803 4.34933 24.3357 4.3028 24.0442 4.3028C23.7485 4.3028 23.4921 4.34828 23.275 4.43925C23.0579 4.53021 22.8808 4.64843 22.7436 4.7939C22.6064 4.93937 22.5058 5.09687 22.4419 5.2664L20.7941 4.92843C20.9458 4.47671 21.179 4.10383 21.4936 3.8098C21.8082 3.51576 22.1837 3.29601 22.62 3.15054C23.0563 3.00508 23.5287 2.93234 24.0371 2.93234C24.3957 2.93234 24.7584 2.975 25.1252 3.06031C25.4921 3.14562 25.8287 3.28763 26.135 3.48632C26.4414 3.68502 26.6879 3.9534 26.8747 4.29146C27.0615 4.62952 27.1548 5.05276 27.1548 5.56117V10.6706H25.4552V9.6168H25.383C25.2718 9.8339 25.116 10.0346 24.9155 10.2188C24.7151 10.403 24.468 10.5507 24.1741 10.6619C23.8803 10.7731 23.5349 10.8287 23.1381 10.8287ZM23.5936 9.50798C23.9607 9.50798 24.2781 9.43552 24.5458 9.29059C24.8135 9.14567 25.0208 8.95294 25.1676 8.7124C25.3145 8.47187 25.3879 8.2106 25.3879 7.92859V7.02405C25.3296 7.07182 25.2317 7.11593 25.0942 7.1564C24.9568 7.19687 24.802 7.23287 24.6298 7.26441C24.4576 7.29594 24.289 7.32301 24.1239 7.34562C23.9589 7.36822 23.8187 7.38718 23.7035 7.40249C23.4368 7.43731 23.1969 7.49669 22.9837 7.58064C22.7705 7.66458 22.6028 7.78052 22.4807 7.92845C22.3586 8.07638 22.2975 8.26747 22.2975 8.50172C22.2975 8.72175 22.3535 8.90627 22.4656 9.0553C22.5778 9.20432 22.731 9.31703 22.9253 9.39341C23.1196 9.46979 23.3424 9.50798 23.5936 9.50798ZM29.0399 10.6706V3.02805H30.8167V10.6706H29.0399ZM29.9302 1.94687C29.6469 1.94687 29.4038 1.85149 29.2007 1.66072C28.9976 1.46996 28.8961 1.24104 28.8961 0.973975C28.8961 0.701456 28.9976 0.470998 29.2007 0.282601C29.4038 0.0942035 29.6469 4.88758e-06 29.9302 4.88758e-06C30.216 4.88758e-06 30.4605 0.0941156 30.6638 0.282337C30.8671 0.470558 30.9687 0.701061 30.9687 0.973846C30.9687 1.24118 30.8671 1.47018 30.6638 1.66085C30.4605 1.85153 30.216 1.94687 29.9302 1.94687ZM34.4808 0.485077V10.6706H32.704V0.485077H34.4808ZM39.2938 10.6706L42.8493 0.485077H45.1702L48.8007 10.6706H46.7986L44.9903 5.38067C44.8139 4.83307 44.6293 4.21452 44.4366 3.52501C44.244 2.83549 44.0313 2.04959 43.7987 1.1673H44.1826C43.9562 2.05542 43.7501 2.84716 43.5644 3.54251C43.3786 4.23785 43.2035 4.85057 43.0391 5.38067L41.2899 10.6706H39.2938ZM41.3648 8.14678V6.67734H46.7297V8.14678H41.3648ZM52.6865 10.8101C52.0859 10.8101 51.5471 10.6553 51.0701 10.3456C50.5931 10.036 50.2179 9.58745 49.9445 8.99992C49.6711 8.41239 49.5343 7.70073 49.5343 6.86492C49.5343 6.01563 49.6742 5.29835 49.9541 4.71311C50.2339 4.12786 50.6119 3.68475 51.088 3.38379C51.5642 3.08282 52.0952 2.93234 52.6811 2.93234C53.1352 2.93234 53.5068 3.00822 53.796 3.15998C54.0852 3.31174 54.315 3.49335 54.4853 3.7048C54.6557 3.91626 54.7843 4.1125 54.8713 4.29351H54.9473V0.485077H56.7241V10.6706H54.9834V9.46094H54.8713C54.7811 9.64487 54.6489 9.84115 54.4748 10.0498C54.3007 10.2584 54.0696 10.4373 53.7814 10.5864C53.4932 10.7355 53.1282 10.8101 52.6865 10.8101ZM53.1689 9.34775C53.5566 9.34775 53.8854 9.24307 54.1552 9.0337C54.425 8.82434 54.63 8.53272 54.7703 8.15883C54.9105 7.78495 54.9807 7.35073 54.9807 6.85617C54.9807 6.35833 54.9113 5.9257 54.7724 5.55829C54.6336 5.19088 54.4293 4.90509 54.1595 4.70092C53.8897 4.49676 53.5595 4.39467 53.1689 4.39467C52.7695 4.39467 52.435 4.50113 52.1653 4.71405C51.8957 4.92697 51.6931 5.21859 51.5573 5.58892C51.4216 5.95925 51.3538 6.38166 51.3538 6.85617C51.3538 7.33195 51.4224 7.75793 51.5595 8.13409C51.6967 8.51025 51.9008 8.80657 52.1719 9.02304C52.443 9.23951 52.7753 9.34775 53.1689 9.34775ZM61.4229 10.8101C60.8222 10.8101 60.2834 10.6553 59.8064 10.3456C59.3295 10.036 58.9543 9.58745 58.6808 8.99992C58.4074 8.41239 58.2707 7.70073 58.2707 6.86492C58.2707 6.01563 58.4106 5.29835 58.6904 4.71311C58.9702 4.12786 59.3482 3.68475 59.8243 3.38379C60.3005 3.08282 60.8315 2.93234 61.4174 2.93234C61.8715 2.93234 62.2431 3.00822 62.5323 3.15998C62.8215 3.31174 63.0513 3.49335 63.2217 3.7048C63.392 3.91626 63.5207 4.1125 63.6076 4.29351H63.6836V0.485077H65.4604V10.6706H63.7197V9.46094H63.6076C63.5174 9.64487 63.3852 9.84115 63.2111 10.0498C63.0371 10.2584 62.8059 10.4373 62.5177 10.5864C62.2295 10.7355 61.8646 10.8101 61.4229 10.8101ZM61.9052 9.34775C62.2929 9.34775 62.6217 9.24307 62.8915 9.0337C63.1613 8.82434 63.3663 8.53272 63.5066 8.15883C63.6469 7.78495 63.717 7.35073 63.717 6.85617C63.717 6.35833 63.6476 5.9257 63.5088 5.55829C63.37 5.19088 63.1657 4.90509 62.8959 4.70092C62.6261 4.49676 62.2958 4.39467 61.9052 4.39467C61.5058 4.39467 61.1713 4.50113 60.9017 4.71405C60.6321 4.92697 60.4294 5.21859 60.2937 5.58892C60.158 5.95925 60.0901 6.38166 60.0901 6.85617C60.0901 7.33195 60.1587 7.75793 60.2959 8.13409C60.433 8.51025 60.6372 8.80657 60.9082 9.02304C61.1793 9.23951 61.5116 9.34775 61.9052 9.34775ZM67.3417 10.6706V3.02805H69.0627V4.30718H69.1447C69.2843 3.86403 69.5247 3.52265 69.8656 3.28303C70.2066 3.0434 70.5959 2.92359 71.0336 2.92359C71.1346 2.92359 71.2465 2.92833 71.3694 2.93781C71.4923 2.94729 71.5967 2.96005 71.6828 2.97609V4.60959C71.6102 4.58571 71.4916 4.56425 71.3269 4.5452C71.1622 4.52615 71.0019 4.51662 70.846 4.51662C70.5159 4.51662 70.2197 4.58722 69.9574 4.7284C69.6951 4.86959 69.4897 5.06446 69.3412 5.31301C69.1927 5.56157 69.1185 5.84918 69.1185 6.17585V10.6706H67.3417ZM75.967 10.8248C75.2008 10.8248 74.5402 10.6637 73.985 10.3413C73.4298 10.0189 73.003 9.56375 72.7046 8.97586C72.4062 8.38797 72.257 7.69471 72.257 6.89609C72.257 6.1106 72.4044 5.42058 72.6993 4.82603C72.9941 4.23149 73.4113 3.76724 73.9507 3.43328C74.4901 3.09932 75.1233 2.93234 75.8505 2.93234C76.3184 2.93234 76.7626 3.00777 77.1831 3.15861C77.6036 3.30946 77.9765 3.54151 78.3019 3.85478C78.6273 4.16805 78.8832 4.56768 79.0697 5.05367C79.2562 5.53966 79.3494 6.11862 79.3494 6.79054V7.34507H73.0959V6.13867H78.4624L77.6322 6.49688C77.6322 6.06448 77.5655 5.68545 77.4321 5.35978C77.2986 5.03411 77.1008 4.78045 76.8384 4.5988C76.5761 4.41714 76.2501 4.32631 75.8603 4.32631C75.4706 4.32631 75.1387 4.4186 74.8648 4.60317C74.5908 4.78774 74.382 5.03411 74.2383 5.34228C74.0947 5.65045 74.0228 5.99302 74.0228 6.37V7.20562C74.0228 7.6887 74.1048 8.09617 74.2688 8.42803C74.4328 8.7599 74.663 9.01 74.9596 9.17835C75.2562 9.3467 75.6 9.43087 75.9911 9.43087C76.2508 9.43087 76.4869 9.39373 76.6994 9.31944C76.9119 9.24516 77.0947 9.13423 77.2478 8.98667C77.4009 8.8391 77.5179 8.65676 77.5989 8.43965L79.2313 8.77762C79.1095 9.18668 78.9 9.54484 78.6026 9.85209C78.3053 10.1593 77.9342 10.3983 77.4893 10.5689C77.0445 10.7395 76.537 10.8248 75.967 10.8248ZM83.7605 10.8248C83.1757 10.8248 82.6572 10.7407 82.2051 10.5725C81.7529 10.4042 81.3827 10.1586 81.0946 9.83569C80.8065 9.51276 80.6177 9.12106 80.5282 8.66059L82.1918 8.34833C82.2946 8.72494 82.4799 9.00508 82.7477 9.18874C83.0155 9.3724 83.3649 9.46423 83.796 9.46423C84.2341 9.46423 84.5815 9.37655 84.8384 9.20118C85.0953 9.02581 85.2237 8.80961 85.2237 8.55258C85.2237 8.33091 85.1392 8.14834 84.9702 8.00488C84.8012 7.86141 84.5415 7.75213 84.1912 7.67702L82.8902 7.39593C82.1679 7.24007 81.6292 6.98436 81.2739 6.6288C80.9186 6.27324 80.7409 5.8151 80.7409 5.25437C80.7409 4.78242 80.871 4.37281 81.131 4.02554C81.391 3.67828 81.7522 3.40926 82.2144 3.21849C82.6766 3.02773 83.2124 2.93234 83.822 2.93234C84.4003 2.93234 84.8978 3.01424 85.3147 3.17803C85.7316 3.34181 86.0691 3.571 86.3271 3.86558C86.5851 4.16017 86.7646 4.50634 86.8654 4.90409L85.2811 5.21335C85.1927 4.94812 85.0344 4.72312 84.8061 4.53837C84.5779 4.35361 84.2579 4.26124 83.8461 4.26124C83.4691 4.26124 83.1541 4.3435 82.9011 4.50802C82.6481 4.67254 82.5215 4.88559 82.5215 5.14718C82.5215 5.36904 82.6048 5.5527 82.7713 5.69817C82.9379 5.84364 83.2157 5.95894 83.6049 6.04407L84.9054 6.3175C85.6293 6.47172 86.167 6.71964 86.5185 7.06126C86.8701 7.40287 87.0458 7.8431 87.0458 8.38196C87.0458 8.86466 86.9063 9.28936 86.6271 9.65604C86.3479 10.0227 85.9615 10.3092 85.4678 10.5154C84.9742 10.7217 84.4051 10.8248 83.7605 10.8248ZM91.4509 10.8248C90.8661 10.8248 90.3477 10.7407 89.8955 10.5725C89.4433 10.4042 89.0732 10.1586 88.7851 9.83569C88.497 9.51276 88.3081 9.12106 88.2186 8.66059L89.8822 8.34833C89.985 8.72494 90.1703 9.00508 90.4381 9.18874C90.7059 9.3724 91.0554 9.46423 91.4865 9.46423C91.9245 9.46423 92.272 9.37655 92.5288 9.20118C92.7857 9.02581 92.9141 8.80961 92.9141 8.55258C92.9141 8.33091 92.8296 8.14834 92.6606 8.00488C92.4916 7.86141 92.232 7.75213 91.8816 7.67702L90.5806 7.39593C89.8583 7.24007 89.3196 6.98436 88.9643 6.6288C88.609 6.27324 88.4314 5.8151 88.4314 5.25437C88.4314 4.78242 88.5614 4.37281 88.8214 4.02554C89.0815 3.67828 89.4426 3.40926 89.9048 3.21849C90.367 3.02773 90.9029 2.93234 91.5125 2.93234C92.0907 2.93234 92.5882 3.01424 93.0051 3.17803C93.422 3.34181 93.7595 3.571 94.0175 3.86558C94.2756 4.16017 94.455 4.50634 94.5558 4.90409L92.9715 5.21335C92.8831 4.94812 92.7248 4.72312 92.4966 4.53837C92.2683 4.35361 91.9483 4.26124 91.5365 4.26124C91.1595 4.26124 90.8445 4.3435 90.5915 4.50802C90.3385 4.67254 90.212 4.88559 90.212 5.14718C90.212 5.36904 90.2952 5.5527 90.4618 5.69817C90.6283 5.84364 90.9061 5.95894 91.2953 6.04407L92.5958 6.3175C93.3197 6.47172 93.8574 6.71964 94.2089 7.06126C94.5605 7.40287 94.7363 7.8431 94.7363 8.38196C94.7363 8.86466 94.5967 9.28936 94.3175 9.65604C94.0383 10.0227 93.6519 10.3092 93.1583 10.5154C92.6646 10.7217 92.0955 10.8248 91.4509 10.8248Z" fill="#334155"/>
</svg>
