<svg width="195" height="16" viewBox="0 0 195 16" fill="none" xmlns="http://www.w3.org/2000/svg">
<path d="M0.0003125 11.7969L4.22688 0.15625H5.94563L10.2269 11.7969H8.66438L6.19563 4.89062C6.04458 4.46354 5.8688 3.93099 5.66828 3.29297C5.46776 2.65495 5.22427 1.84115 4.93781 0.851562H5.21906C4.93781 1.85156 4.69432 2.67578 4.48859 3.32422C4.28286 3.97266 4.11229 4.49479 3.97688 4.89062L1.57844 11.7969H0.0003125ZM2.12531 8.54688V7.25H8.10188V8.54688H2.12531ZM13.2738 0.15625V11.7969H11.8675V0.15625H13.2738ZM15.7425 11.7969V3.0625H17.1019V4.40625H17.1956C17.3571 3.96354 17.6448 3.60807 18.0589 3.33984C18.473 3.07161 18.9404 2.9375 19.4613 2.9375C19.5654 2.9375 19.6891 2.9401 19.8323 2.94531C19.9756 2.95052 20.0889 2.95573 20.1722 2.96094V4.375C20.1305 4.36458 20.0264 4.34896 19.8597 4.32812C19.693 4.30729 19.5159 4.29688 19.3284 4.29688C18.9118 4.29688 18.5381 4.38411 18.2073 4.55859C17.8766 4.73307 17.6175 4.97266 17.43 5.27734C17.2425 5.58203 17.1488 5.93229 17.1488 6.32812V11.7969H15.7425ZM25.1722 11.9844C24.3284 11.9844 23.6006 11.7969 22.9886 11.4219C22.3766 11.0469 21.9053 10.5234 21.5745 9.85156C21.2438 9.17969 21.0784 8.39583 21.0784 7.5C21.0784 6.60417 21.2399 5.8151 21.5628 5.13281C21.8857 4.45052 22.3428 3.91667 22.9339 3.53125C23.5251 3.14583 24.2165 2.95312 25.0081 2.95312C25.4717 2.95312 25.9287 3.02995 26.3792 3.18359C26.8297 3.33724 27.2386 3.58464 27.6058 3.92578C27.973 4.26693 28.2659 4.71615 28.4847 5.27344C28.7034 5.83073 28.8128 6.51302 28.8128 7.32031V7.90625H22.0316V6.71875H28.055L27.3988 7.15625C27.3988 6.58333 27.3089 6.07422 27.1292 5.62891C26.9495 5.18359 26.6826 4.83464 26.3284 4.58203C25.9743 4.32943 25.5342 4.20312 25.0081 4.20312C24.4821 4.20312 24.0316 4.33203 23.6566 4.58984C23.2816 4.84766 22.9951 5.18359 22.7972 5.59766C22.5993 6.01172 22.5003 6.45573 22.5003 6.92969V7.71875C22.5003 8.36458 22.6123 8.91276 22.8363 9.36328C23.0602 9.8138 23.374 10.1549 23.7777 10.3867C24.1813 10.6185 24.6488 10.7344 25.18 10.7344C25.5238 10.7344 25.8363 10.6849 26.1175 10.5859C26.3988 10.487 26.6409 10.3372 26.8441 10.1367C27.0472 9.9362 27.2034 9.6875 27.3128 9.39062L28.6722 9.76562C28.5368 10.2031 28.3076 10.5885 27.9847 10.9219C27.6618 11.2552 27.262 11.5156 26.7855 11.7031C26.3089 11.8906 25.7711 11.9844 25.1722 11.9844ZM33.43 12C32.8779 12 32.3766 11.8958 31.9261 11.6875C31.4756 11.4792 31.1175 11.1745 30.8519 10.7734C30.5863 10.3724 30.4534 9.88542 30.4534 9.3125C30.4534 8.8125 30.5524 8.40625 30.7503 8.09375C30.9482 7.78125 31.2126 7.53516 31.5433 7.35547C31.874 7.17578 32.2399 7.04167 32.6409 6.95312C33.042 6.86458 33.4456 6.79427 33.8519 6.74219C34.3727 6.67448 34.7972 6.6224 35.1253 6.58594C35.4534 6.54948 35.6969 6.48698 35.8558 6.39844C36.0146 6.3099 36.0941 6.15885 36.0941 5.94531V5.89844C36.0941 5.53385 36.0264 5.22526 35.8909 4.97266C35.7555 4.72005 35.5524 4.52604 35.2816 4.39062C35.0107 4.25521 34.6722 4.1875 34.2659 4.1875C33.8493 4.1875 33.4925 4.2526 33.1956 4.38281C32.8988 4.51302 32.6579 4.67578 32.473 4.87109C32.2881 5.06641 32.1488 5.26562 32.055 5.46875L30.7034 5.02344C30.9274 4.49219 31.2295 4.07682 31.6097 3.77734C31.9899 3.47786 32.4092 3.26562 32.8675 3.14062C33.3258 3.01562 33.779 2.95312 34.2269 2.95312C34.5185 2.95312 34.8506 2.98828 35.223 3.05859C35.5954 3.12891 35.9547 3.26823 36.3011 3.47656C36.6474 3.6849 36.9339 3.99349 37.1605 4.40234C37.387 4.8112 37.5003 5.35677 37.5003 6.03906V11.7969H36.1175V10.6094H36.0238C35.9248 10.8125 35.7659 11.0221 35.5472 11.2383C35.3284 11.4544 35.0446 11.6354 34.6956 11.7812C34.3467 11.9271 33.9248 12 33.43 12ZM33.6722 10.7578C34.193 10.7578 34.6331 10.6562 34.9925 10.4531C35.3519 10.25 35.6253 9.98568 35.8128 9.66016C36.0003 9.33464 36.0941 8.99479 36.0941 8.64062V7.42969C36.0368 7.4974 35.9118 7.55859 35.7191 7.61328C35.5264 7.66797 35.3063 7.71615 35.0589 7.75781C34.8115 7.79948 34.5719 7.83464 34.3402 7.86328C34.1084 7.89193 33.9248 7.91406 33.7894 7.92969C33.4508 7.97135 33.1344 8.04297 32.8402 8.14453C32.5459 8.24609 32.3102 8.39453 32.1331 8.58984C31.956 8.78516 31.8675 9.04948 31.8675 9.38281C31.8675 9.6849 31.9456 9.9375 32.1019 10.1406C32.2581 10.3438 32.4717 10.4974 32.7425 10.6016C33.0133 10.7057 33.3232 10.7578 33.6722 10.7578ZM43.2425 11.9844C42.5185 11.9844 41.8779 11.7995 41.3206 11.4297C40.7633 11.0599 40.3284 10.5365 40.0159 9.85938C39.7034 9.18229 39.5472 8.38021 39.5472 7.45312C39.5472 6.53125 39.7047 5.73307 40.0198 5.05859C40.3349 4.38411 40.7711 3.86458 41.3284 3.5C41.8857 3.13542 42.5264 2.95312 43.2503 2.95312C43.818 2.95312 44.2685 3.04688 44.6019 3.23438C44.9352 3.42188 45.1917 3.63411 45.3714 3.87109C45.5511 4.10807 45.6878 4.30469 45.7816 4.46094H45.8909V0.15625H47.2972V11.7969H45.9378V10.4453H45.7816C45.6878 10.6068 45.5485 10.8086 45.3636 11.0508C45.1787 11.293 44.9183 11.5091 44.5823 11.6992C44.2464 11.8893 43.7998 11.9844 43.2425 11.9844ZM43.4534 10.7266C43.9847 10.7266 44.4326 10.5872 44.7972 10.3086C45.1618 10.0299 45.4378 9.64323 45.6253 9.14844C45.8128 8.65365 45.9066 8.08333 45.9066 7.4375C45.9066 6.79167 45.8141 6.22786 45.6292 5.74609C45.4443 5.26432 45.1696 4.88802 44.805 4.61719C44.4404 4.34635 43.9899 4.21094 43.4534 4.21094C42.9014 4.21094 42.4417 4.35417 42.0745 4.64062C41.7073 4.92708 41.4326 5.3138 41.2503 5.80078C41.068 6.28776 40.9769 6.83333 40.9769 7.4375C40.9769 8.04688 41.0693 8.60026 41.2542 9.09766C41.4391 9.59505 41.7165 9.99089 42.0863 10.2852C42.456 10.5794 42.9118 10.7266 43.4534 10.7266ZM49.7034 14.9609L50.0628 13.7422L50.2113 13.7812C50.4977 13.8542 50.7581 13.8737 50.9925 13.8398C51.2269 13.806 51.4378 13.6901 51.6253 13.4922C51.8128 13.2943 51.9769 12.987 52.1175 12.5703L52.3675 11.8438L49.0316 3.0625H50.5706L52.43 8.24219C52.6279 8.78385 52.7946 9.32031 52.93 9.85156C53.0654 10.3828 53.2086 10.8984 53.3597 11.3984H52.8441C52.9951 10.8984 53.1396 10.3815 53.2777 9.84766C53.4157 9.3138 53.581 8.77865 53.7738 8.24219L55.6488 3.0625H57.18L53.3441 13.1016C53.167 13.5651 52.9547 13.9466 52.7073 14.2461C52.4599 14.5456 52.1722 14.7669 51.8441 14.9102C51.5159 15.0534 51.1461 15.125 50.7347 15.125C50.4847 15.125 50.2685 15.1068 50.0863 15.0703C49.904 15.0339 49.7764 14.9974 49.7034 14.9609ZM64.7425 6.5625V11.7969H63.3363V0.15625H64.7425V5.17969H64.5003C64.7659 4.3724 65.1448 3.79948 65.637 3.46094C66.1292 3.1224 66.706 2.95312 67.3675 2.95312C67.956 2.95312 68.473 3.07422 68.9183 3.31641C69.3636 3.55859 69.7099 3.92318 69.9573 4.41016C70.2047 4.89714 70.3284 5.51042 70.3284 6.25V11.7969H68.9144V6.36719C68.9144 5.69531 68.7386 5.16927 68.387 4.78906C68.0355 4.40885 67.555 4.21875 66.9456 4.21875C66.529 4.21875 66.154 4.3099 65.8206 4.49219C65.4873 4.67448 65.2243 4.9401 65.0316 5.28906C64.8389 5.63802 64.7425 6.0625 64.7425 6.5625ZM75.2425 12C74.6904 12 74.1891 11.8958 73.7386 11.6875C73.2881 11.4792 72.93 11.1745 72.6644 10.7734C72.3988 10.3724 72.2659 9.88542 72.2659 9.3125C72.2659 8.8125 72.3649 8.40625 72.5628 8.09375C72.7607 7.78125 73.0251 7.53516 73.3558 7.35547C73.6865 7.17578 74.0524 7.04167 74.4534 6.95312C74.8545 6.86458 75.2581 6.79427 75.6644 6.74219C76.1852 6.67448 76.6097 6.6224 76.9378 6.58594C77.2659 6.54948 77.5094 6.48698 77.6683 6.39844C77.8271 6.3099 77.9066 6.15885 77.9066 5.94531V5.89844C77.9066 5.53385 77.8389 5.22526 77.7034 4.97266C77.568 4.72005 77.3649 4.52604 77.0941 4.39062C76.8232 4.25521 76.4847 4.1875 76.0784 4.1875C75.6618 4.1875 75.305 4.2526 75.0081 4.38281C74.7113 4.51302 74.4704 4.67578 74.2855 4.87109C74.1006 5.06641 73.9613 5.26562 73.8675 5.46875L72.5159 5.02344C72.7399 4.49219 73.042 4.07682 73.4222 3.77734C73.8024 3.47786 74.2217 3.26562 74.68 3.14062C75.1383 3.01562 75.5915 2.95312 76.0394 2.95312C76.331 2.95312 76.6631 2.98828 77.0355 3.05859C77.4079 3.12891 77.7672 3.26823 78.1136 3.47656C78.4599 3.6849 78.7464 3.99349 78.973 4.40234C79.1995 4.8112 79.3128 5.35677 79.3128 6.03906V11.7969H77.93V10.6094H77.8363C77.7373 10.8125 77.5784 11.0221 77.3597 11.2383C77.1409 11.4544 76.8571 11.6354 76.5081 11.7812C76.1592 11.9271 75.7373 12 75.2425 12ZM75.4847 10.7578C76.0055 10.7578 76.4456 10.6562 76.805 10.4531C77.1644 10.25 77.4378 9.98568 77.6253 9.66016C77.8128 9.33464 77.9066 8.99479 77.9066 8.64062V7.42969C77.8493 7.4974 77.7243 7.55859 77.5316 7.61328C77.3389 7.66797 77.1188 7.71615 76.8714 7.75781C76.624 7.79948 76.3844 7.83464 76.1527 7.86328C75.9209 7.89193 75.7373 7.91406 75.6019 7.92969C75.2633 7.97135 74.9469 8.04297 74.6527 8.14453C74.3584 8.24609 74.1227 8.39453 73.9456 8.58984C73.7685 8.78516 73.68 9.04948 73.68 9.38281C73.68 9.6849 73.7581 9.9375 73.9144 10.1406C74.0706 10.3438 74.2842 10.4974 74.555 10.6016C74.8258 10.7057 75.1357 10.7578 75.4847 10.7578ZM84.0706 11.7969L80.7347 3.0625H82.2738L84.1331 8.24219C84.331 8.77865 84.499 9.3138 84.637 9.84766C84.7751 10.3815 84.9196 10.8984 85.0706 11.3984H84.555C84.706 10.8984 84.8506 10.3815 84.9886 9.84766C85.1266 9.3138 85.292 8.77865 85.4847 8.24219L87.3441 3.0625H88.8831L85.5472 11.7969H84.0706ZM93.8988 11.9844C93.055 11.9844 92.3271 11.7969 91.7152 11.4219C91.1032 11.0469 90.6318 10.5234 90.3011 9.85156C89.9704 9.17969 89.805 8.39583 89.805 7.5C89.805 6.60417 89.9665 5.8151 90.2894 5.13281C90.6123 4.45052 91.0693 3.91667 91.6605 3.53125C92.2516 3.14583 92.943 2.95312 93.7347 2.95312C94.1982 2.95312 94.6553 3.02995 95.1058 3.18359C95.5563 3.33724 95.9652 3.58464 96.3323 3.92578C96.6995 4.26693 96.9925 4.71615 97.2113 5.27344C97.43 5.83073 97.5394 6.51302 97.5394 7.32031V7.90625H90.7581V6.71875H96.7816L96.1253 7.15625C96.1253 6.58333 96.0355 6.07422 95.8558 5.62891C95.6761 5.18359 95.4092 4.83464 95.055 4.58203C94.7008 4.32943 94.2607 4.20312 93.7347 4.20312C93.2086 4.20312 92.7581 4.33203 92.3831 4.58984C92.0081 4.84766 91.7217 5.18359 91.5238 5.59766C91.3258 6.01172 91.2269 6.45573 91.2269 6.92969V7.71875C91.2269 8.36458 91.3389 8.91276 91.5628 9.36328C91.7868 9.8138 92.1006 10.1549 92.5042 10.3867C92.9079 10.6185 93.3753 10.7344 93.9066 10.7344C94.2503 10.7344 94.5628 10.6849 94.8441 10.5859C95.1253 10.487 95.3675 10.3372 95.5706 10.1367C95.7738 9.9362 95.93 9.6875 96.0394 9.39062L97.3988 9.76562C97.2633 10.2031 97.0342 10.5885 96.7113 10.9219C96.3883 11.2552 95.9886 11.5156 95.512 11.7031C95.0355 11.8906 94.4977 11.9844 93.8988 11.9844ZM106.5 12C105.948 12 105.447 11.8958 104.996 11.6875C104.546 11.4792 104.188 11.1745 103.922 10.7734C103.657 10.3724 103.524 9.88542 103.524 9.3125C103.524 8.8125 103.623 8.40625 103.821 8.09375C104.019 7.78125 104.283 7.53516 104.614 7.35547C104.944 7.17578 105.31 7.04167 105.711 6.95312C106.112 6.86458 106.516 6.79427 106.922 6.74219C107.443 6.67448 107.868 6.6224 108.196 6.58594C108.524 6.54948 108.767 6.48698 108.926 6.39844C109.085 6.3099 109.164 6.15885 109.164 5.94531V5.89844C109.164 5.53385 109.097 5.22526 108.961 4.97266C108.826 4.72005 108.623 4.52604 108.352 4.39062C108.081 4.25521 107.743 4.1875 107.336 4.1875C106.92 4.1875 106.563 4.2526 106.266 4.38281C105.969 4.51302 105.728 4.67578 105.543 4.87109C105.358 5.06641 105.219 5.26562 105.125 5.46875L103.774 5.02344C103.998 4.49219 104.3 4.07682 104.68 3.77734C105.06 3.47786 105.479 3.26562 105.938 3.14062C106.396 3.01562 106.849 2.95312 107.297 2.95312C107.589 2.95312 107.921 2.98828 108.293 3.05859C108.666 3.12891 109.025 3.26823 109.371 3.47656C109.718 3.6849 110.004 3.99349 110.231 4.40234C110.457 4.8112 110.571 5.35677 110.571 6.03906V11.7969H109.188V10.6094H109.094C108.995 10.8125 108.836 11.0221 108.618 11.2383C108.399 11.4544 108.115 11.6354 107.766 11.7812C107.417 11.9271 106.995 12 106.5 12ZM106.743 10.7578C107.263 10.7578 107.703 10.6562 108.063 10.4531C108.422 10.25 108.696 9.98568 108.883 9.66016C109.071 9.33464 109.164 8.99479 109.164 8.64062V7.42969C109.107 7.4974 108.982 7.55859 108.789 7.61328C108.597 7.66797 108.377 7.71615 108.129 7.75781C107.882 7.79948 107.642 7.83464 107.41 7.86328C107.179 7.89193 106.995 7.91406 106.86 7.92969C106.521 7.97135 106.205 8.04297 105.91 8.14453C105.616 8.24609 105.381 8.39453 105.203 8.58984C105.026 8.78516 104.938 9.04948 104.938 9.38281C104.938 9.6849 105.016 9.9375 105.172 10.1406C105.328 10.3438 105.542 10.4974 105.813 10.6016C106.084 10.7057 106.394 10.7578 106.743 10.7578ZM114.446 6.5625V11.7969H113.039V3.0625H114.391L114.399 5.17969H114.203C114.469 4.3724 114.848 3.79948 115.34 3.46094C115.832 3.1224 116.409 2.95312 117.071 2.95312C117.659 2.95312 118.175 3.07422 118.618 3.31641C119.06 3.55859 119.405 3.92318 119.653 4.41016C119.9 4.89714 120.024 5.51042 120.024 6.25V11.7969H118.618V6.36719C118.618 5.69531 118.442 5.16927 118.09 4.78906C117.739 4.40885 117.258 4.21875 116.649 4.21875C116.232 4.21875 115.857 4.3099 115.524 4.49219C115.19 4.67448 114.927 4.9401 114.735 5.28906C114.542 5.63802 114.446 6.0625 114.446 6.5625ZM129.438 12C128.886 12 128.384 11.8958 127.934 11.6875C127.483 11.4792 127.125 11.1745 126.86 10.7734C126.594 10.3724 126.461 9.88542 126.461 9.3125C126.461 8.8125 126.56 8.40625 126.758 8.09375C126.956 7.78125 127.22 7.53516 127.551 7.35547C127.882 7.17578 128.248 7.04167 128.649 6.95312C129.05 6.86458 129.453 6.79427 129.86 6.74219C130.381 6.67448 130.805 6.6224 131.133 6.58594C131.461 6.54948 131.705 6.48698 131.864 6.39844C132.022 6.3099 132.102 6.15885 132.102 5.94531V5.89844C132.102 5.53385 132.034 5.22526 131.899 4.97266C131.763 4.72005 131.56 4.52604 131.289 4.39062C131.019 4.25521 130.68 4.1875 130.274 4.1875C129.857 4.1875 129.5 4.2526 129.203 4.38281C128.907 4.51302 128.666 4.67578 128.481 4.87109C128.296 5.06641 128.157 5.26562 128.063 5.46875L126.711 5.02344C126.935 4.49219 127.237 4.07682 127.618 3.77734C127.998 3.47786 128.417 3.26562 128.875 3.14062C129.334 3.01562 129.787 2.95312 130.235 2.95312C130.526 2.95312 130.858 2.98828 131.231 3.05859C131.603 3.12891 131.963 3.26823 132.309 3.47656C132.655 3.6849 132.942 3.99349 133.168 4.40234C133.395 4.8112 133.508 5.35677 133.508 6.03906V11.7969H132.125V10.6094H132.032C131.933 10.8125 131.774 11.0221 131.555 11.2383C131.336 11.4544 131.052 11.6354 130.703 11.7812C130.354 11.9271 129.933 12 129.438 12ZM129.68 10.7578C130.201 10.7578 130.641 10.6562 131 10.4531C131.36 10.25 131.633 9.98568 131.821 9.66016C132.008 9.33464 132.102 8.99479 132.102 8.64062V7.42969C132.045 7.4974 131.92 7.55859 131.727 7.61328C131.534 7.66797 131.314 7.71615 131.067 7.75781C130.819 7.79948 130.58 7.83464 130.348 7.86328C130.116 7.89193 129.933 7.91406 129.797 7.92969C129.459 7.97135 129.142 8.04297 128.848 8.14453C128.554 8.24609 128.318 8.39453 128.141 8.58984C127.964 8.78516 127.875 9.04948 127.875 9.38281C127.875 9.6849 127.953 9.9375 128.11 10.1406C128.266 10.3438 128.479 10.4974 128.75 10.6016C129.021 10.7057 129.331 10.7578 129.68 10.7578ZM139.532 11.9844C138.74 11.9844 138.046 11.7969 137.45 11.4219C136.853 11.0469 136.388 10.5208 136.055 9.84375C135.722 9.16667 135.555 8.38021 135.555 7.48438C135.555 6.57292 135.722 5.77734 136.055 5.09766C136.388 4.41797 136.853 3.89062 137.45 3.51562C138.046 3.14062 138.74 2.95312 139.532 2.95312C139.953 2.95312 140.352 3.00781 140.727 3.11719C141.102 3.22656 141.444 3.38411 141.754 3.58984C142.064 3.79557 142.331 4.04818 142.555 4.34766C142.779 4.64714 142.951 4.98698 143.071 5.36719L141.719 5.75C141.657 5.52604 141.56 5.32031 141.43 5.13281C141.3 4.94531 141.142 4.78255 140.957 4.64453C140.772 4.50651 140.56 4.39974 140.321 4.32422C140.081 4.2487 139.818 4.21094 139.532 4.21094C138.948 4.21094 138.469 4.36328 138.094 4.66797C137.719 4.97266 137.44 5.3724 137.258 5.86719C137.076 6.36198 136.985 6.90104 136.985 7.48438C136.985 8.05729 137.076 8.58984 137.258 9.08203C137.44 9.57422 137.719 9.97135 138.094 10.2734C138.469 10.5755 138.948 10.7266 139.532 10.7266C139.823 10.7266 140.091 10.6875 140.336 10.6094C140.581 10.5312 140.798 10.4206 140.989 10.2773C141.179 10.1341 141.339 9.96354 141.469 9.76562C141.599 9.56771 141.696 9.35156 141.758 9.11719L143.102 9.5C142.987 9.89062 142.817 10.2383 142.59 10.543C142.364 10.8477 142.094 11.1081 141.782 11.3242C141.469 11.5404 141.123 11.7044 140.742 11.8164C140.362 11.9284 139.959 11.9844 139.532 11.9844ZM148.672 11.9844C147.881 11.9844 147.187 11.7969 146.59 11.4219C145.994 11.0469 145.529 10.5208 145.196 9.84375C144.862 9.16667 144.696 8.38021 144.696 7.48438C144.696 6.57292 144.862 5.77734 145.196 5.09766C145.529 4.41797 145.994 3.89062 146.59 3.51562C147.187 3.14062 147.881 2.95312 148.672 2.95312C149.094 2.95312 149.492 3.00781 149.867 3.11719C150.242 3.22656 150.585 3.38411 150.895 3.58984C151.205 3.79557 151.472 4.04818 151.696 4.34766C151.92 4.64714 152.091 4.98698 152.211 5.36719L150.86 5.75C150.797 5.52604 150.701 5.32031 150.571 5.13281C150.44 4.94531 150.283 4.78255 150.098 4.64453C149.913 4.50651 149.701 4.39974 149.461 4.32422C149.222 4.2487 148.959 4.21094 148.672 4.21094C148.089 4.21094 147.61 4.36328 147.235 4.66797C146.86 4.97266 146.581 5.3724 146.399 5.86719C146.216 6.36198 146.125 6.90104 146.125 7.48438C146.125 8.05729 146.216 8.58984 146.399 9.08203C146.581 9.57422 146.86 9.97135 147.235 10.2734C147.61 10.5755 148.089 10.7266 148.672 10.7266C148.964 10.7266 149.232 10.6875 149.477 10.6094C149.722 10.5312 149.939 10.4206 150.129 10.2773C150.319 10.1341 150.479 9.96354 150.61 9.76562C150.74 9.56771 150.836 9.35156 150.899 9.11719L152.242 9.5C152.128 9.89062 151.957 10.2383 151.731 10.543C151.504 10.8477 151.235 11.1081 150.922 11.3242C150.61 11.5404 150.263 11.7044 149.883 11.8164C149.503 11.9284 149.099 11.9844 148.672 11.9844ZM157.813 11.9844C157.021 11.9844 156.327 11.7969 155.731 11.4219C155.134 11.0469 154.67 10.5208 154.336 9.84375C154.003 9.16667 153.836 8.38021 153.836 7.48438C153.836 6.57292 154.003 5.77734 154.336 5.09766C154.67 4.41797 155.134 3.89062 155.731 3.51562C156.327 3.14062 157.021 2.95312 157.813 2.95312C158.61 2.95312 159.308 3.14062 159.907 3.51562C160.506 3.89062 160.972 4.41797 161.305 5.09766C161.638 5.77734 161.805 6.57292 161.805 7.48438C161.805 8.38021 161.638 9.16667 161.305 9.84375C160.972 10.5208 160.506 11.0469 159.907 11.4219C159.308 11.7969 158.61 11.9844 157.813 11.9844ZM157.813 10.7266C158.401 10.7266 158.886 10.5755 159.266 10.2734C159.646 9.97135 159.927 9.57422 160.11 9.08203C160.292 8.58984 160.383 8.05729 160.383 7.48438C160.383 6.90625 160.292 6.36849 160.11 5.87109C159.927 5.3737 159.646 4.97266 159.266 4.66797C158.886 4.36328 158.401 4.21094 157.813 4.21094C157.229 4.21094 156.75 4.36328 156.375 4.66797C156 4.97266 155.722 5.3724 155.539 5.86719C155.357 6.36198 155.266 6.90104 155.266 7.48438C155.266 8.05729 155.357 8.58984 155.539 9.08203C155.722 9.57422 156 9.97135 156.375 10.2734C156.75 10.5755 157.229 10.7266 157.813 10.7266ZM166.813 11.9062C166.224 11.9062 165.707 11.7852 165.262 11.543C164.817 11.3008 164.47 10.9349 164.223 10.4453C163.976 9.95573 163.852 9.34375 163.852 8.60938V3.0625H165.258V8.49219C165.258 9.16406 165.435 9.6901 165.789 10.0703C166.144 10.4505 166.625 10.6406 167.235 10.6406C167.651 10.6406 168.025 10.5495 168.356 10.3672C168.687 10.1849 168.948 9.91797 169.141 9.56641C169.334 9.21484 169.43 8.79167 169.43 8.29688V3.0625H170.844V11.7969H169.485V9.67969H169.672C169.401 10.4974 169.017 11.0729 168.52 11.4062C168.022 11.7396 167.453 11.9062 166.813 11.9062ZM174.719 6.5625V11.7969H173.313V3.0625H174.664L174.672 5.17969H174.477C174.742 4.3724 175.121 3.79948 175.614 3.46094C176.106 3.1224 176.683 2.95312 177.344 2.95312C177.933 2.95312 178.448 3.07422 178.891 3.31641C179.334 3.55859 179.679 3.92318 179.926 4.41016C180.173 4.89714 180.297 5.51042 180.297 6.25V11.7969H178.891V6.36719C178.891 5.69531 178.715 5.16927 178.364 4.78906C178.012 4.40885 177.532 4.21875 176.922 4.21875C176.506 4.21875 176.131 4.3099 175.797 4.49219C175.464 4.67448 175.201 4.9401 175.008 5.28906C174.815 5.63802 174.719 6.0625 174.719 6.5625ZM186.203 3.0625V4.26562H181.688V3.0625H186.203ZM183 0.984375H184.407V9.53125C184.407 9.92188 184.486 10.207 184.645 10.3867C184.804 10.5664 185.068 10.6562 185.438 10.6562C185.526 10.6562 185.64 10.6458 185.778 10.625C185.916 10.6042 186.042 10.5833 186.157 10.5625L186.446 11.75C186.3 11.8021 186.134 11.8411 185.95 11.8672C185.765 11.8932 185.581 11.9062 185.399 11.9062C184.644 11.9062 184.055 11.707 183.633 11.3086C183.211 10.9102 183 10.3542 183 9.64062V0.984375ZM189.758 8.28906V8.20312C189.758 7.48958 189.827 6.9388 189.965 6.55078C190.103 6.16276 190.302 5.85547 190.563 5.62891C190.823 5.40234 191.133 5.18229 191.492 4.96875C191.836 4.76042 192.125 4.49609 192.36 4.17578C192.594 3.85547 192.711 3.46875 192.711 3.01562C192.711 2.65104 192.627 2.33724 192.457 2.07422C192.288 1.8112 192.06 1.60677 191.774 1.46094C191.487 1.3151 191.167 1.24219 190.813 1.24219C190.506 1.24219 190.21 1.30599 189.926 1.43359C189.642 1.5612 189.407 1.76042 189.219 2.03125C189.032 2.30208 188.922 2.65365 188.891 3.08594H187.407C187.433 2.42969 187.601 1.8724 187.91 1.41406C188.22 0.955729 188.628 0.605469 189.133 0.363281C189.638 0.121094 190.198 0 190.813 0C191.49 0 192.077 0.13151 192.575 0.394531C193.072 0.657552 193.459 1.02083 193.735 1.48438C194.011 1.94792 194.149 2.47656 194.149 3.07031C194.149 3.70052 194.011 4.23958 193.735 4.6875C193.459 5.13542 193.068 5.51302 192.563 5.82031C192.229 6.02344 191.96 6.22005 191.754 6.41016C191.548 6.60026 191.4 6.83073 191.309 7.10156C191.218 7.3724 191.172 7.73958 191.172 8.20312V8.28906H189.758ZM190.485 11.8984C190.193 11.8984 189.944 11.7956 189.739 11.5898C189.533 11.3841 189.43 11.138 189.43 10.8516C189.43 10.5599 189.533 10.3112 189.739 10.1055C189.944 9.89974 190.193 9.79688 190.485 9.79688C190.776 9.79688 191.024 9.89974 191.227 10.1055C191.43 10.3112 191.532 10.5599 191.532 10.8516C191.532 11.138 191.43 11.3841 191.227 11.5898C191.024 11.7956 190.776 11.8984 190.485 11.8984Z" fill="#475569"/>
</svg>
