<svg width="124" height="11" viewBox="0 0 124 11" fill="none" xmlns="http://www.w3.org/2000/svg">
<path d="M4.65879 10.8073C3.76702 10.8073 2.96981 10.6003 2.26717 10.1861C1.56453 9.77192 1.011 9.17487 0.606586 8.39494C0.202173 7.615 -3.38554e-05 6.67825 -3.38554e-05 5.58468C-3.38554e-05 4.48492 0.203403 3.54466 0.610278 2.7639C1.01715 1.98315 1.57232 1.38537 2.27578 0.970562C2.97925 0.555757 3.77358 0.348354 4.65879 0.348354C5.21642 0.348354 5.73818 0.427241 6.22408 0.585014C6.70997 0.742787 7.1426 0.97334 7.52195 1.27667C7.90129 1.58001 8.21411 1.94978 8.46038 2.38601C8.70666 2.82223 8.87045 3.31879 8.95175 3.87569H7.11154C7.05503 3.57236 6.95463 3.30411 6.81034 3.07096C6.66606 2.83781 6.48673 2.63993 6.27235 2.47732C6.05797 2.31472 5.81657 2.19194 5.54815 2.109C5.27972 2.02606 4.99311 1.98459 4.68832 1.98459C4.13178 1.98459 3.63818 2.12436 3.20751 2.40391C2.77684 2.68345 2.4401 3.09087 2.19729 3.62618C1.95448 4.16148 1.83307 4.81431 1.83307 5.58468C1.83307 6.36198 1.95602 7.01787 2.20194 7.55235C2.44785 8.08683 2.78532 8.49024 3.21435 8.76259C3.64337 9.03493 4.13306 9.17111 4.6834 9.17111C4.98819 9.17111 5.27439 9.12891 5.54199 9.0445C5.8096 8.9601 6.05141 8.83733 6.26743 8.67618C6.48345 8.51504 6.66442 8.31716 6.81034 8.08255C6.95627 7.84794 7.05831 7.58042 7.11646 7.28H8.95667C8.88977 7.76836 8.74097 8.225 8.51028 8.64993C8.27959 9.07485 7.97826 9.44955 7.6063 9.77402C7.23433 10.0985 6.80048 10.3518 6.30474 10.534C5.809 10.7162 5.26035 10.8073 4.65879 10.8073ZM13.8687 10.8248C13.1268 10.8248 12.4822 10.6604 11.935 10.3314C11.3877 10.0025 10.9646 9.54219 10.6655 8.95056C10.3665 8.35893 10.217 7.67119 10.217 6.88734C10.217 6.09473 10.3665 5.40189 10.6655 4.8088C10.9646 4.21572 11.3877 3.7547 11.935 3.42576C12.4822 3.09681 13.1268 2.93234 13.8687 2.93234C14.6135 2.93234 15.2595 3.09681 15.8066 3.42576C16.3536 3.7547 16.7767 4.21572 17.0757 4.8088C17.3748 5.40189 17.5243 6.09473 17.5243 6.88734C17.5243 7.67119 17.3748 8.35893 17.0757 8.95056C16.7767 9.54219 16.3536 10.0025 15.8066 10.3314C15.2595 10.6604 14.6135 10.8248 13.8687 10.8248ZM13.8687 9.3822C14.2836 9.3822 14.6283 9.27054 14.9027 9.04723C15.1772 8.82392 15.3818 8.52319 15.5167 8.14502C15.6516 7.76685 15.7191 7.34599 15.7191 6.88242C15.7191 6.41429 15.6516 5.99092 15.5167 5.61229C15.3818 5.23367 15.1772 4.9328 14.9027 4.70967C14.6283 4.48654 14.2836 4.37498 13.8687 4.37498C13.4551 4.37498 13.1121 4.48654 12.8398 4.70967C12.5674 4.9328 12.3638 5.23294 12.2289 5.61011C12.094 5.98727 12.0265 6.41137 12.0265 6.88242C12.0265 7.34599 12.094 7.76685 12.2289 8.14502C12.3638 8.52319 12.5674 8.82392 12.8398 9.04723C13.1121 9.27054 13.4551 9.3822 13.8687 9.3822ZM20.8528 6.1939V10.6706H19.0761V3.02804H20.7607L20.7848 4.91749H20.6458C20.8569 4.25705 21.1704 3.76108 21.5863 3.42958C22.0022 3.09809 22.5217 2.93234 23.1448 2.93234C23.6696 2.93234 24.1277 3.04445 24.5192 3.26867C24.9107 3.49288 25.2151 3.81928 25.4324 4.24784C25.6497 4.67641 25.7583 5.19786 25.7583 5.81218V10.6706H23.9815V6.08452C23.9815 5.57209 23.8486 5.17046 23.5829 4.87961C23.3171 4.58876 22.9512 4.44334 22.4853 4.44334C22.1715 4.44334 21.8914 4.51202 21.6449 4.64937C21.3983 4.78673 21.2047 4.98552 21.0639 5.24575C20.9232 5.50597 20.8528 5.82202 20.8528 6.1939ZM31.6613 3.02804V4.42037H26.8359V3.02804H31.6613ZM28.2365 10.6706V2.29741C28.2365 1.78808 28.343 1.36399 28.5561 1.02511C28.7692 0.686229 29.0561 0.431751 29.4166 0.261673C29.7772 0.0915961 30.1757 0.00655746 30.6121 0.00655746C30.9251 0.00655746 31.2023 0.0317138 31.4438 0.0820265C31.6852 0.132339 31.863 0.177182 31.9771 0.216557L31.6156 1.59904C31.5387 1.57462 31.444 1.55037 31.3316 1.52631C31.2193 1.50225 31.0888 1.49022 30.9402 1.49022C30.6063 1.49022 30.3675 1.57188 30.2238 1.73522C30.0802 1.89855 30.0083 2.13116 30.0083 2.43304V10.6706H28.2365ZM33.1649 10.6706V3.02804H34.9417V10.6706H33.1649ZM34.0552 1.94686C33.7719 1.94686 33.5288 1.85148 33.3257 1.66072C33.1226 1.46996 33.0211 1.24104 33.0211 0.973971C33.0211 0.701452 33.1226 0.470994 33.3257 0.282597C33.5288 0.0941997 33.7719 1.07288e-06 34.0552 1.07288e-06C34.341 1.07288e-06 34.5855 0.0941118 34.7888 0.282333C34.9921 0.470555 35.0937 0.701058 35.0937 0.973843C35.0937 1.24117 34.9921 1.47017 34.7888 1.66085C34.5855 1.85153 34.341 1.94686 34.0552 1.94686ZM36.829 10.6706V3.02804H38.55V4.30718H38.632C38.7717 3.86403 39.012 3.52264 39.3529 3.28302C39.6939 3.0434 40.0832 2.92359 40.5209 2.92359C40.6219 2.92359 40.7338 2.92833 40.8567 2.93781C40.9796 2.94729 41.084 2.96005 41.1701 2.97609V4.60959C41.0975 4.58571 40.9789 4.56424 40.8142 4.54519C40.6495 4.52614 40.4892 4.51662 40.3334 4.51662C40.0032 4.51662 39.707 4.58721 39.4447 4.7284C39.1824 4.86958 38.977 5.06445 38.8285 5.31301C38.68 5.56156 38.6058 5.84918 38.6058 6.17584V10.6706H36.829ZM42.5233 10.6706V3.02804H44.1921L44.2605 4.86499H44.1303C44.2417 4.41254 44.4122 4.04254 44.6419 3.75497C44.8716 3.46741 45.1404 3.25404 45.4484 3.11486C45.7564 2.97568 46.0785 2.90609 46.4149 2.90609C46.9659 2.90609 47.4115 3.07945 47.7514 3.42617C48.0914 3.77288 48.3312 4.28166 48.4708 4.95249H48.2576C48.3635 4.49749 48.5429 4.11828 48.796 3.81486C49.049 3.51143 49.35 3.28412 49.699 3.1329C50.048 2.98169 50.4204 2.90609 50.8161 2.90609C51.2746 2.90609 51.6869 3.00589 52.0531 3.2055C52.4194 3.40511 52.7091 3.69819 52.9223 4.08474C53.1355 4.47129 53.2421 4.94848 53.2421 5.51632V10.6706H51.4653V5.7892C51.4653 5.31652 51.3358 4.9703 51.0767 4.75055C50.8177 4.53079 50.5061 4.42092 50.1418 4.42092C49.8558 4.42092 49.6083 4.48244 49.3993 4.60549C49.1903 4.72854 49.0297 4.89857 48.9174 5.11559C48.8051 5.33261 48.7489 5.58486 48.7489 5.87233V10.6706H47.0164V5.71045C47.0164 5.31944 46.8957 5.00676 46.6541 4.77242C46.4126 4.53808 46.1024 4.42092 45.7236 4.42092C45.4651 4.42092 45.2274 4.48098 45.0105 4.60111C44.7936 4.72124 44.6209 4.89711 44.4926 5.12871C44.3643 5.36032 44.3001 5.64611 44.3001 5.98608V10.6706H42.5233ZM58.7376 10.6706V0.485073H62.5488C63.3286 0.485073 63.9847 0.631408 64.5171 0.924077C65.0495 1.21675 65.4522 1.61674 65.7252 2.12406C65.9981 2.63137 66.1346 3.20942 66.1346 3.85819C66.1346 4.50861 65.9969 5.08688 65.7215 5.59301C65.446 6.09915 65.04 6.49763 64.5033 6.78848C63.9667 7.07933 63.3051 7.22475 62.5187 7.22475H59.9943V5.72141H62.2775C62.7398 5.72141 63.1178 5.64143 63.4115 5.48146C63.7052 5.3215 63.9215 5.10097 64.0606 4.81988C64.1997 4.53878 64.2693 4.21822 64.2693 3.85819C64.2693 3.49488 64.1997 3.17455 64.0606 2.89719C63.9215 2.61983 63.7044 2.40313 63.4093 2.24709C63.1142 2.09105 62.734 2.01303 62.2688 2.01303H60.5631V10.6706H58.7376ZM69.7006 10.8287C69.2158 10.8287 68.7797 10.7412 68.392 10.5663C68.0044 10.3914 67.6984 10.1326 67.4742 9.78988C67.25 9.44717 67.1379 9.02434 67.1379 8.5214C67.1379 8.09046 67.2187 7.73417 67.3804 7.45253C67.5421 7.17089 67.7615 6.94572 68.0386 6.77701C68.3157 6.6083 68.6276 6.48069 68.9744 6.3942C69.3213 6.3077 69.6798 6.24494 70.05 6.20593C70.4959 6.15653 70.8571 6.11342 71.1335 6.0766C71.4099 6.03978 71.6136 5.98058 71.7444 5.899C71.8752 5.81743 71.9406 5.6906 71.9406 5.51851V5.48242C71.9406 5.23067 71.8899 5.01766 71.7887 4.84339C71.6874 4.66911 71.538 4.53545 71.3404 4.44239C71.1428 4.34933 70.8982 4.3028 70.6067 4.3028C70.311 4.3028 70.0546 4.34828 69.8375 4.43924C69.6204 4.53021 69.4433 4.64842 69.3061 4.79389C69.1689 4.93936 69.0683 5.09686 69.0044 5.2664L67.3566 4.92842C67.5083 4.47671 67.7415 4.10383 68.0561 3.80979C68.3707 3.51576 68.7462 3.29601 69.1825 3.15054C69.6188 3.00507 70.0912 2.93234 70.5996 2.93234C70.9582 2.93234 71.3209 2.97499 71.6877 3.06031C72.0546 3.14562 72.3912 3.28762 72.6975 3.48632C73.0039 3.68502 73.2504 3.9534 73.4372 4.29146C73.624 4.62952 73.7173 5.05275 73.7173 5.56117V10.6706H72.0177V9.61679H71.9455C71.8343 9.8339 71.6785 10.0346 71.478 10.2188C71.2776 10.403 71.0305 10.5507 70.7366 10.6619C70.4428 10.7731 70.0974 10.8287 69.7006 10.8287ZM70.1561 9.50797C70.5232 9.50797 70.8406 9.43551 71.1083 9.29059C71.376 9.14567 71.5833 8.95294 71.7301 8.7124C71.877 8.47187 71.9504 8.21059 71.9504 7.92859V7.02405C71.8921 7.07181 71.7942 7.11593 71.6567 7.1564C71.5193 7.19686 71.3645 7.23287 71.1923 7.2644C71.0201 7.29594 70.8515 7.32301 70.6864 7.34562C70.5214 7.36822 70.3812 7.38718 70.266 7.40249C69.9993 7.43731 69.7594 7.49669 69.5462 7.58064C69.333 7.66458 69.1653 7.78052 69.0432 7.92845C68.9211 8.07638 68.86 8.26747 68.86 8.50172C68.86 8.72174 68.916 8.90627 69.0281 9.05529C69.1403 9.20432 69.2935 9.31702 69.4878 9.3934C69.6821 9.46978 69.9049 9.50797 70.1561 9.50797ZM78.4929 10.8248C77.9081 10.8248 77.3897 10.7407 76.9375 10.5725C76.4853 10.4042 76.1152 10.1586 75.8271 9.83568C75.5389 9.51275 75.3501 9.12106 75.2606 8.66059L76.9242 8.34832C77.027 8.72494 77.2123 9.00508 77.4801 9.18874C77.7479 9.3724 78.0973 9.46423 78.5285 9.46423C78.9665 9.46423 79.314 9.37654 79.5708 9.20118C79.8277 9.02581 79.9561 8.80961 79.9561 8.55257C79.9561 8.33091 79.8716 8.14834 79.7026 8.00488C79.5336 7.86141 79.274 7.75213 78.9236 7.67702L77.6226 7.39593C76.9003 7.24007 76.3616 6.98436 76.0063 6.6288C75.651 6.27324 75.4734 5.81509 75.4734 5.25437C75.4734 4.78241 75.6034 4.37281 75.8634 4.02554C76.1235 3.67828 76.4846 3.40926 76.9468 3.21849C77.409 3.02772 77.9449 2.93234 78.5544 2.93234C79.1327 2.93234 79.6302 3.01423 80.0471 3.17802C80.464 3.34181 80.8015 3.571 81.0595 3.86558C81.3176 4.16016 81.497 4.50633 81.5978 4.90409L80.0135 5.21335C79.9251 4.94811 79.7668 4.72312 79.5386 4.53836C79.3103 4.35361 78.9903 4.26123 78.5785 4.26123C78.2015 4.26123 77.8865 4.34349 77.6335 4.50801C77.3805 4.67253 77.254 4.88559 77.254 5.14718C77.254 5.36903 77.3372 5.55269 77.5038 5.69816C77.6703 5.84363 77.9481 5.95893 78.3373 6.04406L79.6378 6.3175C80.3617 6.47172 80.8994 6.71964 81.2509 7.06125C81.6025 7.40287 81.7783 7.8431 81.7783 8.38195C81.7783 8.86466 81.6387 9.28935 81.3595 9.65603C81.0803 10.0227 80.6939 10.3092 80.2003 10.5154C79.7066 10.7217 79.1375 10.8248 78.4929 10.8248ZM86.1834 10.8248C85.5986 10.8248 85.0801 10.7407 84.6279 10.5725C84.1757 10.4042 83.8056 10.1586 83.5175 9.83568C83.2294 9.51275 83.0406 9.12106 82.9511 8.66059L84.6146 8.34832C84.7174 8.72494 84.9027 9.00508 85.1705 9.18874C85.4383 9.3724 85.7878 9.46423 86.2189 9.46423C86.6569 9.46423 87.0044 9.37654 87.2613 9.20118C87.5181 9.02581 87.6465 8.80961 87.6465 8.55257C87.6465 8.33091 87.562 8.14834 87.3931 8.00488C87.2241 7.86141 86.9644 7.75213 86.614 7.67702L85.313 7.39593C84.5908 7.24007 84.052 6.98436 83.6967 6.6288C83.3414 6.27324 83.1638 5.81509 83.1638 5.25437C83.1638 4.78241 83.2938 4.37281 83.5539 4.02554C83.8139 3.67828 84.175 3.40926 84.6372 3.21849C85.0994 3.02772 85.6353 2.93234 86.2449 2.93234C86.8231 2.93234 87.3207 3.01423 87.7376 3.17802C88.1545 3.34181 88.4919 3.571 88.75 3.86558C89.008 4.16016 89.1874 4.50633 89.2882 4.90409L87.7039 5.21335C87.6155 4.94811 87.4572 4.72312 87.229 4.53836C87.0008 4.35361 86.6807 4.26123 86.2689 4.26123C85.892 4.26123 85.577 4.34349 85.3239 4.50801C85.0709 4.67253 84.9444 4.88559 84.9444 5.14718C84.9444 5.36903 85.0277 5.55269 85.1942 5.69816C85.3607 5.84363 85.6386 5.95893 86.0278 6.04406L87.3282 6.3175C88.0521 6.47172 88.5898 6.71964 88.9414 7.06125C89.2929 7.40287 89.4687 7.8431 89.4687 8.38195C89.4687 8.86466 89.3291 9.28935 89.0499 9.65603C88.7707 10.0227 88.3843 10.3092 87.8907 10.5154C87.397 10.7217 86.8279 10.8248 86.1834 10.8248ZM92.6179 10.6706L90.3424 3.02804H92.2115L92.9641 6.02438C93.0818 6.51292 93.2091 7.0516 93.3459 7.6404C93.4827 8.2292 93.6119 8.8849 93.7335 9.60751H93.5068C93.6321 8.90532 93.7653 8.25868 93.9066 7.6676C94.0479 7.07652 94.1813 6.52878 94.3069 6.02438L95.0777 3.02804H96.7741L97.5264 6.02438C97.6474 6.52167 97.7782 7.06472 97.9189 7.65352C98.0595 8.24232 98.1925 8.89365 98.3177 9.60751H98.0916C98.2144 8.89948 98.3415 8.25107 98.4727 7.66227C98.604 7.07347 98.7299 6.52751 98.8506 6.02438L99.6031 3.02804H101.492L99.2066 10.6706H97.4096L96.5144 7.55123C96.4256 7.23969 96.3379 6.90368 96.2512 6.5432C96.1645 6.18272 96.0801 5.81476 95.998 5.43933C95.9159 5.0639 95.8319 4.70255 95.746 4.35529H96.0785C95.9972 4.69964 95.9144 5.06026 95.83 5.43715C95.7456 5.81403 95.6604 6.18418 95.5746 6.54758C95.4887 6.91097 95.4006 7.24553 95.3101 7.55123L94.4149 10.6706H92.6179ZM105.839 10.8248C105.097 10.8248 104.453 10.6604 103.906 10.3314C103.358 10.0025 102.935 9.54219 102.636 8.95056C102.337 8.35893 102.188 7.67119 102.188 6.88734C102.188 6.09473 102.337 5.40189 102.636 4.8088C102.935 4.21572 103.358 3.7547 103.906 3.42576C104.453 3.09681 105.097 2.93234 105.839 2.93234C106.584 2.93234 107.23 3.09681 107.777 3.42576C108.324 3.7547 108.747 4.21572 109.046 4.8088C109.345 5.40189 109.495 6.09473 109.495 6.88734C109.495 7.67119 109.345 8.35893 109.046 8.95056C108.747 9.54219 108.324 10.0025 107.777 10.3314C107.23 10.6604 106.584 10.8248 105.839 10.8248ZM105.839 9.3822C106.254 9.3822 106.599 9.27054 106.873 9.04723C107.148 8.82392 107.353 8.52319 107.487 8.14502C107.622 7.76685 107.69 7.34599 107.69 6.88242C107.69 6.41429 107.622 5.99092 107.487 5.61229C107.353 5.23367 107.148 4.9328 106.873 4.70967C106.599 4.48654 106.254 4.37498 105.839 4.37498C105.426 4.37498 105.083 4.48654 104.81 4.70967C104.538 4.9328 104.334 5.23294 104.2 5.61011C104.065 5.98727 103.997 6.41137 103.997 6.88242C103.997 7.34599 104.065 7.76685 104.2 8.14502C104.334 8.52319 104.538 8.82392 104.81 9.04723C105.083 9.27054 105.426 9.3822 105.839 9.3822ZM111.047 10.6706V3.02804H112.768V4.30718H112.85C112.989 3.86403 113.23 3.52264 113.571 3.28302C113.912 3.0434 114.301 2.92359 114.739 2.92359C114.84 2.92359 114.952 2.92833 115.074 2.93781C115.197 2.94729 115.302 2.96005 115.388 2.97609V4.60959C115.315 4.58571 115.197 4.56424 115.032 4.54519C114.867 4.52614 114.707 4.51662 114.551 4.51662C114.221 4.51662 113.925 4.58721 113.662 4.7284C113.4 4.86958 113.195 5.06445 113.046 5.31301C112.898 5.56156 112.824 5.84918 112.824 6.17584V10.6706H111.047ZM119.114 10.8101C118.514 10.8101 117.975 10.6553 117.498 10.3456C117.021 10.036 116.646 9.58744 116.372 8.99992C116.099 8.41239 115.962 7.70072 115.962 6.86492C115.962 6.01562 116.102 5.29835 116.382 4.7131C116.662 4.12786 117.04 3.68475 117.516 3.38379C117.992 3.08282 118.523 2.93234 119.109 2.93234C119.563 2.93234 119.935 3.00822 120.224 3.15998C120.513 3.31173 120.743 3.49334 120.913 3.7048C121.083 3.91626 121.212 4.1125 121.299 4.29351H121.375V0.485073H123.152V10.6706H121.411V9.46093H121.299C121.209 9.64486 121.077 9.84115 120.903 10.0498C120.728 10.2584 120.497 10.4373 120.209 10.5864C119.921 10.7355 119.556 10.8101 119.114 10.8101ZM119.597 9.34775C119.984 9.34775 120.313 9.24306 120.583 9.0337C120.853 8.82434 121.058 8.53271 121.198 8.15883C121.338 7.78495 121.408 7.35073 121.408 6.85617C121.408 6.35833 121.339 5.9257 121.2 5.55829C121.061 5.19088 120.857 4.90509 120.587 4.70092C120.317 4.49675 119.987 4.39467 119.597 4.39467C119.197 4.39467 118.863 4.50113 118.593 4.71405C118.323 4.92696 118.121 5.21859 117.985 5.58891C117.849 5.95924 117.782 6.38166 117.782 6.85617C117.782 7.33195 117.85 7.75792 117.987 8.13408C118.124 8.51025 118.329 8.80656 118.6 9.02304C118.871 9.23951 119.203 9.34775 119.597 9.34775Z" fill="#334155"/>
</svg>
