<svg width="343" height="12" viewBox="0 0 343 12" fill="none" xmlns="http://www.w3.org/2000/svg">
<path d="M2.01539 4.6582C2.01539 4.18945 2.12867 3.76367 2.35523 3.38086C2.5818 2.99805 2.88746 2.69336 3.27223 2.4668C3.65699 2.24023 4.0818 2.12695 4.54664 2.12695C4.95289 2.12695 5.32691 2.21387 5.66871 2.3877C6.01051 2.56152 6.29371 2.79688 6.51832 3.09375C6.74293 3.39062 6.88258 3.72852 6.93727 4.10742H5.90602C5.84742 3.81836 5.68824 3.58008 5.42848 3.39258C5.16871 3.20508 4.87477 3.11133 4.54664 3.11133C4.26539 3.11133 4.00758 3.18066 3.7732 3.31934C3.53883 3.45801 3.35133 3.64453 3.2107 3.87891C3.07008 4.11328 2.99977 4.37305 2.99977 4.6582C2.99977 4.93945 3.07008 5.19629 3.2107 5.42871C3.35133 5.66113 3.53883 5.84668 3.7732 5.98535C4.00758 6.12402 4.26539 6.19336 4.54664 6.19336C4.87477 6.19336 5.15309 6.10059 5.3816 5.91504C5.61012 5.72949 5.75367 5.49023 5.81227 5.19727H6.84352C6.79273 5.57617 6.66187 5.91602 6.45094 6.2168C6.24 6.51758 5.97145 6.75488 5.64527 6.92871C5.3191 7.10254 4.95289 7.18945 4.54664 7.18945C4.0818 7.18945 3.65699 7.0752 3.27223 6.84668C2.88746 6.61816 2.5818 6.3125 2.35523 5.92969C2.12867 5.54688 2.01539 5.12305 2.01539 4.6582ZM4.49977 9.15234C3.87867 9.15234 3.29664 9.03613 2.75367 8.80371C2.2107 8.57129 1.73219 8.24805 1.31812 7.83398C0.904062 7.41992 0.58082 6.94141 0.348398 6.39844C0.115977 5.85547 -0.000234375 5.27344 -0.000234375 4.65234C-0.000234375 4.03125 0.115977 3.44922 0.348398 2.90625C0.58082 2.36328 0.904062 1.88477 1.31812 1.4707C1.73219 1.05664 2.2107 0.733398 2.75367 0.500977C3.29664 0.268555 3.87867 0.152344 4.49977 0.152344C5.12086 0.152344 5.70289 0.268555 6.24586 0.500977C6.78883 0.733398 7.26734 1.05664 7.68141 1.4707C8.09547 1.88477 8.41871 2.36328 8.65113 2.90625C8.88355 3.44922 8.99977 4.03125 8.99977 4.65234C8.99977 5.27344 8.88355 5.85547 8.65113 6.39844C8.41871 6.94141 8.09547 7.41992 7.68141 7.83398C7.26734 8.24805 6.78883 8.57129 6.24586 8.80371C5.70289 9.03613 5.12086 9.15234 4.49977 9.15234ZM4.49977 8.13281C4.98023 8.13281 5.43043 8.04297 5.85035 7.86328C6.27027 7.68359 6.64039 7.43359 6.9607 7.11328C7.28102 6.79297 7.53102 6.42285 7.7107 6.00293C7.89039 5.58301 7.98023 5.13281 7.98023 4.65234C7.98023 4.17188 7.89039 3.72168 7.7107 3.30176C7.53102 2.88184 7.28102 2.51172 6.9607 2.19141C6.64039 1.87109 6.27027 1.62109 5.85035 1.44141C5.43043 1.26172 4.98023 1.17188 4.49977 1.17188C4.0193 1.17188 3.5691 1.26172 3.14918 1.44141C2.72926 1.62109 2.35914 1.87109 2.03883 2.19141C1.71852 2.51172 1.46852 2.88184 1.28883 3.30176C1.10914 3.72168 1.0193 4.17188 1.0193 4.65234C1.0193 5.13281 1.10914 5.58301 1.28883 6.00293C1.46852 6.42285 1.71852 6.79297 2.03883 7.11328C2.35914 7.43359 2.72926 7.68359 3.14918 7.86328C3.5691 8.04297 4.0193 8.13281 4.49977 8.13281ZM14.2615 9.01758V8.21484L17.1619 5.06836C17.4861 4.7168 17.7556 4.4082 17.9705 4.14258C18.1853 3.87695 18.3474 3.62402 18.4568 3.38379C18.5662 3.14355 18.6209 2.88867 18.6209 2.61914C18.6209 2.31445 18.5486 2.05078 18.4041 1.82812C18.2595 1.60547 18.0642 1.43457 17.8181 1.31543C17.572 1.19629 17.2927 1.13672 16.9802 1.13672C16.6482 1.13672 16.3601 1.2041 16.116 1.33887C15.8718 1.47363 15.6834 1.66309 15.5505 1.90723C15.4177 2.15137 15.3513 2.4375 15.3513 2.76562H14.2849C14.2849 2.25 14.4041 1.79688 14.6423 1.40625C14.8806 1.01562 15.2048 0.711914 15.615 0.495117C16.0252 0.27832 16.49 0.169922 17.0095 0.169922C17.5291 0.169922 17.989 0.27832 18.3894 0.495117C18.7898 0.711914 19.1043 1.00391 19.3328 1.37109C19.5613 1.73828 19.6755 2.15039 19.6755 2.60742C19.6755 2.92383 19.6189 3.23145 19.5056 3.53027C19.3923 3.8291 19.1931 4.16797 18.908 4.54688C18.6228 4.92578 18.2224 5.38867 17.7068 5.93555L15.7966 7.96875V8.03906H19.822V9.01758H14.2615ZM24.4627 9.13477C23.8142 9.13477 23.2615 8.95898 22.8045 8.60742C22.3474 8.25586 21.9978 7.74707 21.7556 7.08105C21.5134 6.41504 21.3923 5.60742 21.3923 4.6582C21.3923 3.71289 21.5144 2.90625 21.7586 2.23828C22.0027 1.57031 22.3533 1.05859 22.8103 0.703125C23.2673 0.347656 23.8181 0.169922 24.4627 0.169922C25.1072 0.169922 25.6589 0.347656 26.1179 0.703125C26.5769 1.05859 26.9275 1.57031 27.1697 2.23828C27.4119 2.90625 27.533 3.71289 27.533 4.6582C27.533 5.60352 27.4129 6.41016 27.1726 7.07812C26.9324 7.74609 26.5837 8.25586 26.1267 8.60742C25.6697 8.95898 25.115 9.13477 24.4627 9.13477ZM24.4627 8.16211C24.8884 8.16211 25.2498 8.02344 25.5466 7.74609C25.8435 7.46875 26.0701 7.06934 26.2263 6.54785C26.3826 6.02637 26.4607 5.39648 26.4607 4.6582C26.4607 3.91602 26.3826 3.28223 26.2263 2.75684C26.0701 2.23145 25.8435 1.83008 25.5466 1.55273C25.2498 1.27539 24.8884 1.13672 24.4627 1.13672C24.0369 1.13672 23.6755 1.27637 23.3787 1.55566C23.0818 1.83496 22.8552 2.23633 22.699 2.75977C22.5427 3.2832 22.4646 3.91602 22.4646 4.6582C22.4646 5.39648 22.5427 6.02637 22.699 6.54785C22.8552 7.06934 23.0818 7.46875 23.3787 7.74609C23.6755 8.02344 24.0369 8.16211 24.4627 8.16211ZM29.1502 9.01758V8.21484L32.0505 5.06836C32.3748 4.7168 32.6443 4.4082 32.8591 4.14258C33.074 3.87695 33.2361 3.62402 33.3455 3.38379C33.4548 3.14355 33.5095 2.88867 33.5095 2.61914C33.5095 2.31445 33.4373 2.05078 33.2927 1.82812C33.1482 1.60547 32.9529 1.43457 32.7068 1.31543C32.4607 1.19629 32.1814 1.13672 31.8689 1.13672C31.5369 1.13672 31.2488 1.2041 31.0046 1.33887C30.7605 1.47363 30.572 1.66309 30.4392 1.90723C30.3064 2.15137 30.24 2.4375 30.24 2.76562H29.1736C29.1736 2.25 29.2927 1.79688 29.531 1.40625C29.7693 1.01562 30.0935 0.711914 30.5037 0.495117C30.9138 0.27832 31.3787 0.169922 31.8982 0.169922C32.4177 0.169922 32.8777 0.27832 33.2781 0.495117C33.6785 0.711914 33.9929 1.00391 34.2214 1.37109C34.45 1.73828 34.5642 2.15039 34.5642 2.60742C34.5642 2.92383 34.5076 3.23145 34.3943 3.53027C34.281 3.8291 34.0818 4.16797 33.7966 4.54688C33.5115 4.92578 33.1111 5.38867 32.5955 5.93555L30.6853 7.96875V8.03906H34.7107V9.01758H29.1502ZM36.0818 7.24219V6.33398L39.9021 0.287109H40.5759V1.68164H40.1248L37.2713 6.19336V6.26367H42.4392V7.24219H36.0818ZM40.1892 9.01758V6.97266L40.1951 6.54492V0.287109H41.2556V9.01758H40.1892ZM47.5603 9.01758V0.287109H50.5486C51.2283 0.287109 51.7879 0.40332 52.2273 0.635742C52.6668 0.868164 52.9929 1.1875 53.2058 1.59375C53.4187 2 53.5252 2.46289 53.5252 2.98242C53.5252 3.50195 53.4187 3.96094 53.2058 4.35938C52.9929 4.75781 52.6677 5.06934 52.2302 5.29395C51.7927 5.51855 51.2341 5.63086 50.5545 5.63086H48.1814V4.64062H50.5017C50.9627 4.64062 51.3328 4.57324 51.6121 4.43848C51.8914 4.30371 52.0955 4.1123 52.2244 3.86426C52.3533 3.61621 52.4177 3.32227 52.4177 2.98242C52.4177 2.63477 52.3533 2.33301 52.2244 2.07715C52.0955 1.82129 51.8904 1.62207 51.6091 1.47949C51.3279 1.33691 50.9548 1.26562 50.49 1.26562H48.6736V9.01758H47.5603ZM52.5759 9.01758L50.4666 5.08594H51.7205L53.865 9.01758H52.5759ZM57.7322 9.1582C57.0994 9.1582 56.5535 9.01758 56.0945 8.73633C55.6355 8.45508 55.282 8.0625 55.0339 7.55859C54.7859 7.05469 54.6619 6.4668 54.6619 5.79492C54.6619 5.12305 54.783 4.53125 55.0252 4.01953C55.2673 3.50781 55.6101 3.10742 56.0535 2.81836C56.4968 2.5293 57.0154 2.38477 57.6091 2.38477C57.9568 2.38477 58.2996 2.44238 58.6375 2.55762C58.9754 2.67285 59.282 2.8584 59.5574 3.11426C59.8328 3.37012 60.0525 3.70703 60.2166 4.125C60.3806 4.54297 60.4627 5.05469 60.4627 5.66016V6.09961H55.3767V5.20898H59.8943L59.4021 5.53711C59.4021 5.10742 59.3347 4.72559 59.2 4.3916C59.0652 4.05762 58.865 3.7959 58.5994 3.60645C58.3338 3.41699 58.0037 3.32227 57.6091 3.32227C57.2146 3.32227 56.8767 3.41895 56.5955 3.6123C56.3142 3.80566 56.0994 4.05762 55.9509 4.36816C55.8025 4.67871 55.7283 5.01172 55.7283 5.36719V5.95898C55.7283 6.44336 55.8123 6.85449 55.9802 7.19238C56.1482 7.53027 56.3836 7.78613 56.6863 7.95996C56.989 8.13379 57.3396 8.2207 57.738 8.2207C57.9959 8.2207 58.2302 8.18359 58.4412 8.10938C58.6521 8.03516 58.8338 7.92285 58.9861 7.77246C59.1384 7.62207 59.2556 7.43555 59.3377 7.21289L60.3572 7.49414C60.2556 7.82227 60.0838 8.11133 59.8416 8.36133C59.5994 8.61133 59.2996 8.80664 58.9422 8.94727C58.5847 9.08789 58.1814 9.1582 57.7322 9.1582ZM63.0291 5.0918V9.01758H61.9744V2.4668H62.988L62.9939 4.05469H62.8474C63.0466 3.44922 63.3308 3.01953 63.7 2.76562C64.0691 2.51172 64.5017 2.38477 64.9978 2.38477C65.4392 2.38477 65.8259 2.47559 66.158 2.65723C66.49 2.83887 66.7488 3.1123 66.9343 3.47754C67.1199 3.84277 67.2127 4.30273 67.2127 4.85742V9.01758H66.158V4.94531C66.158 4.44141 66.0261 4.04688 65.7625 3.76172C65.4988 3.47656 65.1384 3.33398 64.6814 3.33398C64.3689 3.33398 64.0877 3.40234 63.8377 3.53906C63.5877 3.67578 63.3904 3.875 63.2459 4.13672C63.1013 4.39844 63.0291 4.7168 63.0291 5.0918ZM68.783 11.3906L69.0525 10.4766L69.1638 10.5059C69.3787 10.5605 69.574 10.5752 69.7498 10.5498C69.9255 10.5244 70.0837 10.4375 70.2244 10.2891C70.365 10.1406 70.488 9.91016 70.5935 9.59766L70.781 9.05273L68.2791 2.4668H69.4334L70.8279 6.35156C70.9763 6.75781 71.1013 7.16016 71.2029 7.55859C71.3045 7.95703 71.4119 8.34375 71.5252 8.71875H71.1384C71.2517 8.34375 71.3601 7.95605 71.4636 7.55566C71.5671 7.15527 71.6912 6.75391 71.8357 6.35156L73.242 2.4668H74.3904L71.5134 9.99609C71.3806 10.3438 71.2214 10.6299 71.0359 10.8545C70.8503 11.0791 70.6345 11.2451 70.3884 11.3525C70.1423 11.46 69.865 11.5137 69.5564 11.5137C69.3689 11.5137 69.2068 11.5 69.0701 11.4727C68.9334 11.4453 68.8377 11.418 68.783 11.3906ZM78.0642 9.1582C77.4705 9.1582 76.95 9.01758 76.5027 8.73633C76.0554 8.45508 75.7068 8.06055 75.4568 7.55273C75.2068 7.04492 75.0818 6.45508 75.0818 5.7832C75.0818 5.09961 75.2068 4.50293 75.4568 3.99316C75.7068 3.4834 76.0554 3.08789 76.5027 2.80664C76.95 2.52539 77.4705 2.38477 78.0642 2.38477C78.6619 2.38477 79.1853 2.52539 79.6345 2.80664C80.0837 3.08789 80.4334 3.4834 80.6834 3.99316C80.9334 4.50293 81.0584 5.09961 81.0584 5.7832C81.0584 6.45508 80.9334 7.04492 80.6834 7.55273C80.4334 8.06055 80.0837 8.45508 79.6345 8.73633C79.1853 9.01758 78.6619 9.1582 78.0642 9.1582ZM78.0642 8.21484C78.5056 8.21484 78.8689 8.10156 79.1541 7.875C79.4392 7.64844 79.6502 7.35059 79.7869 6.98145C79.9236 6.6123 79.992 6.21289 79.992 5.7832C79.992 5.34961 79.9236 4.94629 79.7869 4.57324C79.6502 4.2002 79.4392 3.89941 79.1541 3.6709C78.8689 3.44238 78.5056 3.32812 78.0642 3.32812C77.6267 3.32812 77.2673 3.44238 76.9861 3.6709C76.7048 3.89941 76.4959 4.19922 76.3591 4.57031C76.2224 4.94141 76.1541 5.3457 76.1541 5.7832C76.1541 6.21289 76.2224 6.6123 76.3591 6.98145C76.4959 7.35059 76.7048 7.64844 76.9861 7.875C77.2673 8.10156 77.6267 8.21484 78.0642 8.21484ZM84.8142 9.09961C84.3728 9.09961 83.9851 9.00879 83.6511 8.82715C83.3171 8.64551 83.0574 8.37109 82.8718 8.00391C82.6863 7.63672 82.5935 7.17773 82.5935 6.62695V2.4668H83.6482V6.53906C83.6482 7.04297 83.781 7.4375 84.0466 7.72266C84.3123 8.00781 84.6736 8.15039 85.1306 8.15039C85.4431 8.15039 85.7234 8.08203 85.9714 7.94531C86.2195 7.80859 86.4158 7.6084 86.5603 7.34473C86.7048 7.08105 86.7771 6.76367 86.7771 6.39258V2.4668H87.8377V9.01758H86.8181V7.42969H86.9587C86.7556 8.04297 86.4675 8.47461 86.0945 8.72461C85.7214 8.97461 85.2947 9.09961 84.8142 9.09961ZM93.1931 9.01758V0.287109H96.1814C96.8611 0.287109 97.4207 0.411133 97.8601 0.65918C98.2996 0.907227 98.6257 1.24023 98.8386 1.6582C99.0515 2.07617 99.158 2.54492 99.158 3.06445C99.158 3.58398 99.0515 4.05469 98.8386 4.47656C98.6257 4.89844 98.3005 5.23438 97.863 5.48438C97.4255 5.73438 96.867 5.85938 96.1873 5.85938H94.072V4.88086H96.1345C96.5955 4.88086 96.9666 4.80176 97.2478 4.64355C97.5291 4.48535 97.7332 4.26855 97.8601 3.99316C97.9871 3.71777 98.0505 3.4082 98.0505 3.06445C98.0505 2.7207 97.9871 2.41309 97.8601 2.1416C97.7332 1.87012 97.5281 1.65625 97.2449 1.5C96.9617 1.34375 96.5877 1.26562 96.1228 1.26562H94.3064V9.01758H93.1931ZM102.562 9.16992C102.148 9.16992 101.772 9.0918 101.434 8.93555C101.096 8.7793 100.828 8.55078 100.629 8.25C100.429 7.94922 100.33 7.58398 100.33 7.1543C100.33 6.7793 100.404 6.47461 100.552 6.24023C100.701 6.00586 100.899 5.82129 101.147 5.68652C101.395 5.55176 101.67 5.45117 101.97 5.38477C102.271 5.31836 102.574 5.26562 102.879 5.22656C103.269 5.17578 103.588 5.13672 103.834 5.10938C104.08 5.08203 104.262 5.03516 104.382 4.96875C104.501 4.90234 104.56 4.78906 104.56 4.62891V4.59375C104.56 4.32031 104.51 4.08887 104.408 3.89941C104.306 3.70996 104.154 3.56445 103.951 3.46289C103.748 3.36133 103.494 3.31055 103.189 3.31055C102.877 3.31055 102.609 3.35938 102.386 3.45703C102.164 3.55469 101.983 3.67676 101.844 3.82324C101.706 3.96973 101.601 4.11914 101.531 4.27148L100.517 3.9375C100.685 3.53906 100.912 3.22754 101.197 3.00293C101.482 2.77832 101.797 2.61914 102.14 2.52539C102.484 2.43164 102.824 2.38477 103.16 2.38477C103.379 2.38477 103.628 2.41113 103.907 2.46387C104.186 2.5166 104.456 2.62109 104.716 2.77734C104.975 2.93359 105.19 3.16504 105.36 3.47168C105.53 3.77832 105.615 4.1875 105.615 4.69922V9.01758H104.578V8.12695H104.508C104.433 8.2793 104.314 8.43652 104.15 8.59863C103.986 8.76074 103.773 8.89648 103.511 9.00586C103.25 9.11523 102.933 9.16992 102.562 9.16992ZM102.744 8.23828C103.135 8.23828 103.465 8.16211 103.734 8.00977C104.004 7.85742 104.209 7.65918 104.349 7.41504C104.49 7.1709 104.56 6.91602 104.56 6.65039V5.74219C104.517 5.79297 104.424 5.83887 104.279 5.87988C104.135 5.9209 103.969 5.95703 103.784 5.98828C103.598 6.01953 103.419 6.0459 103.245 6.06738C103.071 6.08887 102.933 6.10547 102.832 6.11719C102.578 6.14844 102.341 6.20215 102.12 6.27832C101.899 6.35449 101.722 6.46582 101.59 6.6123C101.457 6.75879 101.39 6.95703 101.39 7.20703C101.39 7.43359 101.449 7.62305 101.566 7.77539C101.683 7.92773 101.844 8.04297 102.047 8.12109C102.25 8.19922 102.482 8.23828 102.744 8.23828ZM107.467 9.01758V2.4668H108.486V3.47461H108.556C108.677 3.14258 108.893 2.87598 109.204 2.6748C109.514 2.47363 109.865 2.37305 110.256 2.37305C110.334 2.37305 110.427 2.375 110.534 2.37891C110.641 2.38281 110.726 2.38672 110.789 2.39062V3.45117C110.758 3.44336 110.679 3.43164 110.554 3.41602C110.429 3.40039 110.297 3.39258 110.156 3.39258C109.844 3.39258 109.563 3.45801 109.315 3.58887C109.067 3.71973 108.873 3.89941 108.732 4.12793C108.592 4.35645 108.521 4.61914 108.521 4.91602V9.01758H107.467ZM113.818 9.16992C113.404 9.16992 113.028 9.0918 112.69 8.93555C112.352 8.7793 112.084 8.55078 111.885 8.25C111.685 7.94922 111.586 7.58398 111.586 7.1543C111.586 6.7793 111.66 6.47461 111.808 6.24023C111.957 6.00586 112.155 5.82129 112.403 5.68652C112.651 5.55176 112.926 5.45117 113.226 5.38477C113.527 5.31836 113.83 5.26562 114.135 5.22656C114.525 5.17578 114.844 5.13672 115.09 5.10938C115.336 5.08203 115.518 5.03516 115.637 4.96875C115.757 4.90234 115.816 4.78906 115.816 4.62891V4.59375C115.816 4.32031 115.765 4.08887 115.664 3.89941C115.562 3.70996 115.41 3.56445 115.207 3.46289C115.004 3.36133 114.75 3.31055 114.445 3.31055C114.133 3.31055 113.865 3.35938 113.642 3.45703C113.42 3.55469 113.239 3.67676 113.1 3.82324C112.962 3.96973 112.857 4.11914 112.787 4.27148L111.773 3.9375C111.941 3.53906 112.168 3.22754 112.453 3.00293C112.738 2.77832 113.052 2.61914 113.396 2.52539C113.74 2.43164 114.08 2.38477 114.416 2.38477C114.635 2.38477 114.884 2.41113 115.163 2.46387C115.442 2.5166 115.712 2.62109 115.971 2.77734C116.231 2.93359 116.446 3.16504 116.616 3.47168C116.786 3.77832 116.871 4.1875 116.871 4.69922V9.01758H115.834V8.12695H115.763C115.689 8.2793 115.57 8.43652 115.406 8.59863C115.242 8.76074 115.029 8.89648 114.767 9.00586C114.506 9.11523 114.189 9.16992 113.818 9.16992ZM114 8.23828C114.39 8.23828 114.72 8.16211 114.99 8.00977C115.26 7.85742 115.465 7.65918 115.605 7.41504C115.746 7.1709 115.816 6.91602 115.816 6.65039V5.74219C115.773 5.79297 115.679 5.83887 115.535 5.87988C115.39 5.9209 115.225 5.95703 115.04 5.98828C114.854 6.01953 114.675 6.0459 114.501 6.06738C114.327 6.08887 114.189 6.10547 114.088 6.11719C113.834 6.14844 113.596 6.20215 113.376 6.27832C113.155 6.35449 112.978 6.46582 112.845 6.6123C112.713 6.75879 112.646 6.95703 112.646 7.20703C112.646 7.43359 112.705 7.62305 112.822 7.77539C112.939 7.92773 113.099 8.04297 113.302 8.12109C113.506 8.19922 113.738 8.23828 114 8.23828ZM118.722 11.4668V2.4668H119.742V3.51562H119.859C119.933 3.39844 120.037 3.25098 120.17 3.07324C120.302 2.89551 120.494 2.73633 120.744 2.5957C120.994 2.45508 121.332 2.38477 121.758 2.38477C122.304 2.38477 122.786 2.52148 123.202 2.79492C123.618 3.06836 123.944 3.45801 124.18 3.96387C124.417 4.46973 124.535 5.06836 124.535 5.75977C124.535 6.45508 124.418 7.05664 124.183 7.56445C123.949 8.07227 123.624 8.46484 123.208 8.74219C122.792 9.01953 122.31 9.1582 121.763 9.1582C121.349 9.1582 121.015 9.08691 120.761 8.94434C120.508 8.80176 120.312 8.63965 120.176 8.45801C120.039 8.27637 119.933 8.125 119.859 8.00391H119.777V11.4668H118.722ZM121.605 8.21484C122.015 8.21484 122.358 8.10449 122.634 7.88379C122.909 7.66309 123.116 7.36621 123.255 6.99316C123.393 6.62012 123.463 6.20508 123.463 5.74805C123.463 5.29492 123.394 4.88574 123.258 4.52051C123.121 4.15527 122.915 3.86523 122.639 3.65039C122.364 3.43555 122.019 3.32812 121.605 3.32812C121.203 3.32812 120.865 3.42969 120.592 3.63281C120.318 3.83594 120.112 4.11816 119.973 4.47949C119.835 4.84082 119.765 5.26367 119.765 5.74805C119.765 6.23242 119.836 6.66016 119.976 7.03125C120.117 7.40234 120.325 7.69238 120.6 7.90137C120.876 8.11035 121.211 8.21484 121.605 8.21484ZM127.125 5.0918V9.01758H126.07V0.287109H127.125V4.05469H126.943C127.142 3.44922 127.427 3.01953 127.796 2.76562C128.165 2.51172 128.597 2.38477 129.094 2.38477C129.535 2.38477 129.923 2.47559 130.257 2.65723C130.591 2.83887 130.85 3.1123 131.036 3.47754C131.221 3.84277 131.314 4.30273 131.314 4.85742V9.01758H130.254V4.94531C130.254 4.44141 130.122 4.04688 129.858 3.76172C129.594 3.47656 129.234 3.33398 128.777 3.33398C128.465 3.33398 128.183 3.40234 127.933 3.53906C127.683 3.67578 127.486 3.875 127.342 4.13672C127.197 4.39844 127.125 4.7168 127.125 5.0918ZM135 9.16992C134.586 9.16992 134.21 9.0918 133.872 8.93555C133.534 8.7793 133.265 8.55078 133.066 8.25C132.867 7.94922 132.767 7.58398 132.767 7.1543C132.767 6.7793 132.842 6.47461 132.99 6.24023C133.138 6.00586 133.337 5.82129 133.585 5.68652C133.833 5.55176 134.107 5.45117 134.408 5.38477C134.709 5.31836 135.011 5.26562 135.316 5.22656C135.707 5.17578 136.025 5.13672 136.271 5.10938C136.517 5.08203 136.7 5.03516 136.819 4.96875C136.938 4.90234 136.998 4.78906 136.998 4.62891V4.59375C136.998 4.32031 136.947 4.08887 136.845 3.89941C136.744 3.70996 136.592 3.56445 136.388 3.46289C136.185 3.36133 135.931 3.31055 135.627 3.31055C135.314 3.31055 135.047 3.35938 134.824 3.45703C134.601 3.55469 134.421 3.67676 134.282 3.82324C134.143 3.96973 134.039 4.11914 133.969 4.27148L132.955 3.9375C133.123 3.53906 133.349 3.22754 133.635 3.00293C133.92 2.77832 134.234 2.61914 134.578 2.52539C134.922 2.43164 135.261 2.38477 135.597 2.38477C135.816 2.38477 136.065 2.41113 136.344 2.46387C136.624 2.5166 136.893 2.62109 137.153 2.77734C137.413 2.93359 137.628 3.16504 137.798 3.47168C137.968 3.77832 138.053 4.1875 138.053 4.69922V9.01758H137.015V8.12695H136.945C136.871 8.2793 136.752 8.43652 136.588 8.59863C136.424 8.76074 136.211 8.89648 135.949 9.00586C135.687 9.11523 135.371 9.16992 135 9.16992ZM135.181 8.23828C135.572 8.23828 135.902 8.16211 136.172 8.00977C136.441 7.85742 136.646 7.65918 136.787 7.41504C136.928 7.1709 136.998 6.91602 136.998 6.65039V5.74219C136.955 5.79297 136.861 5.83887 136.717 5.87988C136.572 5.9209 136.407 5.95703 136.221 5.98828C136.036 6.01953 135.856 6.0459 135.682 6.06738C135.509 6.08887 135.371 6.10547 135.269 6.11719C135.015 6.14844 134.778 6.20215 134.557 6.27832C134.337 6.35449 134.16 6.46582 134.027 6.6123C133.894 6.75879 133.828 6.95703 133.828 7.20703C133.828 7.43359 133.886 7.62305 134.004 7.77539C134.121 7.92773 134.281 8.04297 134.484 8.12109C134.687 8.19922 134.92 8.23828 135.181 8.23828ZM139.904 9.01758V2.4668H140.924V3.47461H140.994C141.115 3.14258 141.331 2.87598 141.641 2.6748C141.952 2.47363 142.303 2.37305 142.693 2.37305C142.771 2.37305 142.864 2.375 142.971 2.37891C143.079 2.38281 143.164 2.38672 143.226 2.39062V3.45117C143.195 3.44336 143.117 3.43164 142.992 3.41602C142.867 3.40039 142.734 3.39258 142.594 3.39258C142.281 3.39258 142.001 3.45801 141.753 3.58887C141.505 3.71973 141.31 3.89941 141.17 4.12793C141.029 4.35645 140.959 4.61914 140.959 4.91602V9.01758H139.904ZM144.609 9.01758V2.4668H145.635L145.64 3.93164H145.558C145.648 3.57617 145.79 3.28223 145.983 3.0498C146.177 2.81738 146.403 2.64258 146.663 2.52539C146.923 2.4082 147.193 2.34961 147.474 2.34961C147.951 2.34961 148.337 2.49609 148.632 2.78906C148.927 3.08203 149.117 3.4668 149.203 3.94336H149.062C149.14 3.61523 149.283 3.33203 149.49 3.09375C149.697 2.85547 149.948 2.67188 150.243 2.54297C150.538 2.41406 150.859 2.34961 151.207 2.34961C151.586 2.34961 151.931 2.43164 152.244 2.5957C152.556 2.75977 152.805 3.00781 152.991 3.33984C153.177 3.67188 153.269 4.0918 153.269 4.59961V9.01758H152.215V4.62891C152.215 4.15625 152.082 3.81836 151.816 3.61523C151.551 3.41211 151.242 3.31055 150.89 3.31055C150.597 3.31055 150.344 3.37207 150.132 3.49512C149.919 3.61816 149.755 3.78711 149.639 4.00195C149.524 4.2168 149.467 4.46289 149.467 4.74023V9.01758H148.412V4.52344C148.412 4.16016 148.291 3.86719 148.049 3.64453C147.806 3.42188 147.5 3.31055 147.129 3.31055C146.875 3.31055 146.636 3.37012 146.411 3.48926C146.186 3.6084 146.006 3.78516 145.869 4.01953C145.732 4.25391 145.664 4.54492 145.664 4.89258V9.01758H144.609ZM156.955 9.16992C156.541 9.16992 156.165 9.0918 155.827 8.93555C155.489 8.7793 155.22 8.55078 155.021 8.25C154.822 7.94922 154.722 7.58398 154.722 7.1543C154.722 6.7793 154.797 6.47461 154.945 6.24023C155.094 6.00586 155.292 5.82129 155.54 5.68652C155.788 5.55176 156.062 5.45117 156.363 5.38477C156.664 5.31836 156.967 5.26562 157.271 5.22656C157.662 5.17578 157.98 5.13672 158.226 5.10938C158.472 5.08203 158.655 5.03516 158.774 4.96875C158.893 4.90234 158.953 4.78906 158.953 4.62891V4.59375C158.953 4.32031 158.902 4.08887 158.801 3.89941C158.699 3.70996 158.547 3.56445 158.344 3.46289C158.14 3.36133 157.886 3.31055 157.582 3.31055C157.269 3.31055 157.002 3.35938 156.779 3.45703C156.556 3.55469 156.376 3.67676 156.237 3.82324C156.098 3.96973 155.994 4.11914 155.924 4.27148L154.91 3.9375C155.078 3.53906 155.304 3.22754 155.59 3.00293C155.875 2.77832 156.189 2.61914 156.533 2.52539C156.877 2.43164 157.217 2.38477 157.553 2.38477C157.771 2.38477 158.02 2.41113 158.3 2.46387C158.579 2.5166 158.848 2.62109 159.108 2.77734C159.368 2.93359 159.583 3.16504 159.753 3.47168C159.923 3.77832 160.008 4.1875 160.008 4.69922V9.01758H158.97V8.12695H158.9C158.826 8.2793 158.707 8.43652 158.543 8.59863C158.379 8.76074 158.166 8.89648 157.904 9.00586C157.642 9.11523 157.326 9.16992 156.955 9.16992ZM157.136 8.23828C157.527 8.23828 157.857 8.16211 158.127 8.00977C158.396 7.85742 158.601 7.65918 158.742 7.41504C158.883 7.1709 158.953 6.91602 158.953 6.65039V5.74219C158.91 5.79297 158.816 5.83887 158.672 5.87988C158.527 5.9209 158.362 5.95703 158.177 5.98828C157.991 6.01953 157.811 6.0459 157.637 6.06738C157.464 6.08887 157.326 6.10547 157.224 6.11719C156.97 6.14844 156.733 6.20215 156.512 6.27832C156.292 6.35449 156.115 6.46582 155.982 6.6123C155.849 6.75879 155.783 6.95703 155.783 7.20703C155.783 7.43359 155.842 7.62305 155.959 7.77539C156.076 7.92773 156.236 8.04297 156.439 8.12109C156.642 8.19922 156.875 8.23828 157.136 8.23828ZM164.525 9.1582C163.931 9.1582 163.411 9.01758 162.964 8.73633C162.516 8.45508 162.168 8.06055 161.918 7.55273C161.668 7.04492 161.543 6.45508 161.543 5.7832C161.543 5.09961 161.668 4.50293 161.918 3.99316C162.168 3.4834 162.516 3.08789 162.964 2.80664C163.411 2.52539 163.931 2.38477 164.525 2.38477C164.842 2.38477 165.14 2.42578 165.422 2.50781C165.703 2.58984 165.96 2.70801 166.192 2.8623C166.425 3.0166 166.625 3.20605 166.793 3.43066C166.961 3.65527 167.09 3.91016 167.179 4.19531L166.166 4.48242C166.119 4.31445 166.047 4.16016 165.949 4.01953C165.851 3.87891 165.733 3.75684 165.594 3.65332C165.456 3.5498 165.297 3.46973 165.117 3.41309C164.937 3.35645 164.74 3.32812 164.525 3.32812C164.088 3.32812 163.728 3.44238 163.447 3.6709C163.166 3.89941 162.957 4.19922 162.82 4.57031C162.683 4.94141 162.615 5.3457 162.615 5.7832C162.615 6.21289 162.683 6.6123 162.82 6.98145C162.957 7.35059 163.166 7.64844 163.447 7.875C163.728 8.10156 164.088 8.21484 164.525 8.21484C164.744 8.21484 164.945 8.18555 165.129 8.12695C165.312 8.06836 165.475 7.98535 165.618 7.87793C165.761 7.77051 165.881 7.64258 165.978 7.49414C166.076 7.3457 166.148 7.18359 166.195 7.00781L167.203 7.29492C167.117 7.58789 166.989 7.84863 166.819 8.07715C166.649 8.30566 166.447 8.50098 166.213 8.66309C165.978 8.8252 165.719 8.94824 165.433 9.03223C165.148 9.11621 164.845 9.1582 164.525 9.1582ZM168.375 11.3906L168.644 10.4766L168.756 10.5059C168.97 10.5605 169.166 10.5752 169.342 10.5498C169.517 10.5244 169.676 10.4375 169.816 10.2891C169.957 10.1406 170.08 9.91016 170.185 9.59766L170.373 9.05273L167.871 2.4668H169.025L170.42 6.35156C170.568 6.75781 170.693 7.16016 170.795 7.55859C170.896 7.95703 171.004 8.34375 171.117 8.71875H170.73C170.844 8.34375 170.952 7.95605 171.055 7.55566C171.159 7.15527 171.283 6.75391 171.428 6.35156L172.834 2.4668H173.982L171.105 9.99609C170.972 10.3438 170.813 10.6299 170.628 10.8545C170.442 11.0791 170.226 11.2451 169.98 11.3525C169.734 11.46 169.457 11.5137 169.148 11.5137C168.961 11.5137 168.799 11.5 168.662 11.4727C168.525 11.4453 168.429 11.418 168.375 11.3906ZM181.523 9.16992C180.894 9.16992 180.348 9.06836 179.886 8.86523C179.423 8.66211 179.06 8.37793 178.799 8.0127C178.537 7.64746 178.388 7.2207 178.353 6.73242H179.496C179.527 7.06055 179.638 7.33105 179.83 7.54395C180.021 7.75684 180.266 7.91504 180.565 8.01855C180.864 8.12207 181.183 8.17383 181.523 8.17383C181.918 8.17383 182.272 8.10938 182.587 7.98047C182.901 7.85156 183.15 7.66992 183.334 7.43555C183.517 7.20117 183.609 6.92969 183.609 6.62109C183.609 6.33984 183.53 6.11133 183.372 5.93555C183.214 5.75977 183.004 5.61523 182.742 5.50195C182.48 5.38867 182.193 5.28906 181.881 5.20312L180.826 4.9043C180.123 4.70508 179.576 4.41992 179.185 4.04883C178.795 3.67773 178.599 3.20312 178.599 2.625C178.599 2.13281 178.732 1.70215 178.998 1.33301C179.263 0.963867 179.623 0.677734 180.076 0.474609C180.529 0.271484 181.037 0.169922 181.599 0.169922C182.174 0.169922 182.681 0.271484 183.123 0.474609C183.564 0.677734 183.913 0.954102 184.169 1.30371C184.425 1.65332 184.56 2.04883 184.576 2.49023H183.486C183.435 2.06445 183.232 1.73535 182.877 1.50293C182.521 1.27051 182.084 1.1543 181.564 1.1543C181.189 1.1543 180.86 1.21582 180.577 1.33887C180.294 1.46191 180.074 1.62988 179.918 1.84277C179.761 2.05566 179.683 2.29883 179.683 2.57227C179.683 2.87695 179.778 3.12207 179.968 3.30762C180.157 3.49316 180.382 3.6377 180.641 3.74121C180.901 3.84473 181.136 3.92578 181.347 3.98438L182.22 4.22461C182.455 4.28711 182.714 4.37305 182.997 4.48242C183.28 4.5918 183.551 4.7373 183.808 4.91895C184.066 5.10059 184.278 5.33105 184.444 5.61035C184.61 5.88965 184.693 6.23242 184.693 6.63867C184.693 7.11523 184.569 7.54492 184.321 7.92773C184.073 8.31055 183.713 8.61328 183.24 8.83594C182.767 9.05859 182.195 9.16992 181.523 9.16992ZM188.965 9.1582C188.371 9.1582 187.85 9.01758 187.403 8.73633C186.956 8.45508 186.607 8.06055 186.357 7.55273C186.107 7.04492 185.982 6.45508 185.982 5.7832C185.982 5.09961 186.107 4.50293 186.357 3.99316C186.607 3.4834 186.956 3.08789 187.403 2.80664C187.85 2.52539 188.371 2.38477 188.965 2.38477C189.562 2.38477 190.086 2.52539 190.535 2.80664C190.984 3.08789 191.334 3.4834 191.584 3.99316C191.834 4.50293 191.959 5.09961 191.959 5.7832C191.959 6.45508 191.834 7.04492 191.584 7.55273C191.334 8.06055 190.984 8.45508 190.535 8.73633C190.086 9.01758 189.562 9.1582 188.965 9.1582ZM188.965 8.21484C189.406 8.21484 189.769 8.10156 190.054 7.875C190.34 7.64844 190.551 7.35059 190.687 6.98145C190.824 6.6123 190.892 6.21289 190.892 5.7832C190.892 5.34961 190.824 4.94629 190.687 4.57324C190.551 4.2002 190.34 3.89941 190.054 3.6709C189.769 3.44238 189.406 3.32812 188.965 3.32812C188.527 3.32812 188.168 3.44238 187.886 3.6709C187.605 3.89941 187.396 4.19922 187.26 4.57031C187.123 4.94141 187.054 5.3457 187.054 5.7832C187.054 6.21289 187.123 6.6123 187.26 6.98145C187.396 7.35059 187.605 7.64844 187.886 7.875C188.168 8.10156 188.527 8.21484 188.965 8.21484ZM194.549 0.287109V9.01758H193.494V0.287109H194.549ZM198.621 9.09961C198.179 9.09961 197.792 9.00879 197.458 8.82715C197.124 8.64551 196.864 8.37109 196.678 8.00391C196.493 7.63672 196.4 7.17773 196.4 6.62695V2.4668H197.455V6.53906C197.455 7.04297 197.588 7.4375 197.853 7.72266C198.119 8.00781 198.48 8.15039 198.937 8.15039C199.25 8.15039 199.53 8.08203 199.778 7.94531C200.026 7.80859 200.222 7.6084 200.367 7.34473C200.511 7.08105 200.584 6.76367 200.584 6.39258V2.4668H201.644V9.01758H200.625V7.42969H200.765C200.562 8.04297 200.274 8.47461 199.901 8.72461C199.528 8.97461 199.101 9.09961 198.621 9.09961ZM206.074 2.4668V3.36914H202.687V2.4668H206.074ZM203.672 0.908203H204.726V7.31836C204.726 7.61133 204.786 7.8252 204.905 7.95996C205.024 8.09473 205.222 8.16211 205.5 8.16211C205.566 8.16211 205.651 8.1543 205.755 8.13867C205.858 8.12305 205.953 8.10742 206.039 8.0918L206.256 8.98242C206.146 9.02148 206.022 9.05078 205.884 9.07031C205.745 9.08984 205.607 9.09961 205.47 9.09961C204.904 9.09961 204.463 8.9502 204.146 8.65137C203.83 8.35254 203.672 7.93555 203.672 7.40039V0.908203ZM207.422 9.01758V2.4668H208.476V9.01758H207.422ZM207.955 1.39453C207.756 1.39453 207.584 1.32617 207.439 1.18945C207.295 1.05273 207.222 0.888672 207.222 0.697266C207.222 0.501953 207.295 0.336914 207.439 0.202148C207.584 0.0673828 207.756 0 207.955 0C208.158 0 208.332 0.0673828 208.476 0.202148C208.621 0.336914 208.693 0.501953 208.693 0.697266C208.693 0.888672 208.621 1.05273 208.476 1.18945C208.332 1.32617 208.158 1.39453 207.955 1.39453ZM212.994 9.1582C212.4 9.1582 211.88 9.01758 211.432 8.73633C210.985 8.45508 210.636 8.06055 210.386 7.55273C210.136 7.04492 210.011 6.45508 210.011 5.7832C210.011 5.09961 210.136 4.50293 210.386 3.99316C210.636 3.4834 210.985 3.08789 211.432 2.80664C211.88 2.52539 212.4 2.38477 212.994 2.38477C213.592 2.38477 214.115 2.52539 214.564 2.80664C215.013 3.08789 215.363 3.4834 215.613 3.99316C215.863 4.50293 215.988 5.09961 215.988 5.7832C215.988 6.45508 215.863 7.04492 215.613 7.55273C215.363 8.06055 215.013 8.45508 214.564 8.73633C214.115 9.01758 213.592 9.1582 212.994 9.1582ZM212.994 8.21484C213.435 8.21484 213.799 8.10156 214.084 7.875C214.369 7.64844 214.58 7.35059 214.717 6.98145C214.853 6.6123 214.922 6.21289 214.922 5.7832C214.922 5.34961 214.853 4.94629 214.717 4.57324C214.58 4.2002 214.369 3.89941 214.084 3.6709C213.799 3.44238 213.435 3.32812 212.994 3.32812C212.556 3.32812 212.197 3.44238 211.916 3.6709C211.635 3.89941 211.426 4.19922 211.289 4.57031C211.152 4.94141 211.084 5.3457 211.084 5.7832C211.084 6.21289 211.152 6.6123 211.289 6.98145C211.426 7.35059 211.635 7.64844 211.916 7.875C212.197 8.10156 212.556 8.21484 212.994 8.21484ZM218.578 5.0918V9.01758H217.523V2.4668H218.537L218.543 4.05469H218.396C218.595 3.44922 218.88 3.01953 219.249 2.76562C219.618 2.51172 220.051 2.38477 220.547 2.38477C220.988 2.38477 221.375 2.47559 221.707 2.65723C222.039 2.83887 222.298 3.1123 222.483 3.47754C222.669 3.84277 222.761 4.30273 222.761 4.85742V9.01758H221.707V4.94531C221.707 4.44141 221.575 4.04688 221.311 3.76172C221.048 3.47656 220.687 3.33398 220.23 3.33398C219.918 3.33398 219.636 3.40234 219.386 3.53906C219.136 3.67578 218.939 3.875 218.795 4.13672C218.65 4.39844 218.578 4.7168 218.578 5.0918ZM226.84 9.1582C226.39 9.1582 225.991 9.09277 225.641 8.96191C225.292 8.83105 225.004 8.63672 224.777 8.37891C224.551 8.12109 224.398 7.80469 224.32 7.42969L225.322 7.18945C225.416 7.54883 225.593 7.8125 225.852 7.98047C226.112 8.14844 226.437 8.23242 226.828 8.23242C227.285 8.23242 227.649 8.13477 227.921 7.93945C228.192 7.74414 228.328 7.51172 228.328 7.24219C228.328 7.01562 228.249 6.82715 228.091 6.67676C227.932 6.52637 227.691 6.41406 227.367 6.33984L226.277 6.08203C225.683 5.94141 225.242 5.72363 224.953 5.42871C224.664 5.13379 224.519 4.75586 224.519 4.29492C224.519 3.91992 224.625 3.58887 224.836 3.30176C225.047 3.01465 225.335 2.79004 225.7 2.62793C226.065 2.46582 226.48 2.38477 226.945 2.38477C227.394 2.38477 227.776 2.45215 228.091 2.58691C228.405 2.72168 228.661 2.90723 228.858 3.14355C229.055 3.37988 229.203 3.65234 229.301 3.96094L228.345 4.20703C228.256 3.97266 228.106 3.75977 227.897 3.56836C227.688 3.37695 227.373 3.28125 226.951 3.28125C226.56 3.28125 226.235 3.37109 225.975 3.55078C225.716 3.73047 225.586 3.95703 225.586 4.23047C225.586 4.47266 225.674 4.66699 225.849 4.81348C226.025 4.95996 226.304 5.07812 226.687 5.16797L227.678 5.40234C228.271 5.54297 228.711 5.76074 228.996 6.05566C229.281 6.35059 229.424 6.72266 229.424 7.17188C229.424 7.55469 229.315 7.89551 229.098 8.19434C228.882 8.49316 228.579 8.72852 228.19 8.90039C227.802 9.07227 227.351 9.1582 226.84 9.1582ZM231.75 9.09375C231.531 9.09375 231.344 9.0166 231.19 8.8623C231.036 8.70801 230.959 8.52148 230.959 8.30273C230.959 8.08398 231.036 7.89746 231.19 7.74316C231.344 7.58887 231.531 7.51172 231.75 7.51172C231.969 7.51172 232.155 7.58887 232.309 7.74316C232.464 7.89746 232.541 8.08398 232.541 8.30273C232.541 8.52148 232.464 8.70801 232.309 8.8623C232.155 9.0166 231.969 9.09375 231.75 9.09375ZM237.158 9.01758L240.328 0.287109H241.617L244.828 9.01758H243.656L241.804 3.83789C241.691 3.51758 241.559 3.11816 241.409 2.63965C241.259 2.16113 241.076 1.55078 240.861 0.808594H241.072C240.861 1.55859 240.678 2.17676 240.524 2.66309C240.37 3.14941 240.242 3.54102 240.14 3.83789L238.342 9.01758H237.158ZM238.752 6.58008V5.60742H243.234V6.58008H238.752ZM247.113 0.287109V9.01758H246.058V0.287109H247.113ZM250.019 0.287109V9.01758H248.965V0.287109H250.019ZM255.246 9.01758V2.4668H256.265V3.47461H256.336C256.457 3.14258 256.673 2.87598 256.983 2.6748C257.294 2.47363 257.644 2.37305 258.035 2.37305C258.113 2.37305 258.206 2.375 258.313 2.37891C258.421 2.38281 258.506 2.38672 258.568 2.39062V3.45117C258.537 3.44336 258.459 3.43164 258.334 3.41602C258.209 3.40039 258.076 3.39258 257.935 3.39258C257.623 3.39258 257.343 3.45801 257.094 3.58887C256.846 3.71973 256.652 3.89941 256.511 4.12793C256.371 4.35645 256.301 4.61914 256.301 4.91602V9.01758H255.246ZM259.881 9.01758V2.4668H260.935V9.01758H259.881ZM260.414 1.39453C260.215 1.39453 260.043 1.32617 259.898 1.18945C259.754 1.05273 259.681 0.888672 259.681 0.697266C259.681 0.501953 259.754 0.336914 259.898 0.202148C260.043 0.0673828 260.215 0 260.414 0C260.617 0 260.791 0.0673828 260.935 0.202148C261.08 0.336914 261.152 0.501953 261.152 0.697266C261.152 0.888672 261.08 1.05273 260.935 1.18945C260.791 1.32617 260.617 1.39453 260.414 1.39453ZM265.441 11.6074C264.957 11.6074 264.538 11.5459 264.184 11.4229C263.831 11.2998 263.537 11.1367 263.302 10.9336C263.068 10.7305 262.883 10.5098 262.746 10.2715L263.601 9.7207C263.695 9.8457 263.811 9.98438 263.95 10.1367C264.089 10.2891 264.276 10.4189 264.512 10.5264C264.749 10.6338 265.058 10.6875 265.441 10.6875C265.965 10.6875 266.395 10.5625 266.733 10.3125C267.071 10.0625 267.24 9.66797 267.24 9.12891V7.81641H267.14C267.066 7.94141 266.962 8.08984 266.827 8.26172C266.692 8.43359 266.499 8.58496 266.247 8.71582C265.995 8.84668 265.658 8.91211 265.236 8.91211C264.713 8.91211 264.242 8.78809 263.824 8.54004C263.406 8.29199 263.076 7.92969 262.834 7.45312C262.592 6.97656 262.47 6.39648 262.47 5.71289C262.47 5.03711 262.59 4.4502 262.828 3.95215C263.066 3.4541 263.395 3.06836 263.815 2.79492C264.235 2.52148 264.717 2.38477 265.26 2.38477C265.681 2.38477 266.018 2.4541 266.27 2.59277C266.522 2.73145 266.717 2.89062 266.853 3.07031C266.99 3.25 267.095 3.39844 267.17 3.51562H267.269V2.4668H268.295V9.1875C268.295 9.75 268.168 10.21 267.914 10.5674C267.66 10.9248 267.317 11.1875 266.885 11.3555C266.454 11.5234 265.972 11.6074 265.441 11.6074ZM265.412 7.97461C265.81 7.97461 266.146 7.88379 266.42 7.70215C266.693 7.52051 266.9 7.25879 267.041 6.91699C267.181 6.5752 267.252 6.16602 267.252 5.68945C267.252 5.22461 267.182 4.81543 267.044 4.46191C266.905 4.1084 266.699 3.83105 266.426 3.62988C266.152 3.42871 265.814 3.32812 265.412 3.32812C264.998 3.32812 264.652 3.43457 264.375 3.64746C264.097 3.86035 263.889 4.14453 263.751 4.5C263.612 4.85547 263.543 5.25195 263.543 5.68945C263.543 6.13867 263.613 6.53516 263.754 6.87891C263.894 7.22266 264.103 7.49121 264.381 7.68457C264.658 7.87793 265.002 7.97461 265.412 7.97461ZM271.201 5.0918V9.01758H270.146V0.287109H271.201V4.05469H271.019C271.219 3.44922 271.503 3.01953 271.872 2.76562C272.241 2.51172 272.674 2.38477 273.17 2.38477C273.611 2.38477 273.999 2.47559 274.333 2.65723C274.667 2.83887 274.927 3.1123 275.112 3.47754C275.298 3.84277 275.39 4.30273 275.39 4.85742V9.01758H274.33V4.94531C274.33 4.44141 274.198 4.04688 273.934 3.76172C273.671 3.47656 273.31 3.33398 272.853 3.33398C272.541 3.33398 272.26 3.40234 272.01 3.53906C271.76 3.67578 271.562 3.875 271.418 4.13672C271.273 4.39844 271.201 4.7168 271.201 5.0918ZM279.82 2.4668V3.36914H276.433V2.4668H279.82ZM277.418 0.908203H278.472V7.31836C278.472 7.61133 278.532 7.8252 278.651 7.95996C278.77 8.09473 278.969 8.16211 279.246 8.16211C279.312 8.16211 279.397 8.1543 279.501 8.13867C279.604 8.12305 279.699 8.10742 279.785 8.0918L280.002 8.98242C279.892 9.02148 279.768 9.05078 279.63 9.07031C279.491 9.08984 279.353 9.09961 279.217 9.09961C278.65 9.09961 278.209 8.9502 277.892 8.65137C277.576 8.35254 277.418 7.93555 277.418 7.40039V0.908203ZM283.277 9.1582C282.828 9.1582 282.428 9.09277 282.079 8.96191C281.729 8.83105 281.441 8.63672 281.215 8.37891C280.988 8.12109 280.836 7.80469 280.758 7.42969L281.76 7.18945C281.853 7.54883 282.03 7.8125 282.29 7.98047C282.55 8.14844 282.875 8.23242 283.265 8.23242C283.722 8.23242 284.087 8.13477 284.358 7.93945C284.63 7.74414 284.765 7.51172 284.765 7.24219C284.765 7.01562 284.686 6.82715 284.528 6.67676C284.37 6.52637 284.129 6.41406 283.804 6.33984L282.715 6.08203C282.121 5.94141 281.679 5.72363 281.39 5.42871C281.101 5.13379 280.957 4.75586 280.957 4.29492C280.957 3.91992 281.062 3.58887 281.273 3.30176C281.484 3.01465 281.772 2.79004 282.137 2.62793C282.503 2.46582 282.918 2.38477 283.383 2.38477C283.832 2.38477 284.214 2.45215 284.528 2.58691C284.843 2.72168 285.098 2.90723 285.296 3.14355C285.493 3.37988 285.64 3.65234 285.738 3.96094L284.783 4.20703C284.693 3.97266 284.544 3.75977 284.335 3.56836C284.126 3.37695 283.81 3.28125 283.388 3.28125C282.998 3.28125 282.673 3.37109 282.413 3.55078C282.153 3.73047 282.023 3.95703 282.023 4.23047C282.023 4.47266 282.111 4.66699 282.287 4.81348C282.463 4.95996 282.742 5.07812 283.125 5.16797L284.115 5.40234C284.709 5.54297 285.148 5.76074 285.433 6.05566C285.719 6.35059 285.861 6.72266 285.861 7.17188C285.861 7.55469 285.753 7.89551 285.536 8.19434C285.319 8.49316 285.016 8.72852 284.628 8.90039C284.239 9.07227 283.789 9.1582 283.277 9.1582ZM290.76 9.01758V2.4668H291.779V3.47461H291.849C291.97 3.14258 292.186 2.87598 292.497 2.6748C292.807 2.47363 293.158 2.37305 293.549 2.37305C293.627 2.37305 293.719 2.375 293.827 2.37891C293.934 2.38281 294.019 2.38672 294.082 2.39062V3.45117C294.051 3.44336 293.972 3.43164 293.847 3.41602C293.722 3.40039 293.59 3.39258 293.449 3.39258C293.136 3.39258 292.856 3.45801 292.608 3.58887C292.36 3.71973 292.166 3.89941 292.025 4.12793C291.885 4.35645 291.814 4.61914 291.814 4.91602V9.01758H290.76ZM297.832 9.1582C297.199 9.1582 296.653 9.01758 296.194 8.73633C295.735 8.45508 295.382 8.0625 295.134 7.55859C294.885 7.05469 294.761 6.4668 294.761 5.79492C294.761 5.12305 294.883 4.53125 295.125 4.01953C295.367 3.50781 295.71 3.10742 296.153 2.81836C296.596 2.5293 297.115 2.38477 297.709 2.38477C298.056 2.38477 298.399 2.44238 298.737 2.55762C299.075 2.67285 299.382 2.8584 299.657 3.11426C299.932 3.37012 300.152 3.70703 300.316 4.125C300.48 4.54297 300.562 5.05469 300.562 5.66016V6.09961H295.476V5.20898H299.994L299.502 5.53711C299.502 5.10742 299.434 4.72559 299.3 4.3916C299.165 4.05762 298.965 3.7959 298.699 3.60645C298.433 3.41699 298.103 3.32227 297.709 3.32227C297.314 3.32227 296.976 3.41895 296.695 3.6123C296.414 3.80566 296.199 4.05762 296.051 4.36816C295.902 4.67871 295.828 5.01172 295.828 5.36719V5.95898C295.828 6.44336 295.912 6.85449 296.08 7.19238C296.248 7.53027 296.483 7.78613 296.786 7.95996C297.089 8.13379 297.439 8.2207 297.838 8.2207C298.095 8.2207 298.33 8.18359 298.541 8.10938C298.752 8.03516 298.933 7.92285 299.086 7.77246C299.238 7.62207 299.355 7.43555 299.437 7.21289L300.457 7.49414C300.355 7.82227 300.183 8.11133 299.941 8.36133C299.699 8.61133 299.399 8.80664 299.042 8.94727C298.684 9.08789 298.281 9.1582 297.832 9.1582ZM304.301 9.1582C303.851 9.1582 303.452 9.09277 303.102 8.96191C302.753 8.83105 302.465 8.63672 302.238 8.37891C302.011 8.12109 301.859 7.80469 301.781 7.42969L302.783 7.18945C302.877 7.54883 303.053 7.8125 303.313 7.98047C303.573 8.14844 303.898 8.23242 304.289 8.23242C304.746 8.23242 305.11 8.13477 305.382 7.93945C305.653 7.74414 305.789 7.51172 305.789 7.24219C305.789 7.01562 305.71 6.82715 305.552 6.67676C305.393 6.52637 305.152 6.41406 304.828 6.33984L303.738 6.08203C303.144 5.94141 302.703 5.72363 302.414 5.42871C302.125 5.13379 301.98 4.75586 301.98 4.29492C301.98 3.91992 302.086 3.58887 302.297 3.30176C302.508 3.01465 302.796 2.79004 303.161 2.62793C303.526 2.46582 303.941 2.38477 304.406 2.38477C304.855 2.38477 305.237 2.45215 305.552 2.58691C305.866 2.72168 306.122 2.90723 306.319 3.14355C306.516 3.37988 306.664 3.65234 306.761 3.96094L305.806 4.20703C305.717 3.97266 305.567 3.75977 305.358 3.56836C305.149 3.37695 304.834 3.28125 304.412 3.28125C304.021 3.28125 303.696 3.37109 303.436 3.55078C303.177 3.73047 303.047 3.95703 303.047 4.23047C303.047 4.47266 303.135 4.66699 303.31 4.81348C303.486 4.95996 303.765 5.07812 304.148 5.16797L305.138 5.40234C305.732 5.54297 306.172 5.76074 306.457 6.05566C306.742 6.35059 306.885 6.72266 306.885 7.17188C306.885 7.55469 306.776 7.89551 306.559 8.19434C306.343 8.49316 306.04 8.72852 305.651 8.90039C305.262 9.07227 304.812 9.1582 304.301 9.1582ZM311.162 9.1582C310.529 9.1582 309.983 9.01758 309.524 8.73633C309.065 8.45508 308.712 8.0625 308.464 7.55859C308.216 7.05469 308.092 6.4668 308.092 5.79492C308.092 5.12305 308.213 4.53125 308.455 4.01953C308.697 3.50781 309.04 3.10742 309.483 2.81836C309.927 2.5293 310.445 2.38477 311.039 2.38477C311.386 2.38477 311.729 2.44238 312.067 2.55762C312.405 2.67285 312.712 2.8584 312.987 3.11426C313.262 3.37012 313.482 3.70703 313.646 4.125C313.81 4.54297 313.892 5.05469 313.892 5.66016V6.09961H308.806V5.20898H313.324L312.832 5.53711C312.832 5.10742 312.764 4.72559 312.63 4.3916C312.495 4.05762 312.295 3.7959 312.029 3.60645C311.763 3.41699 311.433 3.32227 311.039 3.32227C310.644 3.32227 310.306 3.41895 310.025 3.6123C309.744 3.80566 309.529 4.05762 309.381 4.36816C309.232 4.67871 309.158 5.01172 309.158 5.36719V5.95898C309.158 6.44336 309.242 6.85449 309.41 7.19238C309.578 7.53027 309.813 7.78613 310.116 7.95996C310.419 8.13379 310.769 8.2207 311.168 8.2207C311.426 8.2207 311.66 8.18359 311.871 8.10938C312.082 8.03516 312.263 7.92285 312.416 7.77246C312.568 7.62207 312.685 7.43555 312.767 7.21289L313.787 7.49414C313.685 7.82227 313.513 8.11133 313.271 8.36133C313.029 8.61133 312.729 8.80664 312.372 8.94727C312.014 9.08789 311.611 9.1582 311.162 9.1582ZM315.404 9.01758V2.4668H316.424V3.47461H316.494C316.615 3.14258 316.831 2.87598 317.141 2.6748C317.452 2.47363 317.802 2.37305 318.193 2.37305C318.271 2.37305 318.364 2.375 318.471 2.37891C318.579 2.38281 318.664 2.38672 318.726 2.39062V3.45117C318.695 3.44336 318.617 3.43164 318.492 3.41602C318.367 3.40039 318.234 3.39258 318.094 3.39258C317.781 3.39258 317.501 3.45801 317.253 3.58887C317.005 3.71973 316.81 3.89941 316.67 4.12793C316.529 4.35645 316.459 4.61914 316.459 4.91602V9.01758H315.404ZM322.002 9.01758L319.5 2.4668H320.654L322.049 6.35156C322.197 6.75391 322.323 7.15527 322.427 7.55566C322.53 7.95605 322.638 8.34375 322.752 8.71875H322.365C322.478 8.34375 322.587 7.95605 322.69 7.55566C322.794 7.15527 322.918 6.75391 323.062 6.35156L324.457 2.4668H325.611L323.109 9.01758H322.002ZM329.373 9.1582C328.74 9.1582 328.194 9.01758 327.735 8.73633C327.276 8.45508 326.923 8.0625 326.675 7.55859C326.427 7.05469 326.302 6.4668 326.302 5.79492C326.302 5.12305 326.424 4.53125 326.666 4.01953C326.908 3.50781 327.251 3.10742 327.694 2.81836C328.137 2.5293 328.656 2.38477 329.25 2.38477C329.597 2.38477 329.94 2.44238 330.278 2.55762C330.616 2.67285 330.923 2.8584 331.198 3.11426C331.473 3.37012 331.693 3.70703 331.857 4.125C332.021 4.54297 332.103 5.05469 332.103 5.66016V6.09961H327.017V5.20898H331.535L331.043 5.53711C331.043 5.10742 330.975 4.72559 330.841 4.3916C330.706 4.05762 330.506 3.7959 330.24 3.60645C329.974 3.41699 329.644 3.32227 329.25 3.32227C328.855 3.32227 328.517 3.41895 328.236 3.6123C327.955 3.80566 327.74 4.05762 327.592 4.36816C327.443 4.67871 327.369 5.01172 327.369 5.36719V5.95898C327.369 6.44336 327.453 6.85449 327.621 7.19238C327.789 7.53027 328.024 7.78613 328.327 7.95996C328.63 8.13379 328.98 8.2207 329.379 8.2207C329.636 8.2207 329.871 8.18359 330.082 8.10938C330.293 8.03516 330.474 7.92285 330.627 7.77246C330.779 7.62207 330.896 7.43555 330.978 7.21289L331.998 7.49414C331.896 7.82227 331.724 8.11133 331.482 8.36133C331.24 8.61133 330.94 8.80664 330.583 8.94727C330.225 9.08789 329.822 9.1582 329.373 9.1582ZM336.07 9.1582C335.527 9.1582 335.047 9.01953 334.629 8.74219C334.211 8.46484 333.885 8.07227 333.65 7.56445C333.416 7.05664 333.299 6.45508 333.299 5.75977C333.299 5.06836 333.417 4.46973 333.653 3.96387C333.889 3.45801 334.217 3.06836 334.635 2.79492C335.052 2.52148 335.533 2.38477 336.076 2.38477C336.502 2.38477 336.84 2.45508 337.09 2.5957C337.34 2.73633 337.532 2.89551 337.667 3.07324C337.802 3.25098 337.904 3.39844 337.974 3.51562H338.056V0.287109H339.111V9.01758H338.092V8.00391H337.974C337.904 8.125 337.8 8.27637 337.661 8.45801C337.522 8.63965 337.327 8.80176 337.075 8.94434C336.823 9.08691 336.488 9.1582 336.07 9.1582ZM336.228 8.21484C336.627 8.21484 336.963 8.11035 337.236 7.90137C337.51 7.69238 337.717 7.40234 337.857 7.03125C337.998 6.66016 338.068 6.23242 338.068 5.74805C338.068 5.26367 337.999 4.84082 337.86 4.47949C337.721 4.11816 337.515 3.83594 337.242 3.63281C336.969 3.42969 336.631 3.32812 336.228 3.32812C335.814 3.32812 335.469 3.43555 335.194 3.65039C334.919 3.86523 334.713 4.15527 334.576 4.52051C334.439 4.88574 334.371 5.29492 334.371 5.74805C334.371 6.20508 334.44 6.62012 334.579 6.99316C334.718 7.36621 334.926 7.66309 335.203 7.88379C335.48 8.10449 335.822 8.21484 336.228 8.21484ZM341.765 9.09375C341.547 9.09375 341.36 9.0166 341.206 8.8623C341.052 8.70801 340.974 8.52148 340.974 8.30273C340.974 8.08398 341.052 7.89746 341.206 7.74316C341.36 7.58887 341.547 7.51172 341.765 7.51172C341.984 7.51172 342.171 7.58887 342.325 7.74316C342.479 7.89746 342.556 8.08398 342.556 8.30273C342.556 8.52148 342.479 8.70801 342.325 8.8623C342.171 9.0166 341.984 9.09375 341.765 9.09375Z" fill="#94A3B8"/>
</svg>
