<svg width="446" height="49" viewBox="0 0 446 49" fill="none" xmlns="http://www.w3.org/2000/svg">
<rect x="0.5" y="0.5" width="445" height="48" rx="7.5" fill="#F8FAFC"/>
<rect x="0.5" y="0.5" width="445" height="48" rx="7.5" stroke="#E2E8F0"/>
<g clip-path="url(#clip0_205_2339)">
<path d="M46.8636 18.3636H48.2727V26.6818C48.2727 27.4242 48.1364 28.0549 47.8636 28.5739C47.5909 29.0928 47.2064 29.4867 46.7102 29.7557C46.214 30.0246 45.6288 30.1591 44.9545 30.1591C44.3182 30.1591 43.7519 30.0436 43.2557 29.8125C42.7595 29.5777 42.3693 29.2443 42.0852 28.8125C41.8011 28.3807 41.6591 27.8674 41.6591 27.2727H43.0455C43.0455 27.6023 43.1269 27.8902 43.2898 28.1364C43.4564 28.3788 43.6837 28.5682 43.9716 28.7045C44.2595 28.8409 44.5871 28.9091 44.9545 28.9091C45.3598 28.9091 45.7045 28.8239 45.9886 28.6534C46.2727 28.483 46.4886 28.233 46.6364 27.9034C46.7879 27.5701 46.8636 27.1629 46.8636 26.6818V18.3636ZM54.4602 30.1818C53.6723 30.1818 52.9811 29.9943 52.3864 29.6193C51.7955 29.2443 51.3333 28.7197 51 28.0455C50.6705 27.3712 50.5057 26.5833 50.5057 25.6818C50.5057 24.7727 50.6705 23.9792 51 23.3011C51.3333 22.6231 51.7955 22.0966 52.3864 21.7216C52.9811 21.3466 53.6723 21.1591 54.4602 21.1591C55.2481 21.1591 55.9375 21.3466 56.5284 21.7216C57.1231 22.0966 57.5852 22.6231 57.9148 23.3011C58.2481 23.9792 58.4148 24.7727 58.4148 25.6818C58.4148 26.5833 58.2481 27.3712 57.9148 28.0455C57.5852 28.7197 57.1231 29.2443 56.5284 29.6193C55.9375 29.9943 55.2481 30.1818 54.4602 30.1818ZM54.4602 28.9773C55.0587 28.9773 55.5511 28.8239 55.9375 28.517C56.3239 28.2102 56.6098 27.8068 56.7955 27.3068C56.9811 26.8068 57.0739 26.2652 57.0739 25.6818C57.0739 25.0985 56.9811 24.5549 56.7955 24.0511C56.6098 23.5473 56.3239 23.1402 55.9375 22.8295C55.5511 22.5189 55.0587 22.3636 54.4602 22.3636C53.8617 22.3636 53.3693 22.5189 52.983 22.8295C52.5966 23.1402 52.3106 23.5473 52.125 24.0511C51.9394 24.5549 51.8466 25.0985 51.8466 25.6818C51.8466 26.2652 51.9394 26.8068 52.125 27.3068C52.3106 27.8068 52.5966 28.2102 52.983 28.517C53.3693 28.8239 53.8617 28.9773 54.4602 28.9773ZM61.8026 24.75V30H60.4616V18.3636H61.8026V22.6364H61.9162C62.1207 22.1856 62.4276 21.8277 62.8366 21.5625C63.2495 21.2936 63.7988 21.1591 64.4844 21.1591C65.0791 21.1591 65.5999 21.2784 66.0469 21.517C66.4938 21.7519 66.8404 22.1136 67.0866 22.6023C67.3366 23.0871 67.4616 23.7045 67.4616 24.4545V30H66.1207V24.5455C66.1207 23.8523 65.9408 23.3163 65.581 22.9375C65.2249 22.5549 64.7306 22.3636 64.098 22.3636C63.6586 22.3636 63.2647 22.4564 62.9162 22.642C62.5715 22.8277 62.2988 23.0985 62.098 23.4545C61.901 23.8106 61.8026 24.2424 61.8026 24.75ZM71.2557 24.75V30H69.9148V21.2727H71.2102V22.6364H71.3239C71.5284 22.1932 71.839 21.8371 72.2557 21.5682C72.6723 21.2955 73.2102 21.1591 73.8693 21.1591C74.4602 21.1591 74.9773 21.2803 75.4205 21.5227C75.8636 21.7614 76.2083 22.125 76.4545 22.6136C76.7008 23.0985 76.8239 23.7121 76.8239 24.4545V30H75.483V24.5455C75.483 23.8598 75.3049 23.3258 74.9489 22.9432C74.5928 22.5568 74.1042 22.3636 73.483 22.3636C73.0549 22.3636 72.6723 22.4564 72.3352 22.642C72.0019 22.8277 71.7386 23.0985 71.5455 23.4545C71.3523 23.8106 71.2557 24.2424 71.2557 24.75ZM87.5469 30H83.956V18.3636H87.706C88.8348 18.3636 89.8007 18.5966 90.6037 19.0625C91.4067 19.5246 92.0223 20.1894 92.4503 21.0568C92.8783 21.9205 93.0923 22.9545 93.0923 24.1591C93.0923 25.3712 92.8764 26.4148 92.4446 27.2898C92.0128 28.161 91.384 28.8314 90.5582 29.3011C89.7325 29.767 88.7287 30 87.5469 30ZM85.3651 28.75H87.456C88.4181 28.75 89.2154 28.5644 89.848 28.1932C90.4806 27.822 90.9522 27.2936 91.2628 26.608C91.5734 25.9223 91.7287 25.1061 91.7287 24.1591C91.7287 23.2197 91.5753 22.411 91.2685 21.733C90.9616 21.0511 90.5033 20.5284 89.8935 20.1648C89.2836 19.7973 88.5241 19.6136 87.6151 19.6136H85.3651V28.75ZM98.8196 30.1818C98.0317 30.1818 97.3404 29.9943 96.7457 29.6193C96.1548 29.2443 95.6927 28.7197 95.3594 28.0455C95.0298 27.3712 94.8651 26.5833 94.8651 25.6818C94.8651 24.7727 95.0298 23.9792 95.3594 23.3011C95.6927 22.6231 96.1548 22.0966 96.7457 21.7216C97.3404 21.3466 98.0317 21.1591 98.8196 21.1591C99.6075 21.1591 100.297 21.3466 100.888 21.7216C101.482 22.0966 101.945 22.6231 102.274 23.3011C102.607 23.9792 102.774 24.7727 102.774 25.6818C102.774 26.5833 102.607 27.3712 102.274 28.0455C101.945 28.7197 101.482 29.2443 100.888 29.6193C100.297 29.9943 99.6075 30.1818 98.8196 30.1818ZM98.8196 28.9773C99.4181 28.9773 99.9105 28.8239 100.297 28.517C100.683 28.2102 100.969 27.8068 101.155 27.3068C101.34 26.8068 101.433 26.2652 101.433 25.6818C101.433 25.0985 101.34 24.5549 101.155 24.0511C100.969 23.5473 100.683 23.1402 100.297 22.8295C99.9105 22.5189 99.4181 22.3636 98.8196 22.3636C98.2211 22.3636 97.7287 22.5189 97.3423 22.8295C96.956 23.1402 96.67 23.5473 96.4844 24.0511C96.2988 24.5549 96.206 25.0985 96.206 25.6818C96.206 26.2652 96.2988 26.8068 96.4844 27.3068C96.67 27.8068 96.956 28.2102 97.3423 28.517C97.7287 28.8239 98.2211 28.9773 98.8196 28.9773ZM108.48 30.1818C107.639 30.1818 106.914 29.9962 106.304 29.625C105.698 29.25 105.23 28.7273 104.901 28.0568C104.575 27.3826 104.412 26.5985 104.412 25.7045C104.412 24.8106 104.575 24.0227 104.901 23.3409C105.23 22.6553 105.688 22.1212 106.276 21.7386C106.866 21.3523 107.556 21.1591 108.344 21.1591C108.798 21.1591 109.247 21.2348 109.69 21.3864C110.134 21.5379 110.537 21.7841 110.901 22.125C111.264 22.4621 111.554 22.9091 111.77 23.4659C111.986 24.0227 112.094 24.7083 112.094 25.5227V26.0909H105.366V24.9318H110.73C110.73 24.4394 110.632 24 110.435 23.6136C110.241 23.2273 109.965 22.9223 109.605 22.6989C109.249 22.4754 108.829 22.3636 108.344 22.3636C107.81 22.3636 107.348 22.4962 106.957 22.7614C106.571 23.0227 106.274 23.3636 106.065 23.7841C105.857 24.2045 105.753 24.6553 105.753 25.1364V25.9091C105.753 26.5682 105.866 27.1269 106.094 27.5852C106.325 28.0398 106.645 28.3864 107.054 28.625C107.463 28.8598 107.938 28.9773 108.48 28.9773C108.832 28.9773 109.151 28.928 109.435 28.8295C109.723 28.7273 109.971 28.5758 110.179 28.375C110.387 28.1705 110.548 27.9167 110.662 27.6136L111.957 27.9773C111.821 28.4167 111.592 28.803 111.27 29.1364C110.948 29.4659 110.55 29.7235 110.077 29.9091C109.603 30.0909 109.071 30.1818 108.48 30.1818Z" fill="#6B7280"/>
</g>
<path d="M18.6667 17.4469C17.75 17.4469 16.9653 17.1206 16.3125 16.4678C15.6597 15.815 15.3333 15.0303 15.3333 14.1136C15.3333 13.1969 15.6597 12.4122 16.3125 11.7594C16.9653 11.1067 17.75 10.7803 18.6667 10.7803C19.5833 10.7803 20.3681 11.1067 21.0208 11.7594C21.6736 12.4122 22 13.1969 22 14.1136C22 15.0303 21.6736 15.815 21.0208 16.4678C20.3681 17.1206 19.5833 17.4469 18.6667 17.4469ZM12 24.1136V21.7803C12 21.3081 12.1215 20.874 12.3646 20.4782C12.6076 20.0824 12.9306 19.7803 13.3333 19.5719C14.1944 19.1414 15.0694 18.8185 15.9583 18.6032C16.8472 18.3879 17.75 18.2803 18.6667 18.2803C19.5833 18.2803 20.4861 18.3879 21.375 18.6032C22.2639 18.8185 23.1389 19.1414 24 19.5719C24.4028 19.7803 24.7257 20.0824 24.9688 20.4782C25.2118 20.874 25.3333 21.3081 25.3333 21.7803V24.1136H12ZM13.6667 22.4469H23.6667V21.7803C23.6667 21.6275 23.6285 21.4886 23.5521 21.3636C23.4757 21.2386 23.375 21.1414 23.25 21.0719C22.5 20.6969 21.7431 20.4157 20.9792 20.2282C20.2153 20.0407 19.4444 19.9469 18.6667 19.9469C17.8889 19.9469 17.1181 20.0407 16.3542 20.2282C15.5903 20.4157 14.8333 20.6969 14.0833 21.0719C13.9583 21.1414 13.8576 21.2386 13.7812 21.3636C13.7049 21.4886 13.6667 21.6275 13.6667 21.7803V22.4469ZM18.6667 15.7803C19.125 15.7803 19.5174 15.6171 19.8438 15.2907C20.1701 14.9643 20.3333 14.5719 20.3333 14.1136C20.3333 13.6553 20.1701 13.2629 19.8438 12.9365C19.5174 12.6101 19.125 12.4469 18.6667 12.4469C18.2083 12.4469 17.816 12.6101 17.4896 12.9365C17.1632 13.2629 17 13.6553 17 14.1136C17 14.5719 17.1632 14.9643 17.4896 15.2907C17.816 15.6171 18.2083 15.7803 18.6667 15.7803Z" fill="#94A3B8"/>
<defs>
<clipPath id="clip0_205_2339">
<rect width="388" height="19" fill="white" transform="translate(41 15)"/>
</clipPath>
</defs>
</svg>
