<svg width="66" height="11" viewBox="0 0 66 11" fill="none" xmlns="http://www.w3.org/2000/svg">
<path d="M0.000320911 10.1855V0H6.52124V1.53725H1.82577V4.59539H6.06624V6.11296H1.82577V10.1855H0.000320911ZM10.2955 10.2812C9.77234 10.2812 9.31387 10.1691 8.92012 9.94492C8.52637 9.7207 8.22085 9.39358 8.00356 8.96356C7.78627 8.53353 7.67762 8.01281 7.67762 7.40141V2.54297H9.4544V7.12907C9.4544 7.64149 9.58802 8.04313 9.85526 8.33398C10.1225 8.62483 10.4891 8.77025 10.955 8.77025C11.2704 8.77025 11.5502 8.70157 11.7945 8.56421C12.0388 8.42686 12.2313 8.22693 12.372 7.96443C12.5127 7.70192 12.5831 7.38701 12.5831 7.01969V2.54297H14.3642V10.1855H12.6752L12.6556 8.2961H12.7901C12.5761 8.96237 12.2597 9.4598 11.8408 9.78838C11.422 10.117 10.9069 10.2812 10.2955 10.2812ZM18.0267 0V10.1855H16.2499V0H18.0267ZM21.6907 0V10.1855H19.914V0H21.6907ZM27.1868 10.1855V0H29.2496L32.7745 5.60906C32.92 5.84166 33.0751 6.10489 33.2399 6.39874C33.4047 6.6926 33.5755 7.02104 33.7522 7.38407C33.9289 7.7471 34.1047 8.14974 34.2795 8.59197H34.0753C34.0408 8.20825 34.0116 7.81455 33.9876 7.41086C33.9637 7.00718 33.9453 6.62419 33.9325 6.26189C33.9198 5.89958 33.9134 5.59311 33.9134 5.34246V0H35.7684V10.1855H33.6968L30.5198 5.13677C30.32 4.81211 30.1305 4.4926 29.9514 4.17824C29.7723 3.86388 29.5804 3.50818 29.3756 3.11115C29.1708 2.71412 28.923 2.23506 28.6322 1.67396H28.8887C28.9164 2.16998 28.9422 2.64038 28.9662 3.08517C28.9902 3.52996 29.0095 3.92745 29.0242 4.27763C29.0389 4.62781 29.0462 4.91127 29.0462 5.12802V10.1855H27.1868ZM39.8724 10.3436C39.3877 10.3436 38.9515 10.2561 38.5639 10.0812C38.1762 9.90632 37.8703 9.64751 37.6461 9.3048C37.4219 8.9621 37.3098 8.53927 37.3098 8.03633C37.3098 7.60539 37.3906 7.2491 37.5523 6.96746C37.714 6.68582 37.9334 6.46064 38.2105 6.29193C38.4876 6.12322 38.7995 5.99562 39.1463 5.90912C39.4931 5.82263 39.8516 5.75987 40.2219 5.72086C40.6678 5.67146 41.0289 5.62835 41.3054 5.59152C41.5818 5.5547 41.7854 5.4955 41.9162 5.41393C42.047 5.33235 42.1124 5.20552 42.1124 5.03344V4.99734C42.1124 4.7456 42.0618 4.53259 41.9605 4.35831C41.8593 4.18404 41.7098 4.05037 41.5122 3.95731C41.3146 3.86425 41.0701 3.81772 40.7786 3.81772C40.4829 3.81772 40.2265 3.8632 40.0094 3.95417C39.7923 4.04513 39.6152 4.16335 39.478 4.30882C39.3408 4.45429 39.2402 4.61179 39.1762 4.78132L37.5285 4.44335C37.6802 3.99163 37.9133 3.61876 38.228 3.32472C38.5426 3.03069 38.9181 2.81093 39.3544 2.66547C39.7907 2.52 40.2631 2.44727 40.7715 2.44727C41.13 2.44727 41.4928 2.48992 41.8596 2.57523C42.2265 2.66054 42.5631 2.80255 42.8694 3.00125C43.1758 3.19994 43.4223 3.46832 43.6091 3.80638C43.7958 4.14444 43.8892 4.56768 43.8892 5.0761V10.1855H42.1895V9.13172H42.1174C42.0062 9.34883 41.8503 9.54948 41.6499 9.73369C41.4495 9.9179 41.2023 10.0656 40.9085 10.1768C40.6146 10.288 40.2693 10.3436 39.8724 10.3436ZM40.328 9.0229C40.6951 9.0229 41.0125 8.95044 41.2802 8.80552C41.5479 8.66059 41.7552 8.46786 41.902 8.22733C42.0489 7.98679 42.1223 7.72552 42.1223 7.44351V6.53898C42.0639 6.58674 41.9661 6.63085 41.8286 6.67132C41.6912 6.71179 41.5363 6.74779 41.3642 6.77933C41.192 6.81087 41.0234 6.83794 40.8583 6.86054C40.6932 6.88315 40.5531 6.9021 40.4379 6.91742C40.1712 6.95223 39.9312 7.01162 39.7181 7.09556C39.5049 7.17951 39.3372 7.29545 39.2151 7.44338C39.0929 7.59131 39.0319 7.7824 39.0319 8.01664C39.0319 8.23667 39.0879 8.4212 39.2 8.57022C39.3121 8.71925 39.4654 8.83195 39.6597 8.90833C39.854 8.98471 40.0768 9.0229 40.328 9.0229ZM45.7743 10.1855V2.54297H47.4431L47.5114 4.37992H47.3813C47.4927 3.92747 47.6632 3.55746 47.8929 3.2699C48.1226 2.98234 48.3914 2.76896 48.6994 2.62978C49.0074 2.4906 49.3295 2.42102 49.6658 2.42102C50.2169 2.42102 50.6624 2.59437 51.0024 2.94109C51.3424 3.28781 51.5822 3.79659 51.7218 4.46741H51.5085C51.6144 4.01242 51.7939 3.63321 52.0469 3.32978C52.3 3.02636 52.601 2.79904 52.95 2.64783C53.299 2.49662 53.6713 2.42102 54.0671 2.42102C54.5256 2.42102 54.9379 2.52082 55.3041 2.72043C55.6703 2.92004 55.9601 3.21312 56.1732 3.59967C56.3864 3.98622 56.493 4.46341 56.493 5.03125V10.1855H54.7163V5.30413C54.7163 4.83145 54.5867 4.48523 54.3277 4.26547C54.0687 4.04572 53.757 3.93584 53.3928 3.93584C53.1068 3.93584 52.8593 3.99737 52.6503 4.12041C52.4413 4.24346 52.2806 4.4135 52.1683 4.63052C52.0561 4.84753 51.9999 5.09978 51.9999 5.38726V10.1855H50.2674V5.22538C50.2674 4.83436 50.1467 4.52169 49.9051 4.28735C49.6636 4.05301 49.3534 3.93584 48.9746 3.93584C48.7161 3.93584 48.4784 3.99591 48.2615 4.11604C48.0445 4.23617 47.8719 4.41204 47.7436 4.64364C47.6152 4.87524 47.5511 5.16103 47.5511 5.50101V10.1855H45.7743ZM61.7551 10.3398C60.9889 10.3398 60.3282 10.1786 59.7731 9.85619C59.2179 9.53381 58.7911 9.07867 58.4927 8.49078C58.1943 7.90289 58.0451 7.20964 58.0451 6.41102C58.0451 5.62552 58.1925 4.9355 58.4874 4.34096C58.7822 3.74641 59.1994 3.28216 59.7388 2.9482C60.2782 2.61424 60.9114 2.44727 61.6386 2.44727C62.1065 2.44727 62.5507 2.52269 62.9712 2.67353C63.3916 2.82438 63.7646 3.05644 64.09 3.3697C64.4153 3.68297 64.6713 4.0826 64.8578 4.56859C65.0442 5.05458 65.1375 5.63354 65.1375 6.30547V6.86H58.884V5.6536H64.2505L63.4203 6.0118C63.4203 5.5794 63.3536 5.20037 63.2202 4.8747C63.0867 4.54904 62.8888 4.29538 62.6265 4.11372C62.3642 3.93207 62.0382 3.84124 61.6484 3.84124C61.2587 3.84124 60.9268 3.93352 60.6528 4.1181C60.3789 4.30267 60.17 4.54904 60.0264 4.8572C59.8827 5.16537 59.8109 5.50794 59.8109 5.88492V6.72054C59.8109 7.20362 59.8929 7.61109 60.0569 7.94295C60.2209 8.27482 60.4511 8.52492 60.7477 8.69327C61.0443 8.86162 61.3881 8.94579 61.7791 8.94579C62.0389 8.94579 62.275 8.90865 62.4875 8.83437C62.6999 8.76008 62.8827 8.64916 63.0359 8.50159C63.189 8.35403 63.306 8.17169 63.387 7.95458L65.0194 8.29254C64.8976 8.70161 64.6881 9.05976 64.3907 9.36701C64.0934 9.67427 63.7223 9.9132 63.2774 10.0838C62.8326 10.2545 62.3251 10.3398 61.7551 10.3398Z" fill="#334155"/>
</svg>
