<svg width="331" height="14" viewBox="0 0 331 14" fill="none" xmlns="http://www.w3.org/2000/svg">
<path d="M1.29883 0.478516V10.6641H0V0.478516H1.29883ZM9.68652 10.8418C9.20345 10.8418 8.76481 10.7507 8.37061 10.5684C7.9764 10.3861 7.66309 10.1195 7.43066 9.76855C7.19824 9.41764 7.08203 8.99154 7.08203 8.49023C7.08203 8.05273 7.16862 7.69727 7.3418 7.42383C7.51497 7.15039 7.74626 6.93506 8.03564 6.77783C8.32503 6.62061 8.64518 6.50326 8.99609 6.42578C9.34701 6.34831 9.7002 6.28678 10.0557 6.24121C10.5114 6.18197 10.8828 6.13639 11.1699 6.10449C11.457 6.07259 11.6701 6.0179 11.8091 5.94043C11.9481 5.86296 12.0176 5.73079 12.0176 5.54395V5.50293C12.0176 5.18392 11.9583 4.9139 11.8398 4.69287C11.7214 4.47184 11.5436 4.30208 11.3066 4.18359C11.0697 4.0651 10.7734 4.00586 10.418 4.00586C10.0534 4.00586 9.74121 4.06283 9.48145 4.17676C9.22168 4.29069 9.0109 4.43311 8.84912 4.604C8.68734 4.7749 8.56543 4.94922 8.4834 5.12695L7.30078 4.7373C7.49674 4.27246 7.76107 3.90902 8.09375 3.64697C8.42643 3.38493 8.79329 3.19922 9.19434 3.08984C9.59538 2.98047 9.99186 2.92578 10.3838 2.92578C10.639 2.92578 10.9295 2.95654 11.2554 3.01807C11.5812 3.07959 11.8957 3.2015 12.1987 3.38379C12.5018 3.56608 12.7524 3.8361 12.9507 4.19385C13.1489 4.5516 13.248 5.02897 13.248 5.62598V10.6641H12.0381V9.625H11.9561C11.8695 9.80273 11.7305 9.98617 11.5391 10.1753C11.3477 10.3644 11.0993 10.5228 10.7939 10.6504C10.4886 10.778 10.1195 10.8418 9.68652 10.8418ZM9.89844 9.75488C10.3542 9.75488 10.7393 9.66602 11.0537 9.48828C11.3682 9.31055 11.6074 9.07926 11.7715 8.79443C11.9355 8.5096 12.0176 8.21224 12.0176 7.90234V6.84277C11.9674 6.90202 11.8581 6.95557 11.6895 7.00342C11.5208 7.05127 11.3283 7.09342 11.1118 7.12988C10.8953 7.16634 10.6857 7.1971 10.4829 7.22217C10.2801 7.24723 10.1195 7.2666 10.001 7.28027C9.70475 7.31673 9.4279 7.37939 9.17041 7.46826C8.91292 7.55713 8.70671 7.68701 8.55176 7.85791C8.39681 8.02881 8.31934 8.26009 8.31934 8.55176C8.31934 8.81608 8.3877 9.03711 8.52441 9.21484C8.66113 9.39258 8.84798 9.52702 9.08496 9.61816C9.32194 9.70931 9.5931 9.75488 9.89844 9.75488ZM18.5049 13.6855C17.9398 13.6855 17.451 13.6138 17.0386 13.4702C16.6261 13.3267 16.2832 13.1364 16.0098 12.8994C15.7363 12.6624 15.5199 12.4049 15.3604 12.127L16.3584 11.4844C16.4678 11.6302 16.6034 11.792 16.7651 11.9697C16.9269 12.1475 17.1457 12.299 17.4214 12.4243C17.6971 12.5496 18.0583 12.6123 18.5049 12.6123C19.1156 12.6123 19.618 12.4665 20.0122 12.1748C20.4064 11.8831 20.6035 11.4229 20.6035 10.7939V9.2627H20.4873C20.4007 9.40853 20.2788 9.58171 20.1216 9.78223C19.9644 9.98275 19.7388 10.1593 19.4448 10.312C19.1509 10.4647 18.7578 10.541 18.2656 10.541C17.6549 10.541 17.1058 10.3963 16.6182 10.1069C16.1305 9.81755 15.7454 9.39486 15.4629 8.83887C15.1803 8.28288 15.0391 7.60612 15.0391 6.80859C15.0391 6.02018 15.1781 5.33545 15.4561 4.75439C15.734 4.17334 16.118 3.72331 16.6079 3.4043C17.0978 3.08529 17.6595 2.92578 18.293 2.92578C18.7852 2.92578 19.1782 3.00667 19.4722 3.16846C19.7661 3.33024 19.9928 3.51595 20.1523 3.72559C20.3118 3.93522 20.4349 4.1084 20.5215 4.24512H20.6377V3.02148H21.834V10.8623C21.834 11.5186 21.6859 12.0552 21.3896 12.4722C21.0934 12.8892 20.6935 13.1956 20.1899 13.3916C19.6864 13.5876 19.1247 13.6855 18.5049 13.6855ZM18.4707 9.44727C18.9355 9.44727 19.3275 9.34131 19.6465 9.12939C19.9655 8.91748 20.207 8.61214 20.3711 8.21338C20.5352 7.81462 20.6172 7.33724 20.6172 6.78125C20.6172 6.23893 20.5363 5.76156 20.3745 5.34912C20.2127 4.93669 19.9723 4.61312 19.6533 4.37842C19.3343 4.14372 18.9401 4.02637 18.4707 4.02637C17.9876 4.02637 17.5843 4.15055 17.2607 4.39893C16.9372 4.6473 16.6945 4.97884 16.5327 5.39355C16.3709 5.80827 16.29 6.27083 16.29 6.78125C16.29 7.30534 16.3721 7.7679 16.5361 8.16895C16.7002 8.56999 16.944 8.8833 17.2676 9.10889C17.5911 9.33447 17.9922 9.44727 18.4707 9.44727ZM23.9941 10.6641V3.02148H25.1836V4.19727H25.2656C25.4069 3.8099 25.6587 3.49886 26.021 3.26416C26.3833 3.02946 26.7923 2.91211 27.248 2.91211C27.3392 2.91211 27.4474 2.91439 27.5728 2.91895C27.6981 2.9235 27.7972 2.92806 27.8701 2.93262V4.16992C27.8337 4.16081 27.7425 4.14714 27.5967 4.12891C27.4508 4.11068 27.2959 4.10156 27.1318 4.10156C26.7673 4.10156 26.4403 4.1779 26.1509 4.33057C25.8615 4.48324 25.6348 4.69287 25.4707 4.95947C25.3066 5.22607 25.2246 5.53255 25.2246 5.87891V10.6641H23.9941ZM32.2451 10.8281C31.5068 10.8281 30.87 10.6641 30.3345 10.3359C29.799 10.0078 29.3866 9.5498 29.0972 8.96191C28.8078 8.37402 28.6631 7.68815 28.6631 6.9043C28.6631 6.12044 28.8044 5.43001 29.0869 4.83301C29.3695 4.236 29.7694 3.76888 30.2866 3.43164C30.8039 3.0944 31.4089 2.92578 32.1016 2.92578C32.5072 2.92578 32.9071 2.993 33.3013 3.12744C33.6955 3.26188 34.0532 3.47835 34.3745 3.77686C34.6958 4.07536 34.9521 4.46842 35.1436 4.95605C35.335 5.44368 35.4307 6.04069 35.4307 6.74707V7.25977H29.4971V6.2207H34.7676L34.1934 6.60352C34.1934 6.10221 34.1147 5.65674 33.9575 5.26709C33.8003 4.87744 33.5667 4.5721 33.2568 4.35107C32.9469 4.13005 32.5618 4.01953 32.1016 4.01953C31.6413 4.01953 31.2471 4.13232 30.9189 4.35791C30.5908 4.5835 30.3402 4.87744 30.167 5.23975C29.9938 5.60205 29.9072 5.99056 29.9072 6.40527V7.0957C29.9072 7.66081 30.0052 8.14046 30.2012 8.53467C30.3971 8.92887 30.6717 9.22738 31.0249 9.43018C31.3781 9.63298 31.7871 9.73438 32.252 9.73438C32.5527 9.73438 32.8262 9.69108 33.0723 9.60449C33.3184 9.5179 33.5303 9.38688 33.708 9.21143C33.8857 9.03597 34.0225 8.81836 34.1182 8.55859L35.3076 8.88672C35.1891 9.26953 34.9886 9.60677 34.7061 9.89844C34.4235 10.1901 34.0737 10.418 33.6567 10.582C33.2397 10.7461 32.7692 10.8281 32.2451 10.8281ZM40.4072 10.8281C39.6689 10.8281 39.0321 10.6641 38.4966 10.3359C37.9611 10.0078 37.5487 9.5498 37.2593 8.96191C36.9699 8.37402 36.8252 7.68815 36.8252 6.9043C36.8252 6.12044 36.9665 5.43001 37.249 4.83301C37.5316 4.236 37.9315 3.76888 38.4487 3.43164C38.966 3.0944 39.571 2.92578 40.2637 2.92578C40.6693 2.92578 41.0692 2.993 41.4634 3.12744C41.8576 3.26188 42.2153 3.47835 42.5366 3.77686C42.8579 4.07536 43.1143 4.46842 43.3057 4.95605C43.4971 5.44368 43.5928 6.04069 43.5928 6.74707V7.25977H37.6592V6.2207H42.9297L42.3555 6.60352C42.3555 6.10221 42.2769 5.65674 42.1196 5.26709C41.9624 4.87744 41.7288 4.5721 41.4189 4.35107C41.109 4.13005 40.724 4.01953 40.2637 4.01953C39.8034 4.01953 39.4092 4.13232 39.0811 4.35791C38.7529 4.5835 38.5023 4.87744 38.3291 5.23975C38.1559 5.60205 38.0693 5.99056 38.0693 6.40527V7.0957C38.0693 7.66081 38.1673 8.14046 38.3633 8.53467C38.5592 8.92887 38.8338 9.22738 39.187 9.43018C39.5402 9.63298 39.9492 9.73438 40.4141 9.73438C40.7148 9.73438 40.9883 9.69108 41.2344 9.60449C41.4805 9.5179 41.6924 9.38688 41.8701 9.21143C42.0479 9.03597 42.1846 8.81836 42.2803 8.55859L43.4697 8.88672C43.3512 9.26953 43.1507 9.60677 42.8682 9.89844C42.5856 10.1901 42.2358 10.418 41.8188 10.582C41.4019 10.7461 40.9313 10.8281 40.4072 10.8281ZM52.3018 3.02148V4.07422H48.3506V3.02148H52.3018ZM49.499 1.20312H50.7295V8.68164C50.7295 9.02344 50.799 9.27295 50.938 9.43018C51.077 9.5874 51.3083 9.66602 51.6318 9.66602C51.7093 9.66602 51.8084 9.6569 51.9292 9.63867C52.05 9.62044 52.1605 9.60221 52.2607 9.58398L52.5137 10.623C52.3861 10.6686 52.2414 10.7028 52.0796 10.7256C51.9178 10.7484 51.7572 10.7598 51.5977 10.7598C50.9368 10.7598 50.4219 10.5854 50.0527 10.2368C49.6836 9.88818 49.499 9.40169 49.499 8.77734V1.20312ZM56.8477 10.8281C56.1549 10.8281 55.5477 10.6641 55.0259 10.3359C54.5041 10.0078 54.0973 9.54753 53.8057 8.95508C53.514 8.36263 53.3682 7.67448 53.3682 6.89062C53.3682 6.0931 53.514 5.39697 53.8057 4.80225C54.0973 4.20752 54.5041 3.74609 55.0259 3.41797C55.5477 3.08984 56.1549 2.92578 56.8477 2.92578C57.5449 2.92578 58.1556 3.08984 58.6797 3.41797C59.2038 3.74609 59.6117 4.20752 59.9033 4.80225C60.195 5.39697 60.3408 6.0931 60.3408 6.89062C60.3408 7.67448 60.195 8.36263 59.9033 8.95508C59.6117 9.54753 59.2038 10.0078 58.6797 10.3359C58.1556 10.6641 57.5449 10.8281 56.8477 10.8281ZM56.8477 9.72754C57.3626 9.72754 57.7865 9.59538 58.1191 9.33105C58.4518 9.06673 58.6979 8.71924 58.8574 8.28857C59.0169 7.85791 59.0967 7.39193 59.0967 6.89062C59.0967 6.38477 59.0169 5.91423 58.8574 5.479C58.6979 5.04378 58.4518 4.69287 58.1191 4.42627C57.7865 4.15967 57.3626 4.02637 56.8477 4.02637C56.3372 4.02637 55.918 4.15967 55.5898 4.42627C55.2617 4.69287 55.0179 5.04264 54.8584 5.47559C54.6989 5.90853 54.6191 6.38021 54.6191 6.89062C54.6191 7.39193 54.6989 7.85791 54.8584 8.28857C55.0179 8.71924 55.2617 9.06673 55.5898 9.33105C55.918 9.59538 56.3372 9.72754 56.8477 9.72754ZM69.0771 3.02148V4.07422H65.126V3.02148H69.0771ZM66.2744 1.20312H67.5049V8.68164C67.5049 9.02344 67.5744 9.27295 67.7134 9.43018C67.8524 9.5874 68.0837 9.66602 68.4072 9.66602C68.4847 9.66602 68.5838 9.6569 68.7046 9.63867C68.8254 9.62044 68.9359 9.60221 69.0361 9.58398L69.2891 10.623C69.1615 10.6686 69.0168 10.7028 68.855 10.7256C68.6932 10.7484 68.5326 10.7598 68.373 10.7598C67.7122 10.7598 67.1973 10.5854 66.8281 10.2368C66.459 9.88818 66.2744 9.40169 66.2744 8.77734V1.20312ZM71.8799 6.08398V10.6641H70.6494V0.478516H71.8799V4.87402H71.668C71.9004 4.16764 72.2319 3.66634 72.6626 3.37012C73.0933 3.07389 73.598 2.92578 74.1768 2.92578C74.6917 2.92578 75.144 3.03174 75.5337 3.24365C75.9233 3.45557 76.2264 3.77458 76.4429 4.20068C76.6593 4.62679 76.7676 5.16341 76.7676 5.81055V10.6641H75.5303V5.91309C75.5303 5.3252 75.3765 4.86491 75.0688 4.53223C74.7612 4.19954 74.3408 4.0332 73.8076 4.0332C73.443 4.0332 73.1149 4.11296 72.8232 4.27246C72.5316 4.43197 72.3014 4.66439 72.1328 4.96973C71.9642 5.27507 71.8799 5.64648 71.8799 6.08398ZM82.1406 10.8281C81.4023 10.8281 80.7655 10.6641 80.23 10.3359C79.6945 10.0078 79.2821 9.5498 78.9927 8.96191C78.7033 8.37402 78.5586 7.68815 78.5586 6.9043C78.5586 6.12044 78.6999 5.43001 78.9824 4.83301C79.265 4.236 79.6649 3.76888 80.1821 3.43164C80.6994 3.0944 81.3044 2.92578 81.9971 2.92578C82.4027 2.92578 82.8026 2.993 83.1968 3.12744C83.591 3.26188 83.9487 3.47835 84.27 3.77686C84.5913 4.07536 84.8477 4.46842 85.0391 4.95605C85.2305 5.44368 85.3262 6.04069 85.3262 6.74707V7.25977H79.3926V6.2207H84.6631L84.0889 6.60352C84.0889 6.10221 84.0103 5.65674 83.853 5.26709C83.6958 4.87744 83.4622 4.5721 83.1523 4.35107C82.8424 4.13005 82.4574 4.01953 81.9971 4.01953C81.5368 4.01953 81.1426 4.13232 80.8145 4.35791C80.4863 4.5835 80.2357 4.87744 80.0625 5.23975C79.8893 5.60205 79.8027 5.99056 79.8027 6.40527V7.0957C79.8027 7.66081 79.9007 8.14046 80.0967 8.53467C80.2926 8.92887 80.5672 9.22738 80.9204 9.43018C81.2736 9.63298 81.6826 9.73438 82.1475 9.73438C82.4482 9.73438 82.7217 9.69108 82.9678 9.60449C83.2139 9.5179 83.4258 9.38688 83.6035 9.21143C83.7812 9.03597 83.918 8.81836 84.0137 8.55859L85.2031 8.88672C85.0846 9.26953 84.8841 9.60677 84.6016 9.89844C84.319 10.1901 83.9692 10.418 83.5522 10.582C83.1353 10.7461 82.6647 10.8281 82.1406 10.8281ZM209.856 10.8418C209.373 10.8418 208.935 10.7507 208.541 10.5684C208.146 10.3861 207.833 10.1195 207.601 9.76855C207.368 9.41764 207.252 8.99154 207.252 8.49023C207.252 8.05273 207.339 7.69727 207.512 7.42383C207.685 7.15039 207.916 6.93506 208.206 6.77783C208.495 6.62061 208.815 6.50326 209.166 6.42578C209.517 6.34831 209.87 6.28678 210.226 6.24121C210.681 6.18197 211.053 6.13639 211.34 6.10449C211.627 6.07259 211.84 6.0179 211.979 5.94043C212.118 5.86296 212.188 5.73079 212.188 5.54395V5.50293C212.188 5.18392 212.128 4.9139 212.01 4.69287C211.891 4.47184 211.714 4.30208 211.477 4.18359C211.24 4.0651 210.943 4.00586 210.588 4.00586C210.223 4.00586 209.911 4.06283 209.651 4.17676C209.392 4.29069 209.181 4.43311 209.019 4.604C208.857 4.7749 208.735 4.94922 208.653 5.12695L207.471 4.7373C207.667 4.27246 207.931 3.90902 208.264 3.64697C208.596 3.38493 208.963 3.19922 209.364 3.08984C209.765 2.98047 210.162 2.92578 210.554 2.92578C210.809 2.92578 211.099 2.95654 211.425 3.01807C211.751 3.07959 212.066 3.2015 212.369 3.38379C212.672 3.56608 212.922 3.8361 213.121 4.19385C213.319 4.5516 213.418 5.02897 213.418 5.62598V10.6641H212.208V9.625H212.126C212.039 9.80273 211.9 9.98617 211.709 10.1753C211.518 10.3644 211.269 10.5228 210.964 10.6504C210.659 10.778 210.289 10.8418 209.856 10.8418ZM210.068 9.75488C210.524 9.75488 210.909 9.66602 211.224 9.48828C211.538 9.31055 211.777 9.07926 211.941 8.79443C212.105 8.5096 212.188 8.21224 212.188 7.90234V6.84277C212.137 6.90202 212.028 6.95557 211.859 7.00342C211.691 7.05127 211.498 7.09342 211.282 7.12988C211.065 7.16634 210.856 7.1971 210.653 7.22217C210.45 7.24723 210.289 7.2666 210.171 7.28027C209.875 7.31673 209.598 7.37939 209.34 7.46826C209.083 7.55713 208.877 7.68701 208.722 7.85791C208.567 8.02881 208.489 8.26009 208.489 8.55176C208.489 8.81608 208.558 9.03711 208.694 9.21484C208.831 9.39258 209.018 9.52702 209.255 9.61816C209.492 9.70931 209.763 9.75488 210.068 9.75488ZM216.809 6.08398V10.6641H215.578V3.02148H216.761L216.768 4.87402H216.597C216.829 4.16764 217.161 3.66634 217.591 3.37012C218.022 3.07389 218.527 2.92578 219.105 2.92578C219.62 2.92578 220.072 3.03174 220.459 3.24365C220.846 3.45557 221.148 3.77458 221.365 4.20068C221.581 4.62679 221.689 5.16341 221.689 5.81055V10.6641H220.459V5.91309C220.459 5.3252 220.305 4.86491 219.998 4.53223C219.69 4.19954 219.27 4.0332 218.736 4.0332C218.372 4.0332 218.044 4.11296 217.752 4.27246C217.46 4.43197 217.23 4.66439 217.062 4.96973C216.893 5.27507 216.809 5.64648 216.809 6.08398ZM226.714 10.8281C226.08 10.8281 225.52 10.6663 225.032 10.3428C224.545 10.0192 224.164 9.5612 223.891 8.96875C223.617 8.3763 223.48 7.67448 223.48 6.86328C223.48 6.05664 223.618 5.35824 223.894 4.76807C224.17 4.1779 224.551 3.72331 225.039 3.4043C225.527 3.08529 226.087 2.92578 226.721 2.92578C227.217 2.92578 227.612 3.00781 227.903 3.17188C228.195 3.33594 228.419 3.52165 228.577 3.729C228.734 3.93636 228.854 4.1084 228.936 4.24512H229.031V0.478516H230.262V10.6641H229.072V9.48145H228.936C228.854 9.62272 228.732 9.79932 228.57 10.0112C228.408 10.2231 228.18 10.4123 227.886 10.5786C227.592 10.745 227.201 10.8281 226.714 10.8281ZM226.898 9.72754C227.363 9.72754 227.755 9.60563 228.074 9.36182C228.393 9.118 228.635 8.77962 228.799 8.34668C228.963 7.91374 229.045 7.41471 229.045 6.84961C229.045 6.28451 228.964 5.79118 228.802 5.36963C228.64 4.94808 228.4 4.61882 228.081 4.38184C227.762 4.14486 227.368 4.02637 226.898 4.02637C226.415 4.02637 226.013 4.15169 225.692 4.40234C225.371 4.65299 225.13 4.99137 224.971 5.41748C224.811 5.84359 224.731 6.32096 224.731 6.84961C224.731 7.38281 224.812 7.86702 224.974 8.30225C225.136 8.73747 225.379 9.08382 225.702 9.34131C226.026 9.5988 226.424 9.72754 226.898 9.72754ZM329.861 10.7529C329.606 10.7529 329.389 10.6629 329.208 10.4829C329.028 10.3029 328.938 10.0853 328.938 9.83008C328.938 9.57487 329.028 9.35726 329.208 9.17725C329.389 8.99723 329.606 8.90723 329.861 8.90723C330.117 8.90723 330.334 8.99723 330.514 9.17725C330.694 9.35726 330.784 9.57487 330.784 9.83008C330.784 10.0853 330.694 10.3029 330.514 10.4829C330.334 10.6629 330.117 10.7529 329.861 10.7529Z" fill="#475569"/>
<path d="M90.6172 1.62695V0.478516H98.3145V1.62695H95.1221V10.6641H93.8232V1.62695H90.6172ZM102.184 10.8281C101.445 10.8281 100.808 10.6641 100.273 10.3359C99.7375 10.0078 99.325 9.5498 99.0356 8.96191C98.7463 8.37402 98.6016 7.68815 98.6016 6.9043C98.6016 6.12044 98.7428 5.43001 99.0254 4.83301C99.3079 4.236 99.7078 3.76888 100.225 3.43164C100.742 3.0944 101.347 2.92578 102.04 2.92578C102.446 2.92578 102.846 2.993 103.24 3.12744C103.634 3.26188 103.992 3.47835 104.313 3.77686C104.634 4.07536 104.891 4.46842 105.082 4.95605C105.273 5.44368 105.369 6.04069 105.369 6.74707V7.25977H99.4355V6.2207H104.706L104.132 6.60352C104.132 6.10221 104.053 5.65674 103.896 5.26709C103.739 4.87744 103.505 4.5721 103.195 4.35107C102.885 4.13005 102.5 4.01953 102.04 4.01953C101.58 4.01953 101.186 4.13232 100.857 4.35791C100.529 4.5835 100.279 4.87744 100.105 5.23975C99.9323 5.60205 99.8457 5.99056 99.8457 6.40527V7.0957C99.8457 7.66081 99.9437 8.14046 100.14 8.53467C100.336 8.92887 100.61 9.22738 100.963 9.43018C101.317 9.63298 101.726 9.73438 102.19 9.73438C102.491 9.73438 102.765 9.69108 103.011 9.60449C103.257 9.5179 103.469 9.38688 103.646 9.21143C103.824 9.03597 103.961 8.81836 104.057 8.55859L105.246 8.88672C105.128 9.26953 104.927 9.60677 104.645 9.89844C104.362 10.1901 104.012 10.418 103.595 10.582C103.178 10.7461 102.708 10.8281 102.184 10.8281ZM107.133 10.6641V3.02148H108.322V4.19727H108.404C108.546 3.8099 108.797 3.49886 109.16 3.26416C109.522 3.02946 109.931 2.91211 110.387 2.91211C110.478 2.91211 110.586 2.91439 110.711 2.91895C110.837 2.9235 110.936 2.92806 111.009 2.93262V4.16992C110.972 4.16081 110.881 4.14714 110.735 4.12891C110.59 4.11068 110.435 4.10156 110.271 4.10156C109.906 4.10156 109.579 4.1779 109.29 4.33057C109 4.48324 108.773 4.69287 108.609 4.95947C108.445 5.22607 108.363 5.53255 108.363 5.87891V10.6641H107.133ZM112.622 10.6641V3.02148H113.818L113.825 4.73047H113.729C113.834 4.31576 114 3.97282 114.225 3.70166C114.451 3.4305 114.715 3.22656 115.018 3.08984C115.321 2.95312 115.637 2.88477 115.965 2.88477C116.521 2.88477 116.971 3.05566 117.315 3.39746C117.659 3.73926 117.881 4.18815 117.981 4.74414H117.817C117.909 4.36133 118.075 4.03092 118.316 3.75293C118.558 3.47493 118.851 3.26074 119.195 3.11035C119.539 2.95996 119.914 2.88477 120.319 2.88477C120.761 2.88477 121.165 2.98047 121.529 3.17188C121.894 3.36328 122.184 3.65267 122.401 4.04004C122.617 4.42741 122.726 4.91732 122.726 5.50977V10.6641H121.495V5.54395C121.495 4.99251 121.34 4.59831 121.03 4.36133C120.72 4.12435 120.36 4.00586 119.95 4.00586C119.608 4.00586 119.313 4.07764 119.065 4.22119C118.817 4.36475 118.625 4.56185 118.491 4.8125C118.356 5.06315 118.289 5.35026 118.289 5.67383V10.6641H117.059V5.4209C117.059 4.99707 116.917 4.65527 116.635 4.39551C116.352 4.13574 115.994 4.00586 115.562 4.00586C115.265 4.00586 114.986 4.07536 114.724 4.21436C114.462 4.35335 114.251 4.55957 114.092 4.83301C113.932 5.10645 113.853 5.44596 113.853 5.85156V10.6641H112.622ZM127.483 10.8281C126.959 10.8281 126.493 10.7518 126.085 10.5991C125.678 10.4465 125.341 10.2197 125.077 9.91895C124.813 9.61816 124.635 9.24902 124.544 8.81152L125.713 8.53125C125.822 8.95052 126.028 9.25814 126.332 9.4541C126.635 9.65007 127.014 9.74805 127.47 9.74805C128.003 9.74805 128.428 9.63411 128.745 9.40625C129.061 9.17839 129.22 8.90723 129.22 8.59277C129.22 8.32845 129.127 8.10856 128.943 7.93311C128.758 7.75765 128.477 7.62663 128.099 7.54004L126.827 7.23926C126.134 7.0752 125.619 6.82113 125.282 6.47705C124.945 6.13298 124.776 5.69206 124.776 5.1543C124.776 4.7168 124.899 4.33057 125.146 3.99561C125.392 3.66064 125.728 3.3986 126.154 3.20947C126.58 3.02035 127.064 2.92578 127.606 2.92578C128.131 2.92578 128.576 3.00439 128.943 3.16162C129.31 3.31885 129.608 3.53532 129.838 3.81104C130.069 4.08675 130.241 4.40462 130.354 4.76465L129.24 5.05176C129.135 4.77832 128.961 4.52995 128.717 4.30664C128.473 4.08333 128.105 3.97168 127.613 3.97168C127.158 3.97168 126.778 4.0765 126.475 4.28613C126.172 4.49577 126.021 4.76009 126.021 5.0791C126.021 5.36165 126.123 5.58838 126.328 5.75928C126.533 5.93018 126.859 6.06803 127.306 6.17285L128.461 6.44629C129.154 6.61035 129.666 6.86442 129.999 7.2085C130.332 7.55257 130.498 7.98665 130.498 8.51074C130.498 8.95736 130.372 9.35498 130.119 9.70361C129.866 10.0522 129.513 10.3268 129.059 10.5273C128.606 10.7279 128.08 10.8281 127.483 10.8281ZM139.323 10.8281C138.631 10.8281 138.023 10.6641 137.501 10.3359C136.98 10.0078 136.573 9.54753 136.281 8.95508C135.99 8.36263 135.844 7.67448 135.844 6.89062C135.844 6.0931 135.99 5.39697 136.281 4.80225C136.573 4.20752 136.98 3.74609 137.501 3.41797C138.023 3.08984 138.631 2.92578 139.323 2.92578C140.021 2.92578 140.631 3.08984 141.155 3.41797C141.679 3.74609 142.087 4.20752 142.379 4.80225C142.671 5.39697 142.816 6.0931 142.816 6.89062C142.816 7.67448 142.671 8.36263 142.379 8.95508C142.087 9.54753 141.679 10.0078 141.155 10.3359C140.631 10.6641 140.021 10.8281 139.323 10.8281ZM139.323 9.72754C139.838 9.72754 140.262 9.59538 140.595 9.33105C140.927 9.06673 141.174 8.71924 141.333 8.28857C141.493 7.85791 141.572 7.39193 141.572 6.89062C141.572 6.38477 141.493 5.91423 141.333 5.479C141.174 5.04378 140.927 4.69287 140.595 4.42627C140.262 4.15967 139.838 4.02637 139.323 4.02637C138.813 4.02637 138.394 4.15967 138.065 4.42627C137.737 4.69287 137.493 5.04264 137.334 5.47559C137.174 5.90853 137.095 6.38021 137.095 6.89062C137.095 7.39193 137.174 7.85791 137.334 8.28857C137.493 8.71924 137.737 9.06673 138.065 9.33105C138.394 9.59538 138.813 9.72754 139.323 9.72754ZM148.162 3.02148V4.07422H143.664V3.02148H148.162ZM145.168 10.6641V2.00293C145.168 1.56087 145.272 1.19173 145.479 0.895508C145.686 0.599284 145.956 0.375977 146.289 0.225586C146.622 0.0751953 146.973 0 147.342 0C147.633 0 147.875 0.0239258 148.066 0.0717773C148.258 0.119629 148.399 0.164062 148.49 0.205078L148.148 1.25781C148.085 1.23503 148.001 1.20996 147.899 1.18262C147.796 1.15527 147.659 1.1416 147.485 1.1416C147.107 1.1416 146.831 1.23844 146.658 1.43213C146.485 1.62581 146.398 1.90723 146.398 2.27637V10.6641H145.168ZM157.138 10.8418C156.404 10.8418 155.767 10.7233 155.227 10.4863C154.687 10.2493 154.264 9.91781 153.959 9.4917C153.654 9.06559 153.48 8.56771 153.439 7.99805H154.772C154.809 8.38086 154.939 8.69645 155.162 8.94482C155.385 9.1932 155.671 9.37777 156.02 9.49854C156.369 9.6193 156.741 9.67969 157.138 9.67969C157.598 9.67969 158.012 9.60449 158.378 9.4541C158.745 9.30371 159.036 9.0918 159.25 8.81836C159.464 8.54492 159.571 8.22819 159.571 7.86816C159.571 7.54004 159.479 7.27344 159.294 7.06836C159.11 6.86328 158.865 6.69466 158.56 6.5625C158.254 6.43034 157.919 6.31413 157.555 6.21387L156.324 5.86523C155.504 5.63281 154.866 5.30013 154.41 4.86719C153.954 4.43424 153.727 3.88053 153.727 3.20605C153.727 2.63184 153.882 2.12939 154.191 1.69873C154.501 1.26807 154.921 0.934245 155.449 0.697266C155.978 0.460286 156.57 0.341797 157.227 0.341797C157.896 0.341797 158.489 0.460286 159.004 0.697266C159.519 0.934245 159.926 1.25667 160.224 1.66455C160.523 2.07243 160.681 2.53385 160.699 3.04883H159.428C159.368 2.55208 159.132 2.16813 158.717 1.89697C158.302 1.62581 157.792 1.49023 157.186 1.49023C156.748 1.49023 156.364 1.56201 156.034 1.70557C155.703 1.84912 155.447 2.04508 155.265 2.29346C155.082 2.54183 154.991 2.82552 154.991 3.14453C154.991 3.5 155.102 3.78597 155.323 4.00244C155.544 4.21891 155.806 4.38753 156.109 4.5083C156.412 4.62907 156.687 4.72363 156.933 4.79199L157.951 5.07227C158.225 5.14518 158.527 5.24544 158.857 5.37305C159.187 5.50065 159.503 5.67041 159.804 5.88232C160.104 6.09424 160.352 6.36312 160.545 6.68896C160.739 7.01481 160.836 7.41471 160.836 7.88867C160.836 8.44466 160.691 8.94596 160.402 9.39258C160.112 9.83919 159.692 10.1924 159.141 10.4521C158.589 10.7119 157.922 10.8418 157.138 10.8418ZM165.922 10.8281C165.184 10.8281 164.547 10.6641 164.011 10.3359C163.476 10.0078 163.063 9.5498 162.774 8.96191C162.485 8.37402 162.34 7.68815 162.34 6.9043C162.34 6.12044 162.481 5.43001 162.764 4.83301C163.046 4.236 163.446 3.76888 163.963 3.43164C164.481 3.0944 165.086 2.92578 165.778 2.92578C166.184 2.92578 166.584 2.993 166.978 3.12744C167.372 3.26188 167.73 3.47835 168.051 3.77686C168.373 4.07536 168.629 4.46842 168.82 4.95605C169.012 5.44368 169.107 6.04069 169.107 6.74707V7.25977H163.174V6.2207H168.444L167.87 6.60352C167.87 6.10221 167.792 5.65674 167.634 5.26709C167.477 4.87744 167.243 4.5721 166.934 4.35107C166.624 4.13005 166.239 4.01953 165.778 4.01953C165.318 4.01953 164.924 4.13232 164.596 4.35791C164.268 4.5835 164.017 4.87744 163.844 5.23975C163.671 5.60205 163.584 5.99056 163.584 6.40527V7.0957C163.584 7.66081 163.682 8.14046 163.878 8.53467C164.074 8.92887 164.348 9.22738 164.702 9.43018C165.055 9.63298 165.464 9.73438 165.929 9.73438C166.229 9.73438 166.503 9.69108 166.749 9.60449C166.995 9.5179 167.207 9.38688 167.385 9.21143C167.562 9.03597 167.699 8.81836 167.795 8.55859L168.984 8.88672C168.866 9.26953 168.665 9.60677 168.383 9.89844C168.1 10.1901 167.75 10.418 167.333 10.582C166.917 10.7461 166.446 10.8281 165.922 10.8281ZM170.871 10.6641V3.02148H172.061V4.19727H172.143C172.284 3.8099 172.536 3.49886 172.898 3.26416C173.26 3.02946 173.669 2.91211 174.125 2.91211C174.216 2.91211 174.324 2.91439 174.45 2.91895C174.575 2.9235 174.674 2.92806 174.747 2.93262V4.16992C174.711 4.16081 174.619 4.14714 174.474 4.12891C174.328 4.11068 174.173 4.10156 174.009 4.10156C173.644 4.10156 173.317 4.1779 173.028 4.33057C172.738 4.48324 172.512 4.69287 172.348 4.95947C172.184 5.22607 172.102 5.53255 172.102 5.87891V10.6641H170.871ZM178.568 10.6641L175.649 3.02148H176.996L178.623 7.55371C178.796 8.02311 178.943 8.49137 179.064 8.9585C179.185 9.42562 179.311 9.87793 179.443 10.3154H178.992C179.124 9.87793 179.251 9.42562 179.372 8.9585C179.492 8.49137 179.637 8.02311 179.806 7.55371L181.433 3.02148H182.779L179.86 10.6641H178.568ZM184.229 10.6641V3.02148H185.459V10.6641H184.229ZM184.851 1.77051C184.618 1.77051 184.418 1.69076 184.249 1.53125C184.08 1.37174 183.996 1.18034 183.996 0.957031C183.996 0.729167 184.08 0.536621 184.249 0.379395C184.418 0.222168 184.618 0.143555 184.851 0.143555C185.088 0.143555 185.29 0.222168 185.459 0.379395C185.628 0.536621 185.712 0.729167 185.712 0.957031C185.712 1.18034 185.628 1.37174 185.459 1.53125C185.29 1.69076 185.088 1.77051 184.851 1.77051ZM190.729 10.8281C190.037 10.8281 189.43 10.6641 188.908 10.3359C188.386 10.0078 187.979 9.54753 187.688 8.95508C187.396 8.36263 187.25 7.67448 187.25 6.89062C187.25 6.0931 187.396 5.39697 187.688 4.80225C187.979 4.20752 188.386 3.74609 188.908 3.41797C189.43 3.08984 190.037 2.92578 190.729 2.92578C191.099 2.92578 191.447 2.97363 191.775 3.06934C192.104 3.16504 192.403 3.3029 192.674 3.48291C192.945 3.66292 193.179 3.88395 193.375 4.146C193.571 4.40804 193.721 4.7054 193.826 5.03809L192.644 5.37305C192.589 5.17708 192.505 4.99707 192.391 4.83301C192.277 4.66895 192.139 4.52653 191.977 4.40576C191.815 4.28499 191.63 4.19157 191.42 4.12549C191.21 4.05941 190.98 4.02637 190.729 4.02637C190.219 4.02637 189.8 4.15967 189.472 4.42627C189.144 4.69287 188.9 5.04264 188.74 5.47559C188.581 5.90853 188.501 6.38021 188.501 6.89062C188.501 7.39193 188.581 7.85791 188.74 8.28857C188.9 8.71924 189.144 9.06673 189.472 9.33105C189.8 9.59538 190.219 9.72754 190.729 9.72754C190.985 9.72754 191.219 9.69336 191.434 9.625C191.648 9.55664 191.838 9.4598 192.004 9.33447C192.171 9.20915 192.311 9.0599 192.425 8.88672C192.539 8.71354 192.623 8.52441 192.678 8.31934L193.854 8.6543C193.753 8.99609 193.604 9.30029 193.406 9.56689C193.208 9.8335 192.972 10.0614 192.698 10.2505C192.425 10.4396 192.122 10.5832 191.789 10.6812C191.456 10.7791 191.103 10.8281 190.729 10.8281ZM198.83 10.8281C198.092 10.8281 197.455 10.6641 196.919 10.3359C196.384 10.0078 195.972 9.5498 195.682 8.96191C195.393 8.37402 195.248 7.68815 195.248 6.9043C195.248 6.12044 195.389 5.43001 195.672 4.83301C195.954 4.236 196.354 3.76888 196.872 3.43164C197.389 3.0944 197.994 2.92578 198.687 2.92578C199.092 2.92578 199.492 2.993 199.886 3.12744C200.28 3.26188 200.638 3.47835 200.959 3.77686C201.281 4.07536 201.537 4.46842 201.729 4.95605C201.92 5.44368 202.016 6.04069 202.016 6.74707V7.25977H196.082V6.2207H201.353L200.778 6.60352C200.778 6.10221 200.7 5.65674 200.542 5.26709C200.385 4.87744 200.152 4.5721 199.842 4.35107C199.532 4.13005 199.147 4.01953 198.687 4.01953C198.226 4.01953 197.832 4.13232 197.504 4.35791C197.176 4.5835 196.925 4.87744 196.752 5.23975C196.579 5.60205 196.492 5.99056 196.492 6.40527V7.0957C196.492 7.66081 196.59 8.14046 196.786 8.53467C196.982 8.92887 197.257 9.22738 197.61 9.43018C197.963 9.63298 198.372 9.73438 198.837 9.73438C199.138 9.73438 199.411 9.69108 199.657 9.60449C199.903 9.5179 200.115 9.38688 200.293 9.21143C200.471 9.03597 200.607 8.81836 200.703 8.55859L201.893 8.88672C201.774 9.26953 201.574 9.60677 201.291 9.89844C201.008 10.1901 200.659 10.418 200.242 10.582C199.825 10.7461 199.354 10.8281 198.83 10.8281ZM236.51 10.6641V0.478516H239.996C240.789 0.478516 241.442 0.62321 241.955 0.912598C242.467 1.20199 242.848 1.59049 243.096 2.07812C243.345 2.56576 243.469 3.11263 243.469 3.71875C243.469 4.32487 243.345 4.87402 243.096 5.36621C242.848 5.8584 242.468 6.25033 241.958 6.54199C241.448 6.83366 240.796 6.97949 240.003 6.97949H237.535V5.83789H239.941C240.479 5.83789 240.912 5.74561 241.24 5.56104C241.568 5.37646 241.806 5.12354 241.955 4.80225C242.103 4.48096 242.177 4.11979 242.177 3.71875C242.177 3.31771 242.103 2.95882 241.955 2.64209C241.806 2.32536 241.567 2.07585 241.237 1.89355C240.906 1.71126 240.47 1.62012 239.928 1.62012H237.809V10.6641H236.51ZM245.301 10.6641V3.02148H246.49V4.19727H246.572C246.714 3.8099 246.965 3.49886 247.328 3.26416C247.69 3.02946 248.099 2.91211 248.555 2.91211C248.646 2.91211 248.754 2.91439 248.879 2.91895C249.005 2.9235 249.104 2.92806 249.177 2.93262V4.16992C249.14 4.16081 249.049 4.14714 248.903 4.12891C248.757 4.11068 248.603 4.10156 248.438 4.10156C248.074 4.10156 247.747 4.1779 247.458 4.33057C247.168 4.48324 246.941 4.69287 246.777 4.95947C246.613 5.22607 246.531 5.53255 246.531 5.87891V10.6641H245.301ZM250.708 10.6641V3.02148H251.938V10.6641H250.708ZM251.33 1.77051C251.098 1.77051 250.897 1.69076 250.729 1.53125C250.56 1.37174 250.476 1.18034 250.476 0.957031C250.476 0.729167 250.56 0.536621 250.729 0.379395C250.897 0.222168 251.098 0.143555 251.33 0.143555C251.567 0.143555 251.77 0.222168 251.938 0.379395C252.107 0.536621 252.191 0.729167 252.191 0.957031C252.191 1.18034 252.107 1.37174 251.938 1.53125C251.77 1.69076 251.567 1.77051 251.33 1.77051ZM256.307 10.6641L253.388 3.02148H254.734L256.361 7.55371C256.535 8.02311 256.681 8.49137 256.802 8.9585C256.923 9.42562 257.049 9.87793 257.182 10.3154H256.73C256.863 9.87793 256.989 9.42562 257.11 8.9585C257.231 8.49137 257.375 8.02311 257.544 7.55371L259.171 3.02148H260.518L257.599 10.6641H256.307ZM264.038 10.8418C263.555 10.8418 263.116 10.7507 262.722 10.5684C262.328 10.3861 262.015 10.1195 261.782 9.76855C261.55 9.41764 261.434 8.99154 261.434 8.49023C261.434 8.05273 261.52 7.69727 261.693 7.42383C261.867 7.15039 262.098 6.93506 262.387 6.77783C262.677 6.62061 262.997 6.50326 263.348 6.42578C263.699 6.34831 264.052 6.28678 264.407 6.24121C264.863 6.18197 265.234 6.13639 265.521 6.10449C265.809 6.07259 266.022 6.0179 266.161 5.94043C266.3 5.86296 266.369 5.73079 266.369 5.54395V5.50293C266.369 5.18392 266.31 4.9139 266.191 4.69287C266.073 4.47184 265.895 4.30208 265.658 4.18359C265.421 4.0651 265.125 4.00586 264.77 4.00586C264.405 4.00586 264.093 4.06283 263.833 4.17676C263.573 4.29069 263.362 4.43311 263.201 4.604C263.039 4.7749 262.917 4.94922 262.835 5.12695L261.652 4.7373C261.848 4.27246 262.113 3.90902 262.445 3.64697C262.778 3.38493 263.145 3.19922 263.546 3.08984C263.947 2.98047 264.343 2.92578 264.735 2.92578C264.991 2.92578 265.281 2.95654 265.607 3.01807C265.933 3.07959 266.247 3.2015 266.55 3.38379C266.853 3.56608 267.104 3.8361 267.302 4.19385C267.5 4.5516 267.6 5.02897 267.6 5.62598V10.6641H266.39V9.625H266.308C266.221 9.80273 266.082 9.98617 265.891 10.1753C265.699 10.3644 265.451 10.5228 265.146 10.6504C264.84 10.778 264.471 10.8418 264.038 10.8418ZM264.25 9.75488C264.706 9.75488 265.091 9.66602 265.405 9.48828C265.72 9.31055 265.959 9.07926 266.123 8.79443C266.287 8.5096 266.369 8.21224 266.369 7.90234V6.84277C266.319 6.90202 266.21 6.95557 266.041 7.00342C265.872 7.05127 265.68 7.09342 265.463 7.12988C265.247 7.16634 265.037 7.1971 264.834 7.22217C264.632 7.24723 264.471 7.2666 264.353 7.28027C264.056 7.31673 263.779 7.37939 263.522 7.46826C263.264 7.55713 263.058 7.68701 262.903 7.85791C262.748 8.02881 262.671 8.26009 262.671 8.55176C262.671 8.81608 262.739 9.03711 262.876 9.21484C263.013 9.39258 263.2 9.52702 263.437 9.61816C263.674 9.70931 263.945 9.75488 264.25 9.75488ZM272.87 10.8281C272.177 10.8281 271.57 10.6641 271.048 10.3359C270.527 10.0078 270.12 9.54753 269.828 8.95508C269.536 8.36263 269.391 7.67448 269.391 6.89062C269.391 6.0931 269.536 5.39697 269.828 4.80225C270.12 4.20752 270.527 3.74609 271.048 3.41797C271.57 3.08984 272.177 2.92578 272.87 2.92578C273.239 2.92578 273.588 2.97363 273.916 3.06934C274.244 3.16504 274.544 3.3029 274.815 3.48291C275.086 3.66292 275.32 3.88395 275.516 4.146C275.712 4.40804 275.862 4.7054 275.967 5.03809L274.784 5.37305C274.729 5.17708 274.645 4.99707 274.531 4.83301C274.417 4.66895 274.279 4.52653 274.118 4.40576C273.956 4.28499 273.77 4.19157 273.561 4.12549C273.351 4.05941 273.121 4.02637 272.87 4.02637C272.36 4.02637 271.94 4.15967 271.612 4.42627C271.284 4.69287 271.04 5.04264 270.881 5.47559C270.721 5.90853 270.642 6.38021 270.642 6.89062C270.642 7.39193 270.721 7.85791 270.881 8.28857C271.04 8.71924 271.284 9.06673 271.612 9.33105C271.94 9.59538 272.36 9.72754 272.87 9.72754C273.125 9.72754 273.36 9.69336 273.574 9.625C273.788 9.55664 273.979 9.4598 274.145 9.33447C274.311 9.20915 274.451 9.0599 274.565 8.88672C274.679 8.71354 274.764 8.52441 274.818 8.31934L275.994 8.6543C275.894 8.99609 275.745 9.30029 275.546 9.56689C275.348 9.8335 275.112 10.0614 274.839 10.2505C274.565 10.4396 274.262 10.5832 273.93 10.6812C273.597 10.7791 273.244 10.8281 272.87 10.8281ZM277.361 13.4326L277.676 12.3662L277.806 12.4004C278.056 12.4642 278.284 12.4813 278.489 12.4517C278.694 12.422 278.879 12.3206 279.043 12.1475C279.207 11.9743 279.351 11.7054 279.474 11.3408L279.692 10.7051L276.773 3.02148H278.12L279.747 7.55371C279.92 8.02767 280.066 8.49707 280.185 8.96191C280.303 9.42676 280.428 9.87793 280.561 10.3154H280.109C280.242 9.87793 280.368 9.42562 280.489 8.9585C280.61 8.49137 280.754 8.02311 280.923 7.55371L282.563 3.02148H283.903L280.547 11.8057C280.392 12.2113 280.206 12.5451 279.99 12.8071C279.773 13.0692 279.521 13.2629 279.234 13.3882C278.947 13.5135 278.624 13.5762 278.264 13.5762C278.045 13.5762 277.856 13.5602 277.696 13.5283C277.537 13.4964 277.425 13.4645 277.361 13.4326ZM289.44 10.6641V0.478516H292.927C293.72 0.478516 294.373 0.62321 294.885 0.912598C295.398 1.20199 295.778 1.59049 296.027 2.07812C296.275 2.56576 296.399 3.11263 296.399 3.71875C296.399 4.32487 296.275 4.87402 296.027 5.36621C295.778 5.8584 295.399 6.25033 294.889 6.54199C294.378 6.83366 293.727 6.97949 292.934 6.97949H290.466V5.83789H292.872C293.41 5.83789 293.843 5.74561 294.171 5.56104C294.499 5.37646 294.737 5.12354 294.885 4.80225C295.033 4.48096 295.107 4.11979 295.107 3.71875C295.107 3.31771 295.033 2.95882 294.885 2.64209C294.737 2.32536 294.498 2.07585 294.167 1.89355C293.837 1.71126 293.401 1.62012 292.858 1.62012H290.739V10.6641H289.44ZM301.267 10.8281C300.574 10.8281 299.967 10.6641 299.445 10.3359C298.923 10.0078 298.516 9.54753 298.225 8.95508C297.933 8.36263 297.787 7.67448 297.787 6.89062C297.787 6.0931 297.933 5.39697 298.225 4.80225C298.516 4.20752 298.923 3.74609 299.445 3.41797C299.967 3.08984 300.574 2.92578 301.267 2.92578C301.964 2.92578 302.575 3.08984 303.099 3.41797C303.623 3.74609 304.031 4.20752 304.322 4.80225C304.614 5.39697 304.76 6.0931 304.76 6.89062C304.76 7.67448 304.614 8.36263 304.322 8.95508C304.031 9.54753 303.623 10.0078 303.099 10.3359C302.575 10.6641 301.964 10.8281 301.267 10.8281ZM301.267 9.72754C301.782 9.72754 302.205 9.59538 302.538 9.33105C302.871 9.06673 303.117 8.71924 303.276 8.28857C303.436 7.85791 303.516 7.39193 303.516 6.89062C303.516 6.38477 303.436 5.91423 303.276 5.479C303.117 5.04378 302.871 4.69287 302.538 4.42627C302.205 4.15967 301.782 4.02637 301.267 4.02637C300.756 4.02637 300.337 4.15967 300.009 4.42627C299.681 4.69287 299.437 5.04264 299.277 5.47559C299.118 5.90853 299.038 6.38021 299.038 6.89062C299.038 7.39193 299.118 7.85791 299.277 8.28857C299.437 8.71924 299.681 9.06673 300.009 9.33105C300.337 9.59538 300.756 9.72754 301.267 9.72754ZM307.781 0.478516V10.6641H306.551V0.478516H307.781ZM309.941 10.6641V3.02148H311.172V10.6641H309.941ZM310.563 1.77051C310.331 1.77051 310.131 1.69076 309.962 1.53125C309.793 1.37174 309.709 1.18034 309.709 0.957031C309.709 0.729167 309.793 0.536621 309.962 0.379395C310.131 0.222168 310.331 0.143555 310.563 0.143555C310.8 0.143555 311.003 0.222168 311.172 0.379395C311.34 0.536621 311.425 0.729167 311.425 0.957031C311.425 1.18034 311.34 1.37174 311.172 1.53125C311.003 1.69076 310.8 1.77051 310.563 1.77051ZM316.442 10.8281C315.75 10.8281 315.142 10.6641 314.621 10.3359C314.099 10.0078 313.692 9.54753 313.4 8.95508C313.109 8.36263 312.963 7.67448 312.963 6.89062C312.963 6.0931 313.109 5.39697 313.4 4.80225C313.692 4.20752 314.099 3.74609 314.621 3.41797C315.142 3.08984 315.75 2.92578 316.442 2.92578C316.812 2.92578 317.16 2.97363 317.488 3.06934C317.816 3.16504 318.116 3.3029 318.387 3.48291C318.658 3.66292 318.892 3.88395 319.088 4.146C319.284 4.40804 319.434 4.7054 319.539 5.03809L318.356 5.37305C318.302 5.17708 318.217 4.99707 318.104 4.83301C317.99 4.66895 317.852 4.52653 317.69 4.40576C317.528 4.28499 317.342 4.19157 317.133 4.12549C316.923 4.05941 316.693 4.02637 316.442 4.02637C315.932 4.02637 315.513 4.15967 315.185 4.42627C314.856 4.69287 314.613 5.04264 314.453 5.47559C314.294 5.90853 314.214 6.38021 314.214 6.89062C314.214 7.39193 314.294 7.85791 314.453 8.28857C314.613 8.71924 314.856 9.06673 315.185 9.33105C315.513 9.59538 315.932 9.72754 316.442 9.72754C316.698 9.72754 316.932 9.69336 317.146 9.625C317.361 9.55664 317.551 9.4598 317.717 9.33447C317.884 9.20915 318.024 9.0599 318.138 8.88672C318.252 8.71354 318.336 8.52441 318.391 8.31934L319.566 8.6543C319.466 8.99609 319.317 9.30029 319.119 9.56689C318.92 9.8335 318.685 10.0614 318.411 10.2505C318.138 10.4396 317.835 10.5832 317.502 10.6812C317.169 10.7791 316.816 10.8281 316.442 10.8281ZM320.934 13.4326L321.248 12.3662L321.378 12.4004C321.629 12.4642 321.856 12.4813 322.062 12.4517C322.267 12.422 322.451 12.3206 322.615 12.1475C322.779 11.9743 322.923 11.7054 323.046 11.3408L323.265 10.7051L320.346 3.02148H321.692L323.319 7.55371C323.493 8.02767 323.638 8.49707 323.757 8.96191C323.875 9.42676 324.001 9.87793 324.133 10.3154H323.682C323.814 9.87793 323.94 9.42562 324.061 8.9585C324.182 8.49137 324.326 8.02311 324.495 7.55371L326.136 3.02148H327.476L324.119 11.8057C323.964 12.2113 323.778 12.5451 323.562 12.8071C323.346 13.0692 323.094 13.2629 322.807 13.3882C322.52 13.5135 322.196 13.5762 321.836 13.5762C321.617 13.5762 321.428 13.5602 321.269 13.5283C321.109 13.4964 320.997 13.4645 320.934 13.4326Z" fill="#524E8D"/>
</svg>
