<svg width="42" height="16" viewBox="0 0 42 16" fill="none" xmlns="http://www.w3.org/2000/svg">
<path d="M0.000325928 12.2808V0.640167H2.38758V10.3017H7.40693V12.2808H0.000325928ZM12.9025 12.4514C12.0265 12.4514 11.2685 12.2632 10.6285 11.8868C9.9886 11.5104 9.49563 10.9844 9.14964 10.3087C8.80365 9.633 8.63065 8.84725 8.63065 7.95142C8.63065 7.0484 8.80365 6.25845 9.14964 5.58157C9.49563 4.9047 9.9886 4.37806 10.6285 4.00165C11.2685 3.62525 12.0265 3.43704 12.9025 3.43704C13.781 3.43704 14.5394 3.62525 15.1777 4.00165C15.8161 4.37806 16.3082 4.9047 16.6542 5.58157C17.0002 6.25845 17.1732 7.0484 17.1732 7.95142C17.1732 8.84725 17.0002 9.633 16.6542 10.3087C16.3082 10.9844 15.8161 11.5104 15.1777 11.8868C14.5394 12.2632 13.781 12.4514 12.9025 12.4514ZM12.9025 10.6072C13.3195 10.6072 13.6682 10.4913 13.9485 10.2595C14.2289 10.0277 14.4391 9.71077 14.5792 9.30859C14.7193 8.90641 14.7894 8.4512 14.7894 7.94298C14.7894 7.42955 14.7193 6.97265 14.5792 6.57229C14.4391 6.17193 14.2289 5.85668 13.9485 5.62653C13.6682 5.39638 13.3195 5.2813 12.9025 5.2813C12.4852 5.2813 12.1368 5.39638 11.8574 5.62653C11.5781 5.85668 11.3683 6.17134 11.2282 6.5705C11.0881 6.96966 11.0181 7.42715 11.0181 7.94298C11.0181 8.4512 11.0881 8.90641 11.2282 9.30859C11.3683 9.71077 11.5781 10.0277 11.8574 10.2595C12.1368 10.4913 12.4852 10.6072 12.9025 10.6072ZM22.6868 15.7339C21.9594 15.7339 21.3255 15.642 20.7853 15.4583C20.245 15.2745 19.8053 15.0212 19.466 14.6984C19.1268 14.3755 18.8928 14.006 18.7639 13.5898L20.7779 13.0327C20.8523 13.1937 20.9657 13.3512 21.1183 13.5051C21.2708 13.659 21.4744 13.785 21.7291 13.8833C21.9837 13.9815 22.3001 14.0306 22.6783 14.0306C23.275 14.0306 23.7444 13.8935 24.0867 13.6192C24.4289 13.3449 24.6 12.9187 24.6 12.3406V10.7341H24.4166C24.312 10.9682 24.1607 11.1943 23.9627 11.4122C23.7648 11.6301 23.5056 11.8087 23.1851 11.9481C22.8646 12.0874 22.4681 12.157 21.9956 12.157C21.3399 12.157 20.7433 12.0029 20.2056 11.6947C19.668 11.3865 19.2399 10.9175 18.9212 10.2877C18.6025 9.65788 18.4432 8.86194 18.4432 7.89986C18.4432 6.91443 18.6055 6.0911 18.9303 5.42985C19.255 4.7686 19.6868 4.27115 20.2256 3.93751C20.7644 3.60386 21.3564 3.43704 22.0016 3.43704C22.4938 3.43704 22.9057 3.51965 23.2374 3.68485C23.5691 3.85006 23.8381 4.05527 24.0443 4.30048C24.2505 4.54568 24.4073 4.78439 24.5147 5.01658H24.6095V3.54642H26.9176V12.2078C26.9176 12.9944 26.7364 13.6491 26.3739 14.1721C26.0115 14.6951 25.5122 15.0861 24.8762 15.3452C24.2402 15.6044 23.5104 15.7339 22.6868 15.7339ZM22.7279 10.3754C23.1297 10.3754 23.4701 10.2769 23.7489 10.0797C24.0277 9.88248 24.2404 9.59751 24.3871 9.22476C24.5338 8.852 24.6072 8.40558 24.6072 7.88548C24.6072 7.36695 24.5344 6.9156 24.3889 6.53144C24.2434 6.14728 24.0312 5.84851 23.7525 5.63513C23.4737 5.42175 23.1321 5.31506 22.7279 5.31506C22.3192 5.31506 21.975 5.42534 21.6952 5.64591C21.4154 5.86648 21.2042 6.16944 21.0615 6.5548C20.9188 6.94016 20.8474 7.38372 20.8474 7.88548C20.8474 8.39162 20.9194 8.83167 21.0633 9.20562C21.2072 9.57957 21.419 9.86803 21.6988 10.071C21.9786 10.274 22.3216 10.3754 22.7279 10.3754ZM28.9153 12.2808V3.54642H31.2582V12.2808H28.9153ZM30.0861 2.40784C29.7333 2.40784 29.431 2.2899 29.1793 2.05402C28.9275 1.81814 28.8016 1.53508 28.8016 1.20484C28.8016 0.867867 28.9275 0.582815 29.1793 0.349686C29.431 0.116557 29.7333 -7.62939e-06 30.0861 -7.62939e-06C30.4406 -7.62939e-06 30.7439 0.116406 30.996 0.349234C31.2482 0.582061 31.3743 0.86719 31.3743 1.20462C31.3743 1.5353 31.2482 1.81851 30.996 2.05424C30.7439 2.28998 30.4406 2.40784 30.0861 2.40784ZM35.5942 7.22362V12.2808H33.2513V3.54642H35.4635L35.5009 5.72689H35.3604C35.5895 4.99835 35.9374 4.43458 36.4043 4.03556C36.8712 3.63655 37.4733 3.43704 38.2107 3.43704C38.8161 3.43704 39.3437 3.56868 39.7934 3.83197C40.2432 4.09525 40.5925 4.47249 40.8413 4.96369C41.0901 5.45489 41.2145 6.04215 41.2145 6.72548V12.2808H38.8716V7.13378C38.8716 6.59129 38.7317 6.1658 38.4518 5.85732C38.172 5.54883 37.785 5.39459 37.291 5.39459C36.9615 5.39459 36.6688 5.46675 36.4128 5.61107C36.1568 5.75539 35.9564 5.96336 35.8115 6.23497C35.6666 6.50658 35.5942 6.83613 35.5942 7.22362Z" fill="#524E8D"/>
</svg>
