<svg width="446" height="50" viewBox="0 0 446 50" fill="none" xmlns="http://www.w3.org/2000/svg">
<rect x="0.5" y="0.5" width="445" height="49" rx="7.5" fill="#F8FAFC"/>
<rect x="0.5" y="0.5" width="445" height="49" rx="7.5" stroke="#E2E8F0"/>
<path d="M420.2 22.6L425 27.4L429.8 22.6" stroke="#6B7280" stroke-width="1.8" stroke-linecap="round" stroke-linejoin="round"/>
<path d="M46.1328 31.2031C45.2943 31.2031 44.5664 31.0677 43.9492 30.7969C43.332 30.526 42.849 30.1471 42.5 29.6602C42.151 29.1732 41.9531 28.6042 41.9062 27.9531H43.4297C43.4714 28.3906 43.6198 28.7513 43.875 29.0352C44.1302 29.319 44.457 29.5299 44.8555 29.668C45.2539 29.806 45.6797 29.875 46.1328 29.875C46.6589 29.875 47.1315 29.7891 47.5508 29.6172C47.9701 29.4453 48.3021 29.2031 48.5469 28.8906C48.7917 28.5781 48.9141 28.2161 48.9141 27.8047C48.9141 27.4297 48.8086 27.125 48.5977 26.8906C48.3867 26.6562 48.1068 26.4635 47.7578 26.3125C47.4089 26.1615 47.026 26.0286 46.6094 25.9141L45.2031 25.5156C44.2656 25.25 43.5365 24.8698 43.0156 24.375C42.4948 23.8802 42.2344 23.2474 42.2344 22.4766C42.2344 21.8203 42.4115 21.2461 42.7656 20.7539C43.1198 20.2617 43.599 19.8802 44.2031 19.6094C44.8073 19.3385 45.4844 19.2031 46.2344 19.2031C47 19.2031 47.6771 19.3385 48.2656 19.6094C48.8542 19.8802 49.319 20.2487 49.6602 20.7148C50.0013 21.181 50.1823 21.7083 50.2031 22.2969H48.75C48.6823 21.7292 48.4115 21.2904 47.9375 20.9805C47.4635 20.6706 46.8802 20.5156 46.1875 20.5156C45.6875 20.5156 45.2487 20.5977 44.8711 20.7617C44.4935 20.9258 44.2005 21.1497 43.9922 21.4336C43.7839 21.7174 43.6797 22.0417 43.6797 22.4062C43.6797 22.8125 43.806 23.1393 44.0586 23.3867C44.3112 23.6341 44.6107 23.8268 44.957 23.9648C45.3034 24.1029 45.6172 24.2109 45.8984 24.2891L47.0625 24.6094C47.375 24.6927 47.7201 24.8073 48.0977 24.9531C48.4753 25.099 48.8359 25.293 49.1797 25.5352C49.5234 25.7773 49.806 26.0846 50.0273 26.457C50.2487 26.8294 50.3594 27.2865 50.3594 27.8281C50.3594 28.4635 50.194 29.0365 49.8633 29.5469C49.5326 30.0573 49.0521 30.4609 48.4219 30.7578C47.7917 31.0547 47.0286 31.2031 46.1328 31.2031ZM56.1719 31.1875C55.3281 31.1875 54.6003 31 53.9883 30.625C53.3763 30.25 52.9049 29.7266 52.5742 29.0547C52.2435 28.3828 52.0781 27.599 52.0781 26.7031C52.0781 25.8073 52.2396 25.0182 52.5625 24.3359C52.8854 23.6536 53.3424 23.1198 53.9336 22.7344C54.5247 22.349 55.2161 22.1562 56.0078 22.1562C56.4714 22.1562 56.9284 22.2331 57.3789 22.3867C57.8294 22.5404 58.2383 22.7878 58.6055 23.1289C58.9727 23.4701 59.2656 23.9193 59.4844 24.4766C59.7031 25.0339 59.8125 25.7161 59.8125 26.5234V27.1094H53.0312V25.9219H59.0547L58.3984 26.3594C58.3984 25.7865 58.3086 25.2773 58.1289 24.832C57.9492 24.3867 57.6823 24.0378 57.3281 23.7852C56.974 23.5326 56.5339 23.4062 56.0078 23.4062C55.4818 23.4062 55.0312 23.5352 54.6562 23.793C54.2812 24.0508 53.9948 24.3867 53.7969 24.8008C53.599 25.2148 53.5 25.6589 53.5 26.1328V26.9219C53.5 27.5677 53.612 28.1159 53.8359 28.5664C54.0599 29.0169 54.3737 29.3581 54.7773 29.5898C55.181 29.8216 55.6484 29.9375 56.1797 29.9375C56.5234 29.9375 56.8359 29.888 57.1172 29.7891C57.3984 29.6901 57.6406 29.5404 57.8438 29.3398C58.0469 29.1393 58.2031 28.8906 58.3125 28.5938L59.6719 28.9688C59.5365 29.4062 59.3073 29.7917 58.9844 30.125C58.6615 30.4583 58.2617 30.7188 57.7852 30.9062C57.3086 31.0938 56.7708 31.1875 56.1719 31.1875ZM63.2344 19.3594V31H61.8281V19.3594H63.2344ZM69.375 31.1875C68.5312 31.1875 67.8034 31 67.1914 30.625C66.5794 30.25 66.1081 29.7266 65.7773 29.0547C65.4466 28.3828 65.2812 27.599 65.2812 26.7031C65.2812 25.8073 65.4427 25.0182 65.7656 24.3359C66.0885 23.6536 66.5456 23.1198 67.1367 22.7344C67.7279 22.349 68.4193 22.1562 69.2109 22.1562C69.6745 22.1562 70.1315 22.2331 70.582 22.3867C71.0326 22.5404 71.4414 22.7878 71.8086 23.1289C72.1758 23.4701 72.4688 23.9193 72.6875 24.4766C72.9062 25.0339 73.0156 25.7161 73.0156 26.5234V27.1094H66.2344V25.9219H72.2578L71.6016 26.3594C71.6016 25.7865 71.5117 25.2773 71.332 24.832C71.1523 24.3867 70.8854 24.0378 70.5312 23.7852C70.1771 23.5326 69.737 23.4062 69.2109 23.4062C68.6849 23.4062 68.2344 23.5352 67.8594 23.793C67.4844 24.0508 67.1979 24.3867 67 24.8008C66.8021 25.2148 66.7031 25.6589 66.7031 26.1328V26.9219C66.7031 27.5677 66.8151 28.1159 67.0391 28.5664C67.263 29.0169 67.5768 29.3581 67.9805 29.5898C68.3841 29.8216 68.8516 29.9375 69.3828 29.9375C69.7266 29.9375 70.0391 29.888 70.3203 29.7891C70.6016 29.6901 70.8438 29.5404 71.0469 29.3398C71.25 29.1393 71.4062 28.8906 71.5156 28.5938L72.875 28.9688C72.7396 29.4062 72.5104 29.7917 72.1875 30.125C71.8646 30.4583 71.4648 30.7188 70.9883 30.9062C70.5117 31.0938 69.974 31.1875 69.375 31.1875ZM78.5859 31.1875C77.7943 31.1875 77.1003 31 76.5039 30.625C75.9076 30.25 75.4427 29.724 75.1094 29.0469C74.776 28.3698 74.6094 27.5833 74.6094 26.6875C74.6094 25.776 74.776 24.9805 75.1094 24.3008C75.4427 23.6211 75.9076 23.0938 76.5039 22.7188C77.1003 22.3438 77.7943 22.1562 78.5859 22.1562C79.0078 22.1562 79.4062 22.2109 79.7812 22.3203C80.1562 22.4297 80.4987 22.5872 80.8086 22.793C81.1185 22.9987 81.3854 23.2513 81.6094 23.5508C81.8333 23.8503 82.0052 24.1901 82.125 24.5703L80.7734 24.9531C80.7109 24.7292 80.6146 24.5234 80.4844 24.3359C80.3542 24.1484 80.1966 23.9857 80.0117 23.8477C79.8268 23.7096 79.6146 23.6029 79.375 23.5273C79.1354 23.4518 78.8724 23.4141 78.5859 23.4141C78.0026 23.4141 77.5234 23.5664 77.1484 23.8711C76.7734 24.1758 76.4948 24.5755 76.3125 25.0703C76.1302 25.5651 76.0391 26.1042 76.0391 26.6875C76.0391 27.2604 76.1302 27.793 76.3125 28.2852C76.4948 28.7773 76.7734 29.1745 77.1484 29.4766C77.5234 29.7786 78.0026 29.9297 78.5859 29.9297C78.8776 29.9297 79.1458 29.8906 79.3906 29.8125C79.6354 29.7344 79.8529 29.6237 80.043 29.4805C80.2331 29.3372 80.3932 29.1667 80.5234 28.9688C80.6536 28.7708 80.75 28.5547 80.8125 28.3203L82.1562 28.7031C82.0417 29.0938 81.8711 29.4414 81.6445 29.7461C81.418 30.0508 81.1484 30.3112 80.8359 30.5273C80.5234 30.7435 80.1771 30.9076 79.7969 31.0195C79.4167 31.1315 79.013 31.1875 78.5859 31.1875ZM87.6094 22.2656V23.4688H83.0938V22.2656H87.6094ZM84.4062 20.1875H85.8125V28.7344C85.8125 29.125 85.8919 29.4102 86.0508 29.5898C86.2096 29.7695 86.474 29.8594 86.8438 29.8594C86.9323 29.8594 87.0456 29.849 87.1836 29.8281C87.3216 29.8073 87.4479 29.7865 87.5625 29.7656L87.8516 30.9531C87.7057 31.0052 87.5404 31.0443 87.3555 31.0703C87.1706 31.0964 86.987 31.1094 86.8047 31.1094C86.0495 31.1094 85.4609 30.9102 85.0391 30.5117C84.6172 30.1133 84.4062 29.5573 84.4062 28.8438V20.1875ZM93.7656 34.1641L94.125 32.9453L94.2734 32.9844C94.5599 33.0573 94.8203 33.0768 95.0547 33.043C95.2891 33.0091 95.5 32.8932 95.6875 32.6953C95.875 32.4974 96.0391 32.1901 96.1797 31.7734L96.4297 31.0469L93.0938 22.2656H94.6328L96.4922 27.4453C96.6901 27.987 96.8568 28.5234 96.9922 29.0547C97.1276 29.5859 97.2708 30.1016 97.4219 30.6016H96.9062C97.0573 30.1016 97.2018 29.5846 97.3398 29.0508C97.4779 28.5169 97.6432 27.9818 97.8359 27.4453L99.7109 22.2656H101.242L97.4062 32.3047C97.2292 32.7682 97.0169 33.1497 96.7695 33.4492C96.5221 33.7487 96.2344 33.9701 95.9062 34.1133C95.5781 34.2565 95.2083 34.3281 94.7969 34.3281C94.5469 34.3281 94.3307 34.3099 94.1484 34.2734C93.9661 34.237 93.8385 34.2005 93.7656 34.1641ZM106.141 31.1875C105.349 31.1875 104.655 31 104.059 30.625C103.462 30.25 102.997 29.724 102.664 29.0469C102.331 28.3698 102.164 27.5833 102.164 26.6875C102.164 25.776 102.331 24.9805 102.664 24.3008C102.997 23.6211 103.462 23.0938 104.059 22.7188C104.655 22.3438 105.349 22.1562 106.141 22.1562C106.938 22.1562 107.635 22.3438 108.234 22.7188C108.833 23.0938 109.299 23.6211 109.633 24.3008C109.966 24.9805 110.133 25.776 110.133 26.6875C110.133 27.5833 109.966 28.3698 109.633 29.0469C109.299 29.724 108.833 30.25 108.234 30.625C107.635 31 106.938 31.1875 106.141 31.1875ZM106.141 29.9297C106.729 29.9297 107.214 29.7786 107.594 29.4766C107.974 29.1745 108.255 28.7773 108.438 28.2852C108.62 27.793 108.711 27.2604 108.711 26.6875C108.711 26.1094 108.62 25.5716 108.438 25.0742C108.255 24.5768 107.974 24.1758 107.594 23.8711C107.214 23.5664 106.729 23.4141 106.141 23.4141C105.557 23.4141 105.078 23.5664 104.703 23.8711C104.328 24.1758 104.049 24.5755 103.867 25.0703C103.685 25.5651 103.594 26.1042 103.594 26.6875C103.594 27.2604 103.685 27.793 103.867 28.2852C104.049 28.7773 104.328 29.1745 104.703 29.4766C105.078 29.7786 105.557 29.9297 106.141 29.9297ZM115.141 31.1094C114.552 31.1094 114.035 30.9883 113.59 30.7461C113.145 30.5039 112.798 30.138 112.551 29.6484C112.303 29.1589 112.18 28.5469 112.18 27.8125V22.2656H113.586V27.6953C113.586 28.3672 113.763 28.8932 114.117 29.2734C114.471 29.6536 114.953 29.8438 115.562 29.8438C115.979 29.8438 116.353 29.7526 116.684 29.5703C117.014 29.388 117.276 29.1211 117.469 28.7695C117.661 28.418 117.758 27.9948 117.758 27.5V22.2656H119.172V31H117.812V28.8828H118C117.729 29.7005 117.345 30.276 116.848 30.6094C116.35 30.9427 115.781 31.1094 115.141 31.1094ZM121.641 31V22.2656H123V23.6094H123.094C123.255 23.1667 123.543 22.8112 123.957 22.543C124.371 22.2747 124.839 22.1406 125.359 22.1406C125.464 22.1406 125.587 22.1432 125.73 22.1484C125.874 22.1536 125.987 22.1589 126.07 22.1641V23.5781C126.029 23.5677 125.924 23.5521 125.758 23.5312C125.591 23.5104 125.414 23.5 125.227 23.5C124.81 23.5 124.436 23.5872 124.105 23.7617C123.775 23.9362 123.516 24.1758 123.328 24.4805C123.141 24.7852 123.047 25.1354 123.047 25.5312V31H121.641ZM135.133 31.1875C134.534 31.1875 134.001 31.1003 133.535 30.9258C133.069 30.7513 132.685 30.4922 132.383 30.1484C132.081 29.8047 131.878 29.3828 131.773 28.8828L133.109 28.5625C133.234 29.0417 133.47 29.3932 133.816 29.6172C134.163 29.8411 134.596 29.9531 135.117 29.9531C135.727 29.9531 136.212 29.8229 136.574 29.5625C136.936 29.3021 137.117 28.9922 137.117 28.6328C137.117 28.3307 137.012 28.0794 136.801 27.8789C136.59 27.6784 136.268 27.5286 135.836 27.4297L134.383 27.0859C133.591 26.8984 133.003 26.6081 132.617 26.2148C132.232 25.8216 132.039 25.3177 132.039 24.7031C132.039 24.2031 132.18 23.7617 132.461 23.3789C132.742 22.9961 133.126 22.6966 133.613 22.4805C134.1 22.2643 134.654 22.1562 135.273 22.1562C135.872 22.1562 136.382 22.2461 136.801 22.4258C137.22 22.6055 137.561 22.8529 137.824 23.168C138.087 23.4831 138.284 23.8464 138.414 24.2578L137.141 24.5859C137.021 24.2734 136.822 23.9896 136.543 23.7344C136.264 23.4792 135.844 23.3516 135.281 23.3516C134.76 23.3516 134.327 23.4714 133.98 23.7109C133.634 23.9505 133.461 24.2526 133.461 24.6172C133.461 24.9401 133.578 25.1992 133.812 25.3945C134.047 25.5898 134.419 25.7474 134.93 25.8672L136.25 26.1797C137.042 26.3672 137.628 26.6576 138.008 27.0508C138.388 27.444 138.578 27.9401 138.578 28.5391C138.578 29.0495 138.434 29.5039 138.145 29.9023C137.855 30.3008 137.452 30.6146 136.934 30.8438C136.415 31.0729 135.815 31.1875 135.133 31.1875ZM141.93 27.8594V26.1172H142.188L145.922 22.2656H147.664L143.625 26.4141H143.469L141.93 27.8594ZM140.609 31V19.3594H142.016V31H140.609ZM146.133 31L142.789 26.7266L143.789 25.7344L147.938 31H146.133ZM149.391 31V22.2656H150.797V31H149.391ZM150.102 20.8359C149.836 20.8359 149.607 20.7448 149.414 20.5625C149.221 20.3802 149.125 20.1615 149.125 19.9062C149.125 19.6458 149.221 19.4258 149.414 19.2461C149.607 19.0664 149.836 18.9766 150.102 18.9766C150.372 18.9766 150.604 19.0664 150.797 19.2461C150.99 19.4258 151.086 19.6458 151.086 19.9062C151.086 20.1615 150.99 20.3802 150.797 20.5625C150.604 20.7448 150.372 20.8359 150.102 20.8359ZM154.672 25.7656V31H153.266V22.2656H154.617L154.625 24.3828H154.43C154.695 23.5755 155.074 23.0026 155.566 22.6641C156.059 22.3255 156.635 22.1562 157.297 22.1562C157.885 22.1562 158.401 22.2773 158.844 22.5195C159.286 22.7617 159.632 23.1263 159.879 23.6133C160.126 24.1003 160.25 24.7135 160.25 25.4531V31H158.844V25.5703C158.844 24.8984 158.668 24.3724 158.316 23.9922C157.965 23.612 157.484 23.4219 156.875 23.4219C156.458 23.4219 156.083 23.513 155.75 23.6953C155.417 23.8776 155.154 24.1432 154.961 24.4922C154.768 24.8411 154.672 25.2656 154.672 25.7656ZM170.656 22.2656V23.4688H166.141V22.2656H170.656ZM167.453 20.1875H168.859V28.7344C168.859 29.125 168.939 29.4102 169.098 29.5898C169.257 29.7695 169.521 29.8594 169.891 29.8594C169.979 29.8594 170.092 29.849 170.23 29.8281C170.368 29.8073 170.495 29.7865 170.609 29.7656L170.898 30.9531C170.753 31.0052 170.587 31.0443 170.402 31.0703C170.217 31.0964 170.034 31.1094 169.852 31.1094C169.096 31.1094 168.508 30.9102 168.086 30.5117C167.664 30.1133 167.453 29.5573 167.453 28.8438V20.1875ZM172.625 34.1641L172.984 32.9453L173.133 32.9844C173.419 33.0573 173.68 33.0768 173.914 33.043C174.148 33.0091 174.359 32.8932 174.547 32.6953C174.734 32.4974 174.898 32.1901 175.039 31.7734L175.289 31.0469L171.953 22.2656H173.492L175.352 27.4453C175.549 27.987 175.716 28.5234 175.852 29.0547C175.987 29.5859 176.13 30.1016 176.281 30.6016H175.766C175.917 30.1016 176.061 29.5846 176.199 29.0508C176.337 28.5169 176.503 27.9818 176.695 27.4453L178.57 22.2656H180.102L176.266 32.3047C176.089 32.7682 175.876 33.1497 175.629 33.4492C175.382 33.7487 175.094 33.9701 174.766 34.1133C174.438 34.2565 174.068 34.3281 173.656 34.3281C173.406 34.3281 173.19 34.3099 173.008 34.2734C172.826 34.237 172.698 34.2005 172.625 34.1641ZM181.758 34.2656V22.2656H183.117V23.6641H183.273C183.372 23.5078 183.51 23.3112 183.688 23.0742C183.865 22.8372 184.12 22.625 184.453 22.4375C184.786 22.25 185.237 22.1562 185.805 22.1562C186.534 22.1562 187.176 22.3385 187.73 22.7031C188.285 23.0677 188.72 23.5872 189.035 24.2617C189.35 24.9362 189.508 25.7344 189.508 26.6562C189.508 27.5833 189.352 28.3854 189.039 29.0625C188.727 29.7396 188.293 30.263 187.738 30.6328C187.184 31.0026 186.542 31.1875 185.812 31.1875C185.26 31.1875 184.815 31.0924 184.477 30.9023C184.138 30.7122 183.878 30.4961 183.695 30.2539C183.513 30.0117 183.372 29.8099 183.273 29.6484H183.164V34.2656H181.758ZM185.602 29.9297C186.148 29.9297 186.605 29.7826 186.973 29.4883C187.34 29.194 187.616 28.7982 187.801 28.3008C187.986 27.8034 188.078 27.25 188.078 26.6406C188.078 26.0365 187.987 25.4909 187.805 25.0039C187.622 24.5169 187.348 24.1302 186.98 23.8438C186.613 23.5573 186.154 23.4141 185.602 23.4141C185.065 23.4141 184.615 23.5495 184.25 23.8203C183.885 24.0911 183.611 24.4674 183.426 24.9492C183.241 25.431 183.148 25.9948 183.148 26.6406C183.148 27.2865 183.242 27.8568 183.43 28.3516C183.617 28.8464 183.895 29.2331 184.262 29.5117C184.629 29.7904 185.076 29.9297 185.602 29.9297ZM195.227 31.1875C194.383 31.1875 193.655 31 193.043 30.625C192.431 30.25 191.96 29.7266 191.629 29.0547C191.298 28.3828 191.133 27.599 191.133 26.7031C191.133 25.8073 191.294 25.0182 191.617 24.3359C191.94 23.6536 192.397 23.1198 192.988 22.7344C193.579 22.349 194.271 22.1562 195.062 22.1562C195.526 22.1562 195.983 22.2331 196.434 22.3867C196.884 22.5404 197.293 22.7878 197.66 23.1289C198.027 23.4701 198.32 23.9193 198.539 24.4766C198.758 25.0339 198.867 25.7161 198.867 26.5234V27.1094H192.086V25.9219H198.109L197.453 26.3594C197.453 25.7865 197.363 25.2773 197.184 24.832C197.004 24.3867 196.737 24.0378 196.383 23.7852C196.029 23.5326 195.589 23.4062 195.062 23.4062C194.536 23.4062 194.086 23.5352 193.711 23.793C193.336 24.0508 193.049 24.3867 192.852 24.8008C192.654 25.2148 192.555 25.6589 192.555 26.1328V26.9219C192.555 27.5677 192.667 28.1159 192.891 28.5664C193.115 29.0169 193.428 29.3581 193.832 29.5898C194.236 29.8216 194.703 29.9375 195.234 29.9375C195.578 29.9375 195.891 29.888 196.172 29.7891C196.453 29.6901 196.695 29.5404 196.898 29.3398C197.102 29.1393 197.258 28.8906 197.367 28.5938L198.727 28.9688C198.591 29.4062 198.362 29.7917 198.039 30.125C197.716 30.4583 197.316 30.7188 196.84 30.9062C196.363 31.0938 195.826 31.1875 195.227 31.1875Z" fill="#0F172A"/>
</svg>
