<svg width="67" height="24" viewBox="0 0 67 24" fill="none" xmlns="http://www.w3.org/2000/svg">
<rect width="66.92" height="24" rx="4" fill="#F1F5F9"/>
<path d="M9.82812 16.0977C9.20638 16.0977 8.65218 15.9471 8.16553 15.646C7.67887 15.3449 7.29557 14.9152 7.01562 14.3569C6.73568 13.7987 6.5957 13.1354 6.5957 12.3672C6.5957 11.5957 6.73568 10.9308 7.01562 10.3726C7.29557 9.81429 7.67887 9.38379 8.16553 9.08105C8.65218 8.77832 9.20638 8.62695 9.82812 8.62695C10.4499 8.62695 11.0033 8.77832 11.4883 9.08105C11.9733 9.38379 12.355 9.81429 12.6333 10.3726C12.9116 10.9308 13.0508 11.5957 13.0508 12.3672C13.0508 13.1354 12.9116 13.7987 12.6333 14.3569C12.355 14.9152 11.9733 15.3449 11.4883 15.646C11.0033 15.9471 10.4499 16.0977 9.82812 16.0977ZM9.82812 15.2383C10.2611 15.2383 10.6525 15.1284 11.0024 14.9087C11.3524 14.689 11.6307 14.3651 11.8374 13.937C12.0441 13.509 12.1475 12.9857 12.1475 12.3672C12.1475 11.7422 12.0441 11.2157 11.8374 10.7876C11.6307 10.3595 11.3524 10.0356 11.0024 9.81592C10.6525 9.59619 10.2611 9.48633 9.82812 9.48633C9.39193 9.48633 8.99805 9.59701 8.64648 9.81836C8.29492 10.0397 8.01579 10.3644 7.80908 10.7925C7.60238 11.2205 7.49902 11.7454 7.49902 12.3672C7.49902 12.9857 7.60238 13.5081 7.80908 13.9346C8.01579 14.361 8.29492 14.6849 8.64648 14.9062C8.99805 15.1276 9.39193 15.2383 9.82812 15.2383ZM15.0254 16V8.72461H17.5156C18.082 8.72461 18.5483 8.82796 18.9146 9.03467C19.2808 9.24137 19.5526 9.51888 19.73 9.86719C19.9074 10.2155 19.9961 10.6061 19.9961 11.0391C19.9961 11.472 19.9074 11.8643 19.73 12.2158C19.5526 12.5674 19.2816 12.8473 18.917 13.0557C18.5524 13.264 18.0869 13.3682 17.5205 13.3682H15.7578V12.5527H17.4766C17.8607 12.5527 18.1699 12.4868 18.4043 12.355C18.6387 12.2231 18.8088 12.0425 18.9146 11.813C19.0203 11.5835 19.0732 11.3255 19.0732 11.0391C19.0732 10.7526 19.0203 10.4963 18.9146 10.27C18.8088 10.0438 18.6379 9.86556 18.4019 9.73535C18.1659 9.60514 17.8542 9.54004 17.4668 9.54004H15.9531V16H15.0254ZM21.5117 9.54492V8.72461H27.0098V9.54492H24.7295V16H23.8018V9.54492H21.5117ZM29.7949 8.72461V16H28.8672V8.72461H29.7949ZM35.002 16.0977C34.3802 16.0977 33.826 15.9471 33.3394 15.646C32.8527 15.3449 32.4694 14.9152 32.1895 14.3569C31.9095 13.7987 31.7695 13.1354 31.7695 12.3672C31.7695 11.5957 31.9095 10.9308 32.1895 10.3726C32.4694 9.81429 32.8527 9.38379 33.3394 9.08105C33.826 8.77832 34.3802 8.62695 35.002 8.62695C35.6237 8.62695 36.1771 8.77832 36.6621 9.08105C37.1471 9.38379 37.5288 9.81429 37.8071 10.3726C38.0854 10.9308 38.2246 11.5957 38.2246 12.3672C38.2246 13.1354 38.0854 13.7987 37.8071 14.3569C37.5288 14.9152 37.1471 15.3449 36.6621 15.646C36.1771 15.9471 35.6237 16.0977 35.002 16.0977ZM35.002 15.2383C35.4349 15.2383 35.8263 15.1284 36.1763 14.9087C36.5262 14.689 36.8045 14.3651 37.0112 13.937C37.2179 13.509 37.3213 12.9857 37.3213 12.3672C37.3213 11.7422 37.2179 11.2157 37.0112 10.7876C36.8045 10.3595 36.5262 10.0356 36.1763 9.81592C35.8263 9.59619 35.4349 9.48633 35.002 9.48633C34.5658 9.48633 34.1719 9.59701 33.8203 9.81836C33.4688 10.0397 33.1896 10.3644 32.9829 10.7925C32.7762 11.2205 32.6729 11.7454 32.6729 12.3672C32.6729 12.9857 32.7762 13.5081 32.9829 13.9346C33.1896 14.361 33.4688 14.6849 33.8203 14.9062C34.1719 15.1276 34.5658 15.2383 35.002 15.2383ZM40.1992 16V8.72461H41.293L44.252 13.3779C44.3301 13.4984 44.4245 13.653 44.5352 13.8418C44.6458 14.0306 44.7655 14.2438 44.894 14.4814C45.0226 14.7191 45.1488 14.973 45.2725 15.2432H45.1406C45.1113 14.9632 45.0902 14.6955 45.0771 14.4399C45.0641 14.1844 45.056 13.9492 45.0527 13.7344C45.0495 13.5195 45.0479 13.3372 45.0479 13.1875V8.72461H45.9756V16H44.8721L42.2354 11.8594C42.1149 11.6673 41.9937 11.4696 41.8716 11.2661C41.7495 11.0627 41.6104 10.8218 41.4541 10.5435C41.2979 10.2651 41.1042 9.9209 40.873 9.51074H41.0439C41.0602 9.87207 41.0749 10.2057 41.0879 10.5117C41.1009 10.8177 41.1115 11.0846 41.1196 11.3125C41.1278 11.5404 41.1318 11.7194 41.1318 11.8496V16H40.1992ZM47.6084 16L50.25 8.72461H51.3242L54 16H53.0234L51.4805 11.6836C51.3861 11.4167 51.2762 11.0838 51.1509 10.6851C51.0256 10.2863 50.8734 9.77767 50.6943 9.15918H50.8701C50.6943 9.78418 50.5422 10.2993 50.4136 10.7046C50.285 11.1099 50.1784 11.4362 50.0938 11.6836L48.5947 16H47.6084ZM48.9365 13.9688V13.1582H52.6719V13.9688H48.9365ZM55.6328 16V8.72461H56.5605V15.1797H59.9297V16H55.6328Z" fill="#64748B"/>
</svg>
