<svg width="65" height="11" viewBox="0 0 65 11" fill="none" xmlns="http://www.w3.org/2000/svg">
<path d="M0.000320911 10.1855V0H3.81148C4.59132 0 5.24744 0.146335 5.77982 0.439004C6.3122 0.731673 6.71488 1.13167 6.98786 1.63898C7.26084 2.1463 7.39733 2.72435 7.39733 3.37312C7.39733 4.02353 7.25961 4.60181 6.98417 5.10794C6.70873 5.61407 6.30268 6.01256 5.76601 6.30341C5.22935 6.59425 4.56781 6.73968 3.7814 6.73968H1.25703V5.23633H3.54024C4.00253 5.23633 4.38052 5.15635 4.67419 4.99639C4.96786 4.83643 5.18424 4.6159 5.32333 4.3348C5.46242 4.05371 5.53197 3.73315 5.53197 3.37312C5.53197 3.00981 5.46242 2.68948 5.32333 2.41212C5.18424 2.13476 4.96713 1.91806 4.672 1.76202C4.37687 1.60597 3.9967 1.52795 3.53149 1.52795H1.82577V10.1855H0.000320911ZM10.9632 10.3436C10.4785 10.3436 10.0424 10.2561 9.65471 10.0812C9.26707 9.90632 8.96114 9.64751 8.73692 9.3048C8.5127 8.9621 8.40059 8.53927 8.40059 8.03633C8.40059 7.60539 8.48144 7.2491 8.64313 6.96746C8.80482 6.68582 9.02421 6.46064 9.3013 6.29193C9.57838 6.12322 9.89033 5.99562 10.2371 5.90912C10.5839 5.82263 10.9425 5.75987 11.3127 5.72086C11.7586 5.67146 12.1198 5.62835 12.3962 5.59152C12.6726 5.5547 12.8763 5.4955 13.0071 5.41393C13.1379 5.33235 13.2033 5.20552 13.2033 5.03344V4.99734C13.2033 4.7456 13.1526 4.53259 13.0514 4.35831C12.9501 4.18404 12.8007 4.05037 12.6031 3.95731C12.4054 3.86425 12.1609 3.81772 11.8694 3.81772C11.5737 3.81772 11.3173 3.8632 11.1002 3.95417C10.8831 4.04513 10.706 4.16335 10.5688 4.30882C10.4316 4.45429 10.331 4.61179 10.2671 4.78132L8.61934 4.44335C8.77101 3.99163 9.00416 3.61876 9.3188 3.32472C9.63343 3.03069 10.0089 2.81093 10.4452 2.66547C10.8815 2.52 11.3539 2.44727 11.8623 2.44727C12.2209 2.44727 12.5836 2.48992 12.9504 2.57523C13.3173 2.66054 13.6539 2.80255 13.9602 3.00125C14.2666 3.19994 14.5131 3.46832 14.6999 3.80638C14.8866 4.14444 14.98 4.56768 14.98 5.0761V10.1855H13.2804V9.13172H13.2082C13.097 9.34883 12.9412 9.54948 12.7407 9.73369C12.5403 9.9179 12.2932 10.0656 11.9993 10.1768C11.7055 10.288 11.3601 10.3436 10.9632 10.3436ZM11.4188 9.0229C11.7859 9.0229 12.1033 8.95044 12.371 8.80552C12.6387 8.66059 12.846 8.46786 12.9928 8.22733C13.1397 7.98679 13.2131 7.72552 13.2131 7.44351V6.53898C13.1548 6.58674 13.0569 6.63085 12.9194 6.67132C12.782 6.71179 12.6272 6.74779 12.455 6.77933C12.2828 6.81087 12.1142 6.83794 11.9491 6.86054C11.7841 6.88315 11.6439 6.9021 11.5287 6.91742C11.262 6.95223 11.0221 7.01162 10.8089 7.09556C10.5957 7.17951 10.428 7.29545 10.3059 7.44338C10.1837 7.59131 10.1227 7.7824 10.1227 8.01664C10.1227 8.23667 10.1787 8.4212 10.2908 8.57022C10.403 8.71925 10.5562 8.83195 10.7505 8.90833C10.9448 8.98471 11.1676 9.0229 11.4188 9.0229ZM19.7556 10.3398C19.1708 10.3398 18.6523 10.2556 18.2002 10.0874C17.748 9.91913 17.3779 9.67354 17.0898 9.35061C16.8016 9.02768 16.6128 8.63598 16.5233 8.17551L18.1869 7.86325C18.2897 8.23987 18.475 8.52 18.7428 8.70366C19.0106 8.88732 19.36 8.97915 19.7912 8.97915C20.2292 8.97915 20.5767 8.89147 20.8335 8.7161C21.0904 8.54074 21.2188 8.32454 21.2188 8.0675C21.2188 7.84583 21.1343 7.66327 20.9653 7.5198C20.7963 7.37634 20.5367 7.26705 20.1863 7.19195L18.8853 6.91085C18.163 6.75499 17.6243 6.49928 17.269 6.14372C16.9137 5.78817 16.7361 5.33002 16.7361 4.76929C16.7361 4.29734 16.8661 3.88773 17.1261 3.54047C17.3862 3.1932 17.7473 2.92419 18.2095 2.73342C18.6717 2.54265 19.2076 2.44727 19.8171 2.44727C20.3954 2.44727 20.8929 2.52916 21.3098 2.69295C21.7267 2.85674 22.0642 3.08592 22.3222 3.38051C22.5803 3.67509 22.7597 4.02126 22.8605 4.41902L21.2762 4.72827C21.1878 4.46304 21.0295 4.23805 20.8013 4.05329C20.573 3.86854 20.253 3.77616 19.8412 3.77616C19.4642 3.77616 19.1492 3.85842 18.8962 4.02294C18.6432 4.18746 18.5167 4.40052 18.5167 4.66211C18.5167 4.88396 18.5999 5.06762 18.7665 5.21309C18.933 5.35856 19.2108 5.47386 19.6 5.55899L20.9005 5.83243C21.6244 5.98665 22.1621 6.23456 22.5136 6.57618C22.8652 6.91779 23.041 7.35803 23.041 7.89688C23.041 8.37959 22.9014 8.80428 22.6222 9.17096C22.343 9.53764 21.9566 9.82411 21.463 10.0304C20.9693 10.2366 20.4002 10.3398 19.7556 10.3398ZM27.446 10.3398C26.8613 10.3398 26.3428 10.2556 25.8906 10.0874C25.4384 9.91913 25.0683 9.67354 24.7802 9.35061C24.4921 9.02768 24.3033 8.63598 24.2138 8.17551L25.8773 7.86325C25.9801 8.23987 26.1654 8.52 26.4332 8.70366C26.701 8.88732 27.0505 8.97915 27.4816 8.97915C27.9196 8.97915 28.2671 8.89147 28.5239 8.7161C28.7808 8.54074 28.9092 8.32454 28.9092 8.0675C28.9092 7.84583 28.8247 7.66327 28.6557 7.5198C28.4868 7.37634 28.2271 7.26705 27.8767 7.19195L26.5757 6.91085C25.8535 6.75499 25.3147 6.49928 24.9594 6.14372C24.6041 5.78817 24.4265 5.33002 24.4265 4.76929C24.4265 4.29734 24.5565 3.88773 24.8165 3.54047C25.0766 3.1932 25.4377 2.92419 25.8999 2.73342C26.3621 2.54265 26.898 2.44727 27.5076 2.44727C28.0858 2.44727 28.5834 2.52916 29.0003 2.69295C29.4172 2.85674 29.7546 3.08592 30.0127 3.38051C30.2707 3.67509 30.4501 4.02126 30.5509 4.41902L28.9666 4.72827C28.8782 4.46304 28.7199 4.23805 28.4917 4.05329C28.2635 3.86854 27.9434 3.77616 27.5316 3.77616C27.1547 3.77616 26.8397 3.85842 26.5866 4.02294C26.3336 4.18746 26.2071 4.40052 26.2071 4.66211C26.2071 4.88396 26.2904 5.06762 26.4569 5.21309C26.6234 5.35856 26.9013 5.47386 27.2905 5.55899L28.5909 5.83243C29.3148 5.98665 29.8525 6.23456 30.2041 6.57618C30.5556 6.91779 30.7314 7.35803 30.7314 7.89688C30.7314 8.37959 30.5918 8.80428 30.3126 9.17096C30.0334 9.53764 29.647 9.82411 29.1534 10.0304C28.6597 10.2366 28.0906 10.3398 27.446 10.3398ZM33.8806 10.1855L31.605 2.54297H33.4742L34.2267 5.53931C34.3445 6.02785 34.4718 6.56652 34.6086 7.15532C34.7454 7.74413 34.8746 8.39983 34.9962 9.12243H34.7695C34.8948 8.42025 35.028 7.77361 35.1693 7.18253C35.3106 6.59145 35.444 6.04371 35.5696 5.53931L36.3404 2.54297H38.0368L38.7891 5.53931C38.9101 6.0366 39.0409 6.57965 39.1816 7.16845C39.3222 7.75725 39.4551 8.40858 39.5804 9.12243H39.3543C39.4771 8.41441 39.6042 7.766 39.7354 7.1772C39.8667 6.5884 39.9926 6.04243 40.1133 5.53931L40.8658 2.54297H42.7547L40.4693 10.1855H38.6723L37.7771 7.06616C37.6883 6.75462 37.6006 6.41861 37.5139 6.05813C37.4272 5.69765 37.3428 5.32969 37.2607 4.95426C37.1786 4.57883 37.0946 4.21748 37.0087 3.87021H37.3412C37.2599 4.21456 37.177 4.57518 37.0926 4.95207C37.0082 5.32896 36.9231 5.6991 36.8373 6.0625C36.7514 6.4259 36.6633 6.76045 36.5728 7.06616L35.6776 10.1855H33.8806ZM47.1021 10.3398C46.3602 10.3398 45.7156 10.1753 45.1684 9.84635C44.6211 9.5174 44.198 9.05712 43.8989 8.46549C43.5999 7.87386 43.4504 7.18612 43.4504 6.40227C43.4504 5.60966 43.5999 4.91682 43.8989 4.32373C44.198 3.73064 44.6211 3.26963 45.1684 2.94068C45.7156 2.61174 46.3602 2.44727 47.1021 2.44727C47.8469 2.44727 48.4929 2.61174 49.04 2.94068C49.587 3.26963 50.0101 3.73064 50.3091 4.32373C50.6082 4.91682 50.7577 5.60966 50.7577 6.40227C50.7577 7.18612 50.6082 7.87386 50.3091 8.46549C50.0101 9.05712 49.587 9.5174 49.04 9.84635C48.4929 10.1753 47.8469 10.3398 47.1021 10.3398ZM47.1021 8.89712C47.517 8.89712 47.8617 8.78547 48.1361 8.56216C48.4106 8.33885 48.6152 8.03811 48.7501 7.65995C48.885 7.28178 48.9525 6.86091 48.9525 6.39734C48.9525 5.92922 48.885 5.50584 48.7501 5.12722C48.6152 4.7486 48.4106 4.44772 48.1361 4.2246C47.8617 4.00147 47.517 3.88991 47.1021 3.88991C46.6885 3.88991 46.3455 4.00147 46.0732 4.2246C45.8008 4.44772 45.5972 4.74787 45.4623 5.12503C45.3274 5.5022 45.2599 5.9263 45.2599 6.39734C45.2599 6.86091 45.3274 7.28178 45.4623 7.65995C45.5972 8.03811 45.8008 8.33885 46.0732 8.56216C46.3455 8.78547 46.6885 8.89712 47.1021 8.89712ZM52.3095 10.1855V2.54297H54.0305V3.82211H54.1125C54.2521 3.37896 54.4924 3.03757 54.8334 2.79795C55.1744 2.55833 55.5637 2.43852 56.0014 2.43852C56.1024 2.43852 56.2143 2.44325 56.3372 2.45273C56.46 2.46221 56.5645 2.47497 56.6505 2.49101V4.12451C56.578 4.10063 56.4594 4.07917 56.2947 4.06012C56.13 4.04107 55.9697 4.03155 55.8138 4.03155C55.4837 4.03155 55.1875 4.10214 54.9251 4.24332C54.6628 4.38451 54.4574 4.57938 54.3089 4.82794C54.1605 5.07649 54.0862 5.3641 54.0862 5.69077V10.1855H52.3095ZM60.377 10.325C59.7763 10.325 59.2375 10.1702 58.7605 9.86057C58.2836 9.55094 57.9084 9.10237 57.6349 8.51484C57.3615 7.92732 57.2248 7.21565 57.2248 6.37984C57.2248 5.53055 57.3647 4.81328 57.6445 4.22803C57.9243 3.64278 58.3023 3.19968 58.7784 2.89871C59.2546 2.59775 59.7856 2.44727 60.3715 2.44727C60.8256 2.44727 61.1972 2.52314 61.4864 2.6749C61.7756 2.82666 62.0054 3.00827 62.1758 3.21973C62.3461 3.43119 62.4748 3.62742 62.5617 3.80844H62.6377V0H64.4145V10.1855H62.6738V8.97586H62.5617C62.4715 9.15979 62.3393 9.35607 62.1652 9.56471C61.9912 9.77334 61.76 9.95221 61.4718 10.1013C61.1836 10.2504 60.8187 10.325 60.377 10.325ZM60.8593 8.86267C61.247 8.86267 61.5758 8.75799 61.8456 8.54863C62.1154 8.33926 62.3204 8.04764 62.4607 7.67376C62.601 7.29988 62.6711 6.86565 62.6711 6.37109C62.6711 5.87325 62.6017 5.44063 62.4629 5.07322C62.3241 4.7058 62.1198 4.42001 61.85 4.21585C61.5802 4.01168 61.2499 3.90959 60.8593 3.90959C60.4599 3.90959 60.1254 4.01605 59.8558 4.22897C59.5862 4.44189 59.3835 4.73351 59.2478 5.10384C59.1121 5.47417 59.0442 5.89659 59.0442 6.37109C59.0442 6.84688 59.1128 7.27285 59.25 7.64901C59.3871 8.02517 59.5913 8.32149 59.8623 8.53796C60.1334 8.75444 60.4657 8.86267 60.8593 8.86267Z" fill="#334155"/>
</svg>
