<svg width="470" height="80" viewBox="0 0 470 80" fill="none" xmlns="http://www.w3.org/2000/svg">
<rect x="12" y="2" width="446" height="56" rx="8" fill="#FF8C61"/>
<g filter="url(#filter0_dd_205_2390)">
<rect x="12" y="2" width="446" height="56" rx="8" fill="white" fill-opacity="0.01" shape-rendering="crispEdges"/>
</g>
<path d="M168.157 36.1562C167.126 36.1562 166.203 35.9217 165.388 35.4526C164.572 34.9835 163.929 34.3037 163.459 33.4133C162.988 32.5229 162.753 31.4476 162.753 30.1875C162.753 28.9194 162.99 27.8394 163.465 26.9476C163.94 26.0558 164.586 25.3754 165.402 24.9065C166.219 24.4376 167.137 24.2031 168.157 24.2031C168.819 24.2031 169.436 24.2954 170.007 24.4799C170.578 24.6645 171.085 24.934 171.527 25.2887C171.969 25.6433 172.331 26.0767 172.614 26.5888C172.897 27.101 173.082 27.6847 173.169 28.3399H170.757C170.701 28.0204 170.6 27.7363 170.453 27.4877C170.306 27.2391 170.121 27.0274 169.898 26.8529C169.675 26.6783 169.421 26.5459 169.135 26.4558C168.85 26.3657 168.54 26.3207 168.208 26.3207C167.603 26.3207 167.072 26.4717 166.615 26.7739C166.158 27.076 165.803 27.5147 165.551 28.0899C165.299 28.6651 165.173 29.3643 165.173 30.1875C165.173 31.0252 165.301 31.7309 165.557 32.3047C165.813 32.8785 166.169 33.311 166.623 33.6021C167.077 33.8932 167.603 34.0387 168.2 34.0387C168.532 34.0387 168.84 33.993 169.125 33.9017C169.409 33.8104 169.664 33.6781 169.89 33.5047C170.115 33.3313 170.303 33.1197 170.453 32.8699C170.603 32.62 170.707 32.3366 170.765 32.0195H173.178C173.112 32.5598 172.952 33.077 172.696 33.5711C172.439 34.0651 172.097 34.507 171.667 34.8965C171.238 35.2861 170.729 35.5935 170.141 35.8186C169.553 36.0437 168.892 36.1562 168.157 36.1562ZM174.853 36V27.2656H177.124V28.7866H177.218C177.376 28.2482 177.644 27.8407 178.022 27.5641C178.399 27.2874 178.833 27.1491 179.323 27.1491C179.444 27.1491 179.574 27.1559 179.713 27.1695C179.852 27.1832 179.974 27.2025 180.08 27.2273V29.3207C179.977 29.2849 179.825 29.256 179.626 29.2337C179.427 29.2115 179.241 29.2004 179.068 29.2004C178.71 29.2004 178.389 29.2778 178.105 29.4325C177.821 29.5873 177.598 29.8016 177.437 30.0754C177.276 30.3491 177.196 30.667 177.196 31.0291V36H174.853ZM184.929 36.1706C184.037 36.1706 183.268 35.988 182.623 35.6229C181.977 35.2577 181.481 34.7392 181.135 34.0673C180.789 33.3955 180.615 32.599 180.615 31.6778C180.615 30.7792 180.787 29.9908 181.131 29.3127C181.475 28.6347 181.962 28.1057 182.591 27.7259C183.22 27.3461 183.96 27.1562 184.811 27.1562C185.381 27.1562 185.914 27.2471 186.41 27.4289C186.905 27.6107 187.34 27.8848 187.714 28.2513C188.089 28.6177 188.381 29.0782 188.591 29.6327C188.802 30.1871 188.907 30.8385 188.907 31.5867V32.2444H181.577V30.77H187.765L186.67 31.1653C186.67 30.7105 186.6 30.3153 186.462 29.9797C186.323 29.6441 186.117 29.3837 185.844 29.1986C185.572 29.0135 185.233 28.921 184.828 28.921C184.423 28.921 184.079 29.0147 183.797 29.2022C183.515 29.3897 183.3 29.6441 183.153 29.9653C183.005 30.2866 182.932 30.6518 182.932 31.0611V32.0991C182.932 32.6043 183.016 33.0287 183.185 33.3723C183.355 33.716 183.592 33.9741 183.899 34.1468C184.206 34.3195 184.561 34.4059 184.966 34.4059C185.239 34.4059 185.488 34.367 185.711 34.2891C185.935 34.2112 186.127 34.096 186.288 33.9433C186.449 33.7905 186.572 33.6023 186.656 33.3786L188.775 33.7705C188.633 34.253 188.389 34.6742 188.041 35.0343C187.692 35.3943 187.256 35.6737 186.732 35.8725C186.207 36.0712 185.606 36.1706 184.929 36.1706ZM193.107 36.1694C192.552 36.1694 192.055 36.0715 191.616 35.8759C191.176 35.6802 190.831 35.3889 190.579 35.0019C190.328 34.6149 190.202 34.1335 190.202 33.5578C190.202 33.0691 190.291 32.6614 190.469 32.3348C190.648 32.0083 190.891 31.7453 191.201 31.5459C191.511 31.3466 191.863 31.1949 192.257 31.0909C192.651 30.9868 193.063 30.9144 193.495 30.8736C193.999 30.8228 194.406 30.7749 194.716 30.73C195.025 30.6851 195.253 30.6149 195.398 30.5193C195.542 30.4237 195.615 30.2818 195.615 30.0936V30.0552C195.615 29.8059 195.562 29.595 195.456 29.4226C195.35 29.2502 195.195 29.118 194.992 29.0262C194.789 28.9344 194.539 28.8885 194.242 28.8885C193.944 28.8885 193.683 28.9339 193.459 29.0247C193.235 29.1155 193.052 29.2368 192.909 29.3885C192.767 29.5403 192.664 29.7106 192.601 29.8997L190.452 29.543C190.6 29.0342 190.849 28.6027 191.198 28.2484C191.547 27.8941 191.981 27.6234 192.5 27.4366C193.019 27.2497 193.602 27.1562 194.25 27.1562C194.719 27.1562 195.174 27.2118 195.617 27.3229C196.06 27.434 196.457 27.6078 196.809 27.8442C197.161 28.0807 197.44 28.3865 197.647 28.7616C197.854 29.1367 197.958 29.5894 197.958 30.1198V36H195.735V34.7872H195.658C195.517 35.0578 195.33 35.297 195.095 35.5047C194.861 35.7124 194.579 35.8751 194.25 35.9928C193.921 36.1105 193.54 36.1694 193.107 36.1694ZM193.767 34.5264C194.136 34.5264 194.46 34.4529 194.739 34.3061C195.018 34.1592 195.237 33.961 195.395 33.7114C195.553 33.4618 195.632 33.1839 195.632 32.8775V31.9324C195.56 31.9804 195.455 32.0254 195.316 32.0674C195.176 32.1095 195.021 32.1471 194.85 32.1803C194.678 32.2136 194.509 32.2424 194.342 32.2668C194.175 32.2912 194.026 32.3127 193.897 32.3311C193.609 32.37 193.356 32.436 193.137 32.5291C192.919 32.6222 192.749 32.7467 192.628 32.9027C192.508 33.0586 192.447 33.254 192.447 33.4889C192.447 33.715 192.504 33.9051 192.618 34.059C192.732 34.2129 192.888 34.3292 193.086 34.4081C193.284 34.4869 193.511 34.5264 193.767 34.5264ZM204.295 27.2656V29.051H199.113V27.2656H204.295ZM200.316 25.1875H202.659V33.4433C202.659 33.7214 202.72 33.9264 202.844 34.0582C202.968 34.1901 203.171 34.2561 203.454 34.2561C203.545 34.2561 203.671 34.2449 203.831 34.2227C203.992 34.2005 204.114 34.1789 204.198 34.1581L204.533 35.9152C204.272 35.9926 204.013 36.0464 203.756 36.0766C203.5 36.1069 203.254 36.122 203.018 36.122C202.142 36.122 201.472 35.9095 201.01 35.4843C200.547 35.0591 200.316 34.4476 200.316 33.6497V25.1875ZM209.608 36.1706C208.717 36.1706 207.948 35.988 207.302 35.6229C206.657 35.2577 206.161 34.7392 205.814 34.0673C205.468 33.3955 205.295 32.599 205.295 31.6778C205.295 30.7792 205.467 29.9908 205.811 29.3127C206.155 28.6347 206.642 28.1057 207.271 27.7259C207.9 27.3461 208.64 27.1562 209.491 27.1562C210.061 27.1562 210.594 27.2471 211.09 27.4289C211.585 27.6107 212.02 27.8848 212.394 28.2513C212.768 28.6177 213.061 29.0782 213.271 29.6327C213.481 30.1871 213.586 30.8385 213.586 31.5867V32.2444H206.257V30.77H212.445L211.35 31.1653C211.35 30.7105 211.28 30.3153 211.141 29.9797C211.002 29.6441 210.797 29.3837 210.524 29.1986C210.251 29.0135 209.913 28.921 209.507 28.921C209.102 28.921 208.759 29.0147 208.477 29.2022C208.194 29.3897 207.98 29.6441 207.832 29.9653C207.685 30.2866 207.611 30.6518 207.611 31.0611V32.0991C207.611 32.6043 207.696 33.0287 207.865 33.3723C208.034 33.716 208.272 33.9741 208.579 34.1468C208.885 34.3195 209.241 34.4059 209.646 34.4059C209.919 34.4059 210.168 34.367 210.391 34.2891C210.615 34.2112 210.807 34.096 210.968 33.9433C211.129 33.7905 211.251 33.6023 211.335 33.3786L213.454 33.7705C213.313 34.253 213.069 34.6742 212.72 35.0343C212.372 35.3943 211.936 35.6737 211.411 35.8725C210.887 36.0712 210.286 36.1706 209.608 36.1706ZM218.361 36L222.343 24.3594H225.462L229.545 36H226.894L225.029 30.3848C224.802 29.6596 224.573 28.8654 224.343 28.0024C224.113 27.1393 223.871 26.199 223.615 25.1813H224.132C223.885 26.2038 223.653 27.1489 223.438 28.0168C223.222 28.8846 223.007 29.6739 222.793 30.3848L220.994 36H218.361ZM220.849 33.2985V31.4278H227.058V33.2985H220.849ZM234.461 36.1706C233.585 36.1706 232.828 35.9824 232.189 35.606C231.551 35.2296 231.059 34.7036 230.713 34.0279C230.367 33.3522 230.194 32.5665 230.194 31.6706C230.194 30.7676 230.367 29.9777 230.713 29.3008C231.059 28.6239 231.551 28.0973 232.189 27.7209C232.828 27.3445 233.585 27.1562 234.461 27.1562C234.982 27.1562 235.46 27.2236 235.897 27.3583C236.334 27.493 236.721 27.6857 237.059 27.9364C237.397 28.1871 237.676 28.4918 237.894 28.8503C238.112 29.2089 238.263 29.612 238.346 30.0597L236.168 30.4678C236.119 30.2411 236.046 30.0375 235.948 29.857C235.85 29.6765 235.731 29.5222 235.59 29.394C235.448 29.2658 235.285 29.1682 235.101 29.1011C234.916 29.0341 234.711 29.0005 234.487 29.0005C234.069 29.0005 233.719 29.1128 233.437 29.3373C233.155 29.5618 232.942 29.8737 232.797 30.2728C232.653 30.672 232.581 31.1351 232.581 31.6622C232.581 32.1817 232.653 32.6418 232.797 33.0426C232.942 33.4433 233.155 33.7575 233.437 33.985C233.719 34.2126 234.069 34.3264 234.487 34.3264C234.714 34.3264 234.921 34.2915 235.108 34.2218C235.295 34.1521 235.461 34.0513 235.606 33.9193C235.751 33.7874 235.873 33.6266 235.97 33.4371C236.068 33.2477 236.14 33.0357 236.186 32.8014L238.361 33.2053C238.28 33.6662 238.13 34.0786 237.91 34.4423C237.691 34.8061 237.412 35.1171 237.074 35.3755C236.736 35.6338 236.347 35.8309 235.906 35.9668C235.466 36.1027 234.984 36.1706 234.461 36.1706ZM243.875 36.1706C242.999 36.1706 242.242 35.9824 241.603 35.606C240.965 35.2296 240.473 34.7036 240.127 34.0279C239.781 33.3522 239.608 32.5665 239.608 31.6706C239.608 30.7676 239.781 29.9777 240.127 29.3008C240.473 28.6239 240.965 28.0973 241.603 27.7209C242.242 27.3445 242.999 27.1562 243.875 27.1562C244.396 27.1562 244.874 27.2236 245.311 27.3583C245.748 27.493 246.135 27.6857 246.473 27.9364C246.811 28.1871 247.09 28.4918 247.308 28.8503C247.526 29.2089 247.677 29.612 247.76 30.0597L245.582 30.4678C245.533 30.2411 245.46 30.0375 245.362 29.857C245.264 29.6765 245.145 29.5222 245.004 29.394C244.862 29.2658 244.699 29.1682 244.515 29.1011C244.33 29.0341 244.125 29.0005 243.901 29.0005C243.483 29.0005 243.133 29.1128 242.851 29.3373C242.569 29.5618 242.356 29.8737 242.211 30.2728C242.067 30.672 241.995 31.1351 241.995 31.6622C241.995 32.1817 242.067 32.6418 242.211 33.0426C242.356 33.4433 242.569 33.7575 242.851 33.985C243.133 34.2126 243.483 34.3264 243.901 34.3264C244.128 34.3264 244.335 34.2915 244.522 34.2218C244.709 34.1521 244.875 34.0513 245.02 33.9193C245.165 33.7874 245.287 33.6266 245.385 33.4371C245.482 33.2477 245.554 33.0357 245.6 32.8014L247.775 33.2053C247.694 33.6662 247.544 34.0786 247.324 34.4423C247.105 34.8061 246.826 35.1171 246.488 35.3755C246.15 35.6338 245.761 35.8309 245.32 35.9668C244.88 36.1027 244.398 36.1706 243.875 36.1706ZM253.294 36.1706C252.418 36.1706 251.66 35.9824 251.02 35.606C250.38 35.2296 249.887 34.7036 249.541 34.0279C249.195 33.3522 249.022 32.5665 249.022 31.6706C249.022 30.7676 249.195 29.9777 249.541 29.3008C249.887 28.6239 250.38 28.0973 251.02 27.7209C251.66 27.3445 252.418 27.1562 253.294 27.1562C254.172 27.1562 254.93 27.3445 255.569 27.7209C256.207 28.0973 256.699 28.6239 257.045 29.3008C257.391 29.9777 257.564 30.7676 257.564 31.6706C257.564 32.5665 257.391 33.3522 257.045 34.0279C256.699 34.7036 256.207 35.2296 255.569 35.606C254.93 35.9824 254.172 36.1706 253.294 36.1706ZM253.294 34.3264C253.711 34.3264 254.059 34.2105 254.34 33.9787C254.62 33.7469 254.83 33.43 254.97 33.0278C255.11 32.6256 255.18 32.1704 255.18 31.6622C255.18 31.1488 255.11 30.6919 254.97 30.2915C254.83 29.8911 254.62 29.5759 254.34 29.3457C254.059 29.1156 253.711 29.0005 253.294 29.0005C252.876 29.0005 252.528 29.1156 252.248 29.3457C251.969 29.5759 251.759 29.8905 251.619 30.2897C251.479 30.6889 251.409 31.1464 251.409 31.6622C251.409 32.1704 251.479 32.6256 251.619 33.0278C251.759 33.43 251.969 33.7469 252.248 33.9787C252.528 34.2105 252.876 34.3264 253.294 34.3264ZM262.204 36.1094C261.602 36.1094 261.074 35.9777 260.622 35.7145C260.17 35.4512 259.819 35.0733 259.57 34.5809C259.321 34.0885 259.197 33.5019 259.197 32.8209V27.2656H261.54V32.4126C261.54 32.9551 261.68 33.3806 261.961 33.6891C262.242 33.9976 262.63 34.1518 263.124 34.1518C263.456 34.1518 263.749 34.0797 264.003 33.9353C264.256 33.791 264.455 33.5818 264.6 33.3075C264.745 33.0333 264.817 32.7051 264.817 32.3228V27.2656H267.164V36H264.948L264.914 33.8195H265.051C264.82 34.5529 264.469 35.1178 264 35.5144C263.531 35.9111 262.932 36.1094 262.204 36.1094ZM271.501 30.9428V36H269.158V27.2656H271.37L271.408 29.4461H271.267C271.496 28.7176 271.844 28.1538 272.311 27.7548C272.778 27.3558 273.38 27.1562 274.117 27.1562C274.723 27.1562 275.25 27.2879 275.7 27.5512C276.15 27.8145 276.499 28.1917 276.748 28.6829C276.997 29.1741 277.121 29.7614 277.121 30.4447V36H274.778V30.853C274.778 30.3105 274.638 29.885 274.358 29.5765C274.079 29.268 273.692 29.1138 273.198 29.1138C272.868 29.1138 272.575 29.186 272.319 29.3303C272.063 29.4746 271.863 29.6826 271.718 29.9542C271.573 30.2258 271.501 30.5553 271.501 30.9428ZM283.459 27.2656V29.051H278.277V27.2656H283.459ZM279.48 25.1875H281.823V33.4433C281.823 33.7214 281.885 33.9264 282.008 34.0582C282.132 34.1901 282.335 34.2561 282.618 34.2561C282.709 34.2561 282.835 34.2449 282.995 34.2227C283.156 34.2005 283.278 34.1789 283.362 34.1581L283.697 35.9152C283.436 35.9926 283.177 36.0464 282.921 36.0766C282.664 36.1069 282.418 36.122 282.182 36.122C281.306 36.122 280.636 35.9095 280.174 35.4843C279.711 35.0591 279.48 34.4476 279.48 33.6497V25.1875Z" fill="white"/>
<path d="M304.16 31H291.985V29H304.16L298.56 23.4L299.985 22L307.985 30L299.985 38L298.56 36.6L304.16 31Z" fill="white"/>
<defs>
<filter id="filter0_dd_205_2390" x="0" y="0" width="470" height="80" filterUnits="userSpaceOnUse" color-interpolation-filters="sRGB">
<feFlood flood-opacity="0" result="BackgroundImageFix"/>
<feColorMatrix in="SourceAlpha" type="matrix" values="0 0 0 0 0 0 0 0 0 0 0 0 0 0 0 0 0 0 127 0" result="hardAlpha"/>
<feMorphology radius="4" operator="erode" in="SourceAlpha" result="effect1_dropShadow_205_2390"/>
<feOffset dy="4"/>
<feGaussianBlur stdDeviation="3"/>
<feComposite in2="hardAlpha" operator="out"/>
<feColorMatrix type="matrix" values="0 0 0 0 1 0 0 0 0 0.54902 0 0 0 0 0.380392 0 0 0 0.2 0"/>
<feBlend mode="normal" in2="BackgroundImageFix" result="effect1_dropShadow_205_2390"/>
<feColorMatrix in="SourceAlpha" type="matrix" values="0 0 0 0 0 0 0 0 0 0 0 0 0 0 0 0 0 0 127 0" result="hardAlpha"/>
<feMorphology radius="3" operator="erode" in="SourceAlpha" result="effect2_dropShadow_205_2390"/>
<feOffset dy="10"/>
<feGaussianBlur stdDeviation="7.5"/>
<feComposite in2="hardAlpha" operator="out"/>
<feColorMatrix type="matrix" values="0 0 0 0 1 0 0 0 0 0.54902 0 0 0 0 0.380392 0 0 0 0.2 0"/>
<feBlend mode="normal" in2="effect1_dropShadow_205_2390" result="effect2_dropShadow_205_2390"/>
<feBlend mode="normal" in="SourceGraphic" in2="effect2_dropShadow_205_2390" result="shape"/>
</filter>
</defs>
</svg>
