<svg width="446" height="68" viewBox="0 0 446 68" fill="none" xmlns="http://www.w3.org/2000/svg">
<path d="M120.171 29.293C118.237 29.293 116.506 28.8532 114.978 27.9736C113.449 27.094 112.244 25.8194 111.361 24.1499C110.479 22.4804 110.038 20.4643 110.038 18.1016C110.038 15.7238 110.483 13.6989 111.373 12.0267C112.263 10.3545 113.474 9.07885 115.005 8.19966C116.537 7.32046 118.258 6.88086 120.171 6.88086C121.412 6.88086 122.568 7.05386 123.639 7.39986C124.71 7.74585 125.66 8.25133 126.488 8.91627C127.317 9.58121 127.997 10.3938 128.527 11.3541C129.058 12.3143 129.405 13.4087 129.568 14.6372H125.045C124.941 14.0382 124.751 13.5056 124.476 13.0394C124.2 12.5732 123.853 12.1765 123.435 11.8491C123.017 11.5218 122.54 11.2736 122.004 11.1047C121.469 10.9357 120.889 10.8513 120.266 10.8513C119.132 10.8513 118.136 11.1345 117.279 11.701C116.422 12.2675 115.757 13.09 115.284 14.1685C114.811 15.247 114.575 16.558 114.575 18.1016C114.575 19.6722 114.815 20.9955 115.296 22.0714C115.776 23.1472 116.442 23.9581 117.294 24.5039C118.145 25.0497 119.131 25.3226 120.25 25.3226C120.874 25.3226 121.452 25.237 121.985 25.0658C122.518 24.8946 122.996 24.6464 123.419 24.3213C123.842 23.9963 124.195 23.5995 124.476 23.131C124.757 22.6626 124.952 22.1311 125.06 21.5366H129.584C129.462 22.5497 129.16 23.5194 128.68 24.4458C128.2 25.3721 127.557 26.2005 126.752 26.931C125.947 27.6615 124.993 28.2378 123.891 28.6599C122.788 29.0819 121.548 29.293 120.171 29.293ZM132.726 29V12.623H136.983V15.4748H137.159C137.457 14.4654 137.959 13.7014 138.667 13.1826C139.375 12.6639 140.188 12.4045 141.106 12.4045C141.333 12.4045 141.577 12.4173 141.838 12.4429C142.099 12.4685 142.328 12.5046 142.527 12.5513V16.4763C142.332 16.4093 142.049 16.3549 141.676 16.3132C141.302 16.2715 140.953 16.2507 140.628 16.2507C139.958 16.2507 139.356 16.3958 138.823 16.686C138.29 16.9763 137.872 17.378 137.571 17.8913C137.269 18.4046 137.119 19.0007 137.119 19.6796V29H132.726ZM151.617 29.3199C149.945 29.3199 148.504 28.9776 147.293 28.2929C146.083 27.6083 145.153 26.636 144.504 25.3763C143.854 24.1165 143.53 22.623 143.53 20.8959C143.53 19.2109 143.852 17.7328 144.497 16.4614C145.142 15.19 146.055 14.1982 147.234 13.4861C148.414 12.774 149.801 12.418 151.396 12.418C152.466 12.418 153.465 12.5884 154.394 12.9292C155.323 13.27 156.139 13.784 156.841 14.4711C157.542 15.1582 158.09 16.0216 158.485 17.0613C158.879 18.1009 159.076 19.3222 159.076 20.7251V21.9582H145.333V19.1937H156.935L154.882 19.9349C154.882 19.0822 154.752 18.3412 154.491 17.7119C154.231 17.0827 153.845 16.5945 153.334 16.2474C152.823 15.9004 152.188 15.7268 151.428 15.7268C150.668 15.7268 150.024 15.9026 149.495 16.2542C148.966 16.6057 148.563 17.0827 148.287 17.685C148.011 18.2873 147.873 18.9722 147.873 19.7395V21.6858C147.873 22.633 148.031 23.4288 148.349 24.0731C148.666 24.7174 149.112 25.2015 149.687 25.5253C150.261 25.8492 150.928 26.0111 151.687 26.0111C152.2 26.0111 152.666 25.9381 153.085 25.7921C153.504 25.6461 153.865 25.4299 154.166 25.1436C154.468 24.8573 154.698 24.5044 154.855 24.0848L158.828 24.8196C158.564 25.7243 158.105 26.5142 157.452 27.1893C156.799 27.8644 155.981 28.3883 154.998 28.7609C154.015 29.1336 152.888 29.3199 151.617 29.3199ZM166.951 29.3176C165.911 29.3176 164.979 29.1341 164.155 28.7672C163.331 28.4003 162.684 27.8541 162.212 27.1285C161.74 26.4029 161.505 25.5004 161.505 24.4209C161.505 23.5045 161.672 22.7401 162.006 22.1278C162.34 21.5155 162.797 21.0225 163.378 20.6486C163.959 20.2748 164.618 19.9904 165.357 19.7954C166.096 19.6003 166.87 19.4645 167.679 19.388C168.624 19.2927 169.387 19.2029 169.968 19.1187C170.549 19.0346 170.975 18.9029 171.246 18.7237C171.518 18.5445 171.654 18.2784 171.654 17.9255V17.8534C171.654 17.386 171.554 16.9907 171.356 16.6674C171.157 16.344 170.867 16.0963 170.486 15.9241C170.105 15.752 169.636 15.6659 169.08 15.6659C168.521 15.6659 168.031 15.751 167.611 15.9213C167.192 16.0917 166.848 16.319 166.581 16.6035C166.313 16.888 166.12 17.2075 166.003 17.5619L161.973 16.8931C162.251 15.9392 162.717 15.1301 163.372 14.4657C164.027 13.8013 164.841 13.294 165.813 12.9436C166.786 12.5932 167.88 12.418 169.094 12.418C169.973 12.418 170.828 12.5221 171.658 12.7304C172.488 12.9387 173.233 13.2646 173.893 13.7079C174.553 14.1513 175.077 14.7246 175.465 15.428C175.853 16.1313 176.047 16.9802 176.047 17.9747V29H171.88V26.726H171.735C171.471 27.2334 171.119 27.6818 170.68 28.0713C170.241 28.4607 169.712 28.7658 169.095 28.9865C168.477 29.2072 167.763 29.3176 166.951 29.3176ZM168.188 26.237C168.88 26.237 169.488 26.0993 170.011 25.8239C170.535 25.5485 170.945 25.1768 171.241 24.7089C171.537 24.2409 171.685 23.7197 171.685 23.1453V21.3732C171.551 21.4632 171.354 21.5476 171.093 21.6265C170.832 21.7053 170.54 21.7758 170.219 21.8381C169.898 21.9004 169.58 21.9545 169.267 22.0003C168.954 22.0461 168.675 22.0863 168.432 22.1208C167.892 22.1937 167.418 22.3174 167.008 22.492C166.599 22.6666 166.281 22.9001 166.054 23.1925C165.828 23.4849 165.714 23.8513 165.714 24.2917C165.714 24.7157 165.821 25.072 166.035 25.3606C166.249 25.6491 166.541 25.8673 166.912 26.0152C167.283 26.163 167.708 26.237 168.188 26.237ZM187.929 12.623V15.9706H178.213V12.623H187.929ZM180.468 8.72656H184.861V24.2061C184.861 24.7276 184.977 25.1119 185.209 25.3592C185.441 25.6065 185.822 25.7301 186.351 25.7301C186.523 25.7301 186.759 25.7092 187.06 25.6675C187.361 25.6258 187.59 25.5855 187.747 25.5464L188.376 28.8409C187.886 28.986 187.4 29.087 186.919 29.1437C186.438 29.2004 185.977 29.2288 185.535 29.2288C183.892 29.2288 182.637 28.8302 181.769 28.0331C180.902 27.2359 180.468 26.0892 180.468 24.5931V8.72656ZM197.891 29.3199C196.22 29.3199 194.778 28.9776 193.568 28.2929C192.357 27.6083 191.427 26.636 190.778 25.3763C190.129 24.1165 189.804 22.623 189.804 20.8959C189.804 19.2109 190.127 17.7328 190.772 16.4614C191.417 15.19 192.329 14.1982 193.509 13.4861C194.688 12.774 196.076 12.418 197.671 12.418C198.74 12.418 199.74 12.5884 200.669 12.9292C201.598 13.27 202.413 13.784 203.115 14.4711C203.817 15.1582 204.365 16.0216 204.759 17.0613C205.153 18.1009 205.35 19.3222 205.35 20.7251V21.9582H191.607V19.1937H203.21L201.156 19.9349C201.156 19.0822 201.026 18.3412 200.766 17.7119C200.505 17.0827 200.12 16.5945 199.608 16.2474C199.097 15.9004 198.462 15.7268 197.702 15.7268C196.943 15.7268 196.299 15.9026 195.769 16.2542C195.24 16.6057 194.838 17.0827 194.562 17.685C194.285 18.2873 194.147 18.9722 194.147 19.7395V21.6858C194.147 22.633 194.306 23.4288 194.623 24.0731C194.94 24.7174 195.386 25.2015 195.961 25.5253C196.536 25.8492 197.203 26.0111 197.961 26.0111C198.474 26.0111 198.94 25.9381 199.359 25.7921C199.779 25.6461 200.139 25.4299 200.441 25.1436C200.743 24.8573 200.972 24.5044 201.13 24.0848L205.103 24.8196C204.838 25.7243 204.379 26.5142 203.726 27.1893C203.074 27.8644 202.255 28.3883 201.272 28.7609C200.289 29.1336 199.162 29.3199 197.891 29.3199ZM214.303 29L221.769 7.17383H227.618L235.273 29H230.303L226.805 18.4715C226.38 17.1117 225.951 15.6227 225.52 14.0045C225.088 12.3863 224.633 10.6231 224.154 8.71486H225.124C224.66 10.6321 224.226 12.4042 223.822 14.0314C223.418 15.6586 223.015 17.1386 222.613 18.4715L219.24 29H214.303ZM218.968 23.9346V20.4271H230.609V23.9346H218.968ZM244.491 29.3199C242.848 29.3199 241.428 28.967 240.231 28.2613C239.034 27.5555 238.111 26.5692 237.462 25.3023C236.813 24.0354 236.489 22.5621 236.489 20.8824C236.489 19.1893 236.813 17.7081 237.462 16.439C238.111 15.1698 239.034 14.1824 240.231 13.4766C241.428 12.7708 242.848 12.418 244.491 12.418C245.466 12.418 246.364 12.5442 247.183 12.7968C248.002 13.0493 248.728 13.4107 249.362 13.8808C249.996 14.3509 250.518 14.9221 250.927 15.5944C251.336 16.2667 251.619 17.0225 251.775 17.862L247.69 18.6272C247.6 18.202 247.462 17.8202 247.279 17.4819C247.096 17.1435 246.871 16.8541 246.606 16.6138C246.341 16.3735 246.036 16.1904 245.689 16.0646C245.343 15.9388 244.959 15.876 244.538 15.876C243.756 15.876 243.1 16.0865 242.571 16.5074C242.042 16.9284 241.642 17.5131 241.371 18.2616C241.101 19.01 240.965 19.8783 240.965 20.8666C240.965 21.8406 241.101 22.7033 241.371 23.4548C241.642 24.2063 242.042 24.7953 242.571 25.222C243.1 25.6486 243.756 25.8619 244.538 25.8619C244.964 25.8619 245.352 25.7966 245.703 25.6659C246.054 25.5353 246.365 25.3462 246.637 25.0988C246.909 24.8513 247.137 24.5499 247.321 24.1947C247.504 23.8394 247.639 23.442 247.724 23.0026L251.802 23.7599C251.651 24.6242 251.369 25.3973 250.957 26.0794C250.546 26.7614 250.023 27.3446 249.39 27.829C248.756 28.3134 248.027 28.6829 247.2 28.9377C246.374 29.1925 245.471 29.3199 244.491 29.3199ZM262.142 29.3199C260.499 29.3199 259.08 28.967 257.882 28.2613C256.685 27.5555 255.762 26.5692 255.113 25.3023C254.465 24.0354 254.14 22.5621 254.14 20.8824C254.14 19.1893 254.465 17.7081 255.113 16.439C255.762 15.1698 256.685 14.1824 257.882 13.4766C259.08 12.7708 260.499 12.418 262.142 12.418C263.118 12.418 264.015 12.5442 264.834 12.7968C265.653 13.0493 266.38 13.4107 267.014 13.8808C267.647 14.3509 268.169 14.9221 268.578 15.5944C268.988 16.2667 269.27 17.0225 269.427 17.862L265.342 18.6272C265.251 18.202 265.114 17.8202 264.93 17.4819C264.747 17.1435 264.523 16.8541 264.258 16.6138C263.993 16.3735 263.687 16.1904 263.341 16.0646C262.994 15.9388 262.611 15.876 262.19 15.876C261.407 15.876 260.751 16.0865 260.222 16.5074C259.693 16.9284 259.293 17.5131 259.022 18.2616C258.752 19.01 258.617 19.8783 258.617 20.8666C258.617 21.8406 258.752 22.7033 259.022 23.4548C259.293 24.2063 259.693 24.7953 260.222 25.222C260.751 25.6486 261.407 25.8619 262.19 25.8619C262.615 25.8619 263.003 25.7966 263.354 25.6659C263.705 25.5353 264.017 25.3462 264.289 25.0988C264.561 24.8513 264.788 24.5499 264.972 24.1947C265.155 23.8394 265.29 23.442 265.376 23.0026L269.453 23.7599C269.302 24.6242 269.02 25.3973 268.609 26.0794C268.197 26.7614 267.675 27.3446 267.041 27.829C266.408 28.3134 265.678 28.6829 264.852 28.9377C264.025 29.1925 263.122 29.3199 262.142 29.3199ZM279.801 29.3199C278.159 29.3199 276.738 28.967 275.538 28.2613C274.338 27.5555 273.413 26.5692 272.765 25.3023C272.116 24.0354 271.792 22.5621 271.792 20.8824C271.792 19.1893 272.116 17.7081 272.765 16.439C273.413 15.1698 274.338 14.1824 275.538 13.4766C276.738 12.7708 278.159 12.418 279.801 12.418C281.448 12.418 282.87 12.7708 284.067 13.4766C285.264 14.1824 286.187 15.1698 286.836 16.439C287.484 17.7081 287.809 19.1893 287.809 20.8824C287.809 22.5621 287.484 24.0354 286.836 25.3023C286.187 26.5692 285.264 27.5555 284.067 28.2613C282.87 28.967 281.448 29.3199 279.801 29.3199ZM279.801 25.8619C280.583 25.8619 281.237 25.6446 281.763 25.2101C282.288 24.7755 282.682 24.1812 282.945 23.4271C283.208 22.673 283.339 21.8195 283.339 20.8666C283.339 19.9039 283.208 19.0472 282.945 18.2966C282.682 17.5459 282.288 16.9548 281.763 16.5233C281.237 16.0917 280.583 15.876 279.801 15.876C279.019 15.876 278.366 16.0917 277.842 16.5233C277.318 16.9548 276.925 17.5448 276.662 18.2932C276.399 19.0416 276.268 19.8994 276.268 20.8666C276.268 21.8195 276.399 22.673 276.662 23.4271C276.925 24.1812 277.318 24.7755 277.842 25.2101C278.366 25.6446 279.019 25.8619 279.801 25.8619ZM296.509 29.2051C295.379 29.2051 294.39 28.9583 293.542 28.4646C292.694 27.9709 292.037 27.2625 291.57 26.3392C291.104 25.416 290.87 24.316 290.87 23.0393V12.623H295.263V22.2737C295.263 23.2909 295.527 24.0887 296.054 24.6671C296.581 25.2455 297.307 25.5347 298.234 25.5347C298.857 25.5347 299.406 25.3994 299.881 25.1288C300.356 24.8582 300.729 24.4658 301.001 23.9516C301.273 23.4375 301.408 22.822 301.408 22.1052V12.623H305.808V29H301.653L301.59 24.9116H301.847C301.413 26.2866 300.756 27.3459 299.876 28.0896C298.996 28.8332 297.874 29.2051 296.509 29.2051ZM313.94 19.5178V29H309.547V12.623H313.695L313.765 16.7114H313.502C313.931 15.3454 314.584 14.2884 315.459 13.5402C316.334 12.792 317.463 12.418 318.846 12.418C319.981 12.418 320.97 12.6648 321.814 13.1585C322.657 13.6521 323.312 14.3594 323.778 15.2804C324.245 16.2014 324.478 17.3025 324.478 18.5838V29H320.085V19.3494C320.085 18.3322 319.823 17.5344 319.298 16.956C318.773 16.3776 318.048 16.0884 317.121 16.0884C316.504 16.0884 315.955 16.2237 315.475 16.4943C314.995 16.7649 314.619 17.1548 314.347 17.6641C314.076 18.1733 313.94 18.7913 313.94 19.5178ZM336.362 12.623V15.9706H326.645V12.623H336.362ZM328.901 8.72656H333.293V24.2061C333.293 24.7276 333.409 25.1119 333.641 25.3592C333.873 25.6065 334.254 25.7301 334.784 25.7301C334.955 25.7301 335.191 25.7092 335.492 25.6675C335.793 25.6258 336.022 25.5855 336.179 25.5464L336.808 28.8409C336.319 28.986 335.833 29.087 335.352 29.1437C334.871 29.2004 334.409 29.2288 333.967 29.2288C332.324 29.2288 331.069 28.8302 330.202 28.0331C329.334 27.2359 328.901 26.0892 328.901 24.5931V8.72656Z" fill="#0F172A"/>
<path d="M46.7731 62.1562C45.747 62.1562 44.9111 61.8542 44.2653 61.25C43.6194 60.6458 43.2965 59.7865 43.2965 58.6719V58.0469H44.7809V58.6719C44.7809 59.3802 44.9632 59.9206 45.3278 60.293C45.6924 60.6654 46.1741 60.8516 46.7731 60.8516C47.3668 60.8516 47.846 60.6654 48.2106 60.293C48.5752 59.9206 48.7575 59.3802 48.7575 58.6719V50.3594H50.2418V58.6719C50.2418 59.7865 49.9202 60.6458 49.277 61.25C48.6338 61.8542 47.7991 62.1562 46.7731 62.1562ZM56.4371 62.1875C55.6455 62.1875 54.9515 62 54.3551 61.625C53.7588 61.25 53.2939 60.724 52.9606 60.0469C52.6273 59.3698 52.4606 58.5833 52.4606 57.6875C52.4606 56.776 52.6273 55.9805 52.9606 55.3008C53.2939 54.6211 53.7588 54.0938 54.3551 53.7188C54.9515 53.3438 55.6455 53.1562 56.4371 53.1562C57.234 53.1562 57.9319 53.3438 58.5309 53.7188C59.1299 54.0938 59.596 54.6211 59.9293 55.3008C60.2627 55.9805 60.4293 56.776 60.4293 57.6875C60.4293 58.5833 60.2627 59.3698 59.9293 60.0469C59.596 60.724 59.1299 61.25 58.5309 61.625C57.9319 62 57.234 62.1875 56.4371 62.1875ZM56.4371 60.9297C57.0257 60.9297 57.5101 60.7786 57.8903 60.4766C58.2705 60.1745 58.5517 59.7773 58.734 59.2852C58.9163 58.793 59.0075 58.2604 59.0075 57.6875C59.0075 57.1094 58.9163 56.5716 58.734 56.0742C58.5517 55.5768 58.2705 55.1758 57.8903 54.8711C57.5101 54.5664 57.0257 54.4141 56.4371 54.4141C55.8538 54.4141 55.3746 54.5664 54.9996 54.8711C54.6246 55.1758 54.346 55.5755 54.1637 56.0703C53.9814 56.5651 53.8903 57.1042 53.8903 57.6875C53.8903 58.2604 53.9814 58.793 54.1637 59.2852C54.346 59.7773 54.6246 60.1745 54.9996 60.4766C55.3746 60.7786 55.8538 60.9297 56.4371 60.9297ZM62.4762 62V53.2656H63.8825V62H62.4762ZM63.1871 51.8359C62.9215 51.8359 62.6924 51.7448 62.4996 51.5625C62.3069 51.3802 62.2106 51.1615 62.2106 50.9062C62.2106 50.6458 62.3069 50.4258 62.4996 50.2461C62.6924 50.0664 62.9215 49.9766 63.1871 49.9766C63.458 49.9766 63.6898 50.0664 63.8825 50.2461C64.0752 50.4258 64.1715 50.6458 64.1715 50.9062C64.1715 51.1615 64.0752 51.3802 63.8825 51.5625C63.6898 51.7448 63.458 51.8359 63.1871 51.8359ZM67.7575 56.7656V62H66.3512V53.2656H67.7028L67.7106 55.3828H67.5153C67.7809 54.5755 68.1598 54.0026 68.652 53.6641C69.1442 53.3255 69.721 53.1562 70.3825 53.1562C70.971 53.1562 71.4866 53.2773 71.9293 53.5195C72.372 53.7617 72.7171 54.1263 72.9645 54.6133C73.2119 55.1003 73.3356 55.7135 73.3356 56.4531V62H71.9293V56.5703C71.9293 55.8984 71.7536 55.3724 71.402 54.9922C71.0504 54.612 70.57 54.4219 69.9606 54.4219C69.5439 54.4219 69.1689 54.513 68.8356 54.6953C68.5023 54.8776 68.2392 55.1432 68.0465 55.4922C67.8538 55.8411 67.7575 56.2656 67.7575 56.7656ZM80.4762 62V50.3594H84.4606C85.3668 50.3594 86.1129 50.5143 86.6989 50.8242C87.2848 51.1341 87.7197 51.5599 88.0036 52.1016C88.2874 52.6432 88.4293 53.2604 88.4293 53.9531C88.4293 54.6458 88.2874 55.2578 88.0036 55.7891C87.7197 56.3203 87.2861 56.7357 86.7028 57.0352C86.1194 57.3346 85.3746 57.4844 84.4684 57.4844H81.3043V56.1641H84.3981C85.0127 56.1641 85.5062 56.0742 85.8786 55.8945C86.251 55.7148 86.5231 55.4596 86.695 55.1289C86.8668 54.7982 86.9528 54.4062 86.9528 53.9531C86.9528 53.4896 86.8668 53.0872 86.695 52.7461C86.5231 52.4049 86.2496 52.1393 85.8746 51.9492C85.4996 51.7591 85.0023 51.6641 84.3825 51.6641H81.9606V62H80.4762ZM87.1637 62L84.3512 56.7578H86.0231L88.8825 62H87.1637ZM94.0387 62.1875C93.195 62.1875 92.4671 62 91.8551 61.625C91.2431 61.25 90.7718 60.7266 90.4411 60.0547C90.1103 59.3828 89.945 58.599 89.945 57.7031C89.945 56.8073 90.1064 56.0182 90.4293 55.3359C90.7523 54.6536 91.2093 54.1198 91.8004 53.7344C92.3916 53.349 93.083 53.1562 93.8746 53.1562C94.3382 53.1562 94.7952 53.2331 95.2457 53.3867C95.6963 53.5404 96.1051 53.7878 96.4723 54.1289C96.8395 54.4701 97.1325 54.9193 97.3512 55.4766C97.57 56.0339 97.6793 56.7161 97.6793 57.5234V58.1094H90.8981V56.9219H96.9215L96.2653 57.3594C96.2653 56.7865 96.1754 56.2773 95.9957 55.832C95.8161 55.3867 95.5491 55.0378 95.195 54.7852C94.8408 54.5326 94.4007 54.4062 93.8746 54.4062C93.3486 54.4062 92.8981 54.5352 92.5231 54.793C92.1481 55.0508 91.8616 55.3867 91.6637 55.8008C91.4658 56.2148 91.3668 56.6589 91.3668 57.1328V57.9219C91.3668 58.5677 91.4788 59.1159 91.7028 59.5664C91.9267 60.0169 92.2405 60.3581 92.6442 60.5898C93.0478 60.8216 93.5153 60.9375 94.0465 60.9375C94.3903 60.9375 94.7028 60.888 94.984 60.7891C95.2653 60.6901 95.5075 60.5404 95.7106 60.3398C95.9137 60.1393 96.07 59.8906 96.1793 59.5938L97.5387 59.9688C97.4033 60.4062 97.1741 60.7917 96.8512 61.125C96.5283 61.4583 96.1286 61.7188 95.652 61.9062C95.1754 62.0938 94.6377 62.1875 94.0387 62.1875ZM101.101 56.7656V62H99.695V53.2656H101.047L101.054 55.3828H100.859C101.125 54.5755 101.504 54.0026 101.996 53.6641C102.488 53.3255 103.065 53.1562 103.726 53.1562C104.315 53.1562 104.83 53.2773 105.273 53.5195C105.716 53.7617 106.061 54.1263 106.308 54.6133C106.556 55.1003 106.679 55.7135 106.679 56.4531V62H105.273V56.5703C105.273 55.8984 105.097 55.3724 104.746 54.9922C104.394 54.612 103.914 54.4219 103.304 54.4219C102.888 54.4219 102.513 54.513 102.179 54.6953C101.846 54.8776 101.583 55.1432 101.39 55.4922C101.198 55.8411 101.101 56.2656 101.101 56.7656ZM108.773 65.1641L109.132 63.9453L109.281 63.9844C109.567 64.0573 109.828 64.0768 110.062 64.043C110.297 64.0091 110.507 63.8932 110.695 63.6953C110.882 63.4974 111.047 63.1901 111.187 62.7734L111.437 62.0469L108.101 53.2656H109.64L111.5 58.4453C111.698 58.987 111.864 59.5234 112 60.0547C112.135 60.5859 112.278 61.1016 112.429 61.6016H111.914C112.065 61.1016 112.209 60.5846 112.347 60.0508C112.485 59.5169 112.651 58.9818 112.843 58.4453L114.718 53.2656H116.25L112.414 63.3047C112.237 63.7682 112.024 64.1497 111.777 64.4492C111.53 64.7487 111.242 64.9701 110.914 65.1133C110.586 65.2565 110.216 65.3281 109.804 65.3281C109.554 65.3281 109.338 65.3099 109.156 65.2734C108.974 65.237 108.846 65.2005 108.773 65.1641ZM121.148 62.1875C120.356 62.1875 119.662 62 119.066 61.625C118.47 61.25 118.005 60.724 117.672 60.0469C117.338 59.3698 117.172 58.5833 117.172 57.6875C117.172 56.776 117.338 55.9805 117.672 55.3008C118.005 54.6211 118.47 54.0938 119.066 53.7188C119.662 53.3438 120.356 53.1562 121.148 53.1562C121.945 53.1562 122.643 53.3438 123.242 53.7188C123.841 54.0938 124.307 54.6211 124.64 55.3008C124.974 55.9805 125.14 56.776 125.14 57.6875C125.14 58.5833 124.974 59.3698 124.64 60.0469C124.307 60.724 123.841 61.25 123.242 61.625C122.643 62 121.945 62.1875 121.148 62.1875ZM121.148 60.9297C121.737 60.9297 122.221 60.7786 122.601 60.4766C122.981 60.1745 123.263 59.7773 123.445 59.2852C123.627 58.793 123.718 58.2604 123.718 57.6875C123.718 57.1094 123.627 56.5716 123.445 56.0742C123.263 55.5768 122.981 55.1758 122.601 54.8711C122.221 54.5664 121.737 54.4141 121.148 54.4141C120.565 54.4141 120.086 54.5664 119.711 54.8711C119.336 55.1758 119.057 55.5755 118.875 56.0703C118.692 56.5651 118.601 57.1042 118.601 57.6875C118.601 58.2604 118.692 58.793 118.875 59.2852C119.057 59.7773 119.336 60.1745 119.711 60.4766C120.086 60.7786 120.565 60.9297 121.148 60.9297ZM130.148 62.1094C129.56 62.1094 129.043 61.9883 128.597 61.7461C128.152 61.5039 127.806 61.138 127.558 60.6484C127.311 60.1589 127.187 59.5469 127.187 58.8125V53.2656H128.593V58.6953C128.593 59.3672 128.77 59.8932 129.125 60.2734C129.479 60.6536 129.961 60.8438 130.57 60.8438C130.987 60.8438 131.36 60.7526 131.691 60.5703C132.022 60.388 132.284 60.1211 132.476 59.7695C132.669 59.418 132.765 58.9948 132.765 58.5V53.2656H134.179V62H132.82V59.8828H133.007C132.737 60.7005 132.353 61.276 131.855 61.6094C131.358 61.9427 130.789 62.1094 130.148 62.1094ZM145.211 53.2656V54.4688H140.07V53.2656H145.211ZM141.789 62V52.1016C141.789 51.5964 141.907 51.1745 142.144 50.8359C142.381 50.4974 142.69 50.2422 143.07 50.0703C143.45 49.8984 143.851 49.8125 144.273 49.8125C144.606 49.8125 144.882 49.8398 145.101 49.8945C145.32 49.9492 145.481 50 145.586 50.0469L145.195 51.25C145.122 51.224 145.027 51.1953 144.91 51.1641C144.793 51.1328 144.635 51.1172 144.437 51.1172C144.005 51.1172 143.69 51.2279 143.492 51.4492C143.294 51.6706 143.195 51.9922 143.195 52.4141V62H141.789ZM150.156 62.1875C149.364 62.1875 148.67 62 148.074 61.625C147.478 61.25 147.013 60.724 146.679 60.0469C146.346 59.3698 146.179 58.5833 146.179 57.6875C146.179 56.776 146.346 55.9805 146.679 55.3008C147.013 54.6211 147.478 54.0938 148.074 53.7188C148.67 53.3438 149.364 53.1562 150.156 53.1562C150.953 53.1562 151.651 53.3438 152.25 53.7188C152.849 54.0938 153.315 54.6211 153.648 55.3008C153.981 55.9805 154.148 56.776 154.148 57.6875C154.148 58.5833 153.981 59.3698 153.648 60.0469C153.315 60.724 152.849 61.25 152.25 61.625C151.651 62 150.953 62.1875 150.156 62.1875ZM150.156 60.9297C150.744 60.9297 151.229 60.7786 151.609 60.4766C151.989 60.1745 152.27 59.7773 152.453 59.2852C152.635 58.793 152.726 58.2604 152.726 57.6875C152.726 57.1094 152.635 56.5716 152.453 56.0742C152.27 55.5768 151.989 55.1758 151.609 54.8711C151.229 54.5664 150.744 54.4141 150.156 54.4141C149.573 54.4141 149.093 54.5664 148.718 54.8711C148.343 55.1758 148.065 55.5755 147.882 56.0703C147.7 56.5651 147.609 57.1042 147.609 57.6875C147.609 58.2604 147.7 58.793 147.882 59.2852C148.065 59.7773 148.343 60.1745 148.718 60.4766C149.093 60.7786 149.573 60.9297 150.156 60.9297ZM156.195 62V53.2656H157.554V54.6094H157.648C157.81 54.1667 158.097 53.8112 158.511 53.543C158.925 53.2747 159.393 53.1406 159.914 53.1406C160.018 53.1406 160.142 53.1432 160.285 53.1484C160.428 53.1536 160.541 53.1589 160.625 53.1641V54.5781C160.583 54.5677 160.479 54.5521 160.312 54.5312C160.145 54.5104 159.968 54.5 159.781 54.5C159.364 54.5 158.991 54.5872 158.66 54.7617C158.329 54.9362 158.07 55.1758 157.882 55.4805C157.695 55.7852 157.601 56.1354 157.601 56.5312V62H156.195ZM166.718 65.2656V53.2656H168.078V54.6641H168.234C168.333 54.5078 168.471 54.3112 168.648 54.0742C168.825 53.8372 169.08 53.625 169.414 53.4375C169.747 53.25 170.198 53.1562 170.765 53.1562C171.494 53.1562 172.136 53.3385 172.691 53.7031C173.246 54.0677 173.681 54.5872 173.996 55.2617C174.311 55.9362 174.468 56.7344 174.468 57.6562C174.468 58.5833 174.312 59.3854 174 60.0625C173.687 60.7396 173.254 61.263 172.699 61.6328C172.144 62.0026 171.502 62.1875 170.773 62.1875C170.221 62.1875 169.776 62.0924 169.437 61.9023C169.099 61.7122 168.838 61.4961 168.656 61.2539C168.474 61.0117 168.333 60.8099 168.234 60.6484H168.125V65.2656H166.718ZM170.562 60.9297C171.109 60.9297 171.566 60.7826 171.933 60.4883C172.3 60.194 172.576 59.7982 172.761 59.3008C172.946 58.8034 173.039 58.25 173.039 57.6406C173.039 57.0365 172.948 56.4909 172.765 56.0039C172.583 55.5169 172.308 55.1302 171.941 54.8438C171.574 54.5573 171.114 54.4141 170.562 54.4141C170.026 54.4141 169.575 54.5495 169.211 54.8203C168.846 55.0911 168.571 55.4674 168.386 55.9492C168.201 56.431 168.109 56.9948 168.109 57.6406C168.109 58.2865 168.203 58.8568 168.39 59.3516C168.578 59.8464 168.855 60.2331 169.222 60.5117C169.589 60.7904 170.036 60.9297 170.562 60.9297ZM180.187 62.1875C179.343 62.1875 178.616 62 178.004 61.625C177.392 61.25 176.92 60.7266 176.589 60.0547C176.259 59.3828 176.093 58.599 176.093 57.7031C176.093 56.8073 176.255 56.0182 176.578 55.3359C176.901 54.6536 177.358 54.1198 177.949 53.7344C178.54 53.349 179.231 53.1562 180.023 53.1562C180.487 53.1562 180.944 53.2331 181.394 53.3867C181.845 53.5404 182.254 53.7878 182.621 54.1289C182.988 54.4701 183.281 54.9193 183.5 55.4766C183.718 56.0339 183.828 56.7161 183.828 57.5234V58.1094H177.047V56.9219H183.07L182.414 57.3594C182.414 56.7865 182.324 56.2773 182.144 55.832C181.964 55.3867 181.698 55.0378 181.343 54.7852C180.989 54.5326 180.549 54.4062 180.023 54.4062C179.497 54.4062 179.047 54.5352 178.672 54.793C178.297 55.0508 178.01 55.3867 177.812 55.8008C177.614 56.2148 177.515 56.6589 177.515 57.1328V57.9219C177.515 58.5677 177.627 59.1159 177.851 59.5664C178.075 60.0169 178.389 60.3581 178.793 60.5898C179.196 60.8216 179.664 60.9375 180.195 60.9375C180.539 60.9375 180.851 60.888 181.132 60.7891C181.414 60.6901 181.656 60.5404 181.859 60.3398C182.062 60.1393 182.218 59.8906 182.328 59.5938L183.687 59.9688C183.552 60.4062 183.323 60.7917 183 61.125C182.677 61.4583 182.277 61.7188 181.8 61.9062C181.324 62.0938 180.786 62.1875 180.187 62.1875ZM185.843 62V53.2656H187.203V54.6094H187.297C187.458 54.1667 187.746 53.8112 188.16 53.543C188.574 53.2747 189.041 53.1406 189.562 53.1406C189.666 53.1406 189.79 53.1432 189.933 53.1484C190.076 53.1536 190.19 53.1589 190.273 53.1641V54.5781C190.231 54.5677 190.127 54.5521 189.961 54.5312C189.794 54.5104 189.617 54.5 189.429 54.5C189.013 54.5 188.639 54.5872 188.308 54.7617C187.978 54.9362 187.718 55.1758 187.531 55.4805C187.343 55.7852 187.25 56.1354 187.25 56.5312V62H185.843ZM194.836 62.1875C194.237 62.1875 193.704 62.1003 193.238 61.9258C192.772 61.7513 192.388 61.4922 192.086 61.1484C191.784 60.8047 191.58 60.3828 191.476 59.8828L192.812 59.5625C192.937 60.0417 193.173 60.3932 193.519 60.6172C193.866 60.8411 194.299 60.9531 194.82 60.9531C195.429 60.9531 195.915 60.8229 196.277 60.5625C196.639 60.3021 196.82 59.9922 196.82 59.6328C196.82 59.3307 196.714 59.0794 196.504 58.8789C196.293 58.6784 195.971 58.5286 195.539 58.4297L194.086 58.0859C193.294 57.8984 192.705 57.6081 192.32 57.2148C191.935 56.8216 191.742 56.3177 191.742 55.7031C191.742 55.2031 191.882 54.7617 192.164 54.3789C192.445 53.9961 192.829 53.6966 193.316 53.4805C193.803 53.2643 194.356 53.1562 194.976 53.1562C195.575 53.1562 196.084 53.2461 196.504 53.4258C196.923 53.6055 197.264 53.8529 197.527 54.168C197.79 54.4831 197.987 54.8464 198.117 55.2578L196.843 55.5859C196.724 55.2734 196.524 54.9896 196.246 54.7344C195.967 54.4792 195.547 54.3516 194.984 54.3516C194.463 54.3516 194.03 54.4714 193.683 54.7109C193.337 54.9505 193.164 55.2526 193.164 55.6172C193.164 55.9401 193.281 56.1992 193.515 56.3945C193.75 56.5898 194.122 56.7474 194.632 56.8672L195.953 57.1797C196.744 57.3672 197.33 57.6576 197.711 58.0508C198.091 58.444 198.281 58.9401 198.281 59.5391C198.281 60.0495 198.136 60.5039 197.847 60.9023C197.558 61.3008 197.155 61.6146 196.636 61.8438C196.118 62.0729 195.518 62.1875 194.836 62.1875ZM203.867 62.1875C203.075 62.1875 202.381 62 201.785 61.625C201.188 61.25 200.724 60.724 200.39 60.0469C200.057 59.3698 199.89 58.5833 199.89 57.6875C199.89 56.776 200.057 55.9805 200.39 55.3008C200.724 54.6211 201.188 54.0938 201.785 53.7188C202.381 53.3438 203.075 53.1562 203.867 53.1562C204.664 53.1562 205.362 53.3438 205.961 53.7188C206.56 54.0938 207.026 54.6211 207.359 55.3008C207.692 55.9805 207.859 56.776 207.859 57.6875C207.859 58.5833 207.692 59.3698 207.359 60.0469C207.026 60.724 206.56 61.25 205.961 61.625C205.362 62 204.664 62.1875 203.867 62.1875ZM203.867 60.9297C204.455 60.9297 204.94 60.7786 205.32 60.4766C205.7 60.1745 205.981 59.7773 206.164 59.2852C206.346 58.793 206.437 58.2604 206.437 57.6875C206.437 57.1094 206.346 56.5716 206.164 56.0742C205.981 55.5768 205.7 55.1758 205.32 54.8711C204.94 54.5664 204.455 54.4141 203.867 54.4141C203.284 54.4141 202.804 54.5664 202.429 54.8711C202.054 55.1758 201.776 55.5755 201.593 56.0703C201.411 56.5651 201.32 57.1042 201.32 57.6875C201.32 58.2604 201.411 58.793 201.593 59.2852C201.776 59.7773 202.054 60.1745 202.429 60.4766C202.804 60.7786 203.284 60.9297 203.867 60.9297ZM211.312 56.7656V62H209.906V53.2656H211.257L211.265 55.3828H211.07C211.336 54.5755 211.714 54.0026 212.207 53.6641C212.699 53.3255 213.276 53.1562 213.937 53.1562C214.526 53.1562 215.041 53.2773 215.484 53.5195C215.927 53.7617 216.272 54.1263 216.519 54.6133C216.767 55.1003 216.89 55.7135 216.89 56.4531V62H215.484V56.5703C215.484 55.8984 215.308 55.3724 214.957 54.9922C214.605 54.612 214.125 54.4219 213.515 54.4219C213.099 54.4219 212.724 54.513 212.39 54.6953C212.057 54.8776 211.794 55.1432 211.601 55.4922C211.409 55.8411 211.312 56.2656 211.312 56.7656ZM221.804 62.2031C221.252 62.2031 220.751 62.099 220.3 61.8906C219.85 61.6823 219.492 61.3776 219.226 60.9766C218.961 60.5755 218.828 60.0885 218.828 59.5156C218.828 59.0156 218.927 58.6094 219.125 58.2969C219.323 57.9844 219.587 57.7383 219.918 57.5586C220.248 57.3789 220.614 57.2448 221.015 57.1562C221.416 57.0677 221.82 56.9974 222.226 56.9453C222.747 56.8776 223.172 56.8255 223.5 56.7891C223.828 56.7526 224.071 56.6901 224.23 56.6016C224.389 56.513 224.468 56.362 224.468 56.1484V56.1016C224.468 55.737 224.401 55.4284 224.265 55.1758C224.13 54.9232 223.927 54.7292 223.656 54.5938C223.385 54.4583 223.047 54.3906 222.64 54.3906C222.224 54.3906 221.867 54.4557 221.57 54.5859C221.273 54.7161 221.032 54.8789 220.847 55.0742C220.662 55.2695 220.523 55.4688 220.429 55.6719L219.078 55.2266C219.302 54.6953 219.604 54.2799 219.984 53.9805C220.364 53.681 220.784 53.4688 221.242 53.3438C221.7 53.2188 222.153 53.1562 222.601 53.1562C222.893 53.1562 223.225 53.1914 223.597 53.2617C223.97 53.332 224.329 53.4714 224.675 53.6797C225.022 53.888 225.308 54.1966 225.535 54.6055C225.761 55.0143 225.875 55.5599 225.875 56.2422V62H224.492V60.8125H224.398C224.299 61.0156 224.14 61.2253 223.922 61.4414C223.703 61.6576 223.419 61.8385 223.07 61.9844C222.721 62.1302 222.299 62.2031 221.804 62.2031ZM222.047 60.9609C222.567 60.9609 223.007 60.8594 223.367 60.6562C223.726 60.4531 224 60.1888 224.187 59.8633C224.375 59.5378 224.468 59.1979 224.468 58.8438V57.6328C224.411 57.7005 224.286 57.7617 224.093 57.8164C223.901 57.8711 223.681 57.9193 223.433 57.9609C223.186 58.0026 222.946 58.0378 222.714 58.0664C222.483 58.0951 222.299 58.1172 222.164 58.1328C221.825 58.1745 221.509 58.2461 221.214 58.3477C220.92 58.4492 220.685 58.5977 220.507 58.793C220.33 58.9883 220.242 59.2526 220.242 59.5859C220.242 59.888 220.32 60.1406 220.476 60.3438C220.632 60.5469 220.846 60.7005 221.117 60.8047C221.388 60.9089 221.698 60.9609 222.047 60.9609ZM229.75 50.3594V62H228.343V50.3594H229.75ZM232.218 62V53.2656H233.625V62H232.218ZM232.929 51.8359C232.664 51.8359 232.435 51.7448 232.242 51.5625C232.049 51.3802 231.953 51.1615 231.953 50.9062C231.953 50.6458 232.049 50.4258 232.242 50.2461C232.435 50.0664 232.664 49.9766 232.929 49.9766C233.2 49.9766 233.432 50.0664 233.625 50.2461C233.817 50.4258 233.914 50.6458 233.914 50.9062C233.914 51.1615 233.817 51.3802 233.625 51.5625C233.432 51.7448 233.2 51.8359 232.929 51.8359ZM235.843 62V60.9531L240.742 54.6562V54.5703H236V53.2656H242.554V54.3828L237.797 60.6094V60.6953H242.711V62H235.843ZM248.367 62.1875C247.523 62.1875 246.795 62 246.183 61.625C245.571 61.25 245.1 60.7266 244.769 60.0547C244.438 59.3828 244.273 58.599 244.273 57.7031C244.273 56.8073 244.435 56.0182 244.757 55.3359C245.08 54.6536 245.537 54.1198 246.129 53.7344C246.72 53.349 247.411 53.1562 248.203 53.1562C248.666 53.1562 249.123 53.2331 249.574 53.3867C250.024 53.5404 250.433 53.7878 250.8 54.1289C251.168 54.4701 251.461 54.9193 251.679 55.4766C251.898 56.0339 252.007 56.7161 252.007 57.5234V58.1094H245.226V56.9219H251.25L250.593 57.3594C250.593 56.7865 250.504 56.2773 250.324 55.832C250.144 55.3867 249.877 55.0378 249.523 54.7852C249.169 54.5326 248.729 54.4062 248.203 54.4062C247.677 54.4062 247.226 54.5352 246.851 54.793C246.476 55.0508 246.19 55.3867 245.992 55.8008C245.794 56.2148 245.695 56.6589 245.695 57.1328V57.9219C245.695 58.5677 245.807 59.1159 246.031 59.5664C246.255 60.0169 246.569 60.3581 246.972 60.5898C247.376 60.8216 247.843 60.9375 248.375 60.9375C248.718 60.9375 249.031 60.888 249.312 60.7891C249.593 60.6901 249.836 60.5404 250.039 60.3398C250.242 60.1393 250.398 59.8906 250.507 59.5938L251.867 59.9688C251.731 60.4062 251.502 60.7917 251.179 61.125C250.856 61.4583 250.457 61.7188 249.98 61.9062C249.504 62.0938 248.966 62.1875 248.367 62.1875ZM257.297 62.1875C256.573 62.1875 255.932 62.0026 255.375 61.6328C254.817 61.263 254.382 60.7396 254.07 60.0625C253.757 59.3854 253.601 58.5833 253.601 57.6562C253.601 56.7344 253.759 55.9362 254.074 55.2617C254.389 54.5872 254.825 54.0677 255.382 53.7031C255.94 53.3385 256.58 53.1562 257.304 53.1562C257.872 53.1562 258.323 53.25 258.656 53.4375C258.989 53.625 259.246 53.8372 259.425 54.0742C259.605 54.3112 259.742 54.5078 259.836 54.6641H259.945V50.3594H261.351V62H259.992V60.6484H259.836C259.742 60.8099 259.603 61.0117 259.418 61.2539C259.233 61.4961 258.972 61.7122 258.636 61.9023C258.3 62.0924 257.854 62.1875 257.297 62.1875ZM257.507 60.9297C258.039 60.9297 258.487 60.7904 258.851 60.5117C259.216 60.2331 259.492 59.8464 259.679 59.3516C259.867 58.8568 259.961 58.2865 259.961 57.6406C259.961 56.9948 259.868 56.431 259.683 55.9492C259.498 55.4674 259.224 55.0911 258.859 54.8203C258.494 54.5495 258.044 54.4141 257.507 54.4141C256.955 54.4141 256.496 54.5573 256.129 54.8438C255.761 55.1302 255.487 55.5169 255.304 56.0039C255.122 56.4909 255.031 57.0365 255.031 57.6406C255.031 58.25 255.123 58.8034 255.308 59.3008C255.493 59.7982 255.77 60.194 256.14 60.4883C256.51 60.7826 256.966 60.9297 257.507 60.9297ZM271.289 62.1875C270.69 62.1875 270.157 62.1003 269.691 61.9258C269.225 61.7513 268.841 61.4922 268.539 61.1484C268.237 60.8047 268.034 60.3828 267.929 59.8828L269.265 59.5625C269.39 60.0417 269.626 60.3932 269.972 60.6172C270.319 60.8411 270.752 60.9531 271.273 60.9531C271.882 60.9531 272.368 60.8229 272.73 60.5625C273.092 60.3021 273.273 59.9922 273.273 59.6328C273.273 59.3307 273.168 59.0794 272.957 58.8789C272.746 58.6784 272.424 58.5286 271.992 58.4297L270.539 58.0859C269.747 57.8984 269.159 57.6081 268.773 57.2148C268.388 56.8216 268.195 56.3177 268.195 55.7031C268.195 55.2031 268.336 54.7617 268.617 54.3789C268.898 53.9961 269.282 53.6966 269.769 53.4805C270.256 53.2643 270.81 53.1562 271.429 53.1562C272.028 53.1562 272.537 53.2461 272.957 53.4258C273.376 53.6055 273.717 53.8529 273.98 54.168C274.243 54.4831 274.44 54.8464 274.57 55.2578L273.297 55.5859C273.177 55.2734 272.978 54.9896 272.699 54.7344C272.42 54.4792 272 54.3516 271.437 54.3516C270.916 54.3516 270.483 54.4714 270.136 54.7109C269.79 54.9505 269.617 55.2526 269.617 55.6172C269.617 55.9401 269.734 56.1992 269.968 56.3945C270.203 56.5898 270.575 56.7474 271.086 56.8672L272.406 57.1797C273.198 57.3672 273.784 57.6576 274.164 58.0508C274.544 58.444 274.734 58.9401 274.734 59.5391C274.734 60.0495 274.589 60.5039 274.3 60.9023C274.011 61.3008 273.608 61.6146 273.089 61.8438C272.571 62.0729 271.971 62.1875 271.289 62.1875ZM278.086 58.8594V57.1172H278.343L282.078 53.2656H283.82L279.781 57.4141H279.625L278.086 58.8594ZM276.765 62V50.3594H278.172V62H276.765ZM282.289 62L278.945 57.7266L279.945 56.7344L284.093 62H282.289ZM285.547 62V53.2656H286.953V62H285.547ZM286.257 51.8359C285.992 51.8359 285.763 51.7448 285.57 51.5625C285.377 51.3802 285.281 51.1615 285.281 50.9062C285.281 50.6458 285.377 50.4258 285.57 50.2461C285.763 50.0664 285.992 49.9766 286.257 49.9766C286.528 49.9766 286.76 50.0664 286.953 50.2461C287.145 50.4258 287.242 50.6458 287.242 50.9062C287.242 51.1615 287.145 51.3802 286.953 51.5625C286.76 51.7448 286.528 51.8359 286.257 51.8359ZM290.828 56.7656V62H289.422V53.2656H290.773L290.781 55.3828H290.586C290.851 54.5755 291.23 54.0026 291.722 53.6641C292.214 53.3255 292.791 53.1562 293.453 53.1562C294.041 53.1562 294.557 53.2773 295 53.5195C295.442 53.7617 295.787 54.1263 296.035 54.6133C296.282 55.1003 296.406 55.7135 296.406 56.4531V62H295V56.5703C295 55.8984 294.824 55.3724 294.472 54.9922C294.121 54.612 293.64 54.4219 293.031 54.4219C292.614 54.4219 292.239 54.513 291.906 54.6953C291.573 54.8776 291.31 55.1432 291.117 55.4922C290.924 55.8411 290.828 56.2656 290.828 56.7656ZM302.429 62.1875C301.638 62.1875 300.944 62 300.347 61.625C299.751 61.25 299.286 60.724 298.953 60.0469C298.619 59.3698 298.453 58.5833 298.453 57.6875C298.453 56.776 298.619 55.9805 298.953 55.3008C299.286 54.6211 299.751 54.0938 300.347 53.7188C300.944 53.3438 301.638 53.1562 302.429 53.1562C302.851 53.1562 303.25 53.2109 303.625 53.3203C304 53.4297 304.342 53.5872 304.652 53.793C304.962 53.9987 305.229 54.2513 305.453 54.5508C305.677 54.8503 305.849 55.1901 305.968 55.5703L304.617 55.9531C304.554 55.7292 304.458 55.5234 304.328 55.3359C304.198 55.1484 304.04 54.9857 303.855 54.8477C303.67 54.7096 303.458 54.6029 303.218 54.5273C302.979 54.4518 302.716 54.4141 302.429 54.4141C301.846 54.4141 301.367 54.5664 300.992 54.8711C300.617 55.1758 300.338 55.5755 300.156 56.0703C299.974 56.5651 299.882 57.1042 299.882 57.6875C299.882 58.2604 299.974 58.793 300.156 59.2852C300.338 59.7773 300.617 60.1745 300.992 60.4766C301.367 60.7786 301.846 60.9297 302.429 60.9297C302.721 60.9297 302.989 60.8906 303.234 60.8125C303.479 60.7344 303.696 60.6237 303.886 60.4805C304.076 60.3372 304.237 60.1667 304.367 59.9688C304.497 59.7708 304.593 59.5547 304.656 59.3203L306 59.7031C305.885 60.0938 305.714 60.4414 305.488 60.7461C305.261 61.0508 304.992 61.3112 304.679 61.5273C304.367 61.7435 304.02 61.9076 303.64 62.0195C303.26 62.1315 302.856 62.1875 302.429 62.1875ZM310.617 62.2031C310.065 62.2031 309.563 62.099 309.113 61.8906C308.662 61.6823 308.304 61.3776 308.039 60.9766C307.773 60.5755 307.64 60.0885 307.64 59.5156C307.64 59.0156 307.739 58.6094 307.937 58.2969C308.135 57.9844 308.399 57.7383 308.73 57.5586C309.061 57.3789 309.427 57.2448 309.828 57.1562C310.229 57.0677 310.632 56.9974 311.039 56.9453C311.56 56.8776 311.984 56.8255 312.312 56.7891C312.64 56.7526 312.884 56.6901 313.043 56.6016C313.201 56.513 313.281 56.362 313.281 56.1484V56.1016C313.281 55.737 313.213 55.4284 313.078 55.1758C312.942 54.9232 312.739 54.7292 312.468 54.5938C312.198 54.4583 311.859 54.3906 311.453 54.3906C311.036 54.3906 310.679 54.4557 310.382 54.5859C310.086 54.7161 309.845 54.8789 309.66 55.0742C309.475 55.2695 309.336 55.4688 309.242 55.6719L307.89 55.2266C308.114 54.6953 308.416 54.2799 308.797 53.9805C309.177 53.681 309.596 53.4688 310.054 53.3438C310.513 53.2188 310.966 53.1562 311.414 53.1562C311.705 53.1562 312.037 53.1914 312.41 53.2617C312.782 53.332 313.142 53.4714 313.488 53.6797C313.834 53.888 314.121 54.1966 314.347 54.6055C314.574 55.0143 314.687 55.5599 314.687 56.2422V62H313.304V60.8125H313.211C313.112 61.0156 312.953 61.2253 312.734 61.4414C312.515 61.6576 312.231 61.8385 311.882 61.9844C311.533 62.1302 311.112 62.2031 310.617 62.2031ZM310.859 60.9609C311.38 60.9609 311.82 60.8594 312.179 60.6562C312.539 60.4531 312.812 60.1888 313 59.8633C313.187 59.5378 313.281 59.1979 313.281 58.8438V57.6328C313.224 57.7005 313.099 57.7617 312.906 57.8164C312.713 57.8711 312.493 57.9193 312.246 57.9609C311.998 58.0026 311.759 58.0378 311.527 58.0664C311.295 58.0951 311.112 58.1172 310.976 58.1328C310.638 58.1745 310.321 58.2461 310.027 58.3477C309.733 58.4492 309.497 58.5977 309.32 58.793C309.143 58.9883 309.054 59.2526 309.054 59.5859C309.054 59.888 309.132 60.1406 309.289 60.3438C309.445 60.5469 309.658 60.7005 309.929 60.8047C310.2 60.9089 310.51 60.9609 310.859 60.9609ZM317.156 62V53.2656H318.515V54.6094H318.609C318.77 54.1667 319.058 53.8112 319.472 53.543C319.886 53.2747 320.354 53.1406 320.875 53.1406C320.979 53.1406 321.102 53.1432 321.246 53.1484C321.389 53.1536 321.502 53.1589 321.586 53.1641V54.5781C321.544 54.5677 321.44 54.5521 321.273 54.5312C321.106 54.5104 320.929 54.5 320.742 54.5C320.325 54.5 319.951 54.5872 319.621 54.7617C319.29 54.9362 319.031 55.1758 318.843 55.4805C318.656 55.7852 318.562 56.1354 318.562 56.5312V62H317.156ZM326.586 62.1875C325.742 62.1875 325.014 62 324.402 61.625C323.79 61.25 323.319 60.7266 322.988 60.0547C322.657 59.3828 322.492 58.599 322.492 57.7031C322.492 56.8073 322.653 56.0182 322.976 55.3359C323.299 54.6536 323.756 54.1198 324.347 53.7344C324.938 53.349 325.63 53.1562 326.422 53.1562C326.885 53.1562 327.342 53.2331 327.793 53.3867C328.243 53.5404 328.652 53.7878 329.019 54.1289C329.386 54.4701 329.679 54.9193 329.898 55.4766C330.117 56.0339 330.226 56.7161 330.226 57.5234V58.1094H323.445V56.9219H329.468L328.812 57.3594C328.812 56.7865 328.722 56.2773 328.543 55.832C328.363 55.3867 328.096 55.0378 327.742 54.7852C327.388 54.5326 326.948 54.4062 326.422 54.4062C325.895 54.4062 325.445 54.5352 325.07 54.793C324.695 55.0508 324.408 55.3867 324.211 55.8008C324.013 56.2148 323.914 56.6589 323.914 57.1328V57.9219C323.914 58.5677 324.026 59.1159 324.25 59.5664C324.474 60.0169 324.787 60.3581 325.191 60.5898C325.595 60.8216 326.062 60.9375 326.593 60.9375C326.937 60.9375 327.25 60.888 327.531 60.7891C327.812 60.6901 328.054 60.5404 328.257 60.3398C328.461 60.1393 328.617 59.8906 328.726 59.5938L330.086 59.9688C329.95 60.4062 329.721 60.7917 329.398 61.125C329.075 61.4583 328.675 61.7188 328.199 61.9062C327.722 62.0938 327.185 62.1875 326.586 62.1875ZM339.711 62.1875C339.112 62.1875 338.579 62.1003 338.113 61.9258C337.647 61.7513 337.263 61.4922 336.961 61.1484C336.658 60.8047 336.455 60.3828 336.351 59.8828L337.687 59.5625C337.812 60.0417 338.048 60.3932 338.394 60.6172C338.741 60.8411 339.174 60.9531 339.695 60.9531C340.304 60.9531 340.79 60.8229 341.152 60.5625C341.514 60.3021 341.695 59.9922 341.695 59.6328C341.695 59.3307 341.589 59.0794 341.379 58.8789C341.168 58.6784 340.846 58.5286 340.414 58.4297L338.961 58.0859C338.169 57.8984 337.58 57.6081 337.195 57.2148C336.81 56.8216 336.617 56.3177 336.617 55.7031C336.617 55.2031 336.757 54.7617 337.039 54.3789C337.32 53.9961 337.704 53.6966 338.191 53.4805C338.678 53.2643 339.231 53.1562 339.851 53.1562C340.45 53.1562 340.959 53.2461 341.379 53.4258C341.798 53.6055 342.139 53.8529 342.402 54.168C342.665 54.4831 342.862 54.8464 342.992 55.2578L341.718 55.5859C341.599 55.2734 341.399 54.9896 341.121 54.7344C340.842 54.4792 340.422 54.3516 339.859 54.3516C339.338 54.3516 338.905 54.4714 338.558 54.7109C338.212 54.9505 338.039 55.2526 338.039 55.6172C338.039 55.9401 338.156 56.1992 338.39 56.3945C338.625 56.5898 338.997 56.7474 339.507 56.8672L340.828 57.1797C341.619 57.3672 342.205 57.6576 342.586 58.0508C342.966 58.444 343.156 58.9401 343.156 59.5391C343.156 60.0495 343.011 60.5039 342.722 60.9023C342.433 61.3008 342.03 61.6146 341.511 61.8438C340.993 62.0729 340.393 62.1875 339.711 62.1875ZM348.742 62.1875C347.95 62.1875 347.256 62 346.66 61.625C346.063 61.25 345.599 60.724 345.265 60.0469C344.932 59.3698 344.765 58.5833 344.765 57.6875C344.765 56.776 344.932 55.9805 345.265 55.3008C345.599 54.6211 346.063 54.0938 346.66 53.7188C347.256 53.3438 347.95 53.1562 348.742 53.1562C349.539 53.1562 350.237 53.3438 350.836 53.7188C351.435 54.0938 351.901 54.6211 352.234 55.3008C352.567 55.9805 352.734 56.776 352.734 57.6875C352.734 58.5833 352.567 59.3698 352.234 60.0469C351.901 60.724 351.435 61.25 350.836 61.625C350.237 62 349.539 62.1875 348.742 62.1875ZM348.742 60.9297C349.33 60.9297 349.815 60.7786 350.195 60.4766C350.575 60.1745 350.856 59.7773 351.039 59.2852C351.221 58.793 351.312 58.2604 351.312 57.6875C351.312 57.1094 351.221 56.5716 351.039 56.0742C350.856 55.5768 350.575 55.1758 350.195 54.8711C349.815 54.5664 349.33 54.4141 348.742 54.4141C348.158 54.4141 347.679 54.5664 347.304 54.8711C346.929 55.1758 346.651 55.5755 346.468 56.0703C346.286 56.5651 346.195 57.1042 346.195 57.6875C346.195 58.2604 346.286 58.793 346.468 59.2852C346.651 59.7773 346.929 60.1745 347.304 60.4766C347.679 60.7786 348.158 60.9297 348.742 60.9297ZM356.187 50.3594V62H354.781V50.3594H356.187ZM361.617 62.1094C361.028 62.1094 360.511 61.9883 360.066 61.7461C359.621 61.5039 359.274 61.138 359.027 60.6484C358.78 60.1589 358.656 59.5469 358.656 58.8125V53.2656H360.062V58.6953C360.062 59.3672 360.239 59.8932 360.593 60.2734C360.948 60.6536 361.429 60.8438 362.039 60.8438C362.455 60.8438 362.829 60.7526 363.16 60.5703C363.491 60.388 363.752 60.1211 363.945 59.7695C364.138 59.418 364.234 58.9948 364.234 58.5V53.2656H365.648V62H364.289V59.8828H364.476C364.205 60.7005 363.821 61.276 363.324 61.6094C362.826 61.9427 362.257 62.1094 361.617 62.1094ZM371.554 53.2656V54.4688H367.039V53.2656H371.554ZM368.351 51.1875H369.757V59.7344C369.757 60.125 369.837 60.4102 369.996 60.5898C370.155 60.7695 370.419 60.8594 370.789 60.8594C370.877 60.8594 370.991 60.849 371.129 60.8281C371.267 60.8073 371.393 60.7865 371.507 60.7656L371.797 61.9531C371.651 62.0052 371.485 62.0443 371.3 62.0703C371.116 62.0964 370.932 62.1094 370.75 62.1094C369.994 62.1094 369.406 61.9102 368.984 61.5117C368.562 61.1133 368.351 60.5573 368.351 59.8438V51.1875ZM373.351 62V53.2656H374.757V62H373.351ZM374.062 51.8359C373.797 51.8359 373.567 51.7448 373.375 51.5625C373.182 51.3802 373.086 51.1615 373.086 50.9062C373.086 50.6458 373.182 50.4258 373.375 50.2461C373.567 50.0664 373.797 49.9766 374.062 49.9766C374.333 49.9766 374.565 50.0664 374.757 50.2461C374.95 50.4258 375.047 50.6458 375.047 50.9062C375.047 51.1615 374.95 51.3802 374.757 51.5625C374.565 51.7448 374.333 51.8359 374.062 51.8359ZM380.781 62.1875C379.989 62.1875 379.295 62 378.699 61.625C378.102 61.25 377.638 60.724 377.304 60.0469C376.971 59.3698 376.804 58.5833 376.804 57.6875C376.804 56.776 376.971 55.9805 377.304 55.3008C377.638 54.6211 378.102 54.0938 378.699 53.7188C379.295 53.3438 379.989 53.1562 380.781 53.1562C381.578 53.1562 382.276 53.3438 382.875 53.7188C383.474 54.0938 383.94 54.6211 384.273 55.3008C384.606 55.9805 384.773 56.776 384.773 57.6875C384.773 58.5833 384.606 59.3698 384.273 60.0469C383.94 60.724 383.474 61.25 382.875 61.625C382.276 62 381.578 62.1875 380.781 62.1875ZM380.781 60.9297C381.369 60.9297 381.854 60.7786 382.234 60.4766C382.614 60.1745 382.895 59.7773 383.078 59.2852C383.26 58.793 383.351 58.2604 383.351 57.6875C383.351 57.1094 383.26 56.5716 383.078 56.0742C382.895 55.5768 382.614 55.1758 382.234 54.8711C381.854 54.5664 381.369 54.4141 380.781 54.4141C380.198 54.4141 379.718 54.5664 379.343 54.8711C378.968 55.1758 378.69 55.5755 378.507 56.0703C378.325 56.5651 378.234 57.1042 378.234 57.6875C378.234 58.2604 378.325 58.793 378.507 59.2852C378.69 59.7773 378.968 60.1745 379.343 60.4766C379.718 60.7786 380.198 60.9297 380.781 60.9297ZM388.226 56.7656V62H386.82V53.2656H388.172L388.179 55.3828H387.984C388.25 54.5755 388.629 54.0026 389.121 53.6641C389.613 53.3255 390.19 53.1562 390.851 53.1562C391.44 53.1562 391.955 53.2773 392.398 53.5195C392.841 53.7617 393.186 54.1263 393.433 54.6133C393.681 55.1003 393.804 55.7135 393.804 56.4531V62H392.398V56.5703C392.398 55.8984 392.222 55.3724 391.871 54.9922C391.519 54.612 391.039 54.4219 390.429 54.4219C390.013 54.4219 389.638 54.513 389.304 54.6953C388.971 54.8776 388.708 55.1432 388.515 55.4922C388.323 55.8411 388.226 56.2656 388.226 56.7656ZM399.242 62.1875C398.643 62.1875 398.11 62.1003 397.644 61.9258C397.178 61.7513 396.794 61.4922 396.492 61.1484C396.19 60.8047 395.987 60.3828 395.882 59.8828L397.218 59.5625C397.343 60.0417 397.579 60.3932 397.925 60.6172C398.272 60.8411 398.705 60.9531 399.226 60.9531C399.836 60.9531 400.321 60.8229 400.683 60.5625C401.045 60.3021 401.226 59.9922 401.226 59.6328C401.226 59.3307 401.121 59.0794 400.91 58.8789C400.699 58.6784 400.377 58.5286 399.945 58.4297L398.492 58.0859C397.7 57.8984 397.112 57.6081 396.726 57.2148C396.341 56.8216 396.148 56.3177 396.148 55.7031C396.148 55.2031 396.289 54.7617 396.57 54.3789C396.851 53.9961 397.235 53.6966 397.722 53.4805C398.209 53.2643 398.763 53.1562 399.382 53.1562C399.981 53.1562 400.491 53.2461 400.91 53.4258C401.329 53.6055 401.67 53.8529 401.933 54.168C402.196 54.4831 402.393 54.8464 402.523 55.2578L401.25 55.5859C401.13 55.2734 400.931 54.9896 400.652 54.7344C400.373 54.4792 399.953 54.3516 399.39 54.3516C398.869 54.3516 398.436 54.4714 398.089 54.7109C397.743 54.9505 397.57 55.2526 397.57 55.6172C397.57 55.9401 397.687 56.1992 397.922 56.3945C398.156 56.5898 398.528 56.7474 399.039 56.8672L400.359 57.1797C401.151 57.3672 401.737 57.6576 402.117 58.0508C402.497 58.444 402.687 58.9401 402.687 59.5391C402.687 60.0495 402.543 60.5039 402.254 60.9023C401.964 61.3008 401.561 61.6146 401.043 61.8438C400.524 62.0729 399.924 62.1875 399.242 62.1875Z" fill="#64748B"/>
</svg>
