<svg width="294" height="66" viewBox="0 0 294 66" fill="none" xmlns="http://www.w3.org/2000/svg">
<g clip-path="url(#clip0_205_2404)">
<path d="M145.291 21.8214C145.298 27.2404 143.03 30.7842 138.481 32.4527C137.214 32.9196 136.041 33.1531 134.969 33.1569L145.092 46.8996L138.508 46.911L126.574 29.8313H126.477L126.508 46.9302L121.24 46.9378L121.174 10.0496L132.346 10.0305C136.705 10.0228 139.91 11.0485 141.965 13.1036C144.179 15.262 145.291 18.1666 145.298 21.8214H145.291ZM140.023 21.8291C140.019 19.6018 139.242 17.8988 137.696 16.7239C136.15 15.5452 134.254 14.9596 132.008 14.9635L126.445 14.9711L126.469 29.0774L130.078 29.0697C131.379 29.0697 132.568 28.9587 133.64 28.7406C134.712 28.5224 135.753 28.1627 136.76 27.6652C137.766 27.1639 138.562 26.4138 139.145 25.4188C139.728 24.4199 140.019 23.2221 140.015 21.8291H140.023Z" fill="#1A0B3D"/>
<path d="M176.536 32.7359C176.536 33.597 176.489 34.4581 176.392 35.3191L153.996 35.3574C154.521 37.5426 155.589 39.3375 157.201 40.742C158.813 42.1465 160.709 42.8468 162.889 42.843C164.481 42.843 165.985 42.422 167.399 41.5916C168.813 40.7611 169.873 39.6321 170.588 38.2085L175.662 38.2009C174.625 41.0175 172.939 43.2831 170.6 44.9899C168.261 46.7006 165.627 47.5578 162.702 47.5616C158.895 47.5693 155.647 46.1342 152.959 43.2563C150.271 40.3784 148.923 36.9877 148.915 33.0804C148.907 29.0735 150.236 25.6599 152.897 22.8394C155.558 20.0189 158.841 18.6067 162.745 18.5991C166.552 18.5914 169.796 19.9768 172.484 22.7552C175.172 25.5336 176.52 28.8592 176.528 32.7321L176.536 32.7359ZM171.458 31.3544C171.322 29.1041 170.386 27.2021 168.642 25.6446C166.898 24.0908 164.92 23.3139 162.71 23.3178C160.496 23.3178 158.522 24.1023 156.786 25.6637C155.049 27.2251 154.117 29.1309 153.989 31.3812L171.455 31.3506L171.458 31.3544Z" fill="#1A0B3D"/>
<path d="M205.59 46.7924L200.516 46.8L200.489 31.8481C200.477 26.1191 198.228 23.2565 193.741 23.2642C191.368 23.268 189.588 24.0755 188.403 25.6828C187.219 27.2901 186.628 29.3376 186.632 31.8213L186.659 46.823L181.586 46.8307L181.535 19.3109L186.267 19.3032V22.2347H186.368C188.186 19.7816 190.816 18.5532 194.266 18.5455C198.593 18.5378 201.783 20.172 203.838 23.4479C204.98 25.235 205.555 27.5848 205.559 30.501L205.586 46.7962L205.59 46.7924Z" fill="#1A0B3D"/>
<path d="M234.815 19.2229L219.952 55.9619L214.685 55.9695L218.62 46.226L207.789 19.2688L213.255 19.2612L221.246 40.608L229.357 19.2344L234.823 19.2267L234.815 19.2229Z" fill="#1A0B3D"/>
<path d="M265.385 32.8316C265.392 36.804 263.982 40.2291 261.158 43.0955C258.334 45.9658 254.888 47.4047 250.821 47.4124C246.819 47.42 243.385 45.9926 240.518 43.1338C237.651 40.2751 236.214 36.8269 236.206 32.7857C236.198 28.7788 237.632 25.3881 240.507 22.6174C243.381 19.8467 246.8 18.4575 250.77 18.4536C254.771 18.446 258.206 19.8314 261.073 22.6097C263.939 25.3881 265.377 28.7941 265.385 32.8354V32.8316ZM257.541 39.7737C259.39 37.8334 260.315 35.5219 260.311 32.8392C260.307 30.1565 259.375 27.8718 257.518 25.989C255.661 24.1023 253.416 23.1646 250.782 23.1685C248.148 23.1723 245.906 24.129 244.053 26.0387C242.204 27.9484 241.28 30.2407 241.283 32.9234C241.287 35.6061 242.22 37.9062 244.077 39.8235C245.934 41.7408 248.179 42.6975 250.813 42.6937C253.447 42.6899 255.692 41.7178 257.541 39.7775V39.7737Z" fill="#1A0B3D"/>
<path d="M294 46.6432L289.366 46.6508V43.6696H289.265C288.55 44.9287 287.454 45.8587 285.974 46.4557C284.494 47.0527 282.944 47.355 281.316 47.3588C278.259 47.3627 275.687 46.4595 273.601 44.6378C271.224 42.556 270.027 39.0313 270.019 34.0639L269.992 19.1617L275.066 19.154L275.093 34.0563C275.097 36.739 275.606 38.84 276.616 40.3631C277.626 41.8863 279.366 42.644 281.841 42.6402C284.28 42.6363 286.067 41.8212 287.202 40.1947C288.336 38.5683 288.903 36.4673 288.899 33.8841L288.872 19.1311L293.946 19.1234L293.996 46.6432H294Z" fill="#1A0B3D"/>
<path d="M63.7573 37.933C60.6844 36.1917 60.6766 31.8251 63.7456 30.0724L81.7593 19.7893L88.7752 15.7863C96.7313 11.2437 106.7 16.8885 106.711 25.9507V29.2305C106.742 43.9299 90.6011 53.1452 77.6648 45.8166L63.7573 37.9368V37.933Z" fill="#1A0B3D"/>
<path d="M74.1911 7.56594C79.117 10.3673 79.117 17.3706 74.1911 20.172L70.1665 22.4605L59.3047 28.6373C57.4167 29.7088 55.0586 28.3694 55.0586 26.2224V13.869V4.54645C55.0586 1.05243 58.8968 -1.12895 61.9696 0.616152L70.1665 5.27741L74.1911 7.56594Z" fill="#FF7F50"/>
<path d="M66.1458 65.0127C61.2199 67.814 55.0625 64.3123 55.0625 58.7096V54.1326V41.7791C55.0625 39.6322 57.4206 38.2889 59.3086 39.3643L70.1704 45.541L78.3673 50.2023C81.4363 51.9474 81.4363 56.3139 78.3673 58.0629L70.1704 62.7241L66.1458 65.0127Z" fill="#524E8D"/>
<path d="M42.9579 37.933C46.0308 36.1917 46.0386 31.8251 42.9696 30.0724L24.9559 19.7893L17.94 15.7863C9.98783 11.2437 0.0194902 16.8885 0.00395106 25.9507V29.2305C-0.0271272 43.9299 16.1141 53.1452 29.0504 45.8166L42.9579 37.9368V37.933Z" fill="#1A0B3D"/>
<path d="M32.5274 7.56594C27.6015 10.3673 27.6015 17.3706 32.5274 20.172L36.5521 22.4605L47.4139 28.6373C49.3019 29.7088 51.66 28.3694 51.66 26.2224V13.869V4.54645C51.66 1.05243 47.8218 -1.12895 44.7489 0.616152L36.5521 5.27741L32.5274 7.56594Z" fill="#FF7F50"/>
<path d="M40.573 65.0127C45.4989 67.814 51.6563 64.3123 51.6563 58.7096V54.1326V41.7791C51.6563 39.6322 49.2983 38.2889 47.4103 39.3643L36.5484 45.541L28.3515 50.2023C25.2826 51.9474 25.2826 56.3139 28.3515 58.0629L36.5484 62.7241L40.573 65.0127Z" fill="#524E8D"/>
<path d="M84.2178 4.70721C82.6678 4.70721 81.4053 5.95098 81.4053 7.47794C81.4053 9.00491 82.6678 10.2487 84.2178 10.2487C85.7679 10.2487 87.0304 9.00491 87.0304 7.47794C87.0304 5.95098 85.7679 4.70721 84.2178 4.70721ZM84.2178 9.90424C82.8582 9.90424 81.7549 8.81739 81.7549 7.47794C81.7549 6.1385 82.8582 5.05164 84.2178 5.05164C85.5775 5.05164 86.6808 6.1385 86.6808 7.47794C86.6808 8.81739 85.5736 9.90424 84.2178 9.90424Z" fill="#1A0B3D"/>
<path d="M84.8118 7.86832C85.2625 7.70377 85.4839 7.35168 85.4839 6.81591C85.4839 6.45617 85.3751 6.16915 85.1537 5.95484C84.9517 5.75201 84.6331 5.64868 84.2058 5.65251H83.1025L83.1103 9.29579H83.6309V7.60809H83.6386L84.8196 9.29579H85.4684L84.47 7.93721C84.5749 7.93721 84.6914 7.91425 84.8157 7.86832H84.8118ZM83.9844 7.53538H83.627V6.14236H84.1747C84.3962 6.14236 84.5826 6.19976 84.738 6.31457C84.8895 6.42938 84.9672 6.6016 84.9672 6.81973C84.9672 6.95751 84.94 7.07614 84.8818 7.17564C84.8235 7.27514 84.7458 7.34786 84.6448 7.39761C84.5438 7.44736 84.4428 7.48563 84.334 7.50476C84.2291 7.5239 84.1126 7.53921 83.9844 7.53921V7.53538Z" fill="#1A0B3D"/>
</g>
<defs>
<clipPath id="clip0_205_2404">
<rect width="294" height="66" fill="white"/>
</clipPath>
</defs>
</svg>
