<svg width="17" height="17" viewBox="0 0 17 17" fill="none" xmlns="http://www.w3.org/2000/svg">
<path d="M8.33333 16.6667C7.19444 16.6667 6.11806 16.4479 5.10417 16.0104C4.09028 15.5729 3.20486 14.9757 2.44792 14.2188C1.69097 13.4618 1.09375 12.5764 0.65625 11.5625C0.21875 10.5486 0 9.47222 0 8.33333C0 7.18056 0.21875 6.09722 0.65625 5.08333C1.09375 4.06944 1.69097 3.1875 2.44792 2.4375C3.20486 1.6875 4.09028 1.09375 5.10417 0.65625C6.11806 0.21875 7.19444 0 8.33333 0C9.48611 0 10.5694 0.21875 11.5833 0.65625C12.5972 1.09375 13.4792 1.6875 14.2292 2.4375C14.9792 3.1875 15.5729 4.06944 16.0104 5.08333C16.4479 6.09722 16.6667 7.18056 16.6667 8.33333C16.6667 9.47222 16.4479 10.5486 16.0104 11.5625C15.5729 12.5764 14.9792 13.4618 14.2292 14.2188C13.4792 14.9757 12.5972 15.5729 11.5833 16.0104C10.5694 16.4479 9.48611 16.6667 8.33333 16.6667ZM8.33333 1.66667C6.79167 1.66667 5.43056 2.12847 4.25 3.05208C3.06944 3.97569 2.28472 5.15278 1.89583 6.58333C2.17361 6.51389 2.46181 6.37847 2.76042 6.17708C3.05903 5.97569 3.40278 5.48611 3.79167 4.70833C4 4.27778 4.30556 3.94097 4.70833 3.69792C5.11111 3.45486 5.55556 3.33333 6.04167 3.33333H10.625C11.1111 3.33333 11.5556 3.45486 11.9583 3.69792C12.3611 3.94097 12.6667 4.27778 12.875 4.70833C13.2639 5.5 13.6146 5.99306 13.9271 6.1875C14.2396 6.38194 14.5208 6.51389 14.7708 6.58333C14.3819 5.15278 13.6007 3.97569 12.4271 3.05208C11.2535 2.12847 9.88889 1.66667 8.33333 1.66667ZM8.33333 15C10.1944 15 11.7743 14.3472 13.0729 13.0417C14.3715 11.7361 15.0139 10.1528 15 8.29167C14.0139 8.19444 13.2569 7.88542 12.7292 7.36458C12.2014 6.84375 11.75 6.20833 11.375 5.45833C11.3056 5.30556 11.2049 5.19097 11.0729 5.11458C10.941 5.03819 10.7986 5 10.6458 5H6.04167C5.875 5 5.72569 5.03819 5.59375 5.11458C5.46181 5.19097 5.36111 5.30556 5.29167 5.45833C4.91667 6.22222 4.45833 6.86458 3.91667 7.38542C3.375 7.90625 2.625 8.21528 1.66667 8.3125C1.66667 10.1736 2.31597 11.7535 3.61458 13.0521C4.91319 14.3507 6.48611 15 8.33333 15ZM5.83333 10.2083C5.54167 10.2083 5.29514 10.1076 5.09375 9.90625C4.89236 9.70486 4.79167 9.45833 4.79167 9.16667C4.79167 8.875 4.89236 8.62847 5.09375 8.42708C5.29514 8.22569 5.54167 8.125 5.83333 8.125C6.125 8.125 6.37153 8.22569 6.57292 8.42708C6.77431 8.62847 6.875 8.875 6.875 9.16667C6.875 9.45833 6.77431 9.70486 6.57292 9.90625C6.37153 10.1076 6.125 10.2083 5.83333 10.2083ZM10.8333 10.2083C10.5417 10.2083 10.2951 10.1076 10.0938 9.90625C9.89236 9.70486 9.79167 9.45833 9.79167 9.16667C9.79167 8.875 9.89236 8.62847 10.0938 8.42708C10.2951 8.22569 10.5417 8.125 10.8333 8.125C11.125 8.125 11.3715 8.22569 11.5729 8.42708C11.7743 8.62847 11.875 8.875 11.875 9.16667C11.875 9.45833 11.7743 9.70486 11.5729 9.90625C11.3715 10.1076 11.125 10.2083 10.8333 10.2083Z" fill="#94A3B8"/>
</svg>
