<svg width="150" height="14" viewBox="0 0 150 14" fill="none" xmlns="http://www.w3.org/2000/svg">
<path d="M0.000160456 2.02232V0.485073H8.11085V2.02232H4.9726V10.6706H3.14716V2.02232H0.000160456ZM11.8996 10.8248C11.1334 10.8248 10.4728 10.6636 9.9176 10.3413C9.36243 10.0189 8.93564 9.56374 8.63723 8.97585C8.33882 8.38796 8.18961 7.69471 8.18961 6.89609C8.18961 6.11059 8.33704 5.42058 8.6319 4.82603C8.92675 4.23149 9.34388 3.76723 9.88328 3.43328C10.4227 3.09932 11.056 2.93234 11.7831 2.93234C12.2511 2.93234 12.6953 3.00776 13.1157 3.15861C13.5362 3.30945 13.9091 3.54151 14.2345 3.85478C14.5599 4.16804 14.8158 4.56767 15.0023 5.05366C15.1888 5.53965 15.282 6.11861 15.282 6.79054V7.34507H9.02852V6.13867H14.395L13.5649 6.49687C13.5649 6.06448 13.4981 5.68544 13.3647 5.35978C13.2313 5.03411 13.0334 4.78045 12.7711 4.59879C12.5087 4.41714 12.1827 4.32631 11.793 4.32631C11.4032 4.32631 11.0714 4.4186 10.7974 4.60317C10.5234 4.78774 10.3146 5.03411 10.1709 5.34228C10.0273 5.65044 9.95545 5.99302 9.95545 6.37V7.20562C9.95545 7.68869 10.0374 8.09616 10.2014 8.42803C10.3654 8.75989 10.5957 9.01 10.8923 9.17835C11.1888 9.34669 11.5327 9.43087 11.9237 9.43087C12.1834 9.43087 12.4196 9.39372 12.632 9.31944C12.8445 9.24516 13.0273 9.13423 13.1804 8.98666C13.3335 8.8391 13.4506 8.65676 13.5315 8.43965L15.1639 8.77762C15.0421 9.18668 14.8326 9.54483 14.5353 9.85209C14.2379 10.1593 13.8668 10.3983 13.422 10.5689C12.9771 10.7395 12.4696 10.8248 11.8996 10.8248ZM18.5794 0.485073V10.6706H16.8026V0.485073H18.5794ZM22.2435 0.485073V10.6706H20.4667V0.485073H22.2435ZM30.276 10.7663C29.7528 10.7663 29.2943 10.6542 28.9006 10.43C28.5068 10.2058 28.2013 9.87866 27.984 9.44863C27.7667 9.0186 27.6581 8.49789 27.6581 7.88648V3.02804H29.4349V7.61414C29.4349 8.12657 29.5685 8.5282 29.8357 8.81905C30.103 9.1099 30.4696 9.25532 30.9355 9.25532C31.2509 9.25532 31.5307 9.18665 31.775 9.04929C32.0192 8.91193 32.2117 8.712 32.3525 8.4495C32.4932 8.187 32.5636 7.87209 32.5636 7.50476V3.02804H34.3447V10.6706H32.6557L32.636 8.78117H32.7706C32.5565 9.44745 32.2401 9.94488 31.8213 10.2735C31.4025 10.602 30.8874 10.7663 30.276 10.7663ZM39.1209 10.8248C38.5361 10.8248 38.0176 10.7407 37.5654 10.5725C37.1132 10.4042 36.7431 10.1586 36.455 9.83568C36.1669 9.51275 35.9781 9.12106 35.8886 8.66059L37.5521 8.34832C37.6549 8.72494 37.8402 9.00508 38.108 9.18874C38.3758 9.3724 38.7253 9.46423 39.1564 9.46423C39.5944 9.46423 39.9419 9.37654 40.1988 9.20118C40.4556 9.02581 40.584 8.80961 40.584 8.55257C40.584 8.33091 40.4995 8.14834 40.3306 8.00488C40.1616 7.86141 39.9019 7.75213 39.5515 7.67702L38.2505 7.39593C37.5283 7.24007 36.9895 6.98436 36.6342 6.6288C36.2789 6.27324 36.1013 5.81509 36.1013 5.25437C36.1013 4.78241 36.2313 4.37281 36.4914 4.02554C36.7514 3.67828 37.1125 3.40926 37.5747 3.21849C38.0369 3.02772 38.5728 2.93234 39.1824 2.93234C39.7606 2.93234 40.2582 3.01423 40.6751 3.17802C41.092 3.34181 41.4294 3.571 41.6875 3.86558C41.9455 4.16016 42.1249 4.50633 42.2257 4.90409L40.6414 5.21335C40.553 4.94811 40.3947 4.72312 40.1665 4.53836C39.9383 4.35361 39.6182 4.26123 39.2064 4.26123C38.8295 4.26123 38.5145 4.34349 38.2614 4.50801C38.0084 4.67253 37.8819 4.88559 37.8819 5.14718C37.8819 5.36903 37.9652 5.55269 38.1317 5.69816C38.2982 5.84363 38.5761 5.95893 38.9653 6.04406L40.2657 6.3175C40.9896 6.47172 41.5273 6.71964 41.8789 7.06125C42.2304 7.40287 42.4062 7.8431 42.4062 8.38195C42.4062 8.86466 42.2666 9.28935 41.9874 9.65603C41.7082 10.0227 41.3218 10.3092 40.8282 10.5154C40.3345 10.7217 39.7654 10.8248 39.1209 10.8248ZM49.5853 10.8287C49.1006 10.8287 48.6644 10.7412 48.2768 10.5663C47.8891 10.3914 47.5832 10.1326 47.359 9.78988C47.1348 9.44717 47.0227 9.02434 47.0227 8.5214C47.0227 8.09046 47.1035 7.73417 47.2652 7.45253C47.4269 7.17089 47.6463 6.94572 47.9234 6.77701C48.2004 6.6083 48.5124 6.48069 48.8592 6.3942C49.206 6.3077 49.5645 6.24494 49.9348 6.20593C50.3807 6.15653 50.7418 6.11342 51.0183 6.0766C51.2947 6.03978 51.4983 5.98058 51.6291 5.899C51.7599 5.81743 51.8253 5.6906 51.8253 5.51851V5.48242C51.8253 5.23067 51.7747 5.01766 51.6734 4.84339C51.5722 4.66911 51.4227 4.53545 51.2251 4.44239C51.0275 4.34933 50.783 4.3028 50.4915 4.3028C50.1958 4.3028 49.9394 4.34828 49.7223 4.43924C49.5052 4.53021 49.328 4.64842 49.1909 4.79389C49.0537 4.93936 48.9531 5.09686 48.8891 5.2664L47.2414 4.92842C47.3931 4.47671 47.6262 4.10383 47.9409 3.80979C48.2555 3.51576 48.631 3.29601 49.0673 3.15054C49.5036 3.00507 49.976 2.93234 50.4844 2.93234C50.8429 2.93234 51.2056 2.97499 51.5725 3.06031C51.9394 3.14562 52.276 3.28762 52.5823 3.48632C52.8887 3.68502 53.1352 3.9534 53.322 4.29146C53.5087 4.62952 53.6021 5.05275 53.6021 5.56117V10.6706H51.9024V9.61679H51.8302C51.719 9.8339 51.5632 10.0346 51.3628 10.2188C51.1624 10.403 50.9152 10.5507 50.6214 10.6619C50.3275 10.7731 49.9822 10.8287 49.5853 10.8287ZM50.0409 9.50797C50.408 9.50797 50.7254 9.43551 50.9931 9.29059C51.2608 9.14567 51.4681 8.95294 51.6149 8.7124C51.7617 8.47187 51.8352 8.21059 51.8352 7.92859V7.02405C51.7768 7.07181 51.6789 7.11593 51.5415 7.1564C51.404 7.19686 51.2492 7.23287 51.0771 7.2644C50.9049 7.29594 50.7363 7.32301 50.5712 7.34562C50.4061 7.36822 50.266 7.38718 50.1508 7.40249C49.8841 7.43731 49.6441 7.49669 49.4309 7.58064C49.2178 7.66458 49.0501 7.78052 48.928 7.92845C48.8058 8.07638 48.7447 8.26747 48.7447 8.50172C48.7447 8.72174 48.8008 8.90627 48.9129 9.05529C49.025 9.20432 49.1782 9.31702 49.3726 9.3934C49.5669 9.46978 49.7897 9.50797 50.0409 9.50797ZM59.5248 10.8101C59.0876 10.8101 58.7238 10.7355 58.4333 10.5864C58.1428 10.4373 57.9113 10.2584 57.7387 10.0498C57.566 9.84115 57.4331 9.64486 57.34 9.46093H57.2279V10.6706H55.4872V0.485073H57.264V4.29351H57.34C57.4315 4.1125 57.5613 3.91626 57.7294 3.7048C57.8974 3.49334 58.1261 3.31173 58.4153 3.15998C58.7045 3.00822 59.0761 2.93234 59.5302 2.93234C60.1207 2.93234 60.6528 3.08282 61.1267 3.38379C61.6006 3.68475 61.9774 4.12786 62.2572 4.7131C62.537 5.29835 62.6769 6.01562 62.6769 6.86492C62.6769 7.70072 62.5402 8.41239 62.2668 8.99992C61.9933 9.58744 61.6193 10.036 61.1446 10.3456C60.6699 10.6553 60.13 10.8101 59.5248 10.8101ZM59.0424 9.34775C59.4405 9.34775 59.774 9.23951 60.0428 9.02304C60.3116 8.80656 60.5146 8.51025 60.6517 8.13408C60.7889 7.75792 60.8575 7.33195 60.8575 6.85617C60.8575 6.38166 60.7897 5.95924 60.6539 5.58891C60.5182 5.21859 60.316 4.92696 60.0472 4.71405C59.7784 4.50113 59.4435 4.39467 59.0424 4.39467C58.6518 4.39467 58.3215 4.49675 58.0517 4.70092C57.782 4.90509 57.5776 5.19088 57.4388 5.55829C57.3 5.9257 57.2306 6.35833 57.2306 6.85617C57.2306 7.35073 57.3007 7.78495 57.441 8.15883C57.5813 8.53271 57.7871 8.82434 58.0583 9.0337C58.3296 9.24306 58.6576 9.34775 59.0424 9.34775ZM67.5406 10.8248C66.7987 10.8248 66.1541 10.6604 65.6068 10.3314C65.0596 10.0025 64.6365 9.54219 64.3374 8.95056C64.0384 8.35893 63.8888 7.67119 63.8888 6.88734C63.8888 6.09473 64.0384 5.40189 64.3374 4.8088C64.6365 4.21572 65.0596 3.7547 65.6068 3.42576C66.1541 3.09681 66.7987 2.93234 67.5406 2.93234C68.2854 2.93234 68.9314 3.09681 69.4784 3.42576C70.0255 3.7547 70.4485 4.21572 70.7476 4.8088C71.0466 5.40189 71.1962 6.09473 71.1962 6.88734C71.1962 7.67119 71.0466 8.35893 70.7476 8.95056C70.4485 9.54219 70.0255 10.0025 69.4784 10.3314C68.9314 10.6604 68.2854 10.8248 67.5406 10.8248ZM67.5406 9.3822C67.9555 9.3822 68.3002 9.27054 68.5746 9.04723C68.849 8.82392 69.0537 8.52319 69.1886 8.14502C69.3235 7.76685 69.391 7.34599 69.391 6.88242C69.391 6.41429 69.3235 5.99092 69.1886 5.61229C69.0537 5.23367 68.849 4.9328 68.5746 4.70967C68.3002 4.48654 67.9555 4.37498 67.5406 4.37498C67.127 4.37498 66.784 4.48654 66.5116 4.70967C66.2393 4.9328 66.0357 5.23294 65.9008 5.61011C65.7659 5.98727 65.6984 6.41137 65.6984 6.88242C65.6984 7.34599 65.7659 7.76685 65.9008 8.14502C66.0357 8.52319 66.2393 8.82392 66.5116 9.04723C66.784 9.27054 67.127 9.3822 67.5406 9.3822ZM75.3658 10.7663C74.8426 10.7663 74.3842 10.6542 73.9904 10.43C73.5967 10.2058 73.2912 9.87866 73.0739 9.44863C72.8566 9.0186 72.7479 8.49789 72.7479 7.88648V3.02804H74.5247V7.61414C74.5247 8.12657 74.6583 8.5282 74.9256 8.81905C75.1928 9.1099 75.5594 9.25532 76.0253 9.25532C76.3407 9.25532 76.6205 9.18665 76.8648 9.04929C77.1091 8.91193 77.3016 8.712 77.4423 8.4495C77.583 8.187 77.6534 7.87209 77.6534 7.50476V3.02804H79.4346V10.6706H77.7455L77.7259 8.78117H77.8604C77.6464 9.44745 77.33 9.94488 76.9112 10.2735C76.4923 10.602 75.9772 10.7663 75.3658 10.7663ZM84.8546 3.02804V4.42037H80.5146V3.02804H84.8546ZM81.5991 1.20968H83.3759V8.5184C83.3759 8.79457 83.4351 8.99733 83.5536 9.12667C83.6721 9.256 83.8677 9.32067 84.1404 9.32067C84.2195 9.32067 84.326 9.31115 84.4599 9.2921C84.5938 9.27305 84.7019 9.25441 84.7841 9.23618L85.0641 10.6075C84.8692 10.6678 84.67 10.7106 84.4664 10.7358C84.2627 10.7611 84.0656 10.7737 83.8749 10.7737C83.1436 10.7737 82.5814 10.5916 82.1885 10.2274C81.7956 9.86316 81.5991 9.34427 81.5991 8.6707V1.20968ZM89.7136 13.3973L90.1314 12.011L90.3425 12.0674C90.6112 12.1361 90.8506 12.1548 91.0606 12.1235C91.2706 12.0923 91.4461 12.0007 91.5872 11.8489C91.7283 11.697 91.8284 11.4757 91.8875 11.185L92.0004 10.6993L89.1134 3.02804H91.0138L92.4119 7.18376C92.5752 7.67576 92.7092 8.16608 92.8137 8.65471C92.9183 9.14335 93.0342 9.6425 93.1614 10.1522H92.693C92.8202 9.6425 92.9447 9.1418 93.0662 8.65007C93.1878 8.15834 93.3313 7.66957 93.4966 7.18376L94.9404 3.02804H96.8216L93.539 11.6523C93.3841 12.0611 93.1897 12.4097 92.956 12.698C92.7223 12.9863 92.4377 13.2058 92.1022 13.3566C91.7667 13.5074 91.3681 13.5827 90.9064 13.5827C90.6532 13.5827 90.4206 13.5643 90.2086 13.5275C89.9965 13.4907 89.8316 13.4473 89.7136 13.3973ZM101.085 10.8248C100.343 10.8248 99.698 10.6604 99.1508 10.3314C98.6035 10.0025 98.1804 9.54219 97.8814 8.95056C97.5823 8.35893 97.4328 7.67119 97.4328 6.88734C97.4328 6.09473 97.5823 5.40189 97.8814 4.8088C98.1804 4.21572 98.6035 3.7547 99.1508 3.42576C99.698 3.09681 100.343 2.93234 101.085 2.93234C101.829 2.93234 102.475 3.09681 103.022 3.42576C103.569 3.7547 103.992 4.21572 104.292 4.8088C104.591 5.40189 104.74 6.09473 104.74 6.88734C104.74 7.67119 104.591 8.35893 104.292 8.95056C103.992 9.54219 103.569 10.0025 103.022 10.3314C102.475 10.6604 101.829 10.8248 101.085 10.8248ZM101.085 9.3822C101.499 9.3822 101.844 9.27054 102.119 9.04723C102.393 8.82392 102.598 8.52319 102.733 8.14502C102.867 7.76685 102.935 7.34599 102.935 6.88242C102.935 6.41429 102.867 5.99092 102.733 5.61229C102.598 5.23367 102.393 4.9328 102.119 4.70967C101.844 4.48654 101.499 4.37498 101.085 4.37498C100.671 4.37498 100.328 4.48654 100.056 4.70967C99.7832 4.9328 99.5796 5.23294 99.4447 5.61011C99.3098 5.98727 99.2424 6.41137 99.2424 6.88242C99.2424 7.34599 99.3098 7.76685 99.4447 8.14502C99.5796 8.52319 99.7832 8.82392 100.056 9.04723C100.328 9.27054 100.671 9.3822 101.085 9.3822ZM108.91 10.7663C108.387 10.7663 107.928 10.6542 107.534 10.43C107.141 10.2058 106.835 9.87866 106.618 9.44863C106.401 9.0186 106.292 8.49789 106.292 7.88648V3.02804H108.069V7.61414C108.069 8.12657 108.202 8.5282 108.47 8.81905C108.737 9.1099 109.103 9.25532 109.569 9.25532C109.885 9.25532 110.164 9.18665 110.409 9.04929C110.653 8.91193 110.846 8.712 110.986 8.4495C111.127 8.187 111.197 7.87209 111.197 7.50476V3.02804H112.978V10.6706H111.289L111.27 8.78117H111.404C111.19 9.44745 110.874 9.94488 110.455 10.2735C110.036 10.602 109.521 10.7663 108.91 10.7663ZM114.864 10.6706V3.02804H116.585V4.30718H116.667C116.807 3.86403 117.047 3.52264 117.388 3.28302C117.729 3.0434 118.118 2.92359 118.556 2.92359C118.657 2.92359 118.769 2.92833 118.892 2.93781C119.015 2.94729 119.119 2.96005 119.205 2.97609V4.60959C119.133 4.58571 119.014 4.56424 118.849 4.54519C118.685 4.52614 118.524 4.51662 118.369 4.51662C118.038 4.51662 117.742 4.58721 117.48 4.7284C117.218 4.86958 117.012 5.06445 116.864 5.31301C116.715 5.56156 116.641 5.84918 116.641 6.17584V10.6706H114.864ZM126.84 10.8248C126.255 10.8248 125.736 10.7407 125.284 10.5725C124.832 10.4042 124.462 10.1586 124.174 9.83568C123.886 9.51275 123.697 9.12106 123.607 8.66059L125.271 8.34832C125.374 8.72494 125.559 9.00508 125.827 9.18874C126.095 9.3724 126.444 9.46423 126.875 9.46423C127.313 9.46423 127.661 9.37654 127.918 9.20118C128.174 9.02581 128.303 8.80961 128.303 8.55257C128.303 8.33091 128.218 8.14834 128.049 8.00488C127.88 7.86141 127.621 7.75213 127.27 7.67702L125.969 7.39593C125.247 7.24007 124.708 6.98436 124.353 6.6288C123.998 6.27324 123.82 5.81509 123.82 5.25437C123.82 4.78241 123.95 4.37281 124.21 4.02554C124.47 3.67828 124.831 3.40926 125.293 3.21849C125.756 3.02772 126.292 2.93234 126.901 2.93234C127.479 2.93234 127.977 3.01423 128.394 3.17802C128.811 3.34181 129.148 3.571 129.406 3.86558C129.664 4.16016 129.844 4.50633 129.944 4.90409L128.36 5.21335C128.272 4.94811 128.113 4.72312 127.885 4.53836C127.657 4.35361 127.337 4.26123 126.925 4.26123C126.548 4.26123 126.233 4.34349 125.98 4.50801C125.727 4.67253 125.601 4.88559 125.601 5.14718C125.601 5.36903 125.684 5.55269 125.85 5.69816C126.017 5.84363 126.295 5.95893 126.684 6.04406L127.984 6.3175C128.708 6.47172 129.246 6.71964 129.598 7.06125C129.949 7.40287 130.125 7.8431 130.125 8.38195C130.125 8.86466 129.985 9.28935 129.706 9.65603C129.427 10.0227 129.041 10.3092 128.547 10.5154C128.053 10.7217 127.484 10.8248 126.84 10.8248ZM133.265 8.26217V6.11024H133.547L136.303 3.02804H138.391L135.012 6.79327H134.644L133.265 8.26217ZM131.64 10.6706V0.485073H133.416V10.6706H131.64ZM136.431 10.6706L133.928 7.18975L135.133 5.93031L138.568 10.6706H136.431ZM139.61 10.6706V3.02804H141.387V10.6706H139.61ZM140.501 1.94686C140.217 1.94686 139.974 1.85148 139.771 1.66072C139.568 1.46996 139.466 1.24104 139.466 0.973971C139.466 0.701452 139.568 0.470994 139.771 0.282597C139.974 0.0941997 140.217 1.07288e-06 140.501 1.07288e-06C140.786 1.07288e-06 141.031 0.0941118 141.234 0.282333C141.437 0.470555 141.539 0.701058 141.539 0.973843C141.539 1.24117 141.437 1.47017 141.234 1.66085C141.031 1.85153 140.786 1.94686 140.501 1.94686ZM145.051 6.1939V10.6706H143.274V3.02804H144.959L144.983 4.91749H144.844C145.055 4.25705 145.369 3.76108 145.785 3.42958C146.2 3.09809 146.72 2.93234 147.343 2.93234C147.868 2.93234 148.326 3.04445 148.717 3.26867C149.109 3.49288 149.413 3.81928 149.631 4.24784C149.848 4.67641 149.957 5.19786 149.957 5.81218V10.6706H148.18V6.08452C148.18 5.57209 148.047 5.17046 147.781 4.87961C147.515 4.58876 147.149 4.44334 146.684 4.44334C146.37 4.44334 146.09 4.51202 145.843 4.64937C145.597 4.78673 145.403 4.98552 145.262 5.24575C145.121 5.50597 145.051 5.82202 145.051 6.1939Z" fill="#334155"/>
</svg>
