<?xml version="1.0" encoding="UTF-8"?>
<svg version="1.1" xmlns="http://www.w3.org/2000/svg" width="333" height="114">
<path d="M0 0 C109.89 0 219.78 0 333 0 C333 37.62 333 75.24 333 114 C223.11 114 113.22 114 0 114 C0 76.38 0 38.76 0 0 Z " fill="#F4EFFD" transform="translate(0,0)"/>
<path d="M0 0 C18 0 18 0 25 4 C27.40950845 6.93331464 27.40596506 10.22146575 27.3359375 13.9609375 C26.77894176 17.34177208 25.1184867 19.35189163 23 22 C23.78375 22.5775 24.5675 23.155 25.375 23.75 C29.06550209 26.91328751 29.86497312 28.54170971 30.3125 33.375 C29.96337287 37.4248747 29.25097467 39.623538 27 43 C21 47 21 47 0 47 C0 31.49 0 15.98 0 0 Z " fill="#060607" transform="translate(20,29)"/>
<path d="M0 0 C5.72964771 3.42276708 9.8172344 7.53791677 11.7734375 14.05859375 C11.7734375 15.70859375 11.7734375 17.35859375 11.7734375 19.05859375 C1.2134375 19.05859375 -9.3465625 19.05859375 -20.2265625 19.05859375 C-18.04559829 26.64222323 -18.04559829 26.64222323 -14.6015625 29.55859375 C-10.27741417 31.48043745 -6.86729168 32.27570546 -2.2265625 31.05859375 C0.09433053 29.40899958 1.99335329 27.65641858 3.94921875 25.58984375 C5.7734375 24.05859375 5.7734375 24.05859375 9.7734375 24.05859375 C8.04693751 29.23809372 5.65549362 31.80388967 1.1484375 34.80859375 C-4.10955865 36.75599973 -9.14111437 37.21764905 -14.47265625 35.21484375 C-19.56610106 32.36482548 -23.16251917 28.55315355 -25.2265625 23.05859375 C-26.17692052 17.14627028 -25.75831637 12.02512264 -22.2265625 7.05859375 C-15.92216316 0.72792608 -9.08981673 -3.8432383 0 0 Z " fill="#0F0F10" transform="translate(304.2265625,40.94140625)"/>
<path d="M0 0 C5.33739473 1.98844117 8.45333824 4.90667648 11 10 C11.56735892 14.65048294 11.4598631 18.09730577 9.3125 22.3125 C3.81442504 28.70215468 3.81442504 28.70215468 -0.33203125 29.3828125 C-4.66356196 29.57763397 -7.47837955 29.24658421 -11.4375 27.375 C-15.61077444 23.5070871 -17.15053965 20.06771371 -17.375 14.4375 C-17.22355909 10.51320518 -16.56142264 8.09137215 -14 5 C-9.12947092 0.72343788 -6.54565076 -0.43637672 0 0 Z " fill="#F1ECFA" transform="translate(238,44)"/>
<path d="M0 0 C5.33739473 1.98844117 8.45333824 4.90667648 11 10 C11.56735892 14.65048294 11.4598631 18.09730577 9.3125 22.3125 C3.81442504 28.70215468 3.81442504 28.70215468 -0.33203125 29.3828125 C-4.66356196 29.57763397 -7.47837955 29.24658421 -11.4375 27.375 C-15.61077444 23.5070871 -17.15053965 20.06771371 -17.375 14.4375 C-17.22355909 10.51320518 -16.56142264 8.09137215 -14 5 C-9.12947092 0.72343788 -6.54565076 -0.43637672 0 0 Z " fill="#F1ECFA" transform="translate(118,44)"/>
<path d="M0 0 C4.28892996 2.27060998 7.63979385 4.73347349 10 9 C10.79562414 14.30957333 10.64704364 18.60636754 8.375 23.5 C4.56187922 27.51381134 1.52593059 28.78200992 -3.9375 29.5625 C-8.23537629 29.41401291 -10.50654446 27.47639417 -13.5546875 24.60546875 C-17.21820826 20.53599029 -17.43484084 17.75691618 -17.3125 12.50390625 C-16.67718518 7.41344624 -13.96644228 4.81610681 -10.1875 1.625 C-6.35990051 -0.32632523 -4.24556929 -0.6065099 0 0 Z " fill="#F2EDFA" transform="translate(76,44)"/>
<path d="M0 0 C1.32 0 2.64 0 4 0 C4 15.51 4 31.02 4 47 C2.68 47 1.36 47 0 47 C-0.495 45.02 -0.495 45.02 -1 43 C-1.67482422 43.54140625 -1.67482422 43.54140625 -2.36328125 44.09375 C-7.30298689 47.65746549 -11.22165365 48.79323691 -17.31640625 48.48046875 C-22.40823923 47.56883053 -26.25680622 45.36141948 -29.34375 41.1796875 C-30.4375 39.3125 -30.4375 39.3125 -32 36 C-32.33 35.34 -32.66 34.68 -33 34 C-33.66837612 28.62012012 -33.33742531 24.22345699 -30.34375 19.63671875 C-26.74076886 15.24820394 -22.80700182 11.52562155 -17.01953125 10.7265625 C-10.70282208 10.43588208 -6.95226628 12.14683363 -2 16 C-1.67 16.33 -1.34 16.66 -1 17 C-0.67 11.39 -0.34 5.78 0 0 Z M-25.8125 20.5625 C-28.49404066 23.80857554 -28.3333721 27.64806662 -28.28125 31.6484375 C-27.70804424 36.44107458 -25.43861985 39.6883172 -21.875 42.9375 C-17.51519825 44.54873108 -13.57648614 44.89106039 -9 44 C-4.76528308 41.60342944 -1.82718252 38.52526511 0 34 C0.73285105 29.31316192 0.44402628 25.85633639 -1.75 21.625 C-5.53047243 17.21444883 -8.43395014 15.24208018 -14.3125 14.6875 C-19.38517063 15.11738734 -22.04686239 17.31626068 -25.8125 20.5625 Z " fill="#0B0A0B" transform="translate(129,29)"/>
<path d="M0 0 C2.63365082 1.39428573 4.33905211 2.4041232 6.1875 4.6875 C6.5175 3.0375 6.8475 1.3875 7.1875 -0.3125 C8.5075 -0.3125 9.8275 -0.3125 11.1875 -0.3125 C11.1875 11.2375 11.1875 22.7875 11.1875 34.6875 C9.8675 34.6875 8.5475 34.6875 7.1875 34.6875 C6.6925 32.7075 6.6925 32.7075 6.1875 30.6875 C5.51267578 31.22890625 5.51267578 31.22890625 4.82421875 31.78125 C-0.06798552 35.31069597 -4.01615408 36.5456752 -10.0625 36.2265625 C-15.7313465 35.11533975 -19.99950502 32.34819263 -23.2578125 27.56640625 C-26.25972304 21.51010422 -26.93819385 16.13493742 -24.8125 9.625 C-18.87370955 0.90240153 -10.448909 -4.23724335 0 0 Z M-18.625 8.25 C-21.30654066 11.49607554 -21.1458721 15.33556662 -21.09375 19.3359375 C-20.52054424 24.12857458 -18.25111985 27.3758172 -14.6875 30.625 C-10.32769825 32.23623108 -6.38898614 32.57856039 -1.8125 31.6875 C2.42221692 29.29092944 5.36031748 26.21276511 7.1875 21.6875 C7.92035105 17.00066192 7.63152628 13.54383639 5.4375 9.3125 C1.65702757 4.90194883 -1.24645014 2.92958018 -7.125 2.375 C-12.19767063 2.80488734 -14.85936239 5.00376068 -18.625 8.25 Z " fill="#0C0C0D" transform="translate(241.8125,41.3125)"/>
<path d="M0 0 C4.86488199 2.83047679 8.89607806 6.91715613 11.4375 12 C12.21240967 18.83444923 11.48329557 24.34374211 7.4375 30 C2.04426999 35.12356851 -2.40725923 36.54322578 -9.7421875 36.3671875 C-15.23029539 35.6526693 -18.75568822 33.27834559 -22.1640625 28.98046875 C-25.38164063 23.8485215 -26.89366117 19.0061992 -25.5625 13 C-23.33526051 7.8728038 -20.23222722 4.11315148 -15.5625 1 C-14.964375 0.5875 -14.36625 0.175 -13.75 -0.25 C-8.97623477 -1.88671951 -4.73091414 -1.3279759 0 0 Z M-18.9375 9.625 C-21.14991996 14.22002608 -21.73751554 18.00042406 -20.5625 23 C-18.24137661 26.68365296 -15.50168328 30.03040836 -11.5625 32 C-5.98914432 32.37155705 -2.32598149 32.24782829 2.4375 29 C5.85418272 25.40349187 6.7706616 22.39773174 7.0625 17.5625 C6.88457295 12.53948239 5.60013801 9.91292663 2.140625 6.33984375 C-5.61422102 0.23912773 -12.69411705 2.72441885 -18.9375 9.625 Z " fill="#121112" transform="translate(79.5625,41)"/>
<path d="M0 0 C4.78902069 2.62040755 8.22906568 5.69861575 10.3125 10.8125 C8.125 11.125 8.125 11.125 5.3125 10.8125 C2.75 8.4375 2.75 8.4375 0.3125 5.8125 C-3.64075774 3.29983618 -6.76951182 3.70522239 -11.27734375 4.26953125 C-15.38182766 5.19420429 -17.54063103 7.28334138 -20 10.5625 C-21.46150683 15.34561327 -21.16495416 19.43318797 -19.5625 24.0625 C-17.24863855 27.45616345 -15.38190942 29.00014821 -11.6875 30.8125 C-6.31432588 31.76701596 -2.3293954 30.72717851 2.3125 27.8125 C2.828125 27.255625 3.34375 26.69875 3.875 26.125 C5.3125 24.8125 5.3125 24.8125 8 24.625 C9.1446875 24.7178125 9.1446875 24.7178125 10.3125 24.8125 C7.51791267 30.10750757 3.82974723 33.48630927 -1.6875 35.8125 C-8.33516489 36.7931338 -13.54586534 36.21400519 -19.03125 32.24609375 C-23.08930407 28.73357996 -25.36609891 25.55864856 -25.99609375 20.17578125 C-26.27045252 13.6826238 -25.92587409 9.39799193 -21.5234375 4.4375 C-14.92774127 -1.40039283 -8.43461118 -2.71623072 0 0 Z " fill="#100F10" transform="translate(200.6875,41.1875)"/>
<path d="M0 0 C1.65 0 3.3 0 5 0 C5.29769287 0.7520874 5.59538574 1.5041748 5.90209961 2.27905273 C7.24456006 5.66626842 8.59097474 9.05189828 9.9375 12.4375 C10.40607422 13.62150391 10.87464844 14.80550781 11.35742188 16.02539062 C11.80537109 17.15009766 12.25332031 18.27480469 12.71484375 19.43359375 C13.12855225 20.47572021 13.54226074 21.51784668 13.96850586 22.59155273 C14.78402023 24.90789285 14.78402023 24.90789285 16 26 C19.63 17.42 23.26 8.84 27 0 C28.65 0 30.3 0 32 0 C29.61633272 7.71815025 26.45561644 14.9597755 23.125 22.3125 C19.28737343 30.82514048 15.54062666 39.35902093 12 48 C10.35 48 8.7 48 7 48 C8.04909816 44.69130579 9.17684594 41.63320841 10.6875 38.5 C12.80902363 32.84260365 10.9758504 28.49824067 8.75 23.0859375 C8.3065625 21.99539062 7.863125 20.90484375 7.40625 19.78125 C6.9421875 18.6571875 6.478125 17.533125 6 16.375 C5.08103747 14.13375249 4.16427525 11.89160119 3.25 9.6484375 C2.84265625 8.66020996 2.4353125 7.67198242 2.015625 6.65380859 C1.16661462 4.4353608 0.50538835 2.31613436 0 0 Z " fill="#100F11" transform="translate(139,41)"/>
<path d="M0 0 C13.03886926 -0.43462898 13.03886926 -0.43462898 18 3 C18.61875 3.4125 19.2375 3.825 19.875 4.25 C21.79995302 7.24437137 21.47572423 9.55099933 21 13 C18.8272578 15.63016161 17.05326212 17.47336894 14 19 C9.33091139 19.13996069 4.67201378 19.04247285 0 19 C0 12.73 0 6.46 0 0 Z " fill="#EAE5F3" transform="translate(24,53)"/>
<path d="M0 0 C12.24185013 -0.40357748 12.24185013 -0.40357748 17 3 C18.84710505 4.84710505 18.34739293 7.42527454 18.5234375 9.89453125 C17.68797287 13.25509419 15.90071477 14.24707815 13 16 C8.59901209 16.51594231 4.44953234 16.17977908 0 16 C0 10.72 0 5.44 0 0 Z " fill="#EDE8F6" transform="translate(24,33)"/>
<path d="M0 0 C3.06964137 2.5357907 4.92154382 4.91888522 6.875 8.375 C6.875 9.035 6.875 9.695 6.875 10.375 C-2.035 10.375 -10.945 10.375 -20.125 10.375 C-18.99020376 4.70101881 -18.99020376 4.70101881 -16.3125 2.125 C-15.81105469 1.62484375 -15.30960937 1.1246875 -14.79296875 0.609375 C-10.33653891 -2.68859182 -4.74870526 -2.46932674 0 0 Z " fill="#F0EBF9" transform="translate(304.125,45.625)"/>
<path d="M0 0 C0 1.65 0 3.3 0 5 C-1.7578125 5.65104167 -3.515625 6.30208333 -5.2734375 6.953125 C-7.56415316 8.34206572 -8.00449307 9.51970509 -9 12 C-9.36388886 14.70534857 -9.36388886 14.70534857 -9.4140625 17.640625 C-9.45273437 18.71054687 -9.49140625 19.78046875 -9.53125 20.8828125 C-9.5621875 21.99398437 -9.593125 23.10515625 -9.625 24.25 C-9.66367187 25.37664062 -9.70234375 26.50328125 -9.7421875 27.6640625 C-9.83637336 30.44254548 -9.92199586 33.22102334 -10 36 C-11.65 36 -13.3 36 -15 36 C-15 24.45 -15 12.9 -15 1 C-13.35 1 -11.7 1 -10 1 C-9.67 1.99 -9.34 2.98 -9 4 C-8.2575 3.34 -7.515 2.68 -6.75 2 C-4 0 -4 0 0 0 Z " fill="#171618" transform="translate(276,40)"/>
</svg>
