<?xml version="1.0" encoding="UTF-8"?>
<svg version="1.1" xmlns="http://www.w3.org/2000/svg" width="235" height="99">
<path d="M0 0 C77.55 0 155.1 0 235 0 C235 32.67 235 65.34 235 99 C157.45 99 79.9 99 0 99 C0 66.33 0 33.66 0 0 Z " fill="#F4EFFD" transform="translate(0,0)"/>
<path d="M0 0 C20.53846154 0 20.53846154 0 25.875 4.625 C27.65015678 8.37255319 27.66676068 11.9362691 27 16 C25.89322771 18.35249001 24.66673923 19.96866157 23 22 C23.969375 22.763125 24.93875 23.52625 25.9375 24.3125 C28.42086332 26.26748815 28.9521672 26.85650159 30 30 C30.39509723 35.23503836 29.93380851 38.59928724 27 43 C21 47 21 47 0 47 C0 31.49 0 15.98 0 0 Z " fill="#090809" transform="translate(18,25)"/>
<path d="M0 0 C4.28892996 2.27060998 7.63979385 4.73347349 10 9 C10.79562414 14.30957333 10.64704364 18.60636754 8.375 23.5 C4.55541475 27.52061605 1.05076478 29.14247974 -4.4375 29.5625 C-8.99202329 29.40863097 -11.43877557 27.80081662 -14.625 24.63671875 C-17.88027816 20.76182799 -18.47004372 17.03121862 -18.30859375 11.98828125 C-17.67893473 7.93136429 -15.5795019 5.25890993 -12.421875 2.7421875 C-8.29388654 0.08316791 -4.96147008 -0.72166838 0 0 Z " fill="#F1ECFA" transform="translate(177,40)"/>
<path d="M0 0 C3.25616772 2.15823063 6.23409904 4.46819808 8 8 C8.52383318 13.25550671 8.61997842 17.66466186 6.375 22.5 C2.7053959 26.36274116 -0.69489499 28.12364837 -6 28.4375 C-11.02992611 28.23553356 -14.26893167 25.87120244 -17.640625 22.2265625 C-20.27370879 17.91375285 -19.57364218 12.86943988 -19 8 C-17.14181062 3.76332821 -15.70437531 2.41991605 -11.75 0.0625 C-7.39723924 -1.17078221 -4.28325356 -1.54230657 0 0 Z " fill="#F2EEFB" transform="translate(96,41)"/>
<path d="M0 0 C1.65 0 3.3 0 5 0 C5 15.51 5 31.02 5 47 C3.35 47 1.7 47 0 47 C-0.33 45.68 -0.66 44.36 -1 43 C-1.46148437 43.3609375 -1.92296875 43.721875 -2.3984375 44.09375 C-7.91833222 48.02094782 -12.29044115 49.00530427 -19 48 C-24.4451873 46.21984261 -27.78226393 42.611739 -31 38 C-33.01138947 31.9658316 -33.07756502 25.23494967 -30.3125 19.5 C-26.57575676 15.46027758 -22.53132181 11.57085277 -16.921875 10.6640625 C-11.05999568 10.55863302 -6.94938779 11.85612868 -2 15 C-1.67 15.33 -1.34 15.66 -1 16 C-0.67 10.72 -0.34 5.44 0 0 Z M-26.4375 21.75 C-28.36323166 25.75552186 -28.70746414 28.64167151 -28 33 C-26.19161195 38.12376615 -23.59717808 41.10548047 -19 44 C-14.35838873 44.97228651 -10.33791565 44.48575881 -6.125 42.3125 C-2.06731116 39.30981026 -0.38471626 37.53206109 0.3828125 32.48046875 C0.70082119 27.4268959 0.55385767 23.92722179 -2.75 19.9375 C-5.92673887 16.65647425 -8.76029816 15.1403436 -13.3125 14.625 C-19.19711485 15.22343541 -22.54315477 17.35637974 -26.4375 21.75 Z " fill="#101011" transform="translate(187,25)"/>
<path d="M0 0 C1.94361026 1.22426696 3.80704778 2.48985849 5.6328125 3.8828125 C5.9628125 2.5628125 6.2928125 1.2428125 6.6328125 -0.1171875 C8.2828125 -0.1171875 9.9328125 -0.1171875 11.6328125 -0.1171875 C11.6328125 11.4328125 11.6328125 22.9828125 11.6328125 34.8828125 C9.9828125 34.8828125 8.3328125 34.8828125 6.6328125 34.8828125 C6.6328125 33.5628125 6.6328125 32.2428125 6.6328125 30.8828125 C5.5190625 31.5221875 4.4053125 32.1615625 3.2578125 32.8203125 C-2.13182349 35.91436279 -6.09095433 36.69028109 -12.3671875 35.8828125 C-18.01621543 33.65394434 -21.46328642 30.22599048 -24.3671875 24.8828125 C-26.03793915 19.87055756 -26.43250268 14.57824358 -24.4609375 9.58984375 C-19.48027957 1.08121978 -9.61253715 -4.53660994 0 0 Z M-18.8046875 8.3203125 C-21.08800933 13.52628628 -21.26395681 18.28758515 -20.3671875 23.8828125 C-18.7714806 27.17514057 -16.45993624 29.05383069 -13.5546875 31.2578125 C-8.77090953 32.62460621 -4.72881246 32.35414422 -0.1171875 30.7578125 C3.36946965 28.38054626 4.84330615 26.73713386 6.6328125 22.8828125 C7.4445061 18.24356372 7.72907747 13.9296594 5.45703125 9.6875 C2.01516516 5.43630622 -1.27005865 3.29032945 -6.7421875 2.5703125 C-11.71855198 3.16273684 -15.25954055 4.77516555 -18.8046875 8.3203125 Z " fill="#121213" transform="translate(97.3671875,37.1171875)"/>
<path d="M0 0 C4.30029446 1.84640896 6.78701878 3.79378656 9.07519531 8.05493164 C10.73956324 12.95330254 10.25257028 18.16921518 10.1015625 23.27734375 C10.08351562 24.43814453 10.06546875 25.59894531 10.046875 26.79492188 C9.99997509 29.64409122 9.93435309 32.49152906 9.8515625 35.33984375 C8.2015625 35.33984375 6.5515625 35.33984375 4.8515625 35.33984375 C4.83754395 34.24313354 4.83754395 34.24313354 4.82324219 33.12426758 C4.76943586 29.79961657 4.68580746 26.47635697 4.6015625 23.15234375 C4.58738281 22.00185547 4.57320312 20.85136719 4.55859375 19.66601562 C4.52636719 18.55419922 4.49414062 17.44238281 4.4609375 16.296875 C4.43999023 15.2756958 4.41904297 14.2545166 4.39746094 13.20239258 C3.71883532 9.64385708 2.32731942 7.93811414 -0.1484375 5.33984375 C-3.24892678 3.78959911 -5.72737968 4.0499236 -9.1484375 4.33984375 C-11.90172771 6.1354678 -13.67471211 7.39239297 -15.1484375 10.33984375 C-15.30187959 12.22457234 -15.39803321 14.11412249 -15.46484375 16.00390625 C-15.50673828 17.12539063 -15.54863281 18.246875 -15.59179688 19.40234375 C-15.65077148 21.16578125 -15.65077148 21.16578125 -15.7109375 22.96484375 C-15.75412109 24.14820312 -15.79730469 25.3315625 -15.84179688 26.55078125 C-15.94811176 29.48034703 -16.05014392 32.40999963 -16.1484375 35.33984375 C-17.7984375 35.33984375 -19.4484375 35.33984375 -21.1484375 35.33984375 C-21.1484375 23.78984375 -21.1484375 12.23984375 -21.1484375 0.33984375 C-19.4984375 0.33984375 -17.8484375 0.33984375 -16.1484375 0.33984375 C-16.1484375 1.32984375 -16.1484375 2.31984375 -16.1484375 3.33984375 C-15.3234375 2.67984375 -14.4984375 2.01984375 -13.6484375 1.33984375 C-9.21715411 -1.57273688 -4.93104533 -1.51517575 0 0 Z " fill="#131314" transform="translate(138.1484375,36.66015625)"/>
<path d="M0 0 C13.13459268 -0.44273908 13.13459268 -0.44273908 19 3 C21.4915904 6.7373856 21.45793285 8.57331583 21 13 C19.20437595 15.75329021 17.94745078 17.52627461 15 19 C12.44612508 19.07173806 9.92723239 19.09287732 7.375 19.0625 C4.94125 19.041875 2.5075 19.02125 0 19 C0 12.73 0 6.46 0 0 Z " fill="#E8E3F1" transform="translate(22,49)"/>
<path d="M0 0 C2.5625 2.3125 2.5625 2.3125 4 5 C4 6.32 4 7.64 4 9 C1.625 8.75 1.625 8.75 -1 8 C-2.3125 5.9375 -2.3125 5.9375 -3 4 C-5.41645782 3.83312552 -5.41645782 3.83312552 -8 4 C-10.28728734 5.83883881 -10.28728734 5.83883881 -10.125 8.625 C-10.08375 9.40875 -10.0425 10.1925 -10 11 C-9.08476562 11.47050781 -8.16953125 11.94101562 -7.2265625 12.42578125 C-6.02583262 13.05428829 -4.8253232 13.68321663 -3.625 14.3125 C-3.02171875 14.62123047 -2.4184375 14.92996094 -1.796875 15.24804688 C1.38258325 16.92609428 2.96537552 17.94806328 5 21 C5.54531842 24.06526351 5.54325893 26.93408329 5 30 C2.81840855 32.75569447 1.12822506 34.43588747 -2 36 C-6.49529114 36.36846649 -8.94079501 36.56340691 -12.9375 34.4375 C-15.56356875 31.33396421 -15.76928323 28.9990906 -16 25 C-14.68 25 -13.36 25 -12 25 C-11.34 26.65 -10.68 28.3 -10 30 C-4.71800407 31.19988045 -4.71800407 31.19988045 0 29 C0.58345476 26.04253508 0.58345476 26.04253508 0 23 C-3.4751745 19.87553119 -7.66414119 18.15345634 -11.85546875 16.18359375 C-14 15 -14 15 -15 13 C-15.5811138 5.91041162 -15.5811138 5.91041162 -13.125 2.0625 C-9.07065564 -1.87259894 -5.26586307 -1.3749234 0 0 Z " fill="#0D0C0D" transform="translate(214,37)"/>
<path d="M0 0 C11.88452656 -0.4295612 11.88452656 -0.4295612 16 3 C17 4 17 4 17.375 7.8125 C17.29633659 10.94217979 17.11038931 11.84230099 15.25 14.5 C10.15965821 16.84938852 5.56835439 16.24476283 0 16 C0 10.72 0 5.44 0 0 Z " fill="#F3EEFC" transform="translate(23,29)"/>
<path d="M0 0 C0 1.65 0 3.3 0 5 C-1.11375 5.433125 -2.2275 5.86625 -3.375 6.3125 C-7.17512334 7.69911119 -7.17512334 7.69911119 -9 11 C-9.36798693 13.71075544 -9.36798693 13.71075544 -9.4140625 16.76171875 C-9.45273437 17.87998047 -9.49140625 18.99824219 -9.53125 20.15039062 C-9.5621875 21.31763672 -9.593125 22.48488281 -9.625 23.6875 C-9.66367187 24.86634766 -9.70234375 26.04519531 -9.7421875 27.25976562 C-9.83654391 30.17301977 -9.92213161 33.08626607 -10 36 C-11.65 36 -13.3 36 -15 36 C-15 24.45 -15 12.9 -15 1 C-13.35 1 -11.7 1 -10 1 C-9.67 1.66 -9.34 2.32 -9 3 C-8.071875 2.505 -7.14375 2.01 -6.1875 1.5 C-3 0 -3 0 0 0 Z " fill="#151416" transform="translate(69,36)"/>
</svg>
