<?xml version="1.0" encoding="UTF-8"?>
<svg version="1.1" xmlns="http://www.w3.org/2000/svg" width="289" height="106">
<path d="M0 0 C95.37 0 190.74 0 289 0 C289 34.98 289 69.96 289 106 C193.63 106 98.26 106 0 106 C0 71.02 0 36.04 0 0 Z " fill="#F4EFFD" transform="translate(0,0)"/>
<path d="M0 0 C4.4164509 2.56957143 7.95967375 5.47831707 10.4375 10 C10.9325 14.455 10.9325 14.455 11.4375 19 C0.8775 19 -9.6825 19 -20.5625 19 C-17.29250784 26.56765662 -17.29250784 26.56765662 -11.5625 31 C-6.75027926 31.85550591 -3.46609901 31.47644311 0.875 29.1875 C3.583059 27.07706695 3.583059 27.07706695 5.4375 24 C8.0625 23.8125 8.0625 23.8125 10.4375 24 C7.80741123 29.26017754 5.76281069 32.11545671 0.4375 35 C-4.58846932 36.51187695 -9.81897232 37.07523141 -14.78515625 35.12890625 C-19.59795135 32.38516325 -22.70812812 29.25756571 -24.5625 24 C-25.95651439 18.6272362 -25.93558443 13.98261658 -23.71484375 8.85546875 C-18.29029813 0.12103088 -9.62944488 -2.70300207 0 0 Z " fill="#0F0F10" transform="translate(263.5625,39)"/>
<path d="M0 0 C4.30742759 2.23654894 7.64038378 4.73453991 10 9 C10.79562414 14.30957333 10.64704364 18.60636754 8.375 23.5 C4.55541475 27.52061605 1.05076478 29.14247974 -4.4375 29.5625 C-8.99202329 29.40863097 -11.43877557 27.80081662 -14.625 24.63671875 C-17.88166691 20.7601749 -18.46448293 17.03221464 -18.3125 11.98828125 C-17.57685814 7.30775993 -14.69857159 4.60331182 -11.25 1.625 C-7.26765099 -0.36617451 -4.36551215 -0.86437141 0 0 Z " fill="#F0ECF9" transform="translate(198,42)"/>
<path d="M0 0 C4.79678945 2.39839473 7.63683712 5.18278335 10 10 C10.83928774 14.77023745 10.48855428 18.05778817 8.25 22.375 C4.30514682 26.97732871 1.35882534 28.76411747 -4.75 29.375 C-8.91110814 29.32893607 -11.28606037 27.94724754 -14.5546875 25.484375 C-17.69528855 22.25889284 -18.34997727 19.10691964 -18.5 14.6875 C-18.41765469 9.55464212 -17.23609776 6.98879794 -13.703125 3.33984375 C-9.44878031 -0.00703751 -5.36003009 -0.82780387 0 0 Z " fill="#F0ECF9" transform="translate(81,42)"/>
<path d="M0 0 C5.01618105 2.4810248 5.01618105 2.4810248 6.671875 4.13671875 C7.001875 2.81671875 7.331875 1.49671875 7.671875 0.13671875 C9.321875 0.13671875 10.971875 0.13671875 12.671875 0.13671875 C12.671875 11.68671875 12.671875 23.23671875 12.671875 35.13671875 C11.021875 35.13671875 9.371875 35.13671875 7.671875 35.13671875 C7.341875 33.81671875 7.011875 32.49671875 6.671875 31.13671875 C6.28 31.59046875 5.888125 32.04421875 5.484375 32.51171875 C1.43908929 36.13852662 -2.81577365 36.53540834 -8.05859375 36.37890625 C-14.54549665 35.68667221 -18.20152258 32.68680085 -22.1640625 27.85546875 C-25.45972756 22.98938611 -24.86357885 16.75154732 -24.328125 11.13671875 C-19.78675444 1.7175798 -10.15580273 -3.76582618 0 0 Z M-18.328125 9.13671875 C-20.70349439 12.9957331 -20.86817291 16.70489702 -20.328125 21.13671875 C-18.51973695 26.2604849 -15.92530308 29.24219922 -11.328125 32.13671875 C-6.68651373 33.10900526 -2.66604065 32.62247756 1.546875 30.44921875 C5.60456384 27.44652901 7.28715874 25.66877984 8.0546875 20.6171875 C8.37269619 15.56361465 8.22573267 12.06394054 4.921875 8.07421875 C1.58376494 4.62652427 -1.31534279 3.27175638 -6.078125 2.63671875 C-11.23698569 2.7526482 -14.81418516 5.54029205 -18.328125 9.13671875 Z " fill="#111012" transform="translate(200.328125,38.86328125)"/>
<path d="M0 0 C2.30006465 1.23708656 3.75718922 2.25718922 5.625 4.125 C5.955 2.475 6.285 0.825 6.625 -0.875 C7.945 -0.875 9.265 -0.875 10.625 -0.875 C10.625 10.675 10.625 22.225 10.625 34.125 C9.305 34.125 7.985 34.125 6.625 34.125 C6.13 32.145 6.13 32.145 5.625 30.125 C4.2328125 31.0840625 4.2328125 31.0840625 2.8125 32.0625 C-2.46985708 35.48049576 -7.2180756 35.92768051 -13.375 35.125 C-19.02406297 32.89232094 -22.4699325 29.4703242 -25.375 24.125 C-27.07262422 19.03212735 -27.00997195 14.10928733 -25.375 9 C-19.1752544 0.0878657 -10.49904996 -5.14434324 0 0 Z M-19.75 8.1875 C-22.26384544 12.73175906 -22.11253515 17.05165212 -21.375 22.125 C-19.23760117 26.5581235 -16.9575842 29.25030646 -12.375 31.125 C-6.7490378 31.66080592 -3.21357217 31.31405893 1.625 28.125 C5.7176331 23.58992008 7.09165859 20.60983283 7.04296875 14.58203125 C6.30580998 10.24863999 3.75154001 7.11529171 0.625 4.125 C-7.38184462 -0.77161613 -13.38442825 2.65950348 -19.75 8.1875 Z " fill="#0B0B0C" transform="translate(84.375,39.875)"/>
<path d="M0 0 C1.32 0 2.64 0 4 0 C4 6.93 4 13.86 4 21 C12.25 21 20.5 21 29 21 C29 14.07 29 7.14 29 0 C30.32 0 31.64 0 33 0 C33 15.51 33 31.02 33 47 C31.68 47 30.36 47 29 47 C29 39.74 29 32.48 29 25 C20.75 25 12.5 25 4 25 C4 32.26 4 39.52 4 47 C2.68 47 1.36 47 0 47 C0 31.49 0 15.98 0 0 Z " fill="#010101" transform="translate(17,27)"/>
<path d="M0 0 C4.85903803 2.20865365 7.77547818 4.94678113 10.8125 9.3125 C10.8125 9.9725 10.8125 10.6325 10.8125 11.3125 C8.5625 11.625 8.5625 11.625 5.8125 11.3125 C4.43767293 9.67989286 3.10602333 8.01024938 1.8125 6.3125 C-2.15283466 4.06190465 -5.68403782 3.83845135 -10.1875 4.3125 C-14.10072118 6.4196191 -16.86600865 8.52409527 -19.1875 12.3125 C-19.62318488 14.95767257 -19.62318488 14.95767257 -19.5 17.75 C-19.49613281 18.67683594 -19.49226562 19.60367188 -19.48828125 20.55859375 C-19.16798303 23.49119434 -18.49518725 25.67402149 -17.1875 28.3125 C-15.25366713 29.61315921 -15.25366713 29.61315921 -13.1875 30.3125 C-12.5275 30.6425 -11.8675 30.9725 -11.1875 31.3125 C-5.53576337 31.68928244 -2.11406491 31.40592448 2.8125 28.3125 C3.328125 27.755625 3.84375 27.19875 4.375 26.625 C5.8125 25.3125 5.8125 25.3125 8.5 25.125 C9.6446875 25.2178125 9.6446875 25.2178125 10.8125 25.3125 C10.15310948 28.19733351 9.33752474 29.91094506 6.96875 31.72265625 C0.60829935 35.67489279 -3.61139898 37.06788837 -11.1875 36.3125 C-17.25230459 34.73777881 -20.91993102 31.1766306 -24.1171875 25.8828125 C-26.00914019 21.33936408 -26.05430126 17.11726906 -25.1875 12.3125 C-20.48023823 2.5358794 -10.68796564 -3.35907492 0 0 Z " fill="#131314" transform="translate(159.1875,38.6875)"/>
<path d="M0 0 C4.32272121 2.28849946 7.28601207 4.9290181 10 9 C10 9.99 10 10.98 10 12 C1.09 12 -7.82 12 -17 12 C-14.79492012 5.38476037 -14.17214967 4.77135914 -9 1 C-5.89046621 -0.5547669 -3.43733239 -0.28644437 0 0 Z " fill="#F0EBF9" transform="translate(260,42)"/>
<path d="M0 0 C0 1.65 0 3.3 0 5 C-1.11375 5.433125 -2.2275 5.86625 -3.375 6.3125 C-7.17512334 7.69911119 -7.17512334 7.69911119 -9 11 C-9.36798693 13.71075544 -9.36798693 13.71075544 -9.4140625 16.76171875 C-9.45273438 17.87998047 -9.49140625 18.99824219 -9.53125 20.15039062 C-9.5621875 21.31763672 -9.593125 22.48488281 -9.625 23.6875 C-9.66367188 24.86634766 -9.70234375 26.04519531 -9.7421875 27.25976562 C-9.83654391 30.17301977 -9.92213161 33.08626607 -10 36 C-11.65 36 -13.3 36 -15 36 C-15 24.45 -15 12.9 -15 1 C-13.35 1 -11.7 1 -10 1 C-9.67 1.66 -9.34 2.32 -9 3 C-8.2575 2.505 -7.515 2.01 -6.75 1.5 C-4 0 -4 0 0 0 Z " fill="#151516" transform="translate(131,38)"/>
<path d="M0 0 C0 1.65 0 3.3 0 5 C-0.928125 5.4125 -1.85625 5.825 -2.8125 6.25 C-6.0289508 8.01589456 -7.1687773 8.91788346 -9 12 C-9.50032958 14.69964156 -9.50032958 14.69964156 -9.51171875 17.640625 C-9.56489258 19.24550781 -9.56489258 19.24550781 -9.61914062 20.8828125 C-9.64169922 21.99398437 -9.66425781 23.10515625 -9.6875 24.25 C-9.72166016 25.37664063 -9.75582031 26.50328125 -9.79101562 27.6640625 C-9.87343014 30.44260901 -9.94260298 33.22084252 -10 36 C-11.32 36 -12.64 36 -14 36 C-14 24.45 -14 12.9 -14 1 C-12.68 1 -11.36 1 -10 1 C-9.67 1.99 -9.34 2.98 -9 4 C-8.566875 3.525625 -8.13375 3.05125 -7.6875 2.5625 C-5.20984394 0.26837402 -3.33340345 0 0 0 Z " fill="#050505" transform="translate(235,38)"/>
<path d="M0 0 C1.65 0 3.3 0 5 0 C5 11.55 5 23.1 5 35 C3.35 35 1.7 35 0 35 C0 23.45 0 11.9 0 0 Z " fill="#19181A" transform="translate(103,39)"/>
<path d="M0 0 C1.65 0 3.3 0 5 0 C5 2.64 5 5.28 5 8 C3.35 8 1.7 8 0 8 C0 5.36 0 2.72 0 0 Z " fill="#1F1E20" transform="translate(103,27)"/>
</svg>
