<?xml version="1.0" encoding="UTF-8"?>
<svg version="1.1" xmlns="http://www.w3.org/2000/svg" width="203" height="96">
<path d="M0 0 C66.99 0 133.98 0 203 0 C203 31.68 203 63.36 203 96 C136.01 96 69.02 96 0 96 C0 64.32 0 32.64 0 0 Z " fill="#F4F0FD" transform="translate(0,0)"/>
<path d="M0 0 C5.13077957 2.66040422 9.03655378 5.33465087 11.375 10.75 C11.375 13.39 11.375 16.03 11.375 18.75 C1.145 18.75 -9.085 18.75 -19.625 18.75 C-17.45283392 26.35290876 -17.45283392 26.35290876 -13.9375 29.25 C-9.62506782 31.20279948 -7.33609167 31.27345463 -2.625 30.75 C0.46000093 29.37888848 1.96865626 28.34258462 3.875 25.5625 C4.37 24.964375 4.865 24.36625 5.375 23.75 C8.0625 23.5 8.0625 23.5 10.375 23.75 C8.73616405 28.96447803 5.87363408 32.25081955 1.1875 35.0625 C-4.48459549 36.44901223 -10.24998784 36.87392907 -15.5 34 C-20.52717006 30.38043756 -23.25061485 27.93473318 -24.625 21.75 C-25.43008047 15.35229384 -24.90578828 10.75813977 -21.125 5.44140625 C-15.31320758 -1.1119951 -8.17888929 -2.82030665 0 0 Z " fill="#101011" transform="translate(71.625,32.25)"/>
<path d="M0 0 C4.28892996 2.27060998 7.63979385 4.73347349 10 9 C10.79954594 14.33574535 10.66907031 18.61229861 8.3125 23.5 C4.48682421 27.63586572 1.74938493 29.17901921 -3.875 29.5625 C-8.71415208 29.42527031 -11.17080228 27.99125552 -14.625 24.703125 C-17.62883235 20.98246902 -18.44619617 17.86096703 -18.3203125 13.0234375 C-17.53187174 8.04279954 -13.67863578 4.2039731 -10 1 C-6.38069302 -0.20643566 -3.80768995 -0.32268559 0 0 Z " fill="#F1ECF9" transform="translate(111,35)"/>
<path d="M0 0 C1.94361026 1.22426696 3.80704778 2.48985849 5.6328125 3.8828125 C5.9628125 2.5628125 6.2928125 1.2428125 6.6328125 -0.1171875 C8.2828125 -0.1171875 9.9328125 -0.1171875 11.6328125 -0.1171875 C11.6328125 11.4328125 11.6328125 22.9828125 11.6328125 34.8828125 C9.9828125 34.8828125 8.3328125 34.8828125 6.6328125 34.8828125 C6.3028125 33.8928125 5.9728125 32.9028125 5.6328125 31.8828125 C4.7046875 32.5428125 3.7765625 33.2028125 2.8203125 33.8828125 C-2.07608395 36.6481862 -6.88683148 36.81062026 -12.3671875 35.8828125 C-17.27027762 33.77343711 -21.64347412 30.59896692 -24.52734375 26.0546875 C-26.51280855 20.92018319 -26.38401662 14.58853805 -24.45703125 9.4609375 C-19.5076897 0.99453974 -9.49915198 -4.48309813 0 0 Z M-18.1171875 8.9453125 C-21.06364857 12.79208112 -21.71944838 14.88931173 -21.6484375 19.7890625 C-21.04871629 24.25365372 -18.13252238 27.02743823 -15.2421875 30.2578125 C-10.97945774 32.66718149 -7.15191176 32.64192741 -2.3671875 31.8828125 C2.04083875 29.71887234 4.86420476 27.50084383 6.6328125 22.8828125 C7.34333623 18.25364275 7.73497401 13.89095791 5.42578125 9.68359375 C2.84222803 6.56370797 0.40000703 4.44820984 -3.3671875 2.8828125 C-10.18965672 2.26258803 -13.74762402 3.83916546 -18.1171875 8.9453125 Z " fill="#111112" transform="translate(114.3671875,32.1171875)"/>
<path d="M0 0 C4.26876694 1.66668988 7.66820955 3.98413866 10 8 C11.0592918 11.17787541 11.11458939 13.42588943 11.09765625 16.76171875 C11.09443359 17.87998047 11.09121094 18.99824219 11.08789062 20.15039062 C11.07951172 21.31763672 11.07113281 22.48488281 11.0625 23.6875 C11.05798828 24.86634766 11.05347656 26.04519531 11.04882812 27.25976562 C11.03703273 30.17322789 11.0205727 33.08658863 11 36 C9.68 36 8.36 36 7 36 C6.98018066 35.33468262 6.96036133 34.66936523 6.93994141 33.98388672 C6.84423582 30.94721732 6.73474192 27.91119322 6.625 24.875 C6.5940625 23.82828125 6.563125 22.7815625 6.53125 21.703125 C6.27801959 14.15290129 6.27801959 14.15290129 4 7 C0.29532213 4.41795179 -3.50058904 4.9159864 -7.81640625 5.22265625 C-11.02227936 6.36392414 -12.11896469 8.20682317 -14 11 C-14.6325717 13.8836852 -14.6325717 13.8836852 -14.609375 16.95703125 C-14.64160156 18.06884766 -14.67382812 19.18066406 -14.70703125 20.32617188 C-14.72121094 21.47666016 -14.73539063 22.62714844 -14.75 23.8125 C-14.77964844 24.98232422 -14.80929688 26.15214844 -14.83984375 27.35742188 C-14.91039709 30.23835009 -14.96316729 33.11847578 -15 36 C-16.65 36 -18.3 36 -20 36 C-20 24.45 -20 12.9 -20 1 C-18.35 1 -16.7 1 -15 1 C-14.67 1.99 -14.34 2.98 -14 4 C-13.175 3.34 -12.35 2.68 -11.5 2 C-7.81781962 -0.42590708 -4.29958813 -0.83003632 0 0 Z " fill="#100F10" transform="translate(173,31)"/>
<path d="M0 0 C1.65 0 3.3 0 5 0 C5 14.19 5 28.38 5 43 C11.27 43 17.54 43 24 43 C24 44.32 24 45.64 24 47 C16.08 47 8.16 47 0 47 C0 31.49 0 15.98 0 0 Z " fill="#080808" transform="translate(20,20)"/>
<path d="M0 0 C4.19224724 1.66659009 7.84238359 3.9386044 10 8 C10 9.32 10 10.64 10 12 C1.42 12 -7.16 12 -16 12 C-14.91264568 6.5632284 -13.99720026 5.52134308 -10 2 C-6.22786948 -0.51475368 -4.47964158 -0.44796416 0 0 Z " fill="#EEE9F7" transform="translate(68,35)"/>
<path d="M0 0 C0 1.65 0 3.3 0 5 C-1.11375 5.45375 -2.2275 5.9075 -3.375 6.375 C-6.96199008 7.72465986 -6.96199008 7.72465986 -9 10 C-9.37207354 12.71615864 -9.37207354 12.71615864 -9.4140625 15.8828125 C-9.45273438 17.04941406 -9.49140625 18.21601562 -9.53125 19.41796875 C-9.5621875 20.64128906 -9.593125 21.86460938 -9.625 23.125 C-9.66367188 24.35605469 -9.70234375 25.58710937 -9.7421875 26.85546875 C-9.8366999 29.90349376 -9.92225494 32.95150862 -10 36 C-11.65 36 -13.3 36 -15 36 C-15 24.45 -15 12.9 -15 1 C-13.35 1 -11.7 1 -10 1 C-9.67 1.66 -9.34 2.32 -9 3 C-8.2575 2.505 -7.515 2.01 -6.75 1.5 C-4 0 -4 0 0 0 Z " fill="#161617" transform="translate(149,31)"/>
</svg>
