<?xml version="1.0" encoding="UTF-8"?>
<svg version="1.1" xmlns="http://www.w3.org/2000/svg" width="212" height="97">
<path d="M0 0 C69.96 0 139.92 0 212 0 C212 32.01 212 64.02 212 97 C142.04 97 72.08 97 0 97 C0 64.99 0 32.98 0 0 Z " fill="#F4EFFD" transform="translate(0,0)"/>
<path d="M0 0 C5.30617672 2.96678017 9.94320464 7.70461393 11.875 13.5 C12.44932135 19.81753485 12.07289025 24.87612405 8.875 30.5 C5.0018315 35.1262846 0.54340895 38.9065809 -5.515625 39.88671875 C-11.5234154 40.15393642 -16.22842789 39.04428939 -21.125 35.5 C-25.29732391 31.6249409 -27.7544554 27.32784038 -28.49609375 21.66796875 C-28.65295645 14.6276015 -28.0158264 9.76892021 -23.125 4.5 C-16.3316702 -1.4460217 -8.50993146 -3.7656032 0 0 Z " fill="#F2EDFB" transform="translate(50.125,28.5)"/>
<path d="M0 0 C3.79245637 2.64857783 6.86094673 6.2101747 8.9296875 10.34765625 C8.9296875 12.65765625 8.9296875 14.96765625 8.9296875 17.34765625 C-1.6303125 17.34765625 -12.1903125 17.34765625 -23.0703125 17.34765625 C-19.78483108 24.89605197 -19.78483108 24.89605197 -14.0703125 29.34765625 C-8.4456883 29.97261449 -4.92175213 29.50673322 -0.0703125 26.34765625 C0.4453125 25.62578125 0.9609375 24.90390625 1.4921875 24.16015625 C1.9665625 23.56203125 2.4409375 22.96390625 2.9296875 22.34765625 C5.6171875 22.09765625 5.6171875 22.09765625 7.9296875 22.34765625 C5.33609225 28.35387684 1.94748263 31.79958083 -4.0703125 34.34765625 C-10.58989557 35.30939599 -16.04121819 34.85484936 -21.41015625 30.875 C-25.36048994 27.240693 -26.81925804 24.44239192 -27.4453125 19.21875 C-27.62972939 14.15304856 -27.57139704 10.40550139 -25.3828125 5.78515625 C-17.92974876 -2.07077581 -10.0833805 -5.47327463 0 0 Z " fill="#101011" transform="translate(140.0703125,37.65234375)"/>
<path d="M0 0 C6.03191961 4.79660028 9.203651 9.82536673 10.27734375 17.484375 C10.63427452 24.68705499 9.34802654 29.87007265 4.8671875 35.55859375 C0.08419735 40.73921966 -5.10487387 44.14084339 -12.18359375 44.875 C-20.94906045 45.18841346 -26.40723725 43.87021619 -32.9453125 38.05859375 C-38.9438381 31.20313593 -40.64860847 25.6859483 -40.43359375 16.51953125 C-39.63623045 8.6701627 -35.34468095 4.11100077 -29.421875 -0.80859375 C-20.74268533 -6.99955157 -8.52983256 -5.76466706 0 0 Z M-31.0078125 6.55859375 C-35.49865801 12.89861094 -35.90692529 17.83731488 -35.1328125 25.55859375 C-33.37181566 32.26821461 -28.96313628 36.09870962 -23.1328125 39.55859375 C-17.79191042 41.33889444 -12.66402329 41.60213144 -7.39453125 39.4296875 C-1.75798122 36.23146726 2.48189893 33.08198501 4.44140625 26.68359375 C5.47434668 21.52836812 5.44051268 16.38606775 3.8671875 11.37109375 C0.26227725 6.30168871 -4.87746876 0.93171798 -11.1328125 -0.44140625 C-19.09571823 -1.40986776 -25.64592172 0.38144472 -31.0078125 6.55859375 Z " fill="#0C0C0D" transform="translate(57.1328125,27.44140625)"/>
<path d="M0 0 C2.9375 2.3125 2.9375 2.3125 5 5 C5 6.32 5 7.64 5 9 C2.525 8.505 2.525 8.505 0 8 C-0.33 7.01 -0.66 6.02 -1 5 C-3.90073181 4.32198966 -3.90073181 4.32198966 -7 4 C-9.28728734 5.83883881 -9.28728734 5.83883881 -9.125 8.625 C-9.08375 9.40875 -9.0425 10.1925 -9 11 C-8.08476562 11.47050781 -7.16953125 11.94101562 -6.2265625 12.42578125 C-5.02583262 13.05428829 -3.8253232 13.68321663 -2.625 14.3125 C-2.02171875 14.62123047 -1.4184375 14.92996094 -0.796875 15.24804688 C2.38258325 16.92609428 3.96537552 17.94806328 6 21 C6.73446576 25.56051995 6.59262059 29.01911074 4.1875 33 C0.77218243 36.12257607 -2.4449125 36.35725299 -6.99609375 36.2734375 C-10.34408653 35.81659638 -11.85003481 34.54086795 -14 32 C-14.8125 28.25 -14.8125 28.25 -15 25 C-13.68 25 -12.36 25 -11 25 C-10.01 26.98 -9.02 28.96 -8 31 C-3.8539119 31.34778172 -3.8539119 31.34778172 -0.125 29.8125 C1.42229478 27.31963619 1.50405716 25.88032665 1 23 C-1.25554713 20.65423099 -3.47452965 19.8051039 -6.5 18.5625 C-9.99050551 17.00423861 -11.86961529 16.15296937 -14 13 C-14.60618886 8.22626273 -14.71591834 6.16028144 -12.1875 2.0625 C-8.23971834 -1.65969413 -5.06507729 -1.22260486 0 0 Z " fill="#0C0C0D" transform="translate(188,36)"/>
<path d="M0 0 C0 1.32 0 2.64 0 4 C-0.94875 4.28875 -1.8975 4.5775 -2.875 4.875 C-6.05211578 5.76825109 -6.05211578 5.76825109 -8 8 C-8.64767793 10.57061311 -8.64767793 10.57061311 -9 13 C-6.03 13 -3.06 13 0 13 C0 14.32 0 15.64 0 17 C-2.97 17 -5.94 17 -9 17 C-9 27.23 -9 37.46 -9 48 C-10.65 48 -12.3 48 -14 48 C-14 37.77 -14 27.54 -14 17 C-15.65 17 -17.3 17 -19 17 C-19 15.68 -19 14.36 -19 13 C-17.35 13 -15.7 13 -14 13 C-13.979375 11.96875 -13.95875 10.9375 -13.9375 9.875 C-12.84140793 5.3444861 -11.50103279 3.87774145 -7.921875 1.08984375 C-5.20932666 -0.44836964 -3.0409975 -0.44502402 0 0 Z " fill="#0E0E0F" transform="translate(90,23)"/>
<path d="M0 0 C0 1.32 0 2.64 0 4 C-1.11375 4.37125 -2.2275 4.7425 -3.375 5.125 C-6.61378762 6.4794021 -6.89272441 6.76212803 -8.4375 10.1875 C-8.623125 11.115625 -8.80875 12.04375 -9 13 C-6.03 13 -3.06 13 0 13 C0 14.32 0 15.64 0 17 C-2.97 17 -5.94 17 -9 17 C-9 27.23 -9 37.46 -9 48 C-10.32 48 -11.64 48 -13 48 C-13 37.77 -13 27.54 -13 17 C-14.98 17 -16.96 17 -19 17 C-19 15.68 -19 14.36 -19 13 C-17.02 13 -15.04 13 -13 13 C-13.103125 12.13375 -13.20625 11.2675 -13.3125 10.375 C-12.88126027 5.71761095 -11.23508273 4.31210851 -8 1 C-5.29120665 -0.35439668 -2.99066732 -0.06501451 0 0 Z " fill="#040404" transform="translate(110,23)"/>
<path d="M0 0 C4.32272121 2.28849946 7.28601207 4.9290181 10 9 C10 9.99 10 10.98 10 12 C1.42 12 -7.16 12 -16 12 C-14.8737819 5.24269142 -14.8737819 5.24269142 -12.0625 3.1875 C-7.65713329 0.04080949 -5.46284293 -0.45523691 0 0 Z " fill="#EFEAF8" transform="translate(134,39)"/>
<path d="M0 0 C1.32 0 2.64 0 4 0 C4.33 1.32 4.66 2.64 5 4 C5.556875 3.34 6.11375 2.68 6.6875 2 C9 0 9 0 11.75 -0.25 C12.4925 -0.1675 13.235 -0.085 14 0 C14 1.32 14 2.64 14 4 C13.071875 4.37125 12.14375 4.7425 11.1875 5.125 C7.22525337 7.45573331 6.60539777 8.70649432 5 13 C4.51153895 16.78802085 4.39866598 20.55907821 4.3125 24.375 C4.27833984 25.39722656 4.24417969 26.41945313 4.20898438 27.47265625 C4.12691412 29.98166114 4.05763124 32.49033465 4 35 C2.68 35 1.36 35 0 35 C0 23.45 0 11.9 0 0 Z " fill="#030303" transform="translate(156,36)"/>
</svg>
