<svg width="157" height="51" viewBox="0 0 157 51" fill="none" xmlns="http://www.w3.org/2000/svg">
<rect width="157" height="51" rx="8" fill="url(#paint0_linear_52_336)"/>
<path d="M22.2568 32V18.6846H22.9248H26.3174C27.876 18.6846 29.0947 19.0596 29.9736 19.8096C30.8525 20.5537 31.292 21.5908 31.292 22.9209C31.292 24.2451 30.8525 25.2793 29.9736 26.0234C29.2939 26.5918 28.4121 26.9463 27.3281 27.0869L31.1338 32H30.29H29.4463L24.8848 25.9443H26.3174C27.4541 25.9443 28.3418 25.6777 28.9805 25.1445C29.6191 24.6113 29.9385 23.8701 29.9385 22.9209C29.9385 21.9658 29.6191 21.2217 28.9805 20.6885C28.3418 20.1494 27.4541 19.8799 26.3174 19.8799H23.5928V32H22.9248H22.2568ZM37.7432 32.2285C36.3135 32.2285 35.1006 31.7305 34.1045 30.7344C33.1143 29.7383 32.6191 28.5195 32.6191 27.0781C32.6191 25.6309 33.1143 24.4092 34.1045 23.4131C35.1006 22.417 36.3135 21.9189 37.7432 21.9189C39.1846 21.9189 40.4004 22.417 41.3906 23.4131C42.3809 24.4092 42.876 25.6309 42.876 27.0781C42.8818 27.2363 42.873 27.3945 42.8496 27.5527H33.9111C33.999 28.4727 34.3682 29.2695 35.0186 29.9434C35.7744 30.7227 36.6973 31.1123 37.7871 31.1123C38.5664 31.1123 39.249 30.916 39.835 30.5234C40.4268 30.1309 40.9014 29.5566 41.2588 28.8008H42.5684C42.2168 29.8262 41.5986 30.6553 40.7139 31.2881C39.8291 31.915 38.8389 32.2285 37.7432 32.2285ZM41.5664 26.4189C41.4434 25.5635 41.083 24.8252 40.4854 24.2041C39.7412 23.4248 38.8271 23.0352 37.7432 23.0352C36.665 23.0352 35.751 23.4277 35.001 24.2129C34.4209 24.8281 34.0605 25.5635 33.9199 26.4189H41.5664ZM44.8096 32V22.1475H45.4336H46.0664V23.4219L46.2686 23.1758C46.96 22.3203 47.918 21.8926 49.1426 21.8926C50.502 21.8926 51.5625 22.3115 52.3242 23.1494C53.0859 23.9873 53.4668 25.1533 53.4668 26.6475V32H52.834H52.2012V26.6123C52.2012 25.4932 51.9316 24.6172 51.3926 23.9844C50.8535 23.3516 50.1035 23.0352 49.1426 23.0352C48.1582 23.0352 47.3994 23.3574 46.8662 24.002C46.3389 24.6406 46.0752 25.5547 46.0752 26.7441V32H45.4424H44.8096ZM64.04 22.1475L58.2656 35.498H57.6504H57.0264L58.7139 31.5518L54.8994 22.1475H55.585H56.2705L59.3643 30.0225L62.7041 22.1475H63.3721H64.04ZM70.1748 32.2285C68.7393 32.2285 67.5234 31.7305 66.5273 30.7344C65.5312 29.7383 65.0332 28.5195 65.0332 27.0781C65.0332 25.6309 65.5312 24.4092 66.5273 23.4131C67.5234 22.417 68.7393 21.9189 70.1748 21.9189C71.6221 21.9189 72.8408 22.417 73.8311 23.4131C74.8271 24.4092 75.3252 25.6309 75.3252 27.0781C75.3252 28.5195 74.8271 29.7383 73.8311 30.7344C72.8408 31.7305 71.6221 32.2285 70.1748 32.2285ZM70.1748 31.1123C71.2646 31.1123 72.1846 30.7227 72.9346 29.9434C73.6846 29.1641 74.0596 28.209 74.0596 27.0781C74.0596 25.9473 73.6846 24.9922 72.9346 24.2129C72.1846 23.4277 71.2646 23.0352 70.1748 23.0352C69.0908 23.0352 68.1738 23.4277 67.4238 24.2129C66.6738 24.9922 66.2988 25.9473 66.2988 27.0781C66.2988 28.209 66.6738 29.1641 67.4238 29.9434C68.1738 30.7227 69.0908 31.1123 70.1748 31.1123ZM78.4541 22.1475V27.9922C78.4541 28.9707 78.7148 29.7354 79.2363 30.2861C79.7578 30.8311 80.4814 31.1035 81.4072 31.1035C82.4092 31.1035 83.1826 30.7812 83.7275 30.1367C84.2725 29.4922 84.5449 28.5723 84.5449 27.377V22.1475H85.1777H85.8105V32H85.2217H84.624V30.418C84.5244 30.5996 84.4072 30.7754 84.2725 30.9453C83.5928 31.8008 82.6494 32.2285 81.4424 32.2285C80.1064 32.2285 79.0635 31.8564 78.3135 31.1123C77.5635 30.3682 77.1885 29.3369 77.1885 28.0186V22.1475H77.8213H78.4541ZM92.2354 32L97.957 18.6846H98.6865H99.416L105.138 32H104.408H103.679L101.78 27.5H95.5225L93.6416 32H92.9385H92.2354ZM98.6514 20.0557L96.0322 26.2959H101.297L98.6514 20.0557ZM106.509 32V22.1475H107.142H107.774V32H107.142H106.509ZM106.518 18.6846H107.766V20.9434H106.518V18.6846Z" fill="white"/>
<path d="M140.335 12.0082C140.421 11.6623 140.913 11.6623 140.998 12.0082C141.362 13.4846 142.515 14.6373 143.992 15.0018C144.337 15.0872 144.337 15.5789 143.992 15.6643C142.515 16.0287 141.362 17.1814 140.998 18.6578C140.913 19.0037 140.421 19.0037 140.335 18.6578C139.971 17.1814 138.818 16.0287 137.342 15.6643C136.996 15.5789 136.996 15.0872 137.342 15.0018C138.818 14.6373 139.971 13.4846 140.335 12.0082Z" fill="white"/>
<path d="M143.979 10.5431C144.014 10.4031 144.213 10.4031 144.247 10.5431C144.395 11.1407 144.861 11.6072 145.459 11.7548C145.599 11.7893 145.599 11.9883 145.459 12.0229C144.861 12.1704 144.395 12.637 144.247 13.2346C144.213 13.3746 144.014 13.3746 143.979 13.2346C143.831 12.637 143.365 12.1704 142.767 12.0229C142.627 11.9883 142.627 11.7893 142.767 11.7548C143.365 11.6072 143.831 11.1407 143.979 10.5431Z" fill="white"/>
<path d="M133.496 26.7651C132.749 26.3264 132.747 25.2256 133.493 24.7843L137.871 22.1921L139.576 21.1829C141.51 20.038 143.932 21.4611 143.935 23.7444L143.936 24.5714C143.942 28.2764 140.02 30.5987 136.876 28.7516L133.496 26.7651Z" fill="white"/>
<path d="M136.029 19.1108C137.226 19.8169 137.226 21.5821 136.029 22.2882L135.052 22.8651L132.412 24.4218C131.953 24.6923 131.38 24.354 131.38 23.8129V20.6995V18.3497C131.38 17.469 132.313 16.9189 133.059 17.359L135.052 18.5339L136.029 19.1108Z" fill="white"/>
<path d="M134.074 33.5898C132.877 34.2959 131.38 33.4133 131.38 32.0011V30.8479V27.7345C131.38 27.1934 131.954 26.855 132.412 27.1256L135.052 28.6823L137.044 29.8572C137.79 30.2972 137.79 31.398 137.044 31.838L135.052 33.0129L134.074 33.5898H134.074Z" fill="white"/>
<path d="M128.441 26.7651C129.187 26.3264 129.189 25.2257 128.444 24.7844L124.065 22.1922L122.36 21.1829C120.427 20.0374 118.005 21.4611 118.001 23.7444L118 24.5707C117.994 28.2758 121.917 30.5981 125.061 28.751L128.441 26.7645V26.7651Z" fill="white"/>
<path d="M125.904 19.1108C124.707 19.8169 124.707 21.5821 125.904 22.2882L126.882 22.8651L129.521 24.4218C129.98 24.6923 130.553 24.354 130.553 23.8129V20.6995V18.3497C130.553 17.469 129.62 16.9189 128.874 17.359L126.882 18.5339L125.904 19.1108Z" fill="white"/>
<path d="M127.86 33.5898C129.057 34.2959 130.554 33.4133 130.554 32.0011V30.8479V27.7345C130.554 27.1934 129.981 26.855 129.522 27.1256L126.883 28.6823L124.891 29.8572C124.144 30.2972 124.144 31.398 124.891 31.838L126.883 33.0129L127.861 33.5898H127.86Z" fill="white"/>
<defs>
<linearGradient id="paint0_linear_52_336" x1="0" y1="25.5" x2="157" y2="25.5" gradientUnits="userSpaceOnUse">
<stop stop-color="#34306F"/>
<stop offset="1" stop-color="#645CD5"/>
</linearGradient>
</defs>
</svg>
