<?xml version="1.0" encoding="UTF-8"?>
<svg version="1.1" xmlns="http://www.w3.org/2000/svg" width="285" height="104">
<path d="M0 0 C94.05 0 188.1 0 285 0 C285 34.32 285 68.64 285 104 C190.95 104 96.9 104 0 104 C0 69.68 0 35.36 0 0 Z " fill="#F4EFFD" transform="translate(0,0)"/>
<path d="M0 0 C4.33932426 2.00338896 7.13053588 4.20533164 9.77734375 8.27734375 C10.18984375 8.89609375 10.60234375 9.51484375 11.02734375 10.15234375 C11.77734375 12.27734375 11.77734375 12.27734375 11.77734375 19.27734375 C1.21734375 19.27734375 -9.34265625 19.27734375 -20.22265625 19.27734375 C-16.65806766 27.21842991 -16.65806766 27.21842991 -10.22265625 31.27734375 C-5.00235094 31.92988191 -1.65001683 31.09475503 2.77734375 28.27734375 C3.29296875 27.55546875 3.80859375 26.83359375 4.33984375 26.08984375 C4.81421875 25.49171875 5.28859375 24.89359375 5.77734375 24.27734375 C8.46484375 24.02734375 8.46484375 24.02734375 10.77734375 24.27734375 C8.1823731 30.28674945 4.79564812 33.72312714 -1.22265625 36.27734375 C-7.11360011 37.02586302 -12.26580045 36.76967397 -17.22265625 33.27734375 C-22.05792316 28.46483104 -24.35694921 24.93619297 -24.47265625 17.96484375 C-24.40198386 12.60080962 -23.75503689 8.81681789 -19.828125 4.87890625 C-13.76272008 -0.43408135 -7.87470799 -2.56031806 0 0 Z " fill="#0E0E0F" transform="translate(259.22265625,38.72265625)"/>
<path d="M0 0 C3.25616772 2.15823063 6.23409904 4.46819808 8 8 C8.52383318 13.25550671 8.61997842 17.66466186 6.375 22.5 C2.7053959 26.36274116 -0.69489499 28.12364837 -6 28.4375 C-10.23419303 28.2674846 -12.74108092 26.72839737 -16 24 C-18.8499099 20.75699908 -19.86662354 18.13369988 -20.375 13.8125 C-19.887299 8.85420654 -18.3003848 5.70876575 -15 2 C-10.03810499 -1.0894818 -5.50772505 -1.98321215 0 0 Z " fill="#F1ECFA" transform="translate(196,43)"/>
<path d="M0 0 C3.30387931 1.80387931 3.30387931 1.80387931 4.5625 3.0625 C4.8925 1.7425 5.2225 0.4225 5.5625 -0.9375 C7.2125 -0.9375 8.8625 -0.9375 10.5625 -0.9375 C10.5625 10.6125 10.5625 22.1625 10.5625 34.0625 C8.9125 34.0625 7.2625 34.0625 5.5625 34.0625 C5.5625 32.7425 5.5625 31.4225 5.5625 30.0625 C4.1703125 31.0215625 4.1703125 31.0215625 2.75 32 C-2.53696959 35.42098032 -7.27635391 35.85778147 -13.4375 35.0625 C-18.42701191 33.1374807 -22.69116816 29.72047613 -25.5859375 25.2109375 C-27.68954585 19.90366874 -27.54439685 13.95637862 -25.515625 8.65234375 C-20.08279161 -0.78455841 -9.97113142 -4.94969833 0 0 Z M-18.99609375 6.796875 C-22.02453321 11.22371569 -23.24533342 14.60962442 -22.4375 20.0625 C-20.44905883 25.39989473 -17.53082352 28.51583824 -12.4375 31.0625 C-6.86414432 31.43405705 -3.20098149 31.31032829 1.5625 28.0625 C4.97918272 24.46599187 5.8956616 21.46023174 6.1875 16.625 C6.0028196 11.60442901 4.77907208 8.86831486 1.2109375 5.3671875 C-1.71050109 3.05495885 -4.16137389 2.23041133 -7.8125 1.75 C-12.39133356 2.29509923 -15.89958769 3.35113894 -18.99609375 6.796875 Z " fill="#101011" transform="translate(198.4375,39.9375)"/>
<path d="M0 0 C3.8026029 2.0050088 5.61790841 3.42686262 8 7 C8.125 10.1875 8.125 10.1875 8 13 C6.68 13 5.36 13 4 13 C3.566875 12.05125 3.13375 11.1025 2.6875 10.125 C1.20697799 6.79958063 1.20697799 6.79958063 -2 5 C-5.61550392 4.53844631 -7.33636094 4.54593117 -10.375 6.625 C-12.45406883 9.66363906 -12.46155369 11.38449608 -12 15 C-9.51853348 18.72219978 -7.85622686 18.99756604 -3.6875 20.4375 C1.58027821 22.25749635 5.96165867 24.18514768 9.3125 28.8125 C10.70031785 33.22828405 10.41634483 36.88244283 8.8125 41.1875 C6.47953993 44.80761046 3.84455245 47.07772378 0 49 C-4.9509132 49.54317573 -8.89488185 49.52241949 -13.4375 47.375 C-16.28337898 44.73735606 -17.64118205 42.62351454 -19 39 C-19 37.68 -19 36.36 -19 35 C-17.35 35 -15.7 35 -14 35 C-13.566875 36.11375 -13.13375 37.2275 -12.6875 38.375 C-11.30088881 42.17512334 -11.30088881 42.17512334 -8 44 C-3.36152243 44.50418234 -0.74169381 43.77954397 3 41 C4.54586876 37.90826248 4.29359521 35.40570448 4 32 C0.24408965 27.14050117 -5.11023771 25.82565339 -10.6875 23.7578125 C-14.56597312 21.69966049 -15.96985608 19.85130244 -18 16 C-18.61454266 11.69820137 -18.31986327 9.61603297 -16.3125 5.75 C-11.6314626 0.18336093 -7.09807766 -1.14968864 0 0 Z " fill="#0D0D0E" transform="translate(32,26)"/>
<path d="M0 0 C1.32 0 2.64 0 4 0 C4.33 10.56 4.66 21.12 5 32 C6.918125 29.628125 8.83625 27.25625 10.8125 24.8125 C11.41167236 24.07491455 12.01084473 23.3373291 12.62817383 22.57739258 C14.87108301 19.78835102 16.91396502 17.15135783 18.6875 14.03125 C19.3371875 13.02578125 19.3371875 13.02578125 20 12 C23.1875 11.6875 23.1875 11.6875 26 12 C23.71206762 15.99092412 21.09605857 19.65880191 18.3125 23.3125 C17.68891602 24.13717773 17.68891602 24.13717773 17.05273438 24.97851562 C16.03735842 26.32067925 15.01898747 27.66057622 14 29 C15.72221672 33.2017938 18.67682719 36.30907355 21.625 39.6875 C27 45.87546875 27 45.87546875 27 47 C24.3359375 47.375 24.3359375 47.375 21 47 C18.89794424 45.01044864 17.32680389 43.28278226 15.625 41 C14.95017578 40.14148438 14.95017578 40.14148438 14.26171875 39.265625 C13.15794232 37.8565487 12.07667447 36.42989178 11 35 C7.83884224 36.36983503 7.0072908 36.9890638 5 40 C4.60612212 42.32387947 4.26513915 44.65793749 4 47 C2.68 47 1.36 47 0 47 C0 31.49 0 15.98 0 0 Z " fill="#070607" transform="translate(48,27)"/>
<path d="M0 0 C4.85903803 2.20865365 7.77547818 4.94678113 10.8125 9.3125 C10.8125 9.9725 10.8125 10.6325 10.8125 11.3125 C8.5625 11.625 8.5625 11.625 5.8125 11.3125 C3.75 8.9375 3.75 8.9375 1.8125 6.3125 C-1.23260267 4.028673 -4.39632729 3.89095886 -8.16015625 3.99609375 C-12.5419439 4.67995656 -15.26905653 7.24098262 -18.0625 10.5 C-19.65888096 14.49095241 -19.766056 18.06975598 -19.1875 22.3125 C-17.5057937 25.99623761 -15.36742289 29.42438327 -11.5 31 C-6.03134683 31.73900719 -2.60869237 32.08769584 2.25 29.4375 C4.85124519 27.57085959 4.85124519 27.57085959 5.8125 25.3125 C7.4625 25.3125 9.1125 25.3125 10.8125 25.3125 C9.18601689 30.63553563 6.33570804 32.91071776 1.5625 35.5625 C-5.19218142 37.40468584 -11.03522255 36.74357781 -17.1875 33.3125 C-21.52263766 29.66704334 -24.57836147 25.91378052 -25.54296875 20.2109375 C-25.9347275 14.04867823 -24.09032581 10.0150852 -20.1875 5.3125 C-14.15608771 -0.27758944 -8.06219074 -2.53383137 0 0 Z " fill="#111112" transform="translate(155.1875,38.6875)"/>
<path d="M0 0 C3.62011046 2.33296007 5.89022378 4.96794755 7.8125 8.8125 C7.89760205 10.7718604 7.91967656 12.73412794 7.91015625 14.6953125 C7.90693359 15.86191406 7.90371094 17.02851562 7.90039062 18.23046875 C7.89201172 19.45378906 7.88363281 20.67710938 7.875 21.9375 C7.87048828 23.16855469 7.86597656 24.39960937 7.86132812 25.66796875 C7.8495133 28.71619392 7.83304028 31.76432314 7.8125 34.8125 C6.4925 34.8125 5.1725 34.8125 3.8125 34.8125 C3.79848145 33.76908447 3.79848145 33.76908447 3.78417969 32.70458984 C3.73026454 29.531525 3.64665827 26.3599009 3.5625 23.1875 C3.54832031 22.09308594 3.53414062 20.99867187 3.51953125 19.87109375 C3.28243817 11.52577456 3.28243817 11.52577456 -1.1875 4.8125 C-5.24450899 3.12147479 -9.10390553 3.37445117 -13.125 5 C-16.02682542 7.55008901 -17.04478549 9.62313954 -17.50634766 13.46972656 C-17.53776855 14.45424805 -17.56918945 15.43876953 -17.6015625 16.453125 C-17.64023438 17.52304687 -17.67890625 18.59296875 -17.71875 19.6953125 C-17.7496875 20.80648437 -17.780625 21.91765625 -17.8125 23.0625 C-17.85117188 24.18914063 -17.88984375 25.31578125 -17.9296875 26.4765625 C-18.02387336 29.25504548 -18.10949586 32.03352334 -18.1875 34.8125 C-19.5075 34.8125 -20.8275 34.8125 -22.1875 34.8125 C-22.1875 23.2625 -22.1875 11.7125 -22.1875 -0.1875 C-20.8675 -0.1875 -19.5475 -0.1875 -18.1875 -0.1875 C-17.8575 0.8025 -17.5275 1.7925 -17.1875 2.8125 C-16.589375 2.338125 -15.99125 1.86375 -15.375 1.375 C-10.55041404 -2.07113283 -5.44296405 -2.02777092 0 0 Z " fill="#040405" transform="translate(115.1875,39.1875)"/>
<path d="M0 0 C4.19355924 1.65512665 7.84500333 3.94353568 10 8 C10 9.32 10 10.64 10 12 C1.42 12 -7.16 12 -16 12 C-14.8737819 5.24269142 -14.8737819 5.24269142 -12.0625 3.1875 C-7.64412011 0.03151437 -5.47848104 -0.44905582 0 0 Z " fill="#EEE9F7" transform="translate(256,42)"/>
<path d="M0 0 C0 1.65 0 3.3 0 5 C-1.11375 5.433125 -2.2275 5.86625 -3.375 6.3125 C-7.17512334 7.69911119 -7.17512334 7.69911119 -9 11 C-9.36798693 13.71075544 -9.36798693 13.71075544 -9.4140625 16.76171875 C-9.45273438 17.87998047 -9.49140625 18.99824219 -9.53125 20.15039062 C-9.5621875 21.31763672 -9.593125 22.48488281 -9.625 23.6875 C-9.66367188 24.86634766 -9.70234375 26.04519531 -9.7421875 27.25976562 C-9.83654391 30.17301977 -9.92213161 33.08626607 -10 36 C-11.65 36 -13.3 36 -15 36 C-15 24.45 -15 12.9 -15 1 C-13.35 1 -11.7 1 -10 1 C-9.67 1.66 -9.34 2.32 -9 3 C-8.071875 2.505 -7.14375 2.01 -6.1875 1.5 C-3 0 -3 0 0 0 Z " fill="#151415" transform="translate(232,38)"/>
<path d="M0 0 C1.32 0 2.64 0 4 0 C4 11.55 4 23.1 4 35 C2.68 35 1.36 35 0 35 C0 23.45 0 11.9 0 0 Z " fill="#000000" transform="translate(80,39)"/>
<path d="M0 0 C1.32 0 2.64 0 4 0 C4 2.64 4 5.28 4 8 C2.68 8 1.36 8 0 8 C0 5.36 0 2.72 0 0 Z " fill="#070708" transform="translate(80,27)"/>
</svg>
