<svg width="195" height="51" viewBox="0 0 195 51" fill="none" xmlns="http://www.w3.org/2000/svg">
<rect width="195" height="51" rx="8" fill="url(#paint0_linear_37_268)"/>
<path d="M20.2197 32L25.9414 18.6846H26.6709H27.4004L33.1221 32H32.3926H31.6631L29.7646 27.5H23.5068L21.626 32H20.9229H20.2197ZM26.6357 20.0557L24.0166 26.2959H29.2812L26.6357 20.0557ZM38.2549 24.582C38.2607 24.1309 38.126 23.7617 37.8506 23.4746C37.5752 23.1816 37.2178 23.0352 36.7783 23.0352C36.3271 23.0352 35.9697 23.1729 35.7061 23.4482C35.4424 23.7236 35.3105 24.0986 35.3105 24.5732C35.3105 24.9482 35.4453 25.2559 35.7148 25.4961C35.9844 25.7363 36.4502 25.9648 37.1123 26.1816C38.0908 26.498 38.7969 26.9053 39.2305 27.4033C39.6641 27.8955 39.8809 28.54 39.8809 29.3369C39.8809 30.1631 39.5879 30.8516 39.002 31.4023C38.4219 31.9531 37.6924 32.2285 36.8135 32.2285C35.876 32.2285 35.1318 31.9473 34.5811 31.3848C34.0303 30.8164 33.7549 30.0518 33.7549 29.0908H35.0293C35.0176 29.7236 35.1699 30.2188 35.4863 30.5762C35.8027 30.9336 36.2451 31.1123 36.8135 31.1123C37.3584 31.1123 37.792 30.96 38.1143 30.6553C38.4365 30.3506 38.5977 29.9404 38.5977 29.4248C38.5977 28.9092 38.4424 28.4932 38.1318 28.1768C37.8213 27.8662 37.2881 27.5879 36.5322 27.3418C35.6475 27.0547 35.0088 26.7002 34.6162 26.2783C34.2236 25.8564 34.0273 25.3145 34.0273 24.6523C34.0273 23.8672 34.2881 23.2168 34.8096 22.7012C35.3311 22.1797 35.9873 21.9189 36.7783 21.9189C37.6045 21.9189 38.2695 22.165 38.7734 22.6572C39.2773 23.1436 39.5293 23.7852 39.5293 24.582H38.2549ZM41.5771 32V18.6846H42.21H42.8428V28.2031L47.4834 22.1475H48.2656H49.0566L45.1807 27.0869L49.2852 32H48.459H47.6328L44.4248 28.0449L42.8428 30.0576V32H42.21H41.5771ZM55.6045 32V18.6846H56.2725H59.665C61.2236 18.6846 62.4424 19.0596 63.3213 19.8096C64.2002 20.5537 64.6396 21.5908 64.6396 22.9209C64.6396 24.2451 64.2002 25.2793 63.3213 26.0234C62.6416 26.5918 61.7598 26.9463 60.6758 27.0869L64.4814 32H63.6377H62.7939L58.2324 25.9443H59.665C60.8018 25.9443 61.6895 25.6777 62.3281 25.1445C62.9668 24.6113 63.2861 23.8701 63.2861 22.9209C63.2861 21.9658 62.9668 21.2217 62.3281 20.6885C61.6895 20.1494 60.8018 19.8799 59.665 19.8799H56.9404V32H56.2725H55.6045ZM71.0908 32.2285C69.6611 32.2285 68.4482 31.7305 67.4521 30.7344C66.4619 29.7383 65.9668 28.5195 65.9668 27.0781C65.9668 25.6309 66.4619 24.4092 67.4521 23.4131C68.4482 22.417 69.6611 21.9189 71.0908 21.9189C72.5322 21.9189 73.748 22.417 74.7383 23.4131C75.7285 24.4092 76.2236 25.6309 76.2236 27.0781C76.2295 27.2363 76.2207 27.3945 76.1973 27.5527H67.2588C67.3467 28.4727 67.7158 29.2695 68.3662 29.9434C69.1221 30.7227 70.0449 31.1123 71.1348 31.1123C71.9141 31.1123 72.5967 30.916 73.1826 30.5234C73.7744 30.1309 74.249 29.5566 74.6064 28.8008H75.916C75.5645 29.8262 74.9463 30.6553 74.0615 31.2881C73.1768 31.915 72.1865 32.2285 71.0908 32.2285ZM74.9141 26.4189C74.791 25.5635 74.4307 24.8252 73.833 24.2041C73.0889 23.4248 72.1748 23.0352 71.0908 23.0352C70.0127 23.0352 69.0986 23.4277 68.3486 24.2129C67.7686 24.8281 67.4082 25.5635 67.2676 26.4189H74.9141ZM78.1572 32V22.1475H78.7812H79.4141V23.4219L79.6162 23.1758C80.3076 22.3203 81.2656 21.8926 82.4902 21.8926C83.8496 21.8926 84.9102 22.3115 85.6719 23.1494C86.4336 23.9873 86.8145 25.1533 86.8145 26.6475V32H86.1816H85.5488V26.6123C85.5488 25.4932 85.2793 24.6172 84.7402 23.9844C84.2012 23.3516 83.4512 23.0352 82.4902 23.0352C81.5059 23.0352 80.7471 23.3574 80.2139 24.002C79.6865 24.6406 79.4229 25.5547 79.4229 26.7441V32H78.79H78.1572ZM97.3877 22.1475L91.6133 35.498H90.998H90.374L92.0615 31.5518L88.2471 22.1475H88.9326H89.6182L92.7119 30.0225L96.0518 22.1475H96.7197H97.3877ZM103.522 32.2285C102.087 32.2285 100.871 31.7305 99.875 30.7344C98.8789 29.7383 98.3809 28.5195 98.3809 27.0781C98.3809 25.6309 98.8789 24.4092 99.875 23.4131C100.871 22.417 102.087 21.9189 103.522 21.9189C104.97 21.9189 106.188 22.417 107.179 23.4131C108.175 24.4092 108.673 25.6309 108.673 27.0781C108.673 28.5195 108.175 29.7383 107.179 30.7344C106.188 31.7305 104.97 32.2285 103.522 32.2285ZM103.522 31.1123C104.612 31.1123 105.532 30.7227 106.282 29.9434C107.032 29.1641 107.407 28.209 107.407 27.0781C107.407 25.9473 107.032 24.9922 106.282 24.2129C105.532 23.4277 104.612 23.0352 103.522 23.0352C102.438 23.0352 101.521 23.4277 100.771 24.2129C100.021 24.9922 99.6465 25.9473 99.6465 27.0781C99.6465 28.209 100.021 29.1641 100.771 29.9434C101.521 30.7227 102.438 31.1123 103.522 31.1123ZM111.802 22.1475V27.9922C111.802 28.9707 112.062 29.7354 112.584 30.2861C113.105 30.8311 113.829 31.1035 114.755 31.1035C115.757 31.1035 116.53 30.7812 117.075 30.1367C117.62 29.4922 117.893 28.5723 117.893 27.377V22.1475H118.525H119.158V32H118.569H117.972V30.418C117.872 30.5996 117.755 30.7754 117.62 30.9453C116.94 31.8008 115.997 32.2285 114.79 32.2285C113.454 32.2285 112.411 31.8564 111.661 31.1123C110.911 30.3682 110.536 29.3369 110.536 28.0186V22.1475H111.169H111.802ZM125.583 32L131.305 18.6846H132.034H132.764L138.485 32H137.756H137.026L135.128 27.5H128.87L126.989 32H126.286H125.583ZM131.999 20.0557L129.38 26.2959H134.645L131.999 20.0557ZM139.856 32V22.1475H140.489H141.122V32H140.489H139.856ZM139.865 18.6846H141.113V20.9434H139.865V18.6846Z" fill="white"/>
<path d="M178.335 12.0082C178.421 11.6623 178.913 11.6623 178.998 12.0082C179.362 13.4846 180.515 14.6373 181.992 15.0018C182.337 15.0872 182.337 15.5789 181.992 15.6643C180.515 16.0287 179.362 17.1814 178.998 18.6578C178.913 19.0037 178.421 19.0037 178.335 18.6578C177.971 17.1814 176.818 16.0287 175.342 15.6643C174.996 15.5789 174.996 15.0872 175.342 15.0018C176.818 14.6373 177.971 13.4846 178.335 12.0082Z" fill="white"/>
<path d="M181.979 10.5431C182.014 10.4031 182.213 10.4031 182.247 10.5431C182.395 11.1407 182.861 11.6072 183.459 11.7548C183.599 11.7893 183.599 11.9883 183.459 12.0229C182.861 12.1704 182.395 12.637 182.247 13.2346C182.213 13.3746 182.014 13.3746 181.979 13.2346C181.831 12.637 181.365 12.1704 180.767 12.0229C180.627 11.9883 180.627 11.7893 180.767 11.7548C181.365 11.6072 181.831 11.1407 181.979 10.5431Z" fill="white"/>
<path d="M171.496 26.765C170.749 26.3263 170.747 25.2256 171.493 24.7843L175.871 22.1921L177.576 21.1828C179.51 20.038 181.932 21.461 181.935 23.7443L181.936 24.5713C181.942 28.2764 178.02 30.5987 174.876 28.7516L171.496 26.765Z" fill="white"/>
<path d="M174.029 19.1107C175.226 19.8168 175.226 21.582 174.029 22.2881L173.052 22.865L170.412 24.4217C169.953 24.6923 169.38 24.3539 169.38 23.8129V20.6994V18.3496C169.38 17.4689 170.313 16.9189 171.059 17.3589L173.052 18.5338L174.029 19.1107Z" fill="white"/>
<path d="M172.074 33.5897C170.877 34.2958 169.38 33.4132 169.38 32.001V30.8479V27.7344C169.38 27.1933 169.954 26.855 170.412 27.1255L173.052 28.6823L175.044 29.8572C175.79 30.2972 175.79 31.3979 175.044 31.8379L173.052 33.0128L172.074 33.5897H172.074Z" fill="white"/>
<path d="M166.441 26.7651C167.187 26.3263 167.189 25.2256 166.444 24.7843L162.065 22.1921L160.36 21.1828C158.427 20.0374 156.005 21.4611 156.001 23.7443L156 24.5707C155.994 28.2757 159.917 30.598 163.061 28.7509L166.441 26.7644V26.7651Z" fill="white"/>
<path d="M163.904 19.1107C162.707 19.8168 162.707 21.582 163.904 22.2881L164.882 22.865L167.521 24.4217C167.98 24.6923 168.553 24.3539 168.553 23.8129V20.6994V18.3496C168.553 17.4689 167.62 16.9189 166.874 17.3589L164.882 18.5338L163.904 19.1107Z" fill="white"/>
<path d="M165.86 33.5897C167.057 34.2958 168.554 33.4132 168.554 32.001V30.8479V27.7344C168.554 27.1933 167.981 26.855 167.522 27.1255L164.883 28.6823L162.891 29.8572C162.144 30.2972 162.144 31.3979 162.891 31.8379L164.883 33.0128L165.861 33.5897H165.86Z" fill="white"/>
<defs>
<linearGradient id="paint0_linear_37_268" x1="0" y1="25.5" x2="195" y2="25.5" gradientUnits="userSpaceOnUse">
<stop stop-color="#34306F"/>
<stop offset="1" stop-color="#645CD5"/>
</linearGradient>
</defs>
</svg>
