<svg width="325" height="48" viewBox="0 0 325 48" fill="none" xmlns="http://www.w3.org/2000/svg">
<rect x="0.5" y="0.5" width="324" height="47" rx="23.5" fill="#FFF2ED" stroke="white"/>
<path d="M58.2853 31H53.5765V16.4545H58.4345C59.8597 16.4545 61.0836 16.7457 62.1064 17.3281C63.1291 17.9058 63.9127 18.7367 64.4572 19.821C65.0065 20.9006 65.2811 22.1955 65.2811 23.706C65.2811 25.2211 65.0041 26.5232 64.4501 27.6122C63.9009 28.7012 63.1054 29.5393 62.0637 30.1264C61.0221 30.7088 59.7626 31 58.2853 31ZM55.7711 29.0824H58.1646C59.2726 29.0824 60.1935 28.8741 60.9274 28.4574C61.6613 28.036 62.2105 27.4276 62.5751 26.6321C62.9397 25.8319 63.122 24.8565 63.122 23.706C63.122 22.5649 62.9397 21.5966 62.5751 20.8011C62.2153 20.0057 61.6779 19.402 60.9629 18.9901C60.2479 18.5781 59.3601 18.3722 58.2995 18.3722H55.7711V29.0824ZM67.8397 31V20.0909H69.9632V31H67.8397ZM68.9121 18.4077C68.5428 18.4077 68.2256 18.2846 67.9604 18.0384C67.7 17.7874 67.5698 17.4891 67.5698 17.1435C67.5698 16.7931 67.7 16.4948 67.9604 16.2486C68.2256 15.9976 68.5428 15.8722 68.9121 15.8722C69.2814 15.8722 69.5963 15.9976 69.8567 16.2486C70.1219 16.4948 70.2544 16.7931 70.2544 17.1435C70.2544 17.4891 70.1219 17.7874 69.8567 18.0384C69.5963 18.2846 69.2814 18.4077 68.9121 18.4077ZM80.9949 22.7543L79.0701 23.0952C78.9896 22.849 78.8618 22.6146 78.6866 22.392C78.5162 22.1695 78.2842 21.9872 77.9906 21.8452C77.697 21.7031 77.3301 21.6321 76.8897 21.6321C76.2884 21.6321 75.7865 21.767 75.3841 22.0369C74.9816 22.3021 74.7804 22.6454 74.7804 23.0668C74.7804 23.4313 74.9153 23.7249 75.1852 23.9474C75.4551 24.17 75.8907 24.3523 76.492 24.4943L78.225 24.892C79.2288 25.1241 79.9769 25.4815 80.4693 25.9645C80.9617 26.4474 81.2079 27.0748 81.2079 27.8466C81.2079 28.5 81.0185 29.0824 80.6397 29.5938C80.2657 30.1004 79.7425 30.4981 79.0701 30.7869C78.4025 31.0758 77.6284 31.2202 76.7477 31.2202C75.5261 31.2202 74.5294 30.9598 73.7576 30.4389C72.9859 29.9134 72.5124 29.1676 72.3372 28.2017L74.3897 27.8892C74.5176 28.4242 74.7804 28.8291 75.1781 29.1037C75.5758 29.3736 76.0943 29.5085 76.7335 29.5085C77.4295 29.5085 77.9859 29.3641 78.4025 29.0753C78.8192 28.7817 79.0275 28.4242 79.0275 28.0028C79.0275 27.6619 78.8997 27.3755 78.644 27.1435C78.3931 26.9115 78.0072 26.7363 77.4863 26.6179L75.6397 26.2131C74.6217 25.9811 73.8689 25.6117 73.3812 25.1051C72.8983 24.5985 72.6568 23.9569 72.6568 23.1804C72.6568 22.5365 72.8367 21.973 73.1966 21.4901C73.5564 21.0071 74.0536 20.6307 74.688 20.3608C75.3225 20.0862 76.0493 19.9489 76.8684 19.9489C78.0474 19.9489 78.9754 20.2045 79.6525 20.7159C80.3296 21.2225 80.777 21.902 80.9949 22.7543ZM88.138 31.2202C87.0821 31.2202 86.173 30.9811 85.4107 30.5028C84.6531 30.0199 84.0707 29.3546 83.6635 28.5071C83.2563 27.6596 83.0527 26.6889 83.0527 25.5952C83.0527 24.4872 83.2611 23.5095 83.6777 22.6619C84.0944 21.8097 84.6815 21.1444 85.4391 20.6662C86.1967 20.188 87.0892 19.9489 88.1167 19.9489C88.9453 19.9489 89.6839 20.1027 90.3326 20.4105C90.9812 20.7135 91.5044 21.1397 91.9022 21.6889C92.3046 22.2382 92.5437 22.8797 92.6195 23.6136H90.5527C90.4391 23.1023 90.1787 22.6619 89.7715 22.2926C89.369 21.9233 88.8292 21.7386 88.1522 21.7386C87.5603 21.7386 87.0418 21.8949 86.5968 22.2074C86.1564 22.5152 85.8132 22.9555 85.5669 23.5284C85.3207 24.0966 85.1976 24.7689 85.1976 25.5455C85.1976 26.3409 85.3184 27.0275 85.5598 27.6051C85.8013 28.1828 86.1422 28.6302 86.5826 28.9474C87.0276 29.2647 87.5508 29.4233 88.1522 29.4233C88.5546 29.4233 88.9192 29.3499 89.2459 29.2031C89.5774 29.0516 89.8543 28.8362 90.0769 28.5568C90.3042 28.2775 90.4628 27.9413 90.5527 27.5483H92.6195C92.5437 28.2538 92.3141 28.8835 91.9306 29.4375C91.5471 29.9915 91.0333 30.4271 90.3894 30.7443C89.7502 31.0616 88.9997 31.2202 88.138 31.2202ZM99.4856 31.2202C98.4629 31.2202 97.5704 30.9858 96.8081 30.517C96.0458 30.0483 95.4539 29.3925 95.0325 28.5497C94.6111 27.7069 94.4004 26.7221 94.4004 25.5952C94.4004 24.4635 94.6111 23.474 95.0325 22.6264C95.4539 21.7789 96.0458 21.1207 96.8081 20.652C97.5704 20.1832 98.4629 19.9489 99.4856 19.9489C100.508 19.9489 101.401 20.1832 102.163 20.652C102.925 21.1207 103.517 21.7789 103.939 22.6264C104.36 23.474 104.571 24.4635 104.571 25.5952C104.571 26.7221 104.36 27.7069 103.939 28.5497C103.517 29.3925 102.925 30.0483 102.163 30.517C101.401 30.9858 100.508 31.2202 99.4856 31.2202ZM99.4927 29.4375C100.156 29.4375 100.705 29.2623 101.14 28.9119C101.576 28.5616 101.898 28.0952 102.106 27.5128C102.319 26.9304 102.426 26.2888 102.426 25.5881C102.426 24.892 102.319 24.2528 102.106 23.6705C101.898 23.0833 101.576 22.6122 101.14 22.2571C100.705 21.902 100.156 21.7244 99.4927 21.7244C98.8251 21.7244 98.2711 21.902 97.8308 22.2571C97.3952 22.6122 97.0708 23.0833 96.8578 23.6705C96.6494 24.2528 96.5453 24.892 96.5453 25.5881C96.5453 26.2888 96.6494 26.9304 96.8578 27.5128C97.0708 28.0952 97.3952 28.5616 97.8308 28.9119C98.2711 29.2623 98.8251 29.4375 99.4927 29.4375ZM115.903 20.0909L111.947 31H109.674L105.711 20.0909H107.991L110.753 28.4858H110.867L113.623 20.0909H115.903ZM122.229 31.2202C121.154 31.2202 120.228 30.9905 119.452 30.5312C118.68 30.0672 118.084 29.4162 117.662 28.5781C117.245 27.7353 117.037 26.7481 117.037 25.6165C117.037 24.4991 117.245 23.5142 117.662 22.6619C118.084 21.8097 118.671 21.1444 119.423 20.6662C120.181 20.188 121.066 19.9489 122.08 19.9489C122.695 19.9489 123.292 20.0507 123.869 20.2543C124.447 20.4579 124.966 20.7775 125.425 21.2131C125.884 21.6487 126.246 22.2145 126.512 22.9105C126.777 23.6018 126.909 24.4422 126.909 25.4318V26.1847H118.237V24.5938H124.828C124.828 24.035 124.715 23.5402 124.487 23.1094C124.26 22.6738 123.941 22.3305 123.529 22.0795C123.121 21.8286 122.643 21.7031 122.094 21.7031C121.497 21.7031 120.977 21.8499 120.531 22.1435C120.091 22.4323 119.75 22.8111 119.509 23.2798C119.272 23.7438 119.154 24.2481 119.154 24.7926V26.0355C119.154 26.7647 119.281 27.3849 119.537 27.8963C119.798 28.4077 120.16 28.7983 120.624 29.0682C121.088 29.3333 121.63 29.4659 122.25 29.4659C122.653 29.4659 123.02 29.4091 123.351 29.2955C123.682 29.1771 123.969 29.0019 124.21 28.7699C124.452 28.5379 124.637 28.2514 124.764 27.9105L126.774 28.2727C126.613 28.8646 126.325 29.383 125.908 29.8281C125.496 30.2685 124.977 30.6117 124.352 30.858C123.732 31.0994 123.024 31.2202 122.229 31.2202ZM129.265 31V20.0909H131.318V21.8239H131.432C131.631 21.2367 131.981 20.7751 132.483 20.4389C132.989 20.098 133.562 19.9276 134.202 19.9276C134.334 19.9276 134.49 19.9323 134.67 19.9418C134.855 19.9512 134.999 19.9631 135.104 19.9773V22.0085C135.018 21.9848 134.867 21.9588 134.649 21.9304C134.431 21.8973 134.213 21.8807 133.996 21.8807C133.494 21.8807 133.046 21.9872 132.653 22.2003C132.265 22.4086 131.957 22.6998 131.73 23.0739C131.503 23.4432 131.389 23.8646 131.389 24.3381V31H129.265ZM143.577 35.0909C143.259 35.0909 142.97 35.0649 142.71 35.0128C142.45 34.9654 142.256 34.9134 142.128 34.8565L142.639 33.1165C143.027 33.2206 143.373 33.2656 143.676 33.2514C143.979 33.2372 144.247 33.1236 144.479 32.9105C144.715 32.6974 144.924 32.3494 145.104 31.8665L145.366 31.142L141.375 20.0909H143.648L146.41 28.5568H146.524L149.287 20.0909H151.567L147.071 32.456C146.863 33.0241 146.597 33.5047 146.275 33.8977C145.953 34.2955 145.57 34.5938 145.125 34.7926C144.68 34.9915 144.164 35.0909 143.577 35.0909ZM157.786 31.2202C156.764 31.2202 155.871 30.9858 155.109 30.517C154.347 30.0483 153.755 29.3925 153.333 28.5497C152.912 27.7069 152.701 26.7221 152.701 25.5952C152.701 24.4635 152.912 23.474 153.333 22.6264C153.755 21.7789 154.347 21.1207 155.109 20.652C155.871 20.1832 156.764 19.9489 157.786 19.9489C158.809 19.9489 159.702 20.1832 160.464 20.652C161.226 21.1207 161.818 21.7789 162.24 22.6264C162.661 23.474 162.872 24.4635 162.872 25.5952C162.872 26.7221 162.661 27.7069 162.24 28.5497C161.818 29.3925 161.226 30.0483 160.464 30.517C159.702 30.9858 158.809 31.2202 157.786 31.2202ZM157.794 29.4375C158.456 29.4375 159.006 29.2623 159.441 28.9119C159.877 28.5616 160.199 28.0952 160.407 27.5128C160.62 26.9304 160.727 26.2888 160.727 25.5881C160.727 24.892 160.62 24.2528 160.407 23.6705C160.199 23.0833 159.877 22.6122 159.441 22.2571C159.006 21.902 158.456 21.7244 157.794 21.7244C157.126 21.7244 156.572 21.902 156.132 22.2571C155.696 22.6122 155.372 23.0833 155.159 23.6705C154.95 24.2528 154.846 24.892 154.846 25.5881C154.846 26.2888 154.95 26.9304 155.159 27.5128C155.372 28.0952 155.696 28.5616 156.132 28.9119C156.572 29.2623 157.126 29.4375 157.794 29.4375ZM172.153 26.4759V20.0909H174.283V31H172.195V29.1108H172.081C171.831 29.6932 171.428 30.1785 170.874 30.5668C170.325 30.9503 169.641 31.142 168.822 31.142C168.121 31.142 167.501 30.9882 166.961 30.6804C166.426 30.3679 166.004 29.9062 165.697 29.2955C165.394 28.6847 165.242 27.9295 165.242 27.0298V20.0909H167.366V26.7741C167.366 27.5175 167.572 28.1094 167.983 28.5497C168.395 28.9901 168.93 29.2102 169.589 29.2102C169.986 29.2102 170.382 29.1108 170.775 28.9119C171.172 28.7131 171.501 28.4124 171.762 28.0099C172.027 27.6075 172.157 27.0961 172.153 26.4759ZM177.137 31V20.0909H179.189V21.8239H179.303C179.502 21.2367 179.852 20.7751 180.354 20.4389C180.86 20.098 181.433 19.9276 182.073 19.9276C182.205 19.9276 182.361 19.9323 182.541 19.9418C182.726 19.9512 182.87 19.9631 182.975 19.9773V22.0085C182.889 21.9848 182.738 21.9588 182.52 21.9304C182.302 21.8973 182.084 21.8807 181.867 21.8807C181.365 21.8807 180.917 21.9872 180.524 22.2003C180.136 22.4086 179.828 22.6998 179.601 23.0739C179.374 23.4432 179.26 23.8646 179.26 24.3381V31H177.137ZM190.105 31V20.0909H192.158V21.8239H192.271C192.47 21.2367 192.821 20.7751 193.323 20.4389C193.829 20.098 194.402 19.9276 195.041 19.9276C195.174 19.9276 195.33 19.9323 195.51 19.9418C195.695 19.9512 195.839 19.9631 195.943 19.9773V22.0085C195.858 21.9848 195.707 21.9588 195.489 21.9304C195.271 21.8973 195.053 21.8807 194.835 21.8807C194.334 21.8807 193.886 21.9872 193.493 22.2003C193.105 22.4086 192.797 22.6998 192.57 23.0739C192.343 23.4432 192.229 23.8646 192.229 24.3381V31H190.105ZM201.986 31.2202C200.963 31.2202 200.07 30.9858 199.308 30.517C198.546 30.0483 197.954 29.3925 197.532 28.5497C197.111 27.7069 196.9 26.7221 196.9 25.5952C196.9 24.4635 197.111 23.474 197.532 22.6264C197.954 21.7789 198.546 21.1207 199.308 20.652C200.07 20.1832 200.963 19.9489 201.986 19.9489C203.008 19.9489 203.901 20.1832 204.663 20.652C205.425 21.1207 206.017 21.7789 206.439 22.6264C206.86 23.474 207.071 24.4635 207.071 25.5952C207.071 26.7221 206.86 27.7069 206.439 28.5497C206.017 29.3925 205.425 30.0483 204.663 30.517C203.901 30.9858 203.008 31.2202 201.986 31.2202ZM201.993 29.4375C202.656 29.4375 203.205 29.2623 203.64 28.9119C204.076 28.5616 204.398 28.0952 204.606 27.5128C204.819 26.9304 204.926 26.2888 204.926 25.5881C204.926 24.892 204.819 24.2528 204.606 23.6705C204.398 23.0833 204.076 22.6122 203.64 22.2571C203.205 21.902 202.656 21.7244 201.993 21.7244C201.325 21.7244 200.771 21.902 200.331 22.2571C199.895 22.6122 199.571 23.0833 199.358 23.6705C199.149 24.2528 199.045 24.892 199.045 25.5881C199.045 26.2888 199.149 26.9304 199.358 27.5128C199.571 28.0952 199.895 28.5616 200.331 28.9119C200.771 29.2623 201.325 29.4375 201.993 29.4375ZM216.352 26.4759V20.0909H218.482V31H216.394V29.1108H216.281C216.03 29.6932 215.627 30.1785 215.073 30.5668C214.524 30.9503 213.84 31.142 213.021 31.142C212.32 31.142 211.7 30.9882 211.16 30.6804C210.625 30.3679 210.204 29.9062 209.896 29.2955C209.593 28.6847 209.441 27.9295 209.441 27.0298V20.0909H211.565V26.7741C211.565 27.5175 211.771 28.1094 212.183 28.5497C212.595 28.9901 213.13 29.2102 213.788 29.2102C214.186 29.2102 214.581 29.1108 214.974 28.9119C215.372 28.7131 215.701 28.4124 215.961 28.0099C216.226 27.6075 216.356 27.0961 216.352 26.4759ZM226.428 20.0909V21.7955H220.469V20.0909H226.428ZM222.067 17.4773H224.191V27.7969C224.191 28.2088 224.252 28.5189 224.376 28.7273C224.499 28.9309 224.657 29.0705 224.851 29.1463C225.05 29.2173 225.266 29.2528 225.498 29.2528C225.668 29.2528 225.817 29.241 225.945 29.2173C226.073 29.1937 226.172 29.1747 226.243 29.1605L226.627 30.9148C226.504 30.9621 226.329 31.0095 226.101 31.0568C225.874 31.1089 225.59 31.1373 225.249 31.142C224.69 31.1515 224.17 31.0521 223.687 30.8438C223.204 30.6354 222.813 30.3134 222.515 29.8778C222.216 29.4422 222.067 28.8954 222.067 28.2372V17.4773ZM228.777 31V20.0909H230.901V31H228.777ZM229.85 18.4077C229.48 18.4077 229.163 18.2846 228.898 18.0384C228.637 17.7874 228.507 17.4891 228.507 17.1435C228.507 16.7931 228.637 16.4948 228.898 16.2486C229.163 15.9976 229.48 15.8722 229.85 15.8722C230.219 15.8722 230.534 15.9976 230.794 16.2486C231.059 16.4948 231.192 16.7931 231.192 17.1435C231.192 17.4891 231.059 17.7874 230.794 18.0384C230.534 18.2846 230.219 18.4077 229.85 18.4077ZM235.881 24.5227V31H233.758V20.0909H235.796V21.8665H235.931C236.182 21.2888 236.575 20.8248 237.11 20.4744C237.65 20.1241 238.329 19.9489 239.148 19.9489C239.892 19.9489 240.543 20.1051 241.101 20.4176C241.66 20.7254 242.093 21.1847 242.401 21.7955C242.709 22.4062 242.863 23.1615 242.863 24.0611V31H240.739V24.3168C240.739 23.526 240.533 22.9081 240.121 22.4631C239.709 22.0133 239.144 21.7884 238.424 21.7884C237.931 21.7884 237.493 21.8949 237.11 22.108C236.731 22.321 236.43 22.6335 236.208 23.0455C235.99 23.4527 235.881 23.9451 235.881 24.5227ZM250.412 31.2202C249.338 31.2202 248.412 30.9905 247.635 30.5312C246.864 30.0672 246.267 29.4162 245.846 28.5781C245.429 27.7353 245.221 26.7481 245.221 25.6165C245.221 24.4991 245.429 23.5142 245.846 22.6619C246.267 21.8097 246.854 21.1444 247.607 20.6662C248.365 20.188 249.25 19.9489 250.263 19.9489C250.879 19.9489 251.475 20.0507 252.053 20.2543C252.631 20.4579 253.149 20.7775 253.608 21.2131C254.068 21.6487 254.43 22.2145 254.695 22.9105C254.96 23.6018 255.093 24.4422 255.093 25.4318V26.1847H246.421V24.5938H253.012C253.012 24.035 252.898 23.5402 252.671 23.1094C252.444 22.6738 252.124 22.3305 251.712 22.0795C251.305 21.8286 250.827 21.7031 250.278 21.7031C249.681 21.7031 249.16 21.8499 248.715 22.1435C248.275 22.4323 247.934 22.8111 247.692 23.2798C247.456 23.7438 247.337 24.2481 247.337 24.7926V26.0355C247.337 26.7647 247.465 27.3849 247.721 27.8963C247.981 28.4077 248.343 28.7983 248.807 29.0682C249.271 29.3333 249.814 29.4659 250.434 29.4659C250.836 29.4659 251.203 29.4091 251.535 29.2955C251.866 29.1771 252.153 29.0019 252.394 28.7699C252.635 28.5379 252.82 28.2514 252.948 27.9105L254.958 28.2727C254.797 28.8646 254.508 29.383 254.091 29.8281C253.68 30.2685 253.161 30.6117 252.536 30.858C251.916 31.0994 251.208 31.2202 250.412 31.2202Z" fill="#34306F"/>
<path fill-rule="evenodd" clip-rule="evenodd" d="M23.6979 13.9999C23.7356 14 23.7736 14 23.8119 14H32.1882C32.2265 14 32.2645 14 32.3022 13.9999C32.8493 13.9992 33.3308 13.9986 33.7803 14.1422C34.1743 14.268 34.5381 14.474 34.8487 14.7471C35.203 15.0587 35.4503 15.4719 35.7312 15.9414C35.7505 15.9737 35.77 16.0063 35.7897 16.0391L37.4015 18.7255C37.4111 18.7415 37.4207 18.7574 37.4302 18.7732C37.572 19.0092 37.6971 19.2174 37.7879 19.446C37.8678 19.647 37.9258 19.8562 37.9607 20.0697C38.0004 20.3124 38.0002 20.5554 38.0001 20.8307C38.0001 20.8491 38 20.8676 38 20.8863V29.8386C38.0001 30.3657 38.0001 30.8205 37.9695 31.195C37.9372 31.5904 37.8659 31.9836 37.6731 32.362C37.3854 32.9265 36.9265 33.3854 36.362 33.673C35.9836 33.8658 35.5904 33.9371 35.1951 33.9694C34.8205 34 34.3658 34 33.8386 34H22.1615C21.6343 34 21.1796 34 20.805 33.9694C20.4097 33.9371 20.0165 33.8658 19.6381 33.673C19.0736 33.3854 18.6146 32.9265 18.327 32.362C18.1342 31.9836 18.0629 31.5904 18.0306 31.195C18 30.8205 18 30.3657 18 29.8385L18 20.8863C18 20.8676 18 20.8491 18 20.8307C17.9998 20.5554 17.9997 20.3124 18.0394 20.0697C18.0743 19.8562 18.1322 19.647 18.2122 19.446C18.303 19.2174 18.4281 19.0092 18.5699 18.7732C18.5794 18.7574 18.5889 18.7415 18.5986 18.7255L20.2104 16.0391C20.2301 16.0063 20.2496 15.9737 20.2689 15.9414C20.5498 15.4719 20.7971 15.0587 21.1514 14.7471C21.462 14.474 21.8258 14.268 22.2198 14.1422C22.6693 13.9986 23.1508 13.9992 23.6979 13.9999ZM35.2339 19L34.0747 17.0681C33.7008 16.4449 33.6173 16.3275 33.528 16.249C33.4245 16.158 33.3032 16.0893 33.1719 16.0474C33.0586 16.0112 32.915 16 32.1882 16H29V19H35.2339ZM36 21V29.8C36 30.3766 35.9993 30.7488 35.9761 31.0322C35.9539 31.3038 35.9162 31.4045 35.8911 31.454C35.7952 31.6422 35.6422 31.7951 35.454 31.891C35.4046 31.9162 35.3039 31.9539 35.0322 31.9761C34.7489 31.9992 34.3766 32 33.8 32H22.2C21.6235 32 21.2512 31.9992 20.9679 31.9761C20.6962 31.9539 20.5955 31.9162 20.5461 31.891C20.3579 31.7951 20.2049 31.6422 20.109 31.454C20.0838 31.4045 20.0462 31.3038 20.024 31.0322C20.0008 30.7488 20 30.3766 20 29.8V21H36ZM27 19V16H23.8119C23.0851 16 22.9414 16.0112 22.8282 16.0474C22.6969 16.0893 22.5756 16.158 22.4721 16.249C22.3828 16.3275 22.2993 16.4449 21.9254 17.0681L20.7662 19H27ZM25 24C25 23.4477 25.4478 23 26 23H30C30.5523 23 31 23.4477 31 24C31 24.5523 30.5523 25 30 25H26C25.4478 25 25 24.5523 25 24Z" fill="#34306F"/>
<rect x="263" y="13" width="49" height="21" rx="8" fill="#FF5050"/>
<path d="M283.025 19.2727V28H281.619L277.506 22.0554H277.434V28H275.853V19.2727H277.268L281.376 25.2216H281.452V19.2727H283.025ZM287.577 28.1278C286.921 28.1278 286.354 27.9915 285.877 27.7188C285.402 27.4432 285.037 27.054 284.782 26.5511C284.526 26.0455 284.398 25.4503 284.398 24.7656C284.398 24.0923 284.526 23.5014 284.782 22.9929C285.04 22.4815 285.401 22.0838 285.864 21.7997C286.327 21.5128 286.871 21.3693 287.496 21.3693C287.9 21.3693 288.28 21.4347 288.638 21.5653C288.999 21.6932 289.317 21.892 289.593 22.1619C289.871 22.4318 290.09 22.7756 290.249 23.1932C290.408 23.608 290.488 24.1023 290.488 24.6761V25.1491H285.123V24.1094H289.009C289.006 23.8139 288.942 23.5511 288.817 23.321C288.692 23.0881 288.517 22.9048 288.293 22.7713C288.071 22.6378 287.813 22.571 287.517 22.571C287.202 22.571 286.925 22.6477 286.686 22.8011C286.448 22.9517 286.262 23.1506 286.128 23.3977C285.998 23.642 285.931 23.9105 285.928 24.2031V25.1108C285.928 25.4915 285.998 25.8182 286.137 26.0909C286.276 26.3608 286.471 26.5682 286.721 26.7131C286.971 26.8551 287.263 26.9261 287.598 26.9261C287.823 26.9261 288.026 26.8949 288.208 26.8324C288.39 26.767 288.547 26.6719 288.681 26.5469C288.814 26.4219 288.915 26.267 288.983 26.0824L290.424 26.2443C290.333 26.625 290.159 26.9574 289.904 27.2415C289.651 27.5227 289.327 27.7415 288.932 27.8977C288.537 28.0511 288.086 28.1278 287.577 28.1278ZM293.108 28L291.259 21.4545H292.831L293.982 26.0568H294.042L295.218 21.4545H296.773L297.949 26.0312H298.013L299.147 21.4545H300.723L298.87 28H297.263L296.036 23.5767H295.946L294.719 28H293.108Z" fill="white"/>
</svg>
