<svg width="396" height="48" viewBox="0 0 396 48" fill="none" xmlns="http://www.w3.org/2000/svg">
<rect width="396" height="48" rx="24" fill="#FFF2ED"/>
<path fill-rule="evenodd" clip-rule="evenodd" d="M35.0002 14.1753C33.6188 14.1753 32.5616 15.3399 32.5616 16.6941V18.0107H37.4387V16.6941C37.4387 15.3399 36.3815 14.1753 35.0002 14.1753ZM39.4387 18.0107V16.6941C39.4387 14.0647 37.4169 12 35.0002 12C32.5834 12 30.5616 14.0647 30.5616 16.6941V18.0107H29.1114C27.4159 18.0107 25.9542 19.392 25.8276 21.251L25.0089 33.2724C24.8683 35.3358 26.4194 37.016 28.2927 37.016H41.7077C43.581 37.016 45.132 35.3358 44.9915 33.2724L44.1728 21.251C44.0462 19.392 42.5845 18.0107 40.889 18.0107H39.4387ZM37.4387 20.186V21.5026C37.4387 22.1033 37.8864 22.5903 38.4387 22.5903C38.991 22.5903 39.4387 22.1033 39.4387 21.5026V20.186H40.889C41.5989 20.186 42.1335 20.7543 42.1783 21.4117L42.7225 29.4024H27.2779L27.8221 21.4117C27.8669 20.7543 28.4015 20.186 29.1114 20.186H30.5616V21.5026C30.5616 22.1033 31.0093 22.5903 31.5616 22.5903C32.1139 22.5903 32.5616 22.1033 32.5616 21.5026V20.186H37.4387ZM27.1297 31.5777L27.0034 33.4331C26.9543 34.1533 27.5052 34.8407 28.2927 34.8407H41.7077C42.4952 34.8407 43.046 34.1533 42.997 33.4331L42.8706 31.5777H27.1297Z" fill="#34306F"/>
<path d="M62.6976 31V16.4545H71.7175V18.3438H64.8922V22.7756H71.0712V24.6577H64.8922V31H62.6976ZM74.2459 31V20.0909H76.3695V31H74.2459ZM75.3184 18.4077C74.949 18.4077 74.6318 18.2846 74.3667 18.0384C74.1062 17.7874 73.976 17.4891 73.976 17.1435C73.976 16.7931 74.1062 16.4948 74.3667 16.2486C74.6318 15.9976 74.949 15.8722 75.3184 15.8722C75.6877 15.8722 76.0025 15.9976 76.263 16.2486C76.5281 16.4948 76.6607 16.7931 76.6607 17.1435C76.6607 17.4891 76.5281 17.7874 76.263 18.0384C76.0025 18.2846 75.6877 18.4077 75.3184 18.4077ZM81.35 24.5227V31H79.2264V20.0909H81.2647V21.8665H81.3997C81.6506 21.2888 82.0436 20.8248 82.5787 20.4744C83.1184 20.1241 83.7979 19.9489 84.617 19.9489C85.3604 19.9489 86.0114 20.1051 86.5701 20.4176C87.1288 20.7254 87.5621 21.1847 87.8699 21.7955C88.1776 22.4062 88.3315 23.1615 88.3315 24.0611V31H86.2079V24.3168C86.2079 23.526 86.002 22.9081 85.59 22.4631C85.1781 22.0133 84.6123 21.7884 83.8926 21.7884C83.4002 21.7884 82.9622 21.8949 82.5787 22.108C82.1999 22.321 81.8992 22.6335 81.6767 23.0455C81.4589 23.4527 81.35 23.9451 81.35 24.5227ZM95.2633 31.2131C94.3826 31.2131 93.5967 30.9882 92.9054 30.5384C92.2188 30.0838 91.679 29.4375 91.286 28.5994C90.8978 27.7566 90.7037 26.7457 90.7037 25.5668C90.7037 24.3878 90.9002 23.3793 91.2931 22.5412C91.6909 21.7031 92.2354 21.0616 92.9267 20.6165C93.618 20.1714 94.4016 19.9489 95.2775 19.9489C95.9546 19.9489 96.4991 20.0625 96.911 20.2898C97.3277 20.5123 97.6497 20.7727 97.877 21.071C98.109 21.3693 98.2889 21.6321 98.4167 21.8594H98.5446V16.4545H100.668V31H98.5943V29.3026H98.4167C98.2889 29.5346 98.1042 29.7997 97.8627 30.098C97.626 30.3963 97.2993 30.6567 96.8826 30.8793C96.466 31.1018 95.9262 31.2131 95.2633 31.2131ZM95.7321 29.402C96.3429 29.402 96.859 29.241 97.2804 28.919C97.7065 28.5923 98.0285 28.1402 98.2463 27.5625C98.4688 26.9848 98.5801 26.3125 98.5801 25.5455C98.5801 24.7879 98.4712 24.125 98.2534 23.5568C98.0356 22.9886 97.716 22.5459 97.2946 22.2287C96.8732 21.9115 96.3523 21.7528 95.7321 21.7528C95.0929 21.7528 94.5602 21.9186 94.1341 22.25C93.7079 22.5814 93.3859 23.0336 93.1681 23.6065C92.9551 24.1795 92.8485 24.8258 92.8485 25.5455C92.8485 26.2746 92.9574 26.9304 93.1752 27.5128C93.3931 28.0952 93.715 28.5568 94.1412 28.8977C94.572 29.2339 95.1023 29.402 95.7321 29.402ZM108.992 31V20.0909H111.03V21.8665H111.165C111.393 21.2652 111.764 20.7964 112.28 20.4602C112.796 20.1193 113.414 19.9489 114.134 19.9489C114.863 19.9489 115.474 20.1193 115.966 20.4602C116.464 20.8011 116.831 21.2699 117.067 21.8665H117.181C117.441 21.2841 117.856 20.8201 118.424 20.4744C118.992 20.1241 119.669 19.9489 120.455 19.9489C121.445 19.9489 122.252 20.259 122.877 20.8793C123.507 21.4995 123.822 22.4347 123.822 23.6847V31H121.698V23.8835C121.698 23.1449 121.497 22.6098 121.094 22.2784C120.692 21.947 120.211 21.7812 119.653 21.7812C118.961 21.7812 118.424 21.9943 118.04 22.4205C117.657 22.8419 117.465 23.384 117.465 24.0469V31H115.349V23.7486C115.349 23.1567 115.164 22.6809 114.795 22.321C114.425 21.9612 113.945 21.7812 113.353 21.7812C112.95 21.7812 112.579 21.8878 112.238 22.1009C111.902 22.3092 111.629 22.6004 111.421 22.9744C111.217 23.3485 111.116 23.7817 111.116 24.2741V31H108.992ZM131.369 31.2202C130.295 31.2202 129.369 30.9905 128.593 30.5312C127.821 30.0672 127.224 29.4162 126.803 28.5781C126.386 27.7353 126.178 26.7481 126.178 25.6165C126.178 24.4991 126.386 23.5142 126.803 22.6619C127.224 21.8097 127.811 21.1444 128.564 20.6662C129.322 20.188 130.207 19.9489 131.22 19.9489C131.836 19.9489 132.432 20.0507 133.01 20.2543C133.588 20.4579 134.106 20.7775 134.566 21.2131C135.025 21.6487 135.387 22.2145 135.652 22.9105C135.917 23.6018 136.05 24.4422 136.05 25.4318V26.1847H127.378V24.5938H133.969C133.969 24.035 133.855 23.5402 133.628 23.1094C133.401 22.6738 133.081 22.3305 132.669 22.0795C132.262 21.8286 131.784 21.7031 131.235 21.7031C130.638 21.7031 130.117 21.8499 129.672 22.1435C129.232 22.4323 128.891 22.8111 128.649 23.2798C128.413 23.7438 128.294 24.2481 128.294 24.7926V26.0355C128.294 26.7647 128.422 27.3849 128.678 27.8963C128.938 28.4077 129.3 28.7983 129.764 29.0682C130.228 29.3333 130.771 29.4659 131.391 29.4659C131.793 29.4659 132.16 29.4091 132.492 29.2955C132.823 29.1771 133.11 29.0019 133.351 28.7699C133.593 28.5379 133.777 28.2514 133.905 27.9105L135.915 28.2727C135.754 28.8646 135.465 29.383 135.048 29.8281C134.637 30.2685 134.118 30.6117 133.493 30.858C132.873 31.0994 132.165 31.2202 131.369 31.2202ZM143.699 31V20.0909H145.737V21.8665H145.872C146.1 21.2652 146.471 20.7964 146.987 20.4602C147.503 20.1193 148.121 19.9489 148.841 19.9489C149.57 19.9489 150.181 20.1193 150.673 20.4602C151.171 20.8011 151.538 21.2699 151.774 21.8665H151.888C152.148 21.2841 152.563 20.8201 153.131 20.4744C153.699 20.1241 154.376 19.9489 155.162 19.9489C156.152 19.9489 156.959 20.259 157.584 20.8793C158.214 21.4995 158.529 22.4347 158.529 23.6847V31H156.405V23.8835C156.405 23.1449 156.204 22.6098 155.801 22.2784C155.399 21.947 154.918 21.7812 154.36 21.7812C153.668 21.7812 153.131 21.9943 152.747 22.4205C152.364 22.8419 152.172 23.384 152.172 24.0469V31H150.056V23.7486C150.056 23.1567 149.871 22.6809 149.502 22.321C149.132 21.9612 148.652 21.7812 148.06 21.7812C147.657 21.7812 147.286 21.8878 146.945 22.1009C146.609 22.3092 146.336 22.6004 146.128 22.9744C145.924 23.3485 145.823 23.7817 145.823 24.2741V31H143.699ZM164.55 31.2415C163.858 31.2415 163.233 31.1136 162.675 30.858C162.116 30.5975 161.673 30.2211 161.346 29.7287C161.024 29.2363 160.863 28.6326 160.863 27.9176C160.863 27.3021 160.982 26.7955 161.219 26.3977C161.455 26 161.775 25.6851 162.177 25.4531C162.58 25.2211 163.03 25.0459 163.527 24.9276C164.024 24.8092 164.531 24.7192 165.047 24.6577C165.7 24.5819 166.23 24.5204 166.638 24.473C167.045 24.4209 167.341 24.3381 167.525 24.2244C167.71 24.1108 167.802 23.9261 167.802 23.6705V23.6207C167.802 23.0005 167.627 22.5199 167.277 22.179C166.931 21.8381 166.415 21.6676 165.729 21.6676C165.014 21.6676 164.45 21.8262 164.038 22.1435C163.631 22.456 163.349 22.804 163.193 23.1875L161.197 22.733C161.434 22.0701 161.78 21.535 162.234 21.1278C162.693 20.7159 163.221 20.4176 163.818 20.233C164.415 20.0436 165.042 19.9489 165.7 19.9489C166.136 19.9489 166.597 20.0009 167.085 20.1051C167.577 20.2045 168.037 20.3892 168.463 20.6591C168.894 20.929 169.247 21.3149 169.521 21.8168C169.796 22.3139 169.933 22.9602 169.933 23.7557V31H167.859V29.5085H167.774C167.637 29.7831 167.431 30.053 167.156 30.3182C166.881 30.5833 166.529 30.8035 166.098 30.9787C165.667 31.1539 165.151 31.2415 164.55 31.2415ZM165.011 29.5369C165.598 29.5369 166.1 29.4209 166.517 29.1889C166.938 28.9569 167.258 28.6539 167.476 28.2798C167.698 27.901 167.809 27.4962 167.809 27.0653V25.6591C167.734 25.7348 167.587 25.8059 167.369 25.8722C167.156 25.9337 166.912 25.9882 166.638 26.0355C166.363 26.0781 166.095 26.1184 165.835 26.1562C165.575 26.1894 165.357 26.2178 165.182 26.2415C164.77 26.2936 164.393 26.3812 164.052 26.5043C163.716 26.6274 163.446 26.8049 163.243 27.0369C163.044 27.2642 162.944 27.5672 162.944 27.946C162.944 28.4716 163.139 28.8693 163.527 29.1392C163.915 29.4044 164.41 29.5369 165.011 29.5369ZM177.854 20.0909V21.7955H171.895V20.0909H177.854ZM173.493 17.4773H175.617V27.7969C175.617 28.2088 175.678 28.5189 175.801 28.7273C175.924 28.9309 176.083 29.0705 176.277 29.1463C176.476 29.2173 176.691 29.2528 176.923 29.2528C177.094 29.2528 177.243 29.241 177.371 29.2173C177.499 29.1937 177.598 29.1747 177.669 29.1605L178.053 30.9148C177.93 30.9621 177.754 31.0095 177.527 31.0568C177.3 31.1089 177.016 31.1373 176.675 31.142C176.116 31.1515 175.595 31.0521 175.112 30.8438C174.629 30.6354 174.239 30.3134 173.941 29.8778C173.642 29.4422 173.493 28.8954 173.493 28.2372V17.4773ZM184.681 31.2202C183.625 31.2202 182.716 30.9811 181.954 30.5028C181.196 30.0199 180.614 29.3546 180.206 28.5071C179.799 27.6596 179.596 26.6889 179.596 25.5952C179.596 24.4872 179.804 23.5095 180.221 22.6619C180.637 21.8097 181.224 21.1444 181.982 20.6662C182.74 20.188 183.632 19.9489 184.66 19.9489C185.488 19.9489 186.227 20.1027 186.876 20.4105C187.524 20.7135 188.047 21.1397 188.445 21.6889C188.848 22.2382 189.087 22.8797 189.162 23.6136H187.096C186.982 23.1023 186.722 22.6619 186.314 22.2926C185.912 21.9233 185.372 21.7386 184.695 21.7386C184.103 21.7386 183.585 21.8949 183.14 22.2074C182.699 22.5152 182.356 22.9555 182.11 23.5284C181.864 24.0966 181.741 24.7689 181.741 25.5455C181.741 26.3409 181.861 27.0275 182.103 27.6051C182.344 28.1828 182.685 28.6302 183.126 28.9474C183.571 29.2647 184.094 29.4233 184.695 29.4233C185.098 29.4233 185.462 29.3499 185.789 29.2031C186.12 29.0516 186.397 28.8362 186.62 28.5568C186.847 28.2775 187.006 27.9413 187.096 27.5483H189.162C189.087 28.2538 188.857 28.8835 188.474 29.4375C188.09 29.9915 187.576 30.4271 186.932 30.7443C186.293 31.0616 185.543 31.2202 184.681 31.2202ZM193.557 24.5227V31H191.433V16.4545H193.529V21.8665H193.664C193.919 21.2794 194.31 20.813 194.835 20.4673C195.361 20.1217 196.048 19.9489 196.895 19.9489C197.643 19.9489 198.297 20.1027 198.855 20.4105C199.419 20.7183 199.854 21.1776 200.162 21.7884C200.475 22.3944 200.631 23.152 200.631 24.0611V31H198.507V24.3168C198.507 23.5166 198.301 22.8963 197.889 22.456C197.477 22.0109 196.905 21.7884 196.171 21.7884C195.669 21.7884 195.219 21.8949 194.821 22.108C194.428 22.321 194.118 22.6335 193.891 23.0455C193.668 23.4527 193.557 23.9451 193.557 24.5227ZM209.892 23.9332V25.7727H203.443V23.9332H209.892ZM212.722 35.0909V20.0909H214.796V21.8594H214.974C215.097 21.6321 215.275 21.3693 215.507 21.071C215.739 20.7727 216.061 20.5123 216.472 20.2898C216.884 20.0625 217.429 19.9489 218.106 19.9489C218.987 19.9489 219.773 20.1714 220.464 20.6165C221.155 21.0616 221.697 21.7031 222.09 22.5412C222.488 23.3793 222.687 24.3878 222.687 25.5668C222.687 26.7457 222.49 27.7566 222.097 28.5994C221.704 29.4375 221.165 30.0838 220.478 30.5384C219.792 30.9882 219.008 31.2131 218.127 31.2131C217.464 31.2131 216.922 31.1018 216.501 30.8793C216.084 30.6567 215.758 30.3963 215.521 30.098C215.284 29.7997 215.102 29.5346 214.974 29.3026H214.846V35.0909H212.722ZM214.803 25.5455C214.803 26.3125 214.915 26.9848 215.137 27.5625C215.36 28.1402 215.682 28.5923 216.103 28.919C216.525 29.241 217.041 29.402 217.651 29.402C218.286 29.402 218.816 29.2339 219.242 28.8977C219.669 28.5568 219.99 28.0952 220.208 27.5128C220.431 26.9304 220.542 26.2746 220.542 25.5455C220.542 24.8258 220.433 24.1795 220.215 23.6065C220.002 23.0336 219.68 22.5814 219.249 22.25C218.823 21.9186 218.291 21.7528 217.651 21.7528C217.036 21.7528 216.515 21.9115 216.089 22.2287C215.668 22.5459 215.348 22.9886 215.13 23.5568C214.912 24.125 214.803 24.7879 214.803 25.5455ZM229.768 31.2202C228.693 31.2202 227.767 30.9905 226.991 30.5312C226.219 30.0672 225.623 29.4162 225.201 28.5781C224.785 27.7353 224.576 26.7481 224.576 25.6165C224.576 24.4991 224.785 23.5142 225.201 22.6619C225.623 21.8097 226.21 21.1444 226.963 20.6662C227.72 20.188 228.606 19.9489 229.619 19.9489C230.234 19.9489 230.831 20.0507 231.409 20.2543C231.986 20.4579 232.505 20.7775 232.964 21.2131C233.423 21.6487 233.785 22.2145 234.051 22.9105C234.316 23.6018 234.448 24.4422 234.448 25.4318V26.1847H225.776V24.5938H232.367C232.367 24.035 232.254 23.5402 232.026 23.1094C231.799 22.6738 231.48 22.3305 231.068 22.0795C230.66 21.8286 230.182 21.7031 229.633 21.7031C229.036 21.7031 228.516 21.8499 228.07 22.1435C227.63 22.4323 227.289 22.8111 227.048 23.2798C226.811 23.7438 226.693 24.2481 226.693 24.7926V26.0355C226.693 26.7647 226.82 27.3849 227.076 27.8963C227.337 28.4077 227.699 28.7983 228.163 29.0682C228.627 29.3333 229.169 29.4659 229.789 29.4659C230.192 29.4659 230.559 29.4091 230.89 29.2955C231.222 29.1771 231.508 29.0019 231.749 28.7699C231.991 28.5379 232.176 28.2514 232.303 27.9105L234.313 28.2727C234.152 28.8646 233.864 29.383 233.447 29.8281C233.035 30.2685 232.517 30.6117 231.892 30.858C231.271 31.0994 230.563 31.2202 229.768 31.2202ZM236.805 31V20.0909H238.857V21.8239H238.971C239.17 21.2367 239.52 20.7751 240.022 20.4389C240.528 20.098 241.101 19.9276 241.741 19.9276C241.873 19.9276 242.029 19.9323 242.209 19.9418C242.394 19.9512 242.538 19.9631 242.643 19.9773V22.0085C242.557 21.9848 242.406 21.9588 242.188 21.9304C241.97 21.8973 241.752 21.8807 241.535 21.8807C241.033 21.8807 240.585 21.9872 240.192 22.2003C239.804 22.4086 239.496 22.6998 239.269 23.0739C239.042 23.4432 238.928 23.8646 238.928 24.3381V31H236.805ZM250.317 20.0909V21.7955H244.152V20.0909H250.317ZM245.842 31V18.8267C245.842 18.1449 245.991 17.5791 246.29 17.1293C246.588 16.6747 246.983 16.3362 247.476 16.1136C247.968 15.8864 248.503 15.7727 249.081 15.7727C249.507 15.7727 249.872 15.8082 250.175 15.8793C250.478 15.9455 250.702 16.0071 250.849 16.0639L250.352 17.7827C250.253 17.7543 250.125 17.7211 249.969 17.6832C249.812 17.6406 249.623 17.6193 249.4 17.6193C248.884 17.6193 248.515 17.7472 248.292 18.0028C248.075 18.2585 247.966 18.6278 247.966 19.1108V31H245.842ZM256.78 31.2202C255.705 31.2202 254.779 30.9905 254.003 30.5312C253.231 30.0672 252.634 29.4162 252.213 28.5781C251.796 27.7353 251.588 26.7481 251.588 25.6165C251.588 24.4991 251.796 23.5142 252.213 22.6619C252.634 21.8097 253.221 21.1444 253.974 20.6662C254.732 20.188 255.617 19.9489 256.631 19.9489C257.246 19.9489 257.843 20.0507 258.42 20.2543C258.998 20.4579 259.516 20.7775 259.976 21.2131C260.435 21.6487 260.797 22.2145 261.062 22.9105C261.327 23.6018 261.46 24.4422 261.46 25.4318V26.1847H252.788V24.5938H259.379C259.379 24.035 259.265 23.5402 259.038 23.1094C258.811 22.6738 258.491 22.3305 258.079 22.0795C257.672 21.8286 257.194 21.7031 256.645 21.7031C256.048 21.7031 255.527 21.8499 255.082 22.1435C254.642 22.4323 254.301 22.8111 254.059 23.2798C253.823 23.7438 253.704 24.2481 253.704 24.7926V26.0355C253.704 26.7647 253.832 27.3849 254.088 27.8963C254.348 28.4077 254.711 28.7983 255.175 29.0682C255.639 29.3333 256.181 29.4659 256.801 29.4659C257.203 29.4659 257.57 29.4091 257.902 29.2955C258.233 29.1771 258.52 29.0019 258.761 28.7699C259.003 28.5379 259.187 28.2514 259.315 27.9105L261.325 28.2727C261.164 28.8646 260.875 29.383 260.459 29.8281C260.047 30.2685 259.528 30.6117 258.903 30.858C258.283 31.0994 257.575 31.2202 256.78 31.2202ZM268.411 31.2202C267.356 31.2202 266.446 30.9811 265.684 30.5028C264.927 30.0199 264.344 29.3546 263.937 28.5071C263.53 27.6596 263.326 26.6889 263.326 25.5952C263.326 24.4872 263.535 23.5095 263.951 22.6619C264.368 21.8097 264.955 21.1444 265.713 20.6662C266.47 20.188 267.363 19.9489 268.39 19.9489C269.219 19.9489 269.957 20.1027 270.606 20.4105C271.255 20.7135 271.778 21.1397 272.176 21.6889C272.578 22.2382 272.817 22.8797 272.893 23.6136H270.826C270.713 23.1023 270.452 22.6619 270.045 22.2926C269.642 21.9233 269.103 21.7386 268.426 21.7386C267.834 21.7386 267.315 21.8949 266.87 22.2074C266.43 22.5152 266.087 22.9555 265.84 23.5284C265.594 24.0966 265.471 24.7689 265.471 25.5455C265.471 26.3409 265.592 27.0275 265.833 27.6051C266.075 28.1828 266.416 28.6302 266.856 28.9474C267.301 29.2647 267.824 29.4233 268.426 29.4233C268.828 29.4233 269.193 29.3499 269.519 29.2031C269.851 29.0516 270.128 28.8362 270.35 28.5568C270.578 28.2775 270.736 27.9413 270.826 27.5483H272.893C272.817 28.2538 272.588 28.8835 272.204 29.4375C271.82 29.9915 271.307 30.4271 270.663 30.7443C270.024 31.0616 269.273 31.2202 268.411 31.2202ZM280.256 20.0909V21.7955H274.297V20.0909H280.256ZM275.895 17.4773H278.019V27.7969C278.019 28.2088 278.081 28.5189 278.204 28.7273C278.327 28.9309 278.485 29.0705 278.68 29.1463C278.878 29.2173 279.094 29.2528 279.326 29.2528C279.496 29.2528 279.645 29.241 279.773 29.2173C279.901 29.1937 280.001 29.1747 280.072 29.1605L280.455 30.9148C280.332 30.9621 280.157 31.0095 279.93 31.0568C279.702 31.1089 279.418 31.1373 279.077 31.142C278.519 31.1515 277.998 31.0521 277.515 30.8438C277.032 30.6354 276.641 30.3134 276.343 29.8778C276.045 29.4422 275.895 28.8954 275.895 28.2372V17.4773ZM287.898 35.0909V20.0909H289.972V21.8594H290.15C290.273 21.6321 290.45 21.3693 290.682 21.071C290.914 20.7727 291.236 20.5123 291.648 20.2898C292.06 20.0625 292.605 19.9489 293.282 19.9489C294.162 19.9489 294.948 20.1714 295.64 20.6165C296.331 21.0616 296.873 21.7031 297.266 22.5412C297.664 23.3793 297.863 24.3878 297.863 25.5668C297.863 26.7457 297.666 27.7566 297.273 28.5994C296.88 29.4375 296.34 30.0838 295.654 30.5384C294.967 30.9882 294.184 31.2131 293.303 31.2131C292.64 31.2131 292.098 31.1018 291.677 30.8793C291.26 30.6567 290.933 30.3963 290.697 30.098C290.46 29.7997 290.278 29.5346 290.15 29.3026H290.022V35.0909H287.898ZM289.979 25.5455C289.979 26.3125 290.09 26.9848 290.313 27.5625C290.536 28.1402 290.858 28.5923 291.279 28.919C291.7 29.241 292.216 29.402 292.827 29.402C293.462 29.402 293.992 29.2339 294.418 28.8977C294.844 28.5568 295.166 28.0952 295.384 27.5128C295.607 26.9304 295.718 26.2746 295.718 25.5455C295.718 24.8258 295.609 24.1795 295.391 23.6065C295.178 23.0336 294.856 22.5814 294.425 22.25C293.999 21.9186 293.466 21.7528 292.827 21.7528C292.212 21.7528 291.691 21.9115 291.265 22.2287C290.843 22.5459 290.524 22.9886 290.306 23.5568C290.088 24.125 289.979 24.7879 289.979 25.5455ZM300.242 31V20.0909H302.295V21.8239H302.408C302.607 21.2367 302.957 20.7751 303.459 20.4389C303.966 20.098 304.539 19.9276 305.178 19.9276C305.311 19.9276 305.467 19.9323 305.647 19.9418C305.831 19.9512 305.976 19.9631 306.08 19.9773V22.0085C305.995 21.9848 305.843 21.9588 305.626 21.9304C305.408 21.8973 305.19 21.8807 304.972 21.8807C304.47 21.8807 304.023 21.9872 303.63 22.2003C303.242 22.4086 302.934 22.6998 302.706 23.0739C302.479 23.4432 302.366 23.8646 302.366 24.3381V31H300.242ZM312.122 31.2202C311.1 31.2202 310.207 30.9858 309.445 30.517C308.682 30.0483 308.091 29.3925 307.669 28.5497C307.248 27.7069 307.037 26.7221 307.037 25.5952C307.037 24.4635 307.248 23.474 307.669 22.6264C308.091 21.7789 308.682 21.1207 309.445 20.652C310.207 20.1832 311.1 19.9489 312.122 19.9489C313.145 19.9489 314.038 20.1832 314.8 20.652C315.562 21.1207 316.154 21.7789 316.575 22.6264C316.997 23.474 317.208 24.4635 317.208 25.5952C317.208 26.7221 316.997 27.7069 316.575 28.5497C316.154 29.3925 315.562 30.0483 314.8 30.517C314.038 30.9858 313.145 31.2202 312.122 31.2202ZM312.129 29.4375C312.792 29.4375 313.342 29.2623 313.777 28.9119C314.213 28.5616 314.535 28.0952 314.743 27.5128C314.956 26.9304 315.063 26.2888 315.063 25.5881C315.063 24.892 314.956 24.2528 314.743 23.6705C314.535 23.0833 314.213 22.6122 313.777 22.2571C313.342 21.902 312.792 21.7244 312.129 21.7244C311.462 21.7244 310.908 21.902 310.468 22.2571C310.032 22.6122 309.708 23.0833 309.494 23.6705C309.286 24.2528 309.182 24.892 309.182 25.5881C309.182 26.2888 309.286 26.9304 309.494 27.5128C309.708 28.0952 310.032 28.5616 310.468 28.9119C310.908 29.2623 311.462 29.4375 312.129 29.4375ZM323.662 31.2131C322.781 31.2131 321.995 30.9882 321.304 30.5384C320.617 30.0838 320.077 29.4375 319.684 28.5994C319.296 27.7566 319.102 26.7457 319.102 25.5668C319.102 24.3878 319.299 23.3793 319.692 22.5412C320.089 21.7031 320.634 21.0616 321.325 20.6165C322.016 20.1714 322.8 19.9489 323.676 19.9489C324.353 19.9489 324.898 20.0625 325.309 20.2898C325.726 20.5123 326.048 20.7727 326.275 21.071C326.507 21.3693 326.687 21.6321 326.815 21.8594H326.943V16.4545H329.067V31H326.993V29.3026H326.815C326.687 29.5346 326.503 29.7997 326.261 30.098C326.024 30.3963 325.698 30.6567 325.281 30.8793C324.864 31.1018 324.325 31.2131 323.662 31.2131ZM324.131 29.402C324.741 29.402 325.257 29.241 325.679 28.919C326.105 28.5923 326.427 28.1402 326.645 27.5625C326.867 26.9848 326.979 26.3125 326.979 25.5455C326.979 24.7879 326.87 24.125 326.652 23.5568C326.434 22.9886 326.114 22.5459 325.693 22.2287C325.272 21.9115 324.751 21.7528 324.131 21.7528C323.491 21.7528 322.959 21.9186 322.532 22.25C322.106 22.5814 321.784 23.0336 321.567 23.6065C321.354 24.1795 321.247 24.8258 321.247 25.5455C321.247 26.2746 321.356 26.9304 321.574 27.5128C321.791 28.0952 322.113 28.5568 322.54 28.8977C322.97 29.2339 323.501 29.402 324.131 29.402ZM339.008 26.4759V20.0909H341.139V31H339.051V29.1108H338.937C338.686 29.6932 338.284 30.1785 337.73 30.5668C337.18 30.9503 336.496 31.142 335.677 31.142C334.976 31.142 334.356 30.9882 333.816 30.6804C333.281 30.3679 332.86 29.9062 332.552 29.2955C332.249 28.6847 332.097 27.9295 332.097 27.0298V20.0909H334.221V26.7741C334.221 27.5175 334.427 28.1094 334.839 28.5497C335.251 28.9901 335.786 29.2102 336.444 29.2102C336.842 29.2102 337.237 29.1108 337.63 28.9119C338.028 28.7131 338.357 28.4124 338.617 28.0099C338.883 27.6075 339.013 27.0961 339.008 26.4759ZM348.587 31.2202C347.531 31.2202 346.622 30.9811 345.86 30.5028C345.102 30.0199 344.52 29.3546 344.113 28.5071C343.706 27.6596 343.502 26.6889 343.502 25.5952C343.502 24.4872 343.71 23.5095 344.127 22.6619C344.544 21.8097 345.131 21.1444 345.888 20.6662C346.646 20.188 347.538 19.9489 348.566 19.9489C349.394 19.9489 350.133 20.1027 350.782 20.4105C351.43 20.7135 351.954 21.1397 352.351 21.6889C352.754 22.2382 352.993 22.8797 353.069 23.6136H351.002C350.888 23.1023 350.628 22.6619 350.221 22.2926C349.818 21.9233 349.278 21.7386 348.601 21.7386C348.01 21.7386 347.491 21.8949 347.046 22.2074C346.606 22.5152 346.262 22.9555 346.016 23.5284C345.77 24.0966 345.647 24.7689 345.647 25.5455C345.647 26.3409 345.768 27.0275 346.009 27.6051C346.251 28.1828 346.591 28.6302 347.032 28.9474C347.477 29.2647 348 29.4233 348.601 29.4233C349.004 29.4233 349.368 29.3499 349.695 29.2031C350.027 29.0516 350.304 28.8362 350.526 28.5568C350.753 28.2775 350.912 27.9413 351.002 27.5483H353.069C352.993 28.2538 352.763 28.8835 352.38 29.4375C351.996 29.9915 351.483 30.4271 350.839 30.7443C350.199 31.0616 349.449 31.2202 348.587 31.2202ZM360.432 20.0909V21.7955H354.473V20.0909H360.432ZM356.071 17.4773H358.195V27.7969C358.195 28.2088 358.256 28.5189 358.379 28.7273C358.503 28.9309 358.661 29.0705 358.855 29.1463C359.054 29.2173 359.27 29.2528 359.502 29.2528C359.672 29.2528 359.821 29.241 359.949 29.2173C360.077 29.1937 360.176 29.1747 360.247 29.1605L360.631 30.9148C360.508 30.9621 360.333 31.0095 360.105 31.0568C359.878 31.1089 359.594 31.1373 359.253 31.142C358.694 31.1515 358.173 31.0521 357.691 30.8438C357.208 30.6354 356.817 30.3134 356.519 29.8778C356.22 29.4422 356.071 28.8954 356.071 28.2372V17.4773ZM370.78 22.7543L368.855 23.0952C368.775 22.849 368.647 22.6146 368.472 22.392C368.301 22.1695 368.069 21.9872 367.776 21.8452C367.482 21.7031 367.115 21.6321 366.675 21.6321C366.074 21.6321 365.572 21.767 365.169 22.0369C364.767 22.3021 364.566 22.6454 364.566 23.0668C364.566 23.4313 364.7 23.7249 364.97 23.9474C365.24 24.17 365.676 24.3523 366.277 24.4943L368.01 24.892C369.014 25.1241 369.762 25.4815 370.254 25.9645C370.747 26.4474 370.993 27.0748 370.993 27.8466C370.993 28.5 370.804 29.0824 370.425 29.5938C370.051 30.1004 369.528 30.4981 368.855 30.7869C368.188 31.0758 367.414 31.2202 366.533 31.2202C365.311 31.2202 364.315 30.9598 363.543 30.4389C362.771 29.9134 362.298 29.1676 362.122 28.2017L364.175 27.8892C364.303 28.4242 364.566 28.8291 364.963 29.1037C365.361 29.3736 365.879 29.5085 366.519 29.5085C367.215 29.5085 367.771 29.3641 368.188 29.0753C368.604 28.7817 368.813 28.4242 368.813 28.0028C368.813 27.6619 368.685 27.3755 368.429 27.1435C368.178 26.9115 367.792 26.7363 367.271 26.6179L365.425 26.2131C364.407 25.9811 363.654 25.6117 363.166 25.1051C362.683 24.5985 362.442 23.9569 362.442 23.1804C362.442 22.5365 362.622 21.973 362.982 21.4901C363.342 21.0071 363.839 20.6307 364.473 20.3608C365.108 20.0862 365.834 19.9489 366.654 19.9489C367.833 19.9489 368.761 20.2045 369.438 20.7159C370.115 21.2225 370.562 21.902 370.78 22.7543Z" fill="#34306F"/>
</svg>
