<svg width="220" height="25" viewBox="0 0 220 25" fill="none" xmlns="http://www.w3.org/2000/svg">
<path d="M0 7.39746L3.17871 0H3.58398H3.98926L7.16797 7.39746H6.7627H6.35742L5.30273 4.89746H1.82617L0.78125 7.39746H0.390625H0ZM3.56445 0.761719L2.10938 4.22852H5.03418L3.56445 0.761719ZM8.04199 7.39746V0H8.41309H8.78418V7.39746H8.41309H8.04199ZM15.6543 8.91113C16.3151 8.91113 16.8164 8.72884 17.1582 8.36426C17.5033 8.00293 17.6758 7.47396 17.6758 6.77734V6.47461L17.4902 6.68945C16.9531 7.24609 16.276 7.52441 15.459 7.52441C14.6842 7.52441 14.0283 7.24772 13.4912 6.69434C12.9574 6.14095 12.6904 5.46387 12.6904 4.66309C12.6904 3.85905 12.959 3.18034 13.4961 2.62695C14.0332 2.07357 14.6891 1.79688 15.4639 1.79688C16.2777 1.79688 16.9531 2.07357 17.4902 2.62695L17.6758 2.83691V1.92383H18.3789V6.69434C18.3789 7.60254 18.1413 8.30241 17.666 8.79395C17.194 9.28548 16.5218 9.53125 15.6494 9.53125C14.9528 9.53125 14.3636 9.35547 13.8818 9.00391C13.4001 8.6556 13.0794 8.1722 12.9199 7.55371H13.667C13.8265 7.98014 14.082 8.31217 14.4336 8.5498C14.7852 8.79069 15.1921 8.91113 15.6543 8.91113ZM15.5469 2.39746C14.9447 2.39746 14.4352 2.61556 14.0186 3.05176C13.6019 3.48796 13.3936 4.02181 13.3936 4.65332C13.3936 5.28483 13.6019 5.81868 14.0186 6.25488C14.4352 6.68783 14.9447 6.9043 15.5469 6.9043C16.1523 6.9043 16.6634 6.6862 17.0801 6.25C17.4967 5.8138 17.7051 5.27995 17.7051 4.64844C17.7051 4.01693 17.4967 3.4847 17.0801 3.05176C16.6634 2.61556 16.1523 2.39746 15.5469 2.39746ZM22.2754 7.52441C21.4811 7.52441 20.8073 7.24772 20.2539 6.69434C19.7038 6.14095 19.4287 5.46387 19.4287 4.66309C19.4287 3.85905 19.7038 3.18034 20.2539 2.62695C20.8073 2.07357 21.4811 1.79688 22.2754 1.79688C23.0762 1.79688 23.7516 2.07357 24.3018 2.62695C24.8519 3.18034 25.127 3.85905 25.127 4.66309C25.1302 4.75098 25.1253 4.83887 25.1123 4.92676H20.1465C20.1953 5.43783 20.4004 5.88053 20.7617 6.25488C21.1816 6.68783 21.6943 6.9043 22.2998 6.9043C22.7327 6.9043 23.112 6.79525 23.4375 6.57715C23.7663 6.35905 24.0299 6.04004 24.2285 5.62012H24.9561C24.7607 6.18978 24.4173 6.65039 23.9258 7.00195C23.4342 7.35026 22.8841 7.52441 22.2754 7.52441ZM24.3994 4.29688C24.3311 3.82161 24.1309 3.41146 23.7988 3.06641C23.3854 2.63346 22.8776 2.41699 22.2754 2.41699C21.6764 2.41699 21.1686 2.63509 20.752 3.07129C20.4297 3.41309 20.2295 3.82161 20.1514 4.29688H24.3994ZM26.2012 7.39746V1.92383H26.5479H26.8994V2.63184L27.0117 2.49512C27.3958 2.01986 27.9281 1.78223 28.6084 1.78223C29.3636 1.78223 29.9528 2.01497 30.376 2.48047C30.7992 2.94596 31.0107 3.59375 31.0107 4.42383V7.39746H30.6592H30.3076V4.4043C30.3076 3.78255 30.1579 3.2959 29.8584 2.94434C29.5589 2.59277 29.1423 2.41699 28.6084 2.41699C28.0615 2.41699 27.64 2.59603 27.3438 2.9541C27.0508 3.30892 26.9043 3.81673 26.9043 4.47754V7.39746H26.5527H26.2012ZM34.8828 7.52441C34.0885 7.52441 33.4147 7.24772 32.8613 6.69434C32.3112 6.14095 32.0361 5.46387 32.0361 4.66309C32.0361 3.85905 32.3112 3.18034 32.8613 2.62695C33.4147 2.07357 34.0885 1.79688 34.8828 1.79688C35.6836 1.79688 36.359 2.07357 36.9092 2.62695C37.4593 3.18034 37.7344 3.85905 37.7344 4.66309C37.7376 4.75098 37.7327 4.83887 37.7197 4.92676H32.7539C32.8027 5.43783 33.0078 5.88053 33.3691 6.25488C33.7891 6.68783 34.3018 6.9043 34.9072 6.9043C35.3402 6.9043 35.7194 6.79525 36.0449 6.57715C36.3737 6.35905 36.6374 6.04004 36.8359 5.62012H37.5635C37.3682 6.18978 37.0247 6.65039 36.5332 7.00195C36.0417 7.35026 35.4915 7.52441 34.8828 7.52441ZM37.0068 4.29688C36.9385 3.82161 36.7383 3.41146 36.4062 3.06641C35.9928 2.63346 35.485 2.41699 34.8828 2.41699C34.2839 2.41699 33.776 2.63509 33.3594 3.07129C33.0371 3.41309 32.8369 3.82161 32.7588 4.29688H37.0068ZM38.8086 7.39746V1.92383H39.1553H39.5068V2.70996C39.5687 2.5765 39.637 2.46257 39.7119 2.36816C40.0016 2.00033 40.4541 1.80501 41.0693 1.78223V2.51953C40.6038 2.55534 40.2344 2.70833 39.9609 2.97852C39.6615 3.28125 39.5117 3.71419 39.5117 4.27734V7.39746H39.1602H38.8086ZM44.4678 7.52441C43.6637 7.52441 42.9818 7.24772 42.4219 6.69434C41.8652 6.14095 41.5869 5.46387 41.5869 4.66309C41.5869 3.85905 41.8652 3.18034 42.4219 2.62695C42.9818 2.07357 43.6637 1.79688 44.4678 1.79688C45.2816 1.79688 45.957 2.0752 46.4941 2.63184L46.6748 2.8418V1.92383H47.3779V7.39746H47.0264H46.6748V6.48438C46.6195 6.55924 46.5592 6.62923 46.4941 6.69434C45.957 7.24772 45.2816 7.52441 44.4678 7.52441ZM44.4971 2.41699C43.8786 2.41699 43.3561 2.63509 42.9297 3.07129C42.5033 3.50749 42.29 4.04134 42.29 4.67285C42.29 5.30436 42.5033 5.83822 42.9297 6.27441C43.3561 6.70736 43.8786 6.92383 44.4971 6.92383C45.1156 6.92383 45.638 6.70573 46.0645 6.26953C46.4909 5.83333 46.7041 5.29948 46.7041 4.66797C46.7041 4.03646 46.4909 3.50423 46.0645 3.07129C45.638 2.63509 45.1156 2.41699 44.4971 2.41699ZM49.3066 7.39746V2.55371H48.1445V1.92383H49.3066V0.00976562H50.0098V1.92383H51.3037V2.55371H50.0098V7.39746H49.3066ZM54.6191 7.52441C53.8249 7.52441 53.151 7.24772 52.5977 6.69434C52.0475 6.14095 51.7725 5.46387 51.7725 4.66309C51.7725 3.85905 52.0475 3.18034 52.5977 2.62695C53.151 2.07357 53.8249 1.79688 54.6191 1.79688C55.4199 1.79688 56.0954 2.07357 56.6455 2.62695C57.1956 3.18034 57.4707 3.85905 57.4707 4.66309C57.474 4.75098 57.4691 4.83887 57.4561 4.92676H52.4902C52.5391 5.43783 52.7441 5.88053 53.1055 6.25488C53.5254 6.68783 54.0381 6.9043 54.6436 6.9043C55.0765 6.9043 55.4557 6.79525 55.7812 6.57715C56.11 6.35905 56.3737 6.04004 56.5723 5.62012H57.2998C57.1045 6.18978 56.7611 6.65039 56.2695 7.00195C55.778 7.35026 55.2279 7.52441 54.6191 7.52441ZM56.7432 4.29688C56.6748 3.82161 56.4746 3.41146 56.1426 3.06641C55.7292 2.63346 55.2214 2.41699 54.6191 2.41699C54.0202 2.41699 53.5124 2.63509 53.0957 3.07129C52.7734 3.41309 52.5732 3.82161 52.4951 4.29688H56.7432ZM61.1133 7.52441C60.3223 7.52441 59.6533 7.24772 59.1064 6.69434C58.5596 6.14095 58.2861 5.46387 58.2861 4.66309C58.2861 3.85905 58.5596 3.18034 59.1064 2.62695C59.6533 2.07357 60.3223 1.79688 61.1133 1.79688C61.9434 1.79688 62.6318 2.0752 63.1787 2.63184L63.374 2.85156V0H63.7256H64.0771V7.39746H63.7256H63.374V6.47461L63.1787 6.69434C62.6318 7.24772 61.9434 7.52441 61.1133 7.52441ZM61.1963 2.41699C60.5778 2.41699 60.0553 2.63509 59.6289 3.07129C59.2025 3.50749 58.9893 4.04134 58.9893 4.67285C58.9893 5.30436 59.2025 5.83822 59.6289 6.27441C60.0553 6.70736 60.5778 6.92383 61.1963 6.92383C61.8148 6.92383 62.3372 6.70573 62.7637 6.26953C63.1901 5.83333 63.4033 5.29948 63.4033 4.66797C63.4033 4.03646 63.1901 3.50423 62.7637 3.07129C62.3372 2.63509 61.8148 2.41699 61.1963 2.41699ZM68.1738 7.39746V1.92383H68.5205H68.8721V2.70996C68.9339 2.5765 69.0023 2.46257 69.0771 2.36816C69.3669 2.00033 69.8193 1.80501 70.4346 1.78223V2.51953C69.9691 2.55534 69.5996 2.70833 69.3262 2.97852C69.0267 3.28125 68.877 3.71419 68.877 4.27734V7.39746H68.5254H68.1738ZM73.7598 7.52441C72.9655 7.52441 72.2917 7.24772 71.7383 6.69434C71.1882 6.14095 70.9131 5.46387 70.9131 4.66309C70.9131 3.85905 71.1882 3.18034 71.7383 2.62695C72.2917 2.07357 72.9655 1.79688 73.7598 1.79688C74.5605 1.79688 75.236 2.07357 75.7861 2.62695C76.3363 3.18034 76.6113 3.85905 76.6113 4.66309C76.6146 4.75098 76.6097 4.83887 76.5967 4.92676H71.6309C71.6797 5.43783 71.8848 5.88053 72.2461 6.25488C72.666 6.68783 73.1787 6.9043 73.7842 6.9043C74.2171 6.9043 74.5964 6.79525 74.9219 6.57715C75.2507 6.35905 75.5143 6.04004 75.7129 5.62012H76.4404C76.2451 6.18978 75.9017 6.65039 75.4102 7.00195C74.9186 7.35026 74.3685 7.52441 73.7598 7.52441ZM75.8838 4.29688C75.8154 3.82161 75.6152 3.41146 75.2832 3.06641C74.8698 2.63346 74.362 2.41699 73.7598 2.41699C73.1608 2.41699 72.653 2.63509 72.2363 3.07129C71.9141 3.41309 71.7139 3.82161 71.6357 4.29688H75.8838ZM79.7754 3.27637C79.7786 3.02572 79.7038 2.82064 79.5508 2.66113C79.3978 2.49837 79.1992 2.41699 78.9551 2.41699C78.7044 2.41699 78.5059 2.49349 78.3594 2.64648C78.2129 2.79948 78.1396 3.00781 78.1396 3.27148C78.1396 3.47982 78.2145 3.65072 78.3643 3.78418C78.514 3.91764 78.7728 4.0446 79.1406 4.16504C79.6842 4.34082 80.0765 4.56706 80.3174 4.84375C80.5583 5.11719 80.6787 5.47526 80.6787 5.91797C80.6787 6.37695 80.516 6.75944 80.1904 7.06543C79.8682 7.37142 79.4629 7.52441 78.9746 7.52441C78.4538 7.52441 78.0404 7.36816 77.7344 7.05566C77.4284 6.73991 77.2754 6.3151 77.2754 5.78125H77.9834C77.9769 6.13281 78.0615 6.40788 78.2373 6.60645C78.4131 6.80501 78.6589 6.9043 78.9746 6.9043C79.2773 6.9043 79.5182 6.81966 79.6973 6.65039C79.8763 6.48112 79.9658 6.25326 79.9658 5.9668C79.9658 5.68034 79.8796 5.44922 79.707 5.27344C79.5345 5.10091 79.2383 4.94629 78.8184 4.80957C78.3268 4.65007 77.972 4.45312 77.7539 4.21875C77.5358 3.98438 77.4268 3.68327 77.4268 3.31543C77.4268 2.87923 77.5716 2.5179 77.8613 2.23145C78.151 1.94173 78.5156 1.79688 78.9551 1.79688C79.4141 1.79688 79.7835 1.93359 80.0635 2.20703C80.3434 2.47721 80.4834 2.83366 80.4834 3.27637H79.7754ZM81.5625 1.92383H81.9141H82.2656V2.8418L82.4609 2.62695C83.0078 2.07357 83.6963 1.79688 84.5264 1.79688C85.3206 1.79688 85.9896 2.07357 86.5332 2.62695C87.0801 3.18034 87.3535 3.85905 87.3535 4.66309C87.3535 5.46387 87.0801 6.14095 86.5332 6.69434C85.9896 7.24772 85.3206 7.52441 84.5264 7.52441C83.6995 7.52441 83.0127 7.24609 82.4658 6.68945L82.2656 6.46484V9.32129H81.9141H81.5625V1.92383ZM84.4434 6.9043C85.0618 6.9043 85.5843 6.68783 86.0107 6.25488C86.4372 5.81868 86.6504 5.28483 86.6504 4.65332C86.6504 4.02181 86.4372 3.48796 86.0107 3.05176C85.5843 2.61556 85.0618 2.39746 84.4434 2.39746C83.8249 2.39746 83.3024 2.61556 82.876 3.05176C82.4495 3.4847 82.2363 4.01693 82.2363 4.64844H82.2412C82.2412 5.27995 82.4544 5.8138 82.8809 6.25C83.3073 6.6862 83.8281 6.9043 84.4434 6.9043ZM91.0254 7.52441C90.2279 7.52441 89.5524 7.24772 88.999 6.69434C88.4456 6.14095 88.1689 5.46387 88.1689 4.66309C88.1689 3.85905 88.4456 3.18034 88.999 2.62695C89.5524 2.07357 90.2279 1.79688 91.0254 1.79688C91.8294 1.79688 92.5065 2.07357 93.0566 2.62695C93.61 3.18034 93.8867 3.85905 93.8867 4.66309C93.8867 5.46387 93.61 6.14095 93.0566 6.69434C92.5065 7.24772 91.8294 7.52441 91.0254 7.52441ZM91.0254 6.9043C91.6309 6.9043 92.1419 6.68783 92.5586 6.25488C92.9753 5.82194 93.1836 5.29134 93.1836 4.66309C93.1836 4.03483 92.9753 3.50423 92.5586 3.07129C92.1419 2.63509 91.6309 2.41699 91.0254 2.41699C90.4232 2.41699 89.9137 2.63509 89.4971 3.07129C89.0804 3.50423 88.8721 4.03483 88.8721 4.66309C88.8721 5.29134 89.0804 5.82194 89.4971 6.25488C89.9137 6.68783 90.4232 6.9043 91.0254 6.9043ZM94.9512 7.39746V1.92383H95.2979H95.6494V2.63184L95.7617 2.49512C96.1458 2.01986 96.6781 1.78223 97.3584 1.78223C98.1136 1.78223 98.7028 2.01497 99.126 2.48047C99.5492 2.94596 99.7607 3.59375 99.7607 4.42383V7.39746H99.4092H99.0576V4.4043C99.0576 3.78255 98.9079 3.2959 98.6084 2.94434C98.3089 2.59277 97.8923 2.41699 97.3584 2.41699C96.8115 2.41699 96.39 2.59603 96.0938 2.9541C95.8008 3.30892 95.6543 3.81673 95.6543 4.47754V7.39746H95.3027H94.9512ZM103.145 3.27637C103.148 3.02572 103.073 2.82064 102.92 2.66113C102.767 2.49837 102.568 2.41699 102.324 2.41699C102.074 2.41699 101.875 2.49349 101.729 2.64648C101.582 2.79948 101.509 3.00781 101.509 3.27148C101.509 3.47982 101.584 3.65072 101.733 3.78418C101.883 3.91764 102.142 4.0446 102.51 4.16504C103.053 4.34082 103.446 4.56706 103.687 4.84375C103.927 5.11719 104.048 5.47526 104.048 5.91797C104.048 6.37695 103.885 6.75944 103.56 7.06543C103.237 7.37142 102.832 7.52441 102.344 7.52441C101.823 7.52441 101.41 7.36816 101.104 7.05566C100.798 6.73991 100.645 6.3151 100.645 5.78125H101.353C101.346 6.13281 101.431 6.40788 101.606 6.60645C101.782 6.80501 102.028 6.9043 102.344 6.9043C102.646 6.9043 102.887 6.81966 103.066 6.65039C103.245 6.48112 103.335 6.25326 103.335 5.9668C103.335 5.68034 103.249 5.44922 103.076 5.27344C102.904 5.10091 102.607 4.94629 102.188 4.80957C101.696 4.65007 101.341 4.45312 101.123 4.21875C100.905 3.98438 100.796 3.68327 100.796 3.31543C100.796 2.87923 100.941 2.5179 101.23 2.23145C101.52 1.94173 101.885 1.79688 102.324 1.79688C102.783 1.79688 103.153 1.93359 103.433 2.20703C103.713 2.47721 103.853 2.83366 103.853 3.27637H103.145ZM107.52 7.52441C106.725 7.52441 106.051 7.24772 105.498 6.69434C104.948 6.14095 104.673 5.46387 104.673 4.66309C104.673 3.85905 104.948 3.18034 105.498 2.62695C106.051 2.07357 106.725 1.79688 107.52 1.79688C108.32 1.79688 108.996 2.07357 109.546 2.62695C110.096 3.18034 110.371 3.85905 110.371 4.66309C110.374 4.75098 110.369 4.83887 110.356 4.92676H105.391C105.439 5.43783 105.645 5.88053 106.006 6.25488C106.426 6.68783 106.938 6.9043 107.544 6.9043C107.977 6.9043 108.356 6.79525 108.682 6.57715C109.01 6.35905 109.274 6.04004 109.473 5.62012H110.2C110.005 6.18978 109.661 6.65039 109.17 7.00195C108.678 7.35026 108.128 7.52441 107.52 7.52441ZM109.644 4.29688C109.575 3.82161 109.375 3.41146 109.043 3.06641C108.63 2.63346 108.122 2.41699 107.52 2.41699C106.921 2.41699 106.413 2.63509 105.996 3.07129C105.674 3.41309 105.474 3.82161 105.396 4.29688H109.644ZM113.535 3.27637C113.538 3.02572 113.464 2.82064 113.311 2.66113C113.158 2.49837 112.959 2.41699 112.715 2.41699C112.464 2.41699 112.266 2.49349 112.119 2.64648C111.973 2.79948 111.899 3.00781 111.899 3.27148C111.899 3.47982 111.974 3.65072 112.124 3.78418C112.274 3.91764 112.533 4.0446 112.9 4.16504C113.444 4.34082 113.836 4.56706 114.077 4.84375C114.318 5.11719 114.438 5.47526 114.438 5.91797C114.438 6.37695 114.276 6.75944 113.95 7.06543C113.628 7.37142 113.223 7.52441 112.734 7.52441C112.214 7.52441 111.8 7.36816 111.494 7.05566C111.188 6.73991 111.035 6.3151 111.035 5.78125H111.743C111.737 6.13281 111.821 6.40788 111.997 6.60645C112.173 6.80501 112.419 6.9043 112.734 6.9043C113.037 6.9043 113.278 6.81966 113.457 6.65039C113.636 6.48112 113.726 6.25326 113.726 5.9668C113.726 5.68034 113.639 5.44922 113.467 5.27344C113.294 5.10091 112.998 4.94629 112.578 4.80957C112.087 4.65007 111.732 4.45312 111.514 4.21875C111.296 3.98438 111.187 3.68327 111.187 3.31543C111.187 2.87923 111.331 2.5179 111.621 2.23145C111.911 1.94173 112.275 1.79688 112.715 1.79688C113.174 1.79688 113.543 1.93359 113.823 2.20703C114.103 2.47721 114.243 2.83366 114.243 3.27637H113.535ZM118.115 7.39746V1.92383H118.462H118.813V2.48535L118.872 2.41699C119.22 1.99382 119.704 1.78223 120.322 1.78223C121.006 1.78223 121.54 1.99382 121.924 2.41699C122.035 2.54069 122.131 2.67741 122.212 2.82715C122.284 2.6709 122.37 2.53418 122.471 2.41699C122.826 1.99382 123.319 1.78223 123.95 1.78223C124.65 1.78223 125.195 1.9987 125.586 2.43164C125.98 2.86458 126.177 3.46517 126.177 4.2334V7.39746H125.825H125.474V4.15527C125.474 3.61165 125.342 3.18685 125.078 2.88086C124.818 2.57161 124.455 2.41699 123.989 2.41699C123.514 2.41699 123.146 2.57161 122.886 2.88086C122.629 3.18685 122.5 3.62305 122.5 4.18945V7.39746H122.148H121.797V4.16016C121.797 3.61328 121.665 3.18685 121.401 2.88086C121.138 2.57161 120.773 2.41699 120.308 2.41699C119.832 2.41699 119.465 2.57161 119.204 2.88086C118.947 3.18685 118.818 3.62305 118.818 4.18945V7.39746H118.467H118.115ZM130.142 7.52441C129.338 7.52441 128.656 7.24772 128.096 6.69434C127.539 6.14095 127.261 5.46387 127.261 4.66309C127.261 3.85905 127.539 3.18034 128.096 2.62695C128.656 2.07357 129.338 1.79688 130.142 1.79688C130.955 1.79688 131.631 2.0752 132.168 2.63184L132.349 2.8418V1.92383H133.052V7.39746H132.7H132.349V6.48438C132.293 6.55924 132.233 6.62923 132.168 6.69434C131.631 7.24772 130.955 7.52441 130.142 7.52441ZM130.171 2.41699C129.552 2.41699 129.03 2.63509 128.604 3.07129C128.177 3.50749 127.964 4.04134 127.964 4.67285C127.964 5.30436 128.177 5.83822 128.604 6.27441C129.03 6.70736 129.552 6.92383 130.171 6.92383C130.789 6.92383 131.312 6.70573 131.738 6.26953C132.165 5.83333 132.378 5.29948 132.378 4.66797C132.378 4.03646 132.165 3.50423 131.738 3.07129C131.312 2.63509 130.789 2.41699 130.171 2.41699ZM138.906 1.92383L135.698 9.34082H135.356H135.01L135.947 7.14844L133.828 1.92383H134.209H134.59L136.309 6.29883L138.164 1.92383H138.535H138.906ZM142.461 7.39746V1.92383H142.812H143.164V7.39746H142.812H142.461ZM142.466 0H143.159V1.25488H142.466V0ZM144.463 7.39746V1.92383H144.81H145.161V2.63184L145.273 2.49512C145.658 2.01986 146.19 1.78223 146.87 1.78223C147.625 1.78223 148.215 2.01497 148.638 2.48047C149.061 2.94596 149.272 3.59375 149.272 4.42383V7.39746H148.921H148.569V4.4043C148.569 3.78255 148.42 3.2959 148.12 2.94434C147.821 2.59277 147.404 2.41699 146.87 2.41699C146.323 2.41699 145.902 2.59603 145.605 2.9541C145.312 3.30892 145.166 3.81673 145.166 4.47754V7.39746H144.814H144.463ZM155.986 5.81055C155.742 6.34766 155.382 6.76758 154.907 7.07031C154.432 7.37305 153.895 7.52441 153.296 7.52441C152.466 7.52441 151.763 7.24772 151.187 6.69434C150.614 6.14095 150.327 5.46387 150.327 4.66309C150.327 3.85905 150.614 3.18034 151.187 2.62695C151.763 2.07357 152.466 1.79688 153.296 1.79688C153.888 1.79688 154.422 1.95312 154.897 2.26562C155.373 2.57812 155.736 3.01107 155.986 3.56445H155.239C155.028 3.20638 154.749 2.92643 154.404 2.72461C154.062 2.51953 153.693 2.41699 153.296 2.41699C152.661 2.41699 152.124 2.63509 151.685 3.07129C151.248 3.50423 151.03 4.03483 151.03 4.66309C151.03 5.29134 151.248 5.82194 151.685 6.25488C152.124 6.68783 152.661 6.9043 153.296 6.9043C153.703 6.9043 154.077 6.80827 154.419 6.61621C154.764 6.4209 155.037 6.15234 155.239 5.81055H155.986ZM157.041 7.39746V0H157.393H157.744V7.39746H157.393H157.041ZM159.717 1.92383V5.1709C159.717 5.71452 159.862 6.13932 160.151 6.44531C160.441 6.74805 160.843 6.89941 161.357 6.89941C161.914 6.89941 162.344 6.72038 162.646 6.3623C162.949 6.00423 163.101 5.49316 163.101 4.8291V1.92383H163.452H163.804V7.39746H163.477H163.145V6.51855C163.089 6.61947 163.024 6.71712 162.949 6.81152C162.572 7.28678 162.048 7.52441 161.377 7.52441C160.635 7.52441 160.055 7.31771 159.639 6.9043C159.222 6.49089 159.014 5.91797 159.014 5.18555V1.92383H159.365H159.717ZM167.695 7.52441C166.904 7.52441 166.235 7.24772 165.688 6.69434C165.142 6.14095 164.868 5.46387 164.868 4.66309C164.868 3.85905 165.142 3.18034 165.688 2.62695C166.235 2.07357 166.904 1.79688 167.695 1.79688C168.525 1.79688 169.214 2.0752 169.761 2.63184L169.956 2.85156V0H170.308H170.659V7.39746H170.308H169.956V6.47461L169.761 6.69434C169.214 7.24772 168.525 7.52441 167.695 7.52441ZM167.778 2.41699C167.16 2.41699 166.637 2.63509 166.211 3.07129C165.785 3.50749 165.571 4.04134 165.571 4.67285C165.571 5.30436 165.785 5.83822 166.211 6.27441C166.637 6.70736 167.16 6.92383 167.778 6.92383C168.397 6.92383 168.919 6.70573 169.346 6.26953C169.772 5.83333 169.985 5.29948 169.985 4.66797C169.985 4.03646 169.772 3.50423 169.346 3.07129C168.919 2.63509 168.397 2.41699 167.778 2.41699ZM174.561 7.52441C173.766 7.52441 173.092 7.24772 172.539 6.69434C171.989 6.14095 171.714 5.46387 171.714 4.66309C171.714 3.85905 171.989 3.18034 172.539 2.62695C173.092 2.07357 173.766 1.79688 174.561 1.79688C175.361 1.79688 176.037 2.07357 176.587 2.62695C177.137 3.18034 177.412 3.85905 177.412 4.66309C177.415 4.75098 177.41 4.83887 177.397 4.92676H172.432C172.48 5.43783 172.686 5.88053 173.047 6.25488C173.467 6.68783 173.979 6.9043 174.585 6.9043C175.018 6.9043 175.397 6.79525 175.723 6.57715C176.051 6.35905 176.315 6.04004 176.514 5.62012H177.241C177.046 6.18978 176.702 6.65039 176.211 7.00195C175.719 7.35026 175.169 7.52441 174.561 7.52441ZM176.685 4.29688C176.616 3.82161 176.416 3.41146 176.084 3.06641C175.671 2.63346 175.163 2.41699 174.561 2.41699C173.962 2.41699 173.454 2.63509 173.037 3.07129C172.715 3.41309 172.515 3.82161 172.437 4.29688H176.685ZM181.27 7.39746V1.92383H181.616H181.968V2.48535L182.026 2.41699C182.375 1.99382 182.858 1.78223 183.477 1.78223C184.16 1.78223 184.694 1.99382 185.078 2.41699C185.189 2.54069 185.285 2.67741 185.366 2.82715C185.438 2.6709 185.524 2.53418 185.625 2.41699C185.98 1.99382 186.473 1.78223 187.104 1.78223C187.804 1.78223 188.35 1.9987 188.74 2.43164C189.134 2.86458 189.331 3.46517 189.331 4.2334V7.39746H188.979H188.628V4.15527C188.628 3.61165 188.496 3.18685 188.232 2.88086C187.972 2.57161 187.609 2.41699 187.144 2.41699C186.668 2.41699 186.3 2.57161 186.04 2.88086C185.783 3.18685 185.654 3.62305 185.654 4.18945V7.39746H185.303H184.951V4.16016C184.951 3.61328 184.819 3.18685 184.556 2.88086C184.292 2.57161 183.927 2.41699 183.462 2.41699C182.987 2.41699 182.619 2.57161 182.358 2.88086C182.101 3.18685 181.973 3.62305 181.973 4.18945V7.39746H181.621H181.27ZM190.645 7.39746V1.92383H190.996H191.348V7.39746H190.996H190.645ZM190.649 0H191.343V1.25488H190.649V0ZM194.736 3.27637C194.74 3.02572 194.665 2.82064 194.512 2.66113C194.359 2.49837 194.16 2.41699 193.916 2.41699C193.665 2.41699 193.467 2.49349 193.32 2.64648C193.174 2.79948 193.101 3.00781 193.101 3.27148C193.101 3.47982 193.175 3.65072 193.325 3.78418C193.475 3.91764 193.734 4.0446 194.102 4.16504C194.645 4.34082 195.037 4.56706 195.278 4.84375C195.519 5.11719 195.64 5.47526 195.64 5.91797C195.64 6.37695 195.477 6.75944 195.151 7.06543C194.829 7.37142 194.424 7.52441 193.936 7.52441C193.415 7.52441 193.001 7.36816 192.695 7.05566C192.389 6.73991 192.236 6.3151 192.236 5.78125H192.944C192.938 6.13281 193.022 6.40788 193.198 6.60645C193.374 6.80501 193.62 6.9043 193.936 6.9043C194.238 6.9043 194.479 6.81966 194.658 6.65039C194.837 6.48112 194.927 6.25326 194.927 5.9668C194.927 5.68034 194.84 5.44922 194.668 5.27344C194.495 5.10091 194.199 4.94629 193.779 4.80957C193.288 4.65007 192.933 4.45312 192.715 4.21875C192.497 3.98438 192.388 3.68327 192.388 3.31543C192.388 2.87923 192.533 2.5179 192.822 2.23145C193.112 1.94173 193.477 1.79688 193.916 1.79688C194.375 1.79688 194.744 1.93359 195.024 2.20703C195.304 2.47721 195.444 2.83366 195.444 3.27637H194.736ZM197.188 7.39746V2.55371H196.025V1.92383H197.188V0.00976562H197.891V1.92383H199.185V2.55371H197.891V7.39746H197.188ZM202.573 7.52441C201.769 7.52441 201.087 7.24772 200.527 6.69434C199.971 6.14095 199.692 5.46387 199.692 4.66309C199.692 3.85905 199.971 3.18034 200.527 2.62695C201.087 2.07357 201.769 1.79688 202.573 1.79688C203.387 1.79688 204.062 2.0752 204.6 2.63184L204.78 2.8418V1.92383H205.483V7.39746H205.132H204.78V6.48438C204.725 6.55924 204.665 6.62923 204.6 6.69434C204.062 7.24772 203.387 7.52441 202.573 7.52441ZM202.603 2.41699C201.984 2.41699 201.462 2.63509 201.035 3.07129C200.609 3.50749 200.396 4.04134 200.396 4.67285C200.396 5.30436 200.609 5.83822 201.035 6.27441C201.462 6.70736 201.984 6.92383 202.603 6.92383C203.221 6.92383 203.743 6.70573 204.17 6.26953C204.596 5.83333 204.81 5.29948 204.81 4.66797C204.81 4.03646 204.596 3.50423 204.17 3.07129C203.743 2.63509 203.221 2.41699 202.603 2.41699ZM206.807 7.39746V0H207.158H207.51V5.28809L210.088 1.92383H210.522H210.962L208.809 4.66797L211.089 7.39746H210.63H210.171L208.389 5.2002L207.51 6.31836V7.39746H207.158H206.807ZM214.355 7.52441C213.561 7.52441 212.887 7.24772 212.334 6.69434C211.784 6.14095 211.509 5.46387 211.509 4.66309C211.509 3.85905 211.784 3.18034 212.334 2.62695C212.887 2.07357 213.561 1.79688 214.355 1.79688C215.156 1.79688 215.832 2.07357 216.382 2.62695C216.932 3.18034 217.207 3.85905 217.207 4.66309C217.21 4.75098 217.205 4.83887 217.192 4.92676H212.227C212.275 5.43783 212.48 5.88053 212.842 6.25488C213.262 6.68783 213.774 6.9043 214.38 6.9043C214.813 6.9043 215.192 6.79525 215.518 6.57715C215.846 6.35905 216.11 6.04004 216.309 5.62012H217.036C216.841 6.18978 216.497 6.65039 216.006 7.00195C215.514 7.35026 214.964 7.52441 214.355 7.52441ZM216.479 4.29688C216.411 3.82161 216.211 3.41146 215.879 3.06641C215.465 2.63346 214.958 2.41699 214.355 2.41699C213.757 2.41699 213.249 2.63509 212.832 3.07129C212.51 3.41309 212.31 3.82161 212.231 4.29688H216.479ZM218.652 6.1377H219.395V7.39746H218.652V6.1377ZM28.0615 22.3975V15H28.4326H30C30.7324 15 31.3053 15.1676 31.7188 15.5029C32.1322 15.835 32.3389 16.2956 32.3389 16.8848C32.3389 17.474 32.1322 17.9346 31.7188 18.2666C31.6471 18.3252 31.5674 18.3789 31.4795 18.4277C31.7074 18.5221 31.9076 18.6377 32.0801 18.7744C32.5358 19.1423 32.7637 19.6549 32.7637 20.3125C32.7637 20.9668 32.5488 21.4779 32.1191 21.8457C31.6927 22.2135 31.1003 22.3975 30.3418 22.3975H28.4326H28.0615ZM28.8037 15.6641V18.1836H30.1074C30.5697 18.1836 30.931 18.0729 31.1914 17.8516C31.4551 17.6302 31.5869 17.3226 31.5869 16.9287C31.5869 16.5316 31.4469 16.2223 31.167 16.001C30.887 15.7764 30.498 15.6641 30 15.6641H28.8037ZM28.8037 18.8477V21.7334H30.3418C30.8659 21.7334 31.2744 21.6064 31.5674 21.3525C31.8636 21.0986 32.0117 20.7454 32.0117 20.293C32.0117 19.8405 31.849 19.4873 31.5234 19.2334C31.2012 18.9762 30.7536 18.8477 30.1807 18.8477H28.8037ZM38.291 16.9238L35.083 24.3408H34.7412H34.3945L35.332 22.1484L33.2129 16.9238H33.5938H33.9746L35.6934 21.2988L37.5488 16.9238H37.9199H38.291ZM43.9355 18.2764C43.9388 18.0257 43.8639 17.8206 43.7109 17.6611C43.5579 17.4984 43.3594 17.417 43.1152 17.417C42.8646 17.417 42.666 17.4935 42.5195 17.6465C42.373 17.7995 42.2998 18.0078 42.2998 18.2715C42.2998 18.4798 42.3747 18.6507 42.5244 18.7842C42.6742 18.9176 42.9329 19.0446 43.3008 19.165C43.8444 19.3408 44.2367 19.5671 44.4775 19.8438C44.7184 20.1172 44.8389 20.4753 44.8389 20.918C44.8389 21.377 44.6761 21.7594 44.3506 22.0654C44.0283 22.3714 43.623 22.5244 43.1348 22.5244C42.6139 22.5244 42.2005 22.3682 41.8945 22.0557C41.5885 21.7399 41.4355 21.3151 41.4355 20.7812H42.1436C42.137 21.1328 42.2217 21.4079 42.3975 21.6064C42.5732 21.805 42.819 21.9043 43.1348 21.9043C43.4375 21.9043 43.6784 21.8197 43.8574 21.6504C44.0365 21.4811 44.126 21.2533 44.126 20.9668C44.126 20.6803 44.0397 20.4492 43.8672 20.2734C43.6947 20.1009 43.3984 19.9463 42.9785 19.8096C42.487 19.6501 42.1322 19.4531 41.9141 19.2188C41.696 18.9844 41.5869 18.6833 41.5869 18.3154C41.5869 17.8792 41.7318 17.5179 42.0215 17.2314C42.3112 16.9417 42.6758 16.7969 43.1152 16.7969C43.5742 16.7969 43.9437 16.9336 44.2236 17.207C44.5036 17.4772 44.6436 17.8337 44.6436 18.2764H43.9355ZM46.3867 22.3975V17.5537H45.2246V16.9238H46.3867V15.0098H47.0898V16.9238H48.3838V17.5537H47.0898V22.3975H46.3867ZM51.7725 22.5244C50.9684 22.5244 50.2865 22.2477 49.7266 21.6943C49.1699 21.141 48.8916 20.4639 48.8916 19.6631C48.8916 18.859 49.1699 18.1803 49.7266 17.627C50.2865 17.0736 50.9684 16.7969 51.7725 16.7969C52.5863 16.7969 53.2617 17.0752 53.7988 17.6318L53.9795 17.8418V16.9238H54.6826V22.3975H54.3311H53.9795V21.4844C53.9242 21.5592 53.8639 21.6292 53.7988 21.6943C53.2617 22.2477 52.5863 22.5244 51.7725 22.5244ZM51.8018 17.417C51.1833 17.417 50.6608 17.6351 50.2344 18.0713C49.8079 18.5075 49.5947 19.0413 49.5947 19.6729C49.5947 20.3044 49.8079 20.8382 50.2344 21.2744C50.6608 21.7074 51.1833 21.9238 51.8018 21.9238C52.4202 21.9238 52.9427 21.7057 53.3691 21.2695C53.7956 20.8333 54.0088 20.2995 54.0088 19.668C54.0088 19.0365 53.7956 18.5042 53.3691 18.0713C52.9427 17.6351 52.4202 17.417 51.8018 17.417ZM55.957 22.3975V16.9238H56.3037H56.6553V17.71C56.7171 17.5765 56.7855 17.4626 56.8604 17.3682C57.1501 17.0003 57.6025 16.805 58.2178 16.7822V17.5195C57.7523 17.5553 57.3828 17.7083 57.1094 17.9785C56.8099 18.2812 56.6602 18.7142 56.6602 19.2773V22.3975H56.3086H55.957ZM59.6191 22.3975V17.5537H58.457V16.9238H59.6191V15.0098H60.3223V16.9238H61.6162V17.5537H60.3223V22.3975H59.6191ZM62.3535 22.3975V16.9238H62.7051H63.0566V22.3975H62.7051H62.3535ZM62.3584 15H63.0518V16.2549H62.3584V15ZM64.3555 22.3975V16.9238H64.7021H65.0537V17.6318L65.166 17.4951C65.5501 17.0199 66.0824 16.7822 66.7627 16.7822C67.5179 16.7822 68.1071 17.015 68.5303 17.4805C68.9535 17.946 69.165 18.5938 69.165 19.4238V22.3975H68.8135H68.4619V19.4043C68.4619 18.7826 68.3122 18.2959 68.0127 17.9443C67.7132 17.5928 67.2965 17.417 66.7627 17.417C66.2158 17.417 65.7943 17.596 65.498 17.9541C65.2051 18.3089 65.0586 18.8167 65.0586 19.4775V22.3975H64.707H64.3555ZM73.1445 23.9111C73.8053 23.9111 74.3066 23.7288 74.6484 23.3643C74.9935 23.0029 75.166 22.474 75.166 21.7773V21.4746L74.9805 21.6895C74.4434 22.2461 73.7663 22.5244 72.9492 22.5244C72.1745 22.5244 71.5186 22.2477 70.9814 21.6943C70.4476 21.141 70.1807 20.4639 70.1807 19.6631C70.1807 18.859 70.4492 18.1803 70.9863 17.627C71.5234 17.0736 72.1794 16.7969 72.9541 16.7969C73.7679 16.7969 74.4434 17.0736 74.9805 17.627L75.166 17.8369V16.9238H75.8691V21.6943C75.8691 22.6025 75.6315 23.3024 75.1562 23.7939C74.6842 24.2855 74.012 24.5312 73.1396 24.5312C72.443 24.5312 71.8538 24.3555 71.3721 24.0039C70.8903 23.6556 70.5697 23.1722 70.4102 22.5537H71.1572C71.3167 22.9801 71.5723 23.3122 71.9238 23.5498C72.2754 23.7907 72.6823 23.9111 73.1445 23.9111ZM73.0371 17.3975C72.4349 17.3975 71.9255 17.6156 71.5088 18.0518C71.0921 18.488 70.8838 19.0218 70.8838 19.6533C70.8838 20.2848 71.0921 20.8187 71.5088 21.2549C71.9255 21.6878 72.4349 21.9043 73.0371 21.9043C73.6426 21.9043 74.1536 21.6862 74.5703 21.25C74.987 20.8138 75.1953 20.2799 75.1953 19.6484C75.1953 19.0169 74.987 18.4847 74.5703 18.0518C74.1536 17.6156 73.6426 17.3975 73.0371 17.3975ZM76.6797 23.0762L77.5586 21.1377H78.3057L77.4268 23.0762H76.6797ZM87.3145 16.9238L84.1064 24.3408H83.7646H83.418L84.3555 22.1484L82.2363 16.9238H82.6172H82.998L84.7168 21.2988L86.5723 16.9238H86.9434H87.3145ZM90.7227 22.5244C89.9251 22.5244 89.2497 22.2477 88.6963 21.6943C88.1429 21.141 87.8662 20.4639 87.8662 19.6631C87.8662 18.859 88.1429 18.1803 88.6963 17.627C89.2497 17.0736 89.9251 16.7969 90.7227 16.7969C91.5267 16.7969 92.2038 17.0736 92.7539 17.627C93.3073 18.1803 93.584 18.859 93.584 19.6631C93.584 20.4639 93.3073 21.141 92.7539 21.6943C92.2038 22.2477 91.5267 22.5244 90.7227 22.5244ZM90.7227 21.9043C91.3281 21.9043 91.8392 21.6878 92.2559 21.2549C92.6725 20.8219 92.8809 20.2913 92.8809 19.6631C92.8809 19.0348 92.6725 18.5042 92.2559 18.0713C91.8392 17.6351 91.3281 17.417 90.7227 17.417C90.1204 17.417 89.611 17.6351 89.1943 18.0713C88.7777 18.5042 88.5693 19.0348 88.5693 19.6631C88.5693 20.2913 88.7777 20.8219 89.1943 21.2549C89.611 21.6878 90.1204 21.9043 90.7227 21.9043ZM95.3223 16.9238V20.1709C95.3223 20.7145 95.4671 21.1393 95.7568 21.4453C96.0465 21.748 96.4486 21.8994 96.9629 21.8994C97.5195 21.8994 97.9492 21.7204 98.252 21.3623C98.5547 21.0042 98.7061 20.4932 98.7061 19.8291V16.9238H99.0576H99.4092V22.3975H99.082H98.75V21.5186C98.6947 21.6195 98.6296 21.7171 98.5547 21.8115C98.1771 22.2868 97.653 22.5244 96.9824 22.5244C96.2402 22.5244 95.6608 22.3177 95.2441 21.9043C94.8275 21.4909 94.6191 20.918 94.6191 20.1855V16.9238H94.9707H95.3223ZM106.157 22.5244C105.353 22.5244 104.671 22.2477 104.111 21.6943C103.555 21.141 103.276 20.4639 103.276 19.6631C103.276 18.859 103.555 18.1803 104.111 17.627C104.671 17.0736 105.353 16.7969 106.157 16.7969C106.971 16.7969 107.646 17.0752 108.184 17.6318L108.364 17.8418V16.9238H109.067V22.3975H108.716H108.364V21.4844C108.309 21.5592 108.249 21.6292 108.184 21.6943C107.646 22.2477 106.971 22.5244 106.157 22.5244ZM106.187 17.417C105.568 17.417 105.046 17.6351 104.619 18.0713C104.193 18.5075 103.979 19.0413 103.979 19.6729C103.979 20.3044 104.193 20.8382 104.619 21.2744C105.046 21.7074 105.568 21.9238 106.187 21.9238C106.805 21.9238 107.327 21.7057 107.754 21.2695C108.18 20.8333 108.394 20.2995 108.394 19.668C108.394 19.0365 108.18 18.5042 107.754 18.0713C107.327 17.6351 106.805 17.417 106.187 17.417ZM113.027 23.9111C113.688 23.9111 114.189 23.7288 114.531 23.3643C114.876 23.0029 115.049 22.474 115.049 21.7773V21.4746L114.863 21.6895C114.326 22.2461 113.649 22.5244 112.832 22.5244C112.057 22.5244 111.401 22.2477 110.864 21.6943C110.33 21.141 110.063 20.4639 110.063 19.6631C110.063 18.859 110.332 18.1803 110.869 17.627C111.406 17.0736 112.062 16.7969 112.837 16.7969C113.651 16.7969 114.326 17.0736 114.863 17.627L115.049 17.8369V16.9238H115.752V21.6943C115.752 22.6025 115.514 23.3024 115.039 23.7939C114.567 24.2855 113.895 24.5312 113.022 24.5312C112.326 24.5312 111.737 24.3555 111.255 24.0039C110.773 23.6556 110.452 23.1722 110.293 22.5537H111.04C111.2 22.9801 111.455 23.3122 111.807 23.5498C112.158 23.7907 112.565 23.9111 113.027 23.9111ZM112.92 17.3975C112.318 17.3975 111.808 17.6156 111.392 18.0518C110.975 18.488 110.767 19.0218 110.767 19.6533C110.767 20.2848 110.975 20.8187 111.392 21.2549C111.808 21.6878 112.318 21.9043 112.92 21.9043C113.525 21.9043 114.036 21.6862 114.453 21.25C114.87 20.8138 115.078 20.2799 115.078 19.6484C115.078 19.0169 114.87 18.4847 114.453 18.0518C114.036 17.6156 113.525 17.3975 112.92 17.3975ZM117.07 22.3975V16.9238H117.417H117.769V17.71C117.83 17.5765 117.899 17.4626 117.974 17.3682C118.263 17.0003 118.716 16.805 119.331 16.7822V17.5195C118.866 17.5553 118.496 17.7083 118.223 17.9785C117.923 18.2812 117.773 18.7142 117.773 19.2773V22.3975H117.422H117.07ZM122.656 22.5244C121.862 22.5244 121.188 22.2477 120.635 21.6943C120.085 21.141 119.81 20.4639 119.81 19.6631C119.81 18.859 120.085 18.1803 120.635 17.627C121.188 17.0736 121.862 16.7969 122.656 16.7969C123.457 16.7969 124.132 17.0736 124.683 17.627C125.233 18.1803 125.508 18.859 125.508 19.6631C125.511 19.751 125.506 19.8389 125.493 19.9268H120.527C120.576 20.4378 120.781 20.8805 121.143 21.2549C121.562 21.6878 122.075 21.9043 122.681 21.9043C123.114 21.9043 123.493 21.7952 123.818 21.5771C124.147 21.359 124.411 21.04 124.609 20.6201H125.337C125.142 21.1898 124.798 21.6504 124.307 22.002C123.815 22.3503 123.265 22.5244 122.656 22.5244ZM124.78 19.2969C124.712 18.8216 124.512 18.4115 124.18 18.0664C123.766 17.6335 123.258 17.417 122.656 17.417C122.057 17.417 121.549 17.6351 121.133 18.0713C120.811 18.4131 120.61 18.8216 120.532 19.2969H124.78ZM129.16 22.5244C128.366 22.5244 127.692 22.2477 127.139 21.6943C126.589 21.141 126.313 20.4639 126.313 19.6631C126.313 18.859 126.589 18.1803 127.139 17.627C127.692 17.0736 128.366 16.7969 129.16 16.7969C129.961 16.7969 130.636 17.0736 131.187 17.627C131.737 18.1803 132.012 18.859 132.012 19.6631C132.015 19.751 132.01 19.8389 131.997 19.9268H127.031C127.08 20.4378 127.285 20.8805 127.646 21.2549C128.066 21.6878 128.579 21.9043 129.185 21.9043C129.618 21.9043 129.997 21.7952 130.322 21.5771C130.651 21.359 130.915 21.04 131.113 20.6201H131.841C131.646 21.1898 131.302 21.6504 130.811 22.002C130.319 22.3503 129.769 22.5244 129.16 22.5244ZM131.284 19.2969C131.216 18.8216 131.016 18.4115 130.684 18.0664C130.27 17.6335 129.762 17.417 129.16 17.417C128.561 17.417 128.053 17.6351 127.637 18.0713C127.314 18.4131 127.114 18.8216 127.036 19.2969H131.284ZM136.514 22.3975V17.5537H135.352V16.9238H136.514V15.0098H137.217V16.9238H138.511V17.5537H137.217V22.3975H136.514ZM141.875 22.5244C141.077 22.5244 140.402 22.2477 139.849 21.6943C139.295 21.141 139.019 20.4639 139.019 19.6631C139.019 18.859 139.295 18.1803 139.849 17.627C140.402 17.0736 141.077 16.7969 141.875 16.7969C142.679 16.7969 143.356 17.0736 143.906 17.627C144.46 18.1803 144.736 18.859 144.736 19.6631C144.736 20.4639 144.46 21.141 143.906 21.6943C143.356 22.2477 142.679 22.5244 141.875 22.5244ZM141.875 21.9043C142.48 21.9043 142.992 21.6878 143.408 21.2549C143.825 20.8219 144.033 20.2913 144.033 19.6631C144.033 19.0348 143.825 18.5042 143.408 18.0713C142.992 17.6351 142.48 17.417 141.875 17.417C141.273 17.417 140.763 17.6351 140.347 18.0713C139.93 18.5042 139.722 19.0348 139.722 19.6631C139.722 20.2913 139.93 20.8219 140.347 21.2549C140.763 21.6878 141.273 21.9043 141.875 21.9043ZM151.201 22.5244C150.404 22.5244 149.728 22.2477 149.175 21.6943C148.621 21.141 148.345 20.4639 148.345 19.6631C148.345 18.859 148.621 18.1803 149.175 17.627C149.728 17.0736 150.404 16.7969 151.201 16.7969C152.005 16.7969 152.682 17.0736 153.232 17.627C153.786 18.1803 154.062 18.859 154.062 19.6631C154.062 20.4639 153.786 21.141 153.232 21.6943C152.682 22.2477 152.005 22.5244 151.201 22.5244ZM151.201 21.9043C151.807 21.9043 152.318 21.6878 152.734 21.2549C153.151 20.8219 153.359 20.2913 153.359 19.6631C153.359 19.0348 153.151 18.5042 152.734 18.0713C152.318 17.6351 151.807 17.417 151.201 17.417C150.599 17.417 150.09 17.6351 149.673 18.0713C149.256 18.5042 149.048 19.0348 149.048 19.6631C149.048 20.2913 149.256 20.8219 149.673 21.2549C150.09 21.6878 150.599 21.9043 151.201 21.9043ZM155.801 16.9238V20.1709C155.801 20.7145 155.946 21.1393 156.235 21.4453C156.525 21.748 156.927 21.8994 157.441 21.8994C157.998 21.8994 158.428 21.7204 158.73 21.3623C159.033 21.0042 159.185 20.4932 159.185 19.8291V16.9238H159.536H159.888V22.3975H159.561H159.229V21.5186C159.173 21.6195 159.108 21.7171 159.033 21.8115C158.656 22.2868 158.132 22.5244 157.461 22.5244C156.719 22.5244 156.139 22.3177 155.723 21.9043C155.306 21.4909 155.098 20.918 155.098 20.1855V16.9238H155.449H155.801ZM161.211 22.3975V16.9238H161.558H161.909V17.71C161.971 17.5765 162.039 17.4626 162.114 17.3682C162.404 17.0003 162.856 16.805 163.472 16.7822V17.5195C163.006 17.5553 162.637 17.7083 162.363 17.9785C162.064 18.2812 161.914 18.7142 161.914 19.2773V22.3975H161.562H161.211ZM168.096 22.3975V15.6689H166.401V15.3369V15H170.532V15.332V15.6689H168.838V22.3975H168.467H168.096ZM172.041 16.5234C172.041 16.0612 172.214 15.6706 172.559 15.3516C172.904 15.0326 173.327 14.873 173.828 14.873C174.326 14.873 174.748 15.0374 175.093 15.3662C175.438 15.6917 175.61 16.0921 175.61 16.5674C175.61 16.9906 175.441 17.3665 175.103 17.6953C174.842 17.9525 174.507 18.1494 174.097 18.2861L175.605 19.7412L176.655 17.5928H177.485C177.479 17.5667 177.035 18.4587 176.152 20.2686L177.959 22.0117L177.427 22.5293L175.801 20.957C175.527 21.4453 175.228 21.8148 174.902 22.0654C174.505 22.3714 174.038 22.5244 173.501 22.5244C172.876 22.5244 172.329 22.3063 171.86 21.8701C171.395 21.4307 171.162 20.918 171.162 20.332C171.162 19.7721 171.348 19.2741 171.719 18.8379C172.002 18.5059 172.365 18.2454 172.808 18.0566C172.57 17.8158 172.397 17.609 172.29 17.4365C172.124 17.1696 172.041 16.8652 172.041 16.5234ZM173.457 21.8164C173.851 21.8164 174.204 21.6813 174.517 21.4111C174.774 21.193 175.021 20.8675 175.259 20.4346L173.345 18.5889C172.974 18.7288 172.664 18.9274 172.417 19.1846C172.082 19.5296 171.914 19.9235 171.914 20.3662C171.914 20.7633 172.065 21.1051 172.368 21.3916C172.671 21.6748 173.034 21.8164 173.457 21.8164ZM172.783 16.5186C172.783 16.7334 172.853 16.9401 172.993 17.1387C173.097 17.2884 173.285 17.4984 173.555 17.7686C173.896 17.6709 174.18 17.5326 174.404 17.3535C174.714 17.1094 174.868 16.8343 174.868 16.5283C174.868 16.2549 174.767 16.0254 174.565 15.8398C174.364 15.651 174.118 15.5566 173.828 15.5566C173.535 15.5566 173.288 15.6494 173.086 15.835C172.884 16.0205 172.783 16.2484 172.783 16.5186ZM185.879 20.459C185.609 21.0579 185.155 21.5527 184.517 21.9434C183.879 22.3307 183.203 22.5244 182.49 22.5244C181.403 22.5244 180.482 22.1549 179.727 21.416C178.975 20.6771 178.599 19.7721 178.599 18.7012C178.599 17.6302 178.975 16.7253 179.727 15.9863C180.482 15.2441 181.403 14.873 182.49 14.873C183.187 14.873 183.846 15.0635 184.468 15.4443C185.093 15.8252 185.539 16.3102 185.806 16.8994H185.005C184.771 16.499 184.417 16.1719 183.945 15.918C183.477 15.6641 182.992 15.5371 182.49 15.5371C181.611 15.5371 180.868 15.8431 180.259 16.4551C179.653 17.0671 179.351 17.8158 179.351 18.7012C179.351 19.5866 179.653 20.3353 180.259 20.9473C180.868 21.556 181.611 21.8604 182.49 21.8604C183.008 21.8604 183.507 21.7301 183.989 21.4697C184.474 21.2061 184.837 20.8691 185.078 20.459H185.879ZM189.043 18.2764C189.046 18.0257 188.971 17.8206 188.818 17.6611C188.665 17.4984 188.467 17.417 188.223 17.417C187.972 17.417 187.773 17.4935 187.627 17.6465C187.48 17.7995 187.407 18.0078 187.407 18.2715C187.407 18.4798 187.482 18.6507 187.632 18.7842C187.782 18.9176 188.04 19.0446 188.408 19.165C188.952 19.3408 189.344 19.5671 189.585 19.8438C189.826 20.1172 189.946 20.4753 189.946 20.918C189.946 21.377 189.784 21.7594 189.458 22.0654C189.136 22.3714 188.73 22.5244 188.242 22.5244C187.721 22.5244 187.308 22.3682 187.002 22.0557C186.696 21.7399 186.543 21.3151 186.543 20.7812H187.251C187.244 21.1328 187.329 21.4079 187.505 21.6064C187.681 21.805 187.926 21.9043 188.242 21.9043C188.545 21.9043 188.786 21.8197 188.965 21.6504C189.144 21.4811 189.233 21.2533 189.233 20.9668C189.233 20.6803 189.147 20.4492 188.975 20.2734C188.802 20.1009 188.506 19.9463 188.086 19.8096C187.594 19.6501 187.24 19.4531 187.021 19.2188C186.803 18.9844 186.694 18.6833 186.694 18.3154C186.694 17.8792 186.839 17.5179 187.129 17.2314C187.419 16.9417 187.783 16.7969 188.223 16.7969C188.682 16.7969 189.051 16.9336 189.331 17.207C189.611 17.4772 189.751 17.8337 189.751 18.2764H189.043ZM191.211 21.1377H191.953V22.3975H191.211V21.1377Z" fill="#505050"/>
<path d="M166.343 23.6475H190.19V24.1455H166.343V23.6475Z" fill="#505050"/>
</svg>
