<svg width="544" height="116" viewBox="0 0 544 116" fill="none" xmlns="http://www.w3.org/2000/svg">
<path d="M71.8945 1.02539V14.7656H70.8105C70.459 12.1289 69.8242 10.0293 68.9062 8.4668C68.0078 6.9043 66.7188 5.66406 65.0391 4.74609C63.3594 3.82813 61.6211 3.36914 59.8242 3.36914C57.793 3.36914 56.1133 3.99414 54.7852 5.24414C53.457 6.47461 52.793 7.88086 52.793 9.46289C52.793 10.6738 53.2129 11.7773 54.0527 12.7734C55.2637 14.2383 58.1445 16.1914 62.6953 18.6328C66.4062 20.625 68.9355 22.1582 70.2832 23.2324C71.6504 24.2871 72.6953 25.5371 73.418 26.9824C74.1602 28.4277 74.5312 29.9414 74.5312 31.5234C74.5312 34.5312 73.3594 37.1289 71.0156 39.3164C68.6914 41.4844 65.6934 42.5684 62.0215 42.5684C60.8691 42.5684 59.7852 42.4805 58.7695 42.3047C58.1641 42.207 56.9043 41.8555 54.9902 41.25C53.0957 40.625 51.8945 40.3125 51.3867 40.3125C50.8984 40.3125 50.5078 40.459 50.2148 40.752C49.9414 41.0449 49.7363 41.6504 49.5996 42.5684H48.5156V28.9453H49.5996C50.1074 31.7969 50.791 33.9355 51.6504 35.3613C52.5098 36.7676 53.8184 37.9395 55.5762 38.877C57.3535 39.8145 59.2969 40.2832 61.4062 40.2832C63.8477 40.2832 65.7715 39.6387 67.1777 38.3496C68.6035 37.0605 69.3164 35.5371 69.3164 33.7793C69.3164 32.8027 69.043 31.8164 68.4961 30.8203C67.9688 29.8242 67.1387 28.8965 66.0059 28.0371C65.2441 27.4512 63.1641 26.2109 59.7656 24.3164C56.3672 22.4023 53.9453 20.8789 52.5 19.7461C51.0742 18.6133 49.9902 17.3633 49.248 15.9961C48.5059 14.6289 48.1348 13.125 48.1348 11.4844C48.1348 8.63281 49.2285 6.18164 51.416 4.13086C53.6035 2.06055 56.3867 1.02539 59.7656 1.02539C61.875 1.02539 64.1113 1.54297 66.4746 2.57812C67.5684 3.06641 68.3398 3.31055 68.7891 3.31055C69.2969 3.31055 69.707 3.16406 70.0195 2.87109C70.3516 2.55859 70.6152 1.94336 70.8105 1.02539H71.8945ZM87.5391 0V19.6289C89.707 17.2461 91.4258 15.7227 92.6953 15.0586C93.9648 14.375 95.2344 14.0332 96.5039 14.0332C98.0273 14.0332 99.3359 14.4531 100.43 15.293C101.523 16.1328 102.334 17.4512 102.861 19.248C103.232 20.498 103.418 22.7832 103.418 26.1035V35.5957C103.418 37.2949 103.555 38.457 103.828 39.082C104.023 39.5508 104.355 39.9219 104.824 40.1953C105.293 40.4688 106.152 40.6055 107.402 40.6055V41.6602H94.2188V40.6055H94.834C96.084 40.6055 96.9531 40.4199 97.4414 40.0488C97.9297 39.6582 98.2715 39.0918 98.4668 38.3496C98.5254 38.0371 98.5547 37.1191 98.5547 35.5957V26.1035C98.5547 23.1738 98.3984 21.25 98.0859 20.332C97.793 19.4141 97.3145 18.7305 96.6504 18.2812C95.9863 17.8125 95.1855 17.5781 94.248 17.5781C93.291 17.5781 92.2949 17.832 91.2598 18.3398C90.2246 18.8477 88.9844 19.873 87.5391 21.416V35.5957C87.5391 37.4316 87.6367 38.5742 87.832 39.0234C88.0469 39.4727 88.4277 39.8535 88.9746 40.166C89.541 40.459 90.5078 40.6055 91.875 40.6055V41.6602H78.5742V40.6055C79.7656 40.6055 80.7031 40.4199 81.3867 40.0488C81.7773 39.8535 82.0898 39.4824 82.3242 38.9355C82.5586 38.3887 82.6758 37.2754 82.6758 35.5957V11.3086C82.6758 8.24219 82.5977 6.35742 82.4414 5.6543C82.3047 4.95117 82.0801 4.47266 81.7676 4.21875C81.4746 3.96484 81.0742 3.83789 80.5664 3.83789C80.1562 3.83789 79.4922 3.99414 78.5742 4.30664L78.1641 3.28125L86.1914 0H87.5391ZM122.783 14.0332C126.846 14.0332 130.107 15.5762 132.568 18.6621C134.658 21.2988 135.703 24.3262 135.703 27.7441C135.703 30.1465 135.127 32.5781 133.975 35.0391C132.822 37.5 131.23 39.3555 129.199 40.6055C127.188 41.8555 124.941 42.4805 122.461 42.4805C118.418 42.4805 115.205 40.8691 112.822 37.6465C110.811 34.9316 109.805 31.8848 109.805 28.5059C109.805 26.0449 110.41 23.6035 111.621 21.1816C112.852 18.7402 114.463 16.9434 116.455 15.791C118.447 14.6191 120.557 14.0332 122.783 14.0332ZM121.875 15.9375C120.84 15.9375 119.795 16.25 118.74 16.875C117.705 17.4805 116.865 18.5547 116.221 20.0977C115.576 21.6406 115.254 23.623 115.254 26.0449C115.254 29.9512 116.025 33.3203 117.568 36.1523C119.131 38.9844 121.182 40.4004 123.721 40.4004C125.615 40.4004 127.178 39.6191 128.408 38.0566C129.639 36.4941 130.254 33.8086 130.254 30C130.254 25.2344 129.229 21.4844 127.178 18.75C125.791 16.875 124.023 15.9375 121.875 15.9375ZM137.725 17.4902L145.986 14.1504H147.1V20.4199C148.486 18.0566 149.873 16.4062 151.26 15.4688C152.666 14.5117 154.141 14.0332 155.684 14.0332C158.379 14.0332 160.625 15.0879 162.422 17.1973C164.629 19.7754 165.732 23.1348 165.732 27.2754C165.732 31.9043 164.404 35.7324 161.748 38.7598C159.561 41.2402 156.807 42.4805 153.486 42.4805C152.041 42.4805 150.791 42.2754 149.736 41.8652C148.955 41.5723 148.076 40.9863 147.1 40.1074V48.2812C147.1 50.1172 147.207 51.2793 147.422 51.7676C147.656 52.2754 148.047 52.6758 148.594 52.9688C149.16 53.2617 150.176 53.4082 151.641 53.4082V54.4922H137.578V53.4082H138.311C139.385 53.4277 140.303 53.2227 141.064 52.793C141.436 52.5781 141.719 52.2266 141.914 51.7383C142.129 51.2695 142.236 50.0586 142.236 48.1055V22.7344C142.236 20.9961 142.158 19.8926 142.002 19.4238C141.846 18.9551 141.592 18.6035 141.24 18.3691C140.908 18.1348 140.449 18.0176 139.863 18.0176C139.395 18.0176 138.799 18.1543 138.076 18.4277L137.725 17.4902ZM147.1 22.1484V32.168C147.1 34.3359 147.188 35.7617 147.363 36.4453C147.637 37.5781 148.301 38.5742 149.355 39.4336C150.43 40.293 151.777 40.7227 153.398 40.7227C155.352 40.7227 156.934 39.9609 158.145 38.4375C159.727 36.4453 160.518 33.6426 160.518 30.0293C160.518 25.9277 159.619 22.7734 157.822 20.5664C156.572 19.043 155.088 18.2812 153.369 18.2812C152.432 18.2812 151.504 18.5156 150.586 18.9844C149.883 19.3359 148.721 20.3906 147.1 22.1484ZM210.293 1.02539V14.7656H209.209C208.857 12.1289 208.223 10.0293 207.305 8.4668C206.406 6.9043 205.117 5.66406 203.438 4.74609C201.758 3.82813 200.02 3.36914 198.223 3.36914C196.191 3.36914 194.512 3.99414 193.184 5.24414C191.855 6.47461 191.191 7.88086 191.191 9.46289C191.191 10.6738 191.611 11.7773 192.451 12.7734C193.662 14.2383 196.543 16.1914 201.094 18.6328C204.805 20.625 207.334 22.1582 208.682 23.2324C210.049 24.2871 211.094 25.5371 211.816 26.9824C212.559 28.4277 212.93 29.9414 212.93 31.5234C212.93 34.5312 211.758 37.1289 209.414 39.3164C207.09 41.4844 204.092 42.5684 200.42 42.5684C199.268 42.5684 198.184 42.4805 197.168 42.3047C196.562 42.207 195.303 41.8555 193.389 41.25C191.494 40.625 190.293 40.3125 189.785 40.3125C189.297 40.3125 188.906 40.459 188.613 40.752C188.34 41.0449 188.135 41.6504 187.998 42.5684H186.914V28.9453H187.998C188.506 31.7969 189.189 33.9355 190.049 35.3613C190.908 36.7676 192.217 37.9395 193.975 38.877C195.752 39.8145 197.695 40.2832 199.805 40.2832C202.246 40.2832 204.17 39.6387 205.576 38.3496C207.002 37.0605 207.715 35.5371 207.715 33.7793C207.715 32.8027 207.441 31.8164 206.895 30.8203C206.367 29.8242 205.537 28.8965 204.404 28.0371C203.643 27.4512 201.562 26.2109 198.164 24.3164C194.766 22.4023 192.344 20.8789 190.898 19.7461C189.473 18.6133 188.389 17.3633 187.646 15.9961C186.904 14.6289 186.533 13.125 186.533 11.4844C186.533 8.63281 187.627 6.18164 189.814 4.13086C192.002 2.06055 194.785 1.02539 198.164 1.02539C200.273 1.02539 202.51 1.54297 204.873 2.57812C205.967 3.06641 206.738 3.31055 207.188 3.31055C207.695 3.31055 208.105 3.16406 208.418 2.87109C208.75 2.55859 209.014 1.94336 209.209 1.02539H210.293ZM225.996 0V26.6895L232.822 20.4785C234.268 19.1504 235.107 18.3105 235.342 17.959C235.498 17.7246 235.576 17.4902 235.576 17.2559C235.576 16.8652 235.41 16.5332 235.078 16.2598C234.766 15.9668 234.238 15.8008 233.496 15.7617V14.8242H245.156V15.7617C243.555 15.8008 242.217 16.0449 241.143 16.4941C240.088 16.9434 238.926 17.7441 237.656 18.8965L230.771 25.2539L237.656 33.9551C239.57 36.3574 240.859 37.8809 241.523 38.5254C242.461 39.4434 243.281 40.0391 243.984 40.3125C244.473 40.5078 245.322 40.6055 246.533 40.6055V41.6602H233.496V40.6055C234.238 40.5859 234.736 40.4785 234.99 40.2832C235.264 40.0684 235.4 39.7754 235.4 39.4043C235.4 38.9551 235.01 38.2324 234.229 37.2363L225.996 26.7188V35.625C225.996 37.3633 226.113 38.5059 226.348 39.0527C226.602 39.5996 226.953 39.9902 227.402 40.2246C227.852 40.459 228.828 40.5859 230.332 40.6055V41.6602H216.68V40.6055C218.047 40.6055 219.072 40.4395 219.756 40.1074C220.166 39.8926 220.479 39.5605 220.693 39.1113C220.986 38.4668 221.133 37.3535 221.133 35.7715V11.3379C221.133 8.23242 221.064 6.33789 220.928 5.6543C220.791 4.95117 220.566 4.47266 220.254 4.21875C219.941 3.94531 219.531 3.80859 219.023 3.80859C218.613 3.80859 217.998 3.97461 217.178 4.30664L216.68 3.28125L224.648 0H225.996ZM254.883 0C255.703 0 256.396 0.292969 256.963 0.878906C257.549 1.44531 257.842 2.13867 257.842 2.95898C257.842 3.7793 257.549 4.48242 256.963 5.06836C256.396 5.6543 255.703 5.94727 254.883 5.94727C254.062 5.94727 253.359 5.6543 252.773 5.06836C252.188 4.48242 251.895 3.7793 251.895 2.95898C251.895 2.13867 252.178 1.44531 252.744 0.878906C253.33 0.292969 254.043 0 254.883 0ZM257.314 14.0332V35.5957C257.314 37.2754 257.432 38.3984 257.666 38.9648C257.92 39.5117 258.281 39.9219 258.75 40.1953C259.238 40.4688 260.117 40.6055 261.387 40.6055V41.6602H248.35V40.6055C249.658 40.6055 250.537 40.4785 250.986 40.2246C251.436 39.9707 251.787 39.5508 252.041 38.9648C252.314 38.3789 252.451 37.2559 252.451 35.5957V25.2539C252.451 22.3438 252.363 20.459 252.188 19.5996C252.051 18.9746 251.836 18.5449 251.543 18.3105C251.25 18.0566 250.85 17.9297 250.342 17.9297C249.795 17.9297 249.131 18.0762 248.35 18.3691L247.939 17.3145L256.025 14.0332H257.314ZM272.578 19.7168C275.723 15.9277 278.721 14.0332 281.572 14.0332C283.037 14.0332 284.297 14.4043 285.352 15.1465C286.406 15.8691 287.246 17.0703 287.871 18.75C288.301 19.9219 288.516 21.7188 288.516 24.1406V35.5957C288.516 37.2949 288.652 38.4473 288.926 39.0527C289.141 39.541 289.482 39.9219 289.951 40.1953C290.439 40.4688 291.328 40.6055 292.617 40.6055V41.6602H279.346V40.6055H279.902C281.152 40.6055 282.021 40.4199 282.51 40.0488C283.018 39.6582 283.369 39.0918 283.564 38.3496C283.643 38.0566 283.682 37.1387 283.682 35.5957V24.6094C283.682 22.168 283.359 20.4004 282.715 19.3066C282.09 18.1934 281.025 17.6367 279.521 17.6367C277.197 17.6367 274.883 18.9062 272.578 21.4453V35.5957C272.578 37.4121 272.686 38.5352 272.9 38.9648C273.174 39.5312 273.545 39.9512 274.014 40.2246C274.502 40.4785 275.479 40.6055 276.943 40.6055V41.6602H263.672V40.6055H264.258C265.625 40.6055 266.543 40.2637 267.012 39.5801C267.5 38.877 267.744 37.5488 267.744 35.5957V25.6348C267.744 22.4121 267.666 20.4492 267.51 19.7461C267.373 19.043 267.148 18.5645 266.836 18.3105C266.543 18.0566 266.143 17.9297 265.635 17.9297C265.088 17.9297 264.434 18.0762 263.672 18.3691L263.232 17.3145L271.318 14.0332H272.578V19.7168ZM317.549 31.4648C316.826 35 315.41 37.7246 313.301 39.6387C311.191 41.5332 308.857 42.4805 306.299 42.4805C303.252 42.4805 300.596 41.2012 298.33 38.6426C296.064 36.084 294.932 32.627 294.932 28.2715C294.932 24.0527 296.182 20.625 298.682 17.9883C301.201 15.3516 304.219 14.0332 307.734 14.0332C310.371 14.0332 312.539 14.7363 314.238 16.1426C315.938 17.5293 316.787 18.9746 316.787 20.4785C316.787 21.2207 316.543 21.8262 316.055 22.2949C315.586 22.7441 314.922 22.9688 314.062 22.9688C312.91 22.9688 312.041 22.5977 311.455 21.8555C311.123 21.4453 310.898 20.6641 310.781 19.5117C310.684 18.3594 310.293 17.4805 309.609 16.875C308.926 16.2891 307.979 15.9961 306.768 15.9961C304.814 15.9961 303.242 16.7188 302.051 18.1641C300.469 20.0781 299.678 22.6074 299.678 25.752C299.678 28.9551 300.459 31.7871 302.021 34.248C303.604 36.6895 305.732 37.9102 308.408 37.9102C310.322 37.9102 312.041 37.2559 313.564 35.9473C314.639 35.0488 315.684 33.418 316.699 31.0547L317.549 31.4648ZM336.621 37.793C333.867 39.9219 332.139 41.1523 331.436 41.4844C330.381 41.9727 329.258 42.2168 328.066 42.2168C326.211 42.2168 324.678 41.582 323.467 40.3125C322.275 39.043 321.68 37.373 321.68 35.3027C321.68 33.9941 321.973 32.8613 322.559 31.9043C323.359 30.5762 324.746 29.3262 326.719 28.1543C328.711 26.9824 332.012 25.5566 336.621 23.877V22.8223C336.621 20.1465 336.191 18.3105 335.332 17.3145C334.492 16.3184 333.262 15.8203 331.641 15.8203C330.41 15.8203 329.434 16.1523 328.711 16.8164C327.969 17.4805 327.598 18.2422 327.598 19.1016L327.656 20.8008C327.656 21.6992 327.422 22.3926 326.953 22.8809C326.504 23.3691 325.908 23.6133 325.166 23.6133C324.443 23.6133 323.848 23.3594 323.379 22.8516C322.93 22.3438 322.705 21.6504 322.705 20.7715C322.705 19.0918 323.564 17.5488 325.283 16.1426C327.002 14.7363 329.414 14.0332 332.52 14.0332C334.902 14.0332 336.855 14.4336 338.379 15.2344C339.531 15.8398 340.381 16.7871 340.928 18.0762C341.279 18.916 341.455 20.6348 341.455 23.2324V32.3438C341.455 34.9023 341.504 36.4746 341.602 37.0605C341.699 37.627 341.855 38.0078 342.07 38.2031C342.305 38.3984 342.568 38.4961 342.861 38.4961C343.174 38.4961 343.447 38.4277 343.682 38.291C344.092 38.0371 344.883 37.3242 346.055 36.1523V37.793C343.867 40.7227 341.777 42.1875 339.785 42.1875C338.828 42.1875 338.066 41.8555 337.5 41.1914C336.934 40.5273 336.641 39.3945 336.621 37.793ZM336.621 35.8887V25.6641C333.672 26.8359 331.768 27.666 330.908 28.1543C329.365 29.0137 328.262 29.9121 327.598 30.8496C326.934 31.7871 326.602 32.8125 326.602 33.9258C326.602 35.332 327.021 36.5039 327.861 37.4414C328.701 38.3594 329.668 38.8184 330.762 38.8184C332.246 38.8184 334.199 37.8418 336.621 35.8887ZM355.928 14.0332V20.0684C358.174 16.0449 360.479 14.0332 362.842 14.0332C363.916 14.0332 364.805 14.3652 365.508 15.0293C366.211 15.6738 366.562 16.4258 366.562 17.2852C366.562 18.0469 366.309 18.6914 365.801 19.2188C365.293 19.7461 364.688 20.0098 363.984 20.0098C363.301 20.0098 362.529 19.6777 361.67 19.0137C360.83 18.3301 360.205 17.9883 359.795 17.9883C359.443 17.9883 359.062 18.1836 358.652 18.5742C357.773 19.375 356.865 20.6934 355.928 22.5293V35.3906C355.928 36.875 356.113 37.998 356.484 38.7598C356.738 39.2871 357.188 39.7266 357.832 40.0781C358.477 40.4297 359.404 40.6055 360.615 40.6055V41.6602H346.875V40.6055C348.242 40.6055 349.258 40.3906 349.922 39.9609C350.41 39.6484 350.752 39.1504 350.947 38.4668C351.045 38.1348 351.094 37.1875 351.094 35.625V25.2246C351.094 22.0996 351.025 20.2441 350.889 19.6582C350.771 19.0527 350.537 18.6133 350.186 18.3398C349.854 18.0664 349.434 17.9297 348.926 17.9297C348.32 17.9297 347.637 18.0762 346.875 18.3691L346.582 17.3145L354.697 14.0332H355.928ZM372.568 24.9316C372.549 28.916 373.516 32.041 375.469 34.3066C377.422 36.5723 379.717 37.7051 382.354 37.7051C384.111 37.7051 385.635 37.2266 386.924 36.2695C388.232 35.293 389.326 33.6328 390.205 31.2891L391.113 31.875C390.703 34.5508 389.512 36.9922 387.539 39.1992C385.566 41.3867 383.096 42.4805 380.127 42.4805C376.904 42.4805 374.141 41.2305 371.836 38.7305C369.551 36.2109 368.408 32.832 368.408 28.5938C368.408 24.0039 369.58 20.4297 371.924 17.8711C374.287 15.293 377.246 14.0039 380.801 14.0039C383.809 14.0039 386.279 15 388.213 16.9922C390.146 18.9648 391.113 21.6113 391.113 24.9316H372.568ZM372.568 23.2324H384.99C384.893 21.5137 384.688 20.3027 384.375 19.5996C383.887 18.5059 383.154 17.6465 382.178 17.0215C381.221 16.3965 380.215 16.084 379.16 16.084C377.539 16.084 376.084 16.7188 374.795 17.9883C373.525 19.2383 372.783 20.9863 372.568 23.2324ZM417.51 6.00586V14.8242H423.779V16.875H417.51V34.2773C417.51 36.0156 417.754 37.1875 418.242 37.793C418.75 38.3984 419.395 38.7012 420.176 38.7012C420.82 38.7012 421.445 38.5059 422.051 38.1152C422.656 37.7051 423.125 37.1094 423.457 36.3281H424.6C423.916 38.2422 422.949 39.6875 421.699 40.6641C420.449 41.6211 419.16 42.0996 417.832 42.0996C416.934 42.0996 416.055 41.8555 415.195 41.3672C414.336 40.8594 413.701 40.1465 413.291 39.2285C412.881 38.291 412.676 36.8555 412.676 34.9219V16.875H408.428V15.9082C409.502 15.4785 410.596 14.7559 411.709 13.7402C412.842 12.7051 413.848 11.4844 414.727 10.0781C415.176 9.33594 415.801 7.97852 416.602 6.00586H417.51ZM434.297 0V19.6289C436.465 17.2461 438.184 15.7227 439.453 15.0586C440.723 14.375 441.992 14.0332 443.262 14.0332C444.785 14.0332 446.094 14.4531 447.188 15.293C448.281 16.1328 449.092 17.4512 449.619 19.248C449.99 20.498 450.176 22.7832 450.176 26.1035V35.5957C450.176 37.2949 450.312 38.457 450.586 39.082C450.781 39.5508 451.113 39.9219 451.582 40.1953C452.051 40.4688 452.91 40.6055 454.16 40.6055V41.6602H440.977V40.6055H441.592C442.842 40.6055 443.711 40.4199 444.199 40.0488C444.688 39.6582 445.029 39.0918 445.225 38.3496C445.283 38.0371 445.312 37.1191 445.312 35.5957V26.1035C445.312 23.1738 445.156 21.25 444.844 20.332C444.551 19.4141 444.072 18.7305 443.408 18.2812C442.744 17.8125 441.943 17.5781 441.006 17.5781C440.049 17.5781 439.053 17.832 438.018 18.3398C436.982 18.8477 435.742 19.873 434.297 21.416V35.5957C434.297 37.4316 434.395 38.5742 434.59 39.0234C434.805 39.4727 435.186 39.8535 435.732 40.166C436.299 40.459 437.266 40.6055 438.633 40.6055V41.6602H425.332V40.6055C426.523 40.6055 427.461 40.4199 428.145 40.0488C428.535 39.8535 428.848 39.4824 429.082 38.9355C429.316 38.3887 429.434 37.2754 429.434 35.5957V11.3086C429.434 8.24219 429.355 6.35742 429.199 5.6543C429.062 4.95117 428.838 4.47266 428.525 4.21875C428.232 3.96484 427.832 3.83789 427.324 3.83789C426.914 3.83789 426.25 3.99414 425.332 4.30664L424.922 3.28125L432.949 0H434.297ZM471.621 37.793C468.867 39.9219 467.139 41.1523 466.436 41.4844C465.381 41.9727 464.258 42.2168 463.066 42.2168C461.211 42.2168 459.678 41.582 458.467 40.3125C457.275 39.043 456.68 37.373 456.68 35.3027C456.68 33.9941 456.973 32.8613 457.559 31.9043C458.359 30.5762 459.746 29.3262 461.719 28.1543C463.711 26.9824 467.012 25.5566 471.621 23.877V22.8223C471.621 20.1465 471.191 18.3105 470.332 17.3145C469.492 16.3184 468.262 15.8203 466.641 15.8203C465.41 15.8203 464.434 16.1523 463.711 16.8164C462.969 17.4805 462.598 18.2422 462.598 19.1016L462.656 20.8008C462.656 21.6992 462.422 22.3926 461.953 22.8809C461.504 23.3691 460.908 23.6133 460.166 23.6133C459.443 23.6133 458.848 23.3594 458.379 22.8516C457.93 22.3438 457.705 21.6504 457.705 20.7715C457.705 19.0918 458.564 17.5488 460.283 16.1426C462.002 14.7363 464.414 14.0332 467.52 14.0332C469.902 14.0332 471.855 14.4336 473.379 15.2344C474.531 15.8398 475.381 16.7871 475.928 18.0762C476.279 18.916 476.455 20.6348 476.455 23.2324V32.3438C476.455 34.9023 476.504 36.4746 476.602 37.0605C476.699 37.627 476.855 38.0078 477.07 38.2031C477.305 38.3984 477.568 38.4961 477.861 38.4961C478.174 38.4961 478.447 38.4277 478.682 38.291C479.092 38.0371 479.883 37.3242 481.055 36.1523V37.793C478.867 40.7227 476.777 42.1875 474.785 42.1875C473.828 42.1875 473.066 41.8555 472.5 41.1914C471.934 40.5273 471.641 39.3945 471.621 37.793ZM471.621 35.8887V25.6641C468.672 26.8359 466.768 27.666 465.908 28.1543C464.365 29.0137 463.262 29.9121 462.598 30.8496C461.934 31.7871 461.602 32.8125 461.602 33.9258C461.602 35.332 462.021 36.5039 462.861 37.4414C463.701 38.3594 464.668 38.8184 465.762 38.8184C467.246 38.8184 469.199 37.8418 471.621 35.8887ZM490.869 6.00586V14.8242H497.139V16.875H490.869V34.2773C490.869 36.0156 491.113 37.1875 491.602 37.793C492.109 38.3984 492.754 38.7012 493.535 38.7012C494.18 38.7012 494.805 38.5059 495.41 38.1152C496.016 37.7051 496.484 37.1094 496.816 36.3281H497.959C497.275 38.2422 496.309 39.6875 495.059 40.6641C493.809 41.6211 492.52 42.0996 491.191 42.0996C490.293 42.0996 489.414 41.8555 488.555 41.3672C487.695 40.8594 487.061 40.1465 486.65 39.2285C486.24 38.291 486.035 36.8555 486.035 34.9219V16.875H481.787V15.9082C482.861 15.4785 483.955 14.7559 485.068 13.7402C486.201 12.7051 487.207 11.4844 488.086 10.0781C488.535 9.33594 489.16 7.97852 489.961 6.00586H490.869ZM26.748 76.1465L21.0352 96.0098L20.3906 98.6758C20.332 98.9297 20.3027 99.1445 20.3027 99.3203C20.3027 99.6328 20.4004 99.9062 20.5957 100.141C20.752 100.316 20.9473 100.404 21.1816 100.404C21.4355 100.404 21.7676 100.248 22.1777 99.9355C22.9395 99.3691 23.9551 98.1973 25.2246 96.4199L26.2207 97.123C24.873 99.1543 23.4863 100.707 22.0605 101.781C20.6348 102.836 19.3164 103.363 18.1055 103.363C17.2656 103.363 16.6309 103.148 16.2012 102.719C15.791 102.309 15.5859 101.703 15.5859 100.902C15.5859 99.9453 15.8008 98.6855 16.2305 97.123L16.8457 94.9258C14.2871 98.2656 11.9336 100.6 9.78516 101.928C8.24219 102.885 6.72852 103.363 5.24414 103.363C3.81836 103.363 2.58789 102.777 1.55273 101.605C0.517578 100.414 0 98.7832 0 96.7129C0 93.6074 0.927734 90.3359 2.7832 86.8984C4.6582 83.4414 7.03125 80.6777 9.90234 78.6074C12.1484 76.9668 14.2676 76.1465 16.2598 76.1465C17.4512 76.1465 18.4375 76.459 19.2188 77.084C20.0195 77.709 20.625 78.7441 21.0352 80.1895L22.0898 76.8496L26.748 76.1465ZM16.3184 77.6699C15.0684 77.6699 13.7402 78.2559 12.334 79.4277C10.3418 81.0879 8.56445 83.5488 7.00195 86.8105C5.45898 90.0723 4.6875 93.0215 4.6875 95.6582C4.6875 96.9863 5.01953 98.041 5.68359 98.8223C6.34766 99.584 7.10938 99.9648 7.96875 99.9648C10.0977 99.9648 12.4121 98.3926 14.9121 95.248C18.252 91.0684 19.9219 86.7812 19.9219 82.3867C19.9219 80.7266 19.5996 79.5254 18.9551 78.7832C18.3105 78.041 17.4316 77.6699 16.3184 77.6699ZM51.7676 96.2734C49.7363 98.7148 47.6855 100.512 45.6152 101.664C43.5449 102.797 41.3574 103.363 39.0527 103.363C36.2793 103.363 34.1113 102.582 32.5488 101.02C31.0059 99.457 30.2344 97.3574 30.2344 94.7207C30.2344 91.7324 31.0645 88.793 32.7246 85.9023C34.4043 83.0117 36.6504 80.668 39.4629 78.8711C42.2949 77.0547 45.0684 76.1465 47.7832 76.1465C49.9121 76.1465 51.5039 76.5957 52.5586 77.4941C53.6133 78.373 54.1406 79.457 54.1406 80.7461C54.1406 81.957 53.7695 82.9922 53.0273 83.8516C52.4805 84.5156 51.8066 84.8477 51.0059 84.8477C50.4004 84.8477 49.8926 84.6523 49.4824 84.2617C49.0918 83.8711 48.8965 83.3828 48.8965 82.7969C48.8965 82.4258 48.9648 82.084 49.1016 81.7715C49.2578 81.459 49.5605 81.0879 50.0098 80.6582C50.4785 80.209 50.7617 79.8867 50.8594 79.6914C50.957 79.4961 51.0059 79.291 51.0059 79.0762C51.0059 78.666 50.8203 78.3242 50.4492 78.0508C49.8828 77.6602 49.082 77.4648 48.0469 77.4648C46.1328 77.4648 44.2383 78.1387 42.3633 79.4863C40.4883 80.834 38.8867 82.748 37.5586 85.2285C35.957 88.2363 35.1562 91.2441 35.1562 94.252C35.1562 96.2441 35.7227 97.8262 36.8555 98.998C37.9883 100.15 39.5312 100.727 41.4844 100.727C42.9883 100.727 44.4727 100.355 45.9375 99.6133C47.4219 98.8516 49.082 97.4844 50.918 95.5117L51.7676 96.2734ZM70.8398 68.8809L68.5547 76.8496H73.1543L72.6562 78.6953H68.0859L63.0469 95.9805C62.5 97.8359 62.2266 99.0371 62.2266 99.584C62.2266 99.916 62.3047 100.17 62.4609 100.346C62.6172 100.521 62.8027 100.609 63.0176 100.609C63.5059 100.609 64.1504 100.268 64.9512 99.584C65.4199 99.1934 66.4648 97.9922 68.0859 95.9805L69.0527 96.7129C67.2559 99.3301 65.5566 101.176 63.9551 102.25C62.8613 102.992 61.7578 103.363 60.6445 103.363C59.7852 103.363 59.082 103.1 58.5352 102.572C57.9883 102.025 57.7148 101.332 57.7148 100.492C57.7148 99.4375 58.0273 97.8262 58.6523 95.6582L63.5449 78.6953H59.1211L59.4141 77.5527C61.5625 76.9668 63.3496 76.0977 64.7754 74.9453C66.2012 73.7734 67.793 71.752 69.5508 68.8809H70.8398ZM100.195 76.8496L95.0977 94.3105C94.3359 96.9082 93.9551 98.5488 93.9551 99.2324C93.9551 99.584 94.0137 99.8477 94.1309 100.023C94.2676 100.18 94.4434 100.258 94.6582 100.258C94.9902 100.258 95.3516 100.111 95.7422 99.8184C96.1523 99.5059 97.168 98.2949 98.7891 96.1855L99.668 96.8594C98.125 99.3008 96.543 101.098 94.9219 102.25C93.8477 102.992 92.8125 103.363 91.8164 103.363C91.0547 103.363 90.459 103.148 90.0293 102.719C89.5996 102.289 89.3848 101.732 89.3848 101.049C89.3848 100.385 89.5117 99.5059 89.7656 98.4121C90.0781 96.9668 90.9668 93.8223 92.4316 88.9785C89.1113 94.4277 86.3281 98.1875 84.082 100.258C81.8555 102.328 79.7852 103.363 77.8711 103.363C76.9727 103.363 76.2109 103.051 75.5859 102.426C74.9609 101.801 74.6484 101.01 74.6484 100.053C74.6484 98.5879 75.0781 96.3418 75.9375 93.3145L78.4863 84.2617C79.1113 82.0938 79.4238 80.7461 79.4238 80.2188C79.4238 79.9844 79.3359 79.7891 79.1602 79.6328C79.0039 79.457 78.8281 79.3691 78.6328 79.3691C78.2227 79.3691 77.8125 79.5156 77.4023 79.8086C76.9922 80.1016 76.0645 81.1855 74.6191 83.0605L73.7109 82.416C75.1758 80.1504 76.7285 78.4805 78.3691 77.4062C79.6191 76.5664 80.7715 76.1465 81.8262 76.1465C82.5488 76.1465 83.1348 76.3809 83.584 76.8496C84.0527 77.2988 84.2871 77.8848 84.2871 78.6074C84.2871 79.6621 83.8965 81.5469 83.1152 84.2617L80.3613 93.7246C79.5996 96.3027 79.2188 97.9336 79.2188 98.6172C79.2188 98.9883 79.3359 99.291 79.5703 99.5254C79.8242 99.7402 80.1562 99.8477 80.5664 99.8477C81.2109 99.8477 82.0508 99.5254 83.0859 98.8809C84.1211 98.2363 85.498 96.8105 87.2168 94.6035C88.9551 92.377 90.3809 90.2969 91.4941 88.3633C92.627 86.4102 93.8281 83.3145 95.0977 79.0762L95.7422 76.8496H100.195ZM130.107 76.1465L124.395 96.0098L123.75 98.6758C123.691 98.9297 123.662 99.1445 123.662 99.3203C123.662 99.6328 123.76 99.9062 123.955 100.141C124.111 100.316 124.307 100.404 124.541 100.404C124.795 100.404 125.127 100.248 125.537 99.9355C126.299 99.3691 127.314 98.1973 128.584 96.4199L129.58 97.123C128.232 99.1543 126.846 100.707 125.42 101.781C123.994 102.836 122.676 103.363 121.465 103.363C120.625 103.363 119.99 103.148 119.561 102.719C119.15 102.309 118.945 101.703 118.945 100.902C118.945 99.9453 119.16 98.6855 119.59 97.123L120.205 94.9258C117.646 98.2656 115.293 100.6 113.145 101.928C111.602 102.885 110.088 103.363 108.604 103.363C107.178 103.363 105.947 102.777 104.912 101.605C103.877 100.414 103.359 98.7832 103.359 96.7129C103.359 93.6074 104.287 90.3359 106.143 86.8984C108.018 83.4414 110.391 80.6777 113.262 78.6074C115.508 76.9668 117.627 76.1465 119.619 76.1465C120.811 76.1465 121.797 76.459 122.578 77.084C123.379 77.709 123.984 78.7441 124.395 80.1895L125.449 76.8496L130.107 76.1465ZM119.678 77.6699C118.428 77.6699 117.1 78.2559 115.693 79.4277C113.701 81.0879 111.924 83.5488 110.361 86.8105C108.818 90.0723 108.047 93.0215 108.047 95.6582C108.047 96.9863 108.379 98.041 109.043 98.8223C109.707 99.584 110.469 99.9648 111.328 99.9648C113.457 99.9648 115.771 98.3926 118.271 95.248C121.611 91.0684 123.281 86.7812 123.281 82.3867C123.281 80.7266 122.959 79.5254 122.314 78.7832C121.67 78.041 120.791 77.6699 119.678 77.6699ZM149.795 61L139.775 95.8633C139.287 97.6016 139.043 98.666 139.043 99.0566C139.043 99.3496 139.131 99.5938 139.307 99.7891C139.502 99.9844 139.736 100.082 140.01 100.082C140.381 100.082 140.781 99.916 141.211 99.584C142.227 98.7832 143.291 97.543 144.404 95.8633L145.283 96.7715C143.428 99.3887 141.719 101.215 140.156 102.25C139.004 102.992 137.91 103.363 136.875 103.363C136.133 103.363 135.508 103.109 135 102.602C134.512 102.094 134.268 101.508 134.268 100.844C134.268 100.141 134.58 98.6953 135.205 96.5078L143.145 69.0273C143.789 66.7812 144.111 65.4922 144.111 65.1602C144.111 64.6914 143.926 64.3105 143.555 64.0176C143.184 63.7051 142.607 63.5488 141.826 63.5488C141.377 63.5488 140.693 63.6172 139.775 63.7539V62.6699L149.795 61ZM166.494 61L156.475 95.8633C155.986 97.6016 155.742 98.666 155.742 99.0566C155.742 99.3496 155.83 99.5938 156.006 99.7891C156.201 99.9844 156.436 100.082 156.709 100.082C157.08 100.082 157.48 99.916 157.91 99.584C158.926 98.7832 159.99 97.543 161.104 95.8633L161.982 96.7715C160.127 99.3887 158.418 101.215 156.855 102.25C155.703 102.992 154.609 103.363 153.574 103.363C152.832 103.363 152.207 103.109 151.699 102.602C151.211 102.094 150.967 101.508 150.967 100.844C150.967 100.141 151.279 98.6953 151.904 96.5078L159.844 69.0273C160.488 66.7812 160.811 65.4922 160.811 65.1602C160.811 64.6914 160.625 64.3105 160.254 64.0176C159.883 63.7051 159.307 63.5488 158.525 63.5488C158.076 63.5488 157.393 63.6172 156.475 63.7539V62.6699L166.494 61ZM174.932 76.1465C175.596 77.2793 176.055 78.3438 176.309 79.3398C176.562 80.3164 176.816 82.25 177.07 85.1406L178.359 99.5547C179.531 98.1484 181.23 95.9219 183.457 92.875C184.531 91.3906 185.859 89.3691 187.441 86.8105C188.398 85.248 188.984 84.1543 189.199 83.5293C189.316 83.2168 189.375 82.8945 189.375 82.5625C189.375 82.3477 189.307 82.1719 189.17 82.0352C189.033 81.8984 188.672 81.7422 188.086 81.5664C187.52 81.3711 187.041 81.0293 186.65 80.541C186.279 80.0332 186.094 79.457 186.094 78.8125C186.094 78.0117 186.328 77.3672 186.797 76.8789C187.266 76.3906 187.852 76.1465 188.555 76.1465C189.414 76.1465 190.146 76.5078 190.752 77.2305C191.357 77.9336 191.66 78.9102 191.66 80.1602C191.66 81.7031 191.133 83.4707 190.078 85.4629C189.023 87.4355 186.992 90.4727 183.984 94.5742C180.977 98.6758 177.334 103.148 173.057 107.992C170.107 111.332 167.92 113.432 166.494 114.291C165.068 115.17 163.848 115.609 162.832 115.609C162.227 115.609 161.699 115.375 161.25 114.906C160.781 114.457 160.547 113.93 160.547 113.324C160.547 112.562 160.869 111.869 161.514 111.244C162.139 110.619 162.822 110.307 163.564 110.307C163.955 110.307 164.277 110.395 164.531 110.57C164.688 110.668 164.863 110.941 165.059 111.391C165.234 111.859 165.4 112.172 165.557 112.328C165.654 112.426 165.771 112.475 165.908 112.475C166.025 112.475 166.23 112.377 166.523 112.182C167.598 111.518 168.848 110.463 170.273 109.018C172.148 107.104 173.535 105.541 174.434 104.33L172.793 85.7559C172.52 82.6895 172.109 80.8242 171.562 80.1602C171.016 79.4961 170.098 79.1641 168.809 79.1641C168.398 79.1641 167.666 79.2227 166.611 79.3398L166.348 78.2559L174.932 76.1465ZM207.393 75.8242H218.643V76.9082C217.607 76.9863 216.924 77.1719 216.592 77.4648C216.279 77.7578 216.123 78.1777 216.123 78.7246C216.123 79.3301 216.289 80.0625 216.621 80.9219L222.363 96.3613L228.135 83.793L226.611 79.8379C226.143 78.666 225.527 77.8555 224.766 77.4062C224.336 77.1328 223.535 76.9668 222.363 76.9082V75.8242H235.137V76.9082C233.73 76.9668 232.734 77.2207 232.148 77.6699C231.758 77.9824 231.562 78.4805 231.562 79.1641C231.562 79.5547 231.641 79.9551 231.797 80.3652L237.891 95.7754L243.545 80.9219C243.936 79.8672 244.131 79.0273 244.131 78.4023C244.131 78.0312 243.936 77.6992 243.545 77.4062C243.174 77.1133 242.432 76.9473 241.318 76.9082V75.8242H249.785V76.9082C248.086 77.1621 246.836 78.3145 246.035 80.3652L237.07 103.48H235.869L229.16 86.3418L221.338 103.48H220.254L211.641 80.9219C211.074 79.4961 210.518 78.5391 209.971 78.0508C209.424 77.543 208.564 77.1621 207.393 76.9082V75.8242ZM265.371 75.0332C269.434 75.0332 272.695 76.5762 275.156 79.6621C277.246 82.2988 278.291 85.3262 278.291 88.7441C278.291 91.1465 277.715 93.5781 276.562 96.0391C275.41 98.5 273.818 100.355 271.787 101.605C269.775 102.855 267.529 103.48 265.049 103.48C261.006 103.48 257.793 101.869 255.41 98.6465C253.398 95.9316 252.393 92.8848 252.393 89.5059C252.393 87.0449 252.998 84.6035 254.209 82.1816C255.439 79.7402 257.051 77.9434 259.043 76.791C261.035 75.6191 263.145 75.0332 265.371 75.0332ZM264.463 76.9375C263.428 76.9375 262.383 77.25 261.328 77.875C260.293 78.4805 259.453 79.5547 258.809 81.0977C258.164 82.6406 257.842 84.623 257.842 87.0449C257.842 90.9512 258.613 94.3203 260.156 97.1523C261.719 99.9844 263.77 101.4 266.309 101.4C268.203 101.4 269.766 100.619 270.996 99.0566C272.227 97.4941 272.842 94.8086 272.842 91C272.842 86.2344 271.816 82.4844 269.766 79.75C268.379 77.875 266.611 76.9375 264.463 76.9375ZM290.098 75.0332V81.0684C292.344 77.0449 294.648 75.0332 297.012 75.0332C298.086 75.0332 298.975 75.3652 299.678 76.0293C300.381 76.6738 300.732 77.4258 300.732 78.2852C300.732 79.0469 300.479 79.6914 299.971 80.2188C299.463 80.7461 298.857 81.0098 298.154 81.0098C297.471 81.0098 296.699 80.6777 295.84 80.0137C295 79.3301 294.375 78.9883 293.965 78.9883C293.613 78.9883 293.232 79.1836 292.822 79.5742C291.943 80.375 291.035 81.6934 290.098 83.5293V96.3906C290.098 97.875 290.283 98.998 290.654 99.7598C290.908 100.287 291.357 100.727 292.002 101.078C292.646 101.43 293.574 101.605 294.785 101.605V102.66H281.045V101.605C282.412 101.605 283.428 101.391 284.092 100.961C284.58 100.648 284.922 100.15 285.117 99.4668C285.215 99.1348 285.264 98.1875 285.264 96.625V86.2246C285.264 83.0996 285.195 81.2441 285.059 80.6582C284.941 80.0527 284.707 79.6133 284.355 79.3398C284.023 79.0664 283.604 78.9297 283.096 78.9297C282.49 78.9297 281.807 79.0762 281.045 79.3691L280.752 78.3145L288.867 75.0332H290.098ZM310.166 61V87.6895L316.992 81.4785C318.438 80.1504 319.277 79.3105 319.512 78.959C319.668 78.7246 319.746 78.4902 319.746 78.2559C319.746 77.8652 319.58 77.5332 319.248 77.2598C318.936 76.9668 318.408 76.8008 317.666 76.7617V75.8242H329.326V76.7617C327.725 76.8008 326.387 77.0449 325.312 77.4941C324.258 77.9434 323.096 78.7441 321.826 79.8965L314.941 86.2539L321.826 94.9551C323.74 97.3574 325.029 98.8809 325.693 99.5254C326.631 100.443 327.451 101.039 328.154 101.312C328.643 101.508 329.492 101.605 330.703 101.605V102.66H317.666V101.605C318.408 101.586 318.906 101.479 319.16 101.283C319.434 101.068 319.57 100.775 319.57 100.404C319.57 99.9551 319.18 99.2324 318.398 98.2363L310.166 87.7188V96.625C310.166 98.3633 310.283 99.5059 310.518 100.053C310.771 100.6 311.123 100.99 311.572 101.225C312.021 101.459 312.998 101.586 314.502 101.605V102.66H300.85V101.605C302.217 101.605 303.242 101.439 303.926 101.107C304.336 100.893 304.648 100.561 304.863 100.111C305.156 99.4668 305.303 98.3535 305.303 96.7715V72.3379C305.303 69.2324 305.234 67.3379 305.098 66.6543C304.961 65.9512 304.736 65.4727 304.424 65.2188C304.111 64.9453 303.701 64.8086 303.193 64.8086C302.783 64.8086 302.168 64.9746 301.348 65.3066L300.85 64.2812L308.818 61H310.166ZM349.57 75.0332V84.1738H348.604C347.861 81.3027 346.904 79.3496 345.732 78.3145C344.58 77.2793 343.105 76.7617 341.309 76.7617C339.941 76.7617 338.838 77.123 337.998 77.8457C337.158 78.5684 336.738 79.3691 336.738 80.248C336.738 81.3418 337.051 82.2793 337.676 83.0605C338.281 83.8613 339.512 84.7109 341.367 85.6094L345.645 87.6895C349.609 89.623 351.592 92.1719 351.592 95.3359C351.592 97.7773 350.664 99.75 348.809 101.254C346.973 102.738 344.912 103.48 342.627 103.48C340.986 103.48 339.111 103.188 337.002 102.602C336.357 102.406 335.83 102.309 335.42 102.309C334.971 102.309 334.619 102.562 334.365 103.07H333.398V93.4902H334.365C334.912 96.2246 335.957 98.2852 337.5 99.6719C339.043 101.059 340.771 101.752 342.686 101.752C344.033 101.752 345.127 101.361 345.967 100.58C346.826 99.7793 347.256 98.8223 347.256 97.709C347.256 96.3613 346.777 95.2285 345.82 94.3105C344.883 93.3926 342.998 92.2305 340.166 90.8242C337.334 89.418 335.479 88.1484 334.6 87.0156C333.721 85.9023 333.281 84.4961 333.281 82.7969C333.281 80.5898 334.033 78.7441 335.537 77.2598C337.061 75.7754 339.023 75.0332 341.426 75.0332C342.48 75.0332 343.76 75.2578 345.264 75.707C346.26 76 346.924 76.1465 347.256 76.1465C347.568 76.1465 347.812 76.0781 347.988 75.9414C348.164 75.8047 348.369 75.502 348.604 75.0332H349.57ZM381.094 77.9336V95.5703C381.094 98.0703 381.367 99.6523 381.914 100.316C382.637 101.176 383.604 101.605 384.814 101.605H387.246V102.66H371.221V101.605H372.422C373.203 101.605 373.916 101.41 374.561 101.02C375.205 100.629 375.645 100.102 375.879 99.4375C376.133 98.7734 376.26 97.4844 376.26 95.5703V77.9336H371.045V75.8242H376.26V74.0664C376.26 71.3906 376.689 69.125 377.549 67.2695C378.408 65.4141 379.717 63.9199 381.475 62.7871C383.252 61.6348 385.244 61.0586 387.451 61.0586C389.502 61.0586 391.387 61.7227 393.105 63.0508C394.238 63.9297 394.805 64.916 394.805 66.0098C394.805 66.5957 394.551 67.1523 394.043 67.6797C393.535 68.1875 392.988 68.4414 392.402 68.4414C391.953 68.4414 391.475 68.2852 390.967 67.9727C390.479 67.6406 389.873 66.9473 389.15 65.8926C388.428 64.8184 387.764 64.0957 387.158 63.7246C386.553 63.3535 385.879 63.168 385.137 63.168C384.238 63.168 383.477 63.4121 382.852 63.9004C382.227 64.3691 381.777 65.1113 381.504 66.127C381.23 67.123 381.094 69.7109 381.094 73.8906V75.8242H388.008V77.9336H381.094ZM403.711 75.0332C407.773 75.0332 411.035 76.5762 413.496 79.6621C415.586 82.2988 416.631 85.3262 416.631 88.7441C416.631 91.1465 416.055 93.5781 414.902 96.0391C413.75 98.5 412.158 100.355 410.127 101.605C408.115 102.855 405.869 103.48 403.389 103.48C399.346 103.48 396.133 101.869 393.75 98.6465C391.738 95.9316 390.732 92.8848 390.732 89.5059C390.732 87.0449 391.338 84.6035 392.549 82.1816C393.779 79.7402 395.391 77.9434 397.383 76.791C399.375 75.6191 401.484 75.0332 403.711 75.0332ZM402.803 76.9375C401.768 76.9375 400.723 77.25 399.668 77.875C398.633 78.4805 397.793 79.5547 397.148 81.0977C396.504 82.6406 396.182 84.623 396.182 87.0449C396.182 90.9512 396.953 94.3203 398.496 97.1523C400.059 99.9844 402.109 101.4 404.648 101.4C406.543 101.4 408.105 100.619 409.336 99.0566C410.566 97.4941 411.182 94.8086 411.182 91C411.182 86.2344 410.156 82.4844 408.105 79.75C406.719 77.875 404.951 76.9375 402.803 76.9375ZM428.438 75.0332V81.0684C430.684 77.0449 432.988 75.0332 435.352 75.0332C436.426 75.0332 437.314 75.3652 438.018 76.0293C438.721 76.6738 439.072 77.4258 439.072 78.2852C439.072 79.0469 438.818 79.6914 438.311 80.2188C437.803 80.7461 437.197 81.0098 436.494 81.0098C435.811 81.0098 435.039 80.6777 434.18 80.0137C433.34 79.3301 432.715 78.9883 432.305 78.9883C431.953 78.9883 431.572 79.1836 431.162 79.5742C430.283 80.375 429.375 81.6934 428.438 83.5293V96.3906C428.438 97.875 428.623 98.998 428.994 99.7598C429.248 100.287 429.697 100.727 430.342 101.078C430.986 101.43 431.914 101.605 433.125 101.605V102.66H419.385V101.605C420.752 101.605 421.768 101.391 422.432 100.961C422.92 100.648 423.262 100.15 423.457 99.4668C423.555 99.1348 423.604 98.1875 423.604 96.625V86.2246C423.604 83.0996 423.535 81.2441 423.398 80.6582C423.281 80.0527 423.047 79.6133 422.695 79.3398C422.363 79.0664 421.943 78.9297 421.436 78.9297C420.83 78.9297 420.146 79.0762 419.385 79.3691L419.092 78.3145L427.207 75.0332H428.438ZM454.043 75.8242H466.553V76.9082H465.938C465.059 76.9082 464.395 77.1035 463.945 77.4941C463.516 77.8652 463.301 78.334 463.301 78.9004C463.301 79.6621 463.623 80.7168 464.268 82.0645L470.801 95.5996L476.807 80.7754C477.139 79.9746 477.305 79.1836 477.305 78.4023C477.305 78.0508 477.236 77.7871 477.1 77.6113C476.943 77.3965 476.699 77.2305 476.367 77.1133C476.035 76.9766 475.449 76.9082 474.609 76.9082V75.8242H483.34V76.9082C482.617 76.9863 482.061 77.1426 481.67 77.377C481.279 77.6113 480.85 78.0508 480.381 78.6953C480.205 78.9688 479.873 79.7207 479.385 80.9512L468.457 107.729C467.402 110.326 466.016 112.289 464.297 113.617C462.598 114.945 460.957 115.609 459.375 115.609C458.223 115.609 457.275 115.277 456.533 114.613C455.791 113.949 455.42 113.188 455.42 112.328C455.42 111.508 455.684 110.844 456.211 110.336C456.758 109.848 457.5 109.604 458.438 109.604C459.082 109.604 459.961 109.818 461.074 110.248C461.855 110.541 462.344 110.688 462.539 110.688C463.125 110.688 463.76 110.385 464.443 109.779C465.146 109.174 465.85 108.002 466.553 106.264L468.457 101.605L458.818 81.3613C458.525 80.7559 458.057 80.0039 457.412 79.1055C456.924 78.4219 456.523 77.9629 456.211 77.7285C455.762 77.416 455.039 77.1426 454.043 76.9082V75.8242ZM498.691 75.0332C502.754 75.0332 506.016 76.5762 508.477 79.6621C510.566 82.2988 511.611 85.3262 511.611 88.7441C511.611 91.1465 511.035 93.5781 509.883 96.0391C508.73 98.5 507.139 100.355 505.107 101.605C503.096 102.855 500.85 103.48 498.369 103.48C494.326 103.48 491.113 101.869 488.73 98.6465C486.719 95.9316 485.713 92.8848 485.713 89.5059C485.713 87.0449 486.318 84.6035 487.529 82.1816C488.76 79.7402 490.371 77.9434 492.363 76.791C494.355 75.6191 496.465 75.0332 498.691 75.0332ZM497.783 76.9375C496.748 76.9375 495.703 77.25 494.648 77.875C493.613 78.4805 492.773 79.5547 492.129 81.0977C491.484 82.6406 491.162 84.623 491.162 87.0449C491.162 90.9512 491.934 94.3203 493.477 97.1523C495.039 99.9844 497.09 101.4 499.629 101.4C501.523 101.4 503.086 100.619 504.316 99.0566C505.547 97.4941 506.162 94.8086 506.162 91C506.162 86.2344 505.137 82.4844 503.086 79.75C501.699 77.875 499.932 76.9375 497.783 76.9375ZM539.092 75.8242V92.084C539.092 95.1895 539.16 97.0938 539.297 97.7969C539.453 98.4805 539.688 98.959 540 99.2324C540.332 99.5059 540.713 99.6426 541.143 99.6426C541.748 99.6426 542.432 99.4766 543.193 99.1445L543.604 100.17L535.576 103.48H534.258V97.7969C531.953 100.297 530.195 101.869 528.984 102.514C527.773 103.158 526.494 103.48 525.146 103.48C523.643 103.48 522.334 103.051 521.221 102.191C520.127 101.312 519.365 100.189 518.936 98.8223C518.506 97.4551 518.291 95.5215 518.291 93.0215V81.0391C518.291 79.7695 518.154 78.8906 517.881 78.4023C517.607 77.9141 517.197 77.543 516.65 77.2891C516.123 77.0156 515.156 76.8887 513.75 76.9082V75.8242H523.154V93.7832C523.154 96.2832 523.584 97.9238 524.443 98.7051C525.322 99.4863 526.377 99.877 527.607 99.877C528.447 99.877 529.395 99.6133 530.449 99.0859C531.523 98.5586 532.793 97.5527 534.258 96.0684V80.8633C534.258 79.3398 533.975 78.3145 533.408 77.7871C532.861 77.2402 531.709 76.9473 529.951 76.9082V75.8242H539.092Z" fill="#35316F"/>
</svg>
