<svg width="312" height="25" viewBox="0 0 312 25" fill="none" xmlns="http://www.w3.org/2000/svg">
<path d="M0 19.2334V5.00195H0.914062H1.82812V19.2334H0.914062H0ZM0.0126953 0H1.81543V3.2627H0.0126953V0ZM16.542 19.2334L11.0703 5.00195H12.0479H13.0381L17.5322 17.0498L20.7949 6.71582H21.582H22.3818L25.6699 17.0244L30.126 5.00195H31.0781H32.043L26.584 19.2334H25.5684H24.54L21.5566 9.59766L18.5859 19.2334H17.5703H16.542ZM40.917 19.5635C38.8265 19.5635 37.0534 18.8441 35.5977 17.4053C34.1504 15.9665 33.4268 14.2061 33.4268 12.124C33.4268 10.0335 34.1504 8.26888 35.5977 6.83008C37.0534 5.39128 38.8265 4.67188 40.917 4.67188C43.0329 4.67188 44.7891 5.39551 46.1855 6.84277L46.6553 7.38867V5.00195H48.4834V19.2334H47.5693H46.6553V16.8594C46.5114 17.054 46.3548 17.236 46.1855 17.4053C44.7891 18.8441 43.0329 19.5635 40.917 19.5635ZM40.9932 6.28418C39.3851 6.28418 38.0267 6.85124 36.918 7.98535C35.8092 9.11947 35.2549 10.5075 35.2549 12.1494C35.2549 13.7913 35.8092 15.1794 36.918 16.3135C38.0267 17.4391 39.3851 18.002 40.9932 18.002C42.6012 18.002 43.9596 17.4349 45.0684 16.3008C46.1771 15.1667 46.7314 13.7786 46.7314 12.1367C46.7314 10.4948 46.1771 9.111 45.0684 7.98535C43.9596 6.85124 42.6012 6.28418 40.9932 6.28418ZM51.7969 19.2334V5.00195H52.6982H53.6123V6.84277L53.9043 6.4873C54.903 5.25163 56.2868 4.63379 58.0557 4.63379C60.0192 4.63379 61.5511 5.23893 62.6514 6.44922C63.7516 7.65951 64.3018 9.34375 64.3018 11.502V19.2334H63.3877H62.4736V11.4512C62.4736 9.83464 62.0843 8.56934 61.3057 7.65527C60.527 6.74121 59.4437 6.28418 58.0557 6.28418C56.6338 6.28418 55.5378 6.74967 54.7676 7.68066C54.0059 8.60319 53.625 9.9235 53.625 11.6416V19.2334H52.7109H51.7969ZM69.3672 19.2334V6.63965H66.3457V5.00195H69.3672V0.0253906H71.1953V5.00195H74.5596V6.63965H71.1953V19.2334H69.3672ZM83.7129 19.2334V5.00195H84.6143H85.5283V6.46191L85.6807 6.28418C86.5863 5.18392 87.8431 4.63379 89.4512 4.63379C91.2285 4.63379 92.6165 5.18392 93.6152 6.28418C93.903 6.60579 94.1527 6.96126 94.3643 7.35059C94.5505 6.94434 94.7747 6.58887 95.0371 6.28418C95.9596 5.18392 97.2419 4.63379 98.8838 4.63379C100.703 4.63379 102.121 5.19661 103.137 6.32227C104.161 7.44792 104.673 9.00944 104.673 11.0068V19.2334H103.759H102.845V10.8037C102.845 9.3903 102.502 8.28581 101.816 7.49023C101.139 6.6862 100.196 6.28418 98.9854 6.28418C97.7497 6.28418 96.7933 6.6862 96.1162 7.49023C95.4476 8.28581 95.1133 9.41992 95.1133 10.8926V19.2334H94.1992H93.2852V10.8164C93.2852 9.39453 92.9424 8.28581 92.2568 7.49023C91.5713 6.6862 90.6234 6.28418 89.4131 6.28418C88.1774 6.28418 87.221 6.6862 86.5439 7.49023C85.8753 8.28581 85.541 9.41992 85.541 10.8926V19.2334H84.627H83.7129ZM108.088 19.2334V5.00195H109.002H109.916V19.2334H109.002H108.088ZM108.101 0H109.903V3.2627H108.101V0ZM113.293 19.2334V5.00195H114.194H115.108V6.84277L115.4 6.4873C116.399 5.25163 117.783 4.63379 119.552 4.63379C121.515 4.63379 123.047 5.23893 124.147 6.44922C125.248 7.65951 125.798 9.34375 125.798 11.502V19.2334H124.884H123.97V11.4512C123.97 9.83464 123.58 8.56934 122.802 7.65527C122.023 6.74121 120.94 6.28418 119.552 6.28418C118.13 6.28418 117.034 6.74967 116.264 7.68066C115.502 8.60319 115.121 9.9235 115.121 11.6416V19.2334H114.207H113.293ZM129.162 19.2334V5.00195H130.076H130.99V19.2334H130.076H129.162ZM129.175 0H130.978V3.2627H129.175V0ZM134.393 19.2334V5.00195H135.294H136.208V6.46191L136.36 6.28418C137.266 5.18392 138.523 4.63379 140.131 4.63379C141.908 4.63379 143.296 5.18392 144.295 6.28418C144.583 6.60579 144.832 6.96126 145.044 7.35059C145.23 6.94434 145.454 6.58887 145.717 6.28418C146.639 5.18392 147.922 4.63379 149.563 4.63379C151.383 4.63379 152.801 5.19661 153.816 6.32227C154.84 7.44792 155.353 9.00944 155.353 11.0068V19.2334H154.438H153.524V10.8037C153.524 9.3903 153.182 8.28581 152.496 7.49023C151.819 6.6862 150.875 6.28418 149.665 6.28418C148.429 6.28418 147.473 6.6862 146.796 7.49023C146.127 8.28581 145.793 9.41992 145.793 10.8926V19.2334H144.879H143.965V10.8164C143.965 9.39453 143.622 8.28581 142.937 7.49023C142.251 6.6862 141.303 6.28418 140.093 6.28418C138.857 6.28418 137.901 6.6862 137.224 7.49023C136.555 8.28581 136.221 9.41992 136.221 10.8926V19.2334H135.307H134.393ZM158.768 19.2334V5.00195H159.682H160.596V19.2334H159.682H158.768ZM158.78 0H160.583V3.2627H158.78V0ZM169.406 8.51855C169.415 7.86686 169.22 7.33366 168.822 6.91895C168.424 6.49577 167.908 6.28418 167.273 6.28418C166.622 6.28418 166.105 6.48307 165.725 6.88086C165.344 7.27865 165.153 7.82031 165.153 8.50586C165.153 9.04753 165.348 9.49186 165.737 9.83887C166.127 10.1859 166.799 10.516 167.756 10.8291C169.169 11.2861 170.189 11.8743 170.815 12.5938C171.442 13.3047 171.755 14.2357 171.755 15.3867C171.755 16.5801 171.332 17.5745 170.485 18.3701C169.647 19.1657 168.594 19.5635 167.324 19.5635C165.97 19.5635 164.895 19.1572 164.1 18.3447C163.304 17.5238 162.906 16.4193 162.906 15.0312H164.747C164.73 15.9453 164.95 16.6605 165.407 17.1768C165.864 17.693 166.503 17.9512 167.324 17.9512C168.111 17.9512 168.738 17.7311 169.203 17.291C169.669 16.8509 169.901 16.2585 169.901 15.5137C169.901 14.7689 169.677 14.168 169.229 13.7109C168.78 13.2624 168.01 12.8604 166.918 12.5049C165.64 12.0902 164.717 11.5781 164.15 10.9688C163.583 10.3594 163.3 9.5765 163.3 8.62012C163.3 7.486 163.676 6.54655 164.43 5.80176C165.183 5.0485 166.131 4.67188 167.273 4.67188C168.467 4.67188 169.427 5.02734 170.155 5.73828C170.883 6.44076 171.247 7.36751 171.247 8.51855H169.406ZM180.781 19.5635C178.716 19.5635 176.964 18.8441 175.525 17.4053C174.095 15.9665 173.38 14.2061 173.38 12.124C173.38 10.0335 174.095 8.26888 175.525 6.83008C176.964 5.39128 178.716 4.67188 180.781 4.67188C182.863 4.67188 184.619 5.39128 186.05 6.83008C187.48 8.26888 188.195 10.0335 188.195 12.124C188.204 12.3525 188.191 12.5811 188.157 12.8096H175.246C175.373 14.1383 175.906 15.2894 176.846 16.2627C177.938 17.3883 179.271 17.9512 180.845 17.9512C181.97 17.9512 182.956 17.6676 183.803 17.1006C184.658 16.5335 185.343 15.7041 185.859 14.6123H187.751C187.243 16.0934 186.35 17.291 185.072 18.2051C183.794 19.1107 182.364 19.5635 180.781 19.5635ZM186.304 11.1719C186.126 9.9362 185.605 8.86979 184.742 7.97266C183.667 6.84701 182.347 6.28418 180.781 6.28418C179.224 6.28418 177.904 6.85124 176.82 7.98535C175.982 8.87402 175.462 9.9362 175.259 11.1719H186.304ZM198.225 19.2334V5.00195H199.126H200.04V6.46191L200.192 6.28418C201.098 5.18392 202.355 4.63379 203.963 4.63379C205.74 4.63379 207.128 5.18392 208.127 6.28418C208.415 6.60579 208.664 6.96126 208.876 7.35059C209.062 6.94434 209.286 6.58887 209.549 6.28418C210.471 5.18392 211.754 4.63379 213.396 4.63379C215.215 4.63379 216.633 5.19661 217.648 6.32227C218.673 7.44792 219.185 9.00944 219.185 11.0068V19.2334H218.271H217.356V10.8037C217.356 9.3903 217.014 8.28581 216.328 7.49023C215.651 6.6862 214.707 6.28418 213.497 6.28418C212.261 6.28418 211.305 6.6862 210.628 7.49023C209.959 8.28581 209.625 9.41992 209.625 10.8926V19.2334H208.711H207.797V10.8164C207.797 9.39453 207.454 8.28581 206.769 7.49023C206.083 6.6862 205.135 6.28418 203.925 6.28418C202.689 6.28418 201.733 6.6862 201.056 7.49023C200.387 8.28581 200.053 9.41992 200.053 10.8926V19.2334H199.139H198.225ZM234.508 5.00195L226.167 24.2861H225.278H224.377L226.814 18.5859L221.305 5.00195H222.295H223.285L227.754 16.377L232.578 5.00195H233.543H234.508ZM243.725 5.00195H244.639H245.553V7.38867L246.061 6.83008C247.482 5.39128 249.272 4.67188 251.431 4.67188C253.496 4.67188 255.235 5.39128 256.648 6.83008C258.07 8.26888 258.781 10.0335 258.781 12.124C258.781 14.2061 258.07 15.9665 256.648 17.4053C255.235 18.8441 253.496 19.5635 251.431 19.5635C249.281 19.5635 247.495 18.8398 246.073 17.3926L245.553 16.8086V24.2354H244.639H243.725V5.00195ZM251.215 17.9512C252.823 17.9512 254.181 17.3883 255.29 16.2627C256.399 15.1286 256.953 13.7406 256.953 12.0986C256.953 10.4567 256.399 9.06868 255.29 7.93457C254.181 6.80046 252.823 6.2334 251.215 6.2334C249.607 6.2334 248.248 6.80046 247.14 7.93457C246.031 9.06022 245.477 10.444 245.477 12.0859H245.489C245.489 13.7279 246.044 15.1159 247.152 16.25C248.261 17.3841 249.615 17.9512 251.215 17.9512ZM268.328 19.5635C266.255 19.5635 264.498 18.8441 263.06 17.4053C261.621 15.9665 260.901 14.2061 260.901 12.124C260.901 10.0335 261.621 8.26888 263.06 6.83008C264.498 5.39128 266.255 4.67188 268.328 4.67188C270.419 4.67188 272.179 5.39128 273.609 6.83008C275.048 8.26888 275.768 10.0335 275.768 12.124C275.768 14.2061 275.048 15.9665 273.609 17.4053C272.179 18.8441 270.419 19.5635 268.328 19.5635ZM268.328 17.9512C269.902 17.9512 271.231 17.3883 272.314 16.2627C273.398 15.137 273.939 13.7575 273.939 12.124C273.939 10.4906 273.398 9.111 272.314 7.98535C271.231 6.85124 269.902 6.28418 268.328 6.28418C266.762 6.28418 265.438 6.85124 264.354 7.98535C263.271 9.111 262.729 10.4906 262.729 12.124C262.729 13.7575 263.271 15.137 264.354 16.2627C265.438 17.3883 266.762 17.9512 268.328 17.9512ZM278.535 19.2334V5.00195H279.437H280.351V7.0459C280.511 6.69889 280.689 6.40267 280.884 6.15723C281.637 5.20085 282.813 4.69303 284.413 4.63379V6.55078C283.203 6.64388 282.242 7.04167 281.531 7.74414C280.753 8.53125 280.363 9.6569 280.363 11.1211V19.2334H279.449H278.535ZM293.059 19.5635C290.993 19.5635 289.242 18.8441 287.803 17.4053C286.372 15.9665 285.657 14.2061 285.657 12.124C285.657 10.0335 286.372 8.26888 287.803 6.83008C289.242 5.39128 290.993 4.67188 293.059 4.67188C295.141 4.67188 296.897 5.39128 298.327 6.83008C299.757 8.26888 300.473 10.0335 300.473 12.124C300.481 12.3525 300.468 12.5811 300.435 12.8096H287.523C287.65 14.1383 288.184 15.2894 289.123 16.2627C290.215 17.3883 291.548 17.9512 293.122 17.9512C294.248 17.9512 295.234 17.6676 296.08 17.1006C296.935 16.5335 297.62 15.7041 298.137 14.6123H300.028C299.521 16.0934 298.628 17.291 297.35 18.2051C296.072 19.1107 294.641 19.5635 293.059 19.5635ZM298.581 11.1719C298.403 9.9362 297.883 8.86979 297.02 7.97266C295.945 6.84701 294.624 6.28418 293.059 6.28418C291.501 6.28418 290.181 6.85124 289.098 7.98535C288.26 8.87402 287.739 9.9362 287.536 11.1719H298.581ZM308.699 8.51855C308.708 7.86686 308.513 7.33366 308.115 6.91895C307.717 6.49577 307.201 6.28418 306.566 6.28418C305.915 6.28418 305.398 6.48307 305.018 6.88086C304.637 7.27865 304.446 7.82031 304.446 8.50586C304.446 9.04753 304.641 9.49186 305.03 9.83887C305.42 10.1859 306.092 10.516 307.049 10.8291C308.462 11.2861 309.482 11.8743 310.108 12.5938C310.735 13.3047 311.048 14.2357 311.048 15.3867C311.048 16.5801 310.625 17.5745 309.778 18.3701C308.94 19.1657 307.887 19.5635 306.617 19.5635C305.263 19.5635 304.188 19.1572 303.393 18.3447C302.597 17.5238 302.199 16.4193 302.199 15.0312H304.04C304.023 15.9453 304.243 16.6605 304.7 17.1768C305.157 17.693 305.796 17.9512 306.617 17.9512C307.404 17.9512 308.031 17.7311 308.496 17.291C308.962 16.8509 309.194 16.2585 309.194 15.5137C309.194 14.7689 308.97 14.168 308.521 13.7109C308.073 13.2624 307.303 12.8604 306.211 12.5049C304.933 12.0902 304.01 11.5781 303.443 10.9688C302.876 10.3594 302.593 9.5765 302.593 8.62012C302.593 7.486 302.969 6.54655 303.723 5.80176C304.476 5.0485 305.424 4.67188 306.566 4.67188C307.76 4.67188 308.72 5.02734 309.448 5.73828C310.176 6.44076 310.54 7.36751 310.54 8.51855H308.699Z" fill="#667085"/>
</svg>
