<svg width="1221" height="491" viewBox="0 0 1221 491" fill="none" xmlns="http://www.w3.org/2000/svg">
<g filter="url(#filter0_d_99_431)">
<rect x="699" width="518" height="119" rx="20" fill="#ECE4FF" fill-opacity="0.501961" shape-rendering="crispEdges"/>
</g>
<rect x="699" y="287" width="518" height="204" rx="20" fill="#ECE4FF" fill-opacity="0.501961"/>
<rect y="149" width="518" height="119" rx="20" fill="#ECE4FF" fill-opacity="0.501961"/>
<circle cx="1191.5" cy="95.5" r="15.5" fill="url(#paint0_linear_99_431)"/>
<circle cx="25.5" cy="243.5" r="15.5" fill="url(#paint1_linear_99_431)"/>
<circle cx="1191.5" cy="461.5" r="15.5" fill="url(#paint2_linear_99_431)"/>
<path d="M31.0348 234.406C31.0946 234.164 31.4388 234.164 31.4985 234.406C31.7537 235.439 32.5606 236.246 33.5941 236.501C33.8362 236.561 33.8362 236.905 33.5941 236.965C32.5606 237.22 31.7537 238.027 31.4985 239.06C31.4388 239.303 31.0946 239.303 31.0348 239.06C30.7797 238.027 29.9728 237.22 28.9393 236.965C28.6972 236.905 28.6972 236.561 28.9393 236.501C29.9728 236.246 30.7797 235.439 31.0348 234.406Z" fill="white"/>
<path d="M33.5852 233.38C33.6094 233.282 33.7487 233.282 33.7729 233.38C33.8762 233.798 34.2028 234.125 34.6211 234.228C34.7191 234.253 34.7191 234.392 34.6211 234.416C34.2028 234.519 33.8762 234.846 33.7729 235.264C33.7487 235.362 33.6094 235.362 33.5852 235.264C33.4819 234.846 33.1553 234.519 32.737 234.416C32.639 234.392 32.639 234.253 32.737 234.228C33.1553 234.125 33.4819 233.798 33.5852 233.38Z" fill="white"/>
<path d="M27.7278 244.453C27.2107 244.149 27.2094 243.387 27.7256 243.081L30.757 241.287L31.9372 240.588C33.276 239.796 34.9529 240.781 34.955 242.361L34.9559 242.934C34.9598 245.499 32.2444 247.107 30.0678 245.828L27.7278 244.453Z" fill="white"/>
<path d="M29.4819 239.154C30.3106 239.642 30.3106 240.864 29.4819 241.353L28.8049 241.753L26.9776 242.83C26.6599 243.018 26.2633 242.783 26.2633 242.409V240.253V238.627C26.2633 238.017 26.9091 237.636 27.4257 237.941L28.8049 238.754L29.4819 239.154Z" fill="white"/>
<path d="M28.1283 249.177C27.2996 249.666 26.2633 249.055 26.2633 248.078V247.279V245.124C26.2633 244.749 26.6603 244.515 26.9776 244.702L28.8049 245.78L30.184 246.593C30.7006 246.898 30.7006 247.66 30.184 247.965L28.8049 248.778L28.1279 249.177H28.1283Z" fill="white"/>
<path d="M24.2281 244.453C24.7452 244.149 24.7465 243.387 24.2303 243.081L21.199 241.287L20.0188 240.588C18.6804 239.795 17.0035 240.781 17.0009 242.361L17 242.934C16.9961 245.499 19.7115 247.106 21.8881 245.828L24.2281 244.452V244.453Z" fill="white"/>
<path d="M22.4716 239.154C21.6429 239.642 21.6429 240.864 22.4716 241.353L23.1486 241.753L24.9759 242.83C25.2936 243.018 25.6902 242.783 25.6902 242.409V240.253V238.627C25.6902 238.017 25.0444 237.636 24.5278 237.941L23.1486 238.754L22.4716 239.154Z" fill="white"/>
<path d="M23.8262 249.177C24.6549 249.666 25.6912 249.055 25.6912 248.078V247.279V245.124C25.6912 244.749 25.2942 244.515 24.977 244.702L23.1497 245.78L21.7705 246.593C21.2539 246.898 21.2539 247.66 21.7705 247.965L23.1497 248.778L23.8267 249.177H23.8262Z" fill="white"/>
<defs>
<filter id="filter0_d_99_431" x="695" y="0" width="526" height="127" filterUnits="userSpaceOnUse" color-interpolation-filters="sRGB">
<feFlood flood-opacity="0" result="BackgroundImageFix"/>
<feColorMatrix in="SourceAlpha" type="matrix" values="0 0 0 0 0 0 0 0 0 0 0 0 0 0 0 0 0 0 127 0" result="hardAlpha"/>
<feOffset dy="4"/>
<feGaussianBlur stdDeviation="2"/>
<feComposite in2="hardAlpha" operator="out"/>
<feColorMatrix type="matrix" values="0 0 0 0 0 0 0 0 0 0 0 0 0 0 0 0 0 0 0.25 0"/>
<feBlend mode="normal" in2="BackgroundImageFix" result="effect1_dropShadow_99_431"/>
<feBlend mode="normal" in="SourceGraphic" in2="effect1_dropShadow_99_431" result="shape"/>
</filter>
<linearGradient id="paint0_linear_99_431" x1="1191.5" y1="80" x2="1191.5" y2="111" gradientUnits="userSpaceOnUse">
<stop stop-color="#34306F"/>
<stop offset="1" stop-color="#645CD5"/>
</linearGradient>
<linearGradient id="paint1_linear_99_431" x1="25.5" y1="228" x2="25.5" y2="259" gradientUnits="userSpaceOnUse">
<stop stop-color="#34306F"/>
<stop offset="1" stop-color="#645CD5"/>
</linearGradient>
<linearGradient id="paint2_linear_99_431" x1="1191.5" y1="446" x2="1191.5" y2="477" gradientUnits="userSpaceOnUse">
<stop stop-color="#34306F"/>
<stop offset="1" stop-color="#645CD5"/>
</linearGradient>
</defs>
</svg>
