<svg width="526" height="127" viewBox="0 0 526 127" fill="none" xmlns="http://www.w3.org/2000/svg">
<g filter="url(#filter0_d_99_431)">
<rect x="4" width="518" height="119" rx="20" fill="#ECE4FF" fill-opacity="0.501961" shape-rendering="crispEdges"/>
</g>
<circle cx="496.5" cy="95.5" r="15.5" fill="url(#paint0_linear_99_431)"/>
<path d="M502.035 87.4057C502.095 87.1636 502.439 87.1636 502.499 87.4057C502.754 88.4392 503.561 89.2461 504.594 89.5012C504.836 89.561 504.836 89.9052 504.594 89.965C503.561 90.2201 502.754 91.027 502.499 92.0605C502.439 92.3026 502.095 92.3026 502.035 92.0605C501.78 91.027 500.973 90.2201 499.939 89.965C499.697 89.9052 499.697 89.561 499.939 89.5012C500.973 89.2461 501.78 88.4392 502.035 87.4057Z" fill="white"/>
<path d="M504.585 86.3802C504.609 86.2822 504.749 86.2822 504.773 86.3802C504.876 86.7985 505.203 87.1251 505.621 87.2283C505.719 87.2525 505.719 87.3918 505.621 87.416C505.203 87.5193 504.876 87.8459 504.773 88.2642C504.749 88.3622 504.609 88.3622 504.585 88.2642C504.482 87.8459 504.155 87.5193 503.737 87.416C503.639 87.3918 503.639 87.2525 503.737 87.2283C504.155 87.1251 504.482 86.7985 504.585 86.3802Z" fill="white"/>
<path d="M498.728 97.4527C498.211 97.149 498.21 96.387 498.726 96.0814L501.757 94.2868L502.937 93.5881C504.276 92.7955 505.953 93.7807 505.955 95.3615L505.956 95.934C505.96 98.499 503.245 100.107 501.068 98.828L498.728 97.4527Z" fill="white"/>
<path d="M500.482 92.1536C501.311 92.6424 501.311 93.8645 500.482 94.3533L499.805 94.7527L497.978 95.8304C497.66 96.0177 497.263 95.7835 497.263 95.4089V93.2534V91.6266C497.263 91.0169 497.909 90.6361 498.426 90.9408L499.805 91.7542L500.482 92.1536Z" fill="white"/>
<path d="M499.128 102.177C498.3 102.666 497.263 102.055 497.263 101.078V100.279V98.1238C497.263 97.7492 497.66 97.515 497.978 97.7023L499.805 98.78L501.184 99.5934C501.701 99.898 501.701 100.66 501.184 100.965L499.805 101.778L499.128 102.177H499.128Z" fill="white"/>
<path d="M495.228 97.4527C495.745 97.149 495.746 96.387 495.23 96.0814L492.199 94.2868L491.019 93.5881C489.68 92.7951 488.003 93.7807 488.001 95.3615L488 95.9335C487.996 98.4986 490.711 100.106 492.888 98.8276L495.228 97.4523V97.4527Z" fill="white"/>
<path d="M493.472 92.1536C492.643 92.6424 492.643 93.8645 493.472 94.3533L494.149 94.7527L495.976 95.8304C496.294 96.0177 496.69 95.7835 496.69 95.4089V93.2534V91.6266C496.69 91.0169 496.044 90.6361 495.528 90.9408L494.149 91.7542L493.472 92.1536Z" fill="white"/>
<path d="M494.826 102.177C495.655 102.666 496.691 102.055 496.691 101.078V100.279V98.1238C496.691 97.7492 496.294 97.515 495.977 97.7023L494.15 98.78L492.771 99.5934C492.254 99.898 492.254 100.66 492.771 100.965L494.15 101.778L494.827 102.177H494.826Z" fill="white"/>
<defs>
<filter id="filter0_d_99_431" x="0" y="0" width="526" height="127" filterUnits="userSpaceOnUse" color-interpolation-filters="sRGB">
<feFlood flood-opacity="0" result="BackgroundImageFix"/>
<feColorMatrix in="SourceAlpha" type="matrix" values="0 0 0 0 0 0 0 0 0 0 0 0 0 0 0 0 0 0 127 0" result="hardAlpha"/>
<feOffset dy="4"/>
<feGaussianBlur stdDeviation="2"/>
<feComposite in2="hardAlpha" operator="out"/>
<feColorMatrix type="matrix" values="0 0 0 0 0 0 0 0 0 0 0 0 0 0 0 0 0 0 0.25 0"/>
<feBlend mode="normal" in2="BackgroundImageFix" result="effect1_dropShadow_99_431"/>
<feBlend mode="normal" in="SourceGraphic" in2="effect1_dropShadow_99_431" result="shape"/>
</filter>
<linearGradient id="paint0_linear_99_431" x1="496.5" y1="80" x2="496.5" y2="111" gradientUnits="userSpaceOnUse">
<stop stop-color="#34306F"/>
<stop offset="1" stop-color="#645CD5"/>
</linearGradient>
</defs>
</svg>
