<svg width="100" height="100" viewBox="0 0 100 100" fill="none" xmlns="http://www.w3.org/2000/svg">
<rect width="100" height="100" rx="20" fill="url(#paint0_linear_89_1343)"/>
<path d="M72.9718 18.6189C73.1682 17.8234 74.2991 17.8234 74.4955 18.6189C75.3338 22.0146 77.9851 24.6658 81.3808 25.5041C82.1763 25.7005 82.1763 26.8314 81.3808 27.0278C77.9851 27.866 75.3338 30.5173 74.4955 33.913C74.2991 34.7085 73.1682 34.7085 72.9718 33.913C72.1335 30.5173 69.4821 27.866 66.0865 27.0278C65.2909 26.8314 65.2909 25.7005 66.0865 25.5041C69.4821 24.6658 72.1335 22.0146 72.9718 18.6189Z" fill="white"/>
<path d="M81.3515 15.2491C81.431 14.9271 81.8888 14.9271 81.9683 15.2491C82.3076 16.6235 83.3807 17.6966 84.7552 18.0359C85.0772 18.1154 85.0772 18.5732 84.7552 18.6527C83.3807 18.992 82.3076 20.0651 81.9683 21.4395C81.8888 21.7615 81.431 21.7615 81.3515 21.4395C81.0122 20.0651 79.9391 18.992 78.5646 18.6527C78.2426 18.5732 78.2426 18.1154 78.5646 18.0359C79.9391 17.6966 81.0122 16.6235 81.3515 15.2491Z" fill="white"/>
<path d="M60.1035 55.639C57.9778 54.3903 57.9725 51.2575 60.0946 50.0015L72.5567 42.6237L77.4087 39.7512C82.9127 36.4928 89.8066 40.543 89.8156 47.0416L89.8191 49.3953C89.8352 59.9405 78.672 66.5501 69.7236 61.293L60.1035 55.639Z" fill="white"/>
<path d="M67.3146 33.8536C70.7215 35.8632 70.7215 40.8873 67.3146 42.897L64.5314 44.5389L57.0192 48.9696C55.7131 49.7396 54.0828 48.7767 54.0828 47.2367V38.3753V31.6874C54.0828 29.1808 56.7377 27.6153 58.8616 28.8677L64.5314 32.2116L67.3146 33.8536Z" fill="white"/>
<path d="M61.75 75.063C58.3431 77.0727 54.0828 74.5606 54.0828 70.5413V67.2593V58.3979C54.0828 56.8579 55.7149 55.8949 57.0192 56.6649L64.5314 61.0956L70.2012 64.4396C72.3252 65.692 72.3252 68.8248 70.2012 70.0772L64.5314 73.4211L61.7482 75.063H61.75Z" fill="white"/>
<path d="M45.7159 55.6391C47.8416 54.3903 47.8469 51.2575 45.7248 50.0015L33.2626 42.6237L28.4107 39.7512C22.9084 36.491 16.0145 40.5431 16.0038 47.0416L16.0003 49.3935C15.9842 59.9387 27.1474 66.5483 36.0958 61.2912L45.7159 55.6372V55.6391Z" fill="white"/>
<path d="M38.4948 33.8536C35.088 35.8632 35.088 40.8873 38.4948 42.897L41.2781 44.5389L48.7903 48.9696C50.0963 49.7396 51.7267 48.7767 51.7267 47.2367V38.3753V31.6874C51.7267 29.1808 49.0718 27.6153 46.9478 28.8677L41.2781 32.2116L38.4948 33.8536Z" fill="white"/>
<path d="M44.0635 75.063C47.4703 77.0727 51.7307 74.5606 51.7307 70.5413V67.2593V58.3979C51.7307 56.8579 50.0985 55.8949 48.7942 56.6649L41.282 61.0956L35.6122 64.4396C33.4883 65.692 33.4883 68.8248 35.6122 70.0772L41.282 73.4211L44.0652 75.063H44.0635Z" fill="white"/>
<defs>
<linearGradient id="paint0_linear_89_1343" x1="0" y1="50" x2="100" y2="50" gradientUnits="userSpaceOnUse">
<stop stop-color="#34306F"/>
<stop offset="1" stop-color="#645CD5"/>
</linearGradient>
</defs>
</svg>
