<svg width="40" height="40" viewBox="0 0 40 40" fill="none" xmlns="http://www.w3.org/2000/svg">
<rect x="0.5" y="0.5" width="39" height="39" rx="5.5" stroke="black" stroke-opacity="0.08"/>
<path d="M16.6705 25.5V24.3752L20.1294 20.7991C20.4847 20.425 20.7815 20.0943 21.0198 19.807C21.2582 19.5196 21.4385 19.2434 21.5608 18.9783C21.683 18.7132 21.7442 18.43 21.7442 18.1287C21.7442 17.7904 21.665 17.4982 21.5066 17.252C21.3482 17.0057 21.1339 16.8166 20.8636 16.6846C20.5933 16.5525 20.2857 16.4865 19.9408 16.4865C19.5773 16.4865 19.2613 16.5602 18.9928 16.7076C18.7244 16.855 18.517 17.0631 18.3707 17.3319C18.2244 17.6008 18.1512 17.918 18.1512 18.2836H16.6585C16.6585 17.6615 16.8014 17.1173 17.0872 16.6509C17.373 16.1845 17.765 15.8224 18.2632 15.5645C18.7614 15.3067 19.3299 15.1777 19.9689 15.1777C20.6127 15.1777 21.1799 15.3048 21.6704 15.559C22.1609 15.8131 22.5448 16.1583 22.822 16.5945C23.0993 17.0307 23.2379 17.5244 23.2379 18.0756C23.2379 18.4489 23.1692 18.8131 23.0317 19.1683C22.8942 19.5235 22.6513 19.9246 22.3031 20.3715C21.9548 20.8185 21.4639 21.3614 20.8303 22.0003L18.8307 24.0881V24.1677H23.3978V25.5H16.6705Z" fill="#0B1A2B"/>
</svg>
