<svg width="40" height="40" viewBox="0 0 40 40" fill="none" xmlns="http://www.w3.org/2000/svg">
<rect x="0.5" y="0.5" width="39" height="39" rx="5.5" stroke="black" stroke-opacity="0.08"/>
<path d="M20.0074 25.6367C19.3174 25.6367 18.7053 25.5185 18.171 25.282C17.6368 25.0455 17.2136 24.7171 16.9015 24.2967C16.5895 23.8764 16.4241 23.3887 16.4054 22.8337H17.9812C18.0036 23.1343 18.1049 23.3946 18.2851 23.6145C18.4652 23.8345 18.704 24.0036 19.0015 24.122C19.2989 24.2403 19.6303 24.2995 19.9955 24.2995C20.3927 24.2995 20.7442 24.2306 21.05 24.0927C21.3558 23.9548 21.5968 23.7613 21.773 23.5121C21.9493 23.2629 22.0374 22.9756 22.0374 22.6501C22.0374 22.3097 21.9504 22.0104 21.7765 21.7523C21.6026 21.4941 21.3515 21.2917 21.0231 21.1449C20.6948 20.9981 20.2961 20.9247 19.8272 20.9247H18.9619V19.6553H19.8272C20.2015 19.6553 20.5318 19.5882 20.8181 19.4541C21.1043 19.32 21.3272 19.1323 21.4868 18.8909C21.6464 18.6496 21.7262 18.3667 21.7262 18.042C21.7262 17.7294 21.6565 17.4567 21.517 17.2241C21.3775 16.9915 21.1798 16.8104 20.924 16.6809C20.6682 16.5513 20.368 16.4865 20.0235 16.4865C19.6936 16.4865 19.3865 16.5459 19.1023 16.6647C18.8181 16.7834 18.5866 16.9523 18.4076 17.1712C18.2287 17.39 18.1336 17.6548 18.1224 17.9653H16.6192C16.6342 17.4157 16.7955 16.9315 17.1033 16.5128C17.411 16.0941 17.8214 15.7669 18.3343 15.5312C18.8472 15.2956 19.4178 15.1777 20.0459 15.1777C20.7007 15.1777 21.268 15.3053 21.7477 15.5605C22.2275 15.8158 22.5976 16.1536 22.858 16.574C23.1185 16.9945 23.2487 17.4545 23.2487 17.9539C23.2487 18.5265 23.089 19.0103 22.7695 19.4051C22.45 19.8 22.0227 20.0672 21.4876 20.2065V20.2861C21.9411 20.3528 22.3267 20.4964 22.6446 20.7168C22.9625 20.9373 23.2042 21.2169 23.3696 21.5559C23.5351 21.8948 23.6178 22.2772 23.6178 22.7031C23.6178 23.2665 23.4621 23.7692 23.1507 24.2112C22.8392 24.6532 22.4114 25.0013 21.8672 25.2555C21.323 25.5096 20.7031 25.6367 20.0074 25.6367Z" fill="#0B1A2B"/>
</svg>
