<svg width="30" height="20" viewBox="0 0 30 20" fill="none" xmlns="http://www.w3.org/2000/svg">
<path d="M10.3047 16.1016C10.013 16.1016 9.76432 15.9987 9.55859 15.793C9.35286 15.5872 9.25 15.3385 9.25 15.0469C9.25 14.7552 9.35286 14.5065 9.55859 14.3008C9.76432 14.0951 10.013 13.9922 10.3047 13.9922C10.5964 13.9922 10.8451 14.0951 11.0508 14.3008C11.2565 14.5065 11.3594 14.7552 11.3594 15.0469C11.3594 15.3385 11.2565 15.5872 11.0508 15.793C10.8451 15.9987 10.5964 16.1016 10.3047 16.1016ZM14.9141 16.1016C14.6224 16.1016 14.3737 15.9987 14.168 15.793C13.9622 15.5872 13.8594 15.3385 13.8594 15.0469C13.8594 14.7552 13.9622 14.5065 14.168 14.3008C14.3737 14.0951 14.6224 13.9922 14.9141 13.9922C15.2057 13.9922 15.4544 14.0951 15.6602 14.3008C15.8659 14.5065 15.9688 14.7552 15.9688 15.0469C15.9688 15.3385 15.8659 15.5872 15.6602 15.793C15.4544 15.9987 15.2057 16.1016 14.9141 16.1016ZM19.5234 16.1016C19.2318 16.1016 18.9831 15.9987 18.7773 15.793C18.5716 15.5872 18.4688 15.3385 18.4688 15.0469C18.4688 14.7552 18.5716 14.5065 18.7773 14.3008C18.9831 14.0951 19.2318 13.9922 19.5234 13.9922C19.8151 13.9922 20.0638 14.0951 20.2695 14.3008C20.4753 14.5065 20.5781 14.7552 20.5781 15.0469C20.5781 15.3385 20.4753 15.5872 20.2695 15.793C20.0638 15.9987 19.8151 16.1016 19.5234 16.1016Z" fill="#8A9198"/>
</svg>
