<svg width="40" height="40" viewBox="0 0 40 40" fill="none" xmlns="http://www.w3.org/2000/svg">
<rect x="0.5" y="0.5" width="39" height="39" rx="5.5" stroke="black" stroke-opacity="0.08"/>
<path d="M20.0929 25.6367C19.6387 25.6367 19.1899 25.5564 18.7464 25.3957C18.3029 25.235 17.9015 24.9687 17.5422 24.5967C17.1829 24.2247 16.8962 23.7243 16.682 23.0955C16.4679 22.4666 16.3608 21.684 16.3608 20.7477C16.3608 19.863 16.4497 19.0765 16.6276 18.388C16.8055 17.6996 17.0631 17.1164 17.4004 16.6385C17.7377 16.1606 18.1441 15.7976 18.6196 15.5497C19.095 15.3017 19.63 15.1777 20.2243 15.1777C20.8268 15.1777 21.3643 15.2972 21.8368 15.5361C22.3093 15.7751 22.6938 16.1041 22.9903 16.5232C23.2869 16.9424 23.4737 17.4231 23.5508 17.9653H22.0185C21.9144 17.5503 21.7108 17.2095 21.4078 16.9428C21.1048 16.6761 20.7103 16.5427 20.2243 16.5427C19.7286 16.5427 19.3042 16.6884 18.9512 16.9798C18.5982 17.2712 18.3288 17.6902 18.143 18.2367C17.9573 18.7833 17.8644 19.4403 17.8644 20.2076H17.9415C18.1148 19.9201 18.3294 19.6732 18.5855 19.4667C18.8415 19.2602 19.1298 19.1024 19.4504 18.9932C19.771 18.8841 20.1096 18.8295 20.4663 18.8295C21.0562 18.8295 21.5908 18.9722 22.0702 19.2577C22.5496 19.5432 22.9311 19.9379 23.2148 20.442C23.4984 20.946 23.6402 21.5233 23.6402 22.1738C23.6402 22.8245 23.4932 23.4111 23.1992 23.9337C22.9051 24.4563 22.492 24.8708 21.9598 25.1771C21.4276 25.4835 20.8053 25.6367 20.0929 25.6367ZM20.088 24.3241C20.4744 24.3241 20.8212 24.2287 21.1284 24.038C21.4356 23.8473 21.6787 23.5912 21.8578 23.2696C22.0369 22.9481 22.1265 22.5886 22.1265 22.191C22.1265 21.8009 22.0397 21.4469 21.8662 21.1292C21.6927 20.8114 21.4543 20.559 21.1508 20.372C20.8473 20.185 20.5024 20.0915 20.116 20.0915C19.8258 20.0915 19.556 20.1476 19.3067 20.2598C19.0573 20.3719 18.8389 20.5266 18.6515 20.7237C18.4641 20.9209 18.3183 21.1464 18.214 21.4004C18.1097 21.6543 18.0576 21.9216 18.0576 22.2022C18.0576 22.5811 18.1453 22.9313 18.3206 23.2528C18.496 23.5743 18.7375 23.8333 19.0451 24.0296C19.3527 24.2259 19.7004 24.3241 20.088 24.3241Z" fill="#0B1A2B"/>
</svg>
