<svg width="299" height="40" viewBox="0 0 299 40" fill="none" xmlns="http://www.w3.org/2000/svg">
<rect x="0.5" y="0.5" width="297.66" height="39" rx="11.5" fill="white"/>
<rect x="0.5" y="0.5" width="297.66" height="39" rx="11.5" stroke="#34306F"/>
<g clip-path="url(#clip0_89_797)">
<path d="M99.4966 26C99.4966 26.368 99.7953 26.6667 100.163 26.6667C100.531 26.6667 100.83 26.368 100.83 26C100.83 25.6321 100.531 25.3334 100.163 25.3334C99.7953 25.3334 99.4966 25.6321 99.4966 26V26" stroke="#34306F" stroke-width="1.33333" stroke-linecap="round" stroke-linejoin="round"/>
<path d="M106.83 26C106.83 26.368 107.129 26.6667 107.497 26.6667C107.865 26.6667 108.163 26.368 108.163 26C108.163 25.6321 107.865 25.3334 107.497 25.3334C107.129 25.3334 106.83 25.6321 106.83 26V26" stroke="#34306F" stroke-width="1.33333" stroke-linecap="round" stroke-linejoin="round"/>
<path d="M96.1968 13.3667H97.5301L99.3034 21.6467C99.4376 22.2722 99.9972 22.7143 100.637 22.7H107.157C107.782 22.699 108.322 22.2639 108.457 21.6534L109.557 16.7H98.2434" stroke="#34306F" stroke-width="1.33333" stroke-linecap="round" stroke-linejoin="round"/>
</g>
<path d="M124.663 25.5H122.695L126.279 15.3182H128.556L132.146 25.5H130.177L127.457 17.4062H127.378L124.663 25.5ZM124.728 21.5078H130.097V22.9893H124.728V21.5078ZM136.009 25.6342C135.409 25.6342 134.872 25.4801 134.398 25.1719C133.924 24.8636 133.549 24.4162 133.274 23.8295C132.999 23.2429 132.862 22.5303 132.862 21.6918C132.862 20.8433 133.001 20.1274 133.279 19.544C133.561 18.9574 133.94 18.5149 134.418 18.2166C134.895 17.915 135.427 17.7642 136.013 17.7642C136.461 17.7642 136.829 17.8404 137.117 17.9929C137.406 18.142 137.634 18.3227 137.803 18.5348C137.972 18.7436 138.103 18.9408 138.196 19.1264H138.271V15.3182H140.075V25.5H138.305V24.2969H138.196C138.103 24.4825 137.969 24.6797 137.793 24.8885C137.618 25.094 137.386 25.2696 137.097 25.4155C136.809 25.5613 136.446 25.6342 136.009 25.6342ZM136.511 24.1577C136.892 24.1577 137.217 24.0549 137.485 23.8494C137.754 23.6406 137.957 23.3506 138.097 22.9794C138.236 22.6082 138.305 22.1757 138.305 21.6818C138.305 21.188 138.236 20.7588 138.097 20.3942C137.961 20.0296 137.759 19.7462 137.49 19.544C137.225 19.3419 136.898 19.2408 136.511 19.2408C136.11 19.2408 135.775 19.3452 135.506 19.554C135.238 19.7628 135.036 20.0511 134.9 20.419C134.764 20.7869 134.696 21.2079 134.696 21.6818C134.696 22.1591 134.764 22.585 134.9 22.9595C135.039 23.3307 135.243 23.6241 135.511 23.8395C135.783 24.0516 136.116 24.1577 136.511 24.1577ZM144.827 25.6342C144.227 25.6342 143.69 25.4801 143.216 25.1719C142.742 24.8636 142.368 24.4162 142.093 23.8295C141.817 23.2429 141.68 22.5303 141.68 21.6918C141.68 20.8433 141.819 20.1274 142.097 19.544C142.379 18.9574 142.759 18.5149 143.236 18.2166C143.713 17.915 144.245 17.7642 144.832 17.7642C145.279 17.7642 145.647 17.8404 145.936 17.9929C146.224 18.142 146.453 18.3227 146.622 18.5348C146.791 18.7436 146.922 18.9408 147.014 19.1264H147.089V15.3182H148.894V25.5H147.124V24.2969H147.014C146.922 24.4825 146.787 24.6797 146.612 24.8885C146.436 25.094 146.204 25.2696 145.916 25.4155C145.627 25.5613 145.264 25.6342 144.827 25.6342ZM145.329 24.1577C145.71 24.1577 146.035 24.0549 146.303 23.8494C146.572 23.6406 146.776 23.3506 146.915 22.9794C147.054 22.6082 147.124 22.1757 147.124 21.6818C147.124 21.188 147.054 20.7588 146.915 20.3942C146.779 20.0296 146.577 19.7462 146.308 19.544C146.043 19.3419 145.717 19.2408 145.329 19.2408C144.928 19.2408 144.593 19.3452 144.325 19.554C144.056 19.7628 143.854 20.0511 143.718 20.419C143.582 20.7869 143.514 21.2079 143.514 21.6818C143.514 22.1591 143.582 22.585 143.718 22.9595C143.857 23.3307 144.061 23.6241 144.33 23.8395C144.602 24.0516 144.935 24.1577 145.329 24.1577ZM158.097 17.8636V19.2557H153.707V17.8636H158.097ZM154.791 16.0341H156.591V23.2031C156.591 23.4451 156.627 23.6307 156.7 23.7599C156.777 23.8859 156.876 23.9721 156.999 24.0185C157.121 24.0649 157.257 24.0881 157.406 24.0881C157.519 24.0881 157.622 24.0798 157.714 24.0632C157.811 24.0466 157.884 24.0317 157.933 24.0185L158.237 25.4254C158.14 25.4586 158.003 25.495 157.824 25.5348C157.648 25.5746 157.433 25.5978 157.178 25.6044C156.727 25.6177 156.321 25.5497 155.96 25.4006C155.598 25.2481 155.312 25.0128 155.099 24.6946C154.891 24.3764 154.788 23.9787 154.791 23.5014V16.0341ZM162.851 25.6491C162.106 25.6491 161.459 25.4851 160.912 25.157C160.366 24.8288 159.941 24.3698 159.64 23.7798C159.341 23.1899 159.192 22.5005 159.192 21.7116C159.192 20.9228 159.341 20.2318 159.64 19.6385C159.941 19.0452 160.366 18.5845 160.912 18.2564C161.459 17.9283 162.106 17.7642 162.851 17.7642C163.597 17.7642 164.243 17.9283 164.79 18.2564C165.337 18.5845 165.76 19.0452 166.058 19.6385C166.36 20.2318 166.51 20.9228 166.51 21.7116C166.51 22.5005 166.36 23.1899 166.058 23.7798C165.76 24.3698 165.337 24.8288 164.79 25.157C164.243 25.4851 163.597 25.6491 162.851 25.6491ZM162.861 24.2074C163.266 24.2074 163.604 24.0964 163.876 23.8743C164.147 23.6489 164.349 23.3473 164.482 22.9695C164.618 22.5916 164.686 22.1707 164.686 21.7067C164.686 21.2393 164.618 20.8168 164.482 20.4389C164.349 20.0578 164.147 19.7545 163.876 19.5291C163.604 19.3037 163.266 19.1911 162.861 19.1911C162.447 19.1911 162.102 19.3037 161.827 19.5291C161.555 19.7545 161.352 20.0578 161.216 20.4389C161.083 20.8168 161.017 21.2393 161.017 21.7067C161.017 22.1707 161.083 22.5916 161.216 22.9695C161.352 23.3473 161.555 23.6489 161.827 23.8743C162.102 24.0964 162.447 24.2074 162.861 24.2074ZM180.305 18.7536H178.446C178.393 18.4486 178.295 18.1785 178.153 17.9432C178.01 17.7045 177.833 17.5024 177.621 17.3366C177.409 17.1709 177.167 17.0466 176.895 16.9638C176.626 16.8776 176.336 16.8345 176.025 16.8345C175.471 16.8345 174.981 16.9737 174.553 17.2521C174.126 17.5272 173.791 17.9316 173.549 18.4652C173.307 18.9955 173.186 19.6435 173.186 20.4091C173.186 21.188 173.307 21.8442 173.549 22.3778C173.794 22.9081 174.129 23.3092 174.553 23.581C174.981 23.8494 175.47 23.9837 176.02 23.9837C176.325 23.9837 176.61 23.9439 176.875 23.8643C177.143 23.7815 177.384 23.6605 177.596 23.5014C177.811 23.3423 177.992 23.1468 178.138 22.9148C178.287 22.6828 178.39 22.4176 178.446 22.1193L180.305 22.1293C180.236 22.6132 180.085 23.0672 179.853 23.4915C179.624 23.9157 179.324 24.2902 178.953 24.6151C178.582 24.9366 178.148 25.1884 177.651 25.3707C177.153 25.5497 176.602 25.6392 175.995 25.6392C175.1 25.6392 174.301 25.4321 173.599 25.0178C172.896 24.6035 172.343 24.0052 171.938 23.223C171.534 22.4408 171.332 21.5028 171.332 20.4091C171.332 19.312 171.536 18.3741 171.943 17.5952C172.351 16.813 172.906 16.2147 173.609 15.8004C174.311 15.3861 175.107 15.179 175.995 15.179C176.562 15.179 177.089 15.2585 177.576 15.4176C178.063 15.5767 178.497 15.8104 178.879 16.1186C179.26 16.4235 179.573 16.7981 179.818 17.2422C180.067 17.683 180.229 18.1868 180.305 18.7536ZM184.112 25.6541C183.628 25.6541 183.193 25.5679 182.805 25.3956C182.42 25.2199 182.115 24.9614 181.89 24.62C181.668 24.2786 181.557 23.8577 181.557 23.3572C181.557 22.9264 181.637 22.5701 181.796 22.2884C181.955 22.0066 182.172 21.7812 182.447 21.6122C182.722 21.4432 183.032 21.3156 183.377 21.2294C183.725 21.1399 184.084 21.0753 184.455 21.0355C184.903 20.9891 185.266 20.9477 185.544 20.9112C185.823 20.8714 186.025 20.8118 186.151 20.7322C186.28 20.6494 186.345 20.5218 186.345 20.3494V20.3196C186.345 19.9451 186.234 19.6551 186.012 19.4496C185.789 19.2441 185.47 19.1413 185.052 19.1413C184.611 19.1413 184.262 19.2375 184.003 19.4297C183.748 19.6219 183.575 19.849 183.486 20.1108L181.806 19.8722C181.938 19.4081 182.157 19.0204 182.462 18.7088C182.767 18.3939 183.14 18.1586 183.58 18.0028C184.021 17.8438 184.508 17.7642 185.042 17.7642C185.41 17.7642 185.776 17.8073 186.141 17.8935C186.505 17.9796 186.838 18.1222 187.14 18.321C187.442 18.5166 187.684 18.7834 187.866 19.1214C188.052 19.4595 188.144 19.8821 188.144 20.3892V25.5H186.414V24.451H186.355C186.245 24.6631 186.091 24.862 185.892 25.0476C185.697 25.2299 185.45 25.3774 185.151 25.4901C184.856 25.5994 184.51 25.6541 184.112 25.6541ZM184.58 24.3317C184.941 24.3317 185.254 24.2604 185.519 24.1179C185.785 23.9721 185.988 23.7798 186.131 23.5412C186.277 23.3026 186.35 23.0424 186.35 22.7607V21.8608C186.293 21.9072 186.197 21.9503 186.061 21.9901C185.929 22.0298 185.78 22.0646 185.614 22.0945C185.448 22.1243 185.284 22.1508 185.122 22.174C184.959 22.1972 184.818 22.2171 184.699 22.2337C184.431 22.2701 184.19 22.3298 183.978 22.4126C183.766 22.4955 183.599 22.6115 183.476 22.7607C183.353 22.9065 183.292 23.0954 183.292 23.3274C183.292 23.6589 183.413 23.9091 183.655 24.0781C183.897 24.2472 184.205 24.3317 184.58 24.3317ZM189.954 25.5V17.8636H191.699V19.1364H191.779C191.918 18.6955 192.156 18.3558 192.494 18.1172C192.836 17.8752 193.225 17.7543 193.663 17.7543C193.762 17.7543 193.873 17.7592 193.996 17.7692C194.122 17.7758 194.226 17.7874 194.309 17.804V19.4595C194.233 19.433 194.112 19.4098 193.946 19.3899C193.784 19.3667 193.626 19.3551 193.474 19.3551C193.146 19.3551 192.851 19.4264 192.589 19.5689C192.33 19.7081 192.127 19.902 191.977 20.1506C191.828 20.3991 191.754 20.6858 191.754 21.0107V25.5H189.954ZM199.728 17.8636V19.2557H195.338V17.8636H199.728ZM196.422 16.0341H198.222V23.2031C198.222 23.4451 198.258 23.6307 198.331 23.7599C198.407 23.8859 198.507 23.9721 198.629 24.0185C198.752 24.0649 198.888 24.0881 199.037 24.0881C199.15 24.0881 199.253 24.0798 199.345 24.0632C199.441 24.0466 199.514 24.0317 199.564 24.0185L199.867 25.4254C199.771 25.4586 199.634 25.495 199.455 25.5348C199.279 25.5746 199.064 25.5978 198.808 25.6044C198.358 25.6177 197.952 25.5497 197.59 25.4006C197.229 25.2481 196.942 25.0128 196.73 24.6946C196.521 24.3764 196.419 23.9787 196.422 23.5014V16.0341Z" fill="#34306F"/>
<defs>
<clipPath id="clip0_89_797">
<rect width="16" height="16" fill="white" transform="translate(94.8301 12)"/>
</clipPath>
</defs>
</svg>
