<svg width="1046" height="64" viewBox="0 0 1046 64" fill="none" xmlns="http://www.w3.org/2000/svg">
<rect x="315.85" y="24.5" width="87.14" height="39" rx="5.5" stroke="black" stroke-opacity="0.08"/>
<path d="M342.35 48L338.35 44L342.35 40" stroke="#0B1A2B" stroke-width="1.33333" stroke-linecap="round" stroke-linejoin="round"/>
<path d="M357.481 49.5V39.3145H361.13C361.916 39.3145 362.57 39.46 363.093 39.751C363.616 40.042 364.007 40.4363 364.268 40.9337C364.528 41.4312 364.659 41.9937 364.659 42.6211C364.659 43.2494 364.528 43.8131 364.266 44.3123C364.004 44.8114 363.611 45.2066 363.088 45.4979C362.564 45.7892 361.908 45.9348 361.118 45.9348H358.622V44.6123H360.967C361.467 44.6123 361.872 44.5262 362.183 44.3539C362.494 44.1816 362.721 43.9449 362.865 43.6437C363.008 43.3425 363.08 43.0017 363.08 42.6211C363.08 42.239 363.008 41.8993 362.865 41.6023C362.721 41.3053 362.493 41.0721 362.18 40.903C361.867 40.7338 361.459 40.6492 360.955 40.6492H359.043V49.5H357.481ZM366.347 49.5V41.8574H367.803V43.0849H367.885C368.025 42.6696 368.271 42.3434 368.623 42.1062C368.974 41.8691 369.374 41.7505 369.82 41.7505C369.916 41.7505 370.026 41.754 370.15 41.761C370.275 41.7681 370.376 41.7767 370.456 41.787V43.2224C370.401 43.2059 370.296 43.1883 370.141 43.1697C369.986 43.1511 369.828 43.1417 369.668 43.1417C369.321 43.1417 369.009 43.2152 368.733 43.3621C368.458 43.5091 368.242 43.7113 368.085 43.9689C367.929 44.2265 367.851 44.5235 367.851 44.86V49.5H366.347ZM374.789 49.6591C374.037 49.6591 373.388 49.4965 372.843 49.1713C372.297 48.846 371.878 48.3894 371.584 47.8015C371.29 47.2137 371.143 46.5241 371.143 45.7329C371.143 44.9482 371.287 44.258 371.576 43.6622C371.865 43.0664 372.273 42.6007 372.801 42.2651C373.33 41.9295 373.949 41.7617 374.659 41.7617C375.096 41.7617 375.518 41.833 375.925 41.9757C376.332 42.1183 376.698 42.3426 377.021 42.6485C377.344 42.9544 377.6 43.3507 377.789 43.8375C377.978 44.3243 378.073 44.9123 378.073 45.6015V46.1351H371.979V45.0123H377.298L376.596 45.3829C376.596 44.916 376.523 44.5037 376.378 44.1461C376.232 43.7884 376.017 43.5089 375.73 43.3076C375.444 43.1063 375.089 43.0056 374.664 43.0056C374.239 43.0056 373.876 43.1081 373.575 43.3132C373.274 43.5183 373.044 43.7884 372.885 44.1237C372.727 44.4589 372.648 44.8244 372.648 45.2203V45.9833C372.648 46.5074 372.738 46.951 372.918 47.314C373.098 47.677 373.35 47.9513 373.675 48.1369C374 48.3225 374.376 48.4153 374.804 48.4153C375.085 48.4153 375.339 48.3751 375.569 48.2946C375.798 48.2142 375.995 48.0932 376.161 47.9317C376.326 47.7702 376.453 47.5702 376.541 47.3318L377.952 47.6648C377.832 48.0608 377.627 48.4085 377.337 48.7079C377.047 49.0074 376.687 49.2408 376.256 49.4081C375.825 49.5755 375.336 49.6591 374.789 49.6591ZM381.641 49.5L378.758 41.8574H380.382L381.894 46.2014C382.062 46.679 382.206 47.1579 382.325 47.6382C382.444 48.1184 382.568 48.5945 382.697 49.0665H382.25C382.378 48.5945 382.501 48.1186 382.62 47.6388C382.739 47.1589 382.88 46.6798 383.044 46.2014L384.551 41.8574H386.167L383.282 49.5H381.641Z" fill="#0B1A2B"/>
<rect x="411.99" y="24.5" width="39" height="39" rx="5.5" fill="#34306F"/>
<rect x="411.99" y="24.5" width="39" height="39" rx="5.5" stroke="#34306F"/>
<path d="M433.267 39.3145V49.5H431.722V40.7292H431.653L429.234 42.4966V40.9298L431.461 39.3145H433.267Z" fill="white"/>
<rect x="459.99" y="24.5" width="39" height="39" rx="5.5" stroke="black" stroke-opacity="0.08"/>
<path d="M476.161 49.5V48.3752L479.62 44.7991C479.975 44.425 480.272 44.0943 480.51 43.807C480.748 43.5196 480.929 43.2434 481.051 42.9783C481.173 42.7132 481.234 42.43 481.234 42.1287C481.234 41.7904 481.155 41.4982 480.997 41.252C480.838 41.0057 480.624 40.8166 480.354 40.6846C480.084 40.5525 479.776 40.4865 479.431 40.4865C479.067 40.4865 478.751 40.5602 478.483 40.7076C478.215 40.855 478.007 41.0631 477.861 41.3319C477.715 41.6008 477.641 41.918 477.641 42.2836H476.149C476.149 41.6615 476.292 41.1173 476.577 40.6509C476.863 40.1845 477.255 39.8224 477.753 39.5645C478.252 39.3067 478.82 39.1777 479.459 39.1777C480.103 39.1777 480.67 39.3048 481.161 39.559C481.651 39.8131 482.035 40.1583 482.312 40.5945C482.59 41.0307 482.728 41.5244 482.728 42.0756C482.728 42.4489 482.659 42.8131 482.522 43.1683C482.384 43.5235 482.142 43.9246 481.793 44.3715C481.445 44.8185 480.954 45.3614 480.321 46.0003L478.321 48.0881V48.1677H482.888V49.5H476.161Z" fill="#0B1A2B"/>
<rect x="507.99" y="24.5" width="39" height="39" rx="5.5" stroke="black" stroke-opacity="0.08"/>
<path d="M527.498 49.6367C526.808 49.6367 526.196 49.5185 525.661 49.282C525.127 49.0455 524.704 48.7171 524.392 48.2967C524.08 47.8764 523.914 47.3887 523.896 46.8337H525.471C525.494 47.1343 525.595 47.3946 525.775 47.6145C525.955 47.8345 526.194 48.0036 526.492 48.122C526.789 48.2403 527.12 48.2995 527.486 48.2995C527.883 48.2995 528.234 48.2306 528.54 48.0927C528.846 47.9548 529.087 47.7613 529.263 47.5121C529.44 47.2629 529.528 46.9756 529.528 46.6501C529.528 46.3097 529.441 46.0104 529.267 45.7523C529.093 45.4941 528.842 45.2917 528.513 45.1449C528.185 44.9981 527.786 44.9247 527.317 44.9247H526.452V43.6553H527.317C527.692 43.6553 528.022 43.5882 528.308 43.4541C528.595 43.32 528.817 43.1323 528.977 42.8909C529.137 42.6496 529.216 42.3667 529.216 42.042C529.216 41.7294 529.147 41.4567 529.007 41.2241C528.868 40.9915 528.67 40.8104 528.414 40.6809C528.158 40.5513 527.858 40.4865 527.514 40.4865C527.184 40.4865 526.877 40.5459 526.593 40.6647C526.308 40.7834 526.077 40.9523 525.898 41.1712C525.719 41.39 525.624 41.6548 525.613 41.9653H524.109C524.124 41.4157 524.286 40.9315 524.594 40.5128C524.901 40.0941 525.312 39.7669 525.825 39.5312C526.337 39.2956 526.908 39.1777 527.536 39.1777C528.191 39.1777 528.758 39.3053 529.238 39.5605C529.718 39.8158 530.088 40.1536 530.348 40.574C530.609 40.9945 530.739 41.4545 530.739 41.9539C530.739 42.5265 530.579 43.0103 530.26 43.4051C529.94 43.8 529.513 44.0672 528.978 44.2065V44.2861C529.431 44.3528 529.817 44.4964 530.135 44.7168C530.453 44.9373 530.694 45.2169 530.86 45.5559C531.025 45.8948 531.108 46.2772 531.108 46.7031C531.108 47.2665 530.952 47.7692 530.641 48.2112C530.329 48.6532 529.902 49.0013 529.357 49.2555C528.813 49.5096 528.193 49.6367 527.498 49.6367Z" fill="#0B1A2B"/>
<path d="M565.795 50.1016C565.503 50.1016 565.255 49.9987 565.049 49.793C564.843 49.5872 564.74 49.3385 564.74 49.0469C564.74 48.7552 564.843 48.5065 565.049 48.3008C565.255 48.0951 565.503 47.9922 565.795 47.9922C566.087 47.9922 566.335 48.0951 566.541 48.3008C566.747 48.5065 566.85 48.7552 566.85 49.0469C566.85 49.3385 566.747 49.5872 566.541 49.793C566.335 49.9987 566.087 50.1016 565.795 50.1016ZM570.404 50.1016C570.113 50.1016 569.864 49.9987 569.658 49.793C569.452 49.5872 569.35 49.3385 569.35 49.0469C569.35 48.7552 569.452 48.5065 569.658 48.3008C569.864 48.0951 570.113 47.9922 570.404 47.9922C570.696 47.9922 570.945 48.0951 571.15 48.3008C571.356 48.5065 571.459 48.7552 571.459 49.0469C571.459 49.3385 571.356 49.5872 571.15 49.793C570.945 49.9987 570.696 50.1016 570.404 50.1016ZM575.014 50.1016C574.722 50.1016 574.473 49.9987 574.268 49.793C574.062 49.5872 573.959 49.3385 573.959 49.0469C573.959 48.7552 574.062 48.5065 574.268 48.3008C574.473 48.0951 574.722 47.9922 575.014 47.9922C575.305 47.9922 575.554 48.0951 575.76 48.3008C575.965 48.5065 576.068 48.7552 576.068 49.0469C576.068 49.3385 575.965 49.5872 575.76 49.793C575.554 49.9987 575.305 50.1016 575.014 50.1016Z" fill="#8A9198"/>
<rect x="593.82" y="24.5" width="39" height="39" rx="5.5" stroke="black" stroke-opacity="0.08"/>
<path d="M613.413 49.6367C612.959 49.6367 612.51 49.5564 612.066 49.3957C611.623 49.235 611.221 48.9687 610.862 48.5967C610.503 48.2247 610.216 47.7243 610.002 47.0955C609.788 46.4666 609.681 45.684 609.681 44.7477C609.681 43.863 609.77 43.0765 609.947 42.388C610.125 41.6996 610.383 41.1164 610.72 40.6385C611.058 40.1606 611.464 39.7976 611.939 39.5497C612.415 39.3017 612.95 39.1777 613.544 39.1777C614.147 39.1777 614.684 39.2972 615.157 39.5361C615.629 39.7751 616.014 40.1041 616.31 40.5232C616.607 40.9424 616.794 41.4231 616.871 41.9653H615.338C615.234 41.5503 615.031 41.2095 614.728 40.9428C614.425 40.6761 614.03 40.5427 613.544 40.5427C613.048 40.5427 612.624 40.6884 612.271 40.9798C611.918 41.2712 611.649 41.6902 611.463 42.2367C611.277 42.7833 611.184 43.4403 611.184 44.2076H611.261C611.435 43.9201 611.649 43.6732 611.905 43.4667C612.161 43.2602 612.45 43.1024 612.77 42.9932C613.091 42.8841 613.429 42.8295 613.786 42.8295C614.376 42.8295 614.911 42.9722 615.39 43.2577C615.869 43.5432 616.251 43.9379 616.535 44.442C616.818 44.946 616.96 45.5233 616.96 46.1738C616.96 46.8245 616.813 47.4111 616.519 47.9337C616.225 48.4563 615.812 48.8708 615.28 49.1771C614.747 49.4835 614.125 49.6367 613.413 49.6367ZM613.408 48.3241C613.794 48.3241 614.141 48.2287 614.448 48.038C614.755 47.8473 614.999 47.5912 615.178 47.2696C615.357 46.9481 615.446 46.5886 615.446 46.191C615.446 45.8009 615.36 45.4469 615.186 45.1292C615.013 44.8114 614.774 44.559 614.471 44.372C614.167 44.185 613.822 44.0915 613.436 44.0915C613.146 44.0915 612.876 44.1476 612.626 44.2598C612.377 44.3719 612.159 44.5266 611.971 44.7237C611.784 44.9209 611.638 45.1464 611.534 45.4004C611.43 45.6543 611.377 45.9216 611.377 46.2022C611.377 46.5811 611.465 46.9313 611.64 47.2528C611.816 47.5743 612.057 47.8333 612.365 48.0296C612.673 48.2259 613.02 48.3241 613.408 48.3241Z" fill="#0B1A2B"/>
<rect x="641.82" y="24.5" width="88.33" height="39" rx="5.5" stroke="black" stroke-opacity="0.08"/>
<path d="M659.451 49.5V39.3145H661.248L665.082 45.3763C665.209 45.5769 665.353 45.8168 665.513 46.0959C665.672 46.3749 665.841 46.6884 666.02 47.0363C666.198 47.3841 666.374 47.7632 666.548 48.1734H666.354C666.316 47.7856 666.287 47.4013 666.266 47.0206C666.245 46.6399 666.23 46.2838 666.221 45.9522C666.212 45.6207 666.208 45.3398 666.208 45.1097V39.3145H667.785V49.5H665.977L662.543 44.0772C662.358 43.7804 662.179 43.4822 662.004 43.1826C661.829 42.883 661.635 42.5366 661.424 42.1432C661.212 41.7499 660.952 41.2694 660.645 40.7017H660.893C660.918 41.2027 660.941 41.6714 660.963 42.108C660.984 42.5446 661.001 42.9302 661.014 43.2648C661.027 43.5994 661.033 43.8664 661.033 44.066V49.5H659.451ZM673.218 49.6591C672.466 49.6591 671.817 49.4965 671.272 49.1713C670.726 48.846 670.307 48.3894 670.013 47.8015C669.719 47.2137 669.572 46.5241 669.572 45.7329C669.572 44.9482 669.716 44.258 670.005 43.6622C670.294 43.0664 670.702 42.6007 671.23 42.2651C671.759 41.9295 672.378 41.7617 673.088 41.7617C673.525 41.7617 673.947 41.833 674.354 41.9757C674.761 42.1183 675.127 42.3426 675.45 42.6485C675.773 42.9544 676.029 43.3507 676.218 43.8375C676.407 44.3243 676.502 44.9123 676.502 45.6015V46.1351H670.408V45.0123H675.727L675.025 45.3829C675.025 44.916 674.952 44.5037 674.807 44.1461C674.661 43.7884 674.446 43.5089 674.159 43.3076C673.873 43.1063 673.518 43.0056 673.093 43.0056C672.668 43.0056 672.305 43.1081 672.004 43.3132C671.703 43.5183 671.473 43.7884 671.314 44.1237C671.156 44.4589 671.077 44.8244 671.077 45.2203V45.9833C671.077 46.5074 671.167 46.951 671.347 47.314C671.527 47.677 671.779 47.9513 672.104 48.1369C672.429 48.3225 672.805 48.4153 673.233 48.4153C673.514 48.4153 673.768 48.3751 673.998 48.2946C674.227 48.2142 674.424 48.0932 674.59 47.9317C674.755 47.7702 674.882 47.5702 674.97 47.3318L676.381 47.6648C676.261 48.0608 676.056 48.4085 675.766 48.7079C675.476 49.0074 675.116 49.2408 674.685 49.4081C674.254 49.5755 673.765 49.6591 673.218 49.6591ZM677.228 49.5L680.223 44.9962L680.217 46.1561L677.382 41.8574H679.077L679.941 43.2485C680.178 43.6346 680.386 44.003 680.565 44.3538C680.743 44.7045 680.926 45.0434 681.114 45.3705H680.426C680.619 45.0442 680.799 44.7055 680.964 44.3544C681.13 44.0032 681.334 43.6346 681.577 43.2485L682.464 41.8574H684.127L681.265 46.1997V45.0691L684.245 49.5H682.559L681.529 47.8765C681.294 47.497 681.087 47.1358 680.91 46.7928C680.733 46.4497 680.551 46.1203 680.365 45.8044H681.059C680.875 46.1203 680.702 46.4497 680.54 46.7928C680.377 47.1358 680.176 47.497 679.939 47.8765L678.901 49.5H677.228ZM689.164 41.8574V43.08H685.018V41.8574H689.164ZM686.134 40.0391H687.638V47.4327C687.638 47.7417 687.702 47.9678 687.831 48.1111C687.96 48.2544 688.173 48.326 688.472 48.326C688.55 48.326 688.653 48.3167 688.78 48.298C688.907 48.2794 689.017 48.261 689.108 48.2427L689.374 49.4479C689.213 49.5009 689.041 49.5394 688.858 49.5634C688.676 49.5874 688.497 49.5994 688.322 49.5994C687.626 49.5994 687.087 49.4212 686.706 49.0648C686.325 48.7083 686.134 48.2056 686.134 47.5567V40.0391Z" fill="#0B1A2B"/>
<path d="M703.65 48L707.65 44L703.65 40" stroke="#0B1A2B" stroke-width="1.33333" stroke-linecap="round" stroke-linejoin="round"/>
</svg>
