<svg width="15" height="13" viewBox="0 0 15 13" fill="none" xmlns="http://www.w3.org/2000/svg">
  <path 
    d="M0.666504 4.34434C0.666532 2.82564 1.6028 1.46413 3.02091 0.920607C4.43902 0.377079 6.04543 0.764036 7.0605 1.89367C7.1311 1.96916 7.22982 2.012 7.33317 2.012C7.43652 2.012 7.53524 1.96916 7.60584 1.89367C8.61792 0.756477 10.2282 0.3645 11.6498 0.90933C13.0713 1.45416 14.0071 2.82202 13.9998 4.34434C13.9998 5.87101 12.9998 7.01101 11.9998 8.01101L8.3385 11.553C8.08722 11.8416 7.72403 12.0083 7.34136 12.0108C6.95869 12.0132 6.59343 11.8511 6.3385 11.5657L2.6665 8.01101C1.6665 7.01101 0.666504 5.87767 0.666504 4.34434" 
    stroke="currentColor" 
    stroke-width="1.33333" 
    stroke-linecap="round" 
    stroke-linejoin="round"
  />
</svg>