<svg width="90" height="40" viewBox="0 0 90 40" fill="none" xmlns="http://www.w3.org/2000/svg">
<rect x="0.5" y="0.5" width="88.33" height="39" rx="5.5" stroke="black" stroke-opacity="0.08"/>
<path d="M18.131 25.5V15.3145H19.928L23.7617 21.3763C23.8892 21.5769 24.0328 21.8168 24.1927 22.0959C24.3526 22.3749 24.5217 22.6884 24.7 23.0363C24.8784 23.3841 25.0546 23.7632 25.2286 24.1734H25.0342C24.9964 23.7856 24.967 23.4013 24.9459 23.0206C24.9248 22.6399 24.91 22.2838 24.9013 21.9522C24.8926 21.6207 24.8883 21.3398 24.8883 21.1097V15.3145H26.4652V25.5H24.657L21.2227 20.0772C21.0385 19.7804 20.8589 19.4822 20.6839 19.1826C20.5089 18.883 20.3155 18.5366 20.1038 18.1432C19.892 17.7499 19.6325 17.2694 19.3253 16.7017H19.5732C19.5985 17.2027 19.6216 17.6714 19.6427 18.108C19.6638 18.5446 19.6809 18.9302 19.6939 19.2648C19.707 19.5994 19.7135 19.8664 19.7135 20.066V25.5H18.131ZM31.898 25.6591C31.1458 25.6591 30.497 25.4965 29.9517 25.1713C29.4064 24.846 28.9867 24.3894 28.6928 23.8015C28.3989 23.2137 28.252 22.5241 28.252 21.7329C28.252 20.9482 28.3963 20.258 28.6851 19.6622C28.9738 19.0664 29.3823 18.6007 29.9106 18.2651C30.4389 17.9295 31.0581 17.7617 31.768 17.7617C32.2048 17.7617 32.6268 17.833 33.0341 17.9757C33.4415 18.1183 33.8068 18.3426 34.1301 18.6485C34.4535 18.9544 34.7096 19.3507 34.8986 19.8375C35.0875 20.3243 35.182 20.9123 35.182 21.6015V22.1351H29.0884V21.0123H34.4069L33.7048 21.3829C33.7048 20.916 33.6321 20.5037 33.4868 20.1461C33.3414 19.7884 33.1257 19.5089 32.8396 19.3076C32.5535 19.1063 32.1979 19.0056 31.7729 19.0056C31.3479 19.0056 30.9849 19.1081 30.6838 19.3132C30.3827 19.5183 30.153 19.7884 29.9946 20.1237C29.8362 20.4589 29.757 20.8244 29.757 21.2203V21.9833C29.757 22.5074 29.847 22.951 30.0269 23.314C30.2069 23.677 30.4593 23.9513 30.7842 24.1369C31.1091 24.3225 31.4855 24.4153 31.9135 24.4153C32.1937 24.4153 32.4485 24.3751 32.6778 24.2946C32.9071 24.2142 33.1044 24.0932 33.2698 23.9317C33.4353 23.7702 33.5622 23.5702 33.6505 23.3318L35.0614 23.6648C34.9413 24.0608 34.7362 24.4085 34.4463 24.7079C34.1564 25.0074 33.7959 25.2408 33.365 25.4081C32.9341 25.5755 32.4451 25.6591 31.898 25.6591ZM35.9082 25.5L38.9032 20.9962L38.8976 22.1561L36.0618 17.8574H37.7569L38.621 19.2485C38.8581 19.6346 39.066 20.003 39.2448 20.3538C39.4236 20.7045 39.6066 21.0434 39.7939 21.3705H39.1058C39.2993 21.0442 39.4788 20.7055 39.6443 20.3544C39.8098 20.0032 40.0141 19.6346 40.2574 19.2485L41.1444 17.8574H42.8073L39.9455 22.1997V21.0691L42.9255 25.5H41.2396L40.2095 23.8765C39.9738 23.497 39.7673 23.1358 39.5902 22.7928C39.4131 22.4497 39.2316 22.1203 39.0455 21.8044H39.7392C39.5557 22.1203 39.3825 22.4497 39.2197 22.7928C39.0569 23.1358 38.8566 23.497 38.6187 23.8765L37.5811 25.5H35.9082ZM47.8438 17.8574V19.08H43.6982V17.8574H47.8438ZM44.8147 16.0391H46.3183V23.4327C46.3183 23.7417 46.3826 23.9678 46.5114 24.1111C46.6401 24.2544 46.8536 24.326 47.1517 24.326C47.23 24.326 47.3328 24.3167 47.4601 24.298C47.5875 24.2794 47.6968 24.261 47.788 24.2427L48.0545 25.4479C47.8932 25.5009 47.7213 25.5394 47.5386 25.5634C47.3559 25.5874 47.177 25.5994 47.0019 25.5994C46.3058 25.5994 45.7672 25.4212 45.3862 25.0648C45.0052 24.7083 44.8147 24.2056 44.8147 23.5567V16.0391Z" fill="#0B1A2B"/>
<path d="M62.3301 24L66.3301 20L62.3301 16" stroke="#0B1A2B" stroke-width="1.33333" stroke-linecap="round" stroke-linejoin="round"/>
</svg>
