<svg width="89" height="40" viewBox="0 0 89 40" fill="none" xmlns="http://www.w3.org/2000/svg">
<rect x="0.5" y="0.5" width="87.14" height="39" rx="5.5" stroke="black" stroke-opacity="0.08"/>
<path d="M27 24L23 20L27 16" stroke="#0B1A2B" stroke-width="1.33333" stroke-linecap="round" stroke-linejoin="round"/>
<path d="M42.1307 25.5V15.3145H45.7795C46.5659 15.3145 47.2203 15.46 47.7429 15.751C48.2654 16.042 48.657 16.4363 48.9177 16.9337C49.1784 17.4312 49.3087 17.9937 49.3087 18.6211C49.3087 19.2494 49.1778 19.8131 48.9158 20.3123C48.6539 20.8114 48.2612 21.2066 47.7377 21.4979C47.2141 21.7892 46.5575 21.9348 45.7678 21.9348H43.2718V20.6123H45.6165C46.1165 20.6123 46.522 20.5262 46.8329 20.3539C47.1438 20.1816 47.371 19.9449 47.5146 19.6437C47.6582 19.3425 47.73 19.0017 47.73 18.6211C47.73 18.239 47.6582 17.8993 47.5146 17.6023C47.371 17.3053 47.1428 17.0721 46.8301 16.903C46.5173 16.7338 46.109 16.6492 45.6053 16.6492H43.6928V25.5H42.1307ZM50.9972 25.5V17.8574H52.4524V19.0849H52.5344C52.6749 18.6696 52.9209 18.3434 53.2726 18.1062C53.6242 17.8691 54.0234 17.7505 54.4701 17.7505C54.5662 17.7505 54.6763 17.754 54.8004 17.761C54.9244 17.7681 55.0262 17.7767 55.1057 17.787V19.2224C55.0512 19.2059 54.9463 19.1883 54.7911 19.1697C54.6358 19.1511 54.4782 19.1417 54.3182 19.1417C53.9709 19.1417 53.6593 19.2152 53.3834 19.3621C53.1075 19.5091 52.8915 19.7113 52.7352 19.9689C52.5789 20.2265 52.5008 20.5235 52.5008 20.86V25.5H50.9972ZM59.4387 25.6591C58.6865 25.6591 58.0377 25.4965 57.4924 25.1713C56.9471 24.846 56.5275 24.3894 56.2336 23.8015C55.9397 23.2137 55.7927 22.5241 55.7927 21.7329C55.7927 20.9482 55.9371 20.258 56.2258 19.6622C56.5145 19.0664 56.923 18.6007 57.4513 18.2651C57.9797 17.9295 58.5988 17.7617 59.3087 17.7617C59.7455 17.7617 60.1675 17.833 60.5749 17.9757C60.9822 18.1183 61.3475 18.3426 61.6709 18.6485C61.9942 18.9544 62.2504 19.3507 62.4393 19.8375C62.6283 20.3243 62.7227 20.9123 62.7227 21.6015V22.1351H56.6292V21.0123H61.9477L61.2455 21.3829C61.2455 20.916 61.1728 20.5037 61.0275 20.1461C60.8822 19.7884 60.6664 19.5089 60.3803 19.3076C60.0942 19.1063 59.7387 19.0056 59.3137 19.0056C58.8886 19.0056 58.5256 19.1081 58.2245 19.3132C57.9235 19.5183 57.6938 19.7884 57.5353 20.1237C57.3769 20.4589 57.2977 20.8244 57.2977 21.2203V21.9833C57.2977 22.5074 57.3877 22.951 57.5677 23.314C57.7476 23.677 58.0001 23.9513 58.325 24.1369C58.6499 24.3225 59.0263 24.4153 59.4542 24.4153C59.7345 24.4153 59.9892 24.3751 60.2185 24.2946C60.4478 24.2142 60.6452 24.0932 60.8106 23.9317C60.976 23.7702 61.1029 23.5702 61.1912 23.3318L62.6021 23.6648C62.482 24.0608 62.277 24.4085 61.987 24.7079C61.6971 25.0074 61.3367 25.2408 60.9057 25.4081C60.4748 25.5755 59.9858 25.6591 59.4387 25.6591ZM66.2912 25.5L63.408 17.8574H65.0315L66.544 22.2014C66.7123 22.679 66.856 23.1579 66.9751 23.6382C67.0942 24.1184 67.2182 24.5945 67.3471 25.0665H66.8996C67.0277 24.5945 67.1511 24.1186 67.2698 23.6388C67.3885 23.1589 67.5297 22.6798 67.6934 22.2014L69.201 17.8574H70.8172L67.9314 25.5H66.2912Z" fill="#0B1A2B"/>
</svg>
