<svg width="170" height="18" viewBox="0 0 170 18" fill="none" xmlns="http://www.w3.org/2000/svg">
<path d="M4.49121 14.1777C3.75749 14.1777 3.12061 14.0592 2.58057 13.8223C2.04053 13.5853 1.61784 13.2537 1.3125 12.8276C1.00716 12.4015 0.833984 11.9036 0.792969 11.334H2.12598C2.16243 11.7168 2.29232 12.0324 2.51562 12.2808C2.73893 12.5291 3.0249 12.7137 3.37354 12.8345C3.72217 12.9552 4.09473 13.0156 4.49121 13.0156C4.9515 13.0156 5.36507 12.9404 5.73193 12.79C6.0988 12.6396 6.38932 12.4277 6.60352 12.1543C6.81771 11.8809 6.9248 11.5641 6.9248 11.2041C6.9248 10.876 6.83252 10.6094 6.64795 10.4043C6.46338 10.1992 6.21842 10.0306 5.91309 9.89844C5.60775 9.76628 5.27279 9.65007 4.9082 9.5498L3.67773 9.20117C2.85742 8.96875 2.2194 8.63607 1.76367 8.20312C1.30794 7.77018 1.08008 7.21647 1.08008 6.54199C1.08008 5.96777 1.23503 5.46533 1.54492 5.03467C1.85482 4.604 2.27409 4.27018 2.80273 4.0332C3.33138 3.79622 3.92383 3.67773 4.58008 3.67773C5.25 3.67773 5.84245 3.79622 6.35742 4.0332C6.8724 4.27018 7.27913 4.59261 7.57764 5.00049C7.87614 5.40837 8.03451 5.86979 8.05273 6.38477H6.78125C6.72201 5.88802 6.48503 5.50407 6.07031 5.23291C5.6556 4.96175 5.14518 4.82617 4.53906 4.82617C4.10156 4.82617 3.71761 4.89795 3.38721 5.0415C3.0568 5.18506 2.80046 5.38102 2.61816 5.62939C2.43587 5.87777 2.34473 6.16146 2.34473 6.48047C2.34473 6.83594 2.45524 7.12191 2.67627 7.33838C2.8973 7.55485 3.15934 7.72347 3.4624 7.84424C3.76546 7.96501 4.04004 8.05957 4.28613 8.12793L5.30469 8.4082C5.57812 8.48112 5.88005 8.58138 6.21045 8.70898C6.54085 8.83659 6.85645 9.00635 7.15723 9.21826C7.45801 9.43018 7.70524 9.69906 7.89893 10.0249C8.09261 10.3507 8.18945 10.7507 8.18945 11.2246C8.18945 11.7806 8.04476 12.2819 7.75537 12.7285C7.46598 13.1751 7.04557 13.5283 6.49414 13.7881C5.94271 14.0479 5.27507 14.1777 4.49121 14.1777ZM11.293 9.41992V14H10.0625V3.81445H11.293V8.20996H11.0811C11.3135 7.50358 11.645 7.00228 12.0757 6.70605C12.5063 6.40983 13.0111 6.26172 13.5898 6.26172C14.1048 6.26172 14.5571 6.36768 14.9468 6.57959C15.3364 6.7915 15.6395 7.11051 15.856 7.53662C16.0724 7.96273 16.1807 8.49935 16.1807 9.14648V14H14.9434V9.24902C14.9434 8.66113 14.7896 8.20085 14.4819 7.86816C14.1743 7.53548 13.7539 7.36914 13.2207 7.36914C12.8561 7.36914 12.528 7.44889 12.2363 7.6084C11.9447 7.7679 11.7145 8.00033 11.5459 8.30566C11.3773 8.611 11.293 8.98242 11.293 9.41992ZM21.4512 14.1641C20.7585 14.1641 20.1512 14 19.6294 13.6719C19.1076 13.3438 18.7008 12.8835 18.4092 12.291C18.1175 11.6986 17.9717 11.0104 17.9717 10.2266C17.9717 9.42904 18.1175 8.73291 18.4092 8.13818C18.7008 7.54346 19.1076 7.08203 19.6294 6.75391C20.1512 6.42578 20.7585 6.26172 21.4512 6.26172C22.1484 6.26172 22.7591 6.42578 23.2832 6.75391C23.8073 7.08203 24.2152 7.54346 24.5068 8.13818C24.7985 8.73291 24.9443 9.42904 24.9443 10.2266C24.9443 11.0104 24.7985 11.6986 24.5068 12.291C24.2152 12.8835 23.8073 13.3438 23.2832 13.6719C22.7591 14 22.1484 14.1641 21.4512 14.1641ZM21.4512 13.0635C21.9661 13.0635 22.39 12.9313 22.7227 12.667C23.0553 12.4027 23.3014 12.0552 23.4609 11.6245C23.6204 11.1938 23.7002 10.7279 23.7002 10.2266C23.7002 9.7207 23.6204 9.25016 23.4609 8.81494C23.3014 8.37972 23.0553 8.02881 22.7227 7.76221C22.39 7.49561 21.9661 7.3623 21.4512 7.3623C20.9408 7.3623 20.5215 7.49561 20.1934 7.76221C19.8652 8.02881 19.6214 8.37858 19.4619 8.81152C19.3024 9.24447 19.2227 9.71615 19.2227 10.2266C19.2227 10.7279 19.3024 11.1938 19.4619 11.6245C19.6214 12.0552 19.8652 12.4027 20.1934 12.667C20.5215 12.9313 20.9408 13.0635 21.4512 13.0635ZM28.1982 14L25.8809 6.35742H27.1865L28.1162 9.69336C28.2438 10.1491 28.3805 10.6652 28.5264 11.2417C28.6722 11.8182 28.8158 12.471 28.957 13.2002H28.7451C28.8818 12.5029 29.0208 11.8649 29.1621 11.2861C29.3034 10.7074 29.4401 10.1764 29.5723 9.69336L30.4883 6.35742H31.8008L32.7031 9.69336C32.8307 10.1628 32.964 10.6857 33.103 11.2622C33.242 11.8387 33.3799 12.4847 33.5166 13.2002H33.2979C33.4437 12.4938 33.5884 11.8524 33.7319 11.2759C33.8755 10.6994 34.0133 10.1719 34.1455 9.69336L35.0752 6.35742H36.3809L34.0635 14H32.8398L31.8486 10.541C31.7484 10.1901 31.6504 9.83236 31.5547 9.46777C31.459 9.10319 31.3656 8.72949 31.2744 8.34668C31.1833 7.96387 31.0898 7.57422 30.9941 7.17773H31.2676C31.1764 7.56966 31.0841 7.95817 30.9907 8.34326C30.8973 8.72835 30.8027 9.10547 30.707 9.47461C30.6113 9.84375 30.5133 10.1992 30.4131 10.541L29.4219 14H28.1982ZM37.9395 14V6.35742H39.1699V14H37.9395ZM38.5615 5.10645C38.3291 5.10645 38.1286 5.02669 37.96 4.86719C37.7913 4.70768 37.707 4.51628 37.707 4.29297C37.707 4.0651 37.7913 3.87256 37.96 3.71533C38.1286 3.55811 38.3291 3.47949 38.5615 3.47949C38.7985 3.47949 39.0013 3.55811 39.1699 3.71533C39.3385 3.87256 39.4229 4.0651 39.4229 4.29297C39.4229 4.51628 39.3385 4.70768 39.1699 4.86719C39.0013 5.02669 38.7985 5.10645 38.5615 5.10645ZM42.5605 9.41992V14H41.3301V6.35742H42.5127L42.5195 8.20996H42.3486C42.5811 7.50358 42.9126 7.00228 43.3433 6.70605C43.7739 6.40983 44.2786 6.26172 44.8574 6.26172C45.3724 6.26172 45.8236 6.36768 46.2109 6.57959C46.5983 6.7915 46.9002 7.11051 47.1167 7.53662C47.3332 7.96273 47.4414 8.49935 47.4414 9.14648V14H46.2109V9.24902C46.2109 8.66113 46.0571 8.20085 45.7495 7.86816C45.4419 7.53548 45.0215 7.36914 44.4883 7.36914C44.1237 7.36914 43.7956 7.44889 43.5039 7.6084C43.2122 7.7679 42.9821 8.00033 42.8135 8.30566C42.6449 8.611 42.5605 8.98242 42.5605 9.41992ZM52.6982 17.0215C52.1331 17.0215 51.6444 16.9497 51.2319 16.8062C50.8195 16.6626 50.4766 16.4723 50.2031 16.2354C49.9297 15.9984 49.7132 15.7409 49.5537 15.4629L50.5518 14.8203C50.6611 14.9661 50.7967 15.1279 50.9585 15.3057C51.1203 15.4834 51.339 15.6349 51.6147 15.7603C51.8905 15.8856 52.2516 15.9482 52.6982 15.9482C53.3089 15.9482 53.8114 15.8024 54.2056 15.5107C54.5998 15.2191 54.7969 14.7588 54.7969 14.1299V12.5986H54.6807C54.5941 12.7445 54.4722 12.9176 54.3149 13.1182C54.1577 13.3187 53.9321 13.4953 53.6382 13.6479C53.3442 13.8006 52.9512 13.877 52.459 13.877C51.8483 13.877 51.2992 13.7323 50.8115 13.4429C50.3239 13.1535 49.9388 12.7308 49.6562 12.1748C49.3737 11.6188 49.2324 10.9421 49.2324 10.1445C49.2324 9.35612 49.3714 8.67139 49.6494 8.09033C49.9274 7.50928 50.3114 7.05924 50.8013 6.74023C51.2912 6.42122 51.8529 6.26172 52.4863 6.26172C52.9785 6.26172 53.3716 6.34261 53.6655 6.50439C53.9595 6.66618 54.1862 6.85189 54.3457 7.06152C54.5052 7.27116 54.6283 7.44434 54.7148 7.58105H54.8311V6.35742H56.0273V14.1982C56.0273 14.8545 55.8792 15.3911 55.583 15.8081C55.2868 16.2251 54.8869 16.5316 54.3833 16.7275C53.8797 16.9235 53.318 17.0215 52.6982 17.0215ZM52.6641 12.7832C53.1289 12.7832 53.5208 12.6772 53.8398 12.4653C54.1589 12.2534 54.4004 11.9481 54.5645 11.5493C54.7285 11.1506 54.8105 10.6732 54.8105 10.1172C54.8105 9.57487 54.7297 9.09749 54.5679 8.68506C54.4061 8.27262 54.1657 7.94906 53.8467 7.71436C53.5277 7.47965 53.1335 7.3623 52.6641 7.3623C52.181 7.3623 51.7777 7.48649 51.4541 7.73486C51.1305 7.98324 50.8879 8.31478 50.7261 8.72949C50.5643 9.14421 50.4834 9.60677 50.4834 10.1172C50.4834 10.6413 50.5654 11.1038 50.7295 11.5049C50.8936 11.9059 51.1374 12.2192 51.4609 12.4448C51.7845 12.6704 52.1855 12.7832 52.6641 12.7832ZM65.5088 3.81445V14H64.2305V5.01758H64.1621L61.7012 6.84277V5.44824L63.916 3.81445H65.5088ZM72.1943 8.35352V9.48828H67.7236V8.35352H72.1943ZM77.3008 14.1367C76.722 14.1367 76.207 14.0228 75.7559 13.7949C75.3047 13.5671 74.9355 13.248 74.6484 12.8379C74.3613 12.4277 74.1768 11.9515 74.0947 11.4092H75.3799C75.4847 11.8604 75.6966 12.2363 76.0156 12.5371C76.3346 12.8379 76.763 12.9883 77.3008 12.9883C77.8203 12.9883 78.2669 12.8356 78.6406 12.5303C79.0143 12.2249 79.3026 11.7829 79.5054 11.2041C79.7082 10.6253 79.8096 9.92578 79.8096 9.10547H79.7275C79.5452 9.38346 79.3265 9.62386 79.0713 9.82666C78.8161 10.0295 78.5324 10.1867 78.2202 10.2983C77.908 10.41 77.5742 10.4658 77.2188 10.4658C76.6354 10.4658 76.0999 10.3211 75.6123 10.0317C75.1247 9.74235 74.7362 9.34359 74.4468 8.83545C74.1574 8.32731 74.0127 7.7474 74.0127 7.0957C74.0127 6.46224 74.1562 5.8846 74.4434 5.36279C74.7305 4.84098 75.1326 4.42627 75.6499 4.11865C76.1672 3.81104 76.7744 3.66406 77.4717 3.67773C77.891 3.68229 78.3102 3.76318 78.7295 3.92041C79.1488 4.07764 79.5316 4.33626 79.8779 4.69629C80.2243 5.05632 80.5023 5.54622 80.7119 6.16602C80.9215 6.78581 81.0264 7.5651 81.0264 8.50391C81.0264 9.40625 80.9409 10.2061 80.77 10.9033C80.5991 11.6006 80.3519 12.1896 80.0283 12.6704C79.7048 13.1512 79.3128 13.5158 78.8525 13.7642C78.3923 14.0125 77.875 14.1367 77.3008 14.1367ZM77.4102 9.33105C77.7201 9.33105 78.0094 9.26953 78.2783 9.14648C78.5472 9.02344 78.7819 8.85596 78.9824 8.64404C79.1829 8.43213 79.3402 8.19059 79.4541 7.91943C79.568 7.64827 79.625 7.3623 79.625 7.06152C79.625 6.6696 79.5304 6.30387 79.3413 5.96436C79.1522 5.62484 78.8947 5.34912 78.5688 5.13721C78.243 4.92529 77.8704 4.81934 77.4512 4.81934C77.041 4.81934 76.673 4.92074 76.3472 5.12354C76.0213 5.32633 75.7627 5.59977 75.5713 5.94385C75.3799 6.28792 75.2842 6.6696 75.2842 7.08887C75.2842 7.50358 75.3765 7.8807 75.561 8.22021C75.7456 8.55973 75.9974 8.82975 76.3164 9.03027C76.6354 9.23079 77 9.33105 77.4102 9.33105ZM89.9883 14.1641C89.2956 14.1641 88.6883 14 88.1665 13.6719C87.6447 13.3438 87.238 12.8835 86.9463 12.291C86.6546 11.6986 86.5088 11.0104 86.5088 10.2266C86.5088 9.42904 86.6546 8.73291 86.9463 8.13818C87.238 7.54346 87.6447 7.08203 88.1665 6.75391C88.6883 6.42578 89.2956 6.26172 89.9883 6.26172C90.6855 6.26172 91.2962 6.42578 91.8203 6.75391C92.3444 7.08203 92.7523 7.54346 93.0439 8.13818C93.3356 8.73291 93.4814 9.42904 93.4814 10.2266C93.4814 11.0104 93.3356 11.6986 93.0439 12.291C92.7523 12.8835 92.3444 13.3438 91.8203 13.6719C91.2962 14 90.6855 14.1641 89.9883 14.1641ZM89.9883 13.0635C90.5033 13.0635 90.9271 12.9313 91.2598 12.667C91.5924 12.4027 91.8385 12.0552 91.998 11.6245C92.1576 11.1938 92.2373 10.7279 92.2373 10.2266C92.2373 9.7207 92.1576 9.25016 91.998 8.81494C91.8385 8.37972 91.5924 8.02881 91.2598 7.76221C90.9271 7.49561 90.5033 7.3623 89.9883 7.3623C89.4779 7.3623 89.0586 7.49561 88.7305 7.76221C88.4023 8.02881 88.1585 8.37858 87.999 8.81152C87.8395 9.24447 87.7598 9.71615 87.7598 10.2266C87.7598 10.7279 87.8395 11.1938 87.999 11.6245C88.1585 12.0552 88.4023 12.4027 88.7305 12.667C89.0586 12.9313 89.4779 13.0635 89.9883 13.0635ZM98.8271 6.35742V7.41016H94.3291V6.35742H98.8271ZM95.833 14V5.33887C95.833 4.89681 95.9367 4.52767 96.144 4.23145C96.3514 3.93522 96.6214 3.71191 96.9541 3.56152C97.2868 3.41113 97.6377 3.33594 98.0068 3.33594C98.2985 3.33594 98.54 3.35986 98.7314 3.40771C98.9229 3.45557 99.0641 3.5 99.1553 3.54102L98.8135 4.59375C98.7497 4.57096 98.6665 4.5459 98.564 4.51855C98.4614 4.49121 98.3236 4.47754 98.1504 4.47754C97.7721 4.47754 97.4964 4.57438 97.3232 4.76807C97.1501 4.96175 97.0635 5.24316 97.0635 5.6123V14H95.833ZM104.132 11.9287V10.8691L108.589 3.81445H109.375V5.44141H108.849L105.52 10.7051V10.7871H111.549V11.9287H104.132ZM108.924 14V11.6143L108.931 11.1152V3.81445H110.168V14H108.924ZM116.683 14.1367C115.994 14.1367 115.387 14.0148 114.861 13.771C114.334 13.5272 113.924 13.1911 113.63 12.7627C113.336 12.3343 113.189 11.8444 113.189 11.293C113.189 10.8646 113.276 10.467 113.449 10.1001C113.622 9.73324 113.859 9.42676 114.16 9.18066C114.461 8.93457 114.8 8.77734 115.179 8.70898V8.6543C114.682 8.52669 114.288 8.25098 113.996 7.82715C113.704 7.40332 113.559 6.92253 113.559 6.38477C113.559 5.86523 113.693 5.40153 113.962 4.99365C114.231 4.58577 114.6 4.26449 115.069 4.02979C115.539 3.79508 116.076 3.67773 116.683 3.67773C117.28 3.67773 117.813 3.79508 118.282 4.02979C118.752 4.26449 119.122 4.58577 119.393 4.99365C119.664 5.40153 119.8 5.86523 119.8 6.38477C119.8 6.92253 119.653 7.40332 119.359 7.82715C119.065 8.25098 118.676 8.52669 118.193 8.6543V8.70898C118.562 8.77734 118.897 8.93457 119.198 9.18066C119.499 9.42676 119.738 9.73324 119.916 10.1001C120.094 10.467 120.183 10.8646 120.183 11.293C120.183 11.8444 120.033 12.3343 119.735 12.7627C119.436 13.1911 119.024 13.5272 118.498 13.771C117.971 14.0148 117.366 14.1367 116.683 14.1367ZM116.683 13.0088C117.134 13.0088 117.523 12.9347 117.852 12.7866C118.18 12.6385 118.434 12.4312 118.614 12.1646C118.794 11.8979 118.884 11.5846 118.884 11.2246C118.884 10.8464 118.788 10.5125 118.597 10.2231C118.405 9.93376 118.143 9.70589 117.811 9.53955C117.478 9.37321 117.102 9.29004 116.683 9.29004C116.254 9.29004 115.874 9.37321 115.541 9.53955C115.208 9.70589 114.946 9.93376 114.755 10.2231C114.563 10.5125 114.468 10.8464 114.468 11.2246C114.468 11.5846 114.557 11.8979 114.734 12.1646C114.912 12.4312 115.167 12.6385 115.5 12.7866C115.833 12.9347 116.227 13.0088 116.683 13.0088ZM116.683 8.20312C117.043 8.20312 117.362 8.13135 117.64 7.98779C117.918 7.84424 118.138 7.64258 118.299 7.38281C118.461 7.12305 118.542 6.82227 118.542 6.48047C118.542 6.13867 118.465 5.84245 118.31 5.5918C118.155 5.34115 117.937 5.14632 117.657 5.00732C117.376 4.86833 117.052 4.79883 116.683 4.79883C116.309 4.79883 115.982 4.86833 115.702 5.00732C115.421 5.14632 115.204 5.34115 115.049 5.5918C114.894 5.84245 114.816 6.13867 114.816 6.48047C114.816 6.82227 114.895 7.12305 115.052 7.38281C115.209 7.64258 115.429 7.84424 115.712 7.98779C115.994 8.13135 116.318 8.20312 116.683 8.20312ZM126.034 14V6.35742H127.224V7.5332H127.306C127.447 7.14583 127.699 6.8348 128.061 6.6001C128.423 6.3654 128.832 6.24805 129.288 6.24805C129.379 6.24805 129.487 6.25033 129.613 6.25488C129.738 6.25944 129.837 6.264 129.91 6.26855V7.50586C129.874 7.49674 129.783 7.48307 129.637 7.46484C129.491 7.44661 129.336 7.4375 129.172 7.4375C128.807 7.4375 128.48 7.51383 128.191 7.6665C127.902 7.81917 127.675 8.02881 127.511 8.29541C127.347 8.56201 127.265 8.86849 127.265 9.21484V14H126.034ZM134.285 14.1641C133.547 14.1641 132.91 14 132.375 13.6719C131.839 13.3438 131.427 12.8857 131.137 12.2979C130.848 11.71 130.703 11.0241 130.703 10.2402C130.703 9.45638 130.844 8.76595 131.127 8.16895C131.41 7.57194 131.809 7.10482 132.327 6.76758C132.844 6.43034 133.449 6.26172 134.142 6.26172C134.547 6.26172 134.947 6.32894 135.341 6.46338C135.736 6.59782 136.093 6.81429 136.415 7.11279C136.736 7.4113 136.992 7.80436 137.184 8.29199C137.375 8.77962 137.471 9.37663 137.471 10.083V10.5957H131.537V9.55664H136.808L136.233 9.93945C136.233 9.43815 136.155 8.99268 135.998 8.60303C135.84 8.21338 135.607 7.90804 135.297 7.68701C134.987 7.46598 134.602 7.35547 134.142 7.35547C133.681 7.35547 133.287 7.46826 132.959 7.69385C132.631 7.91943 132.38 8.21338 132.207 8.57568C132.034 8.93799 131.947 9.3265 131.947 9.74121V10.4316C131.947 10.9967 132.045 11.4764 132.241 11.8706C132.437 12.2648 132.712 12.5633 133.065 12.7661C133.418 12.9689 133.827 13.0703 134.292 13.0703C134.593 13.0703 134.866 13.027 135.112 12.9404C135.358 12.8538 135.57 12.7228 135.748 12.5474C135.926 12.3719 136.062 12.1543 136.158 11.8945L137.348 12.2227C137.229 12.6055 137.029 12.9427 136.746 13.2344C136.464 13.526 136.114 13.7539 135.697 13.918C135.28 14.082 134.809 14.1641 134.285 14.1641ZM141.832 14.1641C141.308 14.1641 140.842 14.0877 140.434 13.9351C140.026 13.7824 139.69 13.5557 139.426 13.2549C139.161 12.9541 138.984 12.585 138.893 12.1475L140.062 11.8672C140.171 12.2865 140.377 12.5941 140.68 12.79C140.983 12.986 141.363 13.084 141.818 13.084C142.352 13.084 142.777 12.9701 143.093 12.7422C143.41 12.5143 143.568 12.2432 143.568 11.9287C143.568 11.6644 143.476 11.4445 143.292 11.269C143.107 11.0936 142.826 10.9626 142.447 10.876L141.176 10.5752C140.483 10.4111 139.968 10.1571 139.631 9.81299C139.294 9.46891 139.125 9.02799 139.125 8.49023C139.125 8.05273 139.248 7.6665 139.494 7.33154C139.74 6.99658 140.076 6.73454 140.502 6.54541C140.929 6.35628 141.413 6.26172 141.955 6.26172C142.479 6.26172 142.925 6.34033 143.292 6.49756C143.658 6.65479 143.957 6.87126 144.187 7.14697C144.417 7.42269 144.589 7.74056 144.703 8.10059L143.589 8.3877C143.484 8.11426 143.31 7.86589 143.066 7.64258C142.822 7.41927 142.454 7.30762 141.962 7.30762C141.506 7.30762 141.127 7.41243 140.824 7.62207C140.521 7.83171 140.369 8.09603 140.369 8.41504C140.369 8.69759 140.472 8.92432 140.677 9.09521C140.882 9.26611 141.208 9.40397 141.654 9.50879L142.81 9.78223C143.502 9.94629 144.015 10.2004 144.348 10.5444C144.68 10.8885 144.847 11.3226 144.847 11.8467C144.847 12.2933 144.72 12.6909 144.467 13.0396C144.214 13.3882 143.861 13.6628 143.408 13.8633C142.954 14.0638 142.429 14.1641 141.832 14.1641ZM149.215 14.0957C148.7 14.0957 148.248 13.9897 147.858 13.7778C147.468 13.5659 147.165 13.2458 146.949 12.8174C146.732 12.389 146.624 11.8535 146.624 11.2109V6.35742H147.854V11.1084C147.854 11.6963 148.009 12.1566 148.319 12.4893C148.629 12.8219 149.051 12.9883 149.584 12.9883C149.949 12.9883 150.276 12.9085 150.565 12.749C150.854 12.5895 151.083 12.356 151.252 12.0483C151.421 11.7407 151.505 11.3704 151.505 10.9375V6.35742H152.742V14H151.553V12.1475H151.717C151.48 12.863 151.144 13.3665 150.708 13.6582C150.273 13.9499 149.775 14.0957 149.215 14.0957ZM156.133 3.81445V14H154.902V3.81445H156.133ZM161.506 6.35742V7.41016H157.555V6.35742H161.506ZM158.703 4.53906H159.934V12.0176C159.934 12.3594 160.003 12.6089 160.142 12.7661C160.281 12.9233 160.512 13.002 160.836 13.002C160.913 13.002 161.013 12.9928 161.133 12.9746C161.254 12.9564 161.365 12.9382 161.465 12.9199L161.718 13.959C161.59 14.0046 161.445 14.0387 161.284 14.0615C161.122 14.0843 160.961 14.0957 160.802 14.0957C160.141 14.0957 159.626 13.9214 159.257 13.5728C158.888 13.2241 158.703 12.7376 158.703 12.1133V4.53906ZM165.539 14.1641C165.015 14.1641 164.549 14.0877 164.141 13.9351C163.733 13.7824 163.397 13.5557 163.133 13.2549C162.868 12.9541 162.691 12.585 162.6 12.1475L163.769 11.8672C163.878 12.2865 164.084 12.5941 164.387 12.79C164.69 12.986 165.07 13.084 165.525 13.084C166.059 13.084 166.484 12.9701 166.8 12.7422C167.117 12.5143 167.275 12.2432 167.275 11.9287C167.275 11.6644 167.183 11.4445 166.999 11.269C166.814 11.0936 166.533 10.9626 166.154 10.876L164.883 10.5752C164.19 10.4111 163.675 10.1571 163.338 9.81299C163.001 9.46891 162.832 9.02799 162.832 8.49023C162.832 8.05273 162.955 7.6665 163.201 7.33154C163.447 6.99658 163.783 6.73454 164.209 6.54541C164.636 6.35628 165.12 6.26172 165.662 6.26172C166.186 6.26172 166.632 6.34033 166.999 6.49756C167.365 6.65479 167.664 6.87126 167.894 7.14697C168.124 7.42269 168.296 7.74056 168.41 8.10059L167.296 8.3877C167.191 8.11426 167.017 7.86589 166.773 7.64258C166.529 7.41927 166.161 7.30762 165.669 7.30762C165.213 7.30762 164.834 7.41243 164.531 7.62207C164.228 7.83171 164.076 8.09603 164.076 8.41504C164.076 8.69759 164.179 8.92432 164.384 9.09521C164.589 9.26611 164.915 9.40397 165.361 9.50879L166.517 9.78223C167.209 9.94629 167.722 10.2004 168.055 10.5444C168.387 10.8885 168.554 11.3226 168.554 11.8467C168.554 12.2933 168.427 12.6909 168.174 13.0396C167.921 13.3882 167.568 13.6628 167.115 13.8633C166.661 14.0638 166.136 14.1641 165.539 14.1641Z" fill="#8A9198"/>
</svg>
