<svg width="52" height="17" viewBox="0 0 52 17" fill="none" xmlns="http://www.w3.org/2000/svg">
<path d="M4.49121 14.1777C3.75749 14.1777 3.12061 14.0592 2.58057 13.8223C2.04053 13.5853 1.61784 13.2537 1.3125 12.8276C1.00716 12.4015 0.833984 11.9036 0.792969 11.334H2.12598C2.16243 11.7168 2.29232 12.0324 2.51562 12.2808C2.73893 12.5291 3.0249 12.7137 3.37354 12.8345C3.72217 12.9552 4.09473 13.0156 4.49121 13.0156C4.9515 13.0156 5.36507 12.9404 5.73193 12.79C6.0988 12.6396 6.38932 12.4277 6.60352 12.1543C6.81771 11.8809 6.9248 11.5641 6.9248 11.2041C6.9248 10.876 6.83252 10.6094 6.64795 10.4043C6.46338 10.1992 6.21842 10.0306 5.91309 9.89844C5.60775 9.76628 5.27279 9.65007 4.9082 9.5498L3.67773 9.20117C2.85742 8.96875 2.2194 8.63607 1.76367 8.20312C1.30794 7.77018 1.08008 7.21647 1.08008 6.54199C1.08008 5.96777 1.23503 5.46533 1.54492 5.03467C1.85482 4.604 2.27409 4.27018 2.80273 4.0332C3.33138 3.79622 3.92383 3.67773 4.58008 3.67773C5.25 3.67773 5.84245 3.79622 6.35742 4.0332C6.8724 4.27018 7.27913 4.59261 7.57764 5.00049C7.87614 5.40837 8.03451 5.86979 8.05273 6.38477H6.78125C6.72201 5.88802 6.48503 5.50407 6.07031 5.23291C5.6556 4.96175 5.14518 4.82617 4.53906 4.82617C4.10156 4.82617 3.71761 4.89795 3.38721 5.0415C3.0568 5.18506 2.80046 5.38102 2.61816 5.62939C2.43587 5.87777 2.34473 6.16146 2.34473 6.48047C2.34473 6.83594 2.45524 7.12191 2.67627 7.33838C2.8973 7.55485 3.15934 7.72347 3.4624 7.84424C3.76546 7.96501 4.04004 8.05957 4.28613 8.12793L5.30469 8.4082C5.57812 8.48112 5.88005 8.58138 6.21045 8.70898C6.54085 8.83659 6.85645 9.00635 7.15723 9.21826C7.45801 9.43018 7.70524 9.69906 7.89893 10.0249C8.09261 10.3507 8.18945 10.7507 8.18945 11.2246C8.18945 11.7806 8.04476 12.2819 7.75537 12.7285C7.46598 13.1751 7.04557 13.5283 6.49414 13.7881C5.94271 14.0479 5.27507 14.1777 4.49121 14.1777ZM13.1729 14.1641C12.4801 14.1641 11.8729 14 11.3511 13.6719C10.8293 13.3438 10.4225 12.8835 10.1309 12.291C9.83919 11.6986 9.69336 11.0104 9.69336 10.2266C9.69336 9.42904 9.83919 8.73291 10.1309 8.13818C10.4225 7.54346 10.8293 7.08203 11.3511 6.75391C11.8729 6.42578 12.4801 6.26172 13.1729 6.26172C13.8701 6.26172 14.4808 6.42578 15.0049 6.75391C15.529 7.08203 15.9368 7.54346 16.2285 8.13818C16.5202 8.73291 16.666 9.42904 16.666 10.2266C16.666 11.0104 16.5202 11.6986 16.2285 12.291C15.9368 12.8835 15.529 13.3438 15.0049 13.6719C14.4808 14 13.8701 14.1641 13.1729 14.1641ZM13.1729 13.0635C13.6878 13.0635 14.1117 12.9313 14.4443 12.667C14.777 12.4027 15.0231 12.0552 15.1826 11.6245C15.3421 11.1938 15.4219 10.7279 15.4219 10.2266C15.4219 9.7207 15.3421 9.25016 15.1826 8.81494C15.0231 8.37972 14.777 8.02881 14.4443 7.76221C14.1117 7.49561 13.6878 7.3623 13.1729 7.3623C12.6624 7.3623 12.2432 7.49561 11.915 7.76221C11.5869 8.02881 11.3431 8.37858 11.1836 8.81152C11.0241 9.24447 10.9443 9.71615 10.9443 10.2266C10.9443 10.7279 11.0241 11.1938 11.1836 11.6245C11.3431 12.0552 11.5869 12.4027 11.915 12.667C12.2432 12.9313 12.6624 13.0635 13.1729 13.0635ZM18.457 14V6.35742H19.6465V7.5332H19.7285C19.8698 7.14583 20.1216 6.8348 20.4839 6.6001C20.8462 6.3654 21.2552 6.24805 21.7109 6.24805C21.8021 6.24805 21.9103 6.25033 22.0356 6.25488C22.161 6.25944 22.2601 6.264 22.333 6.26855V7.50586C22.2965 7.49674 22.2054 7.48307 22.0596 7.46484C21.9137 7.44661 21.7588 7.4375 21.5947 7.4375C21.2301 7.4375 20.9032 7.51383 20.6138 7.6665C20.3244 7.81917 20.0977 8.02881 19.9336 8.29541C19.7695 8.56201 19.6875 8.86849 19.6875 9.21484V14H18.457ZM26.9541 6.35742V7.41016H23.0029V6.35742H26.9541ZM24.1514 4.53906H25.3818V12.0176C25.3818 12.3594 25.4513 12.6089 25.5903 12.7661C25.7293 12.9233 25.9606 13.002 26.2842 13.002C26.3617 13.002 26.4608 12.9928 26.5815 12.9746C26.7023 12.9564 26.8128 12.9382 26.9131 12.9199L27.166 13.959C27.0384 14.0046 26.8937 14.0387 26.7319 14.0615C26.5701 14.0843 26.4095 14.0957 26.25 14.0957C25.5892 14.0957 25.0742 13.9214 24.7051 13.5728C24.3359 13.2241 24.1514 12.7376 24.1514 12.1133V4.53906ZM36.0117 14.1641C35.5286 14.1641 35.139 14.0809 34.8428 13.9146C34.5465 13.7482 34.3187 13.5591 34.1592 13.3472C33.9997 13.1353 33.8766 12.9587 33.79 12.8174H33.6533V14H32.4639V3.81445H33.6943V7.58105H33.79C33.8766 7.44434 33.9974 7.2723 34.1523 7.06494C34.3073 6.85758 34.5306 6.67188 34.8223 6.50781C35.1139 6.34375 35.5081 6.26172 36.0049 6.26172C36.6429 6.26172 37.2046 6.42122 37.6899 6.74023C38.1753 7.05924 38.5558 7.51383 38.8315 8.104C39.1073 8.69417 39.2451 9.39258 39.2451 10.1992C39.2451 11.0104 39.1084 11.7122 38.835 12.3047C38.5615 12.8971 38.1821 13.3551 37.6968 13.6787C37.2114 14.0023 36.6497 14.1641 36.0117 14.1641ZM35.8271 13.0635C36.3057 13.0635 36.7056 12.9347 37.0269 12.6772C37.3481 12.4198 37.5897 12.0734 37.7515 11.6382C37.9132 11.203 37.9941 10.7188 37.9941 10.1855C37.9941 9.6569 37.9144 9.17952 37.7549 8.75342C37.5954 8.32731 37.355 7.98893 37.0337 7.73828C36.7124 7.48763 36.3102 7.3623 35.8271 7.3623C35.3577 7.3623 34.9635 7.48079 34.6445 7.71777C34.3255 7.95475 34.0851 8.28402 33.9233 8.70557C33.7616 9.12712 33.6807 9.62044 33.6807 10.1855C33.6807 10.7507 33.7627 11.2497 33.9268 11.6826C34.0908 12.1156 34.3335 12.4539 34.6548 12.6978C34.9761 12.9416 35.3669 13.0635 35.8271 13.0635ZM40.6396 16.7686L40.9541 15.7021L41.084 15.7363C41.3346 15.8001 41.5625 15.8172 41.7676 15.7876C41.9727 15.758 42.1572 15.6566 42.3213 15.4834C42.4854 15.3102 42.6289 15.0413 42.752 14.6768L42.9707 14.041L40.0518 6.35742H41.3984L43.0254 10.8896C43.1986 11.3636 43.3444 11.833 43.4629 12.2979C43.5814 12.7627 43.7067 13.2139 43.8389 13.6514H43.3877C43.5199 13.2139 43.6463 12.7616 43.7671 12.2944C43.8879 11.8273 44.0326 11.359 44.2012 10.8896L45.8418 6.35742H47.1816L43.8252 15.1416C43.6702 15.5472 43.4845 15.881 43.2681 16.1431C43.0516 16.4051 42.7998 16.5988 42.5127 16.7241C42.2256 16.8494 41.902 16.9121 41.542 16.9121C41.3232 16.9121 41.1341 16.8962 40.9746 16.8643C40.8151 16.8324 40.7035 16.8005 40.6396 16.7686ZM49.5674 14.0889C49.3122 14.0889 49.0946 13.9989 48.9146 13.8188C48.7345 13.6388 48.6445 13.4212 48.6445 13.166C48.6445 12.9108 48.7345 12.6932 48.9146 12.5132C49.0946 12.3332 49.3122 12.2432 49.5674 12.2432C49.8226 12.2432 50.0402 12.3332 50.2202 12.5132C50.4002 12.6932 50.4902 12.9108 50.4902 13.166C50.4902 13.4212 50.4002 13.6388 50.2202 13.8188C50.0402 13.9989 49.8226 14.0889 49.5674 14.0889ZM49.5674 8.55859C49.3122 8.55859 49.0946 8.46859 48.9146 8.28857C48.7345 8.10856 48.6445 7.89095 48.6445 7.63574C48.6445 7.38053 48.7345 7.16292 48.9146 6.98291C49.0946 6.8029 49.3122 6.71289 49.5674 6.71289C49.8226 6.71289 50.0402 6.8029 50.2202 6.98291C50.4002 7.16292 50.4902 7.38053 50.4902 7.63574C50.4902 7.89095 50.4002 8.10856 50.2202 8.28857C50.0402 8.46859 49.8226 8.55859 49.5674 8.55859Z" fill="#8A9198"/>
</svg>
