<svg width="250" height="17" viewBox="0 0 250 17" fill="none" xmlns="http://www.w3.org/2000/svg">
<path d="M6.72284 2.83877C6.77498 2.73341 6.88237 2.66675 6.99992 2.66675C7.11747 2.66675 7.22486 2.73341 7.277 2.83877L8.6245 5.56819C8.80446 5.93305 9.15236 6.18607 9.55492 6.24485L12.5684 6.68585C12.6849 6.70273 12.7817 6.78428 12.8181 6.89621C12.8545 7.00813 12.8242 7.13102 12.7399 7.21319L10.5606 9.33535C10.2686 9.6195 10.1352 10.0293 10.2042 10.4309L10.7187 13.4292C10.7392 13.5456 10.6916 13.6636 10.5959 13.7331C10.5002 13.8026 10.3733 13.8114 10.2689 13.7559L7.57509 12.3395C7.21482 12.1501 6.78443 12.1501 6.42417 12.3395L3.73092 13.7559C3.62658 13.8111 3.4999 13.8021 3.40443 13.7326C3.30895 13.6632 3.26135 13.5455 3.28175 13.4292L3.79567 10.4314C3.86479 10.0297 3.73146 9.61963 3.43925 9.33535L1.25992 7.21377C1.17494 7.13169 1.14416 7.00835 1.18063 6.89596C1.2171 6.78358 1.31443 6.70181 1.43142 6.68527L4.44434 6.24485C4.84733 6.18643 5.19574 5.93336 5.37592 5.56819L6.72284 2.83877" stroke="#FBBF24" stroke-width="1.16667" stroke-linecap="round" stroke-linejoin="round"/>
<path d="M24.7228 2.83877C24.775 2.73341 24.8824 2.66675 24.9999 2.66675C25.1175 2.66675 25.2249 2.73341 25.277 2.83877L26.6245 5.56819C26.8045 5.93305 27.1524 6.18607 27.5549 6.24485L30.5684 6.68585C30.6849 6.70273 30.7817 6.78428 30.8181 6.89621C30.8545 7.00813 30.8242 7.13102 30.7399 7.21319L28.5606 9.33535C28.2686 9.6195 28.1352 10.0293 28.2042 10.4309L28.7187 13.4292C28.7392 13.5456 28.6916 13.6636 28.5959 13.7331C28.5002 13.8026 28.3733 13.8114 28.2689 13.7559L25.5751 12.3395C25.2148 12.1501 24.7844 12.1501 24.4242 12.3395L21.7309 13.7559C21.6266 13.8111 21.4999 13.8021 21.4044 13.7326C21.309 13.6632 21.2614 13.5455 21.2818 13.4292L21.7957 10.4314C21.8648 10.0297 21.7315 9.61963 21.4393 9.33535L19.2599 7.21377C19.1749 7.13169 19.1442 7.00835 19.1806 6.89596C19.2171 6.78358 19.3144 6.70181 19.4314 6.68527L22.4443 6.24485C22.8473 6.18643 23.1957 5.93336 23.3759 5.56819L24.7228 2.83877" stroke="#FBBF24" stroke-width="1.16667" stroke-linecap="round" stroke-linejoin="round"/>
<path d="M42.7228 2.83877C42.775 2.73341 42.8824 2.66675 42.9999 2.66675C43.1175 2.66675 43.2249 2.73341 43.277 2.83877L44.6245 5.56819C44.8045 5.93305 45.1524 6.18607 45.5549 6.24485L48.5684 6.68585C48.6849 6.70273 48.7817 6.78428 48.8181 6.89621C48.8545 7.00813 48.8242 7.13102 48.7399 7.21319L46.5606 9.33535C46.2686 9.6195 46.1352 10.0293 46.2042 10.4309L46.7187 13.4292C46.7392 13.5456 46.6916 13.6636 46.5959 13.7331C46.5002 13.8026 46.3733 13.8114 46.2689 13.7559L43.5751 12.3395C43.2148 12.1501 42.7844 12.1501 42.4242 12.3395L39.7309 13.7559C39.6266 13.8111 39.4999 13.8021 39.4044 13.7326C39.309 13.6632 39.2614 13.5455 39.2818 13.4292L39.7957 10.4314C39.8648 10.0297 39.7315 9.61963 39.4393 9.33535L37.2599 7.21377C37.1749 7.13169 37.1442 7.00835 37.1806 6.89596C37.2171 6.78358 37.3144 6.70181 37.4314 6.68527L40.4443 6.24485C40.8473 6.18643 41.1957 5.93336 41.3759 5.56819L42.7228 2.83877" stroke="#FBBF24" stroke-width="1.16667" stroke-linecap="round" stroke-linejoin="round"/>
<path d="M60.7228 2.83877C60.775 2.73341 60.8824 2.66675 60.9999 2.66675C61.1175 2.66675 61.2249 2.73341 61.277 2.83877L62.6245 5.56819C62.8045 5.93305 63.1524 6.18607 63.5549 6.24485L66.5684 6.68585C66.6849 6.70273 66.7817 6.78428 66.8181 6.89621C66.8545 7.00813 66.8242 7.13102 66.7399 7.21319L64.5606 9.33535C64.2686 9.6195 64.1352 10.0293 64.2042 10.4309L64.7187 13.4292C64.7392 13.5456 64.6916 13.6636 64.5959 13.7331C64.5002 13.8026 64.3733 13.8114 64.2689 13.7559L61.5751 12.3395C61.2148 12.1501 60.7844 12.1501 60.4242 12.3395L57.7309 13.7559C57.6266 13.8111 57.4999 13.8021 57.4044 13.7326C57.309 13.6632 57.2614 13.5455 57.2818 13.4292L57.7957 10.4314C57.8648 10.0297 57.7315 9.61963 57.4393 9.33535L55.2599 7.21377C55.1749 7.13169 55.1442 7.00835 55.1806 6.89596C55.2171 6.78358 55.3144 6.70181 55.4314 6.68527L58.4443 6.24485C58.8473 6.18643 59.1957 5.93336 59.3759 5.56819L60.7228 2.83877" stroke="black" stroke-opacity="0.08" stroke-width="1.16667" stroke-linecap="round" stroke-linejoin="round"/>
<path d="M75.9648 14.1367C75.2949 14.1367 74.7161 14.0125 74.2285 13.7642C73.7409 13.5158 73.366 13.1808 73.104 12.7593C72.842 12.3377 72.7109 11.8649 72.7109 11.3408C72.7109 10.8942 72.8021 10.5091 72.9844 10.1855C73.1667 9.86198 73.4185 9.5612 73.7397 9.2832C74.061 9.00521 74.4245 8.71582 74.8301 8.41504L76.3408 7.30078C76.4639 7.20964 76.5983 7.10026 76.7441 6.97266C76.89 6.84505 77.0142 6.69238 77.1167 6.51465C77.2192 6.33691 77.2705 6.12956 77.2705 5.89258C77.2705 5.56901 77.1623 5.30241 76.9458 5.09277C76.7293 4.88314 76.4365 4.77832 76.0674 4.77832C75.8122 4.77832 75.5866 4.83073 75.3906 4.93555C75.1947 5.04036 75.0431 5.18506 74.936 5.36963C74.8289 5.5542 74.7754 5.76953 74.7754 6.01562C74.7754 6.27083 74.8335 6.51465 74.9497 6.74707C75.0659 6.97949 75.2243 7.22103 75.4248 7.47168C75.6253 7.72233 75.8532 8.0026 76.1084 8.3125L80.7979 14H79.3145L75.4521 9.36523C75.0876 8.92318 74.7606 8.52783 74.4712 8.1792C74.1818 7.83057 73.9539 7.48535 73.7876 7.14355C73.6213 6.80176 73.5381 6.42806 73.5381 6.02246C73.5381 5.57129 73.6406 5.17253 73.8457 4.82617C74.0508 4.47982 74.3413 4.20866 74.7173 4.0127C75.0933 3.81673 75.5319 3.71875 76.0332 3.71875C76.5436 3.71875 76.9834 3.81787 77.3525 4.01611C77.7217 4.21436 78.0065 4.47868 78.207 4.80908C78.4076 5.13949 78.5078 5.50749 78.5078 5.91309C78.5078 6.22298 78.4497 6.51009 78.3335 6.77441C78.2173 7.03874 78.0578 7.28255 77.855 7.50586C77.6522 7.72917 77.4186 7.9388 77.1543 8.13477L75.1172 9.64551C74.6979 9.9554 74.4028 10.2437 74.2319 10.5103C74.061 10.7769 73.9756 11.0674 73.9756 11.3818C73.9756 11.7145 74.0553 12.0073 74.2148 12.2603C74.3743 12.5132 74.5977 12.7103 74.8848 12.8516C75.1719 12.9928 75.5023 13.0635 75.876 13.0635C76.2816 13.0635 76.6712 12.9803 77.0449 12.814C77.4186 12.6476 77.7536 12.4095 78.0498 12.0996C78.346 11.7897 78.5807 11.416 78.7539 10.9785C78.9271 10.541 79.0137 10.0488 79.0137 9.50195H80.1963C80.1963 10.1764 80.1188 10.7301 79.9639 11.1631C79.8089 11.596 79.6323 11.9378 79.4341 12.1885C79.2358 12.4391 79.0706 12.6283 78.9385 12.7559L78.6924 13.0635C78.3597 13.4235 77.9438 13.6924 77.4448 13.8701C76.9458 14.0479 76.4525 14.1367 75.9648 14.1367ZM90.1699 14.1641C89.3678 14.1641 88.6672 14.0068 88.0679 13.6924C87.4686 13.3779 87.0049 12.9473 86.6768 12.4004C86.3486 11.8535 86.1846 11.2314 86.1846 10.5342V3.81445H87.4834V10.4316C87.4834 10.9193 87.5916 11.3534 87.8081 11.7339C88.0246 12.1144 88.3333 12.4141 88.7344 12.6328C89.1354 12.8516 89.6139 12.9609 90.1699 12.9609C90.7259 12.9609 91.2033 12.8516 91.6021 12.6328C92.0008 12.4141 92.3073 12.1144 92.5215 11.7339C92.7357 11.3534 92.8428 10.9193 92.8428 10.4316V3.81445H94.1416V10.5342C94.1416 11.2314 93.9775 11.8535 93.6494 12.4004C93.3213 12.9473 92.8599 13.3779 92.2651 13.6924C91.6704 14.0068 90.972 14.1641 90.1699 14.1641ZM96.4521 16.8574V6.35742H97.6416V7.58105H97.7783C97.8649 7.44434 97.9857 7.2723 98.1406 7.06494C98.2956 6.85758 98.5189 6.67188 98.8105 6.50781C99.1022 6.34375 99.4964 6.26172 99.9932 6.26172C100.631 6.26172 101.193 6.42122 101.678 6.74023C102.164 7.05924 102.544 7.51383 102.82 8.104C103.096 8.69417 103.233 9.39258 103.233 10.1992C103.233 11.0104 103.097 11.7122 102.823 12.3047C102.55 12.8971 102.17 13.3551 101.685 13.6787C101.2 14.0023 100.638 14.1641 100 14.1641C99.5169 14.1641 99.1273 14.0809 98.8311 13.9146C98.5348 13.7482 98.307 13.5591 98.1475 13.3472C97.988 13.1353 97.8649 12.9587 97.7783 12.8174H97.6826V16.8574H96.4521ZM99.8154 13.0635C100.294 13.0635 100.694 12.9347 101.015 12.6772C101.336 12.4198 101.578 12.0734 101.74 11.6382C101.902 11.203 101.982 10.7188 101.982 10.1855C101.982 9.6569 101.903 9.17952 101.743 8.75342C101.584 8.32731 101.343 7.98893 101.022 7.73828C100.701 7.48763 100.299 7.3623 99.8154 7.3623C99.346 7.3623 98.9518 7.48079 98.6328 7.71777C98.3138 7.95475 98.0734 8.28402 97.9116 8.70557C97.7498 9.12712 97.6689 9.62044 97.6689 10.1855C97.6689 10.7507 97.751 11.2497 97.915 11.6826C98.0791 12.1156 98.3218 12.4539 98.6431 12.6978C98.9644 12.9416 99.3551 13.0635 99.8154 13.0635Z" fill="#0B1A2B"/>
<path d="M217.754 9.05029C217.754 8.36051 217.825 7.63794 217.967 6.88257C218.108 6.1272 218.302 5.39933 218.547 4.69897C218.793 3.99862 219.074 3.38818 219.392 2.86768H220.502C220.177 3.53206 219.894 4.22396 219.655 4.94336C219.416 5.66276 219.233 6.37264 219.106 7.073C218.979 7.77336 218.916 8.43245 218.916 9.05029C218.916 9.61312 218.972 10.1823 219.084 10.7578C219.196 11.3333 219.369 11.9417 219.604 12.5828C219.839 13.2239 220.139 13.9211 220.502 14.6743H219.392C218.854 13.756 218.447 12.8208 218.17 11.8687C217.892 10.9165 217.754 9.97705 217.754 9.05029ZM225.143 13.627C224.525 13.627 223.977 13.5212 223.499 13.3096C223.02 13.098 222.641 12.8039 222.359 12.4272C222.078 12.0506 221.926 11.6126 221.905 11.1133H223.124C223.149 11.4137 223.252 11.6729 223.432 11.8909C223.612 12.1088 223.849 12.276 224.143 12.3923C224.437 12.5087 224.764 12.5669 225.124 12.5669C225.521 12.5669 225.874 12.4981 226.18 12.3606C226.487 12.2231 226.729 12.0295 226.907 11.7798C227.085 11.5301 227.174 11.2424 227.174 10.9165C227.174 10.5737 227.088 10.2722 226.917 10.012C226.745 9.75171 226.497 9.54753 226.171 9.39941C225.845 9.2513 225.447 9.17725 224.978 9.17725H224.209V8.12988H224.978C225.346 8.12988 225.67 8.06323 225.952 7.92993C226.233 7.79663 226.452 7.60938 226.609 7.36816C226.765 7.12695 226.844 6.84342 226.844 6.51758C226.844 6.20443 226.775 5.93148 226.637 5.69873C226.5 5.46598 226.304 5.28507 226.05 5.15601C225.796 5.02694 225.498 4.9624 225.155 4.9624C224.834 4.9624 224.532 5.02059 224.251 5.13696C223.969 5.25334 223.739 5.41943 223.559 5.63525C223.379 5.85107 223.283 6.11344 223.27 6.42236H222.108C222.125 5.92725 222.273 5.49137 222.553 5.11475C222.832 4.73812 223.201 4.44401 223.66 4.23242C224.12 4.02083 224.626 3.91504 225.181 3.91504C225.769 3.91504 226.276 4.03353 226.701 4.27051C227.126 4.50749 227.453 4.81852 227.682 5.20361C227.91 5.5887 228.024 6.00553 228.024 6.4541C228.024 6.9873 227.884 7.4401 227.602 7.8125C227.321 8.1849 226.939 8.44303 226.457 8.58691V8.66309C226.859 8.72656 227.202 8.86198 227.488 9.06934C227.774 9.27669 227.992 9.53906 228.142 9.85645C228.292 10.1738 228.367 10.5314 228.367 10.9292C228.367 11.4455 228.228 11.9067 227.948 12.313C227.669 12.7192 227.286 13.0398 226.799 13.2747C226.313 13.5095 225.76 13.627 225.143 13.627ZM229.903 11.5767V10.5928L234.042 4.04199H234.772V5.55273H234.283L231.192 10.4404V10.5166H236.791V11.5767H229.903ZM234.353 13.5V11.2847L234.359 10.8213V4.04199H235.508V13.5H234.353ZM241.323 13.627C240.768 13.627 240.271 13.518 239.831 13.3C239.391 13.0821 239.04 12.7838 238.777 12.405C238.515 12.0263 238.373 11.5957 238.352 11.1133H239.52C239.545 11.3926 239.641 11.6423 239.806 11.8623C239.971 12.0824 240.185 12.2548 240.45 12.3796C240.714 12.5045 241.005 12.5669 241.323 12.5669C241.704 12.5669 242.043 12.478 242.342 12.3003C242.64 12.1226 242.874 11.8771 243.043 11.564C243.212 11.2508 243.297 10.8953 243.297 10.4976C243.297 10.0913 243.208 9.72738 243.03 9.40576C242.853 9.08415 242.61 8.8313 242.303 8.64722C241.997 8.46313 241.644 8.37109 241.247 8.37109C240.955 8.37109 240.658 8.41764 240.358 8.51074C240.057 8.60384 239.814 8.72233 239.628 8.86621L238.498 8.72656L239.057 4.04199H244.033V5.10205H240.072L239.749 7.86328H239.799C239.994 7.70247 240.239 7.57023 240.536 7.46655C240.832 7.36287 241.143 7.31104 241.469 7.31104C241.9 7.31104 242.299 7.38932 242.665 7.5459C243.031 7.70247 243.35 7.92358 243.621 8.20923C243.891 8.49487 244.102 8.83024 244.252 9.21533C244.402 9.60042 244.478 10.0215 244.478 10.4785C244.478 11.0837 244.341 11.6232 244.068 12.0972C243.795 12.5711 243.422 12.9446 242.948 13.2175C242.474 13.4905 241.932 13.627 241.323 13.627ZM245.861 14.6743C246.238 13.8999 246.543 13.19 246.775 12.5447C247.008 11.8993 247.178 11.291 247.286 10.7197C247.394 10.1484 247.448 9.59196 247.448 9.05029C247.448 8.43245 247.385 7.77336 247.258 7.073C247.131 6.37264 246.949 5.66276 246.712 4.94336C246.475 4.22396 246.191 3.53206 245.861 2.86768H246.972C247.29 3.38818 247.572 3.99862 247.82 4.69897C248.067 5.39933 248.261 6.12826 248.4 6.88574C248.54 7.64323 248.61 8.36475 248.61 9.05029C248.61 9.99398 248.469 10.9419 248.188 11.894C247.906 12.8462 247.501 13.7729 246.972 14.6743H245.861Z" fill="#8A9198"/>
</svg>
