<svg width="250" height="19" viewBox="0 0 250 19" fill="none" xmlns="http://www.w3.org/2000/svg">
<path d="M1.14773 15V3.36364H5.51136C6.4053 3.36364 7.1553 3.51894 7.76136 3.82955C8.37121 4.14015 8.83144 4.57576 9.14205 5.13636C9.45644 5.69318 9.61364 6.3428 9.61364 7.08523C9.61364 7.83144 9.45455 8.47917 9.13636 9.02841C8.82197 9.57386 8.35795 9.99621 7.74432 10.2955C7.13068 10.5909 6.37689 10.7386 5.48295 10.7386H2.375V8.98864H5.19886C5.72159 8.98864 6.14962 8.91667 6.48295 8.77273C6.81629 8.625 7.0625 8.41098 7.22159 8.13068C7.38447 7.84659 7.46591 7.49811 7.46591 7.08523C7.46591 6.67235 7.38447 6.32008 7.22159 6.02841C7.05871 5.73295 6.81061 5.50947 6.47727 5.35795C6.14394 5.20265 5.71402 5.125 5.1875 5.125H3.25568V15H1.14773ZM7.15909 9.72727L10.0398 15H7.6875L4.85795 9.72727H7.15909ZM13.9744 15.1761C13.4214 15.1761 12.9233 15.0777 12.4801 14.8807C12.0407 14.6799 11.6922 14.3845 11.4347 13.9943C11.1809 13.6042 11.054 13.1231 11.054 12.5511C11.054 12.0587 11.1449 11.6515 11.3267 11.3295C11.5085 11.0076 11.7566 10.75 12.071 10.5568C12.3854 10.3636 12.7396 10.2178 13.1335 10.1193C13.5313 10.017 13.9422 9.94318 14.3665 9.89773C14.8778 9.8447 15.2926 9.79735 15.6108 9.75568C15.929 9.71023 16.16 9.64205 16.304 9.55114C16.4517 9.45644 16.5256 9.31061 16.5256 9.11364V9.07955C16.5256 8.65152 16.3987 8.32008 16.1449 8.08523C15.8911 7.85038 15.5256 7.73295 15.0483 7.73295C14.5445 7.73295 14.1449 7.8428 13.8494 8.0625C13.5578 8.2822 13.3608 8.54167 13.2585 8.84091L11.3381 8.56818C11.4896 8.03788 11.7396 7.5947 12.0881 7.23864C12.4366 6.87879 12.8627 6.60985 13.3665 6.43182C13.8703 6.25 14.4271 6.15909 15.0369 6.15909C15.4574 6.15909 15.8759 6.20833 16.2926 6.30682C16.7093 6.4053 17.09 6.56818 17.4347 6.79545C17.7794 7.01894 18.0559 7.32386 18.2642 7.71023C18.4763 8.09659 18.5824 8.57955 18.5824 9.15909V15H16.6051V13.8011H16.5369C16.4119 14.0436 16.2358 14.2708 16.0085 14.483C15.785 14.6913 15.5028 14.8598 15.1619 14.9886C14.8248 15.1136 14.429 15.1761 13.9744 15.1761ZM14.5085 13.6648C14.9214 13.6648 15.2794 13.5833 15.5824 13.4205C15.8854 13.2538 16.1184 13.0341 16.2812 12.7614C16.4479 12.4886 16.5312 12.1913 16.5312 11.8693V10.8409C16.4669 10.8939 16.357 10.9432 16.2017 10.9886C16.0502 11.0341 15.8797 11.0739 15.6903 11.108C15.5009 11.142 15.3134 11.1723 15.1278 11.1989C14.9422 11.2254 14.7813 11.2481 14.6449 11.267C14.3381 11.3087 14.0634 11.3769 13.821 11.4716C13.5786 11.5663 13.3873 11.6989 13.2472 11.8693C13.107 12.036 13.0369 12.2519 13.0369 12.517C13.0369 12.8958 13.1752 13.1818 13.4517 13.375C13.7282 13.5682 14.0805 13.6648 14.5085 13.6648ZM25.0085 6.27273V7.86364H19.9915V6.27273H25.0085ZM21.2301 4.18182H23.2869V12.375C23.2869 12.6515 23.3286 12.8636 23.4119 13.0114C23.4991 13.1553 23.6127 13.2538 23.7528 13.3068C23.893 13.3598 24.0483 13.3864 24.2188 13.3864C24.3475 13.3864 24.465 13.3769 24.571 13.358C24.6809 13.339 24.7642 13.322 24.821 13.3068L25.1676 14.9148C25.0578 14.9527 24.9006 14.9943 24.696 15.0398C24.4953 15.0852 24.2491 15.1117 23.9574 15.1193C23.4422 15.1345 22.9782 15.0568 22.5653 14.8864C22.1525 14.7121 21.8248 14.4432 21.5824 14.0795C21.3438 13.7159 21.2263 13.2614 21.2301 12.7159V4.18182ZM26.7287 15V6.27273H28.7855V15H26.7287ZM27.7628 5.03409C27.437 5.03409 27.1567 4.92614 26.9219 4.71023C26.687 4.49053 26.5696 4.22727 26.5696 3.92045C26.5696 3.60985 26.687 3.34659 26.9219 3.13068C27.1567 2.91098 27.437 2.80114 27.7628 2.80114C28.0923 2.80114 28.3726 2.91098 28.6037 3.13068C28.8385 3.34659 28.956 3.60985 28.956 3.92045C28.956 4.22727 28.8385 4.49053 28.6037 4.71023C28.3726 4.92614 28.0923 5.03409 27.7628 5.03409ZM32.9574 9.88636V15H30.9006V6.27273H32.8665V7.75568H32.9688C33.1695 7.26705 33.4896 6.87879 33.929 6.59091C34.3722 6.30303 34.9195 6.15909 35.571 6.15909C36.1733 6.15909 36.6979 6.28788 37.1449 6.54545C37.5956 6.80303 37.9441 7.17614 38.1903 7.66477C38.4403 8.15341 38.5634 8.74621 38.5597 9.44318V15H36.5028V9.76136C36.5028 9.17803 36.3513 8.72159 36.0483 8.39205C35.7491 8.0625 35.3343 7.89773 34.804 7.89773C34.4441 7.89773 34.1241 7.97727 33.8438 8.13636C33.5672 8.29167 33.3494 8.51705 33.1903 8.8125C33.035 9.10795 32.9574 9.46591 32.9574 9.88636ZM44.446 18.4545C43.7074 18.4545 43.0729 18.3542 42.5426 18.1534C42.0123 17.9564 41.5862 17.6913 41.2642 17.358C40.9422 17.0246 40.7188 16.6553 40.5938 16.25L42.446 15.8011C42.5294 15.9716 42.6506 16.1402 42.8097 16.3068C42.9688 16.4773 43.1828 16.6174 43.4517 16.7273C43.7244 16.8409 44.0672 16.8977 44.4801 16.8977C45.0634 16.8977 45.5464 16.7557 45.929 16.4716C46.3116 16.1913 46.5028 15.7292 46.5028 15.0852V13.4318H46.4006C46.2945 13.6439 46.1392 13.8617 45.9347 14.0852C45.7339 14.3087 45.4669 14.4962 45.1335 14.6477C44.804 14.7992 44.3892 14.875 43.8892 14.875C43.2188 14.875 42.6108 14.7178 42.0653 14.4034C41.5237 14.0852 41.0919 13.6117 40.7699 12.983C40.4517 12.3504 40.2926 11.5587 40.2926 10.608C40.2926 9.64962 40.4517 8.84091 40.7699 8.18182C41.0919 7.51894 41.5256 7.01705 42.071 6.67614C42.6165 6.33144 43.2244 6.15909 43.8949 6.15909C44.4063 6.15909 44.8267 6.24621 45.1562 6.42045C45.4896 6.59091 45.7547 6.79735 45.9517 7.03977C46.1487 7.27841 46.2983 7.50379 46.4006 7.71591H46.5142V6.27273H48.5426V15.142C48.5426 15.8883 48.3646 16.5057 48.0085 16.9943C47.6525 17.483 47.1657 17.8485 46.5483 18.0909C45.9309 18.3333 45.2301 18.4545 44.446 18.4545ZM44.4631 13.2614C44.8987 13.2614 45.2699 13.1553 45.5767 12.9432C45.8835 12.7311 46.1165 12.4261 46.2756 12.0284C46.4347 11.6307 46.5142 11.1534 46.5142 10.5966C46.5142 10.0473 46.4347 9.56629 46.2756 9.15341C46.1203 8.74053 45.8892 8.42045 45.5824 8.19318C45.2794 7.96212 44.9063 7.84659 44.4631 7.84659C44.0047 7.84659 43.6222 7.96591 43.3153 8.20455C43.0085 8.44318 42.7775 8.77083 42.6222 9.1875C42.4669 9.60038 42.3892 10.0701 42.3892 10.5966C42.3892 11.1307 42.4669 11.5985 42.6222 12C42.7813 12.3977 43.0142 12.7083 43.321 12.9318C43.6316 13.1515 44.0123 13.2614 44.4631 13.2614Z" fill="#0B1A2B"/>
</svg>
