<svg width="37" height="16" viewBox="0 0 37 16" fill="none" xmlns="http://www.w3.org/2000/svg">
<path d="M1.14258 13V3.54199H2.34863V7.62988H7.3125V3.54199H8.51855V13H7.3125V8.69629H2.34863V13H1.14258ZM13.5522 13.1523C12.909 13.1523 12.3451 13 11.8606 12.6953C11.3761 12.3906 10.9984 11.9632 10.7275 11.4131C10.4567 10.863 10.3213 10.224 10.3213 9.49609C10.3213 8.75553 10.4567 8.10913 10.7275 7.55688C10.9984 7.00464 11.3761 6.57617 11.8606 6.27148C12.3451 5.9668 12.909 5.81445 13.5522 5.81445C14.1997 5.81445 14.7668 5.9668 15.2534 6.27148C15.7401 6.57617 16.1188 7.00464 16.3896 7.55688C16.6605 8.10913 16.7959 8.75553 16.7959 9.49609C16.7959 10.224 16.6605 10.863 16.3896 11.4131C16.1188 11.9632 15.7401 12.3906 15.2534 12.6953C14.7668 13 14.1997 13.1523 13.5522 13.1523ZM13.5522 12.1304C14.0304 12.1304 14.424 12.0076 14.7329 11.7622C15.0418 11.5168 15.2703 11.1941 15.4185 10.7942C15.5666 10.3943 15.6406 9.96159 15.6406 9.49609C15.6406 9.02637 15.5666 8.58944 15.4185 8.1853C15.2703 7.78117 15.0418 7.45532 14.7329 7.20776C14.424 6.96021 14.0304 6.83643 13.5522 6.83643C13.0783 6.83643 12.689 6.96021 12.3843 7.20776C12.0796 7.45532 11.8532 7.78011 11.7051 8.18213C11.557 8.58415 11.4829 9.02214 11.4829 9.49609C11.4829 9.96159 11.557 10.3943 11.7051 10.7942C11.8532 11.1941 12.0796 11.5168 12.3843 11.7622C12.689 12.0076 13.0783 12.1304 13.5522 12.1304ZM18.459 13V5.90332H19.5698L19.5762 7.49023H19.4873C19.5846 7.10514 19.738 6.7867 19.9475 6.53491C20.157 6.28312 20.4024 6.09375 20.6838 5.9668C20.9653 5.83984 21.2583 5.77637 21.563 5.77637C22.0793 5.77637 22.4972 5.93506 22.8167 6.25244C23.1361 6.56982 23.3424 6.98665 23.4355 7.50293H23.2832C23.3678 7.14746 23.5223 6.84066 23.7466 6.58252C23.9709 6.32438 24.2428 6.12549 24.5623 5.98584C24.8818 5.84619 25.2298 5.77637 25.6064 5.77637C26.0169 5.77637 26.3914 5.86523 26.73 6.04297C27.0685 6.2207 27.3383 6.48942 27.5393 6.84912C27.7403 7.20882 27.8408 7.66374 27.8408 8.21387V13H26.6982V8.24561C26.6982 7.73356 26.5544 7.36751 26.2666 7.14746C25.9788 6.92741 25.6445 6.81738 25.2637 6.81738C24.9463 6.81738 24.6723 6.88403 24.4417 7.01733C24.211 7.15063 24.0333 7.33366 23.9084 7.56641C23.7836 7.79915 23.7212 8.06576 23.7212 8.36621V13H22.5786V8.13135C22.5786 7.73779 22.4474 7.42041 22.1851 7.1792C21.9227 6.93799 21.5905 6.81738 21.1885 6.81738C20.9134 6.81738 20.6542 6.88192 20.4109 7.01099C20.1676 7.14006 19.9718 7.33154 19.8237 7.58545C19.6756 7.83936 19.6016 8.15462 19.6016 8.53125V13H18.459ZM32.8301 13.1523C32.1445 13.1523 31.5531 13 31.0559 12.6953C30.5587 12.3906 30.1757 11.9653 29.907 11.4194C29.6383 10.8735 29.5039 10.2367 29.5039 9.50879C29.5039 8.78092 29.6351 8.13981 29.8975 7.58545C30.1598 7.03109 30.5312 6.59733 31.0115 6.28418C31.4918 5.97103 32.0535 5.81445 32.6968 5.81445C33.0734 5.81445 33.4447 5.87687 33.8108 6.00171C34.1768 6.12655 34.509 6.32756 34.8074 6.60474C35.1057 6.88192 35.3438 7.24691 35.5215 7.69971C35.6992 8.15251 35.7881 8.70687 35.7881 9.36279V9.83887H30.2783V8.87402H35.1724L34.6392 9.22949C34.6392 8.764 34.5662 8.35034 34.4202 7.98853C34.2742 7.62671 34.0573 7.34318 33.7695 7.13794C33.4818 6.9327 33.1242 6.83008 32.6968 6.83008C32.2694 6.83008 31.9033 6.93481 31.5986 7.14429C31.2939 7.35376 31.0612 7.62671 30.9004 7.96313C30.7396 8.29956 30.6592 8.66032 30.6592 9.04541V9.68652C30.6592 10.2113 30.7502 10.6567 30.9321 11.0227C31.1141 11.3888 31.3691 11.6659 31.697 11.8542C32.025 12.0426 32.4048 12.1367 32.8364 12.1367C33.1157 12.1367 33.3696 12.0965 33.5981 12.0161C33.8267 11.9357 34.0234 11.814 34.1885 11.6511C34.3535 11.4882 34.4805 11.2861 34.5693 11.0449L35.6738 11.3496C35.5638 11.7051 35.3776 12.0182 35.1152 12.2891C34.8529 12.5599 34.5281 12.7715 34.1409 12.9238C33.7537 13.0762 33.3167 13.1523 32.8301 13.1523Z" fill="#8A9198"/>
</svg>
