<svg width="84" height="16" viewBox="0 0 84 16" fill="none" xmlns="http://www.w3.org/2000/svg">
<path d="M1.04661 13V3.54199H3.18092L5.2443 8.96723C5.30236 9.12744 5.3684 9.33114 5.44241 9.57831C5.51643 9.82549 5.59372 10.0929 5.67429 10.3807C5.75487 10.6684 5.8315 10.9518 5.90421 11.2309C5.97691 11.51 6.03962 11.762 6.09235 11.9869H5.78805C5.84424 11.7725 5.9085 11.5274 5.98082 11.2517C6.05314 10.9761 6.12959 10.6935 6.21016 10.4041C6.29074 10.1146 6.36871 9.84371 6.44408 9.59133C6.51944 9.33895 6.58616 9.13091 6.64422 8.96723L8.67929 3.54199H10.82V13H9.38044V7.91234C9.38044 7.71387 9.38226 7.48009 9.3859 7.21099C9.38954 6.94189 9.3951 6.6561 9.40259 6.35361C9.41008 6.05113 9.41738 5.74479 9.42449 5.4346C9.4316 5.12442 9.43689 4.82726 9.44036 4.54314H9.54992C9.46334 4.85494 9.37052 5.17393 9.27145 5.50011C9.17238 5.8263 9.07467 6.1419 8.97832 6.44693C8.88196 6.75195 8.7907 7.03093 8.70454 7.28386C8.61838 7.53679 8.54492 7.74629 8.48415 7.91234L6.55319 13H5.31045L3.35003 7.91234C3.28926 7.74976 3.21735 7.5446 3.13428 7.29687C3.05121 7.04915 2.96111 6.77451 2.86399 6.47295C2.76687 6.1714 2.66772 5.85579 2.56654 5.52614C2.46536 5.19648 2.36416 4.86882 2.26293 4.54314H2.38976C2.3967 4.80297 2.40372 5.08451 2.41083 5.38776C2.41794 5.69101 2.42438 5.99647 2.43013 6.30417C2.43589 6.61186 2.44145 6.90459 2.44682 7.18236C2.4522 7.46013 2.45489 7.70346 2.45489 7.91234V13H1.04661ZM15.221 13.0889C14.739 13.0889 14.3162 12.9876 13.9525 12.7851C13.5887 12.5826 13.3062 12.2821 13.1048 11.8836C12.9034 11.485 12.8027 10.9946 12.8027 10.4124V5.90332H14.1989V10.2384C14.1989 10.7493 14.3329 11.1494 14.6009 11.4389C14.8688 11.7284 15.2348 11.8732 15.6986 11.8732C16.0143 11.8732 16.2961 11.8043 16.5438 11.6664C16.7916 11.5286 16.9873 11.3273 17.1309 11.0626C17.2746 10.7979 17.3464 10.4798 17.3464 10.1083V5.90332H18.7478V13H17.4114L17.4022 11.2626H17.5409C17.3315 11.9042 17.0285 12.3689 16.632 12.6569C16.2355 12.9449 15.7652 13.0889 15.221 13.0889ZM22.0193 3.54199V13H20.623V3.54199H22.0193ZM27.1263 5.90332V7.03853H23.2769V5.90332H27.1263ZM24.3136 4.21484H25.7098V11.0803C25.7098 11.3673 25.7696 11.5772 25.8891 11.7103C26.0086 11.8433 26.2068 11.9099 26.4837 11.9099C26.5564 11.9099 26.6519 11.9012 26.7701 11.8839C26.8883 11.8666 26.9898 11.8495 27.0745 11.8325L27.322 12.9516C27.1722 13.0008 27.0126 13.0365 26.8429 13.0588C26.6733 13.0811 26.5071 13.0923 26.3445 13.0923C25.6982 13.0923 25.1981 12.9268 24.8443 12.5958C24.4905 12.2649 24.3136 11.7981 24.3136 11.1955V4.21484ZM28.5132 13V5.90332H29.9094V13H28.5132ZM29.2153 4.82053C28.9759 4.82053 28.7699 4.73922 28.5973 4.5766C28.4248 4.41397 28.3385 4.21882 28.3385 3.99115C28.3385 3.75883 28.4248 3.56243 28.5973 3.40196C28.7699 3.2415 28.9759 3.16126 29.2153 3.16126C29.458 3.16126 29.6657 3.24146 29.8384 3.40184C30.0111 3.56223 30.0974 3.75864 30.0974 3.99109C30.0974 4.21888 30.0111 4.41407 29.8384 4.57666C29.6657 4.73924 29.458 4.82053 29.2153 4.82053ZM33.8217 13L31.1444 5.90332H32.652L34.0564 9.93701C34.2127 10.3805 34.3461 10.8252 34.4567 11.2712C34.5673 11.7171 34.6825 12.1592 34.8022 12.5974H34.3866C34.5056 12.1592 34.6201 11.7173 34.7304 11.2717C34.8406 10.8262 34.9717 10.3813 35.1237 9.93701L36.5237 5.90332H38.0244L35.3448 13H33.8217ZM39.2597 13V5.90332H40.656V13H39.2597ZM39.9619 4.82053C39.7225 4.82053 39.5165 4.73922 39.3439 4.5766C39.1713 4.41397 39.0851 4.21882 39.0851 3.99115C39.0851 3.75883 39.1713 3.56243 39.3439 3.40196C39.5165 3.2415 39.7225 3.16126 39.9619 3.16126C40.2046 3.16126 40.4123 3.24146 40.585 3.40184C40.7576 3.56223 40.844 3.75864 40.844 3.99109C40.844 4.21888 40.7576 4.41407 40.585 4.57666C40.4123 4.73924 40.2046 4.82053 39.9619 4.82053ZM45.5726 5.90332V7.03853H41.7231V5.90332H45.5726ZM42.7598 4.21484H44.1561V11.0803C44.1561 11.3673 44.2158 11.5772 44.3354 11.7103C44.4549 11.8433 44.6531 11.9099 44.93 11.9099C45.0027 11.9099 45.0981 11.9012 45.2164 11.8839C45.3346 11.8666 45.4361 11.8495 45.5208 11.8325L45.7682 12.9516C45.6185 13.0008 45.4588 13.0365 45.2892 13.0588C45.1195 13.0811 44.9534 13.0923 44.7908 13.0923C44.1445 13.0923 43.6444 12.9268 43.2906 12.5958C42.9368 12.2649 42.7598 11.7981 42.7598 11.1955V4.21484ZM49.0086 13.1559C48.5593 13.1559 48.1531 13.073 47.7901 12.9071C47.4271 12.7413 47.1396 12.4974 46.9276 12.1753C46.7156 11.8533 46.6096 11.4591 46.6096 10.9929C46.6096 10.5897 46.6873 10.2592 46.8428 10.0015C46.9983 9.74378 47.2075 9.53926 47.4705 9.38793C47.7335 9.2366 48.027 9.12287 48.3509 9.04674C48.6749 8.97061 49.0053 8.91291 49.3422 8.87364C49.7608 8.8232 50.101 8.78203 50.3626 8.75012C50.6243 8.71821 50.8177 8.66533 50.943 8.59149C51.0683 8.51765 51.1309 8.3974 51.1309 8.23075V8.19495C51.1309 7.92996 51.0799 7.70569 50.9778 7.52216C50.8758 7.33863 50.7239 7.19775 50.5221 7.09953C50.3204 7.00131 50.0693 6.9522 49.7689 6.9522C49.4624 6.9522 49.1984 6.99977 48.977 7.0949C48.7556 7.19003 48.5755 7.31104 48.4367 7.45792C48.2979 7.60481 48.1946 7.75886 48.1268 7.9201L46.8127 7.58227C46.9741 7.15672 47.2051 6.81486 47.5056 6.55668C47.8061 6.2985 48.1508 6.11025 48.5396 5.99193C48.9284 5.87361 49.3317 5.81445 49.7498 5.81445C50.0347 5.81445 50.338 5.84854 50.6596 5.91671C50.9812 5.98489 51.2835 6.10742 51.5664 6.2843C51.8494 6.46119 52.0802 6.71116 52.259 7.03422C52.4377 7.35727 52.5271 7.77541 52.5271 8.28864V13H51.1762V12.0283H51.1046C51.0128 12.2116 50.8759 12.3899 50.694 12.5633C50.5121 12.7366 50.282 12.8787 50.0038 12.9896C49.7256 13.1005 49.3939 13.1559 49.0086 13.1559ZM49.3185 12.0381C49.7005 12.0381 50.0267 11.9632 50.297 11.8134C50.5673 11.6636 50.7746 11.4667 50.9189 11.2228C51.0633 10.9789 51.1355 10.7195 51.1355 10.4447V9.53278C51.0851 9.58246 50.9889 9.6278 50.8468 9.66881C50.7047 9.70982 50.5434 9.7461 50.3629 9.77767C50.1825 9.80924 50.0069 9.83609 49.8361 9.85823C49.6653 9.88036 49.5256 9.89815 49.4171 9.91161C49.1558 9.9447 48.9158 10.0014 48.6973 10.0816C48.4788 10.1618 48.3052 10.276 48.1765 10.424C48.0479 10.572 47.9836 10.7681 47.9836 11.0123C47.9836 11.2372 48.0413 11.4255 48.1569 11.5772C48.2724 11.7289 48.4303 11.8436 48.6305 11.9214C48.8308 11.9992 49.0601 12.0381 49.3185 12.0381ZM54.4053 13V5.90332H55.7355L55.7704 7.54965H55.6655C55.7659 7.14704 55.9218 6.81603 56.1331 6.55662C56.3445 6.29721 56.5921 6.10346 56.8758 5.97537C57.1595 5.84727 57.4555 5.78322 57.764 5.78322C58.278 5.78322 58.6938 5.94306 59.0114 6.26272C59.329 6.58239 59.5435 7.02702 59.6549 7.59662H59.4797C59.5712 7.20763 59.7317 6.87817 59.9613 6.60823C60.191 6.33828 60.4667 6.1333 60.7884 5.99327C61.1102 5.85324 61.4572 5.78322 61.8292 5.78322C62.2473 5.78322 62.626 5.87399 62.9653 6.05554C63.3046 6.23708 63.574 6.50751 63.7735 6.86683C63.973 7.22615 64.0727 7.67516 64.0727 8.21387V13H62.6765V8.35643C62.6765 7.88095 62.5444 7.53718 62.2803 7.32512C62.0161 7.11307 61.7043 7.00704 61.3448 7.00704C61.0533 7.00704 60.8014 7.06893 60.589 7.19271C60.3767 7.31649 60.2132 7.48695 60.0987 7.70408C59.9841 7.92121 59.9268 8.17163 59.9268 8.45533V13H58.5512V8.26274C58.5512 7.88442 58.4295 7.58055 58.1862 7.35115C57.9428 7.12175 57.6327 7.00704 57.2559 7.00704C56.9983 7.00704 56.7583 7.0672 56.536 7.18751C56.3136 7.30782 56.1356 7.48521 56.0019 7.7197C55.8683 7.95418 55.8015 8.2445 55.8015 8.59066V13H54.4053ZM65.9516 13V5.90332H67.3479V13H65.9516ZM66.6538 4.82053C66.4144 4.82053 66.2084 4.73922 66.0358 4.5766C65.8632 4.41397 65.777 4.21882 65.777 3.99115C65.777 3.75883 65.8632 3.56243 66.0358 3.40196C66.2084 3.2415 66.4144 3.16126 66.6538 3.16126C66.8965 3.16126 67.1042 3.24146 67.2769 3.40184C67.4495 3.56223 67.5359 3.75864 67.5359 3.99109C67.5359 4.21888 67.4495 4.41407 67.2769 4.57666C67.1042 4.73924 66.8965 4.82053 66.6538 4.82053ZM70.6233 8.79506V13H69.227V5.90332H70.5583L70.5726 7.64067H70.4288C70.6347 7.00608 70.9342 6.54306 71.3272 6.25162C71.7203 5.96017 72.1958 5.81445 72.7538 5.81445C73.2365 5.81445 73.6587 5.9157 74.0203 6.11819C74.3819 6.32068 74.6634 6.62033 74.8648 7.01714C75.0662 7.41396 75.1669 7.9052 75.1669 8.49088V13H73.7707V8.66493C73.7707 8.15407 73.6376 7.75389 73.3714 7.46439C73.1051 7.1749 72.7401 7.03015 72.2762 7.03015C71.9613 7.03015 71.6789 7.09906 71.429 7.23689C71.1791 7.37472 70.9823 7.57493 70.8387 7.83751C70.6951 8.10009 70.6233 8.41927 70.6233 8.79506ZM79.5954 13.1478C79.0806 13.1478 78.6235 13.0733 78.2242 12.9243C77.8249 12.7753 77.497 12.556 77.2405 12.2664C76.984 11.9768 76.8138 11.6236 76.73 11.2067L78.0451 10.9316C78.1436 11.3011 78.3254 11.574 78.5904 11.7502C78.8554 11.9265 79.1938 12.0146 79.6056 12.0146C80.0565 12.0146 80.4151 11.921 80.6814 11.7338C80.9477 11.5466 81.0809 11.3203 81.0809 11.055C81.0809 10.8293 80.9988 10.6425 80.8347 10.4944C80.6705 10.3463 80.4193 10.2347 80.081 10.1597L78.8866 9.88952C78.2297 9.74098 77.7405 9.5043 77.4189 9.17947C77.0974 8.85464 76.9366 8.43722 76.9366 7.92721C76.9366 7.50496 77.0541 7.13546 77.2891 6.81872C77.5241 6.50197 77.8478 6.2554 78.2603 6.07902C78.6727 5.90264 79.1463 5.81445 79.6811 5.81445C80.1929 5.81445 80.6307 5.88897 80.9946 6.03802C81.3585 6.18706 81.6538 6.39397 81.8804 6.65875C82.1071 6.92354 82.2703 7.23184 82.37 7.58367L81.1171 7.86055C81.0274 7.61046 80.8729 7.39068 80.6538 7.20122C80.4346 7.01176 80.1152 6.91704 79.6955 6.91704C79.3088 6.91704 78.9864 7.00389 78.7283 7.17761C78.4701 7.35132 78.341 7.57296 78.341 7.84253C78.341 8.07672 78.4273 8.26725 78.5998 8.41414C78.7723 8.56102 79.0526 8.67856 79.4407 8.76675L80.5808 9.02066C81.2385 9.16843 81.7262 9.4015 82.0439 9.71985C82.3616 10.0382 82.5204 10.4441 82.5204 10.9376C82.5204 11.3691 82.3969 11.7509 82.1498 12.083C81.9028 12.4151 81.5594 12.6756 81.1197 12.8645C80.68 13.0533 80.1719 13.1478 79.5954 13.1478Z" fill="#0B1A2B"/>
</svg>
