<svg width="149" height="16" viewBox="0 0 149 16" fill="none" xmlns="http://www.w3.org/2000/svg">
<path d="M3.80859 13L0.330078 3.54199H1.59961L3.59912 9.15332C3.71338 9.47493 3.8562 9.90446 4.02759 10.4419C4.19897 10.9793 4.39893 11.6416 4.62744 12.4287H4.39258C4.62109 11.6204 4.81999 10.9529 4.98926 10.426C5.15853 9.89917 5.29818 9.47493 5.4082 9.15332L7.35693 3.54199H8.63916L5.19873 13H3.80859ZM9.97217 13V5.90332H11.1147V13H9.97217ZM10.5498 4.7417C10.334 4.7417 10.1478 4.66764 9.99121 4.51953C9.83464 4.37142 9.75635 4.19368 9.75635 3.98633C9.75635 3.77474 9.83464 3.59595 9.99121 3.44995C10.1478 3.30396 10.334 3.23096 10.5498 3.23096C10.7699 3.23096 10.9582 3.30396 11.1147 3.44995C11.2713 3.59595 11.3496 3.77474 11.3496 3.98633C11.3496 4.19368 11.2713 4.37142 11.1147 4.51953C10.9582 4.66764 10.7699 4.7417 10.5498 4.7417ZM15.9136 5.90332V6.88086H12.2446V5.90332H15.9136ZM13.311 4.21484H14.4536V11.1592C14.4536 11.4766 14.5181 11.7083 14.6472 11.8542C14.7763 12.0002 14.991 12.0732 15.2915 12.0732C15.3634 12.0732 15.4555 12.0648 15.5676 12.0479C15.6798 12.0309 15.7824 12.014 15.8755 11.9971L16.1104 12.9619C15.9919 13.0042 15.8575 13.036 15.7073 13.0571C15.557 13.0783 15.4079 13.0889 15.2598 13.0889C14.6462 13.0889 14.168 12.927 13.8252 12.6033C13.4824 12.2795 13.311 11.8278 13.311 11.248V4.21484ZM19.4238 13.165C18.9753 13.165 18.568 13.0804 18.2019 12.9111C17.8359 12.7419 17.5449 12.4943 17.3291 12.1685C17.1133 11.8426 17.0054 11.4469 17.0054 10.9814C17.0054 10.5752 17.0858 10.2451 17.2466 9.99121C17.4074 9.7373 17.6222 9.53735 17.8909 9.39136C18.1596 9.24536 18.4569 9.13639 18.7827 9.06445C19.1086 8.99251 19.4365 8.93538 19.7666 8.89307C20.1898 8.83805 20.5347 8.79574 20.8013 8.76611C21.0679 8.73649 21.2657 8.68571 21.3948 8.61377C21.5238 8.54183 21.5884 8.41911 21.5884 8.24561V8.20752C21.5884 7.9113 21.5334 7.66056 21.4233 7.45532C21.3133 7.25008 21.1483 7.09245 20.9282 6.98242C20.7082 6.8724 20.4331 6.81738 20.103 6.81738C19.7645 6.81738 19.4746 6.87028 19.2334 6.97607C18.9922 7.08187 18.7965 7.21411 18.6462 7.3728C18.496 7.53149 18.3828 7.69336 18.3066 7.8584L17.2085 7.49658C17.3905 7.06494 17.6359 6.72746 17.9448 6.48413C18.2537 6.2408 18.5944 6.06836 18.9668 5.9668C19.3392 5.86523 19.7074 5.81445 20.0713 5.81445C20.3083 5.81445 20.578 5.84302 20.8806 5.90015C21.1832 5.95728 21.4752 6.07048 21.7566 6.23975C22.038 6.40902 22.2708 6.65975 22.4548 6.99194C22.6389 7.32414 22.731 7.76742 22.731 8.32178V13H21.6074V12.0352H21.5312C21.4508 12.2002 21.3218 12.3705 21.144 12.5461C20.9663 12.7218 20.7357 12.8688 20.4521 12.9873C20.1686 13.1058 19.8258 13.165 19.4238 13.165ZM19.6206 12.1558C20.0438 12.1558 20.4014 12.0732 20.6934 11.9082C20.9854 11.7432 21.2075 11.5284 21.3599 11.2639C21.5122 10.9994 21.5884 10.7233 21.5884 10.4355V9.45166C21.5418 9.50667 21.4403 9.5564 21.2837 9.60083C21.1271 9.64526 20.9483 9.68441 20.7473 9.71826C20.5463 9.75212 20.3516 9.78068 20.1633 9.80396C19.975 9.82723 19.8258 9.84521 19.7158 9.85791C19.4408 9.89176 19.1837 9.94995 18.9446 10.0325C18.7055 10.115 18.514 10.2356 18.3701 10.3943C18.2262 10.553 18.1543 10.7677 18.1543 11.0386C18.1543 11.284 18.2178 11.4893 18.3447 11.6543C18.4717 11.8193 18.6452 11.9442 18.8652 12.0288C19.0853 12.1134 19.3371 12.1558 19.6206 12.1558ZM24.7368 13V5.90332H25.8477L25.854 7.49023H25.7651C25.8625 7.10514 26.0159 6.7867 26.2253 6.53491C26.4348 6.28312 26.6803 6.09375 26.9617 5.9668C27.2431 5.83984 27.5361 5.77637 27.8408 5.77637C28.3571 5.77637 28.775 5.93506 29.0945 6.25244C29.414 6.56982 29.6203 6.98665 29.7134 7.50293H29.561C29.6457 7.14746 29.8001 6.84066 30.0244 6.58252C30.2487 6.32438 30.5206 6.12549 30.8401 5.98584C31.1596 5.84619 31.5076 5.77637 31.8843 5.77637C32.2948 5.77637 32.6693 5.86523 33.0078 6.04297C33.3464 6.2207 33.6161 6.48942 33.8171 6.84912C34.0181 7.20882 34.1187 7.66374 34.1187 8.21387V13H32.9761V8.24561C32.9761 7.73356 32.8322 7.36751 32.5444 7.14746C32.2567 6.92741 31.9224 6.81738 31.5415 6.81738C31.2241 6.81738 30.9501 6.88403 30.7195 7.01733C30.4889 7.15063 30.3111 7.33366 30.1863 7.56641C30.0614 7.79915 29.999 8.06576 29.999 8.36621V13H28.8564V8.13135C28.8564 7.73779 28.7253 7.42041 28.4629 7.1792C28.2005 6.93799 27.8683 6.81738 27.4663 6.81738C27.1912 6.81738 26.932 6.88192 26.6887 7.01099C26.4454 7.14006 26.2497 7.33154 26.1016 7.58545C25.9535 7.83936 25.8794 8.15462 25.8794 8.53125V13H24.7368ZM36.1245 13V5.90332H37.2671V13H36.1245ZM36.7021 4.7417C36.4863 4.7417 36.3001 4.66764 36.1436 4.51953C35.987 4.37142 35.9087 4.19368 35.9087 3.98633C35.9087 3.77474 35.987 3.59595 36.1436 3.44995C36.3001 3.30396 36.4863 3.23096 36.7021 3.23096C36.9222 3.23096 37.1105 3.30396 37.2671 3.44995C37.4237 3.59595 37.502 3.77474 37.502 3.98633C37.502 4.19368 37.4237 4.37142 37.2671 4.51953C37.1105 4.66764 36.9222 4.7417 36.7021 4.7417ZM40.4155 8.74707V13H39.2729V5.90332H40.3711L40.3774 7.62354H40.2188C40.4346 6.96761 40.7424 6.50212 41.1423 6.22705C41.5422 5.95199 42.0109 5.81445 42.5483 5.81445C43.0265 5.81445 43.4455 5.91284 43.8052 6.10962C44.1649 6.3064 44.4452 6.60262 44.6462 6.99829C44.8472 7.39396 44.9478 7.89225 44.9478 8.49316V13H43.8052V8.58838C43.8052 8.04248 43.6624 7.61507 43.3767 7.30615C43.0911 6.99723 42.7007 6.84277 42.2056 6.84277C41.867 6.84277 41.5623 6.91683 41.2915 7.06494C41.0207 7.21305 40.807 7.42887 40.6504 7.7124C40.4938 7.99593 40.4155 8.34082 40.4155 8.74707ZM49.3657 13.1523C48.8791 13.1523 48.4464 13.0815 48.0676 12.9397C47.6889 12.7979 47.3768 12.5874 47.1313 12.3081C46.8859 12.0288 46.7209 11.686 46.6362 11.2798L47.7217 11.0195C47.8232 11.4089 48.0147 11.6945 48.2961 11.8765C48.5776 12.0584 48.9299 12.1494 49.353 12.1494C49.8481 12.1494 50.2428 12.0436 50.5369 11.832C50.831 11.6204 50.978 11.3687 50.978 11.0767C50.978 10.8312 50.8923 10.627 50.7209 10.4641C50.5496 10.3012 50.2882 10.1795 49.937 10.0991L48.7563 9.81982C48.1131 9.66748 47.6349 9.43156 47.3218 9.11206C47.0086 8.79256 46.8521 8.38314 46.8521 7.88379C46.8521 7.47754 46.9663 7.1189 47.1948 6.80786C47.4233 6.49683 47.7354 6.2535 48.1311 6.07788C48.5268 5.90226 48.9764 5.81445 49.48 5.81445C49.9666 5.81445 50.3803 5.88745 50.7209 6.03345C51.0616 6.17944 51.3388 6.38045 51.5525 6.63647C51.7662 6.8925 51.9259 7.18766 52.0317 7.52197L50.9971 7.78857C50.8997 7.53467 50.7379 7.30404 50.5115 7.09668C50.2851 6.88932 49.9434 6.78564 49.4863 6.78564C49.0632 6.78564 48.7109 6.88298 48.4294 7.07764C48.148 7.2723 48.0073 7.51774 48.0073 7.81396C48.0073 8.07633 48.1025 8.28687 48.293 8.44556C48.4834 8.60425 48.786 8.73226 49.2007 8.82959L50.2734 9.0835C50.9167 9.23584 51.3927 9.47176 51.7017 9.79126C52.0106 10.1108 52.165 10.5138 52.165 11.0005C52.165 11.4152 52.0476 11.7844 51.8127 12.1082C51.5779 12.4319 51.2499 12.6868 50.8289 12.873C50.4078 13.0592 49.9201 13.1523 49.3657 13.1523ZM60.1504 13.127C59.5283 13.127 58.9909 13.0116 58.5381 12.781C58.0853 12.5504 57.7372 12.2393 57.4939 11.8479C57.2506 11.4565 57.1289 11.0174 57.1289 10.5308C57.1289 10.116 57.2135 9.75846 57.3828 9.45801C57.5521 9.15755 57.7859 8.87826 58.0842 8.62012C58.3826 8.36198 58.7201 8.09326 59.0967 7.81396L60.4995 6.7793C60.6138 6.69466 60.7386 6.5931 60.874 6.47461C61.0094 6.35612 61.1248 6.21436 61.22 6.04932C61.3152 5.88428 61.3628 5.69173 61.3628 5.47168C61.3628 5.17122 61.2623 4.92367 61.0613 4.729C60.8603 4.53434 60.5884 4.43701 60.2456 4.43701C60.0086 4.43701 59.7992 4.48568 59.6172 4.58301C59.4352 4.68034 59.2945 4.8147 59.1951 4.98608C59.0956 5.15747 59.0459 5.35742 59.0459 5.58594C59.0459 5.82292 59.0999 6.04932 59.2078 6.26514C59.3157 6.48096 59.4627 6.70524 59.6489 6.93799C59.8351 7.17074 60.0467 7.43099 60.2837 7.71875L64.6382 13H63.2607L59.6743 8.69629C59.3358 8.28581 59.0321 7.9187 58.7634 7.59497C58.4947 7.27124 58.2831 6.95068 58.1287 6.6333C57.9742 6.31592 57.897 5.96891 57.897 5.59229C57.897 5.17334 57.9922 4.80306 58.1826 4.48145C58.373 4.15983 58.6428 3.90804 58.9919 3.72607C59.3411 3.54411 59.7484 3.45312 60.2139 3.45312C60.6878 3.45312 61.0962 3.54517 61.439 3.72925C61.7817 3.91333 62.0462 4.15877 62.2324 4.46558C62.4186 4.77238 62.5117 5.1141 62.5117 5.49072C62.5117 5.77848 62.4578 6.04508 62.3499 6.29053C62.2419 6.53597 62.0938 6.76237 61.9055 6.96973C61.7172 7.17708 61.5003 7.37174 61.2549 7.55371L59.3633 8.95654C58.974 9.2443 58.7 9.51196 58.5413 9.75952C58.3826 10.0071 58.3032 10.2769 58.3032 10.5688C58.3032 10.8778 58.3773 11.1497 58.5254 11.3845C58.6735 11.6194 58.8809 11.8024 59.1475 11.9336C59.4141 12.0648 59.7209 12.1304 60.0679 12.1304C60.4445 12.1304 60.8063 12.0531 61.1533 11.8987C61.5003 11.7442 61.8114 11.5231 62.0864 11.2354C62.3615 10.9476 62.5794 10.6006 62.7402 10.1943C62.901 9.78809 62.9814 9.33105 62.9814 8.82324H64.0796C64.0796 9.44954 64.0076 9.9637 63.8638 10.3657C63.7199 10.7677 63.5559 11.0851 63.3718 11.3179C63.1877 11.5506 63.0343 11.7262 62.9116 11.8447L62.6831 12.1304C62.3742 12.4647 61.988 12.7144 61.5247 12.8794C61.0613 13.0444 60.6032 13.127 60.1504 13.127ZM72.668 13.165C71.9867 13.165 71.3953 13.055 70.8938 12.835C70.3923 12.6149 69.9998 12.307 69.7163 11.9114C69.4328 11.5157 69.272 11.0534 69.2339 10.5244H70.4717C70.5055 10.8799 70.6261 11.1729 70.8335 11.4036C71.0409 11.6342 71.3064 11.8056 71.6301 11.9177C71.9539 12.0299 72.2998 12.0859 72.668 12.0859C73.0954 12.0859 73.4794 12.0161 73.8201 11.8765C74.1607 11.7368 74.4305 11.54 74.6294 11.2861C74.8283 11.0322 74.9277 10.7381 74.9277 10.4038C74.9277 10.0991 74.842 9.85156 74.6707 9.66113C74.4993 9.4707 74.2718 9.31413 73.9883 9.19141C73.7048 9.06868 73.3937 8.96077 73.0552 8.86768L71.9126 8.54395C71.1509 8.32812 70.5584 8.01921 70.1353 7.61719C69.7121 7.21517 69.5005 6.70101 69.5005 6.07471C69.5005 5.5415 69.6444 5.07495 69.9321 4.67505C70.2199 4.27515 70.6092 3.96517 71.1001 3.74512C71.591 3.52507 72.1411 3.41504 72.7505 3.41504C73.3726 3.41504 73.9227 3.52507 74.4009 3.74512C74.8791 3.96517 75.2568 4.26457 75.5339 4.64331C75.8111 5.02205 75.9582 5.45052 75.9751 5.92871H74.7944C74.7394 5.46745 74.5194 5.11092 74.1343 4.85913C73.7492 4.60734 73.2752 4.48145 72.7124 4.48145C72.3062 4.48145 71.9496 4.5481 71.6428 4.6814C71.336 4.8147 71.098 4.99666 70.9287 5.22729C70.7594 5.45793 70.6748 5.72135 70.6748 6.01758C70.6748 6.34766 70.7774 6.6132 70.9827 6.81421C71.1879 7.01522 71.4312 7.17179 71.7126 7.28394C71.9941 7.39608 72.249 7.48389 72.4775 7.54736L73.4233 7.80762C73.6772 7.87533 73.9576 7.96842 74.2644 8.08691C74.5712 8.2054 74.8643 8.36304 75.1436 8.55981C75.4229 8.75659 75.6524 9.00627 75.8323 9.30884C76.0121 9.61141 76.1021 9.98275 76.1021 10.4229C76.1021 10.9391 75.9677 11.4046 75.699 11.8193C75.4303 12.234 75.0399 12.562 74.5278 12.8032C74.0158 13.0444 73.3958 13.165 72.668 13.165ZM80.2471 13.0889C79.7689 13.0889 79.3489 12.9905 78.9871 12.7937C78.6252 12.5969 78.3438 12.2996 78.1428 11.9019C77.9418 11.5041 77.8413 11.0068 77.8413 10.4102V5.90332H78.9839V10.3149C78.9839 10.8608 79.1278 11.2882 79.4155 11.5972C79.7033 11.9061 80.0947 12.0605 80.5898 12.0605C80.9284 12.0605 81.232 11.9865 81.5007 11.8384C81.7694 11.6903 81.9821 11.4734 82.1387 11.1877C82.2952 10.9021 82.3735 10.5583 82.3735 10.1562V5.90332H83.5225V13H82.418V11.2798H82.5703C82.3503 11.9442 82.0382 12.4118 81.634 12.6826C81.2299 12.9535 80.7676 13.0889 80.2471 13.0889ZM85.5283 15.6533V5.90332H86.6328V7.03955H86.7598C86.8402 6.9126 86.9523 6.75285 87.0962 6.5603C87.2401 6.36776 87.4474 6.19531 87.7183 6.04297C87.9891 5.89062 88.3551 5.81445 88.8164 5.81445C89.4089 5.81445 89.9304 5.96257 90.3811 6.25879C90.8318 6.55501 91.1851 6.97713 91.4412 7.52515C91.6972 8.07316 91.8252 8.72168 91.8252 9.4707C91.8252 10.224 91.6982 10.8757 91.4443 11.4258C91.1904 11.9759 90.8381 12.4012 90.3875 12.7017C89.9368 13.0021 89.4152 13.1523 88.8228 13.1523C88.3742 13.1523 88.0124 13.0751 87.7373 12.9207C87.4622 12.7662 87.2507 12.5906 87.1025 12.3938C86.9544 12.197 86.8402 12.033 86.7598 11.9019H86.6709V15.6533H85.5283ZM88.6514 12.1304C89.0957 12.1304 89.467 12.0108 89.7654 11.7717C90.0637 11.5326 90.288 11.211 90.4382 10.8069C90.5885 10.4028 90.6636 9.95312 90.6636 9.45801C90.6636 8.96712 90.5895 8.52384 90.4414 8.12817C90.2933 7.7325 90.0701 7.41829 89.7717 7.18555C89.4734 6.9528 89.0999 6.83643 88.6514 6.83643C88.2155 6.83643 87.8494 6.94645 87.5532 7.1665C87.257 7.38656 87.0338 7.6923 86.8835 8.08374C86.7333 8.47518 86.6582 8.93327 86.6582 9.45801C86.6582 9.98275 86.7344 10.4461 86.8867 10.8481C87.0391 11.2502 87.2644 11.5644 87.5627 11.7908C87.8611 12.0172 88.224 12.1304 88.6514 12.1304ZM93.4883 15.6533V5.90332H94.5928V7.03955H94.7197C94.8001 6.9126 94.9123 6.75285 95.0562 6.5603C95.2 6.36776 95.4074 6.19531 95.6782 6.04297C95.9491 5.89062 96.3151 5.81445 96.7764 5.81445C97.3688 5.81445 97.8904 5.96257 98.3411 6.25879C98.7917 6.55501 99.1451 6.97713 99.4011 7.52515C99.6571 8.07316 99.7852 8.72168 99.7852 9.4707C99.7852 10.224 99.6582 10.8757 99.4043 11.4258C99.1504 11.9759 98.7981 12.4012 98.3474 12.7017C97.8967 13.0021 97.3752 13.1523 96.7827 13.1523C96.3341 13.1523 95.9723 13.0751 95.6973 12.9207C95.4222 12.7662 95.2106 12.5906 95.0625 12.3938C94.9144 12.197 94.8001 12.033 94.7197 11.9019H94.6309V15.6533H93.4883ZM96.6113 12.1304C97.0557 12.1304 97.427 12.0108 97.7253 11.7717C98.0237 11.5326 98.248 11.211 98.3982 10.8069C98.5484 10.4028 98.6235 9.95312 98.6235 9.45801C98.6235 8.96712 98.5495 8.52384 98.4014 8.12817C98.2533 7.7325 98.03 7.41829 97.7317 7.18555C97.4333 6.9528 97.0599 6.83643 96.6113 6.83643C96.1755 6.83643 95.8094 6.94645 95.5132 7.1665C95.217 7.38656 94.9937 7.6923 94.8435 8.08374C94.6933 8.47518 94.6182 8.93327 94.6182 9.45801C94.6182 9.98275 94.6943 10.4461 94.8467 10.8481C94.999 11.2502 95.2244 11.5644 95.5227 11.7908C95.821 12.0172 96.1839 12.1304 96.6113 12.1304ZM102.591 3.54199V13H101.448V3.54199H102.591ZM107.58 13.1523C106.895 13.1523 106.303 13 105.806 12.6953C105.309 12.3906 104.926 11.9653 104.657 11.4194C104.388 10.8735 104.254 10.2367 104.254 9.50879C104.254 8.78092 104.385 8.13981 104.647 7.58545C104.91 7.03109 105.281 6.59733 105.761 6.28418C106.242 5.97103 106.804 5.81445 107.447 5.81445C107.823 5.81445 108.195 5.87687 108.561 6.00171C108.927 6.12655 109.259 6.32756 109.557 6.60474C109.856 6.88192 110.094 7.24691 110.271 7.69971C110.449 8.15251 110.538 8.70687 110.538 9.36279V9.83887H105.028V8.87402H109.922L109.389 9.22949C109.389 8.764 109.316 8.35034 109.17 7.98853C109.024 7.62671 108.807 7.34318 108.52 7.13794C108.232 6.9327 107.874 6.83008 107.447 6.83008C107.019 6.83008 106.653 6.93481 106.349 7.14429C106.044 7.35376 105.811 7.62671 105.65 7.96313C105.49 8.29956 105.409 8.66032 105.409 9.04541V9.68652C105.409 10.2113 105.5 10.6567 105.682 11.0227C105.864 11.3888 106.119 11.6659 106.447 11.8542C106.775 12.0426 107.155 12.1367 107.586 12.1367C107.866 12.1367 108.12 12.0965 108.348 12.0161C108.577 11.9357 108.773 11.814 108.938 11.6511C109.104 11.4882 109.23 11.2861 109.319 11.0449L110.424 11.3496C110.314 11.7051 110.128 12.0182 109.865 12.2891C109.603 12.5599 109.278 12.7715 108.891 12.9238C108.504 13.0762 108.067 13.1523 107.58 13.1523ZM112.176 13V5.90332H113.287L113.293 7.49023H113.204C113.301 7.10514 113.455 6.7867 113.664 6.53491C113.874 6.28312 114.119 6.09375 114.401 5.9668C114.682 5.83984 114.975 5.77637 115.28 5.77637C115.796 5.77637 116.214 5.93506 116.533 6.25244C116.853 6.56982 117.059 6.98665 117.152 7.50293H117C117.085 7.14746 117.239 6.84066 117.463 6.58252C117.688 6.32438 117.96 6.12549 118.279 5.98584C118.599 5.84619 118.947 5.77637 119.323 5.77637C119.734 5.77637 120.108 5.86523 120.447 6.04297C120.785 6.2207 121.055 6.48942 121.256 6.84912C121.457 7.20882 121.558 7.66374 121.558 8.21387V13H120.415V8.24561C120.415 7.73356 120.271 7.36751 119.983 7.14746C119.696 6.92741 119.361 6.81738 118.98 6.81738C118.663 6.81738 118.389 6.88403 118.158 7.01733C117.928 7.15063 117.75 7.33366 117.625 7.56641C117.5 7.79915 117.438 8.06576 117.438 8.36621V13H116.295V8.13135C116.295 7.73779 116.164 7.42041 115.902 7.1792C115.639 6.93799 115.307 6.81738 114.905 6.81738C114.63 6.81738 114.371 6.88192 114.128 7.01099C113.884 7.14006 113.689 7.33154 113.541 7.58545C113.392 7.83936 113.318 8.15462 113.318 8.53125V13H112.176ZM126.547 13.1523C125.861 13.1523 125.27 13 124.773 12.6953C124.275 12.3906 123.892 11.9653 123.624 11.4194C123.355 10.8735 123.221 10.2367 123.221 9.50879C123.221 8.78092 123.352 8.13981 123.614 7.58545C123.877 7.03109 124.248 6.59733 124.728 6.28418C125.209 5.97103 125.77 5.81445 126.414 5.81445C126.79 5.81445 127.162 5.87687 127.528 6.00171C127.894 6.12655 128.226 6.32756 128.524 6.60474C128.823 6.88192 129.061 7.24691 129.238 7.69971C129.416 8.15251 129.505 8.70687 129.505 9.36279V9.83887H123.995V8.87402H128.889L128.356 9.22949C128.356 8.764 128.283 8.35034 128.137 7.98853C127.991 7.62671 127.774 7.34318 127.486 7.13794C127.199 6.9327 126.841 6.83008 126.414 6.83008C125.986 6.83008 125.62 6.93481 125.315 7.14429C125.011 7.35376 124.778 7.62671 124.617 7.96313C124.456 8.29956 124.376 8.66032 124.376 9.04541V9.68652C124.376 10.2113 124.467 10.6567 124.649 11.0227C124.831 11.3888 125.086 11.6659 125.414 11.8542C125.742 12.0426 126.122 12.1367 126.553 12.1367C126.833 12.1367 127.086 12.0965 127.315 12.0161C127.543 11.9357 127.74 11.814 127.905 11.6511C128.07 11.4882 128.197 11.2861 128.286 11.0449L129.391 11.3496C129.281 11.7051 129.094 12.0182 128.832 12.2891C128.57 12.5599 128.245 12.7715 127.858 12.9238C127.47 13.0762 127.034 13.1523 126.547 13.1523ZM132.285 8.74707V13H131.143V5.90332H132.241L132.247 7.62354H132.088C132.304 6.96761 132.612 6.50212 133.012 6.22705C133.412 5.95199 133.881 5.81445 134.418 5.81445C134.896 5.81445 135.315 5.91284 135.675 6.10962C136.035 6.3064 136.315 6.60262 136.516 6.99829C136.717 7.39396 136.817 7.89225 136.817 8.49316V13H135.675V8.58838C135.675 8.04248 135.532 7.61507 135.246 7.30615C134.961 6.99723 134.57 6.84277 134.075 6.84277C133.737 6.84277 133.432 6.91683 133.161 7.06494C132.89 7.21305 132.677 7.42887 132.52 7.7124C132.363 7.99593 132.285 8.34082 132.285 8.74707ZM141.616 5.90332V6.88086H137.947V5.90332H141.616ZM139.014 4.21484H140.156V11.1592C140.156 11.4766 140.221 11.7083 140.35 11.8542C140.479 12.0002 140.694 12.0732 140.994 12.0732C141.066 12.0732 141.158 12.0648 141.27 12.0479C141.382 12.0309 141.485 12.014 141.578 11.9971L141.813 12.9619C141.694 13.0042 141.56 13.036 141.41 13.0571C141.26 13.0783 141.111 13.0889 140.962 13.0889C140.349 13.0889 139.871 12.927 139.528 12.6033C139.185 12.2795 139.014 11.8278 139.014 11.248V4.21484ZM145.361 13.1523C144.875 13.1523 144.442 13.0815 144.063 12.9397C143.684 12.7979 143.372 12.5874 143.127 12.3081C142.882 12.0288 142.716 11.686 142.632 11.2798L143.717 11.0195C143.819 11.4089 144.01 11.6945 144.292 11.8765C144.573 12.0584 144.925 12.1494 145.349 12.1494C145.844 12.1494 146.238 12.0436 146.532 11.832C146.827 11.6204 146.974 11.3687 146.974 11.0767C146.974 10.8312 146.888 10.627 146.717 10.4641C146.545 10.3012 146.284 10.1795 145.933 10.0991L144.752 9.81982C144.109 9.66748 143.631 9.43156 143.317 9.11206C143.004 8.79256 142.848 8.38314 142.848 7.88379C142.848 7.47754 142.962 7.1189 143.19 6.80786C143.419 6.49683 143.731 6.2535 144.127 6.07788C144.522 5.90226 144.972 5.81445 145.476 5.81445C145.962 5.81445 146.376 5.88745 146.717 6.03345C147.057 6.17944 147.334 6.38045 147.548 6.63647C147.762 6.8925 147.922 7.18766 148.027 7.52197L146.993 7.78857C146.895 7.53467 146.733 7.30404 146.507 7.09668C146.281 6.88932 145.939 6.78564 145.482 6.78564C145.059 6.78564 144.706 6.88298 144.425 7.07764C144.144 7.2723 144.003 7.51774 144.003 7.81396C144.003 8.07633 144.098 8.28687 144.289 8.44556C144.479 8.60425 144.782 8.73226 145.196 8.82959L146.269 9.0835C146.912 9.23584 147.388 9.47176 147.697 9.79126C148.006 10.1108 148.161 10.5138 148.161 11.0005C148.161 11.4152 148.043 11.7844 147.808 12.1082C147.573 12.4319 147.246 12.6868 146.824 12.873C146.403 13.0592 145.916 13.1523 145.361 13.1523Z" fill="#8A9198"/>
</svg>
