<svg width="438" height="80" viewBox="0 0 438 80" fill="none" xmlns="http://www.w3.org/2000/svg">
<rect x="12" y="2" width="414" height="56" rx="8" fill="#524E8D"/>
<g filter="url(#filter0_dd_205_1497)">
<rect x="12" y="2" width="414" height="56" rx="8" fill="white" fill-opacity="0.01" shape-rendering="crispEdges"/>
</g>
<path d="M145.06 38C144.51 38 144.039 37.8042 143.647 37.4125C143.255 37.0208 143.06 36.55 143.06 36V24C143.06 23.45 143.255 22.9792 143.647 22.5875C144.039 22.1958 144.51 22 145.06 22H161.06C161.61 22 162.08 22.1958 162.472 22.5875C162.864 22.9792 163.06 23.45 163.06 24V36C163.06 36.55 162.864 37.0208 162.472 37.4125C162.08 37.8042 161.61 38 161.06 38H145.06ZM153.06 31L145.06 26V36H161.06V26L153.06 31ZM153.06 29L161.06 24H145.06L153.06 29ZM145.06 26V24V26V36V26Z" fill="white"/>
<path d="M177.221 36.1562C176.192 36.1562 175.267 35.9217 174.447 35.4526C173.626 34.9835 172.977 34.3037 172.501 33.4133C172.025 32.5229 171.787 31.4476 171.787 30.1875C171.787 28.9194 172.025 27.8394 172.501 26.9476C172.977 26.0558 173.626 25.3754 174.447 24.9065C175.267 24.4376 176.192 24.2031 177.221 24.2031C178.249 24.2031 179.173 24.4376 179.991 24.9065C180.809 25.3754 181.456 26.0558 181.932 26.9476C182.409 27.8394 182.647 28.9194 182.647 30.1875C182.647 31.4504 182.409 32.5271 181.932 33.4175C181.456 34.3079 180.809 34.987 179.991 35.4547C179.173 35.9224 178.249 36.1562 177.221 36.1562ZM177.221 34.0387C177.823 34.0387 178.35 33.891 178.8 33.5957C179.25 33.3004 179.601 32.8659 179.851 32.2921C180.102 31.7183 180.227 31.0168 180.227 30.1875C180.227 29.3506 180.102 28.6446 179.851 28.0694C179.601 27.4942 179.25 27.0589 178.8 26.7636C178.35 26.4683 177.823 26.3207 177.221 26.3207C176.618 26.3207 176.091 26.4689 175.64 26.7654C175.189 27.0619 174.837 27.4978 174.585 28.073C174.333 28.6482 174.207 29.353 174.207 30.1875C174.207 31.0168 174.333 31.7177 174.585 32.2903C174.837 32.8629 175.189 33.2974 175.64 33.5939C176.091 33.8904 176.618 34.0387 177.221 34.0387ZM184.38 39.2656V27.2656H186.684V28.7358H186.798C186.906 28.5036 187.059 28.2655 187.259 28.0215C187.458 27.7775 187.723 27.5723 188.052 27.4059C188.381 27.2395 188.793 27.1562 189.287 27.1562C189.935 27.1562 190.526 27.3231 191.061 27.6567C191.596 27.9904 192.025 28.4902 192.347 29.1562C192.669 29.8223 192.83 30.6528 192.83 31.6478C192.83 32.6171 192.674 33.436 192.361 34.1047C192.049 34.7733 191.624 35.2806 191.088 35.6265C190.551 35.9724 189.947 36.1453 189.274 36.1453C188.801 36.1453 188.4 36.065 188.071 35.9045C187.742 35.7439 187.475 35.5453 187.271 35.3088C187.066 35.0722 186.908 34.8366 186.798 34.602H186.723V39.2656H184.38ZM188.552 34.2673C188.962 34.2673 189.305 34.1553 189.582 33.9314C189.859 33.7074 190.069 33.3974 190.212 33.0012C190.354 32.6051 190.426 32.1516 190.426 31.6406C190.426 31.1293 190.355 30.6779 190.213 30.2866C190.072 29.8952 189.863 29.5887 189.585 29.3669C189.308 29.1451 188.964 29.0343 188.552 29.0343C188.151 29.0343 187.81 29.1416 187.53 29.3561C187.25 29.5707 187.037 29.8725 186.891 30.2614C186.746 30.6504 186.673 31.1101 186.673 31.6406C186.673 32.1655 186.746 32.6247 186.893 33.0183C187.04 33.4118 187.254 33.7183 187.535 33.9379C187.817 34.1575 188.156 34.2673 188.552 34.2673ZM198.416 36.1706C197.524 36.1706 196.756 35.988 196.11 35.6229C195.464 35.2577 194.968 34.7392 194.622 34.0673C194.276 33.3955 194.103 32.599 194.103 31.6778C194.103 30.7792 194.275 29.9908 194.619 29.3127C194.963 28.6347 195.449 28.1057 196.078 27.7259C196.708 27.3461 197.448 27.1562 198.298 27.1562C198.869 27.1562 199.402 27.2471 199.897 27.4289C200.393 27.6107 200.828 27.8848 201.202 28.2513C201.576 28.6177 201.868 29.0782 202.079 29.6327C202.289 30.1871 202.394 30.8385 202.394 31.5867V32.2444H195.064V30.77H201.252L200.157 31.1653C200.157 30.7105 200.088 30.3153 199.949 29.9797C199.81 29.6441 199.604 29.3837 199.332 29.1986C199.059 29.0135 198.72 28.921 198.315 28.921C197.91 28.921 197.566 29.0147 197.284 29.2022C197.002 29.3897 196.787 29.6441 196.64 29.9653C196.493 30.2866 196.419 30.6518 196.419 31.0611V32.0991C196.419 32.6043 196.504 33.0287 196.673 33.3723C196.842 33.716 197.08 33.9741 197.386 34.1468C197.693 34.3195 198.049 34.4059 198.453 34.4059C198.727 34.4059 198.975 34.367 199.199 34.2891C199.422 34.2112 199.615 34.096 199.776 33.9433C199.937 33.7905 200.059 33.6023 200.143 33.3786L202.262 33.7705C202.121 34.253 201.876 34.6742 201.528 35.0343C201.18 35.3943 200.743 35.6737 200.219 35.8725C199.695 36.0712 199.094 36.1706 198.416 36.1706ZM206.34 30.9428V36H203.997V27.2656H206.209L206.246 29.4461H206.106C206.335 28.7176 206.683 28.1538 207.15 27.7548C207.617 27.3558 208.219 27.1562 208.956 27.1562C209.562 27.1562 210.089 27.2879 210.539 27.5512C210.989 27.8145 211.338 28.1917 211.587 28.6829C211.836 29.1741 211.96 29.7614 211.96 30.4447V36H209.617V30.853C209.617 30.3105 209.477 29.885 209.197 29.5765C208.918 29.268 208.531 29.1138 208.037 29.1138C207.707 29.1138 207.414 29.186 207.158 29.3303C206.902 29.4746 206.702 29.6826 206.557 29.9542C206.412 30.2258 206.34 30.5553 206.34 30.9428ZM217.801 36V24.3594H225.595V26.3385H220.188V29.1481H225.182V31.0935H220.188V34.0209H225.61V36H217.801ZM227.466 36V27.2656H229.643L229.756 29.4381H229.588C229.719 28.8995 229.917 28.4612 230.181 28.1231C230.446 27.7851 230.756 27.5359 231.111 27.3754C231.466 27.2149 231.838 27.1347 232.227 27.1347C232.854 27.1347 233.36 27.3342 233.746 27.7333C234.133 28.1323 234.417 28.748 234.599 29.5803H234.327C234.457 29.0191 234.669 28.5578 234.965 28.1965C235.261 27.8352 235.609 27.5679 236.011 27.3946C236.413 27.2213 236.837 27.1347 237.283 27.1347C237.817 27.1347 238.293 27.2511 238.713 27.4839C239.132 27.7167 239.463 28.0538 239.705 28.4951C239.946 28.9364 240.067 29.4745 240.067 30.1094V36H237.724V30.5577C237.724 30.0625 237.591 29.6942 237.324 29.4529C237.057 29.2116 236.728 29.091 236.338 29.091C236.043 29.091 235.788 29.1554 235.571 29.2843C235.355 29.4132 235.189 29.5921 235.073 29.8209C234.958 30.0497 234.9 30.318 234.9 30.626V36H232.633V30.493C232.633 30.0649 232.507 29.7242 232.254 29.4709C232.001 29.2176 231.674 29.091 231.272 29.091C230.998 29.091 230.75 29.1542 230.528 29.2808C230.306 29.4073 230.131 29.5909 230.002 29.8317C229.873 30.0725 229.808 30.3684 229.808 30.7194V36H227.466ZM244.508 36.1694C243.953 36.1694 243.456 36.0715 243.017 35.8759C242.578 35.6802 242.232 35.3889 241.981 35.0019C241.729 34.6149 241.603 34.1335 241.603 33.5578C241.603 33.0691 241.692 32.6614 241.871 32.3348C242.049 32.0083 242.293 31.7453 242.603 31.5459C242.912 31.3466 243.264 31.1949 243.658 31.0909C244.052 30.9868 244.465 30.9144 244.896 30.8736C245.4 30.8228 245.807 30.7749 246.117 30.73C246.427 30.6851 246.654 30.6149 246.799 30.5193C246.944 30.4237 247.016 30.2818 247.016 30.0936V30.0552C247.016 29.8059 246.963 29.595 246.857 29.4226C246.751 29.2502 246.597 29.118 246.394 29.0262C246.19 28.9344 245.94 28.8885 245.644 28.8885C245.345 28.8885 245.084 28.9339 244.86 29.0247C244.637 29.1155 244.453 29.2368 244.311 29.3885C244.168 29.5403 244.065 29.7106 244.002 29.8997L241.853 29.543C242.001 29.0342 242.25 28.6027 242.599 28.2484C242.949 27.8941 243.383 27.6234 243.901 27.4366C244.42 27.2497 245.003 27.1562 245.651 27.1562C246.12 27.1562 246.576 27.2118 247.018 27.3229C247.461 27.434 247.858 27.6078 248.21 27.8442C248.562 28.0807 248.842 28.3865 249.049 28.7616C249.256 29.1367 249.359 29.5894 249.359 30.1198V36H247.137V34.7872H247.06C246.919 35.0578 246.731 35.297 246.497 35.5047C246.263 35.7124 245.981 35.8751 245.651 35.9928C245.322 36.1105 244.941 36.1694 244.508 36.1694ZM245.168 34.5264C245.537 34.5264 245.861 34.4529 246.14 34.3061C246.42 34.1592 246.638 33.961 246.796 33.7114C246.954 33.4618 247.033 33.1839 247.033 32.8775V31.9324C246.962 31.9804 246.856 32.0254 246.717 32.0674C246.578 32.1095 246.422 32.1471 246.251 32.1803C246.08 32.2136 245.91 32.2424 245.743 32.2668C245.576 32.2912 245.428 32.3127 245.298 32.3311C245.01 32.37 244.757 32.436 244.539 32.5291C244.32 32.6222 244.151 32.7467 244.03 32.9027C243.909 33.0586 243.849 33.254 243.849 33.4889C243.849 33.715 243.906 33.9051 244.02 34.059C244.134 34.2129 244.29 34.3292 244.487 34.4081C244.685 34.4869 244.912 34.5264 245.168 34.5264ZM251.356 36V27.2656H253.699V36H251.356ZM252.527 26.1271C252.174 26.1271 251.872 26.0091 251.62 25.7732C251.368 25.5373 251.242 25.2543 251.242 24.9241C251.242 24.5871 251.368 24.302 251.62 24.0689C251.872 23.8358 252.174 23.7192 252.527 23.7192C252.881 23.7192 253.185 23.8356 253.437 24.0684C253.689 24.3013 253.815 24.5864 253.815 24.9238C253.815 25.2545 253.689 25.5377 253.437 25.7735C253.185 26.0092 252.881 26.1271 252.527 26.1271ZM258.035 24.3594V36H255.692V24.3594H258.035ZM263.2 36L267.182 24.3594H270.301L274.384 36H271.733L269.868 30.3848C269.641 29.6596 269.412 28.8654 269.182 28.0024C268.952 27.1393 268.709 26.199 268.454 25.1813H268.971C268.724 26.2038 268.492 27.1489 268.277 28.0168C268.061 28.8846 267.846 29.6739 267.632 30.3848L265.833 36H263.2ZM265.688 33.2985V31.4278H271.896V33.2985H265.688ZM275.762 39.2656V27.2656H278.067V28.7358H278.181C278.288 28.5036 278.442 28.2655 278.641 28.0215C278.841 27.7775 279.105 27.5723 279.434 27.4059C279.764 27.2395 280.175 27.1562 280.67 27.1562C281.318 27.1562 281.909 27.3231 282.444 27.6567C282.979 27.9904 283.407 28.4902 283.73 29.1562C284.052 29.8223 284.213 30.6528 284.213 31.6478C284.213 32.6171 284.057 33.436 283.744 34.1047C283.432 34.7733 283.007 35.2806 282.471 35.6265C281.934 35.9724 281.33 36.1453 280.657 36.1453C280.183 36.1453 279.782 36.065 279.454 35.9045C279.125 35.7439 278.858 35.5453 278.653 35.3088C278.449 35.0722 278.291 34.8366 278.181 34.602H278.105V39.2656H275.762ZM279.935 34.2673C280.344 34.2673 280.687 34.1553 280.965 33.9314C281.242 33.7074 281.452 33.3974 281.594 33.0012C281.737 32.6051 281.809 32.1516 281.809 31.6406C281.809 31.1293 281.738 30.6779 281.596 30.2866C281.455 29.8952 281.245 29.5887 280.968 29.3669C280.691 29.1451 280.347 29.0343 279.935 29.0343C279.534 29.0343 279.193 29.1416 278.913 29.3561C278.633 29.5707 278.42 29.8725 278.274 30.2614C278.129 30.6504 278.056 31.1101 278.056 31.6406C278.056 32.1655 278.129 32.6247 278.276 33.0183C278.423 33.4118 278.637 33.7183 278.918 33.9379C279.2 34.1575 279.539 34.2673 279.935 34.2673ZM285.848 39.2656V27.2656H288.153V28.7358H288.267C288.374 28.5036 288.528 28.2655 288.727 28.0215C288.927 27.7775 289.191 27.5723 289.52 27.4059C289.85 27.2395 290.261 27.1562 290.756 27.1562C291.404 27.1562 291.995 27.3231 292.53 27.6567C293.065 27.9904 293.493 28.4902 293.816 29.1562C294.138 29.8223 294.299 30.6528 294.299 31.6478C294.299 32.6171 294.142 33.436 293.83 34.1047C293.517 34.7733 293.093 35.2806 292.557 35.6265C292.02 35.9724 291.416 36.1453 290.743 36.1453C290.269 36.1453 289.868 36.065 289.54 35.9045C289.211 35.7439 288.944 35.5453 288.739 35.3088C288.535 35.0722 288.377 34.8366 288.267 34.602H288.191V39.2656H285.848ZM290.021 34.2673C290.43 34.2673 290.773 34.1553 291.051 33.9314C291.328 33.7074 291.538 33.3974 291.68 33.0012C291.823 32.6051 291.894 32.1516 291.894 31.6406C291.894 31.1293 291.824 30.6779 291.682 30.2866C291.541 29.8952 291.331 29.5887 291.054 29.3669C290.777 29.1451 290.433 29.0343 290.021 29.0343C289.62 29.0343 289.279 29.1416 288.999 29.3561C288.719 29.5707 288.506 29.8725 288.36 30.2614C288.215 30.6504 288.142 31.1101 288.142 31.6406C288.142 32.1655 288.215 32.6247 288.362 33.0183C288.509 33.4118 288.723 33.7183 289.004 33.9379C289.286 34.1575 289.625 34.2673 290.021 34.2673Z" fill="white"/>
<defs>
<filter id="filter0_dd_205_1497" x="0" y="0" width="438" height="80" filterUnits="userSpaceOnUse" color-interpolation-filters="sRGB">
<feFlood flood-opacity="0" result="BackgroundImageFix"/>
<feColorMatrix in="SourceAlpha" type="matrix" values="0 0 0 0 0 0 0 0 0 0 0 0 0 0 0 0 0 0 127 0" result="hardAlpha"/>
<feMorphology radius="4" operator="erode" in="SourceAlpha" result="effect1_dropShadow_205_1497"/>
<feOffset dy="4"/>
<feGaussianBlur stdDeviation="3"/>
<feComposite in2="hardAlpha" operator="out"/>
<feColorMatrix type="matrix" values="0 0 0 0 0.321569 0 0 0 0 0.305882 0 0 0 0 0.552941 0 0 0 0.2 0"/>
<feBlend mode="normal" in2="BackgroundImageFix" result="effect1_dropShadow_205_1497"/>
<feColorMatrix in="SourceAlpha" type="matrix" values="0 0 0 0 0 0 0 0 0 0 0 0 0 0 0 0 0 0 127 0" result="hardAlpha"/>
<feMorphology radius="3" operator="erode" in="SourceAlpha" result="effect2_dropShadow_205_1497"/>
<feOffset dy="10"/>
<feGaussianBlur stdDeviation="7.5"/>
<feComposite in2="hardAlpha" operator="out"/>
<feColorMatrix type="matrix" values="0 0 0 0 0.321569 0 0 0 0 0.305882 0 0 0 0 0.552941 0 0 0 0.2 0"/>
<feBlend mode="normal" in2="effect1_dropShadow_205_1497" result="effect2_dropShadow_205_1497"/>
<feBlend mode="normal" in="SourceGraphic" in2="effect2_dropShadow_205_1497" result="shape"/>
</filter>
</defs>
</svg>
