<svg width="414" height="150" viewBox="0 0 414 150" fill="none" xmlns="http://www.w3.org/2000/svg">
<path d="M97.9984 15.3477H93.1766C93.0886 14.7238 92.9087 14.1697 92.6372 13.6854C92.3657 13.1937 92.0171 12.7753 91.5914 12.4304C91.1657 12.0855 90.674 11.8213 90.1163 11.6378C89.5658 11.4543 88.9677 11.3626 88.3219 11.3626C87.155 11.3626 86.1385 11.6525 85.2725 12.2322C84.4065 12.8047 83.735 13.6413 83.2579 14.7422C82.7809 15.8357 82.5424 17.1641 82.5424 18.7273C82.5424 20.3345 82.7809 21.6849 83.2579 22.7784C83.7423 23.8719 84.4175 24.6976 85.2835 25.2553C86.1495 25.8131 87.1513 26.092 88.2888 26.092C88.9273 26.092 89.5181 26.0076 90.0612 25.8388C90.6116 25.67 91.0997 25.4241 91.5253 25.1012C91.951 24.771 92.3033 24.371 92.5822 23.9013C92.8684 23.4316 93.0665 22.8958 93.1766 22.294L97.9984 22.3161C97.8736 23.3509 97.5617 24.349 97.0626 25.3104C96.5709 26.2644 95.9067 27.1194 95.0701 27.8754C94.2408 28.6239 93.25 29.2184 92.0978 29.6587C90.9529 30.0917 89.6576 30.3082 88.2118 30.3082C86.2009 30.3082 84.4028 29.8532 82.8176 28.9432C81.2397 28.0331 79.9921 26.7158 79.0747 24.9911C78.1647 23.2665 77.7096 21.1785 77.7096 18.7273C77.7096 16.2687 78.172 14.1771 79.0967 12.4524C80.0214 10.7277 81.2764 9.41406 82.8616 8.51136C84.4469 7.60133 86.2302 7.14631 88.2118 7.14631C89.5181 7.14631 90.7291 7.32978 91.8446 7.69673C92.9675 8.06368 93.9619 8.59943 94.8279 9.30398C95.6939 10.0012 96.3985 10.8562 96.9415 11.869C97.492 12.8817 97.8442 14.0413 97.9984 15.3477ZM106.018 20.2244V30H101.328V7.45454H105.886V16.0742H106.084C106.466 15.0761 107.082 14.2945 107.934 13.7294C108.785 13.157 109.853 12.8707 111.137 12.8707C112.311 12.8707 113.335 13.1276 114.208 13.6413C115.089 14.1477 115.772 14.878 116.256 15.832C116.748 16.7788 116.99 17.9126 116.983 19.2337V30H112.293V20.0703C112.3 19.0282 112.036 18.2172 111.5 17.6374C110.972 17.0576 110.231 16.7678 109.277 16.7678C108.638 16.7678 108.073 16.9035 107.581 17.1751C107.097 17.4466 106.715 17.8429 106.436 18.364C106.165 18.8777 106.025 19.4979 106.018 20.2244ZM128.379 30.3303C126.64 30.3303 125.143 29.978 123.888 29.2734C122.64 28.5616 121.679 27.5561 121.003 26.2571C120.328 24.9508 119.991 23.4059 119.991 21.6225C119.991 19.8832 120.328 18.3567 121.003 17.043C121.679 15.7293 122.629 14.7055 123.855 13.9716C125.088 13.2377 126.533 12.8707 128.192 12.8707C129.308 12.8707 130.346 13.0505 131.307 13.4102C132.276 13.7624 133.12 14.2945 133.839 15.0064C134.566 15.7183 135.131 16.6136 135.535 17.6925C135.938 18.764 136.14 20.0189 136.14 21.4574V22.7454H121.862V19.8391H131.726C131.726 19.1639 131.579 18.5658 131.285 18.0447C130.992 17.5237 130.585 17.1164 130.063 16.8228C129.55 16.5219 128.952 16.3714 128.269 16.3714C127.557 16.3714 126.926 16.5366 126.376 16.8668C125.832 17.1897 125.407 17.6264 125.099 18.1768C124.79 18.7199 124.633 19.3254 124.625 19.9933V22.7564C124.625 23.593 124.779 24.3159 125.088 24.9251C125.403 25.5342 125.847 26.0039 126.42 26.3342C126.992 26.6644 127.671 26.8295 128.456 26.8295C128.977 26.8295 129.454 26.7562 129.887 26.6094C130.32 26.4626 130.691 26.2424 130.999 25.9489C131.307 25.6553 131.542 25.2957 131.704 24.87L136.041 25.1562C135.821 26.1984 135.37 27.1084 134.687 27.8864C134.012 28.657 133.138 29.2588 132.067 29.6918C131.003 30.1174 129.774 30.3303 128.379 30.3303ZM146.84 30.3303C145.108 30.3303 143.619 29.9633 142.371 29.2294C141.131 28.4882 140.177 27.4607 139.509 26.147C138.848 24.8333 138.518 23.3215 138.518 21.6115C138.518 19.8795 138.852 18.3603 139.52 17.054C140.195 15.7403 141.153 14.7165 142.393 13.9826C143.633 13.2414 145.108 12.8707 146.818 12.8707C148.294 12.8707 149.585 13.1386 150.693 13.6744C151.802 14.2101 152.679 14.9624 153.324 15.9311C153.97 16.8999 154.326 18.0374 154.392 19.3438H149.967C149.842 18.4998 149.512 17.8209 148.976 17.3072C148.448 16.7861 147.754 16.5256 146.895 16.5256C146.169 16.5256 145.534 16.7237 144.991 17.12C144.455 17.509 144.037 18.0778 143.736 18.8263C143.435 19.5749 143.285 20.4813 143.285 21.5455C143.285 22.6243 143.431 23.5417 143.725 24.2976C144.026 25.0535 144.448 25.6296 144.991 26.0259C145.534 26.4222 146.169 26.6204 146.895 26.6204C147.431 26.6204 147.912 26.5103 148.338 26.2901C148.771 26.07 149.127 25.7507 149.405 25.3324C149.692 24.9067 149.879 24.3967 149.967 23.8022H154.392C154.319 25.0939 153.967 26.2314 153.335 27.2148C152.712 28.1909 151.849 28.9542 150.748 29.5046C149.648 30.055 148.345 30.3303 146.84 30.3303ZM161.644 25.1342L161.655 19.5089H162.338L167.754 13.0909H173.137L165.86 21.5895H164.749L161.644 25.1342ZM157.395 30V7.45454H162.084V30H157.395ZM167.963 30L162.987 22.6353L166.114 19.3217L173.456 30H167.963ZM185.508 36.3409C184.913 36.3409 184.356 36.2932 183.835 36.1978C183.321 36.1097 182.895 35.996 182.558 35.8565L183.614 32.3558C184.165 32.5246 184.66 32.6164 185.101 32.631C185.548 32.6457 185.934 32.543 186.256 32.3228C186.587 32.1026 186.855 31.7283 187.06 31.1999L187.335 30.4844L181.27 13.0909H186.201L189.702 25.5085H189.878L193.412 13.0909H198.377L191.805 31.8274C191.489 32.7375 191.06 33.5301 190.517 34.2053C189.981 34.8878 189.302 35.4125 188.48 35.7795C187.658 36.1538 186.667 36.3409 185.508 36.3409ZM207.872 30.3303C206.162 30.3303 204.683 29.967 203.435 29.2404C202.195 28.5065 201.237 27.4864 200.562 26.18C199.887 24.8664 199.549 23.3435 199.549 21.6115C199.549 19.8648 199.887 18.3383 200.562 17.032C201.237 15.7183 202.195 14.6982 203.435 13.9716C204.683 13.2377 206.162 12.8707 207.872 12.8707C209.582 12.8707 211.057 13.2377 212.297 13.9716C213.545 14.6982 214.506 15.7183 215.181 17.032C215.857 18.3383 216.194 19.8648 216.194 21.6115C216.194 23.3435 215.857 24.8664 215.181 26.18C214.506 27.4864 213.545 28.5065 212.297 29.2404C211.057 29.967 209.582 30.3303 207.872 30.3303ZM207.894 26.6974C208.672 26.6974 209.321 26.4773 209.842 26.0369C210.363 25.5893 210.756 24.9801 211.02 24.2095C211.292 23.4389 211.427 22.5619 211.427 21.5785C211.427 20.5951 211.292 19.718 211.02 18.9474C210.756 18.1768 210.363 17.5677 209.842 17.12C209.321 16.6723 208.672 16.4485 207.894 16.4485C207.108 16.4485 206.448 16.6723 205.912 17.12C205.384 17.5677 204.984 18.1768 204.712 18.9474C204.448 19.718 204.316 20.5951 204.316 21.5785C204.316 22.5619 204.448 23.4389 204.712 24.2095C204.984 24.9801 205.384 25.5893 205.912 26.0369C206.448 26.4773 207.108 26.6974 207.894 26.6974ZM230.087 22.8004V13.0909H234.776V30H230.274V26.9286H230.098C229.716 27.9194 229.081 28.7157 228.193 29.3175C227.313 29.9193 226.238 30.2202 224.968 30.2202C223.838 30.2202 222.843 29.9633 221.985 29.4496C221.126 28.9358 220.454 28.2056 219.97 27.2589C219.493 26.3121 219.251 25.1783 219.243 23.8572V13.0909H223.933V23.0206C223.94 24.0187 224.208 24.8076 224.737 25.3874C225.265 25.9672 225.973 26.2571 226.861 26.2571C227.426 26.2571 227.955 26.1287 228.447 25.8718C228.938 25.6076 229.335 25.2186 229.636 24.7049C229.944 24.1912 230.094 23.5563 230.087 22.8004ZM238.528 30V13.0909H243.074V16.0412H243.25C243.559 14.9917 244.076 14.1991 244.803 13.6634C245.529 13.1203 246.366 12.8487 247.312 12.8487C247.547 12.8487 247.8 12.8634 248.072 12.8928C248.344 12.9221 248.582 12.9625 248.788 13.0138V17.1751C248.567 17.109 248.263 17.0503 247.874 16.9989C247.485 16.9476 247.129 16.9219 246.806 16.9219C246.116 16.9219 245.5 17.0723 244.957 17.3732C244.421 17.6668 243.995 18.0778 243.68 18.6062C243.371 19.1346 243.217 19.7437 243.217 20.4336V30H238.528ZM266.093 30.3303C264.354 30.3303 262.856 29.978 261.602 29.2734C260.354 28.5616 259.392 27.5561 258.717 26.2571C258.042 24.9508 257.704 23.4059 257.704 21.6225C257.704 19.8832 258.042 18.3567 258.717 17.043C259.392 15.7293 260.343 14.7055 261.568 13.9716C262.801 13.2377 264.247 12.8707 265.906 12.8707C267.021 12.8707 268.06 13.0505 269.021 13.4102C269.99 13.7624 270.834 14.2945 271.553 15.0064C272.28 15.7183 272.845 16.6136 273.249 17.6925C273.652 18.764 273.854 20.0189 273.854 21.4574V22.7454H259.576V19.8391H269.44C269.44 19.1639 269.293 18.5658 268.999 18.0447C268.706 17.5237 268.298 17.1164 267.777 16.8228C267.264 16.5219 266.665 16.3714 265.983 16.3714C265.271 16.3714 264.64 16.5366 264.089 16.8668C263.546 17.1897 263.121 17.6264 262.812 18.1768C262.504 18.7199 262.346 19.3254 262.339 19.9933V22.7564C262.339 23.593 262.493 24.3159 262.801 24.9251C263.117 25.5342 263.561 26.0039 264.133 26.3342C264.706 26.6644 265.385 26.8295 266.17 26.8295C266.691 26.8295 267.168 26.7562 267.601 26.6094C268.034 26.4626 268.405 26.2424 268.713 25.9489C269.021 25.6553 269.256 25.2957 269.418 24.87L273.755 25.1562C273.535 26.1984 273.083 27.1084 272.401 27.8864C271.726 28.657 270.852 29.2588 269.781 29.6918C268.717 30.1174 267.487 30.3303 266.093 30.3303ZM276.914 30V13.0909H281.384V16.0742H281.582C281.934 15.0835 282.521 14.3018 283.343 13.7294C284.165 13.157 285.149 12.8707 286.294 12.8707C287.453 12.8707 288.44 13.1606 289.255 13.7404C290.07 14.3129 290.613 15.0908 290.884 16.0742H291.06C291.405 15.1055 292.029 14.3312 292.932 13.7514C293.842 13.1643 294.917 12.8707 296.157 12.8707C297.735 12.8707 299.016 13.3735 299.999 14.3789C300.99 15.377 301.485 16.7934 301.485 18.6282V30H296.807V19.5529C296.807 18.6135 296.557 17.909 296.058 17.4393C295.559 16.9696 294.935 16.7347 294.187 16.7347C293.335 16.7347 292.671 17.0063 292.194 17.5494C291.717 18.0851 291.479 18.7933 291.479 19.674V30H286.932V19.4538C286.932 18.6245 286.694 17.964 286.217 17.4723C285.747 16.9806 285.127 16.7347 284.356 16.7347C283.835 16.7347 283.365 16.8668 282.947 17.131C282.536 17.3879 282.209 17.7512 281.967 18.2209C281.725 18.6832 281.604 19.2263 281.604 19.8501V30H276.914ZM310.011 30.3192C308.933 30.3192 307.971 30.1321 307.127 29.7578C306.283 29.3762 305.615 28.8147 305.124 28.0735C304.639 27.3249 304.397 26.3929 304.397 25.2773C304.397 24.3379 304.57 23.549 304.915 22.9105C305.259 22.272 305.729 21.7583 306.324 21.3693C306.918 20.9804 307.593 20.6868 308.349 20.4886C309.112 20.2905 309.912 20.151 310.749 20.0703C311.732 19.9676 312.525 19.8722 313.127 19.7841C313.729 19.6887 314.165 19.5492 314.437 19.3658C314.708 19.1823 314.844 18.9107 314.844 18.5511V18.4851C314.844 17.7879 314.624 17.2485 314.184 16.8668C313.751 16.4852 313.134 16.2944 312.334 16.2944C311.49 16.2944 310.819 16.4815 310.32 16.8558C309.821 17.2228 309.49 17.6851 309.329 18.2429L304.992 17.8906C305.212 16.8632 305.645 15.9751 306.291 15.2266C306.936 14.4706 307.769 13.8909 308.79 13.4872C309.817 13.0762 311.006 12.8707 312.356 12.8707C313.296 12.8707 314.195 12.9808 315.053 13.201C315.919 13.4212 316.686 13.7624 317.354 14.2248C318.029 14.6871 318.561 15.2816 318.95 16.0082C319.339 16.7274 319.534 17.5897 319.534 18.5952V30H315.086V27.6552H314.954C314.683 28.1836 314.319 28.6496 313.864 29.0533C313.409 29.4496 312.863 29.7615 312.224 29.989C311.586 30.2092 310.848 30.3192 310.011 30.3192ZM311.355 27.0827C312.044 27.0827 312.654 26.947 313.182 26.6754C313.71 26.3965 314.125 26.0223 314.426 25.5526C314.727 25.0829 314.877 24.5508 314.877 23.9563V22.1619C314.73 22.2573 314.529 22.3454 314.272 22.4261C314.022 22.4995 313.74 22.5692 313.424 22.6353C313.109 22.694 312.793 22.7491 312.477 22.8004C312.162 22.8445 311.876 22.8848 311.619 22.9215C311.068 23.0022 310.588 23.1307 310.177 23.3068C309.766 23.483 309.446 23.7215 309.219 24.0224C308.991 24.3159 308.878 24.6829 308.878 25.1232C308.878 25.7617 309.109 26.2498 309.571 26.5874C310.041 26.9176 310.635 27.0827 311.355 27.0827ZM323.172 30V13.0909H327.862V30H323.172ZM325.528 10.9112C324.831 10.9112 324.233 10.68 323.734 10.2177C323.242 9.74799 322.996 9.18655 322.996 8.53338C322.996 7.88755 323.242 7.33345 323.734 6.87109C324.233 6.4014 324.831 6.16655 325.528 6.16655C326.225 6.16655 326.82 6.4014 327.311 6.87109C327.81 7.33345 328.06 7.88755 328.06 8.53338C328.06 9.18655 327.81 9.74799 327.311 10.2177C326.82 10.68 326.225 10.9112 325.528 10.9112ZM336.308 7.45454V30H331.618V7.45454H336.308Z" fill="#0F172A"/>
<path d="M77.3099 66L74.1281 54.3636H75.5599L77.9917 63.8409H78.1054L80.5826 54.3636H82.1735L84.6508 63.8409H84.7645L87.1963 54.3636H88.6281L85.4463 66H83.9917L81.4235 56.7273H81.3326L78.7645 66H77.3099ZM93.0485 66.1818C92.2076 66.1818 91.4823 65.9962 90.8724 65.625C90.2664 65.25 89.7985 64.7273 89.469 64.0568C89.1432 63.3826 88.9804 62.5985 88.9804 61.7045C88.9804 60.8106 89.1432 60.0227 89.469 59.3409C89.7985 58.6553 90.2569 58.1212 90.844 57.7386C91.4349 57.3523 92.1243 57.1591 92.9122 57.1591C93.3667 57.1591 93.8156 57.2348 94.2588 57.3864C94.702 57.5379 95.1054 57.7841 95.469 58.125C95.8326 58.4621 96.1224 58.9091 96.3383 59.4659C96.5542 60.0227 96.6622 60.7083 96.6622 61.5227V62.0909H89.9349V60.9318H95.2985C95.2985 60.4394 95.2001 60 95.0031 59.6136C94.8099 59.2273 94.5334 58.9223 94.1735 58.6989C93.8175 58.4754 93.397 58.3636 92.9122 58.3636C92.3781 58.3636 91.916 58.4962 91.5258 58.7614C91.1395 59.0227 90.8421 59.3636 90.6338 59.7841C90.4254 60.2045 90.3213 60.6553 90.3213 61.1364V61.9091C90.3213 62.5682 90.4349 63.1269 90.6622 63.5852C90.8932 64.0398 91.2133 64.3864 91.6224 64.625C92.0315 64.8598 92.5069 64.9773 93.0485 64.9773C93.4008 64.9773 93.719 64.928 94.0031 64.8295C94.291 64.7273 94.5391 64.5758 94.7474 64.375C94.9557 64.1705 95.1167 63.9167 95.2304 63.6136L96.5258 63.9773C96.3895 64.4167 96.1603 64.803 95.8383 65.1364C95.5164 65.4659 95.1186 65.7235 94.6451 65.9091C94.1717 66.0909 93.6395 66.1818 93.0485 66.1818ZM99.861 54.3636V58.3636H98.611V54.3636H99.861ZM109.385 57.2727L106.158 66H104.794L101.567 57.2727H103.022L105.431 64.2273H105.522L107.931 57.2727H109.385ZM114.502 66.1818C113.661 66.1818 112.935 65.9962 112.326 65.625C111.719 65.25 111.252 64.7273 110.922 64.0568C110.596 63.3826 110.433 62.5985 110.433 61.7045C110.433 60.8106 110.596 60.0227 110.922 59.3409C111.252 58.6553 111.71 58.1212 112.297 57.7386C112.888 57.3523 113.577 57.1591 114.365 57.1591C114.82 57.1591 115.269 57.2348 115.712 57.3864C116.155 57.5379 116.558 57.7841 116.922 58.125C117.286 58.4621 117.576 58.9091 117.791 59.4659C118.007 60.0227 118.115 60.7083 118.115 61.5227V62.0909H111.388V60.9318H116.752C116.752 60.4394 116.653 60 116.456 59.6136C116.263 59.2273 115.987 58.9223 115.627 58.6989C115.271 58.4754 114.85 58.3636 114.365 58.3636C113.831 58.3636 113.369 58.4962 112.979 58.7614C112.593 59.0227 112.295 59.3636 112.087 59.7841C111.879 60.2045 111.774 60.6553 111.774 61.1364V61.9091C111.774 62.5682 111.888 63.1269 112.115 63.5852C112.346 64.0398 112.666 64.3864 113.076 64.625C113.485 64.8598 113.96 64.9773 114.502 64.9773C114.854 64.9773 115.172 64.928 115.456 64.8295C115.744 64.7273 115.992 64.5758 116.201 64.375C116.409 64.1705 116.57 63.9167 116.683 63.6136L117.979 63.9773C117.843 64.4167 117.613 64.803 117.291 65.1364C116.969 65.4659 116.572 65.7235 116.098 65.9091C115.625 66.0909 115.093 66.1818 114.502 66.1818ZM130.837 59.2273L129.632 59.5682C129.557 59.3674 129.445 59.1723 129.297 58.983C129.153 58.7898 128.956 58.6307 128.706 58.5057C128.456 58.3807 128.136 58.3182 127.746 58.3182C127.212 58.3182 126.767 58.4413 126.411 58.6875C126.058 58.9299 125.882 59.2386 125.882 59.6136C125.882 59.947 126.004 60.2102 126.246 60.4034C126.488 60.5966 126.867 60.7576 127.382 60.8864L128.678 61.2045C129.458 61.3939 130.04 61.6837 130.422 62.0739C130.805 62.4602 130.996 62.9583 130.996 63.5682C130.996 64.0682 130.852 64.5152 130.564 64.9091C130.28 65.303 129.882 65.6136 129.371 65.8409C128.86 66.0682 128.265 66.1818 127.587 66.1818C126.697 66.1818 125.96 65.9886 125.377 65.6023C124.793 65.2159 124.424 64.6515 124.269 63.9091L125.541 63.5909C125.663 64.0606 125.892 64.4129 126.229 64.6477C126.57 64.8826 127.015 65 127.564 65C128.189 65 128.685 64.8674 129.053 64.6023C129.424 64.3333 129.61 64.0114 129.61 63.6364C129.61 63.3333 129.504 63.0795 129.291 62.875C129.079 62.6667 128.754 62.5114 128.314 62.4091L126.86 62.0682C126.06 61.8788 125.473 61.5852 125.098 61.1875C124.727 60.786 124.541 60.2841 124.541 59.6818C124.541 59.1894 124.68 58.7538 124.956 58.375C125.237 57.9962 125.617 57.6989 126.098 57.483C126.583 57.267 127.132 57.1591 127.746 57.1591C128.61 57.1591 129.288 57.3485 129.78 57.7273C130.276 58.1061 130.629 58.6061 130.837 59.2273ZM136.674 66.1818C135.833 66.1818 135.107 65.9962 134.497 65.625C133.891 65.25 133.424 64.7273 133.094 64.0568C132.768 63.3826 132.605 62.5985 132.605 61.7045C132.605 60.8106 132.768 60.0227 133.094 59.3409C133.424 58.6553 133.882 58.1212 134.469 57.7386C135.06 57.3523 135.749 57.1591 136.537 57.1591C136.992 57.1591 137.441 57.2348 137.884 57.3864C138.327 57.5379 138.73 57.7841 139.094 58.125C139.458 58.4621 139.747 58.9091 139.963 59.4659C140.179 60.0227 140.287 60.7083 140.287 61.5227V62.0909H133.56V60.9318H138.924C138.924 60.4394 138.825 60 138.628 59.6136C138.435 59.2273 138.158 58.9223 137.799 58.6989C137.442 58.4754 137.022 58.3636 136.537 58.3636C136.003 58.3636 135.541 58.4962 135.151 58.7614C134.764 59.0227 134.467 59.3636 134.259 59.7841C134.05 60.2045 133.946 60.6553 133.946 61.1364V61.9091C133.946 62.5682 134.06 63.1269 134.287 63.5852C134.518 64.0398 134.838 64.3864 135.247 64.625C135.657 64.8598 136.132 64.9773 136.674 64.9773C137.026 64.9773 137.344 64.928 137.628 64.8295C137.916 64.7273 138.164 64.5758 138.372 64.375C138.581 64.1705 138.742 63.9167 138.855 63.6136L140.151 63.9773C140.014 64.4167 139.785 64.803 139.463 65.1364C139.141 65.4659 138.744 65.7235 138.27 65.9091C137.797 66.0909 137.264 66.1818 136.674 66.1818ZM143.668 60.75V66H142.327V57.2727H143.622V58.6364H143.736C143.941 58.1932 144.251 57.8371 144.668 57.5682C145.085 57.2955 145.622 57.1591 146.282 57.1591C146.872 57.1591 147.389 57.2803 147.833 57.5227C148.276 57.7614 148.621 58.125 148.867 58.6136C149.113 59.0985 149.236 59.7121 149.236 60.4545V66H147.895V60.5455C147.895 59.8598 147.717 59.3258 147.361 58.9432C147.005 58.5568 146.516 58.3636 145.895 58.3636C145.467 58.3636 145.085 58.4564 144.747 58.642C144.414 58.8277 144.151 59.0985 143.958 59.4545C143.764 59.8106 143.668 60.2424 143.668 60.75ZM155.482 57.2727V58.4091H150.959V57.2727H155.482ZM152.277 55.1818H153.618V63.5C153.618 63.8788 153.673 64.1629 153.783 64.3523C153.897 64.5379 154.041 64.6629 154.215 64.7273C154.393 64.7879 154.58 64.8182 154.777 64.8182C154.925 64.8182 155.046 64.8106 155.141 64.7955C155.236 64.7765 155.311 64.7614 155.368 64.75L155.641 65.9545C155.55 65.9886 155.423 66.0227 155.26 66.0568C155.097 66.0947 154.891 66.1136 154.641 66.1136C154.262 66.1136 153.891 66.0322 153.527 65.8693C153.167 65.7064 152.868 65.4583 152.63 65.125C152.395 64.7917 152.277 64.3712 152.277 63.8636V55.1818ZM164.567 66.2045C164.014 66.2045 163.512 66.1004 163.061 65.892C162.611 65.6799 162.253 65.375 161.987 64.9773C161.722 64.5758 161.59 64.0909 161.59 63.5227C161.59 63.0227 161.688 62.6174 161.885 62.3068C162.082 61.9924 162.345 61.7462 162.675 61.5682C163.005 61.3902 163.368 61.2576 163.766 61.1705C164.167 61.0795 164.571 61.0076 164.976 60.9545C165.506 60.8864 165.936 60.8352 166.266 60.8011C166.599 60.7633 166.842 60.7008 166.993 60.6136C167.148 60.5265 167.226 60.375 167.226 60.1591V60.1136C167.226 59.553 167.073 59.1174 166.766 58.8068C166.463 58.4962 166.003 58.3409 165.385 58.3409C164.745 58.3409 164.243 58.4811 163.88 58.7614C163.516 59.0417 163.26 59.3409 163.112 59.6591L161.84 59.2045C162.067 58.6742 162.37 58.2614 162.749 57.9659C163.131 57.6667 163.548 57.4583 163.999 57.3409C164.453 57.2197 164.9 57.1591 165.34 57.1591C165.62 57.1591 165.942 57.1932 166.306 57.2614C166.673 57.3258 167.027 57.4602 167.368 57.6648C167.713 57.8693 167.999 58.178 168.226 58.5909C168.453 59.0038 168.567 59.5568 168.567 60.25V66H167.226V64.8182H167.158C167.067 65.0076 166.916 65.2102 166.703 65.4261C166.491 65.642 166.209 65.8258 165.857 65.9773C165.505 66.1288 165.075 66.2045 164.567 66.2045ZM164.772 65C165.302 65 165.749 64.8958 166.112 64.6875C166.48 64.4792 166.756 64.2102 166.942 63.8807C167.131 63.5511 167.226 63.2045 167.226 62.8409V61.6136C167.169 61.6818 167.044 61.7443 166.851 61.8011C166.662 61.8542 166.442 61.9015 166.192 61.9432C165.946 61.9811 165.705 62.0152 165.47 62.0455C165.239 62.072 165.052 62.0947 164.908 62.1136C164.559 62.1591 164.234 62.233 163.931 62.3352C163.631 62.4337 163.389 62.5833 163.203 62.7841C163.022 62.9811 162.931 63.25 162.931 63.5909C162.931 64.0568 163.103 64.4091 163.448 64.6477C163.796 64.8826 164.237 65 164.772 65ZM175.514 69.2727V57.2727H176.81V58.6591H176.969C177.067 58.5076 177.204 58.3144 177.378 58.0795C177.556 57.8409 177.81 57.6288 178.139 57.4432C178.473 57.2538 178.924 57.1591 179.492 57.1591C180.227 57.1591 180.874 57.3428 181.435 57.7102C181.996 58.0777 182.433 58.5985 182.747 59.2727C183.062 59.947 183.219 60.7424 183.219 61.6591C183.219 62.5833 183.062 63.3845 182.747 64.0625C182.433 64.7367 181.997 65.2595 181.441 65.6307C180.884 65.9981 180.242 66.1818 179.514 66.1818C178.954 66.1818 178.505 66.089 178.168 65.9034C177.831 65.714 177.571 65.5 177.389 65.2614C177.208 65.0189 177.067 64.8182 176.969 64.6591H176.855V69.2727H175.514ZM176.833 61.6364C176.833 62.2955 176.929 62.8769 177.122 63.3807C177.316 63.8807 177.598 64.2727 177.969 64.5568C178.34 64.8371 178.795 64.9773 179.333 64.9773C179.893 64.9773 180.361 64.8295 180.736 64.5341C181.115 64.2348 181.399 63.8333 181.588 63.3295C181.782 62.822 181.878 62.2576 181.878 61.6364C181.878 61.0227 181.783 60.4697 181.594 59.9773C181.408 59.4811 181.126 59.089 180.747 58.8011C180.372 58.5095 179.901 58.3636 179.333 58.3636C178.787 58.3636 178.329 58.5019 177.958 58.7784C177.586 59.0511 177.306 59.4337 177.117 59.9261C176.927 60.4148 176.833 60.9848 176.833 61.6364ZM187.833 66.2045C187.28 66.2045 186.778 66.1004 186.327 65.892C185.876 65.6799 185.518 65.375 185.253 64.9773C184.988 64.5758 184.855 64.0909 184.855 63.5227C184.855 63.0227 184.954 62.6174 185.151 62.3068C185.348 61.9924 185.611 61.7462 185.941 61.5682C186.27 61.3902 186.634 61.2576 187.032 61.1705C187.433 61.0795 187.836 61.0076 188.242 60.9545C188.772 60.8864 189.202 60.8352 189.532 60.8011C189.865 60.7633 190.107 60.7008 190.259 60.6136C190.414 60.5265 190.492 60.375 190.492 60.1591V60.1136C190.492 59.553 190.338 59.1174 190.032 58.8068C189.728 58.4962 189.268 58.3409 188.651 58.3409C188.011 58.3409 187.509 58.4811 187.145 58.7614C186.782 59.0417 186.526 59.3409 186.378 59.6591L185.105 59.2045C185.333 58.6742 185.636 58.2614 186.014 57.9659C186.397 57.6667 186.814 57.4583 187.264 57.3409C187.719 57.2197 188.166 57.1591 188.605 57.1591C188.886 57.1591 189.208 57.1932 189.571 57.2614C189.939 57.3258 190.293 57.4602 190.634 57.6648C190.978 57.8693 191.264 58.178 191.492 58.5909C191.719 59.0038 191.833 59.5568 191.833 60.25V66H190.492V64.8182H190.424C190.333 65.0076 190.181 65.2102 189.969 65.4261C189.757 65.642 189.475 65.8258 189.122 65.9773C188.77 66.1288 188.34 66.2045 187.833 66.2045ZM188.037 65C188.567 65 189.014 64.8958 189.378 64.6875C189.746 64.4792 190.022 64.2102 190.208 63.8807C190.397 63.5511 190.492 63.2045 190.492 62.8409V61.6136C190.435 61.6818 190.31 61.7443 190.117 61.8011C189.927 61.8542 189.708 61.9015 189.458 61.9432C189.211 61.9811 188.971 62.0152 188.736 62.0455C188.505 62.072 188.317 62.0947 188.174 62.1136C187.825 62.1591 187.499 62.233 187.196 62.3352C186.897 62.4337 186.655 62.5833 186.469 62.7841C186.287 62.9811 186.196 63.25 186.196 63.5909C186.196 64.0568 186.369 64.4091 186.713 64.6477C187.062 64.8826 187.503 65 188.037 65ZM200.462 59.2273L199.257 59.5682C199.182 59.3674 199.07 59.1723 198.922 58.983C198.778 58.7898 198.581 58.6307 198.331 58.5057C198.081 58.3807 197.761 58.3182 197.371 58.3182C196.837 58.3182 196.392 58.4413 196.036 58.6875C195.683 58.9299 195.507 59.2386 195.507 59.6136C195.507 59.947 195.629 60.2102 195.871 60.4034C196.113 60.5966 196.492 60.7576 197.007 60.8864L198.303 61.2045C199.083 61.3939 199.665 61.6837 200.047 62.0739C200.43 62.4602 200.621 62.9583 200.621 63.5682C200.621 64.0682 200.477 64.5152 200.189 64.9091C199.905 65.303 199.507 65.6136 198.996 65.8409C198.485 66.0682 197.89 66.1818 197.212 66.1818C196.322 66.1818 195.585 65.9886 195.002 65.6023C194.418 65.2159 194.049 64.6515 193.894 63.9091L195.166 63.5909C195.288 64.0606 195.517 64.4129 195.854 64.6477C196.195 64.8826 196.64 65 197.189 65C197.814 65 198.31 64.8674 198.678 64.6023C199.049 64.3333 199.235 64.0114 199.235 63.6364C199.235 63.3333 199.129 63.0795 198.916 62.875C198.704 62.6667 198.379 62.5114 197.939 62.4091L196.485 62.0682C195.685 61.8788 195.098 61.5852 194.723 61.1875C194.352 60.786 194.166 60.2841 194.166 59.6818C194.166 59.1894 194.305 58.7538 194.581 58.375C194.862 57.9962 195.242 57.6989 195.723 57.483C196.208 57.267 196.757 57.1591 197.371 57.1591C198.235 57.1591 198.913 57.3485 199.405 57.7273C199.901 58.1061 200.254 58.6061 200.462 59.2273ZM208.821 59.2273L207.617 59.5682C207.541 59.3674 207.429 59.1723 207.282 58.983C207.138 58.7898 206.941 58.6307 206.691 58.5057C206.441 58.3807 206.121 58.3182 205.73 58.3182C205.196 58.3182 204.751 58.4413 204.395 58.6875C204.043 58.9299 203.867 59.2386 203.867 59.6136C203.867 59.947 203.988 60.2102 204.23 60.4034C204.473 60.5966 204.852 60.7576 205.367 60.8864L206.662 61.2045C207.442 61.3939 208.024 61.6837 208.407 62.0739C208.789 62.4602 208.98 62.9583 208.98 63.5682C208.98 64.0682 208.836 64.5152 208.549 64.9091C208.264 65.303 207.867 65.6136 207.355 65.8409C206.844 66.0682 206.249 66.1818 205.571 66.1818C204.681 66.1818 203.944 65.9886 203.361 65.6023C202.778 65.2159 202.408 64.6515 202.253 63.9091L203.526 63.5909C203.647 64.0606 203.876 64.4129 204.213 64.6477C204.554 64.8826 204.999 65 205.549 65C206.174 65 206.67 64.8674 207.037 64.6023C207.408 64.3333 207.594 64.0114 207.594 63.6364C207.594 63.3333 207.488 63.0795 207.276 62.875C207.064 62.6667 206.738 62.5114 206.299 62.4091L204.844 62.0682C204.045 61.8788 203.458 61.5852 203.083 61.1875C202.711 60.786 202.526 60.2841 202.526 59.6818C202.526 59.1894 202.664 58.7538 202.941 58.375C203.221 57.9962 203.602 57.6989 204.083 57.483C204.567 57.267 205.117 57.1591 205.73 57.1591C206.594 57.1591 207.272 57.3485 207.764 57.7273C208.261 58.1061 208.613 58.6061 208.821 59.2273ZM212.976 66L210.317 57.2727H211.726L213.612 63.9545H213.703L215.567 57.2727H216.999L218.84 63.9318H218.931L220.817 57.2727H222.226L219.567 66H218.249L216.34 59.2955H216.203L214.294 66H212.976ZM227.247 66.1818C226.46 66.1818 225.768 65.9943 225.174 65.6193C224.583 65.2443 224.121 64.7197 223.787 64.0455C223.458 63.3712 223.293 62.5833 223.293 61.6818C223.293 60.7727 223.458 59.9792 223.787 59.3011C224.121 58.6231 224.583 58.0966 225.174 57.7216C225.768 57.3466 226.46 57.1591 227.247 57.1591C228.035 57.1591 228.725 57.3466 229.316 57.7216C229.91 58.0966 230.372 58.6231 230.702 59.3011C231.035 59.9792 231.202 60.7727 231.202 61.6818C231.202 62.5833 231.035 63.3712 230.702 64.0455C230.372 64.7197 229.91 65.2443 229.316 65.6193C228.725 65.9943 228.035 66.1818 227.247 66.1818ZM227.247 64.9773C227.846 64.9773 228.338 64.8239 228.725 64.517C229.111 64.2102 229.397 63.8068 229.583 63.3068C229.768 62.8068 229.861 62.2652 229.861 61.6818C229.861 61.0985 229.768 60.5549 229.583 60.0511C229.397 59.5473 229.111 59.1402 228.725 58.8295C228.338 58.5189 227.846 58.3636 227.247 58.3636C226.649 58.3636 226.157 58.5189 225.77 58.8295C225.384 59.1402 225.098 59.5473 224.912 60.0511C224.727 60.5549 224.634 61.0985 224.634 61.6818C224.634 62.2652 224.727 62.8068 224.912 63.3068C225.098 63.8068 225.384 64.2102 225.77 64.517C226.157 64.8239 226.649 64.9773 227.247 64.9773ZM233.249 66V57.2727H234.544V58.5909H234.635C234.794 58.1591 235.082 57.8087 235.499 57.5398C235.916 57.2708 236.385 57.1364 236.908 57.1364C237.006 57.1364 237.13 57.1383 237.277 57.142C237.425 57.1458 237.537 57.1515 237.612 57.1591V58.5227C237.567 58.5114 237.463 58.4943 237.3 58.4716C237.141 58.4451 236.972 58.4318 236.794 58.4318C236.37 58.4318 235.991 58.5208 235.658 58.6989C235.328 58.8731 235.067 59.1155 234.874 59.4261C234.684 59.733 234.59 60.0833 234.59 60.4773V66H233.249ZM242.232 66.1818C241.505 66.1818 240.862 65.9981 240.306 65.6307C239.749 65.2595 239.313 64.7367 238.999 64.0625C238.684 63.3845 238.527 62.5833 238.527 61.6591C238.527 60.7424 238.684 59.947 238.999 59.2727C239.313 58.5985 239.751 58.0777 240.311 57.7102C240.872 57.3428 241.52 57.1591 242.255 57.1591C242.823 57.1591 243.272 57.2538 243.601 57.4432C243.934 57.6288 244.188 57.8409 244.362 58.0795C244.541 58.3144 244.679 58.5076 244.777 58.6591H244.891V54.3636H246.232V66H244.936V64.6591H244.777C244.679 64.8182 244.539 65.0189 244.357 65.2614C244.175 65.5 243.916 65.714 243.578 65.9034C243.241 66.089 242.792 66.1818 242.232 66.1818ZM242.414 64.9773C242.951 64.9773 243.406 64.8371 243.777 64.5568C244.148 64.2727 244.431 63.8807 244.624 63.3807C244.817 62.8769 244.914 62.2955 244.914 61.6364C244.914 60.9848 244.819 60.4148 244.63 59.9261C244.44 59.4337 244.16 59.0511 243.789 58.7784C243.417 58.5019 242.959 58.3636 242.414 58.3636C241.845 58.3636 241.372 58.5095 240.993 58.8011C240.618 59.089 240.336 59.4811 240.147 59.9773C239.961 60.4697 239.868 61.0227 239.868 61.6364C239.868 62.2576 239.963 62.822 240.152 63.3295C240.345 63.8333 240.63 64.2348 241.005 64.5341C241.383 64.8295 241.853 64.9773 242.414 64.9773ZM253.374 66V57.2727H254.669V58.5909H254.76C254.919 58.1591 255.207 57.8087 255.624 57.5398C256.041 57.2708 256.51 57.1364 257.033 57.1364C257.131 57.1364 257.255 57.1383 257.402 57.142C257.55 57.1458 257.662 57.1515 257.737 57.1591V58.5227C257.692 58.5114 257.588 58.4943 257.425 58.4716C257.266 58.4451 257.097 58.4318 256.919 58.4318C256.495 58.4318 256.116 58.5208 255.783 58.6989C255.453 58.8731 255.192 59.1155 254.999 59.4261C254.809 59.733 254.715 60.0833 254.715 60.4773V66H253.374ZM262.72 66.1818C261.88 66.1818 261.154 65.9962 260.544 65.625C259.938 65.25 259.47 64.7273 259.141 64.0568C258.815 63.3826 258.652 62.5985 258.652 61.7045C258.652 60.8106 258.815 60.0227 259.141 59.3409C259.47 58.6553 259.929 58.1212 260.516 57.7386C261.107 57.3523 261.796 57.1591 262.584 57.1591C263.039 57.1591 263.487 57.2348 263.931 57.3864C264.374 57.5379 264.777 57.7841 265.141 58.125C265.505 58.4621 265.794 58.9091 266.01 59.4659C266.226 60.0227 266.334 60.7083 266.334 61.5227V62.0909H259.607V60.9318H264.97C264.97 60.4394 264.872 60 264.675 59.6136C264.482 59.2273 264.205 58.9223 263.845 58.6989C263.489 58.4754 263.069 58.3636 262.584 58.3636C262.05 58.3636 261.588 58.4962 261.198 58.7614C260.811 59.0227 260.514 59.3636 260.306 59.7841C260.097 60.2045 259.993 60.6553 259.993 61.1364V61.9091C259.993 62.5682 260.107 63.1269 260.334 63.5852C260.565 64.0398 260.885 64.3864 261.294 64.625C261.703 64.8598 262.179 64.9773 262.72 64.9773C263.073 64.9773 263.391 64.928 263.675 64.8295C263.963 64.7273 264.211 64.5758 264.419 64.375C264.628 64.1705 264.789 63.9167 264.902 63.6136L266.198 63.9773C266.061 64.4167 265.832 64.803 265.51 65.1364C265.188 65.4659 264.791 65.7235 264.317 65.9091C263.844 66.0909 263.311 66.1818 262.72 66.1818ZM274.556 59.2273L273.351 59.5682C273.275 59.3674 273.164 59.1723 273.016 58.983C272.872 58.7898 272.675 58.6307 272.425 58.5057C272.175 58.3807 271.855 58.3182 271.465 58.3182C270.931 58.3182 270.486 58.4413 270.13 58.6875C269.777 58.9299 269.601 59.2386 269.601 59.6136C269.601 59.947 269.722 60.2102 269.965 60.4034C270.207 60.5966 270.586 60.7576 271.101 60.8864L272.397 61.2045C273.177 61.3939 273.758 61.6837 274.141 62.0739C274.523 62.4602 274.715 62.9583 274.715 63.5682C274.715 64.0682 274.571 64.5152 274.283 64.9091C273.999 65.303 273.601 65.6136 273.09 65.8409C272.578 66.0682 271.984 66.1818 271.306 66.1818C270.415 66.1818 269.679 65.9886 269.095 65.6023C268.512 65.2159 268.143 64.6515 267.987 63.9091L269.26 63.5909C269.381 64.0606 269.611 64.4129 269.948 64.6477C270.289 64.8826 270.734 65 271.283 65C271.908 65 272.404 64.8674 272.772 64.6023C273.143 64.3333 273.328 64.0114 273.328 63.6364C273.328 63.3333 273.222 63.0795 273.01 62.875C272.798 62.6667 272.472 62.5114 272.033 62.4091L270.578 62.0682C269.779 61.8788 269.192 61.5852 268.817 61.1875C268.446 60.786 268.26 60.2841 268.26 59.6818C268.26 59.1894 268.398 58.7538 268.675 58.375C268.955 57.9962 269.336 57.6989 269.817 57.483C270.302 57.267 270.851 57.1591 271.465 57.1591C272.328 57.1591 273.006 57.3485 273.499 57.7273C273.995 58.1061 274.347 58.6061 274.556 59.2273ZM280.392 66.1818C279.551 66.1818 278.826 65.9962 278.216 65.625C277.61 65.25 277.142 64.7273 276.813 64.0568C276.487 63.3826 276.324 62.5985 276.324 61.7045C276.324 60.8106 276.487 60.0227 276.813 59.3409C277.142 58.6553 277.601 58.1212 278.188 57.7386C278.779 57.3523 279.468 57.1591 280.256 57.1591C280.71 57.1591 281.159 57.2348 281.603 57.3864C282.046 57.5379 282.449 57.7841 282.813 58.125C283.176 58.4621 283.466 58.9091 283.682 59.4659C283.898 60.0227 284.006 60.7083 284.006 61.5227V62.0909H277.279V60.9318H282.642C282.642 60.4394 282.544 60 282.347 59.6136C282.154 59.2273 281.877 58.9223 281.517 58.6989C281.161 58.4754 280.741 58.3636 280.256 58.3636C279.722 58.3636 279.26 58.4962 278.87 58.7614C278.483 59.0227 278.186 59.3636 277.978 59.7841C277.769 60.2045 277.665 60.6553 277.665 61.1364V61.9091C277.665 62.5682 277.779 63.1269 278.006 63.5852C278.237 64.0398 278.557 64.3864 278.966 64.625C279.375 64.8598 279.851 64.9773 280.392 64.9773C280.745 64.9773 281.063 64.928 281.347 64.8295C281.635 64.7273 281.883 64.5758 282.091 64.375C282.299 64.1705 282.46 63.9167 282.574 63.6136L283.87 63.9773C283.733 64.4167 283.504 64.803 283.182 65.1364C282.86 65.4659 282.462 65.7235 281.989 65.9091C281.515 66.0909 280.983 66.1818 280.392 66.1818ZM289.841 57.2727V58.4091H285.318V57.2727H289.841ZM286.637 55.1818H287.978V63.5C287.978 63.8788 288.032 64.1629 288.142 64.3523C288.256 64.5379 288.4 64.6629 288.574 64.7273C288.752 64.7879 288.94 64.8182 289.137 64.8182C289.284 64.8182 289.406 64.8106 289.5 64.7955C289.595 64.7765 289.671 64.7614 289.728 64.75L290 65.9545C289.909 65.9886 289.782 66.0227 289.62 66.0568C289.457 66.0947 289.25 66.1136 289 66.1136C288.621 66.1136 288.25 66.0322 287.887 65.8693C287.527 65.7064 287.228 65.4583 286.989 65.125C286.754 64.7917 286.637 64.3712 286.637 63.8636V55.1818ZM297.699 54.3636V66H296.358V54.3636H297.699ZM300.155 66V57.2727H301.496V66H300.155ZM300.837 55.8182C300.576 55.8182 300.35 55.7292 300.161 55.5511C299.975 55.3731 299.882 55.1591 299.882 54.9091C299.882 54.6591 299.975 54.4451 300.161 54.267C300.35 54.089 300.576 54 300.837 54C301.098 54 301.322 54.089 301.507 54.267C301.697 54.4451 301.791 54.6591 301.791 54.9091C301.791 55.1591 301.697 55.3731 301.507 55.5511C301.322 55.7292 301.098 55.8182 300.837 55.8182ZM305.293 60.75V66H303.952V57.2727H305.247V58.6364H305.361C305.566 58.1932 305.876 57.8371 306.293 57.5682C306.71 57.2955 307.247 57.1591 307.906 57.1591C308.497 57.1591 309.014 57.2803 309.458 57.5227C309.901 57.7614 310.246 58.125 310.492 58.6136C310.738 59.0985 310.861 59.7121 310.861 60.4545V66H309.52V60.5455C309.52 59.8598 309.342 59.3258 308.986 58.9432C308.63 58.5568 308.141 58.3636 307.52 58.3636C307.092 58.3636 306.71 58.4564 306.372 58.642C306.039 58.8277 305.776 59.0985 305.583 59.4545C305.389 59.8106 305.293 60.2424 305.293 60.75ZM314.561 62.8182L314.539 61.1591H314.811L318.63 57.2727H320.289L316.22 61.3864H316.107L314.561 62.8182ZM313.311 66V54.3636H314.652V66H313.311ZM318.857 66L315.448 61.6818L316.402 60.75L320.561 66H318.857ZM330.31 57.2727V58.4091H325.787V57.2727H330.31ZM327.105 55.1818H328.446V63.5C328.446 63.8788 328.501 64.1629 328.611 64.3523C328.725 64.5379 328.869 64.6629 329.043 64.7273C329.221 64.7879 329.408 64.8182 329.605 64.8182C329.753 64.8182 329.874 64.8106 329.969 64.7955C330.064 64.7765 330.139 64.7614 330.196 64.75L330.469 65.9545C330.378 65.9886 330.251 66.0227 330.088 66.0568C329.925 66.0947 329.719 66.1136 329.469 66.1136C329.09 66.1136 328.719 66.0322 328.355 65.8693C327.996 65.7064 327.696 65.4583 327.458 65.125C327.223 64.7917 327.105 64.3712 327.105 63.8636V55.1818ZM335.779 66.1818C334.991 66.1818 334.299 65.9943 333.705 65.6193C333.114 65.2443 332.652 64.7197 332.318 64.0455C331.989 63.3712 331.824 62.5833 331.824 61.6818C331.824 60.7727 331.989 59.9792 332.318 59.3011C332.652 58.6231 333.114 58.0966 333.705 57.7216C334.299 57.3466 334.991 57.1591 335.779 57.1591C336.567 57.1591 337.256 57.3466 337.847 57.7216C338.442 58.0966 338.904 58.6231 339.233 59.3011C339.567 59.9792 339.733 60.7727 339.733 61.6818C339.733 62.5833 339.567 63.3712 339.233 64.0455C338.904 64.7197 338.442 65.2443 337.847 65.6193C337.256 65.9943 336.567 66.1818 335.779 66.1818ZM335.779 64.9773C336.377 64.9773 336.87 64.8239 337.256 64.517C337.642 64.2102 337.928 63.8068 338.114 63.3068C338.299 62.8068 338.392 62.2652 338.392 61.6818C338.392 61.0985 338.299 60.5549 338.114 60.0511C337.928 59.5473 337.642 59.1402 337.256 58.8295C336.87 58.5189 336.377 58.3636 335.779 58.3636C335.18 58.3636 334.688 58.5189 334.301 58.8295C333.915 59.1402 333.629 59.5473 333.443 60.0511C333.258 60.5549 333.165 61.0985 333.165 61.6818C333.165 62.2652 333.258 62.8068 333.443 63.3068C333.629 63.8068 333.915 64.2102 334.301 64.517C334.688 64.8239 335.18 64.9773 335.779 64.9773ZM29.1167 92.1648C28.5599 92.1648 28.0637 92.0682 27.6281 91.875C27.1925 91.678 26.8478 91.3883 26.594 91.0057C26.344 90.6193 26.219 90.1383 26.219 89.5625C26.219 89.0777 26.308 88.6705 26.486 88.3409C26.6641 88.0114 26.9065 87.7462 27.2133 87.5455C27.5201 87.3447 27.8686 87.1932 28.2588 87.0909C28.6527 86.9886 29.0656 86.9167 29.4974 86.875C30.005 86.822 30.4141 86.7727 30.7247 86.7273C31.0353 86.678 31.2607 86.6061 31.4008 86.5114C31.541 86.4167 31.611 86.2765 31.611 86.0909V86.0568C31.611 85.697 31.4974 85.4186 31.2701 85.2216C31.0467 85.0246 30.7285 84.9261 30.3156 84.9261C29.88 84.9261 29.5334 85.0227 29.2758 85.2159C29.0182 85.4053 28.8478 85.6439 28.7645 85.9318L26.5258 85.75C26.6395 85.2197 26.8629 84.7614 27.1963 84.375C27.5296 83.9848 27.9595 83.6856 28.486 83.4773C29.0164 83.2652 29.63 83.1591 30.327 83.1591C30.8118 83.1591 31.2758 83.2159 31.719 83.3295C32.166 83.4432 32.5618 83.6193 32.9065 83.858C33.255 84.0966 33.5296 84.4034 33.7304 84.7784C33.9311 85.1496 34.0315 85.5947 34.0315 86.1136V92H31.736V90.7898H31.6679C31.5277 91.0625 31.3402 91.303 31.1054 91.5114C30.8705 91.7159 30.5883 91.8769 30.2588 91.9943C29.9292 92.108 29.5485 92.1648 29.1167 92.1648ZM29.8099 90.4943C30.166 90.4943 30.4804 90.4242 30.7531 90.2841C31.0258 90.1402 31.2398 89.947 31.3951 89.7045C31.5504 89.4621 31.6281 89.1875 31.6281 88.8807V87.9545C31.5523 88.0038 31.4482 88.0492 31.3156 88.0909C31.1868 88.1288 31.041 88.1648 30.8781 88.1989C30.7152 88.2292 30.5523 88.2576 30.3895 88.2841C30.2266 88.3068 30.0789 88.3277 29.9463 88.3466C29.6622 88.3883 29.4141 88.4545 29.202 88.5455C28.9898 88.6364 28.8251 88.7595 28.7076 88.9148C28.5902 89.0663 28.5315 89.2557 28.5315 89.483C28.5315 89.8125 28.6508 90.0644 28.8895 90.2386C29.1319 90.4091 29.4387 90.4943 29.8099 90.4943ZM39.1253 92.142C38.4624 92.142 37.862 91.9716 37.3241 91.6307C36.79 91.286 36.3658 90.7803 36.0514 90.1136C35.7408 89.4432 35.5855 88.6212 35.5855 87.6477C35.5855 86.6477 35.7465 85.8163 36.0684 85.1534C36.3904 84.4867 36.8184 83.9886 37.3525 83.6591C37.8904 83.3258 38.4794 83.1591 39.1196 83.1591C39.6082 83.1591 40.0154 83.2424 40.3412 83.4091C40.6707 83.572 40.9359 83.7765 41.1366 84.0227C41.3412 84.2652 41.4965 84.5038 41.6025 84.7386H41.6764V80.3636H44.0912V92H41.7048V90.6023H41.6025C41.4889 90.8447 41.3279 91.0852 41.1196 91.3239C40.915 91.5587 40.648 91.7538 40.3184 91.9091C39.9927 92.0644 39.595 92.142 39.1253 92.142ZM39.8923 90.2159C40.2825 90.2159 40.612 90.1098 40.8809 89.8977C41.1537 89.6818 41.362 89.3807 41.5059 88.9943C41.6537 88.608 41.7275 88.1553 41.7275 87.6364C41.7275 87.1174 41.6556 86.6667 41.5116 86.2841C41.3677 85.9015 41.1593 85.6061 40.8866 85.3977C40.6139 85.1894 40.2825 85.0852 39.8923 85.0852C39.4946 85.0852 39.1593 85.1932 38.8866 85.4091C38.6139 85.625 38.4075 85.9242 38.2673 86.3068C38.1271 86.6894 38.0571 87.1326 38.0571 87.6364C38.0571 88.1439 38.1271 88.5928 38.2673 88.983C38.4112 89.3693 38.6177 89.6723 38.8866 89.892C39.1593 90.108 39.4946 90.2159 39.8923 90.2159ZM46.0812 92V83.2727H48.388V84.8125H48.4903C48.6721 84.3011 48.9752 83.8977 49.3994 83.6023C49.8236 83.3068 50.3312 83.1591 50.9221 83.1591C51.5206 83.1591 52.0301 83.3087 52.4505 83.608C52.871 83.9034 53.1513 84.3049 53.2914 84.8125H53.3824C53.5604 84.3125 53.8824 83.9129 54.3483 83.6136C54.818 83.3106 55.3729 83.1591 56.013 83.1591C56.8274 83.1591 57.4884 83.4186 57.996 83.9375C58.5074 84.4527 58.763 85.1837 58.763 86.1307V92H56.3483V86.608C56.3483 86.1231 56.2195 85.7595 55.9619 85.517C55.7043 85.2746 55.3824 85.1534 54.996 85.1534C54.5566 85.1534 54.2138 85.2936 53.9676 85.5739C53.7214 85.8504 53.5983 86.2159 53.5983 86.6705V92H51.2517V86.5568C51.2517 86.1288 51.1286 85.7879 50.8824 85.5341C50.6399 85.2803 50.3199 85.1534 49.9221 85.1534C49.6532 85.1534 49.4108 85.2216 49.1949 85.358C48.9827 85.4905 48.8142 85.678 48.6892 85.9205C48.5642 86.1591 48.5017 86.4394 48.5017 86.7614V92H46.0812ZM60.675 92V83.2727H63.0954V92H60.675ZM61.8909 82.1477C61.531 82.1477 61.2223 82.0284 60.9647 81.7898C60.711 81.5473 60.5841 81.2576 60.5841 80.9205C60.5841 80.5871 60.711 80.3011 60.9647 80.0625C61.2223 79.8201 61.531 79.6989 61.8909 79.6989C62.2507 79.6989 62.5575 79.8201 62.8113 80.0625C63.0689 80.3011 63.1977 80.5871 63.1977 80.9205C63.1977 81.2576 63.0689 81.5473 62.8113 81.7898C62.5575 82.0284 62.2507 82.1477 61.8909 82.1477ZM67.4548 86.9545V92H65.0343V83.2727H67.3412V84.8125H67.4434C67.6366 84.3049 67.9605 83.9034 68.415 83.608C68.8696 83.3087 69.4207 83.1591 70.0684 83.1591C70.6745 83.1591 71.2029 83.2917 71.6537 83.5568C72.1044 83.822 72.4548 84.2008 72.7048 84.6932C72.9548 85.1818 73.0798 85.7652 73.0798 86.4432V92H70.6593V86.875C70.6631 86.3409 70.5268 85.9242 70.2503 85.625C69.9737 85.322 69.5931 85.1705 69.1082 85.1705C68.7825 85.1705 68.4946 85.2405 68.2446 85.3807C67.9984 85.5208 67.8052 85.7254 67.665 85.9943C67.5287 86.2595 67.4586 86.5795 67.4548 86.9545ZM82.6068 95.3523C81.3985 95.3523 80.3227 95.1875 79.3795 94.858C78.4363 94.5322 77.639 94.053 76.9875 93.4205C76.336 92.7917 75.8397 92.0227 75.4988 91.1136C75.1579 90.2045 74.9875 89.1705 74.9875 88.0114C74.9875 86.8674 75.1579 85.8295 75.4988 84.8977C75.8435 83.9659 76.3454 83.1667 77.0045 82.5C77.6636 81.8295 78.4685 81.3144 79.4193 80.9545C80.3738 80.5947 81.461 80.4148 82.6807 80.4148C83.8094 80.4148 84.817 80.5795 85.7034 80.9091C86.5935 81.2386 87.3473 81.7083 87.9647 82.3182C88.586 82.9242 89.0575 83.6458 89.3795 84.483C89.7053 85.3163 89.8663 86.2386 89.8625 87.25C89.8663 87.947 89.8057 88.5871 89.6807 89.1705C89.5557 89.7538 89.3587 90.2633 89.0897 90.6989C88.8246 91.1307 88.4761 91.4735 88.0443 91.7273C87.6125 91.9773 87.0897 92.1193 86.4761 92.1534C86.0367 92.1875 85.6807 92.1553 85.4079 92.0568C85.1352 91.9583 84.9269 91.8125 84.7829 91.6193C84.6428 91.4223 84.5519 91.1932 84.5102 90.9318H84.442C84.3511 91.1591 84.1731 91.3655 83.9079 91.5511C83.6428 91.733 83.3189 91.875 82.9363 91.9773C82.5575 92.0758 82.1541 92.1117 81.7261 92.0852C81.2791 92.0587 80.8549 91.9545 80.4534 91.7727C80.0557 91.5909 79.7015 91.3277 79.3909 90.983C79.0841 90.6383 78.8416 90.2121 78.6636 89.7045C78.4894 89.197 78.4003 88.6098 78.3966 87.9432C78.4003 87.2841 78.4932 86.7102 78.675 86.2216C78.8606 85.733 79.1049 85.322 79.4079 84.9886C79.7147 84.6553 80.0557 84.3939 80.4307 84.2045C80.8057 84.0152 81.1825 83.8939 81.5613 83.8409C81.9894 83.7765 82.3947 83.7765 82.7772 83.8409C83.1598 83.9053 83.4818 84.0095 83.7432 84.1534C84.0083 84.2973 84.1731 84.4527 84.2375 84.6193H84.317V83.983H86.0954V89.5284C86.0992 89.7898 86.1579 89.9924 86.2716 90.1364C86.3852 90.2803 86.5386 90.3523 86.7318 90.3523C86.9932 90.3523 87.211 90.2367 87.3852 90.0057C87.5632 89.7746 87.6958 89.4205 87.7829 88.9432C87.8738 88.4659 87.9193 87.858 87.9193 87.1193C87.9193 86.4072 87.8246 85.7822 87.6352 85.2443C87.4496 84.7027 87.1882 84.2424 86.8511 83.8636C86.5178 83.4811 86.1295 83.1705 85.6863 82.9318C85.2432 82.6932 84.7621 82.5189 84.2432 82.4091C83.728 82.2992 83.1977 82.2443 82.6522 82.2443C81.7091 82.2443 80.8852 82.3883 80.1807 82.6761C79.4761 82.9602 78.889 83.3598 78.4193 83.875C77.9496 84.3902 77.5973 84.9943 77.3625 85.6875C77.1314 86.3769 77.014 87.1288 77.0102 87.9432C77.014 88.8409 77.139 89.6364 77.3852 90.3295C77.6352 91.0189 78.0026 91.5985 78.4875 92.0682C78.9723 92.5379 79.5708 92.8939 80.2829 93.1364C80.995 93.3788 81.8132 93.5 82.7375 93.5C83.1731 93.5 83.5992 93.4678 84.0159 93.4034C84.4325 93.3428 84.8094 93.267 85.1466 93.1761C85.4837 93.089 85.7545 93.0038 85.9591 92.9205L86.5216 94.5682C86.2829 94.7045 85.9591 94.8314 85.55 94.9489C85.1447 95.0701 84.6863 95.1667 84.175 95.2386C83.6674 95.3144 83.1447 95.3523 82.6068 95.3523ZM82.3454 90.2159C82.8075 90.2159 83.175 90.1269 83.4477 89.9489C83.7242 89.7708 83.9212 89.5076 84.0386 89.1591C84.1598 88.8068 84.2166 88.3731 84.2091 87.858C84.2053 87.4034 84.1466 87.0189 84.0329 86.7045C83.9231 86.3864 83.7318 86.1458 83.4591 85.983C83.1901 85.8163 82.8151 85.733 82.3341 85.733C81.9136 85.733 81.5557 85.822 81.2602 86C80.9685 86.178 80.745 86.428 80.5897 86.75C80.4382 87.0682 80.3606 87.4432 80.3568 87.875C80.3606 88.2765 80.425 88.6572 80.55 89.017C80.675 89.3731 80.8814 89.6629 81.1693 89.8864C81.4572 90.1061 81.8492 90.2159 82.3454 90.2159ZM91.4718 95.2727V83.2727H93.8582V84.7386H93.9662C94.0722 84.5038 94.2256 84.2652 94.4264 84.0227C94.6309 83.7765 94.8961 83.572 95.2218 83.4091C95.5514 83.2424 95.9605 83.1591 96.4491 83.1591C97.0855 83.1591 97.6726 83.3258 98.2105 83.6591C98.7484 83.9886 99.1783 84.4867 99.5003 85.1534C99.8222 85.8163 99.9832 86.6477 99.9832 87.6477C99.9832 88.6212 99.826 89.4432 99.5116 90.1136C99.201 90.7803 98.7768 91.286 98.2389 91.6307C97.7048 91.9716 97.1063 92.142 96.4434 92.142C95.9737 92.142 95.5741 92.0644 95.2446 91.9091C94.9188 91.7538 94.6518 91.5587 94.4434 91.3239C94.2351 91.0852 94.076 90.8447 93.9662 90.6023H93.8923V95.2727H91.4718ZM93.8412 87.6364C93.8412 88.1553 93.9131 88.608 94.0571 88.9943C94.201 89.3807 94.4093 89.6818 94.6821 89.8977C94.9548 90.1098 95.2862 90.2159 95.6764 90.2159C96.0703 90.2159 96.4037 90.108 96.6764 89.892C96.9491 89.6723 97.1556 89.3693 97.2957 88.983C97.4396 88.5928 97.5116 88.1439 97.5116 87.6364C97.5116 87.1326 97.4415 86.6894 97.3014 86.3068C97.1612 85.9242 96.9548 85.625 96.6821 85.4091C96.4093 85.1932 96.0741 85.0852 95.6764 85.0852C95.2825 85.0852 94.9491 85.1894 94.6764 85.3977C94.4075 85.6061 94.201 85.9015 94.0571 86.2841C93.9131 86.6667 93.8412 87.1174 93.8412 87.6364ZM104.085 92.1648C103.529 92.1648 103.032 92.0682 102.597 91.875C102.161 91.678 101.817 91.3883 101.563 91.0057C101.313 90.6193 101.188 90.1383 101.188 89.5625C101.188 89.0777 101.277 88.6705 101.455 88.3409C101.633 88.0114 101.875 87.7462 102.182 87.5455C102.489 87.3447 102.837 87.1932 103.228 87.0909C103.621 86.9886 104.034 86.9167 104.466 86.875C104.974 86.822 105.383 86.7727 105.693 86.7273C106.004 86.678 106.229 86.6061 106.37 86.5114C106.51 86.4167 106.58 86.2765 106.58 86.0909V86.0568C106.58 85.697 106.466 85.4186 106.239 85.2216C106.015 85.0246 105.697 84.9261 105.284 84.9261C104.849 84.9261 104.502 85.0227 104.245 85.2159C103.987 85.4053 103.817 85.6439 103.733 85.9318L101.495 85.75C101.608 85.2197 101.832 84.7614 102.165 84.375C102.498 83.9848 102.928 83.6856 103.455 83.4773C103.985 83.2652 104.599 83.1591 105.296 83.1591C105.781 83.1591 106.245 83.2159 106.688 83.3295C107.135 83.4432 107.531 83.6193 107.875 83.858C108.224 84.0966 108.498 84.4034 108.699 84.7784C108.9 85.1496 109 85.5947 109 86.1136V92H106.705V90.7898H106.637C106.496 91.0625 106.309 91.303 106.074 91.5114C105.839 91.7159 105.557 91.8769 105.228 91.9943C104.898 92.108 104.517 92.1648 104.085 92.1648ZM104.779 90.4943C105.135 90.4943 105.449 90.4242 105.722 90.2841C105.995 90.1402 106.209 89.947 106.364 89.7045C106.519 89.4621 106.597 89.1875 106.597 88.8807V87.9545C106.521 88.0038 106.417 88.0492 106.284 88.0909C106.156 88.1288 106.01 88.1648 105.847 88.1989C105.684 88.2292 105.521 88.2576 105.358 88.2841C105.195 88.3068 105.048 88.3277 104.915 88.3466C104.631 88.3883 104.383 88.4545 104.171 88.5455C103.959 88.6364 103.794 88.7595 103.676 88.9148C103.559 89.0663 103.5 89.2557 103.5 89.483C103.5 89.8125 103.62 90.0644 103.858 90.2386C104.101 90.4091 104.407 90.4943 104.779 90.4943ZM110.878 92V83.2727H113.225V84.7955H113.316C113.475 84.2538 113.742 83.8447 114.117 83.5682C114.492 83.2879 114.924 83.1477 115.412 83.1477C115.533 83.1477 115.664 83.1553 115.804 83.1705C115.944 83.1856 116.067 83.2064 116.174 83.233V85.3807C116.06 85.3466 115.903 85.3163 115.702 85.2898C115.501 85.2633 115.317 85.25 115.151 85.25C114.795 85.25 114.477 85.3277 114.196 85.483C113.92 85.6345 113.7 85.8466 113.537 86.1193C113.378 86.392 113.299 86.7064 113.299 87.0625V92H110.878ZM119.664 92.1648C119.107 92.1648 118.611 92.0682 118.175 91.875C117.739 91.678 117.395 91.3883 117.141 91.0057C116.891 90.6193 116.766 90.1383 116.766 89.5625C116.766 89.0777 116.855 88.6705 117.033 88.3409C117.211 88.0114 117.453 87.7462 117.76 87.5455C118.067 87.3447 118.416 87.1932 118.806 87.0909C119.2 86.9886 119.612 86.9167 120.044 86.875C120.552 86.822 120.961 86.7727 121.272 86.7273C121.582 86.678 121.808 86.6061 121.948 86.5114C122.088 86.4167 122.158 86.2765 122.158 86.0909V86.0568C122.158 85.697 122.044 85.4186 121.817 85.2216C121.594 85.0246 121.275 84.9261 120.862 84.9261C120.427 84.9261 120.08 85.0227 119.823 85.2159C119.565 85.4053 119.395 85.6439 119.311 85.9318L117.073 85.75C117.186 85.2197 117.41 84.7614 117.743 84.375C118.076 83.9848 118.506 83.6856 119.033 83.4773C119.563 83.2652 120.177 83.1591 120.874 83.1591C121.359 83.1591 121.823 83.2159 122.266 83.3295C122.713 83.4432 123.109 83.6193 123.453 83.858C123.802 84.0966 124.076 84.4034 124.277 84.7784C124.478 85.1496 124.578 85.5947 124.578 86.1136V92H122.283V90.7898H122.215C122.075 91.0625 121.887 91.303 121.652 91.5114C121.417 91.7159 121.135 91.8769 120.806 91.9943C120.476 92.108 120.095 92.1648 119.664 92.1648ZM120.357 90.4943C120.713 90.4943 121.027 90.4242 121.3 90.2841C121.573 90.1402 121.787 89.947 121.942 89.7045C122.097 89.4621 122.175 89.1875 122.175 88.8807V87.9545C122.099 88.0038 121.995 88.0492 121.862 88.0909C121.734 88.1288 121.588 88.1648 121.425 88.1989C121.262 88.2292 121.099 88.2576 120.936 88.2841C120.773 88.3068 120.626 88.3277 120.493 88.3466C120.209 88.3883 119.961 88.4545 119.749 88.5455C119.537 88.6364 119.372 88.7595 119.255 88.9148C119.137 89.0663 119.078 89.2557 119.078 89.483C119.078 89.8125 119.198 90.0644 119.436 90.2386C119.679 90.4091 119.986 90.4943 120.357 90.4943ZM126.456 95.2727V83.2727H128.843V84.7386H128.951C129.057 84.5038 129.21 84.2652 129.411 84.0227C129.615 83.7765 129.88 83.572 130.206 83.4091C130.536 83.2424 130.945 83.1591 131.433 83.1591C132.07 83.1591 132.657 83.3258 133.195 83.6591C133.733 83.9886 134.163 84.4867 134.485 85.1534C134.807 85.8163 134.968 86.6477 134.968 87.6477C134.968 88.6212 134.81 89.4432 134.496 90.1136C134.185 90.7803 133.761 91.286 133.223 91.6307C132.689 91.9716 132.091 92.142 131.428 92.142C130.958 92.142 130.558 92.0644 130.229 91.9091C129.903 91.7538 129.636 91.5587 129.428 91.3239C129.219 91.0852 129.06 90.8447 128.951 90.6023H128.877V95.2727H126.456ZM128.826 87.6364C128.826 88.1553 128.898 88.608 129.041 88.9943C129.185 89.3807 129.394 89.6818 129.666 89.8977C129.939 90.1098 130.271 90.2159 130.661 90.2159C131.055 90.2159 131.388 90.108 131.661 89.892C131.933 89.6723 132.14 89.3693 132.28 88.983C132.424 88.5928 132.496 88.1439 132.496 87.6364C132.496 87.1326 132.426 86.6894 132.286 86.3068C132.146 85.9242 131.939 85.625 131.666 85.4091C131.394 85.1932 131.058 85.0852 130.661 85.0852C130.267 85.0852 129.933 85.1894 129.661 85.3977C129.392 85.6061 129.185 85.9015 129.041 86.2841C128.898 86.6667 128.826 87.1174 128.826 87.6364ZM139.002 86.9545V92H136.581V80.3636H138.933V84.8125H139.036C139.233 84.2973 139.551 83.8939 139.99 83.6023C140.43 83.3068 140.981 83.1591 141.644 83.1591C142.25 83.1591 142.778 83.2917 143.229 83.5568C143.683 83.8182 144.036 84.1951 144.286 84.6875C144.54 85.1761 144.665 85.7614 144.661 86.4432V92H142.24V86.875C142.244 86.3371 142.108 85.9186 141.831 85.6193C141.558 85.3201 141.176 85.1705 140.683 85.1705C140.354 85.1705 140.062 85.2405 139.808 85.3807C139.558 85.5208 139.362 85.7254 139.218 85.9943C139.077 86.2595 139.005 86.5795 139.002 86.9545ZM149.054 92.1648C148.497 92.1648 148.001 92.0682 147.566 91.875C147.13 91.678 146.785 91.3883 146.532 91.0057C146.282 90.6193 146.157 90.1383 146.157 89.5625C146.157 89.0777 146.246 88.6705 146.424 88.3409C146.602 88.0114 146.844 87.7462 147.151 87.5455C147.458 87.3447 147.806 87.1932 148.196 87.0909C148.59 86.9886 149.003 86.9167 149.435 86.875C149.942 86.822 150.352 86.7727 150.662 86.7273C150.973 86.678 151.198 86.6061 151.338 86.5114C151.478 86.4167 151.549 86.2765 151.549 86.0909V86.0568C151.549 85.697 151.435 85.4186 151.208 85.2216C150.984 85.0246 150.666 84.9261 150.253 84.9261C149.817 84.9261 149.471 85.0227 149.213 85.2159C148.956 85.4053 148.785 85.6439 148.702 85.9318L146.463 85.75C146.577 85.2197 146.8 84.7614 147.134 84.375C147.467 83.9848 147.897 83.6856 148.424 83.4773C148.954 83.2652 149.567 83.1591 150.264 83.1591C150.749 83.1591 151.213 83.2159 151.657 83.3295C152.103 83.4432 152.499 83.6193 152.844 83.858C153.192 84.0966 153.467 84.4034 153.668 84.7784C153.869 85.1496 153.969 85.5947 153.969 86.1136V92H151.674V90.7898H151.605C151.465 91.0625 151.278 91.303 151.043 91.5114C150.808 91.7159 150.526 91.8769 150.196 91.9943C149.867 92.108 149.486 92.1648 149.054 92.1648ZM149.747 90.4943C150.103 90.4943 150.418 90.4242 150.691 90.2841C150.963 90.1402 151.177 89.947 151.333 89.7045C151.488 89.4621 151.566 89.1875 151.566 88.8807V87.9545C151.49 88.0038 151.386 88.0492 151.253 88.0909C151.124 88.1288 150.978 88.1648 150.816 88.1989C150.653 88.2292 150.49 88.2576 150.327 88.2841C150.164 88.3068 150.016 88.3277 149.884 88.3466C149.6 88.3883 149.352 88.4545 149.139 88.5455C148.927 88.6364 148.763 88.7595 148.645 88.9148C148.528 89.0663 148.469 89.2557 148.469 89.483C148.469 89.8125 148.588 90.0644 148.827 90.2386C149.069 90.4091 149.376 90.4943 149.747 90.4943ZM155.847 92V83.2727H158.193V84.7955H158.284C158.443 84.2538 158.71 83.8447 159.085 83.5682C159.46 83.2879 159.892 83.1477 160.381 83.1477C160.502 83.1477 160.633 83.1553 160.773 83.1705C160.913 83.1856 161.036 83.2064 161.142 83.233V85.3807C161.029 85.3466 160.871 85.3163 160.671 85.2898C160.47 85.2633 160.286 85.25 160.12 85.25C159.764 85.25 159.445 85.3277 159.165 85.483C158.889 85.6345 158.669 85.8466 158.506 86.1193C158.347 86.392 158.267 86.7064 158.267 87.0625V92H155.847ZM162.394 92V83.2727H164.701V84.8125H164.803C164.985 84.3011 165.288 83.8977 165.712 83.6023C166.136 83.3068 166.644 83.1591 167.235 83.1591C167.833 83.1591 168.343 83.3087 168.763 83.608C169.183 83.9034 169.464 84.3049 169.604 84.8125H169.695C169.873 84.3125 170.195 83.9129 170.661 83.6136C171.13 83.3106 171.685 83.1591 172.326 83.1591C173.14 83.1591 173.801 83.4186 174.308 83.9375C174.82 84.4527 175.076 85.1837 175.076 86.1307V92H172.661V86.608C172.661 86.1231 172.532 85.7595 172.274 85.517C172.017 85.2746 171.695 85.1534 171.308 85.1534C170.869 85.1534 170.526 85.2936 170.28 85.5739C170.034 85.8504 169.911 86.2159 169.911 86.6705V92H167.564V86.5568C167.564 86.1288 167.441 85.7879 167.195 85.5341C166.952 85.2803 166.632 85.1534 166.235 85.1534C165.966 85.1534 165.723 85.2216 165.507 85.358C165.295 85.4905 165.127 85.678 165.002 85.9205C164.877 86.1591 164.814 86.4394 164.814 86.7614V92H162.394ZM179.476 92.1648C178.919 92.1648 178.423 92.0682 177.987 91.875C177.552 91.678 177.207 91.3883 176.953 91.0057C176.703 90.6193 176.578 90.1383 176.578 89.5625C176.578 89.0777 176.667 88.6705 176.845 88.3409C177.023 88.0114 177.266 87.7462 177.573 87.5455C177.88 87.3447 178.228 87.1932 178.618 87.0909C179.012 86.9886 179.425 86.9167 179.857 86.875C180.364 86.822 180.773 86.7727 181.084 86.7273C181.395 86.678 181.62 86.6061 181.76 86.5114C181.9 86.4167 181.97 86.2765 181.97 86.0909V86.0568C181.97 85.697 181.857 85.4186 181.63 85.2216C181.406 85.0246 181.088 84.9261 180.675 84.9261C180.239 84.9261 179.893 85.0227 179.635 85.2159C179.378 85.4053 179.207 85.6439 179.124 85.9318L176.885 85.75C176.999 85.2197 177.222 84.7614 177.556 84.375C177.889 83.9848 178.319 83.6856 178.845 83.4773C179.376 83.2652 179.989 83.1591 180.686 83.1591C181.171 83.1591 181.635 83.2159 182.078 83.3295C182.525 83.4432 182.921 83.6193 183.266 83.858C183.614 84.0966 183.889 84.4034 184.09 84.7784C184.291 85.1496 184.391 85.5947 184.391 86.1136V92H182.095V90.7898H182.027C181.887 91.0625 181.7 91.303 181.465 91.5114C181.23 91.7159 180.948 91.8769 180.618 91.9943C180.289 92.108 179.908 92.1648 179.476 92.1648ZM180.169 90.4943C180.525 90.4943 180.84 90.4242 181.112 90.2841C181.385 90.1402 181.599 89.947 181.755 89.7045C181.91 89.4621 181.987 89.1875 181.987 88.8807V87.9545C181.912 88.0038 181.808 88.0492 181.675 88.0909C181.546 88.1288 181.4 88.1648 181.237 88.1989C181.075 88.2292 180.912 88.2576 180.749 88.2841C180.586 88.3068 180.438 88.3277 180.306 88.3466C180.022 88.3883 179.773 88.4545 179.561 88.5455C179.349 88.6364 179.184 88.7595 179.067 88.9148C178.95 89.0663 178.891 89.2557 178.891 89.483C178.891 89.8125 179.01 90.0644 179.249 90.2386C179.491 90.4091 179.798 90.4943 180.169 90.4943ZM190.212 92.1705C189.318 92.1705 188.549 91.9811 187.905 91.6023C187.265 91.2197 186.773 90.6894 186.428 90.0114C186.087 89.3333 185.916 88.553 185.916 87.6705C185.916 86.7765 186.089 85.9924 186.433 85.3182C186.782 84.6402 187.276 84.1117 187.916 83.733C188.557 83.3504 189.318 83.1591 190.201 83.1591C190.962 83.1591 191.629 83.2973 192.201 83.5739C192.773 83.8504 193.225 84.2386 193.558 84.7386C193.892 85.2386 194.076 85.8258 194.11 86.5H191.826C191.761 86.0644 191.591 85.714 191.314 85.4489C191.041 85.1799 190.683 85.0455 190.24 85.0455C189.865 85.0455 189.538 85.1477 189.257 85.3523C188.981 85.553 188.765 85.8466 188.61 86.233C188.454 86.6193 188.377 87.0871 188.377 87.6364C188.377 88.1932 188.452 88.6667 188.604 89.0568C188.759 89.447 188.977 89.7443 189.257 89.9489C189.538 90.1534 189.865 90.2557 190.24 90.2557C190.517 90.2557 190.765 90.1989 190.985 90.0852C191.208 89.9716 191.392 89.8068 191.536 89.5909C191.683 89.3712 191.78 89.108 191.826 88.8011H194.11C194.072 89.4678 193.89 90.0549 193.564 90.5625C193.242 91.0663 192.797 91.4602 192.229 91.7443C191.661 92.0284 190.988 92.1705 190.212 92.1705ZM197.154 95.2727C196.847 95.2727 196.559 95.2481 196.29 95.1989C196.025 95.1534 195.805 95.0947 195.631 95.0227L196.176 93.2159C196.46 93.303 196.716 93.3504 196.943 93.358C197.174 93.3655 197.373 93.3125 197.54 93.1989C197.71 93.0852 197.849 92.892 197.955 92.6193L198.097 92.25L194.966 83.2727H197.512L199.318 89.6818H199.409L201.233 83.2727H203.796L200.404 92.9432C200.241 93.4129 200.019 93.822 199.739 94.1705C199.462 94.5227 199.112 94.7936 198.688 94.983C198.264 95.1761 197.752 95.2727 197.154 95.2727ZM205.902 92.1477C205.527 92.1477 205.205 92.0152 204.936 91.75C204.671 91.4811 204.539 91.1591 204.539 90.7841C204.539 90.4129 204.671 90.0947 204.936 89.8295C205.205 89.5644 205.527 89.4318 205.902 89.4318C206.266 89.4318 206.584 89.5644 206.857 89.8295C207.13 90.0947 207.266 90.4129 207.266 90.7841C207.266 91.0341 207.201 91.2633 207.073 91.4716C206.948 91.6761 206.783 91.8409 206.578 91.9659C206.374 92.0871 206.148 92.1477 205.902 92.1477ZM213.196 92.1705C212.302 92.1705 211.533 91.9811 210.889 91.6023C210.249 91.2197 209.757 90.6894 209.412 90.0114C209.071 89.3333 208.901 88.553 208.901 87.6705C208.901 86.7765 209.073 85.9924 209.418 85.3182C209.766 84.6402 210.261 84.1117 210.901 83.733C211.541 83.3504 212.302 83.1591 213.185 83.1591C213.946 83.1591 214.613 83.2973 215.185 83.5739C215.757 83.8504 216.21 84.2386 216.543 84.7386C216.876 85.2386 217.06 85.8258 217.094 86.5H214.81C214.746 86.0644 214.575 85.714 214.299 85.4489C214.026 85.1799 213.668 85.0455 213.225 85.0455C212.85 85.0455 212.522 85.1477 212.242 85.3523C211.965 85.553 211.749 85.8466 211.594 86.233C211.439 86.6193 211.361 87.0871 211.361 87.6364C211.361 88.1932 211.437 88.6667 211.588 89.0568C211.744 89.447 211.961 89.7443 212.242 89.9489C212.522 90.1534 212.85 90.2557 213.225 90.2557C213.501 90.2557 213.749 90.1989 213.969 90.0852C214.192 89.9716 214.376 89.8068 214.52 89.5909C214.668 89.3712 214.764 89.108 214.81 88.8011H217.094C217.056 89.4678 216.874 90.0549 216.549 90.5625C216.227 91.0663 215.782 91.4602 215.213 91.7443C214.645 92.0284 213.973 92.1705 213.196 92.1705ZM222.587 92.1705C221.704 92.1705 220.941 91.983 220.297 91.608C219.657 91.2292 219.163 90.7027 218.814 90.0284C218.466 89.3504 218.291 88.5644 218.291 87.6705C218.291 86.7689 218.466 85.9811 218.814 85.3068C219.163 84.6288 219.657 84.1023 220.297 83.7273C220.941 83.3485 221.704 83.1591 222.587 83.1591C223.469 83.1591 224.231 83.3485 224.871 83.7273C225.515 84.1023 226.011 84.6288 226.36 85.3068C226.708 85.9811 226.882 86.7689 226.882 87.6705C226.882 88.5644 226.708 89.3504 226.36 90.0284C226.011 90.7027 225.515 91.2292 224.871 91.608C224.231 91.983 223.469 92.1705 222.587 92.1705ZM222.598 90.2955C223 90.2955 223.335 90.1818 223.604 89.9545C223.873 89.7235 224.076 89.4091 224.212 89.0114C224.352 88.6136 224.422 88.161 224.422 87.6534C224.422 87.1458 224.352 86.6932 224.212 86.2955C224.076 85.8977 223.873 85.5833 223.604 85.3523C223.335 85.1212 223 85.0057 222.598 85.0057C222.193 85.0057 221.852 85.1212 221.576 85.3523C221.303 85.5833 221.096 85.8977 220.956 86.2955C220.82 86.6932 220.752 87.1458 220.752 87.6534C220.752 88.161 220.82 88.6136 220.956 89.0114C221.096 89.4091 221.303 89.7235 221.576 89.9545C221.852 90.1818 222.193 90.2955 222.598 90.2955ZM228.456 92V83.2727H230.763V84.8125H230.865C231.047 84.3011 231.35 83.8977 231.774 83.6023C232.199 83.3068 232.706 83.1591 233.297 83.1591C233.896 83.1591 234.405 83.3087 234.826 83.608C235.246 83.9034 235.526 84.3049 235.666 84.8125H235.757C235.935 84.3125 236.257 83.9129 236.723 83.6136C237.193 83.3106 237.748 83.1591 238.388 83.1591C239.202 83.1591 239.863 83.4186 240.371 83.9375C240.882 84.4527 241.138 85.1837 241.138 86.1307V92H238.723V86.608C238.723 86.1231 238.594 85.7595 238.337 85.517C238.079 85.2746 237.757 85.1534 237.371 85.1534C236.932 85.1534 236.589 85.2936 236.343 85.5739C236.096 85.8504 235.973 86.2159 235.973 86.6705V92H233.627V86.5568C233.627 86.1288 233.504 85.7879 233.257 85.5341C233.015 85.2803 232.695 85.1534 232.297 85.1534C232.028 85.1534 231.786 85.2216 231.57 85.358C231.358 85.4905 231.189 85.678 231.064 85.9205C230.939 86.1591 230.877 86.4394 230.877 86.7614V92H228.456ZM244.289 92.0909C244.008 92.0909 243.768 91.9905 243.567 91.7898C243.366 91.589 243.266 91.3485 243.266 91.0682C243.266 90.7879 243.366 90.5473 243.567 90.3466C243.768 90.1458 244.008 90.0455 244.289 90.0455C244.569 90.0455 244.809 90.1458 245.01 90.3466C245.211 90.5473 245.311 90.7879 245.311 91.0682C245.311 91.2538 245.264 91.4242 245.169 91.5795C245.078 91.7348 244.955 91.8598 244.8 91.9545C244.648 92.0455 244.478 92.0909 244.289 92.0909ZM252.399 92V80.3636H256.331C257.244 80.3636 257.99 80.5284 258.57 80.858C259.153 81.1837 259.585 81.625 259.865 82.1818C260.146 82.7386 260.286 83.3598 260.286 84.0455C260.286 84.7311 260.146 85.3542 259.865 85.9148C259.589 86.4754 259.161 86.9223 258.581 87.2557C258.002 87.5852 257.259 87.75 256.354 87.75H253.536V86.5H256.308C256.933 86.5 257.435 86.392 257.814 86.1761C258.193 85.9602 258.468 85.6686 258.638 85.3011C258.812 84.9299 258.899 84.5114 258.899 84.0455C258.899 83.5795 258.812 83.1629 258.638 82.7955C258.468 82.428 258.191 82.1402 257.808 81.9318C257.426 81.7197 256.918 81.6136 256.286 81.6136H253.808V92H252.399ZM263.715 80.3636V92H262.374V80.3636H263.715ZM269.83 92.1818C268.989 92.1818 268.264 91.9962 267.654 91.625C267.048 91.25 266.58 90.7273 266.25 90.0568C265.924 89.3826 265.762 88.5985 265.762 87.7045C265.762 86.8106 265.924 86.0227 266.25 85.3409C266.58 84.6553 267.038 84.1212 267.625 83.7386C268.216 83.3523 268.906 83.1591 269.693 83.1591C270.148 83.1591 270.597 83.2348 271.04 83.3864C271.483 83.5379 271.887 83.7841 272.25 84.125C272.614 84.4621 272.904 84.9091 273.12 85.4659C273.335 86.0227 273.443 86.7083 273.443 87.5227V88.0909H266.716V86.9318H272.08C272.08 86.4394 271.981 86 271.784 85.6136C271.591 85.2273 271.315 84.9223 270.955 84.6989C270.599 84.4754 270.178 84.3636 269.693 84.3636C269.159 84.3636 268.697 84.4962 268.307 84.7614C267.921 85.0227 267.623 85.3636 267.415 85.7841C267.207 86.2045 267.103 86.6553 267.103 87.1364V87.9091C267.103 88.5682 267.216 89.1269 267.443 89.5852C267.674 90.0398 267.995 90.3864 268.404 90.625C268.813 90.8598 269.288 90.9773 269.83 90.9773C270.182 90.9773 270.5 90.928 270.784 90.8295C271.072 90.7273 271.32 90.5758 271.529 90.375C271.737 90.1705 271.898 89.9167 272.012 89.6136L273.307 89.9773C273.171 90.4167 272.942 90.803 272.62 91.1364C272.298 91.4659 271.9 91.7235 271.426 91.9091C270.953 92.0909 270.421 92.1818 269.83 92.1818ZM278.051 92.2045C277.498 92.2045 276.996 92.1004 276.546 91.892C276.095 91.6799 275.737 91.375 275.472 90.9773C275.207 90.5758 275.074 90.0909 275.074 89.5227C275.074 89.0227 275.173 88.6174 275.37 88.3068C275.567 87.9924 275.83 87.7462 276.159 87.5682C276.489 87.3902 276.853 87.2576 277.25 87.1705C277.652 87.0795 278.055 87.0076 278.46 86.9545C278.991 86.8864 279.421 86.8352 279.75 86.8011C280.084 86.7633 280.326 86.7008 280.478 86.6136C280.633 86.5265 280.71 86.375 280.71 86.1591V86.1136C280.71 85.553 280.557 85.1174 280.25 84.8068C279.947 84.4962 279.487 84.3409 278.87 84.3409C278.229 84.3409 277.728 84.4811 277.364 84.7614C277 85.0417 276.745 85.3409 276.597 85.6591L275.324 85.2045C275.551 84.6742 275.854 84.2614 276.233 83.9659C276.616 83.6667 277.032 83.4583 277.483 83.3409C277.938 83.2197 278.385 83.1591 278.824 83.1591C279.104 83.1591 279.426 83.1932 279.79 83.2614C280.157 83.3258 280.512 83.4602 280.853 83.6648C281.197 83.8693 281.483 84.178 281.71 84.5909C281.938 85.0038 282.051 85.5568 282.051 86.25V92H280.71V90.8182H280.642C280.551 91.0076 280.4 91.2102 280.188 91.4261C279.976 91.642 279.693 91.8258 279.341 91.9773C278.989 92.1288 278.559 92.2045 278.051 92.2045ZM278.256 91C278.786 91 279.233 90.8958 279.597 90.6875C279.964 90.4792 280.241 90.2102 280.426 89.8807C280.616 89.5511 280.71 89.2045 280.71 88.8409V87.6136C280.654 87.6818 280.529 87.7443 280.335 87.8011C280.146 87.8542 279.926 87.9015 279.676 87.9432C279.43 87.9811 279.19 88.0152 278.955 88.0455C278.724 88.072 278.536 88.0947 278.392 88.1136C278.044 88.1591 277.718 88.233 277.415 88.3352C277.116 88.4337 276.873 88.5833 276.688 88.7841C276.506 88.9811 276.415 89.25 276.415 89.5909C276.415 90.0568 276.587 90.4091 276.932 90.6477C277.281 90.8826 277.722 91 278.256 91ZM290.681 85.2273L289.476 85.5682C289.4 85.3674 289.289 85.1723 289.141 84.983C288.997 84.7898 288.8 84.6307 288.55 84.5057C288.3 84.3807 287.98 84.3182 287.59 84.3182C287.056 84.3182 286.611 84.4413 286.255 84.6875C285.902 84.9299 285.726 85.2386 285.726 85.6136C285.726 85.947 285.847 86.2102 286.09 86.4034C286.332 86.5966 286.711 86.7576 287.226 86.8864L288.522 87.2045C289.302 87.3939 289.883 87.6837 290.266 88.0739C290.648 88.4602 290.84 88.9583 290.84 89.5682C290.84 90.0682 290.696 90.5152 290.408 90.9091C290.124 91.303 289.726 91.6136 289.215 91.8409C288.703 92.0682 288.109 92.1818 287.431 92.1818C286.54 92.1818 285.804 91.9886 285.22 91.6023C284.637 91.2159 284.268 90.6515 284.112 89.9091L285.385 89.5909C285.506 90.0606 285.736 90.4129 286.073 90.6477C286.414 90.8826 286.859 91 287.408 91C288.033 91 288.529 90.8674 288.897 90.6023C289.268 90.3333 289.453 90.0114 289.453 89.6364C289.453 89.3333 289.347 89.0795 289.135 88.875C288.923 88.6667 288.597 88.5114 288.158 88.4091L286.703 88.0682C285.904 87.8788 285.317 87.5852 284.942 87.1875C284.571 86.786 284.385 86.2841 284.385 85.6818C284.385 85.1894 284.523 84.7538 284.8 84.375C285.08 83.9962 285.461 83.6989 285.942 83.483C286.427 83.267 286.976 83.1591 287.59 83.1591C288.453 83.1591 289.131 83.3485 289.624 83.7273C290.12 84.1061 290.472 84.6061 290.681 85.2273ZM296.517 92.1818C295.676 92.1818 294.951 91.9962 294.341 91.625C293.735 91.25 293.267 90.7273 292.938 90.0568C292.612 89.3826 292.449 88.5985 292.449 87.7045C292.449 86.8106 292.612 86.0227 292.938 85.3409C293.267 84.6553 293.726 84.1212 294.313 83.7386C294.904 83.3523 295.593 83.1591 296.381 83.1591C296.835 83.1591 297.284 83.2348 297.728 83.3864C298.171 83.5379 298.574 83.7841 298.938 84.125C299.301 84.4621 299.591 84.9091 299.807 85.4659C300.023 86.0227 300.131 86.7083 300.131 87.5227V88.0909H293.404V86.9318H298.767C298.767 86.4394 298.669 86 298.472 85.6136C298.279 85.2273 298.002 84.9223 297.642 84.6989C297.286 84.4754 296.866 84.3636 296.381 84.3636C295.847 84.3636 295.385 84.4962 294.995 84.7614C294.608 85.0227 294.311 85.3636 294.103 85.7841C293.894 86.2045 293.79 86.6553 293.79 87.1364V87.9091C293.79 88.5682 293.904 89.1269 294.131 89.5852C294.362 90.0398 294.682 90.3864 295.091 90.625C295.5 90.8598 295.976 90.9773 296.517 90.9773C296.87 90.9773 297.188 90.928 297.472 90.8295C297.76 90.7273 298.008 90.5758 298.216 90.375C298.424 90.1705 298.585 89.9167 298.699 89.6136L299.995 89.9773C299.858 90.4167 299.629 90.803 299.307 91.1364C298.985 91.4659 298.587 91.7235 298.114 91.9091C297.64 92.0909 297.108 92.1818 296.517 92.1818ZM310.216 92.1818C309.398 92.1818 308.693 91.9886 308.103 91.6023C307.512 91.2159 307.057 90.6837 306.739 90.0057C306.421 89.3277 306.262 88.553 306.262 87.6818C306.262 86.7955 306.424 86.0133 306.75 85.3352C307.08 84.6534 307.538 84.1212 308.125 83.7386C308.716 83.3523 309.406 83.1591 310.193 83.1591C310.807 83.1591 311.36 83.2727 311.853 83.5C312.345 83.7273 312.748 84.0455 313.063 84.4545C313.377 84.8636 313.572 85.3409 313.648 85.8864H312.307C312.205 85.4886 311.978 85.1364 311.625 84.8295C311.277 84.5189 310.807 84.3636 310.216 84.3636C309.693 84.3636 309.235 84.5 308.841 84.7727C308.451 85.0417 308.146 85.4223 307.926 85.9148C307.71 86.4034 307.603 86.9773 307.603 87.6364C307.603 88.3106 307.709 88.8977 307.921 89.3977C308.137 89.8977 308.44 90.286 308.83 90.5625C309.224 90.839 309.686 90.9773 310.216 90.9773C310.565 90.9773 310.881 90.9167 311.165 90.7955C311.449 90.6742 311.69 90.5 311.887 90.2727C312.084 90.0455 312.224 89.7727 312.307 89.4545H313.648C313.572 89.9697 313.385 90.4337 313.085 90.8466C312.79 91.2557 312.398 91.5814 311.909 91.8239C311.424 92.0625 310.86 92.1818 310.216 92.1818ZM316.949 86.75V92H315.608V80.3636H316.949V84.6364H317.063C317.267 84.1856 317.574 83.8277 317.983 83.5625C318.396 83.2936 318.945 83.1591 319.631 83.1591C320.226 83.1591 320.746 83.2784 321.193 83.517C321.64 83.7519 321.987 84.1136 322.233 84.6023C322.483 85.0871 322.608 85.7045 322.608 86.4545V92H321.267V86.5455C321.267 85.8523 321.087 85.3163 320.728 84.9375C320.371 84.5549 319.877 84.3636 319.245 84.3636C318.805 84.3636 318.411 84.4564 318.063 84.642C317.718 84.8277 317.445 85.0985 317.245 85.4545C317.048 85.8106 316.949 86.2424 316.949 86.75ZM328.72 92.1818C327.88 92.1818 327.154 91.9962 326.544 91.625C325.938 91.25 325.47 90.7273 325.141 90.0568C324.815 89.3826 324.652 88.5985 324.652 87.7045C324.652 86.8106 324.815 86.0227 325.141 85.3409C325.47 84.6553 325.929 84.1212 326.516 83.7386C327.107 83.3523 327.796 83.1591 328.584 83.1591C329.039 83.1591 329.487 83.2348 329.931 83.3864C330.374 83.5379 330.777 83.7841 331.141 84.125C331.505 84.4621 331.794 84.9091 332.01 85.4659C332.226 86.0227 332.334 86.7083 332.334 87.5227V88.0909H325.607V86.9318H330.97C330.97 86.4394 330.872 86 330.675 85.6136C330.482 85.2273 330.205 84.9223 329.845 84.6989C329.489 84.4754 329.069 84.3636 328.584 84.3636C328.05 84.3636 327.588 84.4962 327.198 84.7614C326.811 85.0227 326.514 85.3636 326.306 85.7841C326.097 86.2045 325.993 86.6553 325.993 87.1364V87.9091C325.993 88.5682 326.107 89.1269 326.334 89.5852C326.565 90.0398 326.885 90.3864 327.294 90.625C327.703 90.8598 328.179 90.9773 328.72 90.9773C329.073 90.9773 329.391 90.928 329.675 90.8295C329.963 90.7273 330.211 90.5758 330.419 90.375C330.628 90.1705 330.789 89.9167 330.902 89.6136L332.198 89.9773C332.061 90.4167 331.832 90.803 331.51 91.1364C331.188 91.4659 330.79 91.7235 330.317 91.9091C329.844 92.0909 329.311 92.1818 328.72 92.1818ZM337.919 92.1818C337.101 92.1818 336.397 91.9886 335.806 91.6023C335.215 91.2159 334.76 90.6837 334.442 90.0057C334.124 89.3277 333.965 88.553 333.965 87.6818C333.965 86.7955 334.128 86.0133 334.453 85.3352C334.783 84.6534 335.241 84.1212 335.828 83.7386C336.419 83.3523 337.109 83.1591 337.897 83.1591C338.51 83.1591 339.063 83.2727 339.556 83.5C340.048 83.7273 340.451 84.0455 340.766 84.4545C341.08 84.8636 341.275 85.3409 341.351 85.8864H340.01C339.908 85.4886 339.681 85.1364 339.328 84.8295C338.98 84.5189 338.51 84.3636 337.919 84.3636C337.397 84.3636 336.938 84.5 336.544 84.7727C336.154 85.0417 335.849 85.4223 335.629 85.9148C335.414 86.4034 335.306 86.9773 335.306 87.6364C335.306 88.3106 335.412 88.8977 335.624 89.3977C335.84 89.8977 336.143 90.286 336.533 90.5625C336.927 90.839 337.389 90.9773 337.919 90.9773C338.268 90.9773 338.584 90.9167 338.868 90.7955C339.152 90.6742 339.393 90.5 339.59 90.2727C339.787 90.0455 339.927 89.7727 340.01 89.4545H341.351C341.275 89.9697 341.088 90.4337 340.789 90.8466C340.493 91.2557 340.101 91.5814 339.612 91.8239C339.128 92.0625 338.563 92.1818 337.919 92.1818ZM344.561 88.8182L344.539 87.1591H344.811L348.63 83.2727H350.289L346.22 87.3864H346.107L344.561 88.8182ZM343.311 92V80.3636H344.652V92H343.311ZM348.857 92L345.448 87.6818L346.402 86.75L350.561 92H348.857ZM357.378 95.2727C357.151 95.2727 356.948 95.2538 356.77 95.2159C356.592 95.1818 356.469 95.1477 356.401 95.1136L356.742 93.9318C357.067 94.0152 357.355 94.0455 357.605 94.0227C357.855 94 358.077 93.8883 358.27 93.6875C358.467 93.4905 358.647 93.1705 358.81 92.7273L359.06 92.0455L355.833 83.2727H357.287L359.696 90.2273H359.787L362.196 83.2727H363.651L359.946 93.2727C359.78 93.7235 359.573 94.0966 359.327 94.392C359.081 94.6913 358.795 94.9129 358.469 95.0568C358.147 95.2008 357.783 95.2727 357.378 95.2727ZM368.654 92.1818C367.866 92.1818 367.174 91.9943 366.58 91.6193C365.989 91.2443 365.527 90.7197 365.193 90.0455C364.864 89.3712 364.699 88.5833 364.699 87.6818C364.699 86.7727 364.864 85.9792 365.193 85.3011C365.527 84.6231 365.989 84.0966 366.58 83.7216C367.174 83.3466 367.866 83.1591 368.654 83.1591C369.442 83.1591 370.131 83.3466 370.722 83.7216C371.317 84.0966 371.779 84.6231 372.108 85.3011C372.442 85.9792 372.608 86.7727 372.608 87.6818C372.608 88.5833 372.442 89.3712 372.108 90.0455C371.779 90.7197 371.317 91.2443 370.722 91.6193C370.131 91.9943 369.442 92.1818 368.654 92.1818ZM368.654 90.9773C369.252 90.9773 369.745 90.8239 370.131 90.517C370.517 90.2102 370.803 89.8068 370.989 89.3068C371.174 88.8068 371.267 88.2652 371.267 87.6818C371.267 87.0985 371.174 86.5549 370.989 86.0511C370.803 85.5473 370.517 85.1402 370.131 84.8295C369.745 84.5189 369.252 84.3636 368.654 84.3636C368.055 84.3636 367.563 84.5189 367.176 84.8295C366.79 85.1402 366.504 85.5473 366.318 86.0511C366.133 86.5549 366.04 87.0985 366.04 87.6818C366.04 88.2652 366.133 88.8068 366.318 89.3068C366.504 89.8068 366.79 90.2102 367.176 90.517C367.563 90.8239 368.055 90.9773 368.654 90.9773ZM380.155 88.4318V83.2727H381.496V92H380.155V90.5227H380.064C379.86 90.9659 379.541 91.3428 379.11 91.6534C378.678 91.9602 378.132 92.1136 377.473 92.1136C376.928 92.1136 376.443 91.9943 376.019 91.7557C375.594 91.5133 375.261 91.1496 375.019 90.6648C374.776 90.1761 374.655 89.5606 374.655 88.8182V83.2727H375.996V88.7273C375.996 89.3636 376.174 89.8712 376.53 90.25C376.89 90.6288 377.348 90.8182 377.905 90.8182C378.238 90.8182 378.577 90.733 378.922 90.5625C379.271 90.392 379.562 90.1307 379.797 89.7784C380.036 89.4261 380.155 88.9773 380.155 88.4318ZM383.952 92V83.2727H385.247V84.5909H385.338C385.497 84.1591 385.785 83.8087 386.202 83.5398C386.619 83.2708 387.088 83.1364 387.611 83.1364C387.71 83.1364 387.833 83.1383 387.98 83.142C388.128 83.1458 388.24 83.1515 388.316 83.1591V84.5227C388.27 84.5114 388.166 84.4943 388.003 84.4716C387.844 84.4451 387.675 84.4318 387.497 84.4318C387.073 84.4318 386.694 84.5208 386.361 84.6989C386.031 84.8731 385.77 85.1155 385.577 85.4261C385.388 85.733 385.293 86.0833 385.293 86.4773V92H383.952ZM85.8504 118V109.273H87.1913V118H85.8504ZM86.5322 107.818C86.2709 107.818 86.0455 107.729 85.8561 107.551C85.6705 107.373 85.5777 107.159 85.5777 106.909C85.5777 106.659 85.6705 106.445 85.8561 106.267C86.0455 106.089 86.2709 106 86.5322 106C86.7936 106 87.0171 106.089 87.2027 106.267C87.3921 106.445 87.4868 106.659 87.4868 106.909C87.4868 107.159 87.3921 107.373 87.2027 107.551C87.0171 107.729 86.7936 107.818 86.5322 107.818ZM90.9882 112.75V118H89.6473V109.273H90.9427V110.636H91.0564C91.2609 110.193 91.5715 109.837 91.9882 109.568C92.4048 109.295 92.9427 109.159 93.6018 109.159C94.1927 109.159 94.7098 109.28 95.153 109.523C95.5961 109.761 95.9408 110.125 96.187 110.614C96.4333 111.098 96.5564 111.712 96.5564 112.455V118H95.2155V112.545C95.2155 111.86 95.0374 111.326 94.6814 110.943C94.3253 110.557 93.8367 110.364 93.2155 110.364C92.7874 110.364 92.4048 110.456 92.0677 110.642C91.7344 110.828 91.4711 111.098 91.278 111.455C91.0848 111.811 90.9882 112.242 90.9882 112.75ZM99.1885 118V106.364H100.529V110.659H100.643C100.741 110.508 100.878 110.314 101.052 110.08C101.23 109.841 101.484 109.629 101.813 109.443C102.147 109.254 102.598 109.159 103.166 109.159C103.901 109.159 104.548 109.343 105.109 109.71C105.67 110.078 106.107 110.598 106.421 111.273C106.736 111.947 106.893 112.742 106.893 113.659C106.893 114.583 106.736 115.384 106.421 116.062C106.107 116.737 105.671 117.259 105.115 117.631C104.558 117.998 103.916 118.182 103.188 118.182C102.628 118.182 102.179 118.089 101.842 117.903C101.505 117.714 101.245 117.5 101.063 117.261C100.882 117.019 100.741 116.818 100.643 116.659H100.484V118H99.1885ZM100.507 113.636C100.507 114.295 100.603 114.877 100.796 115.381C100.99 115.881 101.272 116.273 101.643 116.557C102.014 116.837 102.469 116.977 103.007 116.977C103.567 116.977 104.035 116.83 104.41 116.534C104.789 116.235 105.073 115.833 105.262 115.33C105.456 114.822 105.552 114.258 105.552 113.636C105.552 113.023 105.457 112.47 105.268 111.977C105.082 111.481 104.8 111.089 104.421 110.801C104.046 110.509 103.575 110.364 103.007 110.364C102.461 110.364 102.003 110.502 101.632 110.778C101.26 111.051 100.98 111.434 100.791 111.926C100.601 112.415 100.507 112.985 100.507 113.636ZM112.49 118.182C111.702 118.182 111.01 117.994 110.416 117.619C109.825 117.244 109.363 116.72 109.029 116.045C108.7 115.371 108.535 114.583 108.535 113.682C108.535 112.773 108.7 111.979 109.029 111.301C109.363 110.623 109.825 110.097 110.416 109.722C111.01 109.347 111.702 109.159 112.49 109.159C113.277 109.159 113.967 109.347 114.558 109.722C115.152 110.097 115.615 110.623 115.944 111.301C116.277 111.979 116.444 112.773 116.444 113.682C116.444 114.583 116.277 115.371 115.944 116.045C115.615 116.72 115.152 117.244 114.558 117.619C113.967 117.994 113.277 118.182 112.49 118.182ZM112.49 116.977C113.088 116.977 113.581 116.824 113.967 116.517C114.353 116.21 114.639 115.807 114.825 115.307C115.01 114.807 115.103 114.265 115.103 113.682C115.103 113.098 115.01 112.555 114.825 112.051C114.639 111.547 114.353 111.14 113.967 110.83C113.581 110.519 113.088 110.364 112.49 110.364C111.891 110.364 111.399 110.519 111.012 110.83C110.626 111.14 110.34 111.547 110.154 112.051C109.969 112.555 109.876 113.098 109.876 113.682C109.876 114.265 109.969 114.807 110.154 115.307C110.34 115.807 110.626 116.21 111.012 116.517C111.399 116.824 111.891 116.977 112.49 116.977ZM119.132 109.273L121.223 112.841L123.313 109.273H124.859L122.041 113.636L124.859 118H123.313L121.223 114.614L119.132 118H117.586L120.359 113.636L117.586 109.273H119.132ZM129.34 118.205C128.787 118.205 128.286 118.1 127.835 117.892C127.384 117.68 127.026 117.375 126.761 116.977C126.496 116.576 126.363 116.091 126.363 115.523C126.363 115.023 126.462 114.617 126.659 114.307C126.856 113.992 127.119 113.746 127.448 113.568C127.778 113.39 128.142 113.258 128.539 113.17C128.941 113.08 129.344 113.008 129.75 112.955C130.28 112.886 130.71 112.835 131.039 112.801C131.373 112.763 131.615 112.701 131.767 112.614C131.922 112.527 132 112.375 132 112.159V112.114C132 111.553 131.846 111.117 131.539 110.807C131.236 110.496 130.776 110.341 130.159 110.341C129.518 110.341 129.017 110.481 128.653 110.761C128.289 111.042 128.034 111.341 127.886 111.659L126.613 111.205C126.84 110.674 127.143 110.261 127.522 109.966C127.905 109.667 128.322 109.458 128.772 109.341C129.227 109.22 129.674 109.159 130.113 109.159C130.393 109.159 130.715 109.193 131.079 109.261C131.447 109.326 131.801 109.46 132.142 109.665C132.486 109.869 132.772 110.178 133 110.591C133.227 111.004 133.34 111.557 133.34 112.25V118H132V116.818H131.931C131.84 117.008 131.689 117.21 131.477 117.426C131.265 117.642 130.982 117.826 130.63 117.977C130.278 118.129 129.848 118.205 129.34 118.205ZM129.545 117C130.075 117 130.522 116.896 130.886 116.688C131.253 116.479 131.53 116.21 131.715 115.881C131.905 115.551 132 115.205 132 114.841V113.614C131.943 113.682 131.818 113.744 131.625 113.801C131.435 113.854 131.215 113.902 130.965 113.943C130.719 113.981 130.479 114.015 130.244 114.045C130.013 114.072 129.825 114.095 129.681 114.114C129.333 114.159 129.007 114.233 128.704 114.335C128.405 114.434 128.162 114.583 127.977 114.784C127.795 114.981 127.704 115.25 127.704 115.591C127.704 116.057 127.876 116.409 128.221 116.648C128.57 116.883 129.011 117 129.545 117ZM137.129 112.75V118H135.788V109.273H137.083V110.636H137.197C137.402 110.193 137.712 109.837 138.129 109.568C138.545 109.295 139.083 109.159 139.742 109.159C140.333 109.159 140.85 109.28 141.294 109.523C141.737 109.761 142.081 110.125 142.328 110.614C142.574 111.098 142.697 111.712 142.697 112.455V118H141.356V112.545C141.356 111.86 141.178 111.326 140.822 110.943C140.466 110.557 139.977 110.364 139.356 110.364C138.928 110.364 138.545 110.456 138.208 110.642C137.875 110.828 137.612 111.098 137.419 111.455C137.225 111.811 137.129 112.242 137.129 112.75ZM148.443 118.182C147.715 118.182 147.073 117.998 146.517 117.631C145.96 117.259 145.524 116.737 145.21 116.062C144.895 115.384 144.738 114.583 144.738 113.659C144.738 112.742 144.895 111.947 145.21 111.273C145.524 110.598 145.962 110.078 146.522 109.71C147.083 109.343 147.731 109.159 148.465 109.159C149.034 109.159 149.482 109.254 149.812 109.443C150.145 109.629 150.399 109.841 150.573 110.08C150.751 110.314 150.89 110.508 150.988 110.659H151.102V106.364H152.443V118H151.147V116.659H150.988C150.89 116.818 150.75 117.019 150.568 117.261C150.386 117.5 150.126 117.714 149.789 117.903C149.452 118.089 149.003 118.182 148.443 118.182ZM148.625 116.977C149.162 116.977 149.617 116.837 149.988 116.557C150.359 116.273 150.642 115.881 150.835 115.381C151.028 114.877 151.125 114.295 151.125 113.636C151.125 112.985 151.03 112.415 150.84 111.926C150.651 111.434 150.371 111.051 150 110.778C149.628 110.502 149.17 110.364 148.625 110.364C148.056 110.364 147.583 110.509 147.204 110.801C146.829 111.089 146.547 111.481 146.357 111.977C146.172 112.47 146.079 113.023 146.079 113.636C146.079 114.258 146.174 114.822 146.363 115.33C146.556 115.833 146.84 116.235 147.215 116.534C147.594 116.83 148.064 116.977 148.625 116.977ZM163.471 109.273V110.409H158.767V109.273H163.471ZM160.176 118V108.068C160.176 107.568 160.293 107.152 160.528 106.818C160.763 106.485 161.068 106.235 161.443 106.068C161.818 105.902 162.214 105.818 162.63 105.818C162.96 105.818 163.229 105.845 163.437 105.898C163.645 105.951 163.801 106 163.903 106.045L163.517 107.205C163.448 107.182 163.354 107.153 163.232 107.119C163.115 107.085 162.96 107.068 162.767 107.068C162.323 107.068 162.003 107.18 161.806 107.403C161.613 107.627 161.517 107.955 161.517 108.386V118H160.176ZM168.536 118.182C167.749 118.182 167.057 117.994 166.463 117.619C165.872 117.244 165.41 116.72 165.076 116.045C164.747 115.371 164.582 114.583 164.582 113.682C164.582 112.773 164.747 111.979 165.076 111.301C165.41 110.623 165.872 110.097 166.463 109.722C167.057 109.347 167.749 109.159 168.536 109.159C169.324 109.159 170.014 109.347 170.605 109.722C171.199 110.097 171.661 110.623 171.991 111.301C172.324 111.979 172.491 112.773 172.491 113.682C172.491 114.583 172.324 115.371 171.991 116.045C171.661 116.72 171.199 117.244 170.605 117.619C170.014 117.994 169.324 118.182 168.536 118.182ZM168.536 116.977C169.135 116.977 169.627 116.824 170.014 116.517C170.4 116.21 170.686 115.807 170.872 115.307C171.057 114.807 171.15 114.265 171.15 113.682C171.15 113.098 171.057 112.555 170.872 112.051C170.686 111.547 170.4 111.14 170.014 110.83C169.627 110.519 169.135 110.364 168.536 110.364C167.938 110.364 167.446 110.519 167.059 110.83C166.673 111.14 166.387 111.547 166.201 112.051C166.016 112.555 165.923 113.098 165.923 113.682C165.923 114.265 166.016 114.807 166.201 115.307C166.387 115.807 166.673 116.21 167.059 116.517C167.446 116.824 167.938 116.977 168.536 116.977ZM175.879 106.364V118H174.538V106.364H175.879ZM179.676 106.364V118H178.335V106.364H179.676ZM185.677 118.182C184.889 118.182 184.198 117.994 183.603 117.619C183.012 117.244 182.55 116.72 182.217 116.045C181.887 115.371 181.723 114.583 181.723 113.682C181.723 112.773 181.887 111.979 182.217 111.301C182.55 110.623 183.012 110.097 183.603 109.722C184.198 109.347 184.889 109.159 185.677 109.159C186.465 109.159 187.154 109.347 187.745 109.722C188.34 110.097 188.802 110.623 189.132 111.301C189.465 111.979 189.632 112.773 189.632 113.682C189.632 114.583 189.465 115.371 189.132 116.045C188.802 116.72 188.34 117.244 187.745 117.619C187.154 117.994 186.465 118.182 185.677 118.182ZM185.677 116.977C186.276 116.977 186.768 116.824 187.154 116.517C187.541 116.21 187.827 115.807 188.012 115.307C188.198 114.807 188.291 114.265 188.291 113.682C188.291 113.098 188.198 112.555 188.012 112.051C187.827 111.547 187.541 111.14 187.154 110.83C186.768 110.519 186.276 110.364 185.677 110.364C185.079 110.364 184.586 110.519 184.2 110.83C183.813 111.14 183.527 111.547 183.342 112.051C183.156 112.555 183.063 113.098 183.063 113.682C183.063 114.265 183.156 114.807 183.342 115.307C183.527 115.807 183.813 116.21 184.2 116.517C184.586 116.824 185.079 116.977 185.677 116.977ZM193.359 118L190.7 109.273H192.109L193.995 115.955H194.086L195.95 109.273H197.382L199.223 115.932H199.313L201.2 109.273H202.609L199.95 118H198.632L196.723 111.295H196.586L194.677 118H193.359ZM212.677 109.273V110.409H208.154V109.273H212.677ZM209.473 107.182H210.813V115.5C210.813 115.879 210.868 116.163 210.978 116.352C211.092 116.538 211.236 116.663 211.41 116.727C211.588 116.788 211.776 116.818 211.973 116.818C212.12 116.818 212.241 116.811 212.336 116.795C212.431 116.777 212.507 116.761 212.563 116.75L212.836 117.955C212.745 117.989 212.618 118.023 212.456 118.057C212.293 118.095 212.086 118.114 211.836 118.114C211.457 118.114 211.086 118.032 210.723 117.869C210.363 117.706 210.063 117.458 209.825 117.125C209.59 116.792 209.473 116.371 209.473 115.864V107.182ZM216.223 112.75V118H214.882V106.364H216.223V110.636H216.336C216.541 110.186 216.848 109.828 217.257 109.562C217.67 109.294 218.219 109.159 218.904 109.159C219.499 109.159 220.02 109.278 220.467 109.517C220.914 109.752 221.26 110.114 221.507 110.602C221.757 111.087 221.882 111.705 221.882 112.455V118H220.541V112.545C220.541 111.852 220.361 111.316 220.001 110.938C219.645 110.555 219.151 110.364 218.518 110.364C218.079 110.364 217.685 110.456 217.336 110.642C216.991 110.828 216.719 111.098 216.518 111.455C216.321 111.811 216.223 112.242 216.223 112.75ZM227.994 118.182C227.153 118.182 226.428 117.996 225.818 117.625C225.212 117.25 224.744 116.727 224.414 116.057C224.089 115.383 223.926 114.598 223.926 113.705C223.926 112.811 224.089 112.023 224.414 111.341C224.744 110.655 225.202 110.121 225.789 109.739C226.38 109.352 227.07 109.159 227.857 109.159C228.312 109.159 228.761 109.235 229.204 109.386C229.647 109.538 230.051 109.784 230.414 110.125C230.778 110.462 231.068 110.909 231.284 111.466C231.5 112.023 231.607 112.708 231.607 113.523V114.091H224.88V112.932H230.244C230.244 112.439 230.145 112 229.948 111.614C229.755 111.227 229.479 110.922 229.119 110.699C228.763 110.475 228.342 110.364 227.857 110.364C227.323 110.364 226.861 110.496 226.471 110.761C226.085 111.023 225.787 111.364 225.579 111.784C225.371 112.205 225.267 112.655 225.267 113.136V113.909C225.267 114.568 225.38 115.127 225.607 115.585C225.839 116.04 226.159 116.386 226.568 116.625C226.977 116.86 227.452 116.977 227.994 116.977C228.346 116.977 228.664 116.928 228.948 116.83C229.236 116.727 229.484 116.576 229.693 116.375C229.901 116.17 230.062 115.917 230.176 115.614L231.471 115.977C231.335 116.417 231.106 116.803 230.784 117.136C230.462 117.466 230.064 117.723 229.59 117.909C229.117 118.091 228.585 118.182 227.994 118.182ZM238.147 118V109.273H239.488V118H238.147ZM238.829 107.818C238.568 107.818 238.342 107.729 238.153 107.551C237.967 107.373 237.875 107.159 237.875 106.909C237.875 106.659 237.967 106.445 238.153 106.267C238.342 106.089 238.568 106 238.829 106C239.09 106 239.314 106.089 239.5 106.267C239.689 106.445 239.784 106.659 239.784 106.909C239.784 107.159 239.689 107.373 239.5 107.551C239.314 107.729 239.09 107.818 238.829 107.818ZM243.285 112.75V118H241.944V109.273H243.24V110.636H243.353C243.558 110.193 243.868 109.837 244.285 109.568C244.702 109.295 245.24 109.159 245.899 109.159C246.49 109.159 247.007 109.28 247.45 109.523C247.893 109.761 248.238 110.125 248.484 110.614C248.73 111.098 248.853 111.712 248.853 112.455V118H247.512V112.545C247.512 111.86 247.334 111.326 246.978 110.943C246.622 110.557 246.134 110.364 245.512 110.364C245.084 110.364 244.702 110.456 244.365 110.642C244.031 110.828 243.768 111.098 243.575 111.455C243.382 111.811 243.285 112.242 243.285 112.75ZM257.485 111.227L256.281 111.568C256.205 111.367 256.093 111.172 255.946 110.983C255.802 110.79 255.605 110.631 255.355 110.506C255.105 110.381 254.785 110.318 254.394 110.318C253.86 110.318 253.415 110.441 253.059 110.688C252.707 110.93 252.531 111.239 252.531 111.614C252.531 111.947 252.652 112.21 252.894 112.403C253.137 112.597 253.516 112.758 254.031 112.886L255.326 113.205C256.107 113.394 256.688 113.684 257.071 114.074C257.453 114.46 257.644 114.958 257.644 115.568C257.644 116.068 257.5 116.515 257.213 116.909C256.929 117.303 256.531 117.614 256.019 117.841C255.508 118.068 254.913 118.182 254.235 118.182C253.345 118.182 252.608 117.989 252.025 117.602C251.442 117.216 251.072 116.652 250.917 115.909L252.19 115.591C252.311 116.061 252.54 116.413 252.877 116.648C253.218 116.883 253.663 117 254.213 117C254.838 117 255.334 116.867 255.701 116.602C256.072 116.333 256.258 116.011 256.258 115.636C256.258 115.333 256.152 115.08 255.94 114.875C255.728 114.667 255.402 114.511 254.963 114.409L253.508 114.068C252.709 113.879 252.122 113.585 251.747 113.188C251.375 112.786 251.19 112.284 251.19 111.682C251.19 111.189 251.328 110.754 251.605 110.375C251.885 109.996 252.266 109.699 252.747 109.483C253.232 109.267 253.781 109.159 254.394 109.159C255.258 109.159 255.936 109.348 256.429 109.727C256.925 110.106 257.277 110.606 257.485 111.227ZM263.458 109.273V110.409H258.936V109.273H263.458ZM260.254 107.182H261.595V115.5C261.595 115.879 261.65 116.163 261.759 116.352C261.873 116.538 262.017 116.663 262.191 116.727C262.369 116.788 262.557 116.818 262.754 116.818C262.902 116.818 263.023 116.811 263.117 116.795C263.212 116.777 263.288 116.761 263.345 116.75L263.617 117.955C263.527 117.989 263.4 118.023 263.237 118.057C263.074 118.095 262.867 118.114 262.617 118.114C262.239 118.114 261.867 118.032 261.504 117.869C261.144 117.706 260.845 117.458 260.606 117.125C260.371 116.792 260.254 116.371 260.254 115.864V107.182ZM265.475 118V109.273H266.771V110.591H266.862C267.021 110.159 267.309 109.809 267.725 109.54C268.142 109.271 268.612 109.136 269.134 109.136C269.233 109.136 269.356 109.138 269.504 109.142C269.652 109.146 269.763 109.152 269.839 109.159V110.523C269.794 110.511 269.689 110.494 269.527 110.472C269.367 110.445 269.199 110.432 269.021 110.432C268.597 110.432 268.218 110.521 267.884 110.699C267.555 110.873 267.294 111.116 267.1 111.426C266.911 111.733 266.816 112.083 266.816 112.477V118H265.475ZM276.929 114.432V109.273H278.269V118H276.929V116.523H276.838C276.633 116.966 276.315 117.343 275.883 117.653C275.451 117.96 274.906 118.114 274.247 118.114C273.701 118.114 273.216 117.994 272.792 117.756C272.368 117.513 272.035 117.15 271.792 116.665C271.55 116.176 271.429 115.561 271.429 114.818V109.273H272.769V114.727C272.769 115.364 272.947 115.871 273.304 116.25C273.663 116.629 274.122 116.818 274.679 116.818C275.012 116.818 275.351 116.733 275.696 116.562C276.044 116.392 276.336 116.131 276.571 115.778C276.809 115.426 276.929 114.977 276.929 114.432ZM284.271 118.182C283.453 118.182 282.748 117.989 282.157 117.602C281.566 117.216 281.112 116.684 280.794 116.006C280.475 115.328 280.316 114.553 280.316 113.682C280.316 112.795 280.479 112.013 280.805 111.335C281.134 110.653 281.593 110.121 282.18 109.739C282.771 109.352 283.46 109.159 284.248 109.159C284.862 109.159 285.415 109.273 285.907 109.5C286.4 109.727 286.803 110.045 287.117 110.455C287.432 110.864 287.627 111.341 287.703 111.886H286.362C286.259 111.489 286.032 111.136 285.68 110.83C285.331 110.519 284.862 110.364 284.271 110.364C283.748 110.364 283.29 110.5 282.896 110.773C282.506 111.042 282.201 111.422 281.981 111.915C281.765 112.403 281.657 112.977 281.657 113.636C281.657 114.311 281.763 114.898 281.975 115.398C282.191 115.898 282.494 116.286 282.884 116.562C283.278 116.839 283.741 116.977 284.271 116.977C284.619 116.977 284.936 116.917 285.22 116.795C285.504 116.674 285.744 116.5 285.941 116.273C286.138 116.045 286.278 115.773 286.362 115.455H287.703C287.627 115.97 287.439 116.434 287.14 116.847C286.845 117.256 286.453 117.581 285.964 117.824C285.479 118.062 284.915 118.182 284.271 118.182ZM293.458 109.273V110.409H288.936V109.273H293.458ZM290.254 107.182H291.595V115.5C291.595 115.879 291.65 116.163 291.759 116.352C291.873 116.538 292.017 116.663 292.191 116.727C292.369 116.788 292.557 116.818 292.754 116.818C292.902 116.818 293.023 116.811 293.117 116.795C293.212 116.777 293.288 116.761 293.345 116.75L293.617 117.955C293.527 117.989 293.4 118.023 293.237 118.057C293.074 118.095 292.867 118.114 292.617 118.114C292.239 118.114 291.867 118.032 291.504 117.869C291.144 117.706 290.845 117.458 290.606 117.125C290.371 116.792 290.254 116.371 290.254 115.864V107.182ZM295.475 118V109.273H296.816V118H295.475ZM296.157 107.818C295.896 107.818 295.67 107.729 295.481 107.551C295.295 107.373 295.203 107.159 295.203 106.909C295.203 106.659 295.295 106.445 295.481 106.267C295.67 106.089 295.896 106 296.157 106C296.419 106 296.642 106.089 296.828 106.267C297.017 106.445 297.112 106.659 297.112 106.909C297.112 107.159 297.017 107.373 296.828 107.551C296.642 107.729 296.419 107.818 296.157 107.818ZM302.818 118.182C302.03 118.182 301.339 117.994 300.744 117.619C300.153 117.244 299.691 116.72 299.357 116.045C299.028 115.371 298.863 114.583 298.863 113.682C298.863 112.773 299.028 111.979 299.357 111.301C299.691 110.623 300.153 110.097 300.744 109.722C301.339 109.347 302.03 109.159 302.818 109.159C303.606 109.159 304.295 109.347 304.886 109.722C305.481 110.097 305.943 110.623 306.272 111.301C306.606 111.979 306.772 112.773 306.772 113.682C306.772 114.583 306.606 115.371 306.272 116.045C305.943 116.72 305.481 117.244 304.886 117.619C304.295 117.994 303.606 118.182 302.818 118.182ZM302.818 116.977C303.416 116.977 303.909 116.824 304.295 116.517C304.681 116.21 304.967 115.807 305.153 115.307C305.339 114.807 305.431 114.265 305.431 113.682C305.431 113.098 305.339 112.555 305.153 112.051C304.967 111.547 304.681 111.14 304.295 110.83C303.909 110.519 303.416 110.364 302.818 110.364C302.219 110.364 301.727 110.519 301.34 110.83C300.954 111.14 300.668 111.547 300.482 112.051C300.297 112.555 300.204 113.098 300.204 113.682C300.204 114.265 300.297 114.807 300.482 115.307C300.668 115.807 300.954 116.21 301.34 116.517C301.727 116.824 302.219 116.977 302.818 116.977ZM310.16 112.75V118H308.819V109.273H310.115V110.636H310.228C310.433 110.193 310.743 109.837 311.16 109.568C311.577 109.295 312.115 109.159 312.774 109.159C313.365 109.159 313.882 109.28 314.325 109.523C314.768 109.761 315.113 110.125 315.359 110.614C315.605 111.098 315.728 111.712 315.728 112.455V118H314.387V112.545C314.387 111.86 314.209 111.326 313.853 110.943C313.497 110.557 313.009 110.364 312.387 110.364C311.959 110.364 311.577 110.456 311.24 110.642C310.906 110.828 310.643 111.098 310.45 111.455C310.257 111.811 310.16 112.242 310.16 112.75ZM324.36 111.227L323.156 111.568C323.08 111.367 322.968 111.172 322.821 110.983C322.677 110.79 322.48 110.631 322.23 110.506C321.98 110.381 321.66 110.318 321.269 110.318C320.735 110.318 320.29 110.441 319.934 110.688C319.582 110.93 319.406 111.239 319.406 111.614C319.406 111.947 319.527 112.21 319.769 112.403C320.012 112.597 320.391 112.758 320.906 112.886L322.201 113.205C322.982 113.394 323.563 113.684 323.946 114.074C324.328 114.46 324.519 114.958 324.519 115.568C324.519 116.068 324.375 116.515 324.088 116.909C323.804 117.303 323.406 117.614 322.894 117.841C322.383 118.068 321.788 118.182 321.11 118.182C320.22 118.182 319.483 117.989 318.9 117.602C318.317 117.216 317.947 116.652 317.792 115.909L319.065 115.591C319.186 116.061 319.415 116.413 319.752 116.648C320.093 116.883 320.538 117 321.088 117C321.713 117 322.209 116.867 322.576 116.602C322.947 116.333 323.133 116.011 323.133 115.636C323.133 115.333 323.027 115.08 322.815 114.875C322.603 114.667 322.277 114.511 321.838 114.409L320.383 114.068C319.584 113.879 318.997 113.585 318.622 113.188C318.25 112.786 318.065 112.284 318.065 111.682C318.065 111.189 318.203 110.754 318.48 110.375C318.76 109.996 319.141 109.699 319.622 109.483C320.107 109.267 320.656 109.159 321.269 109.159C322.133 109.159 322.811 109.348 323.304 109.727C323.8 110.106 324.152 110.606 324.36 111.227ZM327.515 118.091C327.235 118.091 326.994 117.991 326.794 117.79C326.593 117.589 326.492 117.348 326.492 117.068C326.492 116.788 326.593 116.547 326.794 116.347C326.994 116.146 327.235 116.045 327.515 116.045C327.795 116.045 328.036 116.146 328.237 116.347C328.438 116.547 328.538 116.788 328.538 117.068C328.538 117.254 328.491 117.424 328.396 117.58C328.305 117.735 328.182 117.86 328.027 117.955C327.875 118.045 327.705 118.091 327.515 118.091Z" fill="#475569"/>
</svg>
