<svg width="414" height="52" viewBox="0 0 414 52" fill="none" xmlns="http://www.w3.org/2000/svg">
<path d="M166.045 40C164.37 40 162.951 39.4188 161.789 38.2563C160.626 37.0938 160.045 35.675 160.045 34C160.045 32.325 160.626 30.9062 161.789 29.7437C162.951 28.5812 164.37 28 166.045 28C166.907 28 167.732 28.1781 168.52 28.5344C169.307 28.8906 169.982 29.4 170.545 30.0625V28H172.045V33.25H166.795V31.75H169.945C169.545 31.05 168.998 30.5 168.304 30.1C167.611 29.7 166.857 29.5 166.045 29.5C164.795 29.5 163.732 29.9375 162.857 30.8125C161.982 31.6875 161.545 32.75 161.545 34C161.545 35.25 161.982 36.3125 162.857 37.1875C163.732 38.0625 164.795 38.5 166.045 38.5C167.007 38.5 167.876 38.225 168.651 37.675C169.426 37.125 169.97 36.4 170.282 35.5H171.857C171.507 36.825 170.795 37.9062 169.72 38.7437C168.645 39.5812 167.42 40 166.045 40Z" fill="#475569"/>
<path d="M177.076 39V28.8145H180.887C181.667 28.8145 182.323 28.9509 182.855 29.2237C183.388 29.4965 183.79 29.8776 184.063 30.3672C184.336 30.8567 184.473 31.425 184.473 32.0722C184.473 32.7226 184.335 33.2868 184.06 33.7648C183.784 34.2427 183.378 34.6115 182.842 34.8711C182.305 35.1307 181.643 35.2605 180.857 35.2605H178.14V33.7484H180.616C181.078 33.7484 181.455 33.6833 181.748 33.5531C182.04 33.423 182.256 33.2333 182.397 32.9841C182.537 32.7349 182.608 32.4309 182.608 32.0722C182.608 31.7076 182.537 31.397 182.397 31.1403C182.256 30.8836 182.039 30.6865 181.745 30.5489C181.452 30.4112 181.072 30.3424 180.607 30.3424H178.901V39H177.076ZM182.804 39L180.334 34.3811H182.328L184.85 39H182.804ZM189.325 39.1542C188.559 39.1542 187.898 38.993 187.343 38.6706C186.788 38.3483 186.361 37.8931 186.062 37.3052C185.764 36.7173 185.615 36.0241 185.615 35.2255C185.615 34.44 185.762 33.75 186.057 33.1554C186.352 32.5609 186.769 32.0966 187.308 31.7627C187.848 31.4287 188.481 31.2617 189.208 31.2617C189.676 31.2617 190.12 31.3371 190.541 31.488C190.961 31.6388 191.334 31.8709 191.66 32.1842C191.985 32.4974 192.241 32.8971 192.428 33.383C192.614 33.869 192.707 34.448 192.707 35.1199V35.6744H186.454V34.4681H191.82L190.99 34.8263C190.99 34.3939 190.923 34.0148 190.79 33.6892C190.656 33.3635 190.459 33.1098 190.196 32.9282C189.934 32.7465 189.608 32.6557 189.218 32.6557C188.828 32.6557 188.497 32.748 188.223 32.9325C187.949 33.1171 187.74 33.3635 187.596 33.6717C187.452 33.9798 187.381 34.3224 187.381 34.6994V35.535C187.381 36.0181 187.463 36.4255 187.627 36.7574C187.791 37.0893 188.021 37.3394 188.317 37.5077C188.614 37.6761 188.958 37.7602 189.349 37.7602C189.609 37.7602 189.845 37.7231 190.057 37.6488C190.27 37.5745 190.452 37.4636 190.606 37.316C190.759 37.1685 190.876 36.9861 190.957 36.769L192.589 37.107C192.467 37.5161 192.258 37.8742 191.96 38.1815C191.663 38.4887 191.292 38.7277 190.847 38.8983C190.402 39.0689 189.895 39.1542 189.325 39.1542ZM197.118 39.1542C196.534 39.1542 196.015 39.0701 195.563 38.9018C195.111 38.7336 194.741 38.488 194.452 38.1651C194.164 37.8421 193.976 37.4504 193.886 36.99L195.55 36.6777C195.652 37.0543 195.838 37.3345 196.106 37.5181C196.373 37.7018 196.723 37.7936 197.154 37.7936C197.592 37.7936 197.939 37.7059 198.196 37.5306C198.453 37.3552 198.582 37.139 198.582 36.882C198.582 36.6603 198.497 36.4777 198.328 36.3343C198.159 36.1908 197.899 36.0815 197.549 36.0064L196.248 35.7253C195.526 35.5694 194.987 35.3137 194.632 34.9582C194.276 34.6026 194.099 34.1445 194.099 33.5837C194.099 33.1118 194.229 32.7022 194.489 32.3549C194.749 32.0077 195.11 31.7386 195.572 31.5479C196.034 31.3571 196.57 31.2617 197.18 31.2617C197.758 31.2617 198.256 31.3436 198.673 31.5074C199.089 31.6712 199.427 31.9004 199.685 32.195C199.943 32.4895 200.122 32.8357 200.223 33.2335L198.639 33.5427C198.551 33.2775 198.392 33.0525 198.164 32.8677C197.936 32.683 197.616 32.5906 197.204 32.5906C196.827 32.5906 196.512 32.6729 196.259 32.8374C196.006 33.0019 195.879 33.215 195.879 33.4766C195.879 33.6984 195.963 33.8821 196.129 34.0275C196.296 34.173 196.574 34.2883 196.963 34.3734L198.263 34.6469C198.987 34.8011 199.525 35.049 199.876 35.3906C200.228 35.7322 200.404 36.1725 200.404 36.7113C200.404 37.194 200.264 37.6187 199.985 37.9854C199.706 38.3521 199.319 38.6386 198.826 38.8448C198.332 39.0511 197.763 39.1542 197.118 39.1542ZM205.294 39.1542C204.527 39.1542 203.867 38.993 203.312 38.6706C202.756 38.3483 202.33 37.8931 202.031 37.3052C201.733 36.7173 201.584 36.0241 201.584 35.2255C201.584 34.44 201.731 33.75 202.026 33.1554C202.321 32.5609 202.738 32.0966 203.277 31.7627C203.817 31.4287 204.45 31.2617 205.177 31.2617C205.645 31.2617 206.089 31.3371 206.51 31.488C206.93 31.6388 207.303 31.8709 207.628 32.1842C207.954 32.4974 208.21 32.8971 208.396 33.383C208.583 33.869 208.676 34.448 208.676 35.1199V35.6744H202.422V34.4681H207.789L206.959 34.8263C206.959 34.3939 206.892 34.0148 206.759 33.6892C206.625 33.3635 206.427 33.1098 206.165 32.9282C205.903 32.7465 205.577 32.6557 205.187 32.6557C204.797 32.6557 204.465 32.748 204.191 32.9325C203.917 33.1171 203.709 33.3635 203.565 33.6717C203.421 33.9798 203.349 34.3224 203.349 34.6994V35.535C203.349 36.0181 203.431 36.4255 203.595 36.7574C203.759 37.0893 203.99 37.3394 204.286 37.5077C204.583 37.6761 204.927 37.7602 205.318 37.7602C205.577 37.7602 205.814 37.7231 206.026 37.6488C206.238 37.5745 206.421 37.4636 206.574 37.316C206.727 37.1685 206.845 36.9861 206.925 36.769L208.558 37.107C208.436 37.5161 208.227 37.8742 207.929 38.1815C207.632 38.4887 207.261 38.7277 206.816 38.8983C206.371 39.0689 205.864 39.1542 205.294 39.1542ZM211.973 34.5233V39H210.197V31.3574H211.881L211.905 33.2469H211.766C211.977 32.5864 212.291 32.0905 212.707 31.759C213.123 31.4275 213.642 31.2617 214.265 31.2617C214.79 31.2617 215.248 31.3738 215.64 31.598C216.031 31.8223 216.336 32.1487 216.553 32.5772C216.77 33.0058 216.879 33.5272 216.879 34.1416V39H215.102V34.4139C215.102 33.9015 214.969 33.4998 214.703 33.209C214.438 32.9181 214.072 32.7727 213.606 32.7727C213.292 32.7727 213.012 32.8414 212.765 32.9788C212.519 33.1161 212.325 33.3149 212.184 33.5751C212.044 33.8353 211.973 34.1514 211.973 34.5233ZM221.58 39.1395C220.979 39.1395 220.44 38.9846 219.963 38.675C219.486 38.3654 219.111 37.9168 218.837 37.3293C218.564 36.7418 218.427 36.0301 218.427 35.1943C218.427 34.345 218.567 33.6277 218.847 33.0425C219.127 32.4572 219.505 32.0141 219.981 31.7132C220.457 31.4122 220.988 31.2617 221.574 31.2617C222.028 31.2617 222.4 31.3376 222.689 31.4894C222.978 31.6411 223.208 31.8227 223.378 32.0342C223.549 32.2456 223.677 32.4419 223.764 32.6229H223.84V28.8145H225.617V39H223.876V37.7903H223.764C223.674 37.9742 223.542 38.1705 223.368 38.3792C223.194 38.5878 222.963 38.7667 222.674 38.9158C222.386 39.0649 222.021 39.1395 221.58 39.1395ZM222.062 37.6771C222.45 37.6771 222.778 37.5724 223.048 37.3631C223.318 37.1537 223.523 36.8621 223.663 36.4882C223.804 36.1143 223.874 35.6801 223.874 35.1855C223.874 34.6877 223.804 34.2551 223.665 33.8877C223.527 33.5203 223.322 33.2345 223.053 33.0303C222.783 32.8261 222.453 32.724 222.062 32.724C221.662 32.724 221.328 32.8305 221.058 33.0434C220.789 33.2563 220.586 33.548 220.45 33.9183C220.315 34.2886 220.247 34.711 220.247 35.1855C220.247 35.6613 220.315 36.0873 220.453 36.4635C220.59 36.8396 220.794 37.1359 221.065 37.3524C221.336 37.5689 221.668 37.6771 222.062 37.6771ZM232.802 28.8145V39H231.026V28.8145H232.802ZM234.69 39V31.3574H236.467V39H234.69ZM235.58 30.2762C235.297 30.2762 235.054 30.1809 234.851 29.9901C234.647 29.7993 234.546 29.5704 234.546 29.3034C234.546 29.0308 234.647 28.8004 234.851 28.612C235.054 28.4236 235.297 28.3294 235.58 28.3294C235.866 28.3294 236.11 28.4235 236.314 28.6117C236.517 28.7999 236.619 29.0304 236.619 29.3032C236.619 29.5706 236.517 29.7996 236.314 29.9902C236.11 30.1809 235.866 30.2762 235.58 30.2762ZM240.131 34.5233V39H238.354V31.3574H240.038L240.063 33.2469H239.924C240.135 32.5864 240.448 32.0905 240.864 31.759C241.28 31.4275 241.799 31.2617 242.423 31.2617C242.947 31.2617 243.406 31.3738 243.797 31.598C244.188 31.8223 244.493 32.1487 244.71 32.5772C244.927 33.0058 245.036 33.5272 245.036 34.1416V39H243.259V34.4139C243.259 33.9015 243.126 33.4998 242.861 33.209C242.595 32.9181 242.229 32.7727 241.763 32.7727C241.449 32.7727 241.169 32.8414 240.923 32.9788C240.676 33.1161 240.482 33.3149 240.342 33.5751C240.201 33.8353 240.131 34.1514 240.131 34.5233ZM248.545 36.5915V34.4396H248.827L251.582 31.3574H253.67L250.291 35.1227H249.923L248.545 36.5915ZM246.919 39V28.8145H248.696V39H246.919ZM251.71 39L249.208 35.5191L250.413 34.2597L253.848 39H251.71Z" fill="#475569"/>
</svg>
