<svg width="101" height="44" viewBox="0 0 101 44" fill="none" xmlns="http://www.w3.org/2000/svg">
<path d="M0 0H86C94.2843 0 101 6.71573 101 15V29C101 37.2843 94.2843 44 86 44H0V0Z" fill="#534788"/>
<path d="M23.66 26.584C23.108 26.584 22.612 26.488 22.172 26.296C21.74 26.096 21.4 25.824 21.152 25.48C20.904 25.128 20.776 24.724 20.768 24.268H21.932C21.972 24.66 22.132 24.992 22.412 25.264C22.7 25.528 23.116 25.66 23.66 25.66C24.18 25.66 24.588 25.532 24.884 25.276C25.188 25.012 25.34 24.676 25.34 24.268C25.34 23.948 25.252 23.688 25.076 23.488C24.9 23.288 24.68 23.136 24.416 23.032C24.152 22.928 23.796 22.816 23.348 22.696C22.796 22.552 22.352 22.408 22.016 22.264C21.688 22.12 21.404 21.896 21.164 21.592C20.932 21.28 20.816 20.864 20.816 20.344C20.816 19.888 20.932 19.484 21.164 19.132C21.396 18.78 21.72 18.508 22.136 18.316C22.56 18.124 23.044 18.028 23.588 18.028C24.372 18.028 25.012 18.224 25.508 18.616C26.012 19.008 26.296 19.528 26.36 20.176H25.16C25.12 19.856 24.952 19.576 24.656 19.336C24.36 19.088 23.968 18.964 23.48 18.964C23.024 18.964 22.652 19.084 22.364 19.324C22.076 19.556 21.932 19.884 21.932 20.308C21.932 20.612 22.016 20.86 22.184 21.052C22.36 21.244 22.572 21.392 22.82 21.496C23.076 21.592 23.432 21.704 23.888 21.832C24.44 21.984 24.884 22.136 25.22 22.288C25.556 22.432 25.844 22.66 26.084 22.972C26.324 23.276 26.444 23.692 26.444 24.22C26.444 24.628 26.336 25.012 26.12 25.372C25.904 25.732 25.584 26.024 25.16 26.248C24.736 26.472 24.236 26.584 23.66 26.584ZM28.219 18.136H29.431L28.279 20.86H27.511L28.219 18.136ZM30.268 23.188C30.268 22.516 30.404 21.928 30.676 21.424C30.948 20.912 31.32 20.516 31.792 20.236C32.272 19.956 32.804 19.816 33.388 19.816C33.964 19.816 34.464 19.94 34.888 20.188C35.312 20.436 35.628 20.748 35.836 21.124V19.924H36.94V26.5H35.836V25.276C35.62 25.66 35.296 25.98 34.864 26.236C34.44 26.484 33.944 26.608 33.376 26.608C32.792 26.608 32.264 26.464 31.792 26.176C31.32 25.888 30.948 25.484 30.676 24.964C30.404 24.444 30.268 23.852 30.268 23.188ZM35.836 23.2C35.836 22.704 35.736 22.272 35.536 21.904C35.336 21.536 35.064 21.256 34.72 21.064C34.384 20.864 34.012 20.764 33.604 20.764C33.196 20.764 32.824 20.86 32.488 21.052C32.152 21.244 31.884 21.524 31.684 21.892C31.484 22.26 31.384 22.692 31.384 23.188C31.384 23.692 31.484 24.132 31.684 24.508C31.884 24.876 32.152 25.16 32.488 25.36C32.824 25.552 33.196 25.648 33.604 25.648C34.012 25.648 34.384 25.552 34.72 25.36C35.064 25.16 35.336 24.876 35.536 24.508C35.736 24.132 35.836 23.696 35.836 23.2ZM39.8773 21.148C40.1013 20.756 40.4293 20.436 40.8613 20.188C41.2933 19.94 41.7853 19.816 42.3373 19.816C42.9293 19.816 43.4613 19.956 43.9333 20.236C44.4053 20.516 44.7773 20.912 45.0493 21.424C45.3213 21.928 45.4573 22.516 45.4573 23.188C45.4573 23.852 45.3213 24.444 45.0493 24.964C44.7773 25.484 44.4013 25.888 43.9213 26.176C43.4493 26.464 42.9213 26.608 42.3373 26.608C41.7693 26.608 41.2693 26.484 40.8373 26.236C40.4133 25.988 40.0933 25.672 39.8773 25.288V26.5H38.7853V17.62H39.8773V21.148ZM44.3413 23.188C44.3413 22.692 44.2413 22.26 44.0413 21.892C43.8413 21.524 43.5693 21.244 43.2253 21.052C42.8893 20.86 42.5173 20.764 42.1093 20.764C41.7093 20.764 41.3373 20.864 40.9933 21.064C40.6573 21.256 40.3853 21.54 40.1773 21.916C39.9773 22.284 39.8773 22.712 39.8773 23.2C39.8773 23.696 39.9773 24.132 40.1773 24.508C40.3853 24.876 40.6573 25.16 40.9933 25.36C41.3373 25.552 41.7093 25.648 42.1093 25.648C42.5173 25.648 42.8893 25.552 43.2253 25.36C43.5693 25.16 43.8413 24.876 44.0413 24.508C44.2413 24.132 44.3413 23.692 44.3413 23.188ZM49.7627 26.608C49.1467 26.608 48.5867 26.468 48.0827 26.188C47.5867 25.908 47.1947 25.512 46.9067 25C46.6267 24.48 46.4867 23.88 46.4867 23.2C46.4867 22.528 46.6307 21.936 46.9187 21.424C47.2147 20.904 47.6147 20.508 48.1187 20.236C48.6227 19.956 49.1867 19.816 49.8107 19.816C50.4347 19.816 50.9987 19.956 51.5027 20.236C52.0067 20.508 52.4027 20.9 52.6907 21.412C52.9867 21.924 53.1347 22.52 53.1347 23.2C53.1347 23.88 52.9827 24.48 52.6787 25C52.3827 25.512 51.9787 25.908 51.4667 26.188C50.9547 26.468 50.3867 26.608 49.7627 26.608ZM49.7627 25.648C50.1547 25.648 50.5227 25.556 50.8667 25.372C51.2107 25.188 51.4867 24.912 51.6947 24.544C51.9107 24.176 52.0187 23.728 52.0187 23.2C52.0187 22.672 51.9147 22.224 51.7067 21.856C51.4987 21.488 51.2267 21.216 50.8907 21.04C50.5547 20.856 50.1907 20.764 49.7987 20.764C49.3987 20.764 49.0307 20.856 48.6947 21.04C48.3667 21.216 48.1027 21.488 47.9027 21.856C47.7027 22.224 47.6027 22.672 47.6027 23.2C47.6027 23.736 47.6987 24.188 47.8907 24.556C48.0907 24.924 48.3547 25.2 48.6827 25.384C49.0107 25.56 49.3707 25.648 49.7627 25.648ZM57.7745 19.804C58.5745 19.804 59.2225 20.048 59.7185 20.536C60.2145 21.016 60.4625 21.712 60.4625 22.624V26.5H59.3825V22.78C59.3825 22.124 59.2185 21.624 58.8905 21.28C58.5625 20.928 58.1145 20.752 57.5465 20.752C56.9705 20.752 56.5105 20.932 56.1665 21.292C55.8305 21.652 55.6625 22.176 55.6625 22.864V26.5H54.5705V19.924H55.6625V20.86C55.8785 20.524 56.1705 20.264 56.5385 20.08C56.9145 19.896 57.3265 19.804 57.7745 19.804ZM65.4503 19.804C66.2503 19.804 66.8983 20.048 67.3943 20.536C67.8903 21.016 68.1383 21.712 68.1383 22.624V26.5H67.0583V22.78C67.0583 22.124 66.8943 21.624 66.5663 21.28C66.2383 20.928 65.7903 20.752 65.2223 20.752C64.6463 20.752 64.1863 20.932 63.8423 21.292C63.5063 21.652 63.3383 22.176 63.3383 22.864V26.5H62.2463V19.924H63.3383V20.86C63.5543 20.524 63.8463 20.264 64.2143 20.08C64.5903 19.896 65.0023 19.804 65.4503 19.804ZM75.922 22.96C75.922 23.168 75.91 23.388 75.886 23.62H70.63C70.67 24.268 70.89 24.776 71.29 25.144C71.698 25.504 72.19 25.684 72.766 25.684C73.238 25.684 73.63 25.576 73.942 25.36C74.262 25.136 74.486 24.84 74.614 24.472H75.79C75.614 25.104 75.262 25.62 74.734 26.02C74.206 26.412 73.55 26.608 72.766 26.608C72.142 26.608 71.582 26.468 71.086 26.188C70.598 25.908 70.214 25.512 69.934 25C69.654 24.48 69.514 23.88 69.514 23.2C69.514 22.52 69.65 21.924 69.922 21.412C70.194 20.9 70.574 20.508 71.062 20.236C71.558 19.956 72.126 19.816 72.766 19.816C73.39 19.816 73.942 19.952 74.422 20.224C74.902 20.496 75.27 20.872 75.526 21.352C75.79 21.824 75.922 22.36 75.922 22.96ZM74.794 22.732C74.794 22.316 74.702 21.96 74.518 21.664C74.334 21.36 74.082 21.132 73.762 20.98C73.45 20.82 73.102 20.74 72.718 20.74C72.166 20.74 71.694 20.916 71.302 21.268C70.918 21.62 70.698 22.108 70.642 22.732H74.794ZM78.4555 20.992C78.6475 20.616 78.9195 20.324 79.2715 20.116C79.6315 19.908 80.0675 19.804 80.5795 19.804V20.932H80.2915C79.0675 20.932 78.4555 21.596 78.4555 22.924V26.5H77.3635V19.924H78.4555V20.992Z" fill="white"/>
</svg>
