<svg width="127" height="19" viewBox="0 0 127 19" fill="none" xmlns="http://www.w3.org/2000/svg">
<path d="M5.538 8.833C5.86733 8.885 6.16633 9.01933 6.435 9.236C6.71233 9.45267 6.929 9.72133 7.085 10.042C7.24967 10.3627 7.332 10.705 7.332 11.069C7.332 11.5283 7.215 11.9443 6.981 12.317C6.747 12.681 6.40467 12.9713 5.954 13.188C5.512 13.396 4.98767 13.5 4.381 13.5H1.001V4.439H4.251C4.86633 4.439 5.39067 4.543 5.824 4.751C6.25733 4.95033 6.58233 5.22333 6.799 5.57C7.01567 5.91667 7.124 6.30667 7.124 6.74C7.124 7.27733 6.97667 7.72367 6.682 8.079C6.396 8.42567 6.01467 8.677 5.538 8.833ZM2.184 8.352H4.173C4.72767 8.352 5.15667 8.222 5.46 7.962C5.76333 7.702 5.915 7.34233 5.915 6.883C5.915 6.42367 5.76333 6.064 5.46 5.804C5.15667 5.544 4.719 5.414 4.147 5.414H2.184V8.352ZM4.277 12.525C4.86633 12.525 5.32567 12.3863 5.655 12.109C5.98433 11.8317 6.149 11.446 6.149 10.952C6.149 10.4493 5.97567 10.055 5.629 9.769C5.28233 9.47433 4.81867 9.327 4.238 9.327H2.184V12.525H4.277ZM15.4737 9.665C15.4737 9.89033 15.4607 10.1287 15.4347 10.38H9.74066C9.78399 11.082 10.0223 11.6323 10.4557 12.031C10.8977 12.421 11.4307 12.616 12.0547 12.616C12.566 12.616 12.9907 12.499 13.3287 12.265C13.6753 12.0223 13.918 11.7017 14.0567 11.303H15.3307C15.14 11.9877 14.7587 12.5467 14.1867 12.98C13.6147 13.4047 12.904 13.617 12.0547 13.617C11.3787 13.617 10.772 13.4653 10.2347 13.162C9.70599 12.8587 9.28999 12.4297 8.98666 11.875C8.68332 11.3117 8.53166 10.6617 8.53166 9.925C8.53166 9.18833 8.67899 8.54267 8.97366 7.988C9.26832 7.43333 9.67999 7.00867 10.2087 6.714C10.746 6.41067 11.3613 6.259 12.0547 6.259C12.7307 6.259 13.3287 6.40633 13.8487 6.701C14.3687 6.99567 14.7673 7.403 15.0447 7.923C15.3307 8.43433 15.4737 9.015 15.4737 9.665ZM14.2517 9.418C14.2517 8.96733 14.152 8.58167 13.9527 8.261C13.7533 7.93167 13.4803 7.68467 13.1337 7.52C12.7957 7.34667 12.4187 7.26 12.0027 7.26C11.4047 7.26 10.8933 7.45067 10.4687 7.832C10.0527 8.21333 9.81432 8.742 9.75366 9.418H14.2517ZM16.5932 9.912C16.5932 9.184 16.7405 8.547 17.0352 8.001C17.3298 7.44633 17.7328 7.01733 18.2442 6.714C18.7642 6.41067 19.3405 6.259 19.9732 6.259C20.5972 6.259 21.1388 6.39333 21.5982 6.662C22.0575 6.93067 22.3998 7.26867 22.6252 7.676V6.376H23.8212V13.5H22.6252V12.174C22.3912 12.59 22.0402 12.9367 21.5722 13.214C21.1128 13.4827 20.5755 13.617 19.9602 13.617C19.3275 13.617 18.7555 13.461 18.2442 13.149C17.7328 12.837 17.3298 12.3993 17.0352 11.836C16.7405 11.2727 16.5932 10.6313 16.5932 9.912ZM22.6252 9.925C22.6252 9.38767 22.5168 8.91967 22.3002 8.521C22.0835 8.12233 21.7888 7.819 21.4162 7.611C21.0522 7.39433 20.6492 7.286 20.2072 7.286C19.7652 7.286 19.3622 7.39 18.9982 7.598C18.6342 7.806 18.3438 8.10933 18.1272 8.508C17.9105 8.90667 17.8022 9.37467 17.8022 9.912C17.8022 10.458 17.9105 10.9347 18.1272 11.342C18.3438 11.7407 18.6342 12.0483 18.9982 12.265C19.3622 12.473 19.7652 12.577 20.2072 12.577C20.6492 12.577 21.0522 12.473 21.4162 12.265C21.7888 12.0483 22.0835 11.7407 22.3002 11.342C22.5168 10.9347 22.6252 10.4623 22.6252 9.925ZM32.1383 6.376V13.5H30.9553V12.447C30.73 12.811 30.4137 13.097 30.0063 13.305C29.6077 13.5043 29.1657 13.604 28.6803 13.604C28.1257 13.604 27.6273 13.4913 27.1853 13.266C26.7433 13.032 26.3923 12.6853 26.1323 12.226C25.881 11.7667 25.7553 11.2077 25.7553 10.549V6.376H26.9253V10.393C26.9253 11.095 27.103 11.6367 27.4583 12.018C27.8137 12.3907 28.299 12.577 28.9143 12.577C29.547 12.577 30.0453 12.382 30.4093 11.992C30.7733 11.602 30.9553 11.0343 30.9553 10.289V6.376H32.1383ZM35.5788 7.351V11.55C35.5788 11.8967 35.6524 12.1437 35.7998 12.291C35.9471 12.4297 36.2028 12.499 36.5668 12.499H37.4378V13.5H36.3718C35.7131 13.5 35.2191 13.3483 34.8898 13.045C34.5604 12.7417 34.3958 12.2433 34.3958 11.55V7.351H33.4728V6.376H34.3958V4.582H35.5788V6.376H37.4378V7.351H35.5788ZM45.3711 9.665C45.3711 9.89033 45.3581 10.1287 45.3321 10.38H39.6381C39.6815 11.082 39.9198 11.6323 40.3531 12.031C40.7951 12.421 41.3281 12.616 41.9521 12.616C42.4635 12.616 42.8881 12.499 43.2261 12.265C43.5728 12.0223 43.8155 11.7017 43.9541 11.303H45.2281C45.0375 11.9877 44.6561 12.5467 44.0841 12.98C43.5121 13.4047 42.8015 13.617 41.9521 13.617C41.2761 13.617 40.6695 13.4653 40.1321 13.162C39.6035 12.8587 39.1875 12.4297 38.8841 11.875C38.5808 11.3117 38.4291 10.6617 38.4291 9.925C38.4291 9.18833 38.5765 8.54267 38.8711 7.988C39.1658 7.43333 39.5775 7.00867 40.1061 6.714C40.6435 6.41067 41.2588 6.259 41.9521 6.259C42.6281 6.259 43.2261 6.40633 43.7461 6.701C44.2661 6.99567 44.6648 7.403 44.9421 7.923C45.2281 8.43433 45.3711 9.015 45.3711 9.665ZM44.1491 9.418C44.1491 8.96733 44.0495 8.58167 43.8501 8.261C43.6508 7.93167 43.3778 7.68467 43.0311 7.52C42.6931 7.34667 42.3161 7.26 41.9001 7.26C41.3021 7.26 40.7908 7.45067 40.3661 7.832C39.9501 8.21333 39.7118 8.742 39.6511 9.418H44.1491ZM43.1741 4.361L40.4051 5.843V4.959L43.1741 3.334V4.361ZM49.9565 9.925C49.9565 9.18833 50.1038 8.547 50.3985 8.001C50.6931 7.44633 51.1005 7.01733 51.6205 6.714C52.1491 6.41067 52.7515 6.259 53.4275 6.259C54.3028 6.259 55.0221 6.47133 55.5855 6.896C56.1575 7.32067 56.5345 7.91 56.7165 8.664H55.4425C55.3211 8.23067 55.0828 7.88833 54.7275 7.637C54.3808 7.38567 53.9475 7.26 53.4275 7.26C52.7515 7.26 52.2055 7.494 51.7895 7.962C51.3735 8.42133 51.1655 9.07567 51.1655 9.925C51.1655 10.783 51.3735 11.446 51.7895 11.914C52.2055 12.382 52.7515 12.616 53.4275 12.616C53.9475 12.616 54.3808 12.4947 54.7275 12.252C55.0741 12.0093 55.3125 11.6627 55.4425 11.212H56.7165C56.5258 11.94 56.1445 12.525 55.5725 12.967C55.0005 13.4003 54.2855 13.617 53.4275 13.617C52.7515 13.617 52.1491 13.4653 51.6205 13.162C51.1005 12.8587 50.6931 12.4297 50.3985 11.875C50.1038 11.3203 49.9565 10.6703 49.9565 9.925ZM61.4019 13.617C60.7346 13.617 60.1279 13.4653 59.5819 13.162C59.0446 12.8587 58.6199 12.4297 58.3079 11.875C58.0046 11.3117 57.8529 10.6617 57.8529 9.925C57.8529 9.197 58.0089 8.55567 58.3209 8.001C58.6416 7.43767 59.0749 7.00867 59.6209 6.714C60.1669 6.41067 60.7779 6.259 61.4539 6.259C62.1299 6.259 62.7409 6.41067 63.2869 6.714C63.8329 7.00867 64.2619 7.43333 64.5739 7.988C64.8946 8.54267 65.0549 9.18833 65.0549 9.925C65.0549 10.6617 64.8903 11.3117 64.5609 11.875C64.2403 12.4297 63.8026 12.8587 63.2479 13.162C62.6933 13.4653 62.0779 13.617 61.4019 13.617ZM61.4019 12.577C61.8266 12.577 62.2253 12.4773 62.5979 12.278C62.9706 12.0787 63.2696 11.7797 63.4949 11.381C63.7289 10.9823 63.8459 10.497 63.8459 9.925C63.8459 9.353 63.7333 8.86767 63.5079 8.469C63.2826 8.07033 62.9879 7.77567 62.6239 7.585C62.2599 7.38567 61.8656 7.286 61.4409 7.286C61.0076 7.286 60.6089 7.38567 60.2449 7.585C59.8896 7.77567 59.6036 8.07033 59.3869 8.469C59.1703 8.86767 59.0619 9.353 59.0619 9.925C59.0619 10.5057 59.1659 10.9953 59.3739 11.394C59.5906 11.7927 59.8766 12.0917 60.2319 12.291C60.5873 12.4817 60.9773 12.577 61.4019 12.577ZM69.1324 13.617C68.5864 13.617 68.0967 13.526 67.6634 13.344C67.23 13.1533 66.8877 12.8933 66.6364 12.564C66.385 12.226 66.2464 11.8403 66.2204 11.407H67.4424C67.477 11.7623 67.6417 12.0527 67.9364 12.278C68.2397 12.5033 68.634 12.616 69.1194 12.616C69.57 12.616 69.9254 12.5163 70.1854 12.317C70.4454 12.1177 70.5754 11.8663 70.5754 11.563C70.5754 11.251 70.4367 11.0213 70.1594 10.874C69.882 10.718 69.453 10.5663 68.8724 10.419C68.3437 10.2803 67.9104 10.1417 67.5724 10.003C67.243 9.85567 66.957 9.64333 66.7144 9.366C66.4804 9.08 66.3634 8.70733 66.3634 8.248C66.3634 7.884 66.4717 7.55033 66.6884 7.247C66.905 6.94367 67.2127 6.70533 67.6114 6.532C68.01 6.35 68.465 6.259 68.9764 6.259C69.765 6.259 70.402 6.45833 70.8874 6.857C71.3727 7.25567 71.6327 7.80167 71.6674 8.495H70.4844C70.4584 8.12233 70.3067 7.82333 70.0294 7.598C69.7607 7.37267 69.3967 7.26 68.9374 7.26C68.5127 7.26 68.1747 7.351 67.9234 7.533C67.672 7.715 67.5464 7.95333 67.5464 8.248C67.5464 8.482 67.62 8.677 67.7674 8.833C67.9234 8.98033 68.114 9.10167 68.3394 9.197C68.5734 9.28367 68.894 9.38333 69.3014 9.496C69.8127 9.63467 70.2287 9.77333 70.5494 9.912C70.87 10.042 71.143 10.2413 71.3684 10.51C71.6024 10.7787 71.7237 11.1297 71.7324 11.563C71.7324 11.953 71.624 12.304 71.4074 12.616C71.1907 12.928 70.883 13.175 70.4844 13.357C70.0944 13.5303 69.6437 13.617 69.1324 13.617ZM81.9694 6.246C82.524 6.246 83.018 6.363 83.4514 6.597C83.8847 6.82233 84.227 7.16467 84.4784 7.624C84.7297 8.08333 84.8554 8.64233 84.8554 9.301V13.5H83.6854V9.47C83.6854 8.75933 83.5077 8.21767 83.1524 7.845C82.8057 7.46367 82.3334 7.273 81.7354 7.273C81.12 7.273 80.6304 7.47233 80.2664 7.871C79.9024 8.261 79.7204 8.82867 79.7204 9.574V13.5H78.5504V9.47C78.5504 8.75933 78.3727 8.21767 78.0174 7.845C77.6707 7.46367 77.1984 7.273 76.6004 7.273C75.985 7.273 75.4954 7.47233 75.1314 7.871C74.7674 8.261 74.5854 8.82867 74.5854 9.574V13.5H73.4024V6.376H74.5854V7.403C74.8194 7.03033 75.1314 6.74433 75.5214 6.545C75.92 6.34567 76.3577 6.246 76.8344 6.246C77.4324 6.246 77.961 6.38033 78.4204 6.649C78.8797 6.91767 79.222 7.312 79.4474 7.832C79.6467 7.32933 79.976 6.93933 80.4354 6.662C80.8947 6.38467 81.406 6.246 81.9694 6.246ZM93.2959 9.665C93.2959 9.89033 93.2829 10.1287 93.2569 10.38H87.5629C87.6063 11.082 87.8446 11.6323 88.2779 12.031C88.7199 12.421 89.2529 12.616 89.8769 12.616C90.3883 12.616 90.8129 12.499 91.1509 12.265C91.4976 12.0223 91.7403 11.7017 91.8789 11.303H93.1529C92.9623 11.9877 92.5809 12.5467 92.0089 12.98C91.4369 13.4047 90.7263 13.617 89.8769 13.617C89.2009 13.617 88.5943 13.4653 88.0569 13.162C87.5283 12.8587 87.1123 12.4297 86.8089 11.875C86.5056 11.3117 86.3539 10.6617 86.3539 9.925C86.3539 9.18833 86.5013 8.54267 86.7959 7.988C87.0906 7.43333 87.5023 7.00867 88.0309 6.714C88.5683 6.41067 89.1836 6.259 89.8769 6.259C90.5529 6.259 91.1509 6.40633 91.6709 6.701C92.1909 6.99567 92.5896 7.403 92.8669 7.923C93.1529 8.43433 93.2959 9.015 93.2959 9.665ZM92.0739 9.418C92.0739 8.96733 91.9743 8.58167 91.7749 8.261C91.5756 7.93167 91.3026 7.68467 90.9559 7.52C90.6179 7.34667 90.2409 7.26 89.8249 7.26C89.2269 7.26 88.7156 7.45067 88.2909 7.832C87.8749 8.21333 87.6366 8.742 87.5759 9.418H92.0739ZM91.0989 4.361L88.3299 5.843V4.959L91.0989 3.334V4.361ZM96.3004 7.351V11.55C96.3004 11.8967 96.3741 12.1437 96.5214 12.291C96.6688 12.4297 96.9244 12.499 97.2884 12.499H98.1594V13.5H97.0934C96.4348 13.5 95.9408 13.3483 95.6114 13.045C95.2821 12.7417 95.1174 12.2433 95.1174 11.55V7.351H94.1944V6.376H95.1174V4.582H96.3004V6.376H98.1594V7.351H96.3004ZM100.204 5.219C99.9785 5.219 99.7878 5.141 99.6318 4.985C99.4758 4.829 99.3978 4.63833 99.3978 4.413C99.3978 4.18767 99.4758 3.997 99.6318 3.841C99.7878 3.685 99.9785 3.607 100.204 3.607C100.42 3.607 100.602 3.685 100.75 3.841C100.906 3.997 100.984 4.18767 100.984 4.413C100.984 4.63833 100.906 4.829 100.75 4.985C100.602 5.141 100.42 5.219 100.204 5.219ZM100.776 6.376V13.5H99.5928V6.376H100.776ZM102.35 9.912C102.35 9.184 102.497 8.547 102.792 8.001C103.087 7.44633 103.49 7.01733 104.001 6.714C104.521 6.41067 105.102 6.259 105.743 6.259C106.358 6.259 106.896 6.39767 107.355 6.675C107.823 6.94367 108.165 7.27733 108.382 7.676V6.376H109.578V16.88H108.382V12.187C108.157 12.5857 107.81 12.9237 107.342 13.201C106.874 13.4783 106.328 13.617 105.704 13.617C105.08 13.617 104.512 13.461 104.001 13.149C103.49 12.837 103.087 12.3993 102.792 11.836C102.497 11.2727 102.35 10.6313 102.35 9.912ZM108.382 9.925C108.382 9.38767 108.274 8.91967 108.057 8.521C107.84 8.12233 107.546 7.819 107.173 7.611C106.809 7.39433 106.406 7.286 105.964 7.286C105.522 7.286 105.119 7.39 104.755 7.598C104.391 7.806 104.101 8.10933 103.884 8.508C103.667 8.90667 103.559 9.37467 103.559 9.912C103.559 10.458 103.667 10.9347 103.884 11.342C104.101 11.7407 104.391 12.0483 104.755 12.265C105.119 12.473 105.522 12.577 105.964 12.577C106.406 12.577 106.809 12.473 107.173 12.265C107.546 12.0483 107.84 11.7407 108.057 11.342C108.274 10.9347 108.382 10.4623 108.382 9.925ZM117.895 6.376V13.5H116.712V12.447C116.487 12.811 116.171 13.097 115.763 13.305C115.365 13.5043 114.923 13.604 114.437 13.604C113.883 13.604 113.384 13.4913 112.942 13.266C112.5 13.032 112.149 12.6853 111.889 12.226C111.638 11.7667 111.512 11.2077 111.512 10.549V6.376H112.682V10.393C112.682 11.095 112.86 11.6367 113.215 12.018C113.571 12.3907 114.056 12.577 114.671 12.577C115.304 12.577 115.802 12.382 116.166 11.992C116.53 11.602 116.712 11.0343 116.712 10.289V6.376H117.895ZM126.393 9.665C126.393 9.89033 126.38 10.1287 126.354 10.38H120.66C120.703 11.082 120.941 11.6323 121.375 12.031C121.817 12.421 122.35 12.616 122.974 12.616C123.485 12.616 123.91 12.499 124.248 12.265C124.594 12.0223 124.837 11.7017 124.976 11.303H126.25C126.059 11.9877 125.678 12.5467 125.106 12.98C124.534 13.4047 123.823 13.617 122.974 13.617C122.298 13.617 121.691 13.4653 121.154 13.162C120.625 12.8587 120.209 12.4297 119.906 11.875C119.602 11.3117 119.451 10.6617 119.451 9.925C119.451 9.18833 119.598 8.54267 119.893 7.988C120.187 7.43333 120.599 7.00867 121.128 6.714C121.665 6.41067 122.28 6.259 122.974 6.259C123.65 6.259 124.248 6.40633 124.768 6.701C125.288 6.99567 125.686 7.403 125.964 7.923C126.25 8.43433 126.393 9.015 126.393 9.665ZM125.171 9.418C125.171 8.96733 125.071 8.58167 124.872 8.261C124.672 7.93167 124.399 7.68467 124.053 7.52C123.715 7.34667 123.338 7.26 122.922 7.26C122.324 7.26 121.812 7.45067 121.388 7.832C120.972 8.21333 120.733 8.742 120.673 9.418H125.171Z" fill="white"/>
</svg>
