<svg width="87" height="19" viewBox="0 0 87 19" fill="none" xmlns="http://www.w3.org/2000/svg">
<path d="M5.538 8.833C5.86733 8.885 6.16633 9.01933 6.435 9.236C6.71233 9.45267 6.929 9.72133 7.085 10.042C7.24967 10.3627 7.332 10.705 7.332 11.069C7.332 11.5283 7.215 11.9443 6.981 12.317C6.747 12.681 6.40467 12.9713 5.954 13.188C5.512 13.396 4.98767 13.5 4.381 13.5H1.001V4.439H4.251C4.86633 4.439 5.39067 4.543 5.824 4.751C6.25733 4.95033 6.58233 5.22333 6.799 5.57C7.01567 5.91667 7.124 6.30667 7.124 6.74C7.124 7.27733 6.97667 7.72367 6.682 8.079C6.396 8.42567 6.01467 8.677 5.538 8.833ZM2.184 8.352H4.173C4.72767 8.352 5.15667 8.222 5.46 7.962C5.76333 7.702 5.915 7.34233 5.915 6.883C5.915 6.42367 5.76333 6.064 5.46 5.804C5.15667 5.544 4.719 5.414 4.147 5.414H2.184V8.352ZM4.277 12.525C4.86633 12.525 5.32567 12.3863 5.655 12.109C5.98433 11.8317 6.149 11.446 6.149 10.952C6.149 10.4493 5.97567 10.055 5.629 9.769C5.28233 9.47433 4.81867 9.327 4.238 9.327H2.184V12.525H4.277ZM15.4737 9.665C15.4737 9.89033 15.4607 10.1287 15.4347 10.38H9.74066C9.78399 11.082 10.0223 11.6323 10.4557 12.031C10.8977 12.421 11.4307 12.616 12.0547 12.616C12.566 12.616 12.9907 12.499 13.3287 12.265C13.6753 12.0223 13.918 11.7017 14.0567 11.303H15.3307C15.14 11.9877 14.7587 12.5467 14.1867 12.98C13.6147 13.4047 12.904 13.617 12.0547 13.617C11.3787 13.617 10.772 13.4653 10.2347 13.162C9.70599 12.8587 9.28999 12.4297 8.98666 11.875C8.68332 11.3117 8.53166 10.6617 8.53166 9.925C8.53166 9.18833 8.67899 8.54267 8.97366 7.988C9.26832 7.43333 9.67999 7.00867 10.2087 6.714C10.746 6.41067 11.3613 6.259 12.0547 6.259C12.7307 6.259 13.3287 6.40633 13.8487 6.701C14.3687 6.99567 14.7673 7.403 15.0447 7.923C15.3307 8.43433 15.4737 9.015 15.4737 9.665ZM14.2517 9.418C14.2517 8.96733 14.152 8.58167 13.9527 8.261C13.7533 7.93167 13.4803 7.68467 13.1337 7.52C12.7957 7.34667 12.4187 7.26 12.0027 7.26C11.4047 7.26 10.8933 7.45067 10.4687 7.832C10.0527 8.21333 9.81432 8.742 9.75366 9.418H14.2517ZM13.2767 4.361L10.5077 5.843V4.959L13.2767 3.334V4.361ZM18.2182 7.702C18.4608 7.27733 18.8162 6.93067 19.2842 6.662C19.7522 6.39333 20.2852 6.259 20.8832 6.259C21.5245 6.259 22.1008 6.41067 22.6122 6.714C23.1235 7.01733 23.5265 7.44633 23.8212 8.001C24.1158 8.547 24.2632 9.184 24.2632 9.912C24.2632 10.6313 24.1158 11.2727 23.8212 11.836C23.5265 12.3993 23.1192 12.837 22.5992 13.149C22.0878 13.461 21.5158 13.617 20.8832 13.617C20.2678 13.617 19.7262 13.4827 19.2582 13.214C18.7988 12.9453 18.4522 12.603 18.2182 12.187V13.5H17.0352V3.88H18.2182V7.702ZM23.0542 9.912C23.0542 9.37467 22.9458 8.90667 22.7292 8.508C22.5125 8.10933 22.2178 7.806 21.8452 7.598C21.4812 7.39 21.0782 7.286 20.6362 7.286C20.2028 7.286 19.7998 7.39433 19.4272 7.611C19.0632 7.819 18.7685 8.12667 18.5432 8.534C18.3265 8.93267 18.2182 9.39633 18.2182 9.925C18.2182 10.4623 18.3265 10.9347 18.5432 11.342C18.7685 11.7407 19.0632 12.0483 19.4272 12.265C19.7998 12.473 20.2028 12.577 20.6362 12.577C21.0782 12.577 21.4812 12.473 21.8452 12.265C22.2178 12.0483 22.5125 11.7407 22.7292 11.342C22.9458 10.9347 23.0542 10.458 23.0542 9.912ZM32.3203 9.665C32.3203 9.89033 32.3073 10.1287 32.2813 10.38H26.5873C26.6307 11.082 26.869 11.6323 27.3023 12.031C27.7443 12.421 28.2773 12.616 28.9013 12.616C29.4127 12.616 29.8373 12.499 30.1753 12.265C30.522 12.0223 30.7647 11.7017 30.9033 11.303H32.1773C31.9867 11.9877 31.6053 12.5467 31.0333 12.98C30.4613 13.4047 29.7507 13.617 28.9013 13.617C28.2253 13.617 27.6187 13.4653 27.0813 13.162C26.5527 12.8587 26.1367 12.4297 25.8333 11.875C25.53 11.3117 25.3783 10.6617 25.3783 9.925C25.3783 9.18833 25.5257 8.54267 25.8203 7.988C26.115 7.43333 26.5267 7.00867 27.0553 6.714C27.5927 6.41067 28.208 6.259 28.9013 6.259C29.5773 6.259 30.1753 6.40633 30.6953 6.701C31.2153 6.99567 31.614 7.403 31.8913 7.923C32.1773 8.43433 32.3203 9.015 32.3203 9.665ZM31.0983 9.418C31.0983 8.96733 30.9987 8.58167 30.7993 8.261C30.6 7.93167 30.327 7.68467 29.9803 7.52C29.6423 7.34667 29.2653 7.26 28.8493 7.26C28.2513 7.26 27.74 7.45067 27.3153 7.832C26.8993 8.21333 26.661 8.742 26.6003 9.418H31.0983ZM30.1233 4.361L27.3543 5.843V4.959L30.1233 3.334V4.361ZM46.5387 4.504V13.5H45.3557V6.792L42.3657 13.5H41.5337L38.5307 6.779V13.5H37.3477V4.504H38.6217L41.9497 11.94L45.2777 4.504H46.5387ZM48.1029 9.912C48.1029 9.184 48.2503 8.547 48.5449 8.001C48.8396 7.44633 49.2426 7.01733 49.7539 6.714C50.2739 6.41067 50.8503 6.259 51.4829 6.259C52.1069 6.259 52.6486 6.39333 53.1079 6.662C53.5673 6.93067 53.9096 7.26867 54.1349 7.676V6.376H55.3309V13.5H54.1349V12.174C53.9009 12.59 53.5499 12.9367 53.0819 13.214C52.6226 13.4827 52.0853 13.617 51.4699 13.617C50.8373 13.617 50.2653 13.461 49.7539 13.149C49.2426 12.837 48.8396 12.3993 48.5449 11.836C48.2503 11.2727 48.1029 10.6313 48.1029 9.912ZM54.1349 9.925C54.1349 9.38767 54.0266 8.91967 53.8099 8.521C53.5933 8.12233 53.2986 7.819 52.9259 7.611C52.5619 7.39433 52.1589 7.286 51.7169 7.286C51.2749 7.286 50.8719 7.39 50.5079 7.598C50.1439 7.806 49.8536 8.10933 49.6369 8.508C49.4203 8.90667 49.3119 9.37467 49.3119 9.912C49.3119 10.458 49.4203 10.9347 49.6369 11.342C49.8536 11.7407 50.1439 12.0483 50.5079 12.265C50.8719 12.473 51.2749 12.577 51.7169 12.577C52.1589 12.577 52.5619 12.473 52.9259 12.265C53.2986 12.0483 53.5933 11.7407 53.8099 11.342C54.0266 10.9347 54.1349 10.4623 54.1349 9.925ZM65.8971 6.246C66.4518 6.246 66.9458 6.363 67.3791 6.597C67.8124 6.82233 68.1548 7.16467 68.4061 7.624C68.6574 8.08333 68.7831 8.64233 68.7831 9.301V13.5H67.6131V9.47C67.6131 8.75933 67.4354 8.21767 67.0801 7.845C66.7334 7.46367 66.2611 7.273 65.6631 7.273C65.0478 7.273 64.5581 7.47233 64.1941 7.871C63.8301 8.261 63.6481 8.82867 63.6481 9.574V13.5H62.4781V9.47C62.4781 8.75933 62.3004 8.21767 61.9451 7.845C61.5984 7.46367 61.1261 7.273 60.5281 7.273C59.9128 7.273 59.4231 7.47233 59.0591 7.871C58.6951 8.261 58.5131 8.82867 58.5131 9.574V13.5H57.3301V6.376H58.5131V7.403C58.7471 7.03033 59.0591 6.74433 59.4491 6.545C59.8478 6.34567 60.2854 6.246 60.7621 6.246C61.3601 6.246 61.8888 6.38033 62.3481 6.649C62.8074 6.91767 63.1498 7.312 63.3751 7.832C63.5744 7.32933 63.9038 6.93933 64.3631 6.662C64.8224 6.38467 65.3338 6.246 65.8971 6.246ZM70.2817 9.912C70.2817 9.184 70.429 8.547 70.7237 8.001C71.0183 7.44633 71.4213 7.01733 71.9327 6.714C72.4527 6.41067 73.029 6.259 73.6617 6.259C74.2857 6.259 74.8273 6.39333 75.2867 6.662C75.746 6.93067 76.0883 7.26867 76.3137 7.676V6.376H77.5097V13.5H76.3137V12.174C76.0797 12.59 75.7287 12.9367 75.2607 13.214C74.8013 13.4827 74.264 13.617 73.6487 13.617C73.016 13.617 72.444 13.461 71.9327 13.149C71.4213 12.837 71.0183 12.3993 70.7237 11.836C70.429 11.2727 70.2817 10.6313 70.2817 9.912ZM76.3137 9.925C76.3137 9.38767 76.2053 8.91967 75.9887 8.521C75.772 8.12233 75.4773 7.819 75.1047 7.611C74.7407 7.39433 74.3377 7.286 73.8957 7.286C73.4537 7.286 73.0507 7.39 72.6867 7.598C72.3227 7.806 72.0323 8.10933 71.8157 8.508C71.599 8.90667 71.4907 9.37467 71.4907 9.912C71.4907 10.458 71.599 10.9347 71.8157 11.342C72.0323 11.7407 72.3227 12.0483 72.6867 12.265C73.0507 12.473 73.4537 12.577 73.8957 12.577C74.3377 12.577 74.7407 12.473 75.1047 12.265C75.4773 12.0483 75.772 11.7407 75.9887 11.342C76.2053 10.9347 76.3137 10.4623 76.3137 9.925ZM82.9798 6.246C83.8465 6.246 84.5485 6.51033 85.0858 7.039C85.6231 7.559 85.8918 8.313 85.8918 9.301V13.5H84.7218V9.47C84.7218 8.75933 84.5441 8.21767 84.1888 7.845C83.8335 7.46367 83.3481 7.273 82.7328 7.273C82.1088 7.273 81.6105 7.468 81.2378 7.858C80.8738 8.248 80.6918 8.81567 80.6918 9.561V13.5H79.5088V6.376H80.6918V7.39C80.9258 7.026 81.2421 6.74433 81.6408 6.545C82.0481 6.34567 82.4945 6.246 82.9798 6.246Z" fill="white"/>
</svg>
