<svg width="270" height="48" viewBox="0 0 270 48" fill="none" xmlns="http://www.w3.org/2000/svg">
<path d="M2.52 27.89H6.18V29H1.155V18.545H2.52V27.89ZM8.74461 19.655V23.15H12.5546V24.275H8.74461V27.875H13.0046V29H7.37961V18.53H13.0046V19.655H8.74461ZM18.135 29.105C17.445 29.105 16.825 28.985 16.275 28.745C15.735 28.495 15.31 28.155 15 27.725C14.69 27.285 14.53 26.78 14.52 26.21H15.975C16.025 26.7 16.225 27.115 16.575 27.455C16.935 27.785 17.455 27.95 18.135 27.95C18.785 27.95 19.295 27.79 19.665 27.47C20.045 27.14 20.235 26.72 20.235 26.21C20.235 25.81 20.125 25.485 19.905 25.235C19.685 24.985 19.41 24.795 19.08 24.665C18.75 24.535 18.305 24.395 17.745 24.245C17.055 24.065 16.5 23.885 16.08 23.705C15.67 23.525 15.315 23.245 15.015 22.865C14.725 22.475 14.58 21.955 14.58 21.305C14.58 20.735 14.725 20.23 15.015 19.79C15.305 19.35 15.71 19.01 16.23 18.77C16.76 18.53 17.365 18.41 18.045 18.41C19.025 18.41 19.825 18.655 20.445 19.145C21.075 19.635 21.43 20.285 21.51 21.095H20.01C19.96 20.695 19.75 20.345 19.38 20.045C19.01 19.735 18.52 19.58 17.91 19.58C17.34 19.58 16.875 19.73 16.515 20.03C16.155 20.32 15.975 20.73 15.975 21.26C15.975 21.64 16.08 21.95 16.29 22.19C16.51 22.43 16.775 22.615 17.085 22.745C17.405 22.865 17.85 23.005 18.42 23.165C19.11 23.355 19.665 23.545 20.085 23.735C20.505 23.915 20.865 24.2 21.165 24.59C21.465 24.97 21.615 25.49 21.615 26.15C21.615 26.66 21.48 27.14 21.21 27.59C20.94 28.04 20.54 28.405 20.01 28.685C19.48 28.965 18.855 29.105 18.135 29.105ZM26.6128 23.765C26.6128 22.745 26.8428 21.83 27.3028 21.02C27.7628 20.2 28.3878 19.56 29.1778 19.1C29.9778 18.64 30.8628 18.41 31.8328 18.41C32.9728 18.41 33.9678 18.685 34.8178 19.235C35.6678 19.785 36.2878 20.565 36.6778 21.575H35.0428C34.7528 20.945 34.3328 20.46 33.7828 20.12C33.2428 19.78 32.5928 19.61 31.8328 19.61C31.1028 19.61 30.4478 19.78 29.8678 20.12C29.2878 20.46 28.8328 20.945 28.5028 21.575C28.1728 22.195 28.0078 22.925 28.0078 23.765C28.0078 24.595 28.1728 25.325 28.5028 25.955C28.8328 26.575 29.2878 27.055 29.8678 27.395C30.4478 27.735 31.1028 27.905 31.8328 27.905C32.5928 27.905 33.2428 27.74 33.7828 27.41C34.3328 27.07 34.7528 26.585 35.0428 25.955H36.6778C36.2878 26.955 35.6678 27.73 34.8178 28.28C33.9678 28.82 32.9728 29.09 31.8328 29.09C30.8628 29.09 29.9778 28.865 29.1778 28.415C28.3878 27.955 27.7628 27.32 27.3028 26.51C26.8428 25.7 26.6128 24.785 26.6128 23.765ZM44.6397 26.675H40.0797L39.2397 29H37.7997L41.5797 18.605H43.1547L46.9197 29H45.4797L44.6397 26.675ZM44.2497 25.565L42.3597 20.285L40.4697 25.565H44.2497ZM54.7521 18.545V19.655H51.9021V29H50.5371V19.655H47.6721V18.545H54.7521ZM57.5473 19.655V23.15H61.3573V24.275H57.5473V27.875H61.8073V29H56.1823V18.53H61.8073V19.655H57.5473ZM60.3073 16.28L57.1123 17.99V16.97L60.3073 15.095V16.28ZM71.5428 21.575C71.2528 20.965 70.8328 20.495 70.2828 20.165C69.7328 19.825 69.0928 19.655 68.3628 19.655C67.6328 19.655 66.9728 19.825 66.3828 20.165C65.8028 20.495 65.3428 20.975 65.0028 21.605C64.6728 22.225 64.5078 22.945 64.5078 23.765C64.5078 24.585 64.6728 25.305 65.0028 25.925C65.3428 26.545 65.8028 27.025 66.3828 27.365C66.9728 27.695 67.6328 27.86 68.3628 27.86C69.3828 27.86 70.2228 27.555 70.8828 26.945C71.5428 26.335 71.9278 25.51 72.0378 24.47H67.8678V23.36H73.4928V24.41C73.4128 25.27 73.1428 26.06 72.6828 26.78C72.2228 27.49 71.6178 28.055 70.8678 28.475C70.1178 28.885 69.2828 29.09 68.3628 29.09C67.3928 29.09 66.5078 28.865 65.7078 28.415C64.9078 27.955 64.2728 27.32 63.8028 26.51C63.3428 25.7 63.1128 24.785 63.1128 23.765C63.1128 22.745 63.3428 21.83 63.8028 21.02C64.2728 20.2 64.9078 19.565 65.7078 19.115C66.5078 18.655 67.3928 18.425 68.3628 18.425C69.4728 18.425 70.4528 18.7 71.3028 19.25C72.1628 19.8 72.7878 20.575 73.1778 21.575H71.5428ZM79.7876 29.105C78.8176 29.105 77.9326 28.88 77.1326 28.43C76.3326 27.97 75.6976 27.335 75.2276 26.525C74.7676 25.705 74.5376 24.785 74.5376 23.765C74.5376 22.745 74.7676 21.83 75.2276 21.02C75.6976 20.2 76.3326 19.565 77.1326 19.115C77.9326 18.655 78.8176 18.425 79.7876 18.425C80.7676 18.425 81.6576 18.655 82.4576 19.115C83.2576 19.565 83.8876 20.195 84.3476 21.005C84.8076 21.815 85.0376 22.735 85.0376 23.765C85.0376 24.795 84.8076 25.715 84.3476 26.525C83.8876 27.335 83.2576 27.97 82.4576 28.43C81.6576 28.88 80.7676 29.105 79.7876 29.105ZM79.7876 27.92C80.5176 27.92 81.1726 27.75 81.7526 27.41C82.3426 27.07 82.8026 26.585 83.1326 25.955C83.4726 25.325 83.6426 24.595 83.6426 23.765C83.6426 22.925 83.4726 22.195 83.1326 21.575C82.8026 20.945 82.3476 20.46 81.7676 20.12C81.1876 19.78 80.5276 19.61 79.7876 19.61C79.0476 19.61 78.3876 19.78 77.8076 20.12C77.2276 20.46 76.7676 20.945 76.4276 21.575C76.0976 22.195 75.9326 22.925 75.9326 23.765C75.9326 24.595 76.0976 25.325 76.4276 25.955C76.7676 26.585 77.2276 27.07 77.8076 27.41C78.3976 27.75 79.0576 27.92 79.7876 27.92ZM92.0946 29L89.6046 24.725H87.9546V29H86.5896V18.545H89.9646C90.7546 18.545 91.4196 18.68 91.9596 18.95C92.5096 19.22 92.9196 19.585 93.1896 20.045C93.4596 20.505 93.5946 21.03 93.5946 21.62C93.5946 22.34 93.3846 22.975 92.9646 23.525C92.5546 24.075 91.9346 24.44 91.1046 24.62L93.7296 29H92.0946ZM87.9546 23.63H89.9646C90.7046 23.63 91.2596 23.45 91.6296 23.09C91.9996 22.72 92.1846 22.23 92.1846 21.62C92.1846 21 91.9996 20.52 91.6296 20.18C91.2696 19.84 90.7146 19.67 89.9646 19.67H87.9546V23.63ZM96.8305 18.545V29H95.4655V18.545H96.8305ZM100.272 19.655V23.15H104.082V24.275H100.272V27.875H104.532V29H98.907V18.53H104.532V19.655H100.272ZM109.662 29.105C108.972 29.105 108.352 28.985 107.802 28.745C107.262 28.495 106.837 28.155 106.527 27.725C106.217 27.285 106.057 26.78 106.047 26.21H107.502C107.552 26.7 107.752 27.115 108.102 27.455C108.462 27.785 108.982 27.95 109.662 27.95C110.312 27.95 110.822 27.79 111.192 27.47C111.572 27.14 111.762 26.72 111.762 26.21C111.762 25.81 111.652 25.485 111.432 25.235C111.212 24.985 110.937 24.795 110.607 24.665C110.277 24.535 109.832 24.395 109.272 24.245C108.582 24.065 108.027 23.885 107.607 23.705C107.197 23.525 106.842 23.245 106.542 22.865C106.252 22.475 106.107 21.955 106.107 21.305C106.107 20.735 106.252 20.23 106.542 19.79C106.832 19.35 107.237 19.01 107.757 18.77C108.287 18.53 108.892 18.41 109.572 18.41C110.552 18.41 111.352 18.655 111.972 19.145C112.602 19.635 112.957 20.285 113.037 21.095H111.537C111.487 20.695 111.277 20.345 110.907 20.045C110.537 19.735 110.047 19.58 109.437 19.58C108.867 19.58 108.402 19.73 108.042 20.03C107.682 20.32 107.502 20.73 107.502 21.26C107.502 21.64 107.607 21.95 107.817 22.19C108.037 22.43 108.302 22.615 108.612 22.745C108.932 22.865 109.377 23.005 109.947 23.165C110.637 23.355 111.192 23.545 111.612 23.735C112.032 23.915 112.392 24.2 112.692 24.59C112.992 24.97 113.142 25.49 113.142 26.15C113.142 26.66 113.007 27.14 112.737 27.59C112.467 28.04 112.067 28.405 111.537 28.685C111.007 28.965 110.382 29.105 109.662 29.105Z" fill="white"/>
</svg>
