<svg width="57" height="19" viewBox="0 0 57 19" fill="none" xmlns="http://www.w3.org/2000/svg">
<path d="M0.559 8.963C0.559 8.079 0.758333 7.286 1.157 6.584C1.55567 5.87333 2.09733 5.31867 2.782 4.92C3.47533 4.52133 4.24233 4.322 5.083 4.322C6.071 4.322 6.93333 4.56033 7.67 5.037C8.40667 5.51367 8.944 6.18967 9.282 7.065H7.865C7.61367 6.519 7.24967 6.09867 6.773 5.804C6.305 5.50933 5.74167 5.362 5.083 5.362C4.45033 5.362 3.88267 5.50933 3.38 5.804C2.87733 6.09867 2.483 6.519 2.197 7.065C1.911 7.60233 1.768 8.235 1.768 8.963C1.768 9.68233 1.911 10.315 2.197 10.861C2.483 11.3983 2.87733 11.8143 3.38 12.109C3.88267 12.4037 4.45033 12.551 5.083 12.551C5.74167 12.551 6.305 12.408 6.773 12.122C7.24967 11.8273 7.61367 11.407 7.865 10.861H9.282C8.944 11.7277 8.40667 12.3993 7.67 12.876C6.93333 13.344 6.071 13.578 5.083 13.578C4.24233 13.578 3.47533 13.383 2.782 12.993C2.09733 12.5943 1.55567 12.044 1.157 11.342C0.758333 10.64 0.559 9.847 0.559 8.963ZM14.579 6.246C15.1163 6.246 15.6017 6.363 16.035 6.597C16.4683 6.82233 16.8063 7.16467 17.049 7.624C17.3003 8.08333 17.426 8.64233 17.426 9.301V13.5H16.256V9.47C16.256 8.75933 16.0783 8.21767 15.723 7.845C15.3677 7.46367 14.8823 7.273 14.267 7.273C13.643 7.273 13.1447 7.468 12.772 7.858C12.408 8.248 12.226 8.81567 12.226 9.561V13.5H11.043V3.88H12.226V7.39C12.46 7.026 12.7807 6.74433 13.188 6.545C13.604 6.34567 14.0677 6.246 14.579 6.246ZM25.8584 9.665C25.8584 9.89033 25.8454 10.1287 25.8194 10.38H20.1254C20.1688 11.082 20.4071 11.6323 20.8404 12.031C21.2824 12.421 21.8154 12.616 22.4394 12.616C22.9508 12.616 23.3754 12.499 23.7134 12.265C24.0601 12.0223 24.3028 11.7017 24.4414 11.303H25.7154C25.5248 11.9877 25.1434 12.5467 24.5714 12.98C23.9994 13.4047 23.2888 13.617 22.4394 13.617C21.7634 13.617 21.1568 13.4653 20.6194 13.162C20.0908 12.8587 19.6748 12.4297 19.3714 11.875C19.0681 11.3117 18.9164 10.6617 18.9164 9.925C18.9164 9.18833 19.0638 8.54267 19.3584 7.988C19.6531 7.43333 20.0648 7.00867 20.5934 6.714C21.1308 6.41067 21.7461 6.259 22.4394 6.259C23.1154 6.259 23.7134 6.40633 24.2334 6.701C24.7534 6.99567 25.1521 7.403 25.4294 7.923C25.7154 8.43433 25.8584 9.015 25.8584 9.665ZM24.6364 9.418C24.6364 8.96733 24.5368 8.58167 24.3374 8.261C24.1381 7.93167 23.8651 7.68467 23.5184 7.52C23.1804 7.34667 22.8034 7.26 22.3874 7.26C21.7894 7.26 21.2781 7.45067 20.8534 7.832C20.4374 8.21333 20.1991 8.742 20.1384 9.418H24.6364ZM30.0719 12.408L32.2819 6.376H33.5429L30.7479 13.5H29.3699L26.5749 6.376H27.8489L30.0719 12.408ZM41.2071 9.665C41.2071 9.89033 41.1941 10.1287 41.1681 10.38H35.4741C35.5174 11.082 35.7557 11.6323 36.1891 12.031C36.6311 12.421 37.1641 12.616 37.7881 12.616C38.2994 12.616 38.7241 12.499 39.0621 12.265C39.4087 12.0223 39.6514 11.7017 39.7901 11.303H41.0641C40.8734 11.9877 40.4921 12.5467 39.9201 12.98C39.3481 13.4047 38.6374 13.617 37.7881 13.617C37.1121 13.617 36.5054 13.4653 35.9681 13.162C35.4394 12.8587 35.0234 12.4297 34.7201 11.875C34.4167 11.3117 34.2651 10.6617 34.2651 9.925C34.2651 9.18833 34.4124 8.54267 34.7071 7.988C35.0017 7.43333 35.4134 7.00867 35.9421 6.714C36.4794 6.41067 37.0947 6.259 37.7881 6.259C38.4641 6.259 39.0621 6.40633 39.5821 6.701C40.1021 6.99567 40.5007 7.403 40.7781 7.923C41.0641 8.43433 41.2071 9.015 41.2071 9.665ZM39.9851 9.418C39.9851 8.96733 39.8854 8.58167 39.6861 8.261C39.4867 7.93167 39.2137 7.68467 38.8671 7.52C38.5291 7.34667 38.1521 7.26 37.7361 7.26C37.1381 7.26 36.6267 7.45067 36.2021 7.832C35.7861 8.21333 35.5477 8.742 35.4871 9.418H39.9851ZM49.0866 6.376V13.5H47.9036V12.447C47.6782 12.811 47.3619 13.097 46.9546 13.305C46.5559 13.5043 46.1139 13.604 45.6286 13.604C45.0739 13.604 44.5756 13.4913 44.1336 13.266C43.6916 13.032 43.3406 12.6853 43.0806 12.226C42.8292 11.7667 42.7036 11.2077 42.7036 10.549V6.376H43.8736V10.393C43.8736 11.095 44.0512 11.6367 44.4066 12.018C44.7619 12.3907 45.2472 12.577 45.8626 12.577C46.4952 12.577 46.9936 12.382 47.3576 11.992C47.7216 11.602 47.9036 11.0343 47.9036 10.289V6.376H49.0866ZM54.802 13.5L53.112 10.848L51.487 13.5H50.252L52.553 9.964L50.252 6.376H51.591L53.281 9.015L54.893 6.376H56.128L53.84 9.899L56.141 13.5H54.802Z" fill="white"/>
</svg>
