<svg width="86" height="19" viewBox="0 0 86 19" fill="none" xmlns="http://www.w3.org/2000/svg">
<path d="M2.184 5.401V8.43H5.486V9.405H2.184V12.525H5.876V13.5H1.001V4.426H5.876V5.401H2.184ZM10.188 13.617C9.64204 13.617 9.15237 13.526 8.71904 13.344C8.28571 13.1533 7.94337 12.8933 7.69204 12.564C7.44071 12.226 7.30204 11.8403 7.27604 11.407H8.49804C8.53271 11.7623 8.69737 12.0527 8.99204 12.278C9.29537 12.5033 9.68971 12.616 10.175 12.616C10.6257 12.616 10.981 12.5163 11.241 12.317C11.501 12.1177 11.631 11.8663 11.631 11.563C11.631 11.251 11.4924 11.0213 11.215 10.874C10.9377 10.718 10.5087 10.5663 9.92804 10.419C9.39937 10.2803 8.96604 10.1417 8.62804 10.003C8.29871 9.85567 8.01271 9.64333 7.77004 9.366C7.53604 9.08 7.41904 8.70733 7.41904 8.248C7.41904 7.884 7.52737 7.55033 7.74404 7.247C7.96071 6.94367 8.26837 6.70533 8.66704 6.532C9.06571 6.35 9.52071 6.259 10.032 6.259C10.8207 6.259 11.4577 6.45833 11.943 6.857C12.4284 7.25567 12.6884 7.80167 12.723 8.495H11.54C11.514 8.12233 11.3624 7.82333 11.085 7.598C10.8164 7.37267 10.4524 7.26 9.99304 7.26C9.56837 7.26 9.23037 7.351 8.97904 7.533C8.72771 7.715 8.60204 7.95333 8.60204 8.248C8.60204 8.482 8.67571 8.677 8.82304 8.833C8.97904 8.98033 9.16971 9.10167 9.39504 9.197C9.62904 9.28367 9.94971 9.38333 10.357 9.496C10.8684 9.63467 11.2844 9.77333 11.605 9.912C11.9257 10.042 12.1987 10.2413 12.424 10.51C12.658 10.7787 12.7794 11.1297 12.788 11.563C12.788 11.953 12.6797 12.304 12.463 12.616C12.2464 12.928 11.9387 13.175 11.54 13.357C11.15 13.5303 10.6994 13.617 10.188 13.617ZM15.641 7.689C15.875 7.28167 16.2217 6.94367 16.681 6.675C17.149 6.39767 17.6907 6.259 18.306 6.259C18.9387 6.259 19.5107 6.41067 20.022 6.714C20.542 7.01733 20.9494 7.44633 21.244 8.001C21.5387 8.547 21.686 9.184 21.686 9.912C21.686 10.6313 21.5387 11.2727 21.244 11.836C20.9494 12.3993 20.542 12.837 20.022 13.149C19.5107 13.461 18.9387 13.617 18.306 13.617C17.6994 13.617 17.162 13.4827 16.694 13.214C16.2347 12.9367 15.8837 12.5943 15.641 12.187V16.88H14.458V6.376H15.641V7.689ZM20.477 9.912C20.477 9.37467 20.3687 8.90667 20.152 8.508C19.9354 8.10933 19.6407 7.806 19.268 7.598C18.904 7.39 18.501 7.286 18.059 7.286C17.6257 7.286 17.2227 7.39433 16.85 7.611C16.486 7.819 16.1914 8.12667 15.966 8.534C15.7494 8.93267 15.641 9.39633 15.641 9.925C15.641 10.4623 15.7494 10.9347 15.966 11.342C16.1914 11.7407 16.486 12.0483 16.85 12.265C17.2227 12.473 17.6257 12.577 18.059 12.577C18.501 12.577 18.904 12.473 19.268 12.265C19.6407 12.0483 19.9354 11.7407 20.152 11.342C20.3687 10.9347 20.477 10.458 20.477 9.912ZM22.8012 9.912C22.8012 9.184 22.9485 8.547 23.2432 8.001C23.5379 7.44633 23.9409 7.01733 24.4522 6.714C24.9722 6.41067 25.5485 6.259 26.1812 6.259C26.8052 6.259 27.3469 6.39333 27.8062 6.662C28.2655 6.93067 28.6079 7.26867 28.8332 7.676V6.376H30.0292V13.5H28.8332V12.174C28.5992 12.59 28.2482 12.9367 27.7802 13.214C27.3209 13.4827 26.7835 13.617 26.1682 13.617C25.5355 13.617 24.9635 13.461 24.4522 13.149C23.9409 12.837 23.5379 12.3993 23.2432 11.836C22.9485 11.2727 22.8012 10.6313 22.8012 9.912ZM28.8332 9.925C28.8332 9.38767 28.7249 8.91967 28.5082 8.521C28.2915 8.12233 27.9969 7.819 27.6242 7.611C27.2602 7.39433 26.8572 7.286 26.4152 7.286C25.9732 7.286 25.5702 7.39 25.2062 7.598C24.8422 7.806 24.5519 8.10933 24.3352 8.508C24.1185 8.90667 24.0102 9.37467 24.0102 9.912C24.0102 10.458 24.1185 10.9347 24.3352 11.342C24.5519 11.7407 24.8422 12.0483 25.2062 12.265C25.5702 12.473 25.9732 12.577 26.4152 12.577C26.8572 12.577 27.2602 12.473 27.6242 12.265C27.9969 12.0483 28.2915 11.7407 28.5082 11.342C28.7249 10.9347 28.8332 10.4623 28.8332 9.925ZM31.5863 9.925C31.5863 9.18833 31.7337 8.547 32.0283 8.001C32.323 7.44633 32.7303 7.01733 33.2503 6.714C33.779 6.41067 34.3813 6.259 35.0573 6.259C35.9327 6.259 36.652 6.47133 37.2153 6.896C37.7873 7.32067 38.1643 7.91 38.3463 8.664H37.0723C36.951 8.23067 36.7127 7.88833 36.3573 7.637C36.0107 7.38567 35.5773 7.26 35.0573 7.26C34.3813 7.26 33.8353 7.494 33.4193 7.962C33.0033 8.42133 32.7953 9.07567 32.7953 9.925C32.7953 10.783 33.0033 11.446 33.4193 11.914C33.8353 12.382 34.3813 12.616 35.0573 12.616C35.5773 12.616 36.0107 12.4947 36.3573 12.252C36.704 12.0093 36.9423 11.6627 37.0723 11.212H38.3463C38.1557 11.94 37.7743 12.525 37.2023 12.967C36.6303 13.4003 35.9153 13.617 35.0573 13.617C34.3813 13.617 33.779 13.4653 33.2503 13.162C32.7303 12.8587 32.323 12.4297 32.0283 11.875C31.7337 11.3203 31.5863 10.6703 31.5863 9.925ZM46.4248 9.665C46.4248 9.89033 46.4118 10.1287 46.3858 10.38H40.6918C40.7352 11.082 40.9735 11.6323 41.4068 12.031C41.8488 12.421 42.3818 12.616 43.0058 12.616C43.5172 12.616 43.9418 12.499 44.2798 12.265C44.6265 12.0223 44.8692 11.7017 45.0078 11.303H46.2818C46.0912 11.9877 45.7098 12.5467 45.1378 12.98C44.5658 13.4047 43.8552 13.617 43.0058 13.617C42.3298 13.617 41.7232 13.4653 41.1858 13.162C40.6572 12.8587 40.2412 12.4297 39.9378 11.875C39.6345 11.3117 39.4828 10.6617 39.4828 9.925C39.4828 9.18833 39.6302 8.54267 39.9248 7.988C40.2195 7.43333 40.6312 7.00867 41.1598 6.714C41.6972 6.41067 42.3125 6.259 43.0058 6.259C43.6818 6.259 44.2798 6.40633 44.7998 6.701C45.3198 6.99567 45.7185 7.403 45.9958 7.923C46.2818 8.43433 46.4248 9.015 46.4248 9.665ZM45.2028 9.418C45.2028 8.96733 45.1032 8.58167 44.9038 8.261C44.7045 7.93167 44.4315 7.68467 44.0848 7.52C43.7468 7.34667 43.3698 7.26 42.9538 7.26C42.3558 7.26 41.8445 7.45067 41.4198 7.832C41.0038 8.21333 40.7655 8.742 40.7048 9.418H45.2028ZM51.0102 9.925C51.0102 9.18833 51.1575 8.547 51.4522 8.001C51.7468 7.44633 52.1542 7.01733 52.6742 6.714C53.2028 6.41067 53.8052 6.259 54.4812 6.259C55.3565 6.259 56.0758 6.47133 56.6392 6.896C57.2112 7.32067 57.5882 7.91 57.7702 8.664H56.4962C56.3748 8.23067 56.1365 7.88833 55.7812 7.637C55.4345 7.38567 55.0012 7.26 54.4812 7.26C53.8052 7.26 53.2592 7.494 52.8432 7.962C52.4272 8.42133 52.2192 9.07567 52.2192 9.925C52.2192 10.783 52.4272 11.446 52.8432 11.914C53.2592 12.382 53.8052 12.616 54.4812 12.616C55.0012 12.616 55.4345 12.4947 55.7812 12.252C56.1278 12.0093 56.3662 11.6627 56.4962 11.212H57.7702C57.5795 11.94 57.1982 12.525 56.6262 12.967C56.0542 13.4003 55.3392 13.617 54.4812 13.617C53.8052 13.617 53.2028 13.4653 52.6742 13.162C52.1542 12.8587 51.7468 12.4297 51.4522 11.875C51.1575 11.3203 51.0102 10.6703 51.0102 9.925ZM60.5317 3.88V13.5H59.3487V3.88H60.5317ZM63.1589 5.219C62.9335 5.219 62.7429 5.141 62.5869 4.985C62.4309 4.829 62.3529 4.63833 62.3529 4.413C62.3529 4.18767 62.4309 3.997 62.5869 3.841C62.7429 3.685 62.9335 3.607 63.1589 3.607C63.3755 3.607 63.5575 3.685 63.7049 3.841C63.8609 3.997 63.9389 4.18767 63.9389 4.413C63.9389 4.63833 63.8609 4.829 63.7049 4.985C63.5575 5.141 63.3755 5.219 63.1589 5.219ZM63.7309 6.376V13.5H62.5479V6.376H63.7309ZM72.2471 9.665C72.2471 9.89033 72.2341 10.1287 72.2081 10.38H66.5141C66.5574 11.082 66.7958 11.6323 67.2291 12.031C67.6711 12.421 68.2041 12.616 68.8281 12.616C69.3394 12.616 69.7641 12.499 70.1021 12.265C70.4488 12.0223 70.6914 11.7017 70.8301 11.303H72.1041C71.9134 11.9877 71.5321 12.5467 70.9601 12.98C70.3881 13.4047 69.6774 13.617 68.8281 13.617C68.1521 13.617 67.5454 13.4653 67.0081 13.162C66.4794 12.8587 66.0634 12.4297 65.7601 11.875C65.4568 11.3117 65.3051 10.6617 65.3051 9.925C65.3051 9.18833 65.4524 8.54267 65.7471 7.988C66.0418 7.43333 66.4534 7.00867 66.9821 6.714C67.5194 6.41067 68.1348 6.259 68.8281 6.259C69.5041 6.259 70.1021 6.40633 70.6221 6.701C71.1421 6.99567 71.5408 7.403 71.8181 7.923C72.1041 8.43433 72.2471 9.015 72.2471 9.665ZM71.0251 9.418C71.0251 8.96733 70.9254 8.58167 70.7261 8.261C70.5268 7.93167 70.2538 7.68467 69.9071 7.52C69.5691 7.34667 69.1921 7.26 68.7761 7.26C68.1781 7.26 67.6668 7.45067 67.2421 7.832C66.8261 8.21333 66.5878 8.742 66.5271 9.418H71.0251ZM77.2796 6.246C78.1463 6.246 78.8483 6.51033 79.3856 7.039C79.923 7.559 80.1916 8.313 80.1916 9.301V13.5H79.0216V9.47C79.0216 8.75933 78.844 8.21767 78.4886 7.845C78.1333 7.46367 77.648 7.273 77.0326 7.273C76.4086 7.273 75.9103 7.468 75.5376 7.858C75.1736 8.248 74.9916 8.81567 74.9916 9.561V13.5H73.8086V6.376H74.9916V7.39C75.2256 7.026 75.542 6.74433 75.9406 6.545C76.348 6.34567 76.7943 6.246 77.2796 6.246ZM83.567 7.351V11.55C83.567 11.8967 83.6407 12.1437 83.788 12.291C83.9354 12.4297 84.191 12.499 84.555 12.499H85.426V13.5H84.36C83.7014 13.5 83.2074 13.3483 82.878 13.045C82.5487 12.7417 82.384 12.2433 82.384 11.55V7.351H81.461V6.376H82.384V4.582H83.567V6.376H85.426V7.351H83.567Z" fill="white"/>
</svg>
