<svg width="114" height="19" viewBox="0 0 114 19" fill="none" xmlns="http://www.w3.org/2000/svg">
<path d="M10.192 4.504V13.5H9.009V6.792L6.019 13.5H5.187L2.184 6.779V13.5H1.001V4.504H2.275L5.603 11.94L8.931 4.504H10.192ZM18.6983 9.665C18.6983 9.89033 18.6853 10.1287 18.6593 10.38H12.9653C13.0086 11.082 13.2469 11.6323 13.6803 12.031C14.1223 12.421 14.6553 12.616 15.2793 12.616C15.7906 12.616 16.2153 12.499 16.5533 12.265C16.8999 12.0223 17.1426 11.7017 17.2813 11.303H18.5553C18.3646 11.9877 17.9833 12.5467 17.4113 12.98C16.8393 13.4047 16.1286 13.617 15.2793 13.617C14.6033 13.617 13.9966 13.4653 13.4593 13.162C12.9306 12.8587 12.5146 12.4297 12.2113 11.875C11.9079 11.3117 11.7563 10.6617 11.7563 9.925C11.7563 9.18833 11.9036 8.54267 12.1983 7.988C12.4929 7.43333 12.9046 7.00867 13.4333 6.714C13.9706 6.41067 14.5859 6.259 15.2793 6.259C15.9553 6.259 16.5533 6.40633 17.0733 6.701C17.5933 6.99567 17.9919 7.403 18.2693 7.923C18.5553 8.43433 18.6983 9.015 18.6983 9.665ZM17.4763 9.418C17.4763 8.96733 17.3766 8.58167 17.1773 8.261C16.9779 7.93167 16.7049 7.68467 16.3583 7.52C16.0203 7.34667 15.6433 7.26 15.2273 7.26C14.6293 7.26 14.1179 7.45067 13.6933 7.832C13.2773 8.21333 13.0389 8.742 12.9783 9.418H17.4763ZM22.7818 13.617C22.2358 13.617 21.7461 13.526 21.3128 13.344C20.8795 13.1533 20.5371 12.8933 20.2858 12.564C20.0345 12.226 19.8958 11.8403 19.8698 11.407H21.0918C21.1265 11.7623 21.2911 12.0527 21.5858 12.278C21.8891 12.5033 22.2835 12.616 22.7688 12.616C23.2195 12.616 23.5748 12.5163 23.8348 12.317C24.0948 12.1177 24.2248 11.8663 24.2248 11.563C24.2248 11.251 24.0861 11.0213 23.8088 10.874C23.5315 10.718 23.1025 10.5663 22.5218 10.419C21.9931 10.2803 21.5598 10.1417 21.2218 10.003C20.8925 9.85567 20.6065 9.64333 20.3638 9.366C20.1298 9.08 20.0128 8.70733 20.0128 8.248C20.0128 7.884 20.1211 7.55033 20.3378 7.247C20.5545 6.94367 20.8621 6.70533 21.2608 6.532C21.6595 6.35 22.1145 6.259 22.6258 6.259C23.4145 6.259 24.0515 6.45833 24.5368 6.857C25.0221 7.25567 25.2821 7.80167 25.3168 8.495H24.1338C24.1078 8.12233 23.9561 7.82333 23.6788 7.598C23.4101 7.37267 23.0461 7.26 22.5868 7.26C22.1621 7.26 21.8241 7.351 21.5728 7.533C21.3215 7.715 21.1958 7.95333 21.1958 8.248C21.1958 8.482 21.2695 8.677 21.4168 8.833C21.5728 8.98033 21.7635 9.10167 21.9888 9.197C22.2228 9.28367 22.5435 9.38333 22.9508 9.496C23.4621 9.63467 23.8781 9.77333 24.1988 9.912C24.5195 10.042 24.7925 10.2413 25.0178 10.51C25.2518 10.7787 25.3731 11.1297 25.3818 11.563C25.3818 11.953 25.2735 12.304 25.0568 12.616C24.8401 12.928 24.5325 13.175 24.1338 13.357C23.7438 13.5303 23.2931 13.617 22.7818 13.617ZM30.0756 9.925C30.0756 9.18833 30.2229 8.547 30.5176 8.001C30.8123 7.44633 31.2196 7.01733 31.7396 6.714C32.2683 6.41067 32.8706 6.259 33.5466 6.259C34.4219 6.259 35.1413 6.47133 35.7046 6.896C36.2766 7.32067 36.6536 7.91 36.8356 8.664H35.5616C35.4403 8.23067 35.2019 7.88833 34.8466 7.637C34.4999 7.38567 34.0666 7.26 33.5466 7.26C32.8706 7.26 32.3246 7.494 31.9086 7.962C31.4926 8.42133 31.2846 9.07567 31.2846 9.925C31.2846 10.783 31.4926 11.446 31.9086 11.914C32.3246 12.382 32.8706 12.616 33.5466 12.616C34.0666 12.616 34.4999 12.4947 34.8466 12.252C35.1933 12.0093 35.4316 11.6627 35.5616 11.212H36.8356C36.6449 11.94 36.2636 12.525 35.6916 12.967C35.1196 13.4003 34.4046 13.617 33.5466 13.617C32.8706 13.617 32.2683 13.4653 31.7396 13.162C31.2196 12.8587 30.8123 12.4297 30.5176 11.875C30.2229 11.3203 30.0756 10.6703 30.0756 9.925ZM41.5211 13.617C40.8538 13.617 40.2471 13.4653 39.7011 13.162C39.1638 12.8587 38.7391 12.4297 38.4271 11.875C38.1238 11.3117 37.9721 10.6617 37.9721 9.925C37.9721 9.197 38.1281 8.55567 38.4401 8.001C38.7608 7.43767 39.1941 7.00867 39.7401 6.714C40.2861 6.41067 40.8971 6.259 41.5731 6.259C42.2491 6.259 42.8601 6.41067 43.4061 6.714C43.9521 7.00867 44.3811 7.43333 44.6931 7.988C45.0138 8.54267 45.1741 9.18833 45.1741 9.925C45.1741 10.6617 45.0094 11.3117 44.6801 11.875C44.3594 12.4297 43.9218 12.8587 43.3671 13.162C42.8124 13.4653 42.1971 13.617 41.5211 13.617ZM41.5211 12.577C41.9458 12.577 42.3444 12.4773 42.7171 12.278C43.0898 12.0787 43.3888 11.7797 43.6141 11.381C43.8481 10.9823 43.9651 10.497 43.9651 9.925C43.9651 9.353 43.8524 8.86767 43.6271 8.469C43.4018 8.07033 43.1071 7.77567 42.7431 7.585C42.3791 7.38567 41.9848 7.286 41.5601 7.286C41.1268 7.286 40.7281 7.38567 40.3641 7.585C40.0088 7.77567 39.7228 8.07033 39.5061 8.469C39.2894 8.86767 39.1811 9.353 39.1811 9.925C39.1811 10.5057 39.2851 10.9953 39.4931 11.394C39.7098 11.7927 39.9958 12.0917 40.3511 12.291C40.7064 12.4817 41.0964 12.577 41.5211 12.577ZM55.2965 6.246C55.8512 6.246 56.3452 6.363 56.7785 6.597C57.2118 6.82233 57.5542 7.16467 57.8055 7.624C58.0568 8.08333 58.1825 8.64233 58.1825 9.301V13.5H57.0125V9.47C57.0125 8.75933 56.8348 8.21767 56.4795 7.845C56.1328 7.46367 55.6605 7.273 55.0625 7.273C54.4472 7.273 53.9575 7.47233 53.5935 7.871C53.2295 8.261 53.0475 8.82867 53.0475 9.574V13.5H51.8775V9.47C51.8775 8.75933 51.6998 8.21767 51.3445 7.845C50.9978 7.46367 50.5255 7.273 49.9275 7.273C49.3122 7.273 48.8225 7.47233 48.4585 7.871C48.0945 8.261 47.9125 8.82867 47.9125 9.574V13.5H46.7295V6.376H47.9125V7.403C48.1465 7.03033 48.4585 6.74433 48.8485 6.545C49.2472 6.34567 49.6848 6.246 50.1615 6.246C50.7595 6.246 51.2882 6.38033 51.7475 6.649C52.2068 6.91767 52.5492 7.312 52.7745 7.832C52.9738 7.32933 53.3032 6.93933 53.7625 6.662C54.2218 6.38467 54.7332 6.246 55.2965 6.246ZM68.6901 6.246C69.2447 6.246 69.7387 6.363 70.1721 6.597C70.6054 6.82233 70.9477 7.16467 71.1991 7.624C71.4504 8.08333 71.5761 8.64233 71.5761 9.301V13.5H70.4061V9.47C70.4061 8.75933 70.2284 8.21767 69.8731 7.845C69.5264 7.46367 69.0541 7.273 68.4561 7.273C67.8407 7.273 67.3511 7.47233 66.9871 7.871C66.6231 8.261 66.4411 8.82867 66.4411 9.574V13.5H65.2711V9.47C65.2711 8.75933 65.0934 8.21767 64.7381 7.845C64.3914 7.46367 63.9191 7.273 63.3211 7.273C62.7057 7.273 62.2161 7.47233 61.8521 7.871C61.4881 8.261 61.3061 8.82867 61.3061 9.574V13.5H60.1231V6.376H61.3061V7.403C61.5401 7.03033 61.8521 6.74433 62.2421 6.545C62.6407 6.34567 63.0784 6.246 63.5551 6.246C64.1531 6.246 64.6817 6.38033 65.1411 6.649C65.6004 6.91767 65.9427 7.312 66.1681 7.832C66.3674 7.32933 66.6967 6.93933 67.1561 6.662C67.6154 6.38467 68.1267 6.246 68.6901 6.246ZM73.0746 9.912C73.0746 9.184 73.222 8.547 73.5166 8.001C73.8113 7.44633 74.2143 7.01733 74.7256 6.714C75.2456 6.41067 75.822 6.259 76.4546 6.259C77.0786 6.259 77.6203 6.39333 78.0796 6.662C78.539 6.93067 78.8813 7.26867 79.1066 7.676V6.376H80.3026V13.5H79.1066V12.174C78.8726 12.59 78.5216 12.9367 78.0536 13.214C77.5943 13.4827 77.057 13.617 76.4416 13.617C75.809 13.617 75.237 13.461 74.7256 13.149C74.2143 12.837 73.8113 12.3993 73.5166 11.836C73.222 11.2727 73.0746 10.6313 73.0746 9.912ZM79.1066 9.925C79.1066 9.38767 78.9983 8.91967 78.7816 8.521C78.565 8.12233 78.2703 7.819 77.8976 7.611C77.5336 7.39433 77.1306 7.286 76.6886 7.286C76.2466 7.286 75.8436 7.39 75.4796 7.598C75.1156 7.806 74.8253 8.10933 74.6086 8.508C74.392 8.90667 74.2836 9.37467 74.2836 9.912C74.2836 10.458 74.392 10.9347 74.6086 11.342C74.8253 11.7407 75.1156 12.0483 75.4796 12.265C75.8436 12.473 76.2466 12.577 76.6886 12.577C77.1306 12.577 77.5336 12.473 77.8976 12.265C78.2703 12.0483 78.565 11.7407 78.7816 11.342C78.9983 10.9347 79.1066 10.4623 79.1066 9.925ZM85.7728 6.246C86.6394 6.246 87.3414 6.51033 87.8788 7.039C88.4161 7.559 88.6848 8.313 88.6848 9.301V13.5H87.5148V9.47C87.5148 8.75933 87.3371 8.21767 86.9818 7.845C86.6264 7.46367 86.1411 7.273 85.5258 7.273C84.9018 7.273 84.4034 7.468 84.0308 7.858C83.6668 8.248 83.4848 8.81567 83.4848 9.561V13.5H82.3018V6.376H83.4848V7.39C83.7188 7.026 84.0351 6.74433 84.4338 6.545C84.8411 6.34567 85.2874 6.246 85.7728 6.246ZM90.1752 9.912C90.1752 9.184 90.3225 8.547 90.6172 8.001C90.9119 7.44633 91.3149 7.01733 91.8262 6.714C92.3462 6.41067 92.9269 6.259 93.5682 6.259C94.1229 6.259 94.6385 6.389 95.1152 6.649C95.5919 6.90033 95.9559 7.234 96.2072 7.65V3.88H97.4032V13.5H96.2072V12.161C95.9732 12.5857 95.6265 12.9367 95.1672 13.214C94.7079 13.4827 94.1705 13.617 93.5552 13.617C92.9225 13.617 92.3462 13.461 91.8262 13.149C91.3149 12.837 90.9119 12.3993 90.6172 11.836C90.3225 11.2727 90.1752 10.6313 90.1752 9.912ZM96.2072 9.925C96.2072 9.38767 96.0989 8.91967 95.8822 8.521C95.6655 8.12233 95.3709 7.819 94.9982 7.611C94.6342 7.39433 94.2312 7.286 93.7892 7.286C93.3472 7.286 92.9442 7.39 92.5802 7.598C92.2162 7.806 91.9259 8.10933 91.7092 8.508C91.4925 8.90667 91.3842 9.37467 91.3842 9.912C91.3842 10.458 91.4925 10.9347 91.7092 11.342C91.9259 11.7407 92.2162 12.0483 92.5802 12.265C92.9442 12.473 93.3472 12.577 93.7892 12.577C94.2312 12.577 94.6342 12.473 94.9982 12.265C95.3709 12.0483 95.6655 11.7407 95.8822 11.342C96.0989 10.9347 96.2072 10.4623 96.2072 9.925ZM105.902 9.665C105.902 9.89033 105.889 10.1287 105.863 10.38H100.169C100.213 11.082 100.451 11.6323 100.884 12.031C101.326 12.421 101.859 12.616 102.483 12.616C102.995 12.616 103.419 12.499 103.757 12.265C104.104 12.0223 104.347 11.7017 104.485 11.303H105.759C105.569 11.9877 105.187 12.5467 104.615 12.98C104.043 13.4047 103.333 13.617 102.483 13.617C101.807 13.617 101.201 13.4653 100.663 13.162C100.135 12.8587 99.7187 12.4297 99.4154 11.875C99.112 11.3117 98.9604 10.6617 98.9604 9.925C98.9604 9.18833 99.1077 8.54267 99.4024 7.988C99.697 7.43333 100.109 7.00867 100.637 6.714C101.175 6.41067 101.79 6.259 102.483 6.259C103.159 6.259 103.757 6.40633 104.277 6.701C104.797 6.99567 105.196 7.403 105.473 7.923C105.759 8.43433 105.902 9.015 105.902 9.665ZM104.68 9.418C104.68 8.96733 104.581 8.58167 104.381 8.261C104.182 7.93167 103.909 7.68467 103.562 7.52C103.224 7.34667 102.847 7.26 102.431 7.26C101.833 7.26 101.322 7.45067 100.897 7.832C100.481 8.21333 100.243 8.742 100.182 9.418H104.68ZM109.986 13.617C109.44 13.617 108.95 13.526 108.517 13.344C108.084 13.1533 107.741 12.8933 107.49 12.564C107.239 12.226 107.1 11.8403 107.074 11.407H108.296C108.331 11.7623 108.495 12.0527 108.79 12.278C109.093 12.5033 109.488 12.616 109.973 12.616C110.424 12.616 110.779 12.5163 111.039 12.317C111.299 12.1177 111.429 11.8663 111.429 11.563C111.429 11.251 111.29 11.0213 111.013 10.874C110.736 10.718 110.307 10.5663 109.726 10.419C109.197 10.2803 108.764 10.1417 108.426 10.003C108.097 9.85567 107.811 9.64333 107.568 9.366C107.334 9.08 107.217 8.70733 107.217 8.248C107.217 7.884 107.325 7.55033 107.542 7.247C107.759 6.94367 108.066 6.70533 108.465 6.532C108.864 6.35 109.319 6.259 109.83 6.259C110.619 6.259 111.256 6.45833 111.741 6.857C112.226 7.25567 112.486 7.80167 112.521 8.495H111.338C111.312 8.12233 111.16 7.82333 110.883 7.598C110.614 7.37267 110.25 7.26 109.791 7.26C109.366 7.26 109.028 7.351 108.777 7.533C108.526 7.715 108.4 7.95333 108.4 8.248C108.4 8.482 108.474 8.677 108.621 8.833C108.777 8.98033 108.968 9.10167 109.193 9.197C109.427 9.28367 109.748 9.38333 110.155 9.496C110.666 9.63467 111.082 9.77333 111.403 9.912C111.724 10.042 111.997 10.2413 112.222 10.51C112.456 10.7787 112.577 11.1297 112.586 11.563C112.586 11.953 112.478 12.304 112.261 12.616C112.044 12.928 111.737 13.175 111.338 13.357C110.948 13.5303 110.497 13.617 109.986 13.617Z" fill="white"/>
</svg>
