<svg width="106" height="19" viewBox="0 0 106 19" fill="none" xmlns="http://www.w3.org/2000/svg">
<path d="M0.559 8.963C0.559 8.079 0.758333 7.286 1.157 6.584C1.55567 5.87333 2.09733 5.31867 2.782 4.92C3.47533 4.52133 4.24233 4.322 5.083 4.322C6.071 4.322 6.93333 4.56033 7.67 5.037C8.40667 5.51367 8.944 6.18967 9.282 7.065H7.865C7.61367 6.519 7.24967 6.09867 6.773 5.804C6.305 5.50933 5.74167 5.362 5.083 5.362C4.45033 5.362 3.88267 5.50933 3.38 5.804C2.87733 6.09867 2.483 6.519 2.197 7.065C1.911 7.60233 1.768 8.235 1.768 8.963C1.768 9.68233 1.911 10.315 2.197 10.861C2.483 11.3983 2.87733 11.8143 3.38 12.109C3.88267 12.4037 4.45033 12.551 5.083 12.551C5.74167 12.551 6.305 12.408 6.773 12.122C7.24967 11.8273 7.61367 11.407 7.865 10.861H9.282C8.944 11.7277 8.40667 12.3993 7.67 12.876C6.93333 13.344 6.071 13.578 5.083 13.578C4.24233 13.578 3.47533 13.383 2.782 12.993C2.09733 12.5943 1.55567 12.044 1.157 11.342C0.758333 10.64 0.559 9.847 0.559 8.963ZM14.15 13.617C13.4827 13.617 12.876 13.4653 12.33 13.162C11.7927 12.8587 11.368 12.4297 11.056 11.875C10.7527 11.3117 10.601 10.6617 10.601 9.925C10.601 9.197 10.757 8.55567 11.069 8.001C11.3897 7.43767 11.823 7.00867 12.369 6.714C12.915 6.41067 13.526 6.259 14.202 6.259C14.878 6.259 15.489 6.41067 16.035 6.714C16.581 7.00867 17.01 7.43333 17.322 7.988C17.6427 8.54267 17.803 9.18833 17.803 9.925C17.803 10.6617 17.6383 11.3117 17.309 11.875C16.9883 12.4297 16.5507 12.8587 15.996 13.162C15.4413 13.4653 14.826 13.617 14.15 13.617ZM14.15 12.577C14.5747 12.577 14.9733 12.4773 15.346 12.278C15.7187 12.0787 16.0177 11.7797 16.243 11.381C16.477 10.9823 16.594 10.497 16.594 9.925C16.594 9.353 16.4813 8.86767 16.256 8.469C16.0307 8.07033 15.736 7.77567 15.372 7.585C15.008 7.38567 14.6137 7.286 14.189 7.286C13.7557 7.286 13.357 7.38567 12.993 7.585C12.6377 7.77567 12.3517 8.07033 12.135 8.469C11.9183 8.86767 11.81 9.353 11.81 9.925C11.81 10.5057 11.914 10.9953 12.122 11.394C12.3387 11.7927 12.6247 12.0917 12.98 12.291C13.3353 12.4817 13.7253 12.577 14.15 12.577ZM22.8294 6.246C23.6961 6.246 24.3981 6.51033 24.9354 7.039C25.4728 7.559 25.7414 8.313 25.7414 9.301V13.5H24.5714V9.47C24.5714 8.75933 24.3938 8.21767 24.0384 7.845C23.6831 7.46367 23.1978 7.273 22.5824 7.273C21.9584 7.273 21.4601 7.468 21.0874 7.858C20.7234 8.248 20.5414 8.81567 20.5414 9.561V13.5H19.3584V6.376H20.5414V7.39C20.7754 7.026 21.0918 6.74433 21.4904 6.545C21.8978 6.34567 22.3441 6.246 22.8294 6.246ZM29.1169 7.351V11.55C29.1169 11.8967 29.1905 12.1437 29.3379 12.291C29.4852 12.4297 29.7409 12.499 30.1049 12.499H30.9759V13.5H29.9099C29.2512 13.5 28.7572 13.3483 28.4279 13.045C28.0985 12.7417 27.9339 12.2433 27.9339 11.55V7.351H27.0109V6.376H27.9339V4.582H29.1169V6.376H30.9759V7.351H29.1169ZM31.9672 9.912C31.9672 9.184 32.1145 8.547 32.4092 8.001C32.7039 7.44633 33.1069 7.01733 33.6182 6.714C34.1382 6.41067 34.7145 6.259 35.3472 6.259C35.9712 6.259 36.5129 6.39333 36.9722 6.662C37.4315 6.93067 37.7739 7.26867 37.9992 7.676V6.376H39.1952V13.5H37.9992V12.174C37.7652 12.59 37.4142 12.9367 36.9462 13.214C36.4869 13.4827 35.9495 13.617 35.3342 13.617C34.7015 13.617 34.1295 13.461 33.6182 13.149C33.1069 12.837 32.7039 12.3993 32.4092 11.836C32.1145 11.2727 31.9672 10.6313 31.9672 9.912ZM37.9992 9.925C37.9992 9.38767 37.8909 8.91967 37.6742 8.521C37.4575 8.12233 37.1629 7.819 36.7902 7.611C36.4262 7.39433 36.0232 7.286 35.5812 7.286C35.1392 7.286 34.7362 7.39 34.3722 7.598C34.0082 7.806 33.7179 8.10933 33.5012 8.508C33.2845 8.90667 33.1762 9.37467 33.1762 9.912C33.1762 10.458 33.2845 10.9347 33.5012 11.342C33.7179 11.7407 34.0082 12.0483 34.3722 12.265C34.7362 12.473 35.1392 12.577 35.5812 12.577C36.0232 12.577 36.4262 12.473 36.7902 12.265C37.1629 12.0483 37.4575 11.7407 37.6742 11.342C37.8909 10.9347 37.9992 10.4623 37.9992 9.925ZM40.7524 9.925C40.7524 9.18833 40.8997 8.547 41.1944 8.001C41.489 7.44633 41.8964 7.01733 42.4164 6.714C42.945 6.41067 43.5474 6.259 44.2234 6.259C45.0987 6.259 45.818 6.47133 46.3814 6.896C46.9534 7.32067 47.3304 7.91 47.5124 8.664H46.2384C46.117 8.23067 45.8787 7.88833 45.5234 7.637C45.1767 7.38567 44.7434 7.26 44.2234 7.26C43.5474 7.26 43.0014 7.494 42.5854 7.962C42.1694 8.42133 41.9614 9.07567 41.9614 9.925C41.9614 10.783 42.1694 11.446 42.5854 11.914C43.0014 12.382 43.5474 12.616 44.2234 12.616C44.7434 12.616 45.1767 12.4947 45.5234 12.252C45.87 12.0093 46.1084 11.6627 46.2384 11.212H47.5124C47.3217 11.94 46.9404 12.525 46.3684 12.967C45.7964 13.4003 45.0814 13.617 44.2234 13.617C43.5474 13.617 42.945 13.4653 42.4164 13.162C41.8964 12.8587 41.489 12.4297 41.1944 11.875C40.8997 11.3203 40.7524 10.6703 40.7524 9.925ZM50.5338 7.351V11.55C50.5338 11.8967 50.6075 12.1437 50.7548 12.291C50.9022 12.4297 51.1578 12.499 51.5218 12.499H52.3928V13.5H51.3268C50.6682 13.5 50.1742 13.3483 49.8448 13.045C49.5155 12.7417 49.3508 12.2433 49.3508 11.55V7.351H48.4278V6.376H49.3508V4.582H50.5338V6.376H52.3928V7.351H50.5338ZM60.3262 9.665C60.3262 9.89033 60.3132 10.1287 60.2872 10.38H54.5932C54.6365 11.082 54.8749 11.6323 55.3082 12.031C55.7502 12.421 56.2832 12.616 56.9072 12.616C57.4185 12.616 57.8432 12.499 58.1812 12.265C58.5279 12.0223 58.7705 11.7017 58.9092 11.303H60.1832C59.9925 11.9877 59.6112 12.5467 59.0392 12.98C58.4672 13.4047 57.7565 13.617 56.9072 13.617C56.2312 13.617 55.6245 13.4653 55.0872 13.162C54.5585 12.8587 54.1425 12.4297 53.8392 11.875C53.5359 11.3117 53.3842 10.6617 53.3842 9.925C53.3842 9.18833 53.5315 8.54267 53.8262 7.988C54.1209 7.43333 54.5325 7.00867 55.0612 6.714C55.5985 6.41067 56.2139 6.259 56.9072 6.259C57.5832 6.259 58.1812 6.40633 58.7012 6.701C59.2212 6.99567 59.6199 7.403 59.8972 7.923C60.1832 8.43433 60.3262 9.015 60.3262 9.665ZM59.1042 9.418C59.1042 8.96733 59.0045 8.58167 58.8052 8.261C58.6059 7.93167 58.3329 7.68467 57.9862 7.52C57.6482 7.34667 57.2712 7.26 56.8552 7.26C56.2572 7.26 55.7459 7.45067 55.3212 7.832C54.9052 8.21333 54.6669 8.742 54.6062 9.418H59.1042ZM62.7717 12.525H66.2687V13.5H61.4197V12.525L64.8777 7.338H61.4457V6.376H66.2427V7.338L62.7717 12.525ZM72.7437 8.235V9.236H67.5567V8.235H72.7437ZM78.4349 6.246C79.3016 6.246 80.0036 6.51033 80.5409 7.039C81.0782 7.559 81.3469 8.313 81.3469 9.301V13.5H80.1769V9.47C80.1769 8.75933 79.9992 8.21767 79.6439 7.845C79.2886 7.46367 78.8032 7.273 78.1879 7.273C77.5639 7.273 77.0656 7.468 76.6929 7.858C76.3289 8.248 76.1469 8.81567 76.1469 9.561V13.5H74.9639V6.376H76.1469V7.39C76.3809 7.026 76.6972 6.74433 77.0959 6.545C77.5032 6.34567 77.9496 6.246 78.4349 6.246ZM86.3863 13.617C85.719 13.617 85.1123 13.4653 84.5663 13.162C84.029 12.8587 83.6043 12.4297 83.2923 11.875C82.989 11.3117 82.8373 10.6617 82.8373 9.925C82.8373 9.197 82.9933 8.55567 83.3053 8.001C83.626 7.43767 84.0593 7.00867 84.6053 6.714C85.1513 6.41067 85.7623 6.259 86.4383 6.259C87.1143 6.259 87.7253 6.41067 88.2713 6.714C88.8173 7.00867 89.2463 7.43333 89.5583 7.988C89.879 8.54267 90.0393 9.18833 90.0393 9.925C90.0393 10.6617 89.8747 11.3117 89.5453 11.875C89.2247 12.4297 88.787 12.8587 88.2323 13.162C87.6777 13.4653 87.0623 13.617 86.3863 13.617ZM86.3863 12.577C86.811 12.577 87.2097 12.4773 87.5823 12.278C87.955 12.0787 88.254 11.7797 88.4793 11.381C88.7133 10.9823 88.8303 10.497 88.8303 9.925C88.8303 9.353 88.7177 8.86767 88.4923 8.469C88.267 8.07033 87.9723 7.77567 87.6083 7.585C87.2443 7.38567 86.85 7.286 86.4253 7.286C85.992 7.286 85.5933 7.38567 85.2293 7.585C84.874 7.77567 84.588 8.07033 84.3713 8.469C84.1547 8.86767 84.0463 9.353 84.0463 9.925C84.0463 10.5057 84.1503 10.9953 84.3583 11.394C84.575 11.7927 84.861 12.0917 85.2163 12.291C85.5717 12.4817 85.9617 12.577 86.3863 12.577ZM97.9128 6.376V13.5H96.7298V12.447C96.5044 12.811 96.1881 13.097 95.7808 13.305C95.3821 13.5043 94.9401 13.604 94.4548 13.604C93.9001 13.604 93.4018 13.4913 92.9598 13.266C92.5178 13.032 92.1668 12.6853 91.9068 12.226C91.6554 11.7667 91.5298 11.2077 91.5298 10.549V6.376H92.6998V10.393C92.6998 11.095 92.8774 11.6367 93.2328 12.018C93.5881 12.3907 94.0734 12.577 94.6888 12.577C95.3214 12.577 95.8198 12.382 96.1838 11.992C96.5478 11.602 96.7298 11.0343 96.7298 10.289V6.376H97.9128ZM102.432 13.617C101.886 13.617 101.397 13.526 100.963 13.344C100.53 13.1533 100.188 12.8933 99.9362 12.564C99.6848 12.226 99.5462 11.8403 99.5202 11.407H100.742C100.777 11.7623 100.942 12.0527 101.236 12.278C101.54 12.5033 101.934 12.616 102.419 12.616C102.87 12.616 103.225 12.5163 103.485 12.317C103.745 12.1177 103.875 11.8663 103.875 11.563C103.875 11.251 103.737 11.0213 103.459 10.874C103.182 10.718 102.753 10.5663 102.172 10.419C101.644 10.2803 101.21 10.1417 100.872 10.003C100.543 9.85567 100.257 9.64333 100.014 9.366C99.7802 9.08 99.6632 8.70733 99.6632 8.248C99.6632 7.884 99.7715 7.55033 99.9882 7.247C100.205 6.94367 100.513 6.70533 100.911 6.532C101.31 6.35 101.765 6.259 102.276 6.259C103.065 6.259 103.702 6.45833 104.187 6.857C104.673 7.25567 104.933 7.80167 104.967 8.495H103.784C103.758 8.12233 103.607 7.82333 103.329 7.598C103.061 7.37267 102.697 7.26 102.237 7.26C101.813 7.26 101.475 7.351 101.223 7.533C100.972 7.715 100.846 7.95333 100.846 8.248C100.846 8.482 100.92 8.677 101.067 8.833C101.223 8.98033 101.414 9.10167 101.639 9.197C101.873 9.28367 102.194 9.38333 102.601 9.496C103.113 9.63467 103.529 9.77333 103.849 9.912C104.17 10.042 104.443 10.2413 104.668 10.51C104.902 10.7787 105.024 11.1297 105.032 11.563C105.032 11.953 104.924 12.304 104.707 12.616C104.491 12.928 104.183 13.175 103.784 13.357C103.394 13.5303 102.944 13.617 102.432 13.617Z" fill="white"/>
</svg>
