<svg width="39" height="19" viewBox="0 0 39 19" fill="none" xmlns="http://www.w3.org/2000/svg">
<path d="M0.559 8.963C0.559 8.079 0.758333 7.286 1.157 6.584C1.55567 5.87333 2.09733 5.31867 2.782 4.92C3.47533 4.52133 4.24233 4.322 5.083 4.322C6.071 4.322 6.93333 4.56033 7.67 5.037C8.40667 5.51367 8.944 6.18967 9.282 7.065H7.865C7.61367 6.519 7.24967 6.09867 6.773 5.804C6.305 5.50933 5.74167 5.362 5.083 5.362C4.45033 5.362 3.88267 5.50933 3.38 5.804C2.87733 6.09867 2.483 6.519 2.197 7.065C1.911 7.60233 1.768 8.235 1.768 8.963C1.768 9.68233 1.911 10.315 2.197 10.861C2.483 11.3983 2.87733 11.8143 3.38 12.109C3.88267 12.4037 4.45033 12.551 5.083 12.551C5.74167 12.551 6.305 12.408 6.773 12.122C7.24967 11.8273 7.61367 11.407 7.865 10.861H9.282C8.944 11.7277 8.40667 12.3993 7.67 12.876C6.93333 13.344 6.071 13.578 5.083 13.578C4.24233 13.578 3.47533 13.383 2.782 12.993C2.09733 12.5943 1.55567 12.044 1.157 11.342C0.758333 10.64 0.559 9.847 0.559 8.963ZM14.15 13.617C13.4827 13.617 12.876 13.4653 12.33 13.162C11.7927 12.8587 11.368 12.4297 11.056 11.875C10.7527 11.3117 10.601 10.6617 10.601 9.925C10.601 9.197 10.757 8.55567 11.069 8.001C11.3897 7.43767 11.823 7.00867 12.369 6.714C12.915 6.41067 13.526 6.259 14.202 6.259C14.878 6.259 15.489 6.41067 16.035 6.714C16.581 7.00867 17.01 7.43333 17.322 7.988C17.6427 8.54267 17.803 9.18833 17.803 9.925C17.803 10.6617 17.6383 11.3117 17.309 11.875C16.9883 12.4297 16.5507 12.8587 15.996 13.162C15.4413 13.4653 14.826 13.617 14.15 13.617ZM14.15 12.577C14.5747 12.577 14.9733 12.4773 15.346 12.278C15.7187 12.0787 16.0177 11.7797 16.243 11.381C16.477 10.9823 16.594 10.497 16.594 9.925C16.594 9.353 16.4813 8.86767 16.256 8.469C16.0307 8.07033 15.736 7.77567 15.372 7.585C15.008 7.38567 14.6137 7.286 14.189 7.286C13.7557 7.286 13.357 7.38567 12.993 7.585C12.6377 7.77567 12.3517 8.07033 12.135 8.469C11.9183 8.86767 11.81 9.353 11.81 9.925C11.81 10.5057 11.914 10.9953 12.122 11.394C12.3387 11.7927 12.6247 12.0917 12.98 12.291C13.3353 12.4817 13.7253 12.577 14.15 12.577ZM20.5414 7.533C20.7494 7.12567 21.0441 6.80933 21.4254 6.584C21.8154 6.35867 22.2878 6.246 22.8424 6.246V7.468H22.5304C21.2044 7.468 20.5414 8.18733 20.5414 9.626V13.5H19.3584V6.376H20.5414V7.533ZM25.391 7.689C25.625 7.28167 25.9717 6.94367 26.431 6.675C26.899 6.39767 27.4407 6.259 28.056 6.259C28.6887 6.259 29.2607 6.41067 29.772 6.714C30.292 7.01733 30.6994 7.44633 30.994 8.001C31.2887 8.547 31.436 9.184 31.436 9.912C31.436 10.6313 31.2887 11.2727 30.994 11.836C30.6994 12.3993 30.292 12.837 29.772 13.149C29.2607 13.461 28.6887 13.617 28.056 13.617C27.4494 13.617 26.912 13.4827 26.444 13.214C25.9847 12.9367 25.6337 12.5943 25.391 12.187V16.88H24.208V6.376H25.391V7.689ZM30.227 9.912C30.227 9.37467 30.1187 8.90667 29.902 8.508C29.6854 8.10933 29.3907 7.806 29.018 7.598C28.654 7.39 28.251 7.286 27.809 7.286C27.3757 7.286 26.9727 7.39433 26.6 7.611C26.236 7.819 25.9414 8.12667 25.716 8.534C25.4994 8.93267 25.391 9.39633 25.391 9.925C25.391 10.4623 25.4994 10.9347 25.716 11.342C25.9414 11.7407 26.236 12.0483 26.6 12.265C26.9727 12.473 27.3757 12.577 27.809 12.577C28.251 12.577 28.654 12.473 29.018 12.265C29.3907 12.0483 29.6854 11.7407 29.902 11.342C30.1187 10.9347 30.227 10.458 30.227 9.912ZM35.5152 13.617C34.9692 13.617 34.4795 13.526 34.0462 13.344C33.6129 13.1533 33.2705 12.8933 33.0192 12.564C32.7679 12.226 32.6292 11.8403 32.6032 11.407H33.8252C33.8599 11.7623 34.0245 12.0527 34.3192 12.278C34.6225 12.5033 35.0169 12.616 35.5022 12.616C35.9529 12.616 36.3082 12.5163 36.5682 12.317C36.8282 12.1177 36.9582 11.8663 36.9582 11.563C36.9582 11.251 36.8195 11.0213 36.5422 10.874C36.2649 10.718 35.8359 10.5663 35.2552 10.419C34.7265 10.2803 34.2932 10.1417 33.9552 10.003C33.6259 9.85567 33.3399 9.64333 33.0972 9.366C32.8632 9.08 32.7462 8.70733 32.7462 8.248C32.7462 7.884 32.8545 7.55033 33.0712 7.247C33.2879 6.94367 33.5955 6.70533 33.9942 6.532C34.3929 6.35 34.8479 6.259 35.3592 6.259C36.1479 6.259 36.7849 6.45833 37.2702 6.857C37.7555 7.25567 38.0155 7.80167 38.0502 8.495H36.8672C36.8412 8.12233 36.6895 7.82333 36.4122 7.598C36.1435 7.37267 35.7795 7.26 35.3202 7.26C34.8955 7.26 34.5575 7.351 34.3062 7.533C34.0549 7.715 33.9292 7.95333 33.9292 8.248C33.9292 8.482 34.0029 8.677 34.1502 8.833C34.3062 8.98033 34.4969 9.10167 34.7222 9.197C34.9562 9.28367 35.2769 9.38333 35.6842 9.496C36.1955 9.63467 36.6115 9.77333 36.9322 9.912C37.2529 10.042 37.5259 10.2413 37.7512 10.51C37.9852 10.7787 38.1065 11.1297 38.1152 11.563C38.1152 11.953 38.0069 12.304 37.7902 12.616C37.5735 12.928 37.2659 13.175 36.8672 13.357C36.4772 13.5303 36.0265 13.617 35.5152 13.617Z" fill="white"/>
</svg>
