<svg width="155" height="19" viewBox="0 0 155 19" fill="none" xmlns="http://www.w3.org/2000/svg">
<path d="M0.559 8.963C0.559 8.079 0.758333 7.286 1.157 6.584C1.55567 5.87333 2.09733 5.31867 2.782 4.92C3.47533 4.52133 4.24233 4.322 5.083 4.322C6.071 4.322 6.93333 4.56033 7.67 5.037C8.40667 5.51367 8.944 6.18967 9.282 7.065H7.865C7.61367 6.519 7.24967 6.09867 6.773 5.804C6.305 5.50933 5.74167 5.362 5.083 5.362C4.45033 5.362 3.88267 5.50933 3.38 5.804C2.87733 6.09867 2.483 6.519 2.197 7.065C1.911 7.60233 1.768 8.235 1.768 8.963C1.768 9.68233 1.911 10.315 2.197 10.861C2.483 11.3983 2.87733 11.8143 3.38 12.109C3.88267 12.4037 4.45033 12.551 5.083 12.551C5.74167 12.551 6.305 12.408 6.773 12.122C7.24967 11.8273 7.61367 11.407 7.865 10.861H9.282C8.944 11.7277 8.40667 12.3993 7.67 12.876C6.93333 13.344 6.071 13.578 5.083 13.578C4.24233 13.578 3.47533 13.383 2.782 12.993C2.09733 12.5943 1.55567 12.044 1.157 11.342C0.758333 10.64 0.559 9.847 0.559 8.963ZM14.15 13.617C13.4827 13.617 12.876 13.4653 12.33 13.162C11.7927 12.8587 11.368 12.4297 11.056 11.875C10.7527 11.3117 10.601 10.6617 10.601 9.925C10.601 9.197 10.757 8.55567 11.069 8.001C11.3897 7.43767 11.823 7.00867 12.369 6.714C12.915 6.41067 13.526 6.259 14.202 6.259C14.878 6.259 15.489 6.41067 16.035 6.714C16.581 7.00867 17.01 7.43333 17.322 7.988C17.6427 8.54267 17.803 9.18833 17.803 9.925C17.803 10.6617 17.6383 11.3117 17.309 11.875C16.9883 12.4297 16.5507 12.8587 15.996 13.162C15.4413 13.4653 14.826 13.617 14.15 13.617ZM14.15 12.577C14.5747 12.577 14.9733 12.4773 15.346 12.278C15.7187 12.0787 16.0177 11.7797 16.243 11.381C16.477 10.9823 16.594 10.497 16.594 9.925C16.594 9.353 16.4813 8.86767 16.256 8.469C16.0307 8.07033 15.736 7.77567 15.372 7.585C15.008 7.38567 14.6137 7.286 14.189 7.286C13.7557 7.286 13.357 7.38567 12.993 7.585C12.6377 7.77567 12.3517 8.07033 12.135 8.469C11.9183 8.86767 11.81 9.353 11.81 9.925C11.81 10.5057 11.914 10.9953 12.122 11.394C12.3387 11.7927 12.6247 12.0917 12.98 12.291C13.3353 12.4817 13.7253 12.577 14.15 12.577ZM22.8294 6.246C23.6961 6.246 24.3981 6.51033 24.9354 7.039C25.4728 7.559 25.7414 8.313 25.7414 9.301V13.5H24.5714V9.47C24.5714 8.75933 24.3938 8.21767 24.0384 7.845C23.6831 7.46367 23.1978 7.273 22.5824 7.273C21.9584 7.273 21.4601 7.468 21.0874 7.858C20.7234 8.248 20.5414 8.81567 20.5414 9.561V13.5H19.3584V6.376H20.5414V7.39C20.7754 7.026 21.0918 6.74433 21.4904 6.545C21.8978 6.34567 22.3441 6.246 22.8294 6.246ZM27.2319 9.912C27.2319 9.184 27.3792 8.547 27.6739 8.001C27.9685 7.44633 28.3715 7.01733 28.8829 6.714C29.4029 6.41067 29.9835 6.259 30.6249 6.259C31.1795 6.259 31.6952 6.389 32.1719 6.649C32.6485 6.90033 33.0125 7.234 33.2639 7.65V3.88H34.4599V13.5H33.2639V12.161C33.0299 12.5857 32.6832 12.9367 32.2239 13.214C31.7645 13.4827 31.2272 13.617 30.6119 13.617C29.9792 13.617 29.4029 13.461 28.8829 13.149C28.3715 12.837 27.9685 12.3993 27.6739 11.836C27.3792 11.2727 27.2319 10.6313 27.2319 9.912ZM33.2639 9.925C33.2639 9.38767 33.1555 8.91967 32.9389 8.521C32.7222 8.12233 32.4275 7.819 32.0549 7.611C31.6909 7.39433 31.2879 7.286 30.8459 7.286C30.4039 7.286 30.0009 7.39 29.6369 7.598C29.2729 7.806 28.9825 8.10933 28.7659 8.508C28.5492 8.90667 28.4409 9.37467 28.4409 9.912C28.4409 10.458 28.5492 10.9347 28.7659 11.342C28.9825 11.7407 29.2729 12.0483 29.6369 12.265C30.0009 12.473 30.4039 12.577 30.8459 12.577C31.2879 12.577 31.6909 12.473 32.0549 12.265C32.4275 12.0483 32.7222 11.7407 32.9389 11.342C33.1555 10.9347 33.2639 10.4623 33.2639 9.925ZM37.07 5.219C36.8447 5.219 36.654 5.141 36.498 4.985C36.342 4.829 36.264 4.63833 36.264 4.413C36.264 4.18767 36.342 3.997 36.498 3.841C36.654 3.685 36.8447 3.607 37.07 3.607C37.2867 3.607 37.4687 3.685 37.616 3.841C37.772 3.997 37.85 4.18767 37.85 4.413C37.85 4.63833 37.772 4.829 37.616 4.985C37.4687 5.141 37.2867 5.219 37.07 5.219ZM37.642 6.376V13.5H36.459V6.376H37.642ZM41.1012 7.351V11.55C41.1012 11.8967 41.1749 12.1437 41.3222 12.291C41.4696 12.4297 41.7252 12.499 42.0892 12.499H42.9602V13.5H41.8942C41.2356 13.5 40.7416 13.3483 40.4122 13.045C40.0829 12.7417 39.9182 12.2433 39.9182 11.55V7.351H38.9952V6.376H39.9182V4.582H41.1012V6.376H42.9602V7.351H41.1012ZM45.0046 5.219C44.7792 5.219 44.5886 5.141 44.4326 4.985C44.2766 4.829 44.1986 4.63833 44.1986 4.413C44.1986 4.18767 44.2766 3.997 44.4326 3.841C44.5886 3.685 44.7792 3.607 45.0046 3.607C45.2212 3.607 45.4032 3.685 45.5506 3.841C45.7066 3.997 45.7846 4.18767 45.7846 4.413C45.7846 4.63833 45.7066 4.829 45.5506 4.985C45.4032 5.141 45.2212 5.219 45.0046 5.219ZM45.5766 6.376V13.5H44.3936V6.376H45.5766ZM50.6998 13.617C50.0325 13.617 49.4258 13.4653 48.8798 13.162C48.3425 12.8587 47.9178 12.4297 47.6058 11.875C47.3025 11.3117 47.1508 10.6617 47.1508 9.925C47.1508 9.197 47.3068 8.55567 47.6188 8.001C47.9395 7.43767 48.3728 7.00867 48.9188 6.714C49.4648 6.41067 50.0758 6.259 50.7518 6.259C51.4278 6.259 52.0388 6.41067 52.5848 6.714C53.1308 7.00867 53.5598 7.43333 53.8718 7.988C54.1925 8.54267 54.3528 9.18833 54.3528 9.925C54.3528 10.6617 54.1881 11.3117 53.8588 11.875C53.5381 12.4297 53.1005 12.8587 52.5458 13.162C51.9911 13.4653 51.3758 13.617 50.6998 13.617ZM50.6998 12.577C51.1245 12.577 51.5231 12.4773 51.8958 12.278C52.2685 12.0787 52.5675 11.7797 52.7928 11.381C53.0268 10.9823 53.1438 10.497 53.1438 9.925C53.1438 9.353 53.0311 8.86767 52.8058 8.469C52.5805 8.07033 52.2858 7.77567 51.9218 7.585C51.5578 7.38567 51.1635 7.286 50.7388 7.286C50.3055 7.286 49.9068 7.38567 49.5428 7.585C49.1875 7.77567 48.9015 8.07033 48.6848 8.469C48.4681 8.86767 48.3598 9.353 48.3598 9.925C48.3598 10.5057 48.4638 10.9953 48.6718 11.394C48.8885 11.7927 49.1745 12.0917 49.5298 12.291C49.8851 12.4817 50.2751 12.577 50.6998 12.577ZM59.3792 6.246C60.2459 6.246 60.9479 6.51033 61.4852 7.039C62.0226 7.559 62.2912 8.313 62.2912 9.301V13.5H61.1212V9.47C61.1212 8.75933 60.9436 8.21767 60.5882 7.845C60.2329 7.46367 59.7476 7.273 59.1322 7.273C58.5082 7.273 58.0099 7.468 57.6372 7.858C57.2732 8.248 57.0912 8.81567 57.0912 9.561V13.5H55.9082V6.376H57.0912V7.39C57.3252 7.026 57.6416 6.74433 58.0402 6.545C58.4476 6.34567 58.8939 6.246 59.3792 6.246ZM66.7457 13.617C66.1997 13.617 65.71 13.526 65.2767 13.344C64.8433 13.1533 64.501 12.8933 64.2497 12.564C63.9983 12.226 63.8597 11.8403 63.8337 11.407H65.0557C65.0903 11.7623 65.255 12.0527 65.5497 12.278C65.853 12.5033 66.2473 12.616 66.7327 12.616C67.1833 12.616 67.5387 12.5163 67.7987 12.317C68.0587 12.1177 68.1887 11.8663 68.1887 11.563C68.1887 11.251 68.05 11.0213 67.7727 10.874C67.4953 10.718 67.0663 10.5663 66.4857 10.419C65.957 10.2803 65.5237 10.1417 65.1857 10.003C64.8563 9.85567 64.5703 9.64333 64.3277 9.366C64.0937 9.08 63.9767 8.70733 63.9767 8.248C63.9767 7.884 64.085 7.55033 64.3017 7.247C64.5183 6.94367 64.826 6.70533 65.2247 6.532C65.6233 6.35 66.0783 6.259 66.5897 6.259C67.3783 6.259 68.0153 6.45833 68.5007 6.857C68.986 7.25567 69.246 7.80167 69.2807 8.495H68.0977C68.0717 8.12233 67.92 7.82333 67.6427 7.598C67.374 7.37267 67.01 7.26 66.5507 7.26C66.126 7.26 65.788 7.351 65.5367 7.533C65.2853 7.715 65.1597 7.95333 65.1597 8.248C65.1597 8.482 65.2333 8.677 65.3807 8.833C65.5367 8.98033 65.7273 9.10167 65.9527 9.197C66.1867 9.28367 66.5073 9.38333 66.9147 9.496C67.426 9.63467 67.842 9.77333 68.1627 9.912C68.4833 10.042 68.7563 10.2413 68.9817 10.51C69.2157 10.7787 69.337 11.1297 69.3457 11.563C69.3457 11.953 69.2373 12.304 69.0207 12.616C68.804 12.928 68.4963 13.175 68.0977 13.357C67.7077 13.5303 67.257 13.617 66.7457 13.617ZM74.0395 9.912C74.0395 9.184 74.1868 8.547 74.4815 8.001C74.7761 7.44633 75.1791 7.01733 75.6905 6.714C76.2105 6.41067 76.7911 6.259 77.4325 6.259C77.9871 6.259 78.5028 6.389 78.9795 6.649C79.4561 6.90033 79.8201 7.234 80.0715 7.65V3.88H81.2675V13.5H80.0715V12.161C79.8375 12.5857 79.4908 12.9367 79.0315 13.214C78.5721 13.4827 78.0348 13.617 77.4195 13.617C76.7868 13.617 76.2105 13.461 75.6905 13.149C75.1791 12.837 74.7761 12.3993 74.4815 11.836C74.1868 11.2727 74.0395 10.6313 74.0395 9.912ZM80.0715 9.925C80.0715 9.38767 79.9631 8.91967 79.7465 8.521C79.5298 8.12233 79.2351 7.819 78.8625 7.611C78.4985 7.39433 78.0955 7.286 77.6535 7.286C77.2115 7.286 76.8085 7.39 76.4445 7.598C76.0805 7.806 75.7901 8.10933 75.5735 8.508C75.3568 8.90667 75.2485 9.37467 75.2485 9.912C75.2485 10.458 75.3568 10.9347 75.5735 11.342C75.7901 11.7407 76.0805 12.0483 76.4445 12.265C76.8085 12.473 77.2115 12.577 77.6535 12.577C78.0955 12.577 78.4985 12.473 78.8625 12.265C79.2351 12.0483 79.5298 11.7407 79.7465 11.342C79.9631 10.9347 80.0715 10.4623 80.0715 9.925ZM83.4486 4.439H84.7616L83.5136 7.39H82.6816L83.4486 4.439ZM92.4284 6.376V13.5H91.2454V12.447C91.02 12.811 90.7037 13.097 90.2964 13.305C89.8977 13.5043 89.4557 13.604 88.9704 13.604C88.4157 13.604 87.9174 13.4913 87.4754 13.266C87.0334 13.032 86.6824 12.6853 86.4224 12.226C86.171 11.7667 86.0454 11.2077 86.0454 10.549V6.376H87.2154V10.393C87.2154 11.095 87.393 11.6367 87.7484 12.018C88.1037 12.3907 88.589 12.577 89.2044 12.577C89.837 12.577 90.3354 12.382 90.6994 11.992C91.0634 11.602 91.2454 11.0343 91.2454 10.289V6.376H92.4284ZM95.8688 7.351V11.55C95.8688 11.8967 95.9425 12.1437 96.0898 12.291C96.2371 12.4297 96.4928 12.499 96.8568 12.499H97.7278V13.5H96.6618C96.0031 13.5 95.5091 13.3483 95.1798 13.045C94.8505 12.7417 94.6858 12.2433 94.6858 11.55V7.351H93.7628V6.376H94.6858V4.582H95.8688V6.376H97.7278V7.351H95.8688ZM99.7722 5.219C99.5468 5.219 99.3562 5.141 99.2002 4.985C99.0442 4.829 98.9662 4.63833 98.9662 4.413C98.9662 4.18767 99.0442 3.997 99.2002 3.841C99.3562 3.685 99.5468 3.607 99.7722 3.607C99.9888 3.607 100.171 3.685 100.318 3.841C100.474 3.997 100.552 4.18767 100.552 4.413C100.552 4.63833 100.474 4.829 100.318 4.985C100.171 5.141 99.9888 5.219 99.7722 5.219ZM100.344 6.376V13.5H99.1612V6.376H100.344ZM103.543 3.88V13.5H102.36V3.88H103.543ZM106.171 5.219C105.945 5.219 105.755 5.141 105.599 4.985C105.443 4.829 105.365 4.63833 105.365 4.413C105.365 4.18767 105.443 3.997 105.599 3.841C105.755 3.685 105.945 3.607 106.171 3.607C106.387 3.607 106.569 3.685 106.717 3.841C106.873 3.997 106.951 4.18767 106.951 4.413C106.951 4.63833 106.873 4.829 106.717 4.985C106.569 5.141 106.387 5.219 106.171 5.219ZM106.743 6.376V13.5H105.56V6.376H106.743ZM111.281 13.617C110.735 13.617 110.245 13.526 109.812 13.344C109.378 13.1533 109.036 12.8933 108.785 12.564C108.533 12.226 108.395 11.8403 108.369 11.407H109.591C109.625 11.7623 109.79 12.0527 110.085 12.278C110.388 12.5033 110.782 12.616 111.268 12.616C111.718 12.616 112.074 12.5163 112.334 12.317C112.594 12.1177 112.724 11.8663 112.724 11.563C112.724 11.251 112.585 11.0213 112.308 10.874C112.03 10.718 111.601 10.5663 111.021 10.419C110.492 10.2803 110.059 10.1417 109.721 10.003C109.391 9.85567 109.105 9.64333 108.863 9.366C108.629 9.08 108.512 8.70733 108.512 8.248C108.512 7.884 108.62 7.55033 108.837 7.247C109.053 6.94367 109.361 6.70533 109.76 6.532C110.158 6.35 110.613 6.259 111.125 6.259C111.913 6.259 112.55 6.45833 113.036 6.857C113.521 7.25567 113.781 7.80167 113.816 8.495H112.633C112.607 8.12233 112.455 7.82333 112.178 7.598C111.909 7.37267 111.545 7.26 111.086 7.26C110.661 7.26 110.323 7.351 110.072 7.533C109.82 7.715 109.695 7.95333 109.695 8.248C109.695 8.482 109.768 8.677 109.916 8.833C110.072 8.98033 110.262 9.10167 110.488 9.197C110.722 9.28367 111.042 9.38333 111.45 9.496C111.961 9.63467 112.377 9.77333 112.698 9.912C113.018 10.042 113.291 10.2413 113.517 10.51C113.751 10.7787 113.872 11.1297 113.881 11.563C113.881 11.953 113.772 12.304 113.556 12.616C113.339 12.928 113.031 13.175 112.633 13.357C112.243 13.5303 111.792 13.617 111.281 13.617ZM115.109 9.912C115.109 9.184 115.256 8.547 115.551 8.001C115.845 7.44633 116.248 7.01733 116.76 6.714C117.28 6.41067 117.856 6.259 118.489 6.259C119.113 6.259 119.654 6.39333 120.114 6.662C120.573 6.93067 120.915 7.26867 121.141 7.676V6.376H122.337V13.5H121.141V12.174C120.907 12.59 120.556 12.9367 120.088 13.214C119.628 13.4827 119.091 13.617 118.476 13.617C117.843 13.617 117.271 13.461 116.76 13.149C116.248 12.837 115.845 12.3993 115.551 11.836C115.256 11.2727 115.109 10.6313 115.109 9.912ZM121.141 9.925C121.141 9.38767 121.032 8.91967 120.816 8.521C120.599 8.12233 120.304 7.819 119.932 7.611C119.568 7.39433 119.165 7.286 118.723 7.286C118.281 7.286 117.878 7.39 117.514 7.598C117.15 7.806 116.859 8.10933 116.643 8.508C116.426 8.90667 116.318 9.37467 116.318 9.912C116.318 10.458 116.426 10.9347 116.643 11.342C116.859 11.7407 117.15 12.0483 117.514 12.265C117.878 12.473 118.281 12.577 118.723 12.577C119.165 12.577 119.568 12.473 119.932 12.265C120.304 12.0483 120.599 11.7407 120.816 11.342C121.032 10.9347 121.141 10.4623 121.141 9.925ZM125.779 7.351V11.55C125.779 11.8967 125.853 12.1437 126 12.291C126.147 12.4297 126.403 12.499 126.767 12.499H127.638V13.5H126.572C125.913 13.5 125.419 13.3483 125.09 13.045C124.761 12.7417 124.596 12.2433 124.596 11.55V7.351H123.673V6.376H124.596V4.582H125.779V6.376H127.638V7.351H125.779ZM129.682 5.219C129.457 5.219 129.266 5.141 129.11 4.985C128.954 4.829 128.876 4.63833 128.876 4.413C128.876 4.18767 128.954 3.997 129.11 3.841C129.266 3.685 129.457 3.607 129.682 3.607C129.899 3.607 130.081 3.685 130.228 3.841C130.384 3.997 130.462 4.18767 130.462 4.413C130.462 4.63833 130.384 4.829 130.228 4.985C130.081 5.141 129.899 5.219 129.682 5.219ZM130.254 6.376V13.5H129.071V6.376H130.254ZM135.378 13.617C134.71 13.617 134.104 13.4653 133.558 13.162C133.02 12.8587 132.596 12.4297 132.284 11.875C131.98 11.3117 131.829 10.6617 131.829 9.925C131.829 9.197 131.985 8.55567 132.297 8.001C132.617 7.43767 133.051 7.00867 133.597 6.714C134.143 6.41067 134.754 6.259 135.43 6.259C136.106 6.259 136.717 6.41067 137.263 6.714C137.809 7.00867 138.238 7.43333 138.55 7.988C138.87 8.54267 139.031 9.18833 139.031 9.925C139.031 10.6617 138.866 11.3117 138.537 11.875C138.216 12.4297 137.778 12.8587 137.224 13.162C136.669 13.4653 136.054 13.617 135.378 13.617ZM135.378 12.577C135.802 12.577 136.201 12.4773 136.574 12.278C136.946 12.0787 137.245 11.7797 137.471 11.381C137.705 10.9823 137.822 10.497 137.822 9.925C137.822 9.353 137.709 8.86767 137.484 8.469C137.258 8.07033 136.964 7.77567 136.6 7.585C136.236 7.38567 135.841 7.286 135.417 7.286C134.983 7.286 134.585 7.38567 134.221 7.585C133.865 7.77567 133.579 8.07033 133.363 8.469C133.146 8.86767 133.038 9.353 133.038 9.925C133.038 10.5057 133.142 10.9953 133.35 11.394C133.566 11.7927 133.852 12.0917 134.208 12.291C134.563 12.4817 134.953 12.577 135.378 12.577ZM144.057 6.246C144.924 6.246 145.626 6.51033 146.163 7.039C146.7 7.559 146.969 8.313 146.969 9.301V13.5H145.799V9.47C145.799 8.75933 145.621 8.21767 145.266 7.845C144.911 7.46367 144.425 7.273 143.81 7.273C143.186 7.273 142.688 7.468 142.315 7.858C141.951 8.248 141.769 8.81567 141.769 9.561V13.5H140.586V6.376H141.769V7.39C142.003 7.026 142.319 6.74433 142.718 6.545C143.125 6.34567 143.572 6.246 144.057 6.246ZM151.423 13.617C150.877 13.617 150.388 13.526 149.954 13.344C149.521 13.1533 149.179 12.8933 148.927 12.564C148.676 12.226 148.537 11.8403 148.511 11.407H149.733C149.768 11.7623 149.933 12.0527 150.227 12.278C150.531 12.5033 150.925 12.616 151.41 12.616C151.861 12.616 152.216 12.5163 152.476 12.317C152.736 12.1177 152.866 11.8663 152.866 11.563C152.866 11.251 152.728 11.0213 152.45 10.874C152.173 10.718 151.744 10.5663 151.163 10.419C150.635 10.2803 150.201 10.1417 149.863 10.003C149.534 9.85567 149.248 9.64333 149.005 9.366C148.771 9.08 148.654 8.70733 148.654 8.248C148.654 7.884 148.763 7.55033 148.979 7.247C149.196 6.94367 149.504 6.70533 149.902 6.532C150.301 6.35 150.756 6.259 151.267 6.259C152.056 6.259 152.693 6.45833 153.178 6.857C153.664 7.25567 153.924 7.80167 153.958 8.495H152.775C152.749 8.12233 152.598 7.82333 152.32 7.598C152.052 7.37267 151.688 7.26 151.228 7.26C150.804 7.26 150.466 7.351 150.214 7.533C149.963 7.715 149.837 7.95333 149.837 8.248C149.837 8.482 149.911 8.677 150.058 8.833C150.214 8.98033 150.405 9.10167 150.63 9.197C150.864 9.28367 151.185 9.38333 151.592 9.496C152.104 9.63467 152.52 9.77333 152.84 9.912C153.161 10.042 153.434 10.2413 153.659 10.51C153.893 10.7787 154.015 11.1297 154.023 11.563C154.023 11.953 153.915 12.304 153.698 12.616C153.482 12.928 153.174 13.175 152.775 13.357C152.385 13.5303 151.935 13.617 151.423 13.617Z" fill="white"/>
</svg>
