<svg width="49" height="49" viewBox="0 0 49 49" fill="none" xmlns="http://www.w3.org/2000/svg">
<g filter="url(#filter0_d_442_346)">
<rect x="5" y="7" width="33" height="33" rx="16.5" fill="white"/>
<path d="M26.8059 28.0778V22.2897H25.6001C25.7192 22.6648 25.7787 23.0549 25.7787 23.4598C25.7787 24.2101 25.5881 24.9024 25.207 25.5366C24.8259 26.1707 24.3079 26.6724 23.6528 27.0416C22.9978 27.4108 22.2832 27.5954 21.5091 27.5954C20.336 27.5954 19.3326 27.192 18.4989 26.3851C17.6652 25.5782 17.2484 24.6031 17.2484 23.4598C17.2484 23.0549 17.3079 22.6648 17.427 22.2897H16.1676V28.0778C16.1676 28.2326 16.2197 28.3621 16.3239 28.4663C16.4281 28.5706 16.5576 28.6227 16.7124 28.6227H26.261C26.4099 28.6227 26.5379 28.5706 26.6451 28.4663C26.7523 28.3621 26.8059 28.2326 26.8059 28.0778ZM23.4608 25.2061C23.4608 25.2061 23.5955 25.0758 23.865 24.8153C24.1344 24.5547 24.2691 24.0553 24.2691 23.3169C24.2691 22.5785 23.9997 21.9487 23.4608 21.4277C22.9219 20.9066 22.2713 20.6461 21.5091 20.6461C20.7528 20.6461 20.1052 20.9066 19.5663 21.4277C19.0274 21.9487 18.7579 22.5785 18.7579 23.3169C18.7579 24.0553 19.0274 24.685 19.5663 25.2061C20.1052 25.7271 20.7528 25.9876 21.5091 25.9876C22.2713 25.9876 22.9219 25.7271 23.4608 25.2061ZM26.8059 20.1013V18.6274C26.8059 18.4607 26.7464 18.3163 26.6273 18.1942C26.5082 18.0721 26.3623 18.0111 26.1896 18.0111H24.6354C24.4627 18.0111 24.3168 18.0721 24.1977 18.1942C24.0786 18.3163 24.019 18.4607 24.019 18.6274V20.1013C24.019 20.2739 24.0786 20.4198 24.1977 20.5389C24.3168 20.658 24.4627 20.7176 24.6354 20.7176H26.1896C26.3623 20.7176 26.5082 20.658 26.6273 20.5389C26.7464 20.4198 26.8059 20.2739 26.8059 20.1013ZM28.3601 18.2433V28.444C28.3601 28.9264 28.1874 29.3402 27.8421 29.6856C27.4967 30.031 27.0828 30.2037 26.6005 30.2037H16.3998C15.9175 30.2037 15.5036 30.031 15.1582 29.6856C14.8128 29.3402 14.6401 28.9264 14.6401 28.444V18.2433C14.6401 17.761 14.8128 17.3471 15.1582 17.0017C15.5036 16.6564 15.9175 16.4837 16.3998 16.4837H26.6005C27.0828 16.4837 27.4967 16.6564 27.8421 17.0017C28.1874 17.3471 28.3601 17.761 28.3601 18.2433Z" fill="#534788"/>
</g>
<defs>
<filter id="filter0_d_442_346" x="0" y="0" width="49" height="49" filterUnits="userSpaceOnUse" color-interpolation-filters="sRGB">
<feFlood flood-opacity="0" result="BackgroundImageFix"/>
<feColorMatrix in="SourceAlpha" type="matrix" values="0 0 0 0 0 0 0 0 0 0 0 0 0 0 0 0 0 0 127 0" result="hardAlpha"/>
<feOffset dx="3" dy="1"/>
<feGaussianBlur stdDeviation="4"/>
<feComposite in2="hardAlpha" operator="out"/>
<feColorMatrix type="matrix" values="0 0 0 0 0 0 0 0 0 0 0 0 0 0 0 0 0 0 0.08 0"/>
<feBlend mode="normal" in2="BackgroundImageFix" result="effect1_dropShadow_442_346"/>
<feBlend mode="normal" in="SourceGraphic" in2="effect1_dropShadow_442_346" result="shape"/>
</filter>
</defs>
</svg>
