<svg width="270" height="48" viewBox="0 0 270 48" fill="none" xmlns="http://www.w3.org/2000/svg">
<path d="M2.52 18.545V29H1.155V18.545H2.52ZM12.8164 29H11.4514L5.96141 20.675V29H4.59641V18.53H5.96141L11.4514 26.84V18.53H12.8164V29ZM20.8033 18.545V19.655H16.2583V23.18H19.9483V24.29H16.2583V29H14.8933V18.545H20.8033ZM26.9419 29.105C25.9719 29.105 25.0869 28.88 24.2869 28.43C23.4869 27.97 22.8519 27.335 22.3819 26.525C21.9219 25.705 21.6919 24.785 21.6919 23.765C21.6919 22.745 21.9219 21.83 22.3819 21.02C22.8519 20.2 23.4869 19.565 24.2869 19.115C25.0869 18.655 25.9719 18.425 26.9419 18.425C27.9219 18.425 28.8119 18.655 29.6119 19.115C30.4119 19.565 31.0419 20.195 31.5019 21.005C31.9619 21.815 32.1919 22.735 32.1919 23.765C32.1919 24.795 31.9619 25.715 31.5019 26.525C31.0419 27.335 30.4119 27.97 29.6119 28.43C28.8119 28.88 27.9219 29.105 26.9419 29.105ZM26.9419 27.92C27.6719 27.92 28.3269 27.75 28.9069 27.41C29.4969 27.07 29.9569 26.585 30.2869 25.955C30.6269 25.325 30.7969 24.595 30.7969 23.765C30.7969 22.925 30.6269 22.195 30.2869 21.575C29.9569 20.945 29.5019 20.46 28.9219 20.12C28.3419 19.78 27.6819 19.61 26.9419 19.61C26.2019 19.61 25.5419 19.78 24.9619 20.12C24.3819 20.46 23.9219 20.945 23.5819 21.575C23.2519 22.195 23.0869 22.925 23.0869 23.765C23.0869 24.595 23.2519 25.325 23.5819 25.955C23.9219 26.585 24.3819 27.07 24.9619 27.41C25.5519 27.75 26.2119 27.92 26.9419 27.92ZM39.2489 29L36.7589 24.725H35.1089V29H33.7439V18.545H37.1189C37.9089 18.545 38.5739 18.68 39.1139 18.95C39.6639 19.22 40.0739 19.585 40.3439 20.045C40.6139 20.505 40.7489 21.03 40.7489 21.62C40.7489 22.34 40.5389 22.975 40.1189 23.525C39.7089 24.075 39.0889 24.44 38.2589 24.62L40.8839 29H39.2489ZM35.1089 23.63H37.1189C37.8589 23.63 38.4139 23.45 38.7839 23.09C39.1539 22.72 39.3389 22.23 39.3389 21.62C39.3389 21 39.1539 20.52 38.7839 20.18C38.4239 19.84 37.8689 19.67 37.1189 19.67H35.1089V23.63ZM53.2248 18.62V29H51.8598V21.26L48.4098 29H47.4498L43.9848 21.245V29H42.6198V18.62H44.0898L47.9298 27.2L51.7698 18.62H53.2248ZM61.4698 26.675H56.9098L56.0698 29H54.6298L58.4098 18.605H59.9848L63.7498 29H62.3098L61.4698 26.675ZM61.0798 25.565L59.1898 20.285L57.2998 25.565H61.0798ZM71.5822 18.545V19.655H68.7322V29H67.3672V19.655H64.5022V18.545H71.5822ZM74.3774 18.545V29H73.0124V18.545H74.3774ZM81.1938 29.105C80.2238 29.105 79.3388 28.88 78.5388 28.43C77.7388 27.97 77.1038 27.335 76.6338 26.525C76.1738 25.705 75.9438 24.785 75.9438 23.765C75.9438 22.745 76.1738 21.83 76.6338 21.02C77.1038 20.2 77.7388 19.565 78.5388 19.115C79.3388 18.655 80.2238 18.425 81.1938 18.425C82.1738 18.425 83.0638 18.655 83.8638 19.115C84.6638 19.565 85.2938 20.195 85.7538 21.005C86.2138 21.815 86.4438 22.735 86.4438 23.765C86.4438 24.795 86.2138 25.715 85.7538 26.525C85.2938 27.335 84.6638 27.97 83.8638 28.43C83.0638 28.88 82.1738 29.105 81.1938 29.105ZM81.1938 27.92C81.9238 27.92 82.5788 27.75 83.1588 27.41C83.7488 27.07 84.2088 26.585 84.5388 25.955C84.8788 25.325 85.0488 24.595 85.0488 23.765C85.0488 22.925 84.8788 22.195 84.5388 21.575C84.2088 20.945 83.7538 20.46 83.1738 20.12C82.5938 19.78 81.9338 19.61 81.1938 19.61C80.4538 19.61 79.7938 19.78 79.2138 20.12C78.6338 20.46 78.1738 20.945 77.8338 21.575C77.5038 22.195 77.3388 22.925 77.3388 23.765C77.3388 24.595 77.5038 25.325 77.8338 25.955C78.1738 26.585 78.6338 27.07 79.2138 27.41C79.8038 27.75 80.4638 27.92 81.1938 27.92ZM96.2158 29H94.8508L89.3608 20.675V29H87.9958V18.53H89.3608L94.8508 26.84V18.53H96.2158V29ZM101.608 29.105C100.918 29.105 100.298 28.985 99.7477 28.745C99.2077 28.495 98.7827 28.155 98.4727 27.725C98.1627 27.285 98.0027 26.78 97.9927 26.21H99.4477C99.4977 26.7 99.6977 27.115 100.048 27.455C100.408 27.785 100.928 27.95 101.608 27.95C102.258 27.95 102.768 27.79 103.138 27.47C103.518 27.14 103.708 26.72 103.708 26.21C103.708 25.81 103.598 25.485 103.378 25.235C103.158 24.985 102.883 24.795 102.553 24.665C102.223 24.535 101.778 24.395 101.218 24.245C100.528 24.065 99.9727 23.885 99.5527 23.705C99.1427 23.525 98.7877 23.245 98.4877 22.865C98.1977 22.475 98.0527 21.955 98.0527 21.305C98.0527 20.735 98.1977 20.23 98.4877 19.79C98.7777 19.35 99.1827 19.01 99.7027 18.77C100.233 18.53 100.838 18.41 101.518 18.41C102.498 18.41 103.298 18.655 103.918 19.145C104.548 19.635 104.903 20.285 104.983 21.095H103.483C103.433 20.695 103.223 20.345 102.853 20.045C102.483 19.735 101.993 19.58 101.383 19.58C100.813 19.58 100.348 19.73 99.9877 20.03C99.6277 20.32 99.4477 20.73 99.4477 21.26C99.4477 21.64 99.5527 21.95 99.7627 22.19C99.9827 22.43 100.248 22.615 100.558 22.745C100.878 22.865 101.323 23.005 101.893 23.165C102.583 23.355 103.138 23.545 103.558 23.735C103.978 23.915 104.338 24.2 104.638 24.59C104.938 24.97 105.088 25.49 105.088 26.15C105.088 26.66 104.953 27.14 104.683 27.59C104.413 28.04 104.013 28.405 103.483 28.685C102.953 28.965 102.328 29.105 101.608 29.105Z" fill="white"/>
</svg>
