<svg width="270" height="44" viewBox="0 0 270 44" fill="none" xmlns="http://www.w3.org/2000/svg">
<mask id="path-1-inside-1_442_340" fill="white">
<path d="M0 16C0 7.16344 7.16344 0 16 0H254C262.837 0 270 7.16344 270 16V28C270 36.8366 262.837 44 254 44H16C7.16344 44 0 36.8366 0 28V16Z"/>
</mask>
<path d="M0 16C0 7.16344 7.16344 0 16 0H254C262.837 0 270 7.16344 270 16V28C270 36.8366 262.837 44 254 44H16C7.16344 44 0 36.8366 0 28V16Z" fill="white"/>
<path d="M16 0V1H254V0V-1H16V0ZM270 16H269V28H270H271V16H270ZM254 44V43H16V44V45H254V44ZM0 28H1V16H0H-1V28H0ZM16 44V43C7.71572 43 1 36.2843 1 28H0H-1C-1 37.3888 6.61115 45 16 45V44ZM270 28H269C269 36.2843 262.284 43 254 43V44V45C263.389 45 271 37.3888 271 28H270ZM254 0V1C262.284 1 269 7.71573 269 16H270H271C271 6.61116 263.389 -1 254 -1V0ZM16 0V-1C6.61116 -1 -1 6.61116 -1 16H0H1C1 7.71573 7.71573 1 16 1V0Z" fill="#534788" mask="url(#path-1-inside-1_442_340)"/>
</svg>
