<svg width="270" height="48" viewBox="0 0 270 48" fill="none" xmlns="http://www.w3.org/2000/svg">
<path d="M4.47 29.105C3.78 29.105 3.16 28.985 2.61 28.745C2.07 28.495 1.645 28.155 1.335 27.725C1.025 27.285 0.865 26.78 0.855 26.21H2.31C2.36 26.7 2.56 27.115 2.91 27.455C3.27 27.785 3.79 27.95 4.47 27.95C5.12 27.95 5.63 27.79 6 27.47C6.38 27.14 6.57 26.72 6.57 26.21C6.57 25.81 6.46 25.485 6.24 25.235C6.02 24.985 5.745 24.795 5.415 24.665C5.085 24.535 4.64 24.395 4.08 24.245C3.39 24.065 2.835 23.885 2.415 23.705C2.005 23.525 1.65 23.245 1.35 22.865C1.06 22.475 0.915 21.955 0.915 21.305C0.915 20.735 1.06 20.23 1.35 19.79C1.64 19.35 2.045 19.01 2.565 18.77C3.095 18.53 3.7 18.41 4.38 18.41C5.36 18.41 6.16 18.655 6.78 19.145C7.41 19.635 7.765 20.285 7.845 21.095H6.345C6.295 20.695 6.085 20.345 5.715 20.045C5.345 19.735 4.855 19.58 4.245 19.58C3.675 19.58 3.21 19.73 2.85 20.03C2.49 20.32 2.31 20.73 2.31 21.26C2.31 21.64 2.415 21.95 2.625 22.19C2.845 22.43 3.11 22.615 3.42 22.745C3.74 22.865 4.185 23.005 4.755 23.165C5.445 23.355 6 23.545 6.42 23.735C6.84 23.915 7.2 24.2 7.5 24.59C7.8 24.97 7.95 25.49 7.95 26.15C7.95 26.66 7.815 27.14 7.545 27.59C7.275 28.04 6.875 28.405 6.345 28.685C5.815 28.965 5.19 29.105 4.47 29.105ZM10.3987 17.06L10.2187 20.045H9.27371L9.07871 17.06H10.3987ZM13.2114 18.545V29H11.8464V18.545H13.2114ZM23.5078 29H22.1428L16.6528 20.675V29H15.2878V18.53H16.6528L22.1428 26.84V18.53H23.5078V29ZM28.8997 29.105C28.2097 29.105 27.5897 28.985 27.0397 28.745C26.4997 28.495 26.0747 28.155 25.7647 27.725C25.4547 27.285 25.2947 26.78 25.2847 26.21H26.7397C26.7897 26.7 26.9897 27.115 27.3397 27.455C27.6997 27.785 28.2197 27.95 28.8997 27.95C29.5497 27.95 30.0597 27.79 30.4297 27.47C30.8097 27.14 30.9997 26.72 30.9997 26.21C30.9997 25.81 30.8897 25.485 30.6697 25.235C30.4497 24.985 30.1747 24.795 29.8447 24.665C29.5147 24.535 29.0697 24.395 28.5097 24.245C27.8197 24.065 27.2647 23.885 26.8447 23.705C26.4347 23.525 26.0797 23.245 25.7797 22.865C25.4897 22.475 25.3447 21.955 25.3447 21.305C25.3447 20.735 25.4897 20.23 25.7797 19.79C26.0697 19.35 26.4747 19.01 26.9947 18.77C27.5247 18.53 28.1297 18.41 28.8097 18.41C29.7897 18.41 30.5897 18.655 31.2097 19.145C31.8397 19.635 32.1947 20.285 32.2747 21.095H30.7747C30.7247 20.695 30.5147 20.345 30.1447 20.045C29.7747 19.735 29.2847 19.58 28.6747 19.58C28.1047 19.58 27.6397 19.73 27.2797 20.03C26.9197 20.32 26.7397 20.73 26.7397 21.26C26.7397 21.64 26.8447 21.95 27.0547 22.19C27.2747 22.43 27.5397 22.615 27.8497 22.745C28.1697 22.865 28.6147 23.005 29.1847 23.165C29.8747 23.355 30.4297 23.545 30.8497 23.735C31.2697 23.915 31.6297 24.2 31.9297 24.59C32.2297 24.97 32.3797 25.49 32.3797 26.15C32.3797 26.66 32.2447 27.14 31.9747 27.59C31.7047 28.04 31.3047 28.405 30.7747 28.685C30.2447 28.965 29.6197 29.105 28.8997 29.105ZM33.6284 23.765C33.6284 22.745 33.8584 21.83 34.3184 21.02C34.7784 20.2 35.4034 19.56 36.1934 19.1C36.9934 18.64 37.8784 18.41 38.8484 18.41C39.9884 18.41 40.9834 18.685 41.8334 19.235C42.6834 19.785 43.3034 20.565 43.6934 21.575H42.0584C41.7684 20.945 41.3484 20.46 40.7984 20.12C40.2584 19.78 39.6084 19.61 38.8484 19.61C38.1184 19.61 37.4634 19.78 36.8834 20.12C36.3034 20.46 35.8484 20.945 35.5184 21.575C35.1884 22.195 35.0234 22.925 35.0234 23.765C35.0234 24.595 35.1884 25.325 35.5184 25.955C35.8484 26.575 36.3034 27.055 36.8834 27.395C37.4634 27.735 38.1184 27.905 38.8484 27.905C39.6084 27.905 40.2584 27.74 40.7984 27.41C41.3484 27.07 41.7684 26.585 42.0584 25.955H43.6934C43.3034 26.955 42.6834 27.73 41.8334 28.28C40.9834 28.82 39.9884 29.09 38.8484 29.09C37.8784 29.09 36.9934 28.865 36.1934 28.415C35.4034 27.955 34.7784 27.32 34.3184 26.51C33.8584 25.7 33.6284 24.785 33.6284 23.765ZM50.9803 29L48.4903 24.725H46.8403V29H45.4753V18.545H48.8503C49.6403 18.545 50.3053 18.68 50.8453 18.95C51.3953 19.22 51.8053 19.585 52.0753 20.045C52.3453 20.505 52.4803 21.03 52.4803 21.62C52.4803 22.34 52.2703 22.975 51.8503 23.525C51.4403 24.075 50.8203 24.44 49.9903 24.62L52.6153 29H50.9803ZM46.8403 23.63H48.8503C49.5903 23.63 50.1453 23.45 50.5153 23.09C50.8853 22.72 51.0703 22.23 51.0703 21.62C51.0703 21 50.8853 20.52 50.5153 20.18C50.1553 19.84 49.6003 19.67 48.8503 19.67H46.8403V23.63ZM55.7163 18.545V29H54.3513V18.545H55.7163ZM63.2977 29L60.8077 24.725H59.1577V29H57.7927V18.545H61.1677C61.9577 18.545 62.6227 18.68 63.1627 18.95C63.7127 19.22 64.1227 19.585 64.3927 20.045C64.6627 20.505 64.7977 21.03 64.7977 21.62C64.7977 22.34 64.5877 22.975 64.1677 23.525C63.7577 24.075 63.1377 24.44 62.3077 24.62L64.9327 29H63.2977ZM59.1577 23.63H61.1677C61.9077 23.63 62.4627 23.45 62.8327 23.09C63.2027 22.72 63.3877 22.23 63.3877 21.62C63.3877 21 63.2027 20.52 62.8327 20.18C62.4727 19.84 61.9177 19.67 61.1677 19.67H59.1577V23.63ZM68.0337 19.655V23.15H71.8437V24.275H68.0337V27.875H72.2937V29H66.6687V18.53H72.2937V19.655H68.0337ZM84.0381 26.675H79.4781L78.6381 29H77.1981L80.9781 18.605H82.5531L86.3181 29H84.8781L84.0381 26.675ZM83.6481 25.565L81.7581 20.285L79.8681 25.565H83.6481ZM83.2281 16.97V17.99L80.0331 16.28V15.095L83.2281 16.97ZM92.8296 27.89H96.4896V29H91.4646V18.545H92.8296V27.89ZM103.869 26.675H99.3092L98.4692 29H97.0292L100.809 18.605H102.384L106.149 29H104.709L103.869 26.675ZM103.479 25.565L101.589 20.285L99.6992 25.565H103.479ZM119.516 29H118.151L112.661 20.675V29H111.296V18.53H112.661L118.151 26.84V18.53H119.516V29ZM122.958 19.655V23.15H126.768V24.275H122.958V27.875H127.218V29H121.593V18.53H127.218V19.655H122.958ZM142.173 18.545L139.143 29H137.613L135.183 20.585L132.663 29L131.148 29.015L128.223 18.545H129.678L131.958 27.41L134.478 18.545H136.008L138.408 27.38L140.703 18.545H142.173ZM146.732 29.105C146.042 29.105 145.422 28.985 144.872 28.745C144.332 28.495 143.907 28.155 143.597 27.725C143.287 27.285 143.127 26.78 143.117 26.21H144.572C144.622 26.7 144.822 27.115 145.172 27.455C145.532 27.785 146.052 27.95 146.732 27.95C147.382 27.95 147.892 27.79 148.262 27.47C148.642 27.14 148.832 26.72 148.832 26.21C148.832 25.81 148.722 25.485 148.502 25.235C148.282 24.985 148.007 24.795 147.677 24.665C147.347 24.535 146.902 24.395 146.342 24.245C145.652 24.065 145.097 23.885 144.677 23.705C144.267 23.525 143.912 23.245 143.612 22.865C143.322 22.475 143.177 21.955 143.177 21.305C143.177 20.735 143.322 20.23 143.612 19.79C143.902 19.35 144.307 19.01 144.827 18.77C145.357 18.53 145.962 18.41 146.642 18.41C147.622 18.41 148.422 18.655 149.042 19.145C149.672 19.635 150.027 20.285 150.107 21.095H148.607C148.557 20.695 148.347 20.345 147.977 20.045C147.607 19.735 147.117 19.58 146.507 19.58C145.937 19.58 145.472 19.73 145.112 20.03C144.752 20.32 144.572 20.73 144.572 21.26C144.572 21.64 144.677 21.95 144.887 22.19C145.107 22.43 145.372 22.615 145.682 22.745C146.002 22.865 146.447 23.005 147.017 23.165C147.707 23.355 148.262 23.545 148.682 23.735C149.102 23.915 149.462 24.2 149.762 24.59C150.062 24.97 150.212 25.49 150.212 26.15C150.212 26.66 150.077 27.14 149.807 27.59C149.537 28.04 149.137 28.405 148.607 28.685C148.077 28.965 147.452 29.105 146.732 29.105ZM153.335 27.89H156.995V29H151.97V18.545H153.335V27.89ZM159.56 19.655V23.15H163.37V24.275H159.56V27.875H163.82V29H158.195V18.53H163.82V19.655H159.56ZM172.07 18.545V19.655H169.22V29H167.855V19.655H164.99V18.545H172.07ZM179.936 18.545V19.655H177.086V29H175.721V19.655H172.856V18.545H179.936ZM182.731 19.655V23.15H186.541V24.275H182.731V27.875H186.991V29H181.366V18.53H186.991V19.655H182.731ZM194.311 29L191.821 24.725H190.171V29H188.806V18.545H192.181C192.971 18.545 193.636 18.68 194.176 18.95C194.726 19.22 195.136 19.585 195.406 20.045C195.676 20.505 195.811 21.03 195.811 21.62C195.811 22.34 195.601 22.975 195.181 23.525C194.771 24.075 194.151 24.44 193.321 24.62L195.946 29H194.311ZM190.171 23.63H192.181C192.921 23.63 193.476 23.45 193.846 23.09C194.216 22.72 194.401 22.23 194.401 21.62C194.401 21 194.216 20.52 193.846 20.18C193.486 19.84 192.931 19.67 192.181 19.67H190.171V23.63Z" fill="white"/>
</svg>
