<svg width="270" height="104" viewBox="0 0 270 104" fill="none" xmlns="http://www.w3.org/2000/svg">
<path d="M8.489 8.939L5.07 18H3.705L0.286 8.939H1.547L4.394 16.752L7.241 8.939H8.489ZM12.8932 18.117C12.2258 18.117 11.6192 17.9653 11.0732 17.662C10.5358 17.3587 10.1112 16.9297 9.79916 16.375C9.49582 15.8117 9.34416 15.1617 9.34416 14.425C9.34416 13.697 9.50016 13.0557 9.81216 12.501C10.1328 11.9377 10.5662 11.5087 11.1122 11.214C11.6582 10.9107 12.2692 10.759 12.9452 10.759C13.6212 10.759 14.2322 10.9107 14.7782 11.214C15.3242 11.5087 15.7532 11.9333 16.0652 12.488C16.3858 13.0427 16.5462 13.6883 16.5462 14.425C16.5462 15.1617 16.3815 15.8117 16.0522 16.375C15.7315 16.9297 15.2938 17.3587 14.7392 17.662C14.1845 17.9653 13.5692 18.117 12.8932 18.117ZM12.8932 17.077C13.3178 17.077 13.7165 16.9773 14.0892 16.778C14.4618 16.5787 14.7608 16.2797 14.9862 15.881C15.2202 15.4823 15.3372 14.997 15.3372 14.425C15.3372 13.853 15.2245 13.3677 14.9992 12.969C14.7738 12.5703 14.4792 12.2757 14.1152 12.085C13.7512 11.8857 13.3568 11.786 12.9322 11.786C12.4988 11.786 12.1002 11.8857 11.7362 12.085C11.3808 12.2757 11.0948 12.5703 10.8782 12.969C10.6615 13.3677 10.5532 13.853 10.5532 14.425C10.5532 15.0057 10.6572 15.4953 10.8652 15.894C11.0818 16.2927 11.3678 16.5917 11.7232 16.791C12.0785 16.9817 12.4685 17.077 12.8932 17.077ZM24.4196 10.876V18H23.2366V16.947C23.0113 17.311 22.6949 17.597 22.2876 17.805C21.8889 18.0043 21.4469 18.104 20.9616 18.104C20.4069 18.104 19.9086 17.9913 19.4666 17.766C19.0246 17.532 18.6736 17.1853 18.4136 16.726C18.1623 16.2667 18.0366 15.7077 18.0366 15.049V10.876H19.2066V14.893C19.2066 15.595 19.3843 16.1367 19.7396 16.518C20.0949 16.8907 20.5803 17.077 21.1956 17.077C21.8283 17.077 22.3266 16.882 22.6906 16.492C23.0546 16.102 23.2366 15.5343 23.2366 14.789V10.876H24.4196ZM28.939 18.117C28.393 18.117 27.9033 18.026 27.47 17.844C27.0367 17.6533 26.6943 17.3933 26.443 17.064C26.1917 16.726 26.053 16.3403 26.027 15.907H27.249C27.2837 16.2623 27.4483 16.5527 27.743 16.778C28.0463 17.0033 28.4407 17.116 28.926 17.116C29.3767 17.116 29.732 17.0163 29.992 16.817C30.252 16.6177 30.382 16.3663 30.382 16.063C30.382 15.751 30.2433 15.5213 29.966 15.374C29.6887 15.218 29.2597 15.0663 28.679 14.919C28.1503 14.7803 27.717 14.6417 27.379 14.503C27.0497 14.3557 26.7637 14.1433 26.521 13.866C26.287 13.58 26.17 13.2073 26.17 12.748C26.17 12.384 26.2783 12.0503 26.495 11.747C26.7117 11.4437 27.0193 11.2053 27.418 11.032C27.8167 10.85 28.2717 10.759 28.783 10.759C29.5717 10.759 30.2087 10.9583 30.694 11.357C31.1793 11.7557 31.4393 12.3017 31.474 12.995H30.291C30.265 12.6223 30.1133 12.3233 29.836 12.098C29.5673 11.8727 29.2033 11.76 28.744 11.76C28.3193 11.76 27.9813 11.851 27.73 12.033C27.4787 12.215 27.353 12.4533 27.353 12.748C27.353 12.982 27.4267 13.177 27.574 13.333C27.73 13.4803 27.9207 13.6017 28.146 13.697C28.38 13.7837 28.7007 13.8833 29.108 13.996C29.6193 14.1347 30.0353 14.2733 30.356 14.412C30.6767 14.542 30.9497 14.7413 31.175 15.01C31.409 15.2787 31.5303 15.6297 31.539 16.063C31.539 16.453 31.4307 16.804 31.214 17.116C30.9973 17.428 30.6897 17.675 30.291 17.857C29.901 18.0303 29.4503 18.117 28.939 18.117ZM37.8578 12.189C38.0918 11.7817 38.4385 11.4437 38.8978 11.175C39.3658 10.8977 39.9075 10.759 40.5228 10.759C41.1555 10.759 41.7275 10.9107 42.2388 11.214C42.7588 11.5173 43.1662 11.9463 43.4608 12.501C43.7555 13.047 43.9028 13.684 43.9028 14.412C43.9028 15.1313 43.7555 15.7727 43.4608 16.336C43.1662 16.8993 42.7588 17.337 42.2388 17.649C41.7275 17.961 41.1555 18.117 40.5228 18.117C39.9162 18.117 39.3788 17.9827 38.9108 17.714C38.4515 17.4367 38.1005 17.0943 37.8578 16.687V21.38H36.6748V10.876H37.8578V12.189ZM42.6938 14.412C42.6938 13.8747 42.5855 13.4067 42.3688 13.008C42.1522 12.6093 41.8575 12.306 41.4848 12.098C41.1208 11.89 40.7178 11.786 40.2758 11.786C39.8425 11.786 39.4395 11.8943 39.0668 12.111C38.7028 12.319 38.4082 12.6267 38.1828 13.034C37.9662 13.4327 37.8578 13.8963 37.8578 14.425C37.8578 14.9623 37.9662 15.4347 38.1828 15.842C38.4082 16.2407 38.7028 16.5483 39.0668 16.765C39.4395 16.973 39.8425 17.077 40.2758 17.077C40.7178 17.077 41.1208 16.973 41.4848 16.765C41.8575 16.5483 42.1522 16.2407 42.3688 15.842C42.5855 15.4347 42.6938 14.958 42.6938 14.412ZM48.567 18.117C47.8997 18.117 47.293 17.9653 46.747 17.662C46.2097 17.3587 45.785 16.9297 45.473 16.375C45.1697 15.8117 45.018 15.1617 45.018 14.425C45.018 13.697 45.174 13.0557 45.486 12.501C45.8067 11.9377 46.24 11.5087 46.786 11.214C47.332 10.9107 47.943 10.759 48.619 10.759C49.295 10.759 49.906 10.9107 50.452 11.214C50.998 11.5087 51.427 11.9333 51.739 12.488C52.0597 13.0427 52.22 13.6883 52.22 14.425C52.22 15.1617 52.0553 15.8117 51.726 16.375C51.4053 16.9297 50.9677 17.3587 50.413 17.662C49.8583 17.9653 49.243 18.117 48.567 18.117ZM48.567 17.077C48.9917 17.077 49.3903 16.9773 49.763 16.778C50.1357 16.5787 50.4347 16.2797 50.66 15.881C50.894 15.4823 51.011 14.997 51.011 14.425C51.011 13.853 50.8983 13.3677 50.673 12.969C50.4477 12.5703 50.153 12.2757 49.789 12.085C49.425 11.8857 49.0307 11.786 48.606 11.786C48.1727 11.786 47.774 11.8857 47.41 12.085C47.0547 12.2757 46.7687 12.5703 46.552 12.969C46.3353 13.3677 46.227 13.853 46.227 14.425C46.227 15.0057 46.331 15.4953 46.539 15.894C46.7557 16.2927 47.0417 16.5917 47.397 16.791C47.7523 16.9817 48.1423 17.077 48.567 17.077ZM60.0934 10.876V18H58.9104V16.947C58.6851 17.311 58.3687 17.597 57.9614 17.805C57.5627 18.0043 57.1207 18.104 56.6354 18.104C56.0807 18.104 55.5824 17.9913 55.1404 17.766C54.6984 17.532 54.3474 17.1853 54.0874 16.726C53.8361 16.2667 53.7104 15.7077 53.7104 15.049V10.876H54.8804V14.893C54.8804 15.595 55.0581 16.1367 55.4134 16.518C55.7687 16.8907 56.2541 17.077 56.8694 17.077C57.5021 17.077 58.0004 16.882 58.3644 16.492C58.7284 16.102 58.9104 15.5343 58.9104 14.789V10.876H60.0934ZM64.7428 16.908L66.9528 10.876H68.2138L65.4188 18H64.0408L61.2458 10.876H62.5198L64.7428 16.908ZM75.878 14.165C75.878 14.3903 75.865 14.6287 75.839 14.88H70.145C70.1883 15.582 70.4266 16.1323 70.86 16.531C71.302 16.921 71.835 17.116 72.459 17.116C72.9703 17.116 73.395 16.999 73.733 16.765C74.0796 16.5223 74.3223 16.2017 74.461 15.803H75.735C75.5443 16.4877 75.163 17.0467 74.591 17.48C74.019 17.9047 73.3083 18.117 72.459 18.117C71.783 18.117 71.1763 17.9653 70.639 17.662C70.1103 17.3587 69.6943 16.9297 69.391 16.375C69.0876 15.8117 68.936 15.1617 68.936 14.425C68.936 13.6883 69.0833 13.0427 69.378 12.488C69.6726 11.9333 70.0843 11.5087 70.613 11.214C71.1503 10.9107 71.7656 10.759 72.459 10.759C73.135 10.759 73.733 10.9063 74.253 11.201C74.773 11.4957 75.1716 11.903 75.449 12.423C75.735 12.9343 75.878 13.515 75.878 14.165ZM74.656 13.918C74.656 13.4673 74.5563 13.0817 74.357 12.761C74.1576 12.4317 73.8846 12.1847 73.538 12.02C73.2 11.8467 72.823 11.76 72.407 11.76C71.809 11.76 71.2976 11.9507 70.873 12.332C70.457 12.7133 70.2186 13.242 70.158 13.918H74.656ZM78.3235 17.025H81.8205V18H76.9715V17.025L80.4295 11.838H76.9975V10.876H81.7945V11.838L78.3235 17.025ZM89.4733 16.908L91.6833 10.876H92.9443L90.1493 18H88.7713L85.9763 10.876H87.2503L89.4733 16.908ZM97.2154 18.117C96.5481 18.117 95.9414 17.9653 95.3954 17.662C94.8581 17.3587 94.4334 16.9297 94.1214 16.375C93.8181 15.8117 93.6664 15.1617 93.6664 14.425C93.6664 13.697 93.8224 13.0557 94.1344 12.501C94.4551 11.9377 94.8884 11.5087 95.4344 11.214C95.9804 10.9107 96.5914 10.759 97.2674 10.759C97.9434 10.759 98.5544 10.9107 99.1004 11.214C99.6464 11.5087 100.075 11.9333 100.387 12.488C100.708 13.0427 100.868 13.6883 100.868 14.425C100.868 15.1617 100.704 15.8117 100.374 16.375C100.054 16.9297 99.6161 17.3587 99.0614 17.662C98.5068 17.9653 97.8914 18.117 97.2154 18.117ZM97.2154 17.077C97.6401 17.077 98.0388 16.9773 98.4114 16.778C98.7841 16.5787 99.0831 16.2797 99.3084 15.881C99.5424 15.4823 99.6594 14.997 99.6594 14.425C99.6594 13.853 99.5468 13.3677 99.3214 12.969C99.0961 12.5703 98.8014 12.2757 98.4374 12.085C98.0734 11.8857 97.6791 11.786 97.2544 11.786C96.8211 11.786 96.4224 11.8857 96.0584 12.085C95.7031 12.2757 95.4171 12.5703 95.2004 12.969C94.9838 13.3677 94.8754 13.853 94.8754 14.425C94.8754 15.0057 94.9794 15.4953 95.1874 15.894C95.4041 16.2927 95.6901 16.5917 96.0454 16.791C96.4008 16.9817 96.7908 17.077 97.2154 17.077ZM108.742 10.876V18H107.559V16.947C107.334 17.311 107.017 17.597 106.61 17.805C106.211 18.0043 105.769 18.104 105.284 18.104C104.729 18.104 104.231 17.9913 103.789 17.766C103.347 17.532 102.996 17.1853 102.736 16.726C102.485 16.2667 102.359 15.7077 102.359 15.049V10.876H103.529V14.893C103.529 15.595 103.707 16.1367 104.062 16.518C104.417 16.8907 104.903 17.077 105.518 17.077C106.151 17.077 106.649 16.882 107.013 16.492C107.377 16.102 107.559 15.5343 107.559 14.789V10.876H108.742ZM113.261 18.117C112.715 18.117 112.226 18.026 111.792 17.844C111.359 17.6533 111.017 17.3933 110.765 17.064C110.514 16.726 110.375 16.3403 110.349 15.907H111.571C111.606 16.2623 111.771 16.5527 112.065 16.778C112.369 17.0033 112.763 17.116 113.248 17.116C113.699 17.116 114.054 17.0163 114.314 16.817C114.574 16.6177 114.704 16.3663 114.704 16.063C114.704 15.751 114.566 15.5213 114.288 15.374C114.011 15.218 113.582 15.0663 113.001 14.919C112.473 14.7803 112.039 14.6417 111.701 14.503C111.372 14.3557 111.086 14.1433 110.843 13.866C110.609 13.58 110.492 13.2073 110.492 12.748C110.492 12.384 110.601 12.0503 110.817 11.747C111.034 11.4437 111.342 11.2053 111.74 11.032C112.139 10.85 112.594 10.759 113.105 10.759C113.894 10.759 114.531 10.9583 115.016 11.357C115.502 11.7557 115.762 12.3017 115.796 12.995H114.613C114.587 12.6223 114.436 12.3233 114.158 12.098C113.89 11.8727 113.526 11.76 113.066 11.76C112.642 11.76 112.304 11.851 112.052 12.033C111.801 12.215 111.675 12.4533 111.675 12.748C111.675 12.982 111.749 13.177 111.896 13.333C112.052 13.4803 112.243 13.6017 112.468 13.697C112.702 13.7837 113.023 13.8833 113.43 13.996C113.942 14.1347 114.358 14.2733 114.678 14.412C114.999 14.542 115.272 14.7413 115.497 15.01C115.731 15.2787 115.853 15.6297 115.861 16.063C115.861 16.453 115.753 16.804 115.536 17.116C115.32 17.428 115.012 17.675 114.613 17.857C114.223 18.0303 113.773 18.117 113.261 18.117ZM120.555 14.412C120.555 13.684 120.702 13.047 120.997 12.501C121.292 11.9463 121.695 11.5173 122.206 11.214C122.726 10.9107 123.307 10.759 123.948 10.759C124.503 10.759 125.018 10.889 125.495 11.149C125.972 11.4003 126.336 11.734 126.587 12.15V8.38H127.783V18H126.587V16.661C126.353 17.0857 126.006 17.4367 125.547 17.714C125.088 17.9827 124.55 18.117 123.935 18.117C123.302 18.117 122.726 17.961 122.206 17.649C121.695 17.337 121.292 16.8993 120.997 16.336C120.702 15.7727 120.555 15.1313 120.555 14.412ZM126.587 14.425C126.587 13.8877 126.479 13.4197 126.262 13.021C126.045 12.6223 125.751 12.319 125.378 12.111C125.014 11.8943 124.611 11.786 124.169 11.786C123.727 11.786 123.324 11.89 122.96 12.098C122.596 12.306 122.306 12.6093 122.089 13.008C121.872 13.4067 121.764 13.8747 121.764 14.412C121.764 14.958 121.872 15.4347 122.089 15.842C122.306 16.2407 122.596 16.5483 122.96 16.765C123.324 16.973 123.727 17.077 124.169 17.077C124.611 17.077 125.014 16.973 125.378 16.765C125.751 16.5483 126.045 16.2407 126.262 15.842C126.479 15.4347 126.587 14.9623 126.587 14.425ZM136.282 14.165C136.282 14.3903 136.269 14.6287 136.243 14.88H130.549C130.593 15.582 130.831 16.1323 131.264 16.531C131.706 16.921 132.239 17.116 132.863 17.116C133.375 17.116 133.799 16.999 134.137 16.765C134.484 16.5223 134.727 16.2017 134.865 15.803H136.139C135.949 16.4877 135.567 17.0467 134.995 17.48C134.423 17.9047 133.713 18.117 132.863 18.117C132.187 18.117 131.581 17.9653 131.043 17.662C130.515 17.3587 130.099 16.9297 129.795 16.375C129.492 15.8117 129.34 15.1617 129.34 14.425C129.34 13.6883 129.488 13.0427 129.782 12.488C130.077 11.9333 130.489 11.5087 131.017 11.214C131.555 10.9107 132.17 10.759 132.863 10.759C133.539 10.759 134.137 10.9063 134.657 11.201C135.177 11.4957 135.576 11.903 135.853 12.423C136.139 12.9343 136.282 13.515 136.282 14.165ZM135.06 13.918C135.06 13.4673 134.961 13.0817 134.761 12.761C134.562 12.4317 134.289 12.1847 133.942 12.02C133.604 11.8467 133.227 11.76 132.811 11.76C132.213 11.76 131.702 11.9507 131.277 12.332C130.861 12.7133 130.623 13.242 130.562 13.918H135.06ZM134.085 8.861L131.316 10.343V9.459L134.085 7.834V8.861ZM140.366 18.117C139.82 18.117 139.33 18.026 138.897 17.844C138.463 17.6533 138.121 17.3933 137.87 17.064C137.618 16.726 137.48 16.3403 137.454 15.907H138.676C138.71 16.2623 138.875 16.5527 139.17 16.778C139.473 17.0033 139.867 17.116 140.353 17.116C140.803 17.116 141.159 17.0163 141.419 16.817C141.679 16.6177 141.809 16.3663 141.809 16.063C141.809 15.751 141.67 15.5213 141.393 15.374C141.115 15.218 140.686 15.0663 140.106 14.919C139.577 14.7803 139.144 14.6417 138.806 14.503C138.476 14.3557 138.19 14.1433 137.948 13.866C137.714 13.58 137.597 13.2073 137.597 12.748C137.597 12.384 137.705 12.0503 137.922 11.747C138.138 11.4437 138.446 11.2053 138.845 11.032C139.243 10.85 139.698 10.759 140.21 10.759C140.998 10.759 141.635 10.9583 142.121 11.357C142.606 11.7557 142.866 12.3017 142.901 12.995H141.718C141.692 12.6223 141.54 12.3233 141.263 12.098C140.994 11.8727 140.63 11.76 140.171 11.76C139.746 11.76 139.408 11.851 139.157 12.033C138.905 12.215 138.78 12.4533 138.78 12.748C138.78 12.982 138.853 13.177 139.001 13.333C139.157 13.4803 139.347 13.6017 139.573 13.697C139.807 13.7837 140.127 13.8833 140.535 13.996C141.046 14.1347 141.462 14.2733 141.783 14.412C142.103 14.542 142.376 14.7413 142.602 15.01C142.836 15.2787 142.957 15.6297 142.966 16.063C142.966 16.453 142.857 16.804 142.641 17.116C142.424 17.428 142.116 17.675 141.718 17.857C141.328 18.0303 140.877 18.117 140.366 18.117ZM145.247 9.719C145.021 9.719 144.831 9.641 144.675 9.485C144.519 9.329 144.441 9.13833 144.441 8.913C144.441 8.68767 144.519 8.497 144.675 8.341C144.831 8.185 145.021 8.107 145.247 8.107C145.463 8.107 145.645 8.185 145.793 8.341C145.949 8.497 146.027 8.68767 146.027 8.913C146.027 9.13833 145.949 9.329 145.793 9.485C145.645 9.641 145.463 9.719 145.247 9.719ZM145.819 10.876V18H144.636V10.876H145.819ZM151.306 10.746C152.173 10.746 152.875 11.0103 153.412 11.539C153.949 12.059 154.218 12.813 154.218 13.801V18H153.048V13.97C153.048 13.2593 152.87 12.7177 152.515 12.345C152.16 11.9637 151.674 11.773 151.059 11.773C150.435 11.773 149.937 11.968 149.564 12.358C149.2 12.748 149.018 13.3157 149.018 14.061V18H147.835V10.876H149.018V11.89C149.252 11.526 149.568 11.2443 149.967 11.045C150.374 10.8457 150.821 10.746 151.306 10.746ZM158.672 18.117C158.126 18.117 157.637 18.026 157.203 17.844C156.77 17.6533 156.428 17.3933 156.176 17.064C155.925 16.726 155.786 16.3403 155.76 15.907H156.982C157.017 16.2623 157.182 16.5527 157.476 16.778C157.78 17.0033 158.174 17.116 158.659 17.116C159.11 17.116 159.465 17.0163 159.725 16.817C159.985 16.6177 160.115 16.3663 160.115 16.063C160.115 15.751 159.977 15.5213 159.699 15.374C159.422 15.218 158.993 15.0663 158.412 14.919C157.884 14.7803 157.45 14.6417 157.112 14.503C156.783 14.3557 156.497 14.1433 156.254 13.866C156.02 13.58 155.903 13.2073 155.903 12.748C155.903 12.384 156.012 12.0503 156.228 11.747C156.445 11.4437 156.753 11.2053 157.151 11.032C157.55 10.85 158.005 10.759 158.516 10.759C159.305 10.759 159.942 10.9583 160.427 11.357C160.913 11.7557 161.173 12.3017 161.207 12.995H160.024C159.998 12.6223 159.847 12.3233 159.569 12.098C159.301 11.8727 158.937 11.76 158.477 11.76C158.053 11.76 157.715 11.851 157.463 12.033C157.212 12.215 157.086 12.4533 157.086 12.748C157.086 12.982 157.16 13.177 157.307 13.333C157.463 13.4803 157.654 13.6017 157.879 13.697C158.113 13.7837 158.434 13.8833 158.841 13.996C159.353 14.1347 159.769 14.2733 160.089 14.412C160.41 14.542 160.683 14.7413 160.908 15.01C161.142 15.2787 161.264 15.6297 161.272 16.063C161.272 16.453 161.164 16.804 160.947 17.116C160.731 17.428 160.423 17.675 160.024 17.857C159.634 18.0303 159.184 18.117 158.672 18.117ZM162.5 14.425C162.5 13.6883 162.648 13.047 162.942 12.501C163.237 11.9463 163.644 11.5173 164.164 11.214C164.693 10.9107 165.295 10.759 165.971 10.759C166.847 10.759 167.566 10.9713 168.129 11.396C168.701 11.8207 169.078 12.41 169.26 13.164H167.986C167.865 12.7307 167.627 12.3883 167.271 12.137C166.925 11.8857 166.491 11.76 165.971 11.76C165.295 11.76 164.749 11.994 164.333 12.462C163.917 12.9213 163.709 13.5757 163.709 14.425C163.709 15.283 163.917 15.946 164.333 16.414C164.749 16.882 165.295 17.116 165.971 17.116C166.491 17.116 166.925 16.9947 167.271 16.752C167.618 16.5093 167.856 16.1627 167.986 15.712H169.26C169.07 16.44 168.688 17.025 168.116 17.467C167.544 17.9003 166.829 18.117 165.971 18.117C165.295 18.117 164.693 17.9653 164.164 17.662C163.644 17.3587 163.237 16.9297 162.942 16.375C162.648 15.8203 162.5 15.1703 162.5 14.425ZM172.022 12.033C172.23 11.6257 172.525 11.3093 172.906 11.084C173.296 10.8587 173.768 10.746 174.323 10.746V11.968H174.011C172.685 11.968 172.022 12.6873 172.022 14.126V18H170.839V10.876H172.022V12.033ZM176.3 9.719C176.074 9.719 175.884 9.641 175.728 9.485C175.572 9.329 175.494 9.13833 175.494 8.913C175.494 8.68767 175.572 8.497 175.728 8.341C175.884 8.185 176.074 8.107 176.3 8.107C176.516 8.107 176.698 8.185 176.846 8.341C177.002 8.497 177.08 8.68767 177.08 8.913C177.08 9.13833 177.002 9.329 176.846 9.485C176.698 9.641 176.516 9.719 176.3 9.719ZM176.872 10.876V18H175.689V10.876H176.872ZM180.071 12.033C180.279 11.6257 180.573 11.3093 180.955 11.084C181.345 10.8587 181.817 10.746 182.372 10.746V11.968H182.06C180.734 11.968 180.071 12.6873 180.071 14.126V18H178.888V10.876H180.071V12.033ZM190.237 14.165C190.237 14.3903 190.224 14.6287 190.198 14.88H184.504C184.548 15.582 184.786 16.1323 185.219 16.531C185.661 16.921 186.194 17.116 186.818 17.116C187.33 17.116 187.754 16.999 188.092 16.765C188.439 16.5223 188.682 16.2017 188.82 15.803H190.094C189.904 16.4877 189.522 17.0467 188.95 17.48C188.378 17.9047 187.668 18.117 186.818 18.117C186.142 18.117 185.536 17.9653 184.998 17.662C184.47 17.3587 184.054 16.9297 183.75 16.375C183.447 15.8117 183.295 15.1617 183.295 14.425C183.295 13.6883 183.443 13.0427 183.737 12.488C184.032 11.9333 184.444 11.5087 184.972 11.214C185.51 10.9107 186.125 10.759 186.818 10.759C187.494 10.759 188.092 10.9063 188.612 11.201C189.132 11.4957 189.531 11.903 189.808 12.423C190.094 12.9343 190.237 13.515 190.237 14.165ZM189.015 13.918C189.015 13.4673 188.916 13.0817 188.716 12.761C188.517 12.4317 188.244 12.1847 187.897 12.02C187.559 11.8467 187.182 11.76 186.766 11.76C186.168 11.76 185.657 11.9507 185.232 12.332C184.816 12.7133 184.578 13.242 184.517 13.918H189.015ZM194.823 14.412C194.823 13.684 194.97 13.047 195.265 12.501C195.559 11.9463 195.962 11.5173 196.474 11.214C196.994 10.9107 197.57 10.759 198.203 10.759C198.827 10.759 199.368 10.8933 199.828 11.162C200.287 11.4307 200.629 11.7687 200.855 12.176V10.876H202.051V18H200.855V16.674C200.621 17.09 200.27 17.4367 199.802 17.714C199.342 17.9827 198.805 18.117 198.19 18.117C197.557 18.117 196.985 17.961 196.474 17.649C195.962 17.337 195.559 16.8993 195.265 16.336C194.97 15.7727 194.823 15.1313 194.823 14.412ZM200.855 14.425C200.855 13.8877 200.746 13.4197 200.53 13.021C200.313 12.6223 200.018 12.319 199.646 12.111C199.282 11.8943 198.879 11.786 198.437 11.786C197.995 11.786 197.592 11.89 197.228 12.098C196.864 12.306 196.573 12.6093 196.357 13.008C196.14 13.4067 196.032 13.8747 196.032 14.412C196.032 14.958 196.14 15.4347 196.357 15.842C196.573 16.2407 196.864 16.5483 197.228 16.765C197.592 16.973 197.995 17.077 198.437 17.077C198.879 17.077 199.282 16.973 199.646 16.765C200.018 16.5483 200.313 16.2407 200.53 15.842C200.746 15.4347 200.855 14.9623 200.855 14.425ZM199.932 9.459V10.343L197.163 8.861V7.834L199.932 9.459ZM208.959 11.851V16.05C208.959 16.3967 209.032 16.6437 209.18 16.791C209.327 16.9297 209.583 16.999 209.947 16.999H210.818V18H209.752C209.093 18 208.599 17.8483 208.27 17.545C207.94 17.2417 207.776 16.7433 207.776 16.05V11.851H206.853V10.876H207.776V9.082H208.959V10.876H210.818V11.851H208.959ZM215.358 18.117C214.691 18.117 214.084 17.9653 213.538 17.662C213.001 17.3587 212.576 16.9297 212.264 16.375C211.961 15.8117 211.809 15.1617 211.809 14.425C211.809 13.697 211.965 13.0557 212.277 12.501C212.598 11.9377 213.031 11.5087 213.577 11.214C214.123 10.9107 214.734 10.759 215.41 10.759C216.086 10.759 216.697 10.9107 217.243 11.214C217.789 11.5087 218.218 11.9333 218.53 12.488C218.851 13.0427 219.011 13.6883 219.011 14.425C219.011 15.1617 218.846 15.8117 218.517 16.375C218.196 16.9297 217.759 17.3587 217.204 17.662C216.649 17.9653 216.034 18.117 215.358 18.117ZM215.358 17.077C215.783 17.077 216.181 16.9773 216.554 16.778C216.927 16.5787 217.226 16.2797 217.451 15.881C217.685 15.4823 217.802 14.997 217.802 14.425C217.802 13.853 217.689 13.3677 217.464 12.969C217.239 12.5703 216.944 12.2757 216.58 12.085C216.216 11.8857 215.822 11.786 215.397 11.786C214.964 11.786 214.565 11.8857 214.201 12.085C213.846 12.2757 213.56 12.5703 213.343 12.969C213.126 13.3677 213.018 13.853 213.018 14.425C213.018 15.0057 213.122 15.4953 213.33 15.894C213.547 16.2927 213.833 16.5917 214.188 16.791C214.543 16.9817 214.933 17.077 215.358 17.077ZM226.884 10.876V18H225.701V16.947C225.476 17.311 225.16 17.597 224.752 17.805C224.354 18.0043 223.912 18.104 223.426 18.104C222.872 18.104 222.373 17.9913 221.931 17.766C221.489 17.532 221.138 17.1853 220.878 16.726C220.627 16.2667 220.501 15.7077 220.501 15.049V10.876H221.671V14.893C221.671 15.595 221.849 16.1367 222.204 16.518C222.56 16.8907 223.045 17.077 223.66 17.077C224.293 17.077 224.791 16.882 225.155 16.492C225.519 16.102 225.701 15.5343 225.701 14.789V10.876H226.884ZM230.325 11.851V16.05C230.325 16.3967 230.399 16.6437 230.546 16.791C230.693 16.9297 230.949 16.999 231.313 16.999H232.184V18H231.118C230.459 18 229.965 17.8483 229.636 17.545C229.307 17.2417 229.142 16.7433 229.142 16.05V11.851H228.219V10.876H229.142V9.082H230.325V10.876H232.184V11.851H230.325ZM9.568 36.746C10.1227 36.746 10.6167 36.863 11.05 37.097C11.4833 37.3223 11.8257 37.6647 12.077 38.124C12.3283 38.5833 12.454 39.1423 12.454 39.801V44H11.284V39.97C11.284 39.2593 11.1063 38.7177 10.751 38.345C10.4043 37.9637 9.932 37.773 9.334 37.773C8.71867 37.773 8.229 37.9723 7.865 38.371C7.501 38.761 7.319 39.3287 7.319 40.074V44H6.149V39.97C6.149 39.2593 5.97133 38.7177 5.616 38.345C5.26933 37.9637 4.797 37.773 4.199 37.773C3.58367 37.773 3.094 37.9723 2.73 38.371C2.366 38.761 2.184 39.3287 2.184 40.074V44H1.001V36.876H2.184V37.903C2.418 37.5303 2.73 37.2443 3.12 37.045C3.51867 36.8457 3.95633 36.746 4.433 36.746C5.031 36.746 5.55967 36.8803 6.019 37.149C6.47833 37.4177 6.82067 37.812 7.046 38.332C7.24533 37.8293 7.57467 37.4393 8.034 37.162C8.49333 36.8847 9.00467 36.746 9.568 36.746ZM17.5016 44.117C16.8342 44.117 16.2276 43.9653 15.6816 43.662C15.1442 43.3587 14.7196 42.9297 14.4076 42.375C14.1042 41.8117 13.9526 41.1617 13.9526 40.425C13.9526 39.697 14.1086 39.0557 14.4206 38.501C14.7412 37.9377 15.1746 37.5087 15.7206 37.214C16.2666 36.9107 16.8776 36.759 17.5536 36.759C18.2296 36.759 18.8406 36.9107 19.3866 37.214C19.9326 37.5087 20.3616 37.9333 20.6736 38.488C20.9942 39.0427 21.1546 39.6883 21.1546 40.425C21.1546 41.1617 20.9899 41.8117 20.6606 42.375C20.3399 42.9297 19.9022 43.3587 19.3476 43.662C18.7929 43.9653 18.1776 44.117 17.5016 44.117ZM17.5016 43.077C17.9262 43.077 18.3249 42.9773 18.6976 42.778C19.0702 42.5787 19.3692 42.2797 19.5946 41.881C19.8286 41.4823 19.9456 40.997 19.9456 40.425C19.9456 39.853 19.8329 39.3677 19.6076 38.969C19.3822 38.5703 19.0876 38.2757 18.7236 38.085C18.3596 37.8857 17.9652 37.786 17.5406 37.786C17.1072 37.786 16.7086 37.8857 16.3446 38.085C15.9892 38.2757 15.7032 38.5703 15.4866 38.969C15.2699 39.3677 15.1616 39.853 15.1616 40.425C15.1616 41.0057 15.2656 41.4953 15.4736 41.894C15.6902 42.2927 15.9762 42.5917 16.3316 42.791C16.6869 42.9817 17.0769 43.077 17.5016 43.077ZM31.277 36.746C31.8317 36.746 32.3257 36.863 32.759 37.097C33.1923 37.3223 33.5347 37.6647 33.786 38.124C34.0373 38.5833 34.163 39.1423 34.163 39.801V44H32.993V39.97C32.993 39.2593 32.8153 38.7177 32.46 38.345C32.1133 37.9637 31.641 37.773 31.043 37.773C30.4277 37.773 29.938 37.9723 29.574 38.371C29.21 38.761 29.028 39.3287 29.028 40.074V44H27.858V39.97C27.858 39.2593 27.6803 38.7177 27.325 38.345C26.9783 37.9637 26.506 37.773 25.908 37.773C25.2927 37.773 24.803 37.9723 24.439 38.371C24.075 38.761 23.893 39.3287 23.893 40.074V44H22.71V36.876H23.893V37.903C24.127 37.5303 24.439 37.2443 24.829 37.045C25.2277 36.8457 25.6653 36.746 26.142 36.746C26.74 36.746 27.2687 36.8803 27.728 37.149C28.1873 37.4177 28.5297 37.812 28.755 38.332C28.9543 37.8293 29.2837 37.4393 29.743 37.162C30.2023 36.8847 30.7137 36.746 31.277 36.746ZM42.6035 40.165C42.6035 40.3903 42.5905 40.6287 42.5645 40.88H36.8705C36.9139 41.582 37.1522 42.1323 37.5855 42.531C38.0275 42.921 38.5605 43.116 39.1845 43.116C39.6959 43.116 40.1205 42.999 40.4585 42.765C40.8052 42.5223 41.0479 42.2017 41.1865 41.803H42.4605C42.2699 42.4877 41.8885 43.0467 41.3165 43.48C40.7445 43.9047 40.0339 44.117 39.1845 44.117C38.5085 44.117 37.9019 43.9653 37.3645 43.662C36.8359 43.3587 36.4199 42.9297 36.1165 42.375C35.8132 41.8117 35.6615 41.1617 35.6615 40.425C35.6615 39.6883 35.8089 39.0427 36.1035 38.488C36.3982 37.9333 36.8099 37.5087 37.3385 37.214C37.8759 36.9107 38.4912 36.759 39.1845 36.759C39.8605 36.759 40.4585 36.9063 40.9785 37.201C41.4985 37.4957 41.8972 37.903 42.1745 38.423C42.4605 38.9343 42.6035 39.515 42.6035 40.165ZM41.3815 39.918C41.3815 39.4673 41.2819 39.0817 41.0825 38.761C40.8832 38.4317 40.6102 38.1847 40.2635 38.02C39.9255 37.8467 39.5485 37.76 39.1325 37.76C38.5345 37.76 38.0232 37.9507 37.5985 38.332C37.1825 38.7133 36.9442 39.242 36.8835 39.918H41.3815ZM47.6361 36.746C48.5027 36.746 49.2047 37.0103 49.7421 37.539C50.2794 38.059 50.5481 38.813 50.5481 39.801V44H49.3781V39.97C49.3781 39.2593 49.2004 38.7177 48.8451 38.345C48.4897 37.9637 48.0044 37.773 47.3891 37.773C46.7651 37.773 46.2667 37.968 45.8941 38.358C45.5301 38.748 45.3481 39.3157 45.3481 40.061V44H44.1651V36.876H45.3481V37.89C45.5821 37.526 45.8984 37.2443 46.2971 37.045C46.7044 36.8457 47.1507 36.746 47.6361 36.746ZM53.9235 37.851V42.05C53.9235 42.3967 53.9972 42.6437 54.1445 42.791C54.2918 42.9297 54.5475 42.999 54.9115 42.999H55.7825V44H54.7165C54.0578 44 53.5638 43.8483 53.2345 43.545C52.9052 43.2417 52.7405 42.7433 52.7405 42.05V37.851H51.8175V36.876H52.7405V35.082H53.9235V36.876H55.7825V37.851H53.9235ZM57.5928 44.078C57.3675 44.078 57.1768 44 57.0208 43.844C56.8648 43.688 56.7868 43.4973 56.7868 43.272C56.7868 43.0467 56.8648 42.856 57.0208 42.7C57.1768 42.544 57.3675 42.466 57.5928 42.466C57.8095 42.466 57.9915 42.544 58.1388 42.7C58.2948 42.856 58.3728 43.0467 58.3728 43.272C58.3728 43.4973 58.2948 43.688 58.1388 43.844C57.9915 44 57.8095 44.078 57.5928 44.078ZM70.8992 34.939L67.4802 44H66.1152L62.6962 34.939H63.9572L66.8042 42.752L69.6512 34.939H70.8992ZM75.3033 44.117C74.636 44.117 74.0293 43.9653 73.4833 43.662C72.946 43.3587 72.5213 42.9297 72.2093 42.375C71.906 41.8117 71.7543 41.1617 71.7543 40.425C71.7543 39.697 71.9103 39.0557 72.2223 38.501C72.543 37.9377 72.9763 37.5087 73.5223 37.214C74.0683 36.9107 74.6793 36.759 75.3553 36.759C76.0313 36.759 76.6423 36.9107 77.1883 37.214C77.7343 37.5087 78.1633 37.9333 78.4753 38.488C78.796 39.0427 78.9563 39.6883 78.9563 40.425C78.9563 41.1617 78.7916 41.8117 78.4623 42.375C78.1416 42.9297 77.704 43.3587 77.1493 43.662C76.5946 43.9653 75.9793 44.117 75.3033 44.117ZM75.3033 43.077C75.728 43.077 76.1266 42.9773 76.4993 42.778C76.872 42.5787 77.171 42.2797 77.3963 41.881C77.6303 41.4823 77.7473 40.997 77.7473 40.425C77.7473 39.853 77.6346 39.3677 77.4093 38.969C77.184 38.5703 76.8893 38.2757 76.5253 38.085C76.1613 37.8857 75.767 37.786 75.3423 37.786C74.909 37.786 74.5103 37.8857 74.1463 38.085C73.791 38.2757 73.505 38.5703 73.2883 38.969C73.0716 39.3677 72.9633 39.853 72.9633 40.425C72.9633 41.0057 73.0673 41.4953 73.2753 41.894C73.492 42.2927 73.778 42.5917 74.1333 42.791C74.4886 42.9817 74.8786 43.077 75.3033 43.077ZM86.8297 36.876V44H85.6467V42.947C85.4214 43.311 85.1051 43.597 84.6977 43.805C84.2991 44.0043 83.8571 44.104 83.3717 44.104C82.8171 44.104 82.3187 43.9913 81.8767 43.766C81.4347 43.532 81.0837 43.1853 80.8237 42.726C80.5724 42.2667 80.4467 41.7077 80.4467 41.049V36.876H81.6167V40.893C81.6167 41.595 81.7944 42.1367 82.1497 42.518C82.5051 42.8907 82.9904 43.077 83.6057 43.077C84.2384 43.077 84.7367 42.882 85.1007 42.492C85.4647 42.102 85.6467 41.5343 85.6467 40.789V36.876H86.8297ZM91.3492 44.117C90.8032 44.117 90.3135 44.026 89.8802 43.844C89.4468 43.6533 89.1045 43.3933 88.8532 43.064C88.6018 42.726 88.4632 42.3403 88.4372 41.907H89.6592C89.6938 42.2623 89.8585 42.5527 90.1532 42.778C90.4565 43.0033 90.8508 43.116 91.3362 43.116C91.7868 43.116 92.1422 43.0163 92.4022 42.817C92.6622 42.6177 92.7922 42.3663 92.7922 42.063C92.7922 41.751 92.6535 41.5213 92.3762 41.374C92.0988 41.218 91.6698 41.0663 91.0892 40.919C90.5605 40.7803 90.1272 40.6417 89.7892 40.503C89.4598 40.3557 89.1738 40.1433 88.9312 39.866C88.6972 39.58 88.5802 39.2073 88.5802 38.748C88.5802 38.384 88.6885 38.0503 88.9052 37.747C89.1218 37.4437 89.4295 37.2053 89.8282 37.032C90.2268 36.85 90.6818 36.759 91.1932 36.759C91.9818 36.759 92.6188 36.9583 93.1042 37.357C93.5895 37.7557 93.8495 38.3017 93.8842 38.995H92.7012C92.6752 38.6223 92.5235 38.3233 92.2462 38.098C91.9775 37.8727 91.6135 37.76 91.1542 37.76C90.7295 37.76 90.3915 37.851 90.1402 38.033C89.8888 38.215 89.7632 38.4533 89.7632 38.748C89.7632 38.982 89.8368 39.177 89.9842 39.333C90.1402 39.4803 90.3308 39.6017 90.5562 39.697C90.7902 39.7837 91.1108 39.8833 91.5182 39.996C92.0295 40.1347 92.4455 40.2733 92.7662 40.412C93.0868 40.542 93.3598 40.7413 93.5852 41.01C93.8192 41.2787 93.9405 41.6297 93.9492 42.063C93.9492 42.453 93.8408 42.804 93.6242 43.116C93.4075 43.428 93.0998 43.675 92.7012 43.857C92.3112 44.0303 91.8605 44.117 91.3492 44.117ZM100.528 37.851V42.05C100.528 42.3967 100.602 42.6437 100.749 42.791C100.896 42.9297 101.152 42.999 101.516 42.999H102.387V44H101.321C100.662 44 100.168 43.8483 99.839 43.545C99.5097 43.2417 99.345 42.7433 99.345 42.05V37.851H98.422V36.876H99.345V35.082H100.528V36.876H102.387V37.851H100.528ZM105.003 38.033C105.211 37.6257 105.506 37.3093 105.887 37.084C106.277 36.8587 106.75 36.746 107.304 36.746V37.968H106.992C105.666 37.968 105.003 38.6873 105.003 40.126V44H103.82V36.876H105.003V38.033ZM111.777 44.117C111.11 44.117 110.503 43.9653 109.957 43.662C109.42 43.3587 108.995 42.9297 108.683 42.375C108.38 41.8117 108.228 41.1617 108.228 40.425C108.228 39.697 108.384 39.0557 108.696 38.501C109.017 37.9377 109.45 37.5087 109.996 37.214C110.542 36.9107 111.153 36.759 111.829 36.759C112.505 36.759 113.116 36.9107 113.662 37.214C114.208 37.5087 114.637 37.9333 114.949 38.488C115.27 39.0427 115.43 39.6883 115.43 40.425C115.43 41.1617 115.265 41.8117 114.936 42.375C114.615 42.9297 114.178 43.3587 113.623 43.662C113.068 43.9653 112.453 44.117 111.777 44.117ZM111.777 43.077C112.202 43.077 112.6 42.9773 112.973 42.778C113.346 42.5787 113.645 42.2797 113.87 41.881C114.104 41.4823 114.221 40.997 114.221 40.425C114.221 39.853 114.108 39.3677 113.883 38.969C113.658 38.5703 113.363 38.2757 112.999 38.085C112.635 37.8857 112.241 37.786 111.816 37.786C111.383 37.786 110.984 37.8857 110.62 38.085C110.265 38.2757 109.979 38.5703 109.762 38.969C109.545 39.3677 109.437 39.853 109.437 40.425C109.437 41.0057 109.541 41.4953 109.749 41.894C109.966 42.2927 110.252 42.5917 110.607 42.791C110.962 42.9817 111.352 43.077 111.777 43.077ZM123.303 36.876V44H122.12V42.947C121.895 43.311 121.579 43.597 121.171 43.805C120.773 44.0043 120.331 44.104 119.845 44.104C119.291 44.104 118.792 43.9913 118.35 43.766C117.908 43.532 117.557 43.1853 117.297 42.726C117.046 42.2667 116.92 41.7077 116.92 41.049V36.876H118.09V40.893C118.09 41.595 118.268 42.1367 118.623 42.518C118.979 42.8907 119.464 43.077 120.079 43.077C120.712 43.077 121.21 42.882 121.574 42.492C121.938 42.102 122.12 41.5343 122.12 40.789V36.876H123.303ZM127.953 42.908L130.163 36.876H131.424L128.629 44H127.251L124.456 36.876H125.73L127.953 42.908ZM139.088 40.165C139.088 40.3903 139.075 40.6287 139.049 40.88H133.355C133.398 41.582 133.637 42.1323 134.07 42.531C134.512 42.921 135.045 43.116 135.669 43.116C136.18 43.116 136.605 42.999 136.943 42.765C137.29 42.5223 137.532 42.2017 137.671 41.803H138.945C138.754 42.4877 138.373 43.0467 137.801 43.48C137.229 43.9047 136.518 44.117 135.669 44.117C134.993 44.117 134.386 43.9653 133.849 43.662C133.32 43.3587 132.904 42.9297 132.601 42.375C132.298 41.8117 132.146 41.1617 132.146 40.425C132.146 39.6883 132.293 39.0427 132.588 38.488C132.883 37.9333 133.294 37.5087 133.823 37.214C134.36 36.9107 134.976 36.759 135.669 36.759C136.345 36.759 136.943 36.9063 137.463 37.201C137.983 37.4957 138.382 37.903 138.659 38.423C138.945 38.9343 139.088 39.515 139.088 40.165ZM137.866 39.918C137.866 39.4673 137.766 39.0817 137.567 38.761C137.368 38.4317 137.095 38.1847 136.748 38.02C136.41 37.8467 136.033 37.76 135.617 37.76C135.019 37.76 134.508 37.9507 134.083 38.332C133.667 38.7133 133.429 39.242 133.368 39.918H137.866ZM141.832 38.033C142.04 37.6257 142.335 37.3093 142.716 37.084C143.106 36.8587 143.579 36.746 144.133 36.746V37.968H143.821C142.495 37.968 141.832 38.6873 141.832 40.126V44H140.649V36.876H141.832V38.033ZM151.999 40.165C151.999 40.3903 151.986 40.6287 151.96 40.88H146.266C146.309 41.582 146.548 42.1323 146.981 42.531C147.423 42.921 147.956 43.116 148.58 43.116C149.091 43.116 149.516 42.999 149.854 42.765C150.201 42.5223 150.443 42.2017 150.582 41.803H151.856C151.665 42.4877 151.284 43.0467 150.712 43.48C150.14 43.9047 149.429 44.117 148.58 44.117C147.904 44.117 147.297 43.9653 146.76 43.662C146.231 43.3587 145.815 42.9297 145.512 42.375C145.209 41.8117 145.057 41.1617 145.057 40.425C145.057 39.6883 145.204 39.0427 145.499 38.488C145.794 37.9333 146.205 37.5087 146.734 37.214C147.271 36.9107 147.887 36.759 148.58 36.759C149.256 36.759 149.854 36.9063 150.374 37.201C150.894 37.4957 151.293 37.903 151.57 38.423C151.856 38.9343 151.999 39.515 151.999 40.165ZM150.777 39.918C150.777 39.4673 150.677 39.0817 150.478 38.761C150.279 38.4317 150.006 38.1847 149.659 38.02C149.321 37.8467 148.944 37.76 148.528 37.76C147.93 37.76 147.419 37.9507 146.994 38.332C146.578 38.7133 146.34 39.242 146.279 39.918H150.777ZM154.445 43.025H157.942V44H153.093V43.025L156.551 37.838H153.119V36.876H157.916V37.838L154.445 43.025ZM164.125 38.189C164.359 37.7817 164.706 37.4437 165.165 37.175C165.633 36.8977 166.175 36.759 166.79 36.759C167.423 36.759 167.995 36.9107 168.506 37.214C169.026 37.5173 169.434 37.9463 169.728 38.501C170.023 39.047 170.17 39.684 170.17 40.412C170.17 41.1313 170.023 41.7727 169.728 42.336C169.434 42.8993 169.026 43.337 168.506 43.649C167.995 43.961 167.423 44.117 166.79 44.117C166.184 44.117 165.646 43.9827 165.178 43.714C164.719 43.4367 164.368 43.0943 164.125 42.687V47.38H162.942V36.876H164.125V38.189ZM168.961 40.412C168.961 39.8747 168.853 39.4067 168.636 39.008C168.42 38.6093 168.125 38.306 167.752 38.098C167.388 37.89 166.985 37.786 166.543 37.786C166.11 37.786 165.707 37.8943 165.334 38.111C164.97 38.319 164.676 38.6267 164.45 39.034C164.234 39.4327 164.125 39.8963 164.125 40.425C164.125 40.9623 164.234 41.4347 164.45 41.842C164.676 42.2407 164.97 42.5483 165.334 42.765C165.707 42.973 166.11 43.077 166.543 43.077C166.985 43.077 167.388 42.973 167.752 42.765C168.125 42.5483 168.42 42.2407 168.636 41.842C168.853 41.4347 168.961 40.958 168.961 40.412ZM174.835 44.117C174.167 44.117 173.561 43.9653 173.015 43.662C172.477 43.3587 172.053 42.9297 171.741 42.375C171.437 41.8117 171.286 41.1617 171.286 40.425C171.286 39.697 171.442 39.0557 171.754 38.501C172.074 37.9377 172.508 37.5087 173.054 37.214C173.6 36.9107 174.211 36.759 174.887 36.759C175.563 36.759 176.174 36.9107 176.72 37.214C177.266 37.5087 177.695 37.9333 178.007 38.488C178.327 39.0427 178.488 39.6883 178.488 40.425C178.488 41.1617 178.323 41.8117 177.994 42.375C177.673 42.9297 177.235 43.3587 176.681 43.662C176.126 43.9653 175.511 44.117 174.835 44.117ZM174.835 43.077C175.259 43.077 175.658 42.9773 176.031 42.778C176.403 42.5787 176.702 42.2797 176.928 41.881C177.162 41.4823 177.279 40.997 177.279 40.425C177.279 39.853 177.166 39.3677 176.941 38.969C176.715 38.5703 176.421 38.2757 176.057 38.085C175.693 37.8857 175.298 37.786 174.874 37.786C174.44 37.786 174.042 37.8857 173.678 38.085C173.322 38.2757 173.036 38.5703 172.82 38.969C172.603 39.3677 172.495 39.853 172.495 40.425C172.495 41.0057 172.599 41.4953 172.807 41.894C173.023 42.2927 173.309 42.5917 173.665 42.791C174.02 42.9817 174.41 43.077 174.835 43.077ZM186.361 36.876V44H185.178V42.947C184.953 43.311 184.636 43.597 184.229 43.805C183.83 44.0043 183.388 44.104 182.903 44.104C182.348 44.104 181.85 43.9913 181.408 43.766C180.966 43.532 180.615 43.1853 180.355 42.726C180.104 42.2667 179.978 41.7077 179.978 41.049V36.876H181.148V40.893C181.148 41.595 181.326 42.1367 181.681 42.518C182.036 42.8907 182.522 43.077 183.137 43.077C183.77 43.077 184.268 42.882 184.632 42.492C184.996 42.102 185.178 41.5343 185.178 40.789V36.876H186.361ZM189.541 38.033C189.749 37.6257 190.044 37.3093 190.425 37.084C190.815 36.8587 191.288 36.746 191.842 36.746V37.968H191.53C190.204 37.968 189.541 38.6873 189.541 40.126V44H188.358V36.876H189.541V38.033ZM196.232 40.425C196.232 39.6883 196.379 39.047 196.674 38.501C196.969 37.9463 197.376 37.5173 197.896 37.214C198.425 36.9107 199.027 36.759 199.703 36.759C200.578 36.759 201.298 36.9713 201.861 37.396C202.433 37.8207 202.81 38.41 202.992 39.164H201.718C201.597 38.7307 201.358 38.3883 201.003 38.137C200.656 37.8857 200.223 37.76 199.703 37.76C199.027 37.76 198.481 37.994 198.065 38.462C197.649 38.9213 197.441 39.5757 197.441 40.425C197.441 41.283 197.649 41.946 198.065 42.414C198.481 42.882 199.027 43.116 199.703 43.116C200.223 43.116 200.656 42.9947 201.003 42.752C201.35 42.5093 201.588 42.1627 201.718 41.712H202.992C202.801 42.44 202.42 43.025 201.848 43.467C201.276 43.9003 200.561 44.117 199.703 44.117C199.027 44.117 198.425 43.9653 197.896 43.662C197.376 43.3587 196.969 42.9297 196.674 42.375C196.379 41.8203 196.232 41.1703 196.232 40.425ZM211.07 40.165C211.07 40.3903 211.057 40.6287 211.031 40.88H205.337C205.381 41.582 205.619 42.1323 206.052 42.531C206.494 42.921 207.027 43.116 207.651 43.116C208.163 43.116 208.587 42.999 208.925 42.765C209.272 42.5223 209.515 42.2017 209.653 41.803H210.927C210.737 42.4877 210.355 43.0467 209.783 43.48C209.211 43.9047 208.501 44.117 207.651 44.117C206.975 44.117 206.369 43.9653 205.831 43.662C205.303 43.3587 204.887 42.9297 204.583 42.375C204.28 41.8117 204.128 41.1617 204.128 40.425C204.128 39.6883 204.276 39.0427 204.57 38.488C204.865 37.9333 205.277 37.5087 205.805 37.214C206.343 36.9107 206.958 36.759 207.651 36.759C208.327 36.759 208.925 36.9063 209.445 37.201C209.965 37.4957 210.364 37.903 210.641 38.423C210.927 38.9343 211.07 39.515 211.07 40.165ZM209.848 39.918C209.848 39.4673 209.749 39.0817 209.549 38.761C209.35 38.4317 209.077 38.1847 208.73 38.02C208.392 37.8467 208.015 37.76 207.599 37.76C207.001 37.76 206.49 37.9507 206.065 38.332C205.649 38.7133 205.411 39.242 205.35 39.918H209.848ZM213.815 34.38V44H212.632V34.38H213.815ZM215.389 40.412C215.389 39.684 215.536 39.047 215.831 38.501C216.126 37.9463 216.529 37.5173 217.04 37.214C217.56 36.9107 218.136 36.759 218.769 36.759C219.393 36.759 219.935 36.8933 220.394 37.162C220.853 37.4307 221.196 37.7687 221.421 38.176V36.876H222.617V44H221.421V42.674C221.187 43.09 220.836 43.4367 220.368 43.714C219.909 43.9827 219.371 44.117 218.756 44.117C218.123 44.117 217.551 43.961 217.04 43.649C216.529 43.337 216.126 42.8993 215.831 42.336C215.536 41.7727 215.389 41.1313 215.389 40.412ZM221.421 40.425C221.421 39.8877 221.313 39.4197 221.096 39.021C220.879 38.6223 220.585 38.319 220.212 38.111C219.848 37.8943 219.445 37.786 219.003 37.786C218.561 37.786 218.158 37.89 217.794 38.098C217.43 38.306 217.14 38.6093 216.923 39.008C216.706 39.4067 216.598 39.8747 216.598 40.412C216.598 40.958 216.706 41.4347 216.923 41.842C217.14 42.2407 217.43 42.5483 217.794 42.765C218.158 42.973 218.561 43.077 219.003 43.077C219.445 43.077 219.848 42.973 220.212 42.765C220.585 42.5483 220.879 42.2407 221.096 41.842C221.313 41.4347 221.421 40.9623 221.421 40.425ZM231.553 36.746C232.42 36.746 233.122 37.0103 233.659 37.539C234.196 38.059 234.465 38.813 234.465 39.801V44H233.295V39.97C233.295 39.2593 233.117 38.7177 232.762 38.345C232.407 37.9637 231.921 37.773 231.306 37.773C230.682 37.773 230.184 37.968 229.811 38.358C229.447 38.748 229.265 39.3157 229.265 40.061V44H228.082V36.876H229.265V37.89C229.499 37.526 229.815 37.2443 230.214 37.045C230.621 36.8457 231.068 36.746 231.553 36.746ZM239.504 44.117C238.837 44.117 238.23 43.9653 237.684 43.662C237.147 43.3587 236.722 42.9297 236.41 42.375C236.107 41.8117 235.955 41.1617 235.955 40.425C235.955 39.697 236.111 39.0557 236.423 38.501C236.744 37.9377 237.177 37.5087 237.723 37.214C238.269 36.9107 238.88 36.759 239.556 36.759C240.232 36.759 240.843 36.9107 241.389 37.214C241.935 37.5087 242.364 37.9333 242.676 38.488C242.997 39.0427 243.157 39.6883 243.157 40.425C243.157 41.1617 242.993 41.8117 242.663 42.375C242.343 42.9297 241.905 43.3587 241.35 43.662C240.796 43.9653 240.18 44.117 239.504 44.117ZM239.504 43.077C239.929 43.077 240.328 42.9773 240.7 42.778C241.073 42.5787 241.372 42.2797 241.597 41.881C241.831 41.4823 241.948 40.997 241.948 40.425C241.948 39.853 241.836 39.3677 241.61 38.969C241.385 38.5703 241.09 38.2757 240.726 38.085C240.362 37.8857 239.968 37.786 239.543 37.786C239.11 37.786 238.711 37.8857 238.347 38.085C237.992 38.2757 237.706 38.5703 237.489 38.969C237.273 39.3677 237.164 39.853 237.164 40.425C237.164 41.0057 237.268 41.4953 237.476 41.894C237.693 42.2927 237.979 42.5917 238.334 42.791C238.69 42.9817 239.08 43.077 239.504 43.077ZM247.235 44.117C246.689 44.117 246.199 44.026 245.766 43.844C245.333 43.6533 244.99 43.3933 244.739 43.064C244.488 42.726 244.349 42.3403 244.323 41.907H245.545C245.58 42.2623 245.744 42.5527 246.039 42.778C246.342 43.0033 246.737 43.116 247.222 43.116C247.673 43.116 248.028 43.0163 248.288 42.817C248.548 42.6177 248.678 42.3663 248.678 42.063C248.678 41.751 248.539 41.5213 248.262 41.374C247.985 41.218 247.556 41.0663 246.975 40.919C246.446 40.7803 246.013 40.6417 245.675 40.503C245.346 40.3557 245.06 40.1433 244.817 39.866C244.583 39.58 244.466 39.2073 244.466 38.748C244.466 38.384 244.574 38.0503 244.791 37.747C245.008 37.4437 245.315 37.2053 245.714 37.032C246.113 36.85 246.568 36.759 247.079 36.759C247.868 36.759 248.505 36.9583 248.99 37.357C249.475 37.7557 249.735 38.3017 249.77 38.995H248.587C248.561 38.6223 248.409 38.3233 248.132 38.098C247.863 37.8727 247.499 37.76 247.04 37.76C246.615 37.76 246.277 37.851 246.026 38.033C245.775 38.215 245.649 38.4533 245.649 38.748C245.649 38.982 245.723 39.177 245.87 39.333C246.026 39.4803 246.217 39.6017 246.442 39.697C246.676 39.7837 246.997 39.8833 247.404 39.996C247.915 40.1347 248.331 40.2733 248.652 40.412C248.973 40.542 249.246 40.7413 249.471 41.01C249.705 41.2787 249.826 41.6297 249.835 42.063C249.835 42.453 249.727 42.804 249.51 43.116C249.293 43.428 248.986 43.675 248.587 43.857C248.197 44.0303 247.746 44.117 247.235 44.117ZM1.612 61.719C1.38667 61.719 1.196 61.641 1.04 61.485C0.884 61.329 0.806 61.1383 0.806 60.913C0.806 60.6877 0.884 60.497 1.04 60.341C1.196 60.185 1.38667 60.107 1.612 60.107C1.82867 60.107 2.01067 60.185 2.158 60.341C2.314 60.497 2.392 60.6877 2.392 60.913C2.392 61.1383 2.314 61.329 2.158 61.485C2.01067 61.641 1.82867 61.719 1.612 61.719ZM2.184 62.876V70H1.001V62.876H2.184ZM7.67122 62.746C8.53789 62.746 9.23989 63.0103 9.77722 63.539C10.3146 64.059 10.5832 64.813 10.5832 65.801V70H9.41322V65.97C9.41322 65.2593 9.23555 64.7177 8.88022 64.345C8.52489 63.9637 8.03955 63.773 7.42422 63.773C6.80022 63.773 6.30189 63.968 5.92922 64.358C5.56522 64.748 5.38322 65.3157 5.38322 66.061V70H4.20022V62.876H5.38322V63.89C5.61722 63.526 5.93355 63.2443 6.33222 63.045C6.73955 62.8457 7.18589 62.746 7.67122 62.746ZM15.4146 63.851H13.9196V70H12.7366V63.851H11.8136V62.876H12.7366V62.369C12.7366 61.5717 12.9403 60.991 13.3476 60.627C13.7636 60.2543 14.4266 60.068 15.3366 60.068V61.056C14.8166 61.056 14.4483 61.16 14.2316 61.368C14.0236 61.5673 13.9196 61.901 13.9196 62.369V62.876H15.4146V63.851ZM19.901 70.117C19.2336 70.117 18.627 69.9653 18.081 69.662C17.5436 69.3587 17.119 68.9297 16.807 68.375C16.5036 67.8117 16.352 67.1617 16.352 66.425C16.352 65.697 16.508 65.0557 16.82 64.501C17.1406 63.9377 17.574 63.5087 18.12 63.214C18.666 62.9107 19.277 62.759 19.953 62.759C20.629 62.759 21.24 62.9107 21.786 63.214C22.332 63.5087 22.761 63.9333 23.073 64.488C23.3936 65.0427 23.554 65.6883 23.554 66.425C23.554 67.1617 23.3893 67.8117 23.06 68.375C22.7393 68.9297 22.3016 69.3587 21.747 69.662C21.1923 69.9653 20.577 70.117 19.901 70.117ZM19.901 69.077C20.3256 69.077 20.7243 68.9773 21.097 68.778C21.4696 68.5787 21.7686 68.2797 21.994 67.881C22.228 67.4823 22.345 66.997 22.345 66.425C22.345 65.853 22.2323 65.3677 22.007 64.969C21.7816 64.5703 21.487 64.2757 21.123 64.085C20.759 63.8857 20.3646 63.786 19.94 63.786C19.5066 63.786 19.108 63.8857 18.744 64.085C18.3886 64.2757 18.1026 64.5703 17.886 64.969C17.6693 65.3677 17.561 65.853 17.561 66.425C17.561 67.0057 17.665 67.4953 17.873 67.894C18.0896 68.2927 18.3756 68.5917 18.731 68.791C19.0863 68.9817 19.4763 69.077 19.901 69.077ZM26.2924 64.033C26.5004 63.6257 26.7951 63.3093 27.1764 63.084C27.5664 62.8587 28.0387 62.746 28.5934 62.746V63.968H28.2814C26.9554 63.968 26.2924 64.6873 26.2924 66.126V70H25.1094V62.876H26.2924V64.033ZM38.526 62.746C39.0807 62.746 39.5747 62.863 40.008 63.097C40.4413 63.3223 40.7837 63.6647 41.035 64.124C41.2863 64.5833 41.412 65.1423 41.412 65.801V70H40.242V65.97C40.242 65.2593 40.0643 64.7177 39.709 64.345C39.3623 63.9637 38.89 63.773 38.292 63.773C37.6767 63.773 37.187 63.9723 36.823 64.371C36.459 64.761 36.277 65.3287 36.277 66.074V70H35.107V65.97C35.107 65.2593 34.9293 64.7177 34.574 64.345C34.2273 63.9637 33.755 63.773 33.157 63.773C32.5417 63.773 32.052 63.9723 31.688 64.371C31.324 64.761 31.142 65.3287 31.142 66.074V70H29.959V62.876H31.142V63.903C31.376 63.5303 31.688 63.2443 32.078 63.045C32.4767 62.8457 32.9143 62.746 33.391 62.746C33.989 62.746 34.5177 62.8803 34.977 63.149C35.4363 63.4177 35.7787 63.812 36.004 64.332C36.2033 63.8293 36.5327 63.4393 36.992 63.162C37.4513 62.8847 37.9627 62.746 38.526 62.746ZM42.9106 66.412C42.9106 65.684 43.0579 65.047 43.3526 64.501C43.6472 63.9463 44.0502 63.5173 44.5616 63.214C45.0816 62.9107 45.6579 62.759 46.2906 62.759C46.9146 62.759 47.4562 62.8933 47.9156 63.162C48.3749 63.4307 48.7172 63.7687 48.9426 64.176V62.876H50.1386V70H48.9426V68.674C48.7086 69.09 48.3576 69.4367 47.8896 69.714C47.4302 69.9827 46.8929 70.117 46.2776 70.117C45.6449 70.117 45.0729 69.961 44.5616 69.649C44.0502 69.337 43.6472 68.8993 43.3526 68.336C43.0579 67.7727 42.9106 67.1313 42.9106 66.412ZM48.9426 66.425C48.9426 65.8877 48.8342 65.4197 48.6176 65.021C48.4009 64.6223 48.1062 64.319 47.7336 64.111C47.3696 63.8943 46.9666 63.786 46.5246 63.786C46.0826 63.786 45.6796 63.89 45.3156 64.098C44.9516 64.306 44.6612 64.6093 44.4446 65.008C44.2279 65.4067 44.1196 65.8747 44.1196 66.412C44.1196 66.958 44.2279 67.4347 44.4446 67.842C44.6612 68.2407 44.9516 68.5483 45.3156 68.765C45.6796 68.973 46.0826 69.077 46.5246 69.077C46.9666 69.077 47.3696 68.973 47.7336 68.765C48.1062 68.5483 48.4009 68.2407 48.6176 67.842C48.8342 67.4347 48.9426 66.9623 48.9426 66.425ZM53.5807 63.851V68.05C53.5807 68.3967 53.6544 68.6437 53.8017 68.791C53.9491 68.9297 54.2047 68.999 54.5687 68.999H55.4397V70H54.3737C53.7151 70 53.2211 69.8483 52.8917 69.545C52.5624 69.2417 52.3977 68.7433 52.3977 68.05V63.851H51.4747V62.876H52.3977V61.082H53.5807V62.876H55.4397V63.851H53.5807ZM57.4841 61.719C57.2587 61.719 57.0681 61.641 56.9121 61.485C56.7561 61.329 56.6781 61.1383 56.6781 60.913C56.6781 60.6877 56.7561 60.497 56.9121 60.341C57.0681 60.185 57.2587 60.107 57.4841 60.107C57.7007 60.107 57.8827 60.185 58.0301 60.341C58.1861 60.497 58.2641 60.6877 58.2641 60.913C58.2641 61.1383 58.1861 61.329 58.0301 61.485C57.8827 61.641 57.7007 61.719 57.4841 61.719ZM58.0561 62.876V70H56.8731V62.876H58.0561ZM63.1793 70.117C62.512 70.117 61.9053 69.9653 61.3593 69.662C60.822 69.3587 60.3973 68.9297 60.0853 68.375C59.782 67.8117 59.6303 67.1617 59.6303 66.425C59.6303 65.697 59.7863 65.0557 60.0983 64.501C60.419 63.9377 60.8523 63.5087 61.3983 63.214C61.9443 62.9107 62.5553 62.759 63.2313 62.759C63.9073 62.759 64.5183 62.9107 65.0643 63.214C65.6103 63.5087 66.0393 63.9333 66.3513 64.488C66.672 65.0427 66.8323 65.6883 66.8323 66.425C66.8323 67.1617 66.6676 67.8117 66.3383 68.375C66.0176 68.9297 65.58 69.3587 65.0253 69.662C64.4706 69.9653 63.8553 70.117 63.1793 70.117ZM63.1793 69.077C63.604 69.077 64.0026 68.9773 64.3753 68.778C64.748 68.5787 65.047 68.2797 65.2723 67.881C65.5063 67.4823 65.6233 66.997 65.6233 66.425C65.6233 65.853 65.5106 65.3677 65.2853 64.969C65.06 64.5703 64.7653 64.2757 64.4013 64.085C64.0373 63.8857 63.643 63.786 63.2183 63.786C62.785 63.786 62.3863 63.8857 62.0223 64.085C61.667 64.2757 61.381 64.5703 61.1643 64.969C60.9476 65.3677 60.8393 65.853 60.8393 66.425C60.8393 67.0057 60.9433 67.4953 61.1513 67.894C61.368 68.2927 61.654 68.5917 62.0093 68.791C62.3646 68.9817 62.7546 69.077 63.1793 69.077ZM71.8587 62.746C72.7254 62.746 73.4274 63.0103 73.9647 63.539C74.5021 64.059 74.7707 64.813 74.7707 65.801V70H73.6007V65.97C73.6007 65.2593 73.4231 64.7177 73.0677 64.345C72.7124 63.9637 72.2271 63.773 71.6117 63.773C70.9877 63.773 70.4894 63.968 70.1167 64.358C69.7527 64.748 69.5707 65.3157 69.5707 66.061V70H68.3877V62.876H69.5707V63.89C69.8047 63.526 70.1211 63.2443 70.5197 63.045C70.9271 62.8457 71.3734 62.746 71.8587 62.746ZM79.2251 70.117C78.6791 70.117 78.1895 70.026 77.7561 69.844C77.3228 69.6533 76.9805 69.3933 76.7291 69.064C76.4778 68.726 76.3391 68.3403 76.3131 67.907H77.5351C77.5698 68.2623 77.7345 68.5527 78.0291 68.778C78.3325 69.0033 78.7268 69.116 79.2121 69.116C79.6628 69.116 80.0181 69.0163 80.2781 68.817C80.5381 68.6177 80.6681 68.3663 80.6681 68.063C80.6681 67.751 80.5295 67.5213 80.2521 67.374C79.9748 67.218 79.5458 67.0663 78.9651 66.919C78.4365 66.7803 78.0031 66.6417 77.6651 66.503C77.3358 66.3557 77.0498 66.1433 76.8071 65.866C76.5731 65.58 76.4561 65.2073 76.4561 64.748C76.4561 64.384 76.5645 64.0503 76.7811 63.747C76.9978 63.4437 77.3055 63.2053 77.7041 63.032C78.1028 62.85 78.5578 62.759 79.0691 62.759C79.8578 62.759 80.4948 62.9583 80.9801 63.357C81.4655 63.7557 81.7255 64.3017 81.7601 64.995H80.5771C80.5511 64.6223 80.3995 64.3233 80.1221 64.098C79.8535 63.8727 79.4895 63.76 79.0301 63.76C78.6055 63.76 78.2675 63.851 78.0161 64.033C77.7648 64.215 77.6391 64.4533 77.6391 64.748C77.6391 64.982 77.7128 65.177 77.8601 65.333C78.0161 65.4803 78.2068 65.6017 78.4321 65.697C78.6661 65.7837 78.9868 65.8833 79.3941 65.996C79.9055 66.1347 80.3215 66.2733 80.6421 66.412C80.9628 66.542 81.2358 66.7413 81.4611 67.01C81.6951 67.2787 81.8165 67.6297 81.8251 68.063C81.8251 68.453 81.7168 68.804 81.5001 69.116C81.2835 69.428 80.9758 69.675 80.5771 69.857C80.1871 70.0303 79.7365 70.117 79.2251 70.117ZM86.519 66.412C86.519 65.684 86.6663 65.047 86.961 64.501C87.2556 63.9463 87.6586 63.5173 88.17 63.214C88.69 62.9107 89.2706 62.759 89.912 62.759C90.4666 62.759 90.9823 62.889 91.459 63.149C91.9356 63.4003 92.2996 63.734 92.551 64.15V60.38H93.747V70H92.551V68.661C92.317 69.0857 91.9703 69.4367 91.511 69.714C91.0516 69.9827 90.5143 70.117 89.899 70.117C89.2663 70.117 88.69 69.961 88.17 69.649C87.6586 69.337 87.2556 68.8993 86.961 68.336C86.6663 67.7727 86.519 67.1313 86.519 66.412ZM92.551 66.425C92.551 65.8877 92.4426 65.4197 92.226 65.021C92.0093 64.6223 91.7146 64.319 91.342 64.111C90.978 63.8943 90.575 63.786 90.133 63.786C89.691 63.786 89.288 63.89 88.924 64.098C88.56 64.306 88.2696 64.6093 88.053 65.008C87.8363 65.4067 87.728 65.8747 87.728 66.412C87.728 66.958 87.8363 67.4347 88.053 67.842C88.2696 68.2407 88.56 68.5483 88.924 68.765C89.288 68.973 89.691 69.077 90.133 69.077C90.575 69.077 90.978 68.973 91.342 68.765C91.7146 68.5483 92.0093 68.2407 92.226 67.842C92.4426 67.4347 92.551 66.9623 92.551 66.425ZM102.246 66.165C102.246 66.3903 102.233 66.6287 102.207 66.88H96.5131C96.5565 67.582 96.7948 68.1323 97.2281 68.531C97.6701 68.921 98.2031 69.116 98.8271 69.116C99.3385 69.116 99.7631 68.999 100.101 68.765C100.448 68.5223 100.69 68.2017 100.829 67.803H102.103C101.912 68.4877 101.531 69.0467 100.959 69.48C100.387 69.9047 99.6765 70.117 98.8271 70.117C98.1511 70.117 97.5445 69.9653 97.0071 69.662C96.4785 69.3587 96.0625 68.9297 95.7591 68.375C95.4558 67.8117 95.3041 67.1617 95.3041 66.425C95.3041 65.6883 95.4515 65.0427 95.7461 64.488C96.0408 63.9333 96.4525 63.5087 96.9811 63.214C97.5185 62.9107 98.1338 62.759 98.8271 62.759C99.5031 62.759 100.101 62.9063 100.621 63.201C101.141 63.4957 101.54 63.903 101.817 64.423C102.103 64.9343 102.246 65.515 102.246 66.165ZM101.024 65.918C101.024 65.4673 100.924 65.0817 100.725 64.761C100.526 64.4317 100.253 64.1847 99.9061 64.02C99.5681 63.8467 99.1911 63.76 98.7751 63.76C98.1771 63.76 97.6658 63.9507 97.2411 64.332C96.8251 64.7133 96.5868 65.242 96.5261 65.918H101.024ZM106.831 66.425C106.831 65.6883 106.979 65.047 107.273 64.501C107.568 63.9463 107.975 63.5173 108.495 63.214C109.024 62.9107 109.626 62.759 110.302 62.759C111.178 62.759 111.897 62.9713 112.46 63.396C113.032 63.8207 113.409 64.41 113.591 65.164H112.317C112.196 64.7307 111.958 64.3883 111.602 64.137C111.256 63.8857 110.822 63.76 110.302 63.76C109.626 63.76 109.08 63.994 108.664 64.462C108.248 64.9213 108.04 65.5757 108.04 66.425C108.04 67.283 108.248 67.946 108.664 68.414C109.08 68.882 109.626 69.116 110.302 69.116C110.822 69.116 111.256 68.9947 111.602 68.752C111.949 68.5093 112.187 68.1627 112.317 67.712H113.591C113.401 68.44 113.019 69.025 112.447 69.467C111.875 69.9003 111.16 70.117 110.302 70.117C109.626 70.117 109.024 69.9653 108.495 69.662C107.975 69.3587 107.568 68.9297 107.273 68.375C106.979 67.8203 106.831 67.1703 106.831 66.425ZM118.277 70.117C117.61 70.117 117.003 69.9653 116.457 69.662C115.92 69.3587 115.495 68.9297 115.183 68.375C114.88 67.8117 114.728 67.1617 114.728 66.425C114.728 65.697 114.884 65.0557 115.196 64.501C115.517 63.9377 115.95 63.5087 116.496 63.214C117.042 62.9107 117.653 62.759 118.329 62.759C119.005 62.759 119.616 62.9107 120.162 63.214C120.708 63.5087 121.137 63.9333 121.449 64.488C121.77 65.0427 121.93 65.6883 121.93 66.425C121.93 67.1617 121.765 67.8117 121.436 68.375C121.115 68.9297 120.678 69.3587 120.123 69.662C119.568 69.9653 118.953 70.117 118.277 70.117ZM118.277 69.077C118.702 69.077 119.1 68.9773 119.473 68.778C119.846 68.5787 120.145 68.2797 120.37 67.881C120.604 67.4823 120.721 66.997 120.721 66.425C120.721 65.853 120.608 65.3677 120.383 64.969C120.158 64.5703 119.863 64.2757 119.499 64.085C119.135 63.8857 118.741 63.786 118.316 63.786C117.883 63.786 117.484 63.8857 117.12 64.085C116.765 64.2757 116.479 64.5703 116.262 64.969C116.045 65.3677 115.937 65.853 115.937 66.425C115.937 67.0057 116.041 67.4953 116.249 67.894C116.466 68.2927 116.752 68.5917 117.107 68.791C117.462 68.9817 117.852 69.077 118.277 69.077ZM126.956 62.746C127.823 62.746 128.525 63.0103 129.062 63.539C129.6 64.059 129.868 64.813 129.868 65.801V70H128.698V65.97C128.698 65.2593 128.521 64.7177 128.165 64.345C127.81 63.9637 127.325 63.773 126.709 63.773C126.085 63.773 125.587 63.968 125.214 64.358C124.85 64.748 124.668 65.3157 124.668 66.061V70H123.485V62.876H124.668V63.89C124.902 63.526 125.219 63.2443 125.617 63.045C126.025 62.8457 126.471 62.746 126.956 62.746ZM133.244 63.851V68.05C133.244 68.3967 133.317 68.6437 133.465 68.791C133.612 68.9297 133.868 68.999 134.232 68.999H135.103V70H134.037C133.378 70 132.884 69.8483 132.555 69.545C132.225 69.2417 132.061 68.7433 132.061 68.05V63.851H131.138V62.876H132.061V61.082H133.244V62.876H135.103V63.851H133.244ZM136.094 66.412C136.094 65.684 136.241 65.047 136.536 64.501C136.831 63.9463 137.234 63.5173 137.745 63.214C138.265 62.9107 138.841 62.759 139.474 62.759C140.098 62.759 140.64 62.8933 141.099 63.162C141.558 63.4307 141.901 63.7687 142.126 64.176V62.876H143.322V70H142.126V68.674C141.892 69.09 141.541 69.4367 141.073 69.714C140.614 69.9827 140.076 70.117 139.461 70.117C138.828 70.117 138.256 69.961 137.745 69.649C137.234 69.337 136.831 68.8993 136.536 68.336C136.241 67.7727 136.094 67.1313 136.094 66.412ZM142.126 66.425C142.126 65.8877 142.018 65.4197 141.801 65.021C141.584 64.6223 141.29 64.319 140.917 64.111C140.553 63.8943 140.15 63.786 139.708 63.786C139.266 63.786 138.863 63.89 138.499 64.098C138.135 64.306 137.845 64.6093 137.628 65.008C137.411 65.4067 137.303 65.8747 137.303 66.412C137.303 66.958 137.411 67.4347 137.628 67.842C137.845 68.2407 138.135 68.5483 138.499 68.765C138.863 68.973 139.266 69.077 139.708 69.077C140.15 69.077 140.553 68.973 140.917 68.765C141.29 68.5483 141.584 68.2407 141.801 67.842C142.018 67.4347 142.126 66.9623 142.126 66.425ZM144.879 66.425C144.879 65.6883 145.027 65.047 145.321 64.501C145.616 63.9463 146.023 63.5173 146.543 63.214C147.072 62.9107 147.674 62.759 148.35 62.759C149.226 62.759 149.945 62.9713 150.508 63.396C151.08 63.8207 151.457 64.41 151.639 65.164H150.365C150.244 64.7307 150.006 64.3883 149.65 64.137C149.304 63.8857 148.87 63.76 148.35 63.76C147.674 63.76 147.128 63.994 146.712 64.462C146.296 64.9213 146.088 65.5757 146.088 66.425C146.088 67.283 146.296 67.946 146.712 68.414C147.128 68.882 147.674 69.116 148.35 69.116C148.87 69.116 149.304 68.9947 149.65 68.752C149.997 68.5093 150.235 68.1627 150.365 67.712H151.639C151.449 68.44 151.067 69.025 150.495 69.467C149.923 69.9003 149.208 70.117 148.35 70.117C147.674 70.117 147.072 69.9653 146.543 69.662C146.023 69.3587 145.616 68.9297 145.321 68.375C145.027 67.8203 144.879 67.1703 144.879 66.425ZM154.661 63.851V68.05C154.661 68.3967 154.734 68.6437 154.882 68.791C155.029 68.9297 155.285 68.999 155.649 68.999H156.52V70H155.454C154.795 70 154.301 69.8483 153.972 69.545C153.642 69.2417 153.478 68.7433 153.478 68.05V63.851H152.555V62.876H153.478V61.082H154.661V62.876H156.52V63.851H154.661ZM160.977 66.412C160.977 65.684 161.124 65.047 161.419 64.501C161.714 63.9463 162.117 63.5173 162.628 63.214C163.148 62.9107 163.729 62.759 164.37 62.759C164.925 62.759 165.44 62.889 165.917 63.149C166.394 63.4003 166.758 63.734 167.009 64.15V60.38H168.205V70H167.009V68.661C166.775 69.0857 166.428 69.4367 165.969 69.714C165.51 69.9827 164.972 70.117 164.357 70.117C163.724 70.117 163.148 69.961 162.628 69.649C162.117 69.337 161.714 68.8993 161.419 68.336C161.124 67.7727 160.977 67.1313 160.977 66.412ZM167.009 66.425C167.009 65.8877 166.901 65.4197 166.684 65.021C166.467 64.6223 166.173 64.319 165.8 64.111C165.436 63.8943 165.033 63.786 164.591 63.786C164.149 63.786 163.746 63.89 163.382 64.098C163.018 64.306 162.728 64.6093 162.511 65.008C162.294 65.4067 162.186 65.8747 162.186 66.412C162.186 66.958 162.294 67.4347 162.511 67.842C162.728 68.2407 163.018 68.5483 163.382 68.765C163.746 68.973 164.149 69.077 164.591 69.077C165.033 69.077 165.436 68.973 165.8 68.765C166.173 68.5483 166.467 68.2407 166.684 67.842C166.901 67.4347 167.009 66.9623 167.009 66.425ZM169.762 66.412C169.762 65.684 169.909 65.047 170.204 64.501C170.499 63.9463 170.902 63.5173 171.413 63.214C171.933 62.9107 172.509 62.759 173.142 62.759C173.766 62.759 174.308 62.8933 174.767 63.162C175.226 63.4307 175.569 63.7687 175.794 64.176V62.876H176.99V70H175.794V68.674C175.56 69.09 175.209 69.4367 174.741 69.714C174.282 69.9827 173.744 70.117 173.129 70.117C172.496 70.117 171.924 69.961 171.413 69.649C170.902 69.337 170.499 68.8993 170.204 68.336C169.909 67.7727 169.762 67.1313 169.762 66.412ZM175.794 66.425C175.794 65.8877 175.686 65.4197 175.469 65.021C175.252 64.6223 174.958 64.319 174.585 64.111C174.221 63.8943 173.818 63.786 173.376 63.786C172.934 63.786 172.531 63.89 172.167 64.098C171.803 64.306 171.513 64.6093 171.296 65.008C171.079 65.4067 170.971 65.8747 170.971 66.412C170.971 66.958 171.079 67.4347 171.296 67.842C171.513 68.2407 171.803 68.5483 172.167 68.765C172.531 68.973 172.934 69.077 173.376 69.077C173.818 69.077 174.221 68.973 174.585 68.765C174.958 68.5483 175.252 68.2407 175.469 67.842C175.686 67.4347 175.794 66.9623 175.794 66.425ZM182.46 62.746C183.327 62.746 184.029 63.0103 184.566 63.539C185.104 64.059 185.372 64.813 185.372 65.801V70H184.202V65.97C184.202 65.2593 184.025 64.7177 183.669 64.345C183.314 63.9637 182.829 63.773 182.213 63.773C181.589 63.773 181.091 63.968 180.718 64.358C180.354 64.748 180.172 65.3157 180.172 66.061V70H178.989V62.876H180.172V63.89C180.406 63.526 180.723 63.2443 181.121 63.045C181.529 62.8457 181.975 62.746 182.46 62.746ZM189.827 70.117C189.281 70.117 188.791 70.026 188.358 69.844C187.924 69.6533 187.582 69.3933 187.331 69.064C187.079 68.726 186.941 68.3403 186.915 67.907H188.137C188.171 68.2623 188.336 68.5527 188.631 68.778C188.934 69.0033 189.328 69.116 189.814 69.116C190.264 69.116 190.62 69.0163 190.88 68.817C191.14 68.6177 191.27 68.3663 191.27 68.063C191.27 67.751 191.131 67.5213 190.854 67.374C190.576 67.218 190.147 67.0663 189.567 66.919C189.038 66.7803 188.605 66.6417 188.267 66.503C187.937 66.3557 187.651 66.1433 187.409 65.866C187.175 65.58 187.058 65.2073 187.058 64.748C187.058 64.384 187.166 64.0503 187.383 63.747C187.599 63.4437 187.907 63.2053 188.306 63.032C188.704 62.85 189.159 62.759 189.671 62.759C190.459 62.759 191.096 62.9583 191.582 63.357C192.067 63.7557 192.327 64.3017 192.362 64.995H191.179C191.153 64.6223 191.001 64.3233 190.724 64.098C190.455 63.8727 190.091 63.76 189.632 63.76C189.207 63.76 188.869 63.851 188.618 64.033C188.366 64.215 188.241 64.4533 188.241 64.748C188.241 64.982 188.314 65.177 188.462 65.333C188.618 65.4803 188.808 65.6017 189.034 65.697C189.268 65.7837 189.588 65.8833 189.996 65.996C190.507 66.1347 190.923 66.2733 191.244 66.412C191.564 66.542 191.837 66.7413 192.063 67.01C192.297 67.2787 192.418 67.6297 192.427 68.063C192.427 68.453 192.318 68.804 192.102 69.116C191.885 69.428 191.577 69.675 191.179 69.857C190.789 70.0303 190.338 70.117 189.827 70.117ZM198.746 60.38V70H197.563V60.38H198.746ZM207.262 66.165C207.262 66.3903 207.249 66.6287 207.223 66.88H201.529C201.572 67.582 201.81 68.1323 202.244 68.531C202.686 68.921 203.219 69.116 203.843 69.116C204.354 69.116 204.779 68.999 205.117 68.765C205.463 68.5223 205.706 68.2017 205.845 67.803H207.119C206.928 68.4877 206.547 69.0467 205.975 69.48C205.403 69.9047 204.692 70.117 203.843 70.117C203.167 70.117 202.56 69.9653 202.023 69.662C201.494 69.3587 201.078 68.9297 200.775 68.375C200.471 67.8117 200.32 67.1617 200.32 66.425C200.32 65.6883 200.467 65.0427 200.762 64.488C201.056 63.9333 201.468 63.5087 201.997 63.214C202.534 62.9107 203.149 62.759 203.843 62.759C204.519 62.759 205.117 62.9063 205.637 63.201C206.157 63.4957 206.555 63.903 206.833 64.423C207.119 64.9343 207.262 65.515 207.262 66.165ZM206.04 65.918C206.04 65.4673 205.94 65.0817 205.741 64.761C205.541 64.4317 205.268 64.1847 204.922 64.02C204.584 63.8467 204.207 63.76 203.791 63.76C203.193 63.76 202.681 63.9507 202.257 64.332C201.841 64.7133 201.602 65.242 201.542 65.918H206.04ZM211.345 70.117C210.799 70.117 210.31 70.026 209.876 69.844C209.443 69.6533 209.101 69.3933 208.849 69.064C208.598 68.726 208.459 68.3403 208.433 67.907H209.655C209.69 68.2623 209.855 68.5527 210.149 68.778C210.453 69.0033 210.847 69.116 211.332 69.116C211.783 69.116 212.138 69.0163 212.398 68.817C212.658 68.6177 212.788 68.3663 212.788 68.063C212.788 67.751 212.65 67.5213 212.372 67.374C212.095 67.218 211.666 67.0663 211.085 66.919C210.557 66.7803 210.123 66.6417 209.785 66.503C209.456 66.3557 209.17 66.1433 208.927 65.866C208.693 65.58 208.576 65.2073 208.576 64.748C208.576 64.384 208.685 64.0503 208.901 63.747C209.118 63.4437 209.426 63.2053 209.824 63.032C210.223 62.85 210.678 62.759 211.189 62.759C211.978 62.759 212.615 62.9583 213.1 63.357C213.586 63.7557 213.846 64.3017 213.88 64.995H212.697C212.671 64.6223 212.52 64.3233 212.242 64.098C211.974 63.8727 211.61 63.76 211.15 63.76C210.726 63.76 210.388 63.851 210.136 64.033C209.885 64.215 209.759 64.4533 209.759 64.748C209.759 64.982 209.833 65.177 209.98 65.333C210.136 65.4803 210.327 65.6017 210.552 65.697C210.786 65.7837 211.107 65.8833 211.514 65.996C212.026 66.1347 212.442 66.2733 212.762 66.412C213.083 66.542 213.356 66.7413 213.581 67.01C213.815 67.2787 213.937 67.6297 213.945 68.063C213.945 68.453 213.837 68.804 213.62 69.116C213.404 69.428 213.096 69.675 212.697 69.857C212.307 70.0303 211.857 70.117 211.345 70.117ZM0.559 92.425C0.559 91.6883 0.706333 91.047 1.001 90.501C1.29567 89.9463 1.703 89.5173 2.223 89.214C2.75167 88.9107 3.354 88.759 4.03 88.759C4.90533 88.759 5.62467 88.9713 6.188 89.396C6.76 89.8207 7.137 90.41 7.319 91.164H6.045C5.92367 90.7307 5.68533 90.3883 5.33 90.137C4.98333 89.8857 4.55 89.76 4.03 89.76C3.354 89.76 2.808 89.994 2.392 90.462C1.976 90.9213 1.768 91.5757 1.768 92.425C1.768 93.283 1.976 93.946 2.392 94.414C2.808 94.882 3.354 95.116 4.03 95.116C4.55 95.116 4.98333 94.9947 5.33 94.752C5.67667 94.5093 5.915 94.1627 6.045 93.712H7.319C7.12833 94.44 6.747 95.025 6.175 95.467C5.603 95.9003 4.888 96.117 4.03 96.117C3.354 96.117 2.75167 95.9653 2.223 95.662C1.703 95.3587 1.29567 94.9297 1.001 94.375C0.706333 93.8203 0.559 93.1703 0.559 92.425ZM12.0045 96.117C11.3372 96.117 10.7305 95.9653 10.1845 95.662C9.64715 95.3587 9.22248 94.9297 8.91048 94.375C8.60715 93.8117 8.45548 93.1617 8.45548 92.425C8.45548 91.697 8.61148 91.0557 8.92348 90.501C9.24415 89.9377 9.67748 89.5087 10.2235 89.214C10.7695 88.9107 11.3805 88.759 12.0565 88.759C12.7325 88.759 13.3435 88.9107 13.8895 89.214C14.4355 89.5087 14.8645 89.9333 15.1765 90.488C15.4972 91.0427 15.6575 91.6883 15.6575 92.425C15.6575 93.1617 15.4928 93.8117 15.1635 94.375C14.8428 94.9297 14.4052 95.3587 13.8505 95.662C13.2958 95.9653 12.6805 96.117 12.0045 96.117ZM12.0045 95.077C12.4292 95.077 12.8278 94.9773 13.2005 94.778C13.5732 94.5787 13.8722 94.2797 14.0975 93.881C14.3315 93.4823 14.4485 92.997 14.4485 92.425C14.4485 91.853 14.3358 91.3677 14.1105 90.969C13.8852 90.5703 13.5905 90.2757 13.2265 90.085C12.8625 89.8857 12.4682 89.786 12.0435 89.786C11.6102 89.786 11.2115 89.8857 10.8475 90.085C10.4922 90.2757 10.2062 90.5703 9.98948 90.969C9.77282 91.3677 9.66448 91.853 9.66448 92.425C9.66448 93.0057 9.76848 93.4953 9.97648 93.894C10.1932 94.2927 10.4792 94.5917 10.8345 94.791C11.1898 94.9817 11.5798 95.077 12.0045 95.077ZM20.6839 88.746C21.5506 88.746 22.2526 89.0103 22.7899 89.539C23.3272 90.059 23.5959 90.813 23.5959 91.801V96H22.4259V91.97C22.4259 91.2593 22.2482 90.7177 21.8929 90.345C21.5376 89.9637 21.0522 89.773 20.4369 89.773C19.8129 89.773 19.3146 89.968 18.9419 90.358C18.5779 90.748 18.3959 91.3157 18.3959 92.061V96H17.2129V88.876H18.3959V89.89C18.6299 89.526 18.9462 89.2443 19.3449 89.045C19.7522 88.8457 20.1986 88.746 20.6839 88.746ZM25.0863 92.412C25.0863 91.684 25.2337 91.047 25.5283 90.501C25.823 89.9463 26.226 89.5173 26.7373 89.214C27.2573 88.9107 27.838 88.759 28.4793 88.759C29.034 88.759 29.5497 88.889 30.0263 89.149C30.503 89.4003 30.867 89.734 31.1183 90.15V86.38H32.3143V96H31.1183V94.661C30.8843 95.0857 30.5377 95.4367 30.0783 95.714C29.619 95.9827 29.0817 96.117 28.4663 96.117C27.8337 96.117 27.2573 95.961 26.7373 95.649C26.226 95.337 25.823 94.8993 25.5283 94.336C25.2337 93.7727 25.0863 93.1313 25.0863 92.412ZM31.1183 92.425C31.1183 91.8877 31.01 91.4197 30.7933 91.021C30.5767 90.6223 30.282 90.319 29.9093 90.111C29.5453 89.8943 29.1423 89.786 28.7003 89.786C28.2583 89.786 27.8553 89.89 27.4913 90.098C27.1273 90.306 26.837 90.6093 26.6203 91.008C26.4037 91.4067 26.2953 91.8747 26.2953 92.412C26.2953 92.958 26.4037 93.4347 26.6203 93.842C26.837 94.2407 27.1273 94.5483 27.4913 94.765C27.8553 94.973 28.2583 95.077 28.7003 95.077C29.1423 95.077 29.5453 94.973 29.9093 94.765C30.282 94.5483 30.5767 94.2407 30.7933 93.842C31.01 93.4347 31.1183 92.9623 31.1183 92.425ZM34.9245 87.719C34.6992 87.719 34.5085 87.641 34.3525 87.485C34.1965 87.329 34.1185 87.1383 34.1185 86.913C34.1185 86.6877 34.1965 86.497 34.3525 86.341C34.5085 86.185 34.6992 86.107 34.9245 86.107C35.1412 86.107 35.3232 86.185 35.4705 86.341C35.6265 86.497 35.7045 86.6877 35.7045 86.913C35.7045 87.1383 35.6265 87.329 35.4705 87.485C35.3232 87.641 35.1412 87.719 34.9245 87.719ZM35.4965 88.876V96H34.3135V88.876H35.4965ZM38.9557 89.851V94.05C38.9557 94.3967 39.0294 94.6437 39.1767 94.791C39.3241 94.9297 39.5797 94.999 39.9437 94.999H40.8147V96H39.7487C39.0901 96 38.5961 95.8483 38.2667 95.545C37.9374 95.2417 37.7727 94.7433 37.7727 94.05V89.851H36.8497V88.876H37.7727V87.082H38.9557V88.876H40.8147V89.851H38.9557ZM42.8591 87.719C42.6337 87.719 42.4431 87.641 42.2871 87.485C42.1311 87.329 42.0531 87.1383 42.0531 86.913C42.0531 86.6877 42.1311 86.497 42.2871 86.341C42.4431 86.185 42.6337 86.107 42.8591 86.107C43.0757 86.107 43.2577 86.185 43.4051 86.341C43.5611 86.497 43.6391 86.6877 43.6391 86.913C43.6391 87.1383 43.5611 87.329 43.4051 87.485C43.2577 87.641 43.0757 87.719 42.8591 87.719ZM43.4311 88.876V96H42.2481V88.876H43.4311ZM48.5543 96.117C47.887 96.117 47.2803 95.9653 46.7343 95.662C46.197 95.3587 45.7723 94.9297 45.4603 94.375C45.157 93.8117 45.0053 93.1617 45.0053 92.425C45.0053 91.697 45.1613 91.0557 45.4733 90.501C45.794 89.9377 46.2273 89.5087 46.7733 89.214C47.3193 88.9107 47.9303 88.759 48.6063 88.759C49.2823 88.759 49.8933 88.9107 50.4393 89.214C50.9853 89.5087 51.4143 89.9333 51.7263 90.488C52.047 91.0427 52.2073 91.6883 52.2073 92.425C52.2073 93.1617 52.0426 93.8117 51.7133 94.375C51.3926 94.9297 50.955 95.3587 50.4003 95.662C49.8456 95.9653 49.2303 96.117 48.5543 96.117ZM48.5543 95.077C48.979 95.077 49.3776 94.9773 49.7503 94.778C50.123 94.5787 50.422 94.2797 50.6473 93.881C50.8813 93.4823 50.9983 92.997 50.9983 92.425C50.9983 91.853 50.8856 91.3677 50.6603 90.969C50.435 90.5703 50.1403 90.2757 49.7763 90.085C49.4123 89.8857 49.018 89.786 48.5933 89.786C48.16 89.786 47.7613 89.8857 47.3973 90.085C47.042 90.2757 46.756 90.5703 46.5393 90.969C46.3226 91.3677 46.2143 91.853 46.2143 92.425C46.2143 93.0057 46.3183 93.4953 46.5263 93.894C46.743 94.2927 47.029 94.5917 47.3843 94.791C47.7396 94.9817 48.1296 95.077 48.5543 95.077ZM57.2337 88.746C58.1004 88.746 58.8024 89.0103 59.3397 89.539C59.8771 90.059 60.1457 90.813 60.1457 91.801V96H58.9757V91.97C58.9757 91.2593 58.7981 90.7177 58.4427 90.345C58.0874 89.9637 57.6021 89.773 56.9867 89.773C56.3627 89.773 55.8644 89.968 55.4917 90.358C55.1277 90.748 54.9457 91.3157 54.9457 92.061V96H53.7627V88.876H54.9457V89.89C55.1797 89.526 55.4961 89.2443 55.8947 89.045C56.3021 88.8457 56.7484 88.746 57.2337 88.746ZM64.6001 96.117C64.0541 96.117 63.5645 96.026 63.1311 95.844C62.6978 95.6533 62.3555 95.3933 62.1041 95.064C61.8528 94.726 61.7141 94.3403 61.6881 93.907H62.9101C62.9448 94.2623 63.1095 94.5527 63.4041 94.778C63.7075 95.0033 64.1018 95.116 64.5871 95.116C65.0378 95.116 65.3931 95.0163 65.6531 94.817C65.9131 94.6177 66.0431 94.3663 66.0431 94.063C66.0431 93.751 65.9045 93.5213 65.6271 93.374C65.3498 93.218 64.9208 93.0663 64.3401 92.919C63.8115 92.7803 63.3781 92.6417 63.0401 92.503C62.7108 92.3557 62.4248 92.1433 62.1821 91.866C61.9481 91.58 61.8311 91.2073 61.8311 90.748C61.8311 90.384 61.9395 90.0503 62.1561 89.747C62.3728 89.4437 62.6805 89.2053 63.0791 89.032C63.4778 88.85 63.9328 88.759 64.4441 88.759C65.2328 88.759 65.8698 88.9583 66.3551 89.357C66.8405 89.7557 67.1005 90.3017 67.1351 90.995H65.9521C65.9261 90.6223 65.7745 90.3233 65.4971 90.098C65.2285 89.8727 64.8645 89.76 64.4051 89.76C63.9805 89.76 63.6425 89.851 63.3911 90.033C63.1398 90.215 63.0141 90.4533 63.0141 90.748C63.0141 90.982 63.0878 91.177 63.2351 91.333C63.3911 91.4803 63.5818 91.6017 63.8071 91.697C64.0411 91.7837 64.3618 91.8833 64.7691 91.996C65.2805 92.1347 65.6965 92.2733 66.0171 92.412C66.3378 92.542 66.6108 92.7413 66.8361 93.01C67.0701 93.2787 67.1915 93.6297 67.2001 94.063C67.2001 94.453 67.0918 94.804 66.8751 95.116C66.6585 95.428 66.3508 95.675 65.9521 95.857C65.5621 96.0303 65.1115 96.117 64.6001 96.117ZM71.894 92.412C71.894 91.684 72.0413 91.047 72.336 90.501C72.6306 89.9463 73.0336 89.5173 73.545 89.214C74.065 88.9107 74.6456 88.759 75.287 88.759C75.8416 88.759 76.3573 88.889 76.834 89.149C77.3106 89.4003 77.6746 89.734 77.926 90.15V86.38H79.122V96H77.926V94.661C77.692 95.0857 77.3453 95.4367 76.886 95.714C76.4266 95.9827 75.8893 96.117 75.274 96.117C74.6413 96.117 74.065 95.961 73.545 95.649C73.0336 95.337 72.6306 94.8993 72.336 94.336C72.0413 93.7727 71.894 93.1313 71.894 92.412ZM77.926 92.425C77.926 91.8877 77.8176 91.4197 77.601 91.021C77.3843 90.6223 77.0896 90.319 76.717 90.111C76.353 89.8943 75.95 89.786 75.508 89.786C75.066 89.786 74.663 89.89 74.299 90.098C73.935 90.306 73.6446 90.6093 73.428 91.008C73.2113 91.4067 73.103 91.8747 73.103 92.412C73.103 92.958 73.2113 93.4347 73.428 93.842C73.6446 94.2407 73.935 94.5483 74.299 94.765C74.663 94.973 75.066 95.077 75.508 95.077C75.95 95.077 76.353 94.973 76.717 94.765C77.0896 94.5483 77.3843 94.2407 77.601 93.842C77.8176 93.4347 77.926 92.9623 77.926 92.425ZM81.7191 85.652L81.5631 88.239H80.7441L80.5751 85.652H81.7191ZM89.5085 88.876V96H88.3255V94.947C88.1001 95.311 87.7838 95.597 87.3765 95.805C86.9778 96.0043 86.5358 96.104 86.0505 96.104C85.4958 96.104 84.9975 95.9913 84.5555 95.766C84.1135 95.532 83.7625 95.1853 83.5025 94.726C83.2511 94.2667 83.1255 93.7077 83.1255 93.049V88.876H84.2955V92.893C84.2955 93.595 84.4731 94.1367 84.8285 94.518C85.1838 94.8907 85.6691 95.077 86.2845 95.077C86.9171 95.077 87.4155 94.882 87.7795 94.492C88.1435 94.102 88.3255 93.5343 88.3255 92.789V88.876H89.5085ZM92.9489 89.851V94.05C92.9489 94.3967 93.0225 94.6437 93.1699 94.791C93.3172 94.9297 93.5729 94.999 93.9369 94.999H94.8079V96H93.7419C93.0832 96 92.5892 95.8483 92.2599 95.545C91.9305 95.2417 91.7659 94.7433 91.7659 94.05V89.851H90.8429V88.876H91.7659V87.082H92.9489V88.876H94.8079V89.851H92.9489ZM96.8522 87.719C96.6269 87.719 96.4362 87.641 96.2802 87.485C96.1242 87.329 96.0462 87.1383 96.0462 86.913C96.0462 86.6877 96.1242 86.497 96.2802 86.341C96.4362 86.185 96.6269 86.107 96.8522 86.107C97.0689 86.107 97.2509 86.185 97.3982 86.341C97.5542 86.497 97.6322 86.6877 97.6322 86.913C97.6322 87.1383 97.5542 87.329 97.3982 87.485C97.2509 87.641 97.0689 87.719 96.8522 87.719ZM97.4242 88.876V96H96.2412V88.876H97.4242ZM100.623 86.38V96H99.4405V86.38H100.623ZM103.251 87.719C103.025 87.719 102.835 87.641 102.679 87.485C102.523 87.329 102.445 87.1383 102.445 86.913C102.445 86.6877 102.523 86.497 102.679 86.341C102.835 86.185 103.025 86.107 103.251 86.107C103.467 86.107 103.649 86.185 103.797 86.341C103.953 86.497 104.031 86.6877 104.031 86.913C104.031 87.1383 103.953 87.329 103.797 87.485C103.649 87.641 103.467 87.719 103.251 87.719ZM103.823 88.876V96H102.64V88.876H103.823ZM108.361 96.117C107.815 96.117 107.325 96.026 106.892 95.844C106.459 95.6533 106.116 95.3933 105.865 95.064C105.614 94.726 105.475 94.3403 105.449 93.907H106.671C106.706 94.2623 106.87 94.5527 107.165 94.778C107.468 95.0033 107.863 95.116 108.348 95.116C108.799 95.116 109.154 95.0163 109.414 94.817C109.674 94.6177 109.804 94.3663 109.804 94.063C109.804 93.751 109.665 93.5213 109.388 93.374C109.111 93.218 108.682 93.0663 108.101 92.919C107.572 92.7803 107.139 92.6417 106.801 92.503C106.472 92.3557 106.186 92.1433 105.943 91.866C105.709 91.58 105.592 91.2073 105.592 90.748C105.592 90.384 105.7 90.0503 105.917 89.747C106.134 89.4437 106.441 89.2053 106.84 89.032C107.239 88.85 107.694 88.759 108.205 88.759C108.994 88.759 109.631 88.9583 110.116 89.357C110.601 89.7557 110.861 90.3017 110.896 90.995H109.713C109.687 90.6223 109.535 90.3233 109.258 90.098C108.989 89.8727 108.625 89.76 108.166 89.76C107.741 89.76 107.403 89.851 107.152 90.033C106.901 90.215 106.775 90.4533 106.775 90.748C106.775 90.982 106.849 91.177 106.996 91.333C107.152 91.4803 107.343 91.6017 107.568 91.697C107.802 91.7837 108.123 91.8833 108.53 91.996C109.041 92.1347 109.457 92.2733 109.778 92.412C110.099 92.542 110.372 92.7413 110.597 93.01C110.831 93.2787 110.952 93.6297 110.961 94.063C110.961 94.453 110.853 94.804 110.636 95.116C110.419 95.428 110.112 95.675 109.713 95.857C109.323 96.0303 108.872 96.117 108.361 96.117ZM112.189 92.412C112.189 91.684 112.336 91.047 112.631 90.501C112.926 89.9463 113.329 89.5173 113.84 89.214C114.36 88.9107 114.936 88.759 115.569 88.759C116.193 88.759 116.735 88.8933 117.194 89.162C117.653 89.4307 117.996 89.7687 118.221 90.176V88.876H119.417V96H118.221V94.674C117.987 95.09 117.636 95.4367 117.168 95.714C116.709 95.9827 116.171 96.117 115.556 96.117C114.923 96.117 114.351 95.961 113.84 95.649C113.329 95.337 112.926 94.8993 112.631 94.336C112.336 93.7727 112.189 93.1313 112.189 92.412ZM118.221 92.425C118.221 91.8877 118.113 91.4197 117.896 91.021C117.679 90.6223 117.385 90.319 117.012 90.111C116.648 89.8943 116.245 89.786 115.803 89.786C115.361 89.786 114.958 89.89 114.594 90.098C114.23 90.306 113.94 90.6093 113.723 91.008C113.506 91.4067 113.398 91.8747 113.398 92.412C113.398 92.958 113.506 93.4347 113.723 93.842C113.94 94.2407 114.23 94.5483 114.594 94.765C114.958 94.973 115.361 95.077 115.803 95.077C116.245 95.077 116.648 94.973 117.012 94.765C117.385 94.5483 117.679 94.2407 117.896 93.842C118.113 93.4347 118.221 92.9623 118.221 92.425ZM122.859 89.851V94.05C122.859 94.3967 122.933 94.6437 123.08 94.791C123.227 94.9297 123.483 94.999 123.847 94.999H124.718V96H123.652C122.993 96 122.499 95.8483 122.17 95.545C121.841 95.2417 121.676 94.7433 121.676 94.05V89.851H120.753V88.876H121.676V87.082H122.859V88.876H124.718V89.851H122.859ZM126.762 87.719C126.537 87.719 126.346 87.641 126.19 87.485C126.034 87.329 125.956 87.1383 125.956 86.913C125.956 86.6877 126.034 86.497 126.19 86.341C126.346 86.185 126.537 86.107 126.762 86.107C126.979 86.107 127.161 86.185 127.308 86.341C127.464 86.497 127.542 86.6877 127.542 86.913C127.542 87.1383 127.464 87.329 127.308 87.485C127.161 87.641 126.979 87.719 126.762 87.719ZM127.334 88.876V96H126.151V88.876H127.334ZM132.458 96.117C131.79 96.117 131.184 95.9653 130.638 95.662C130.1 95.3587 129.676 94.9297 129.364 94.375C129.06 93.8117 128.909 93.1617 128.909 92.425C128.909 91.697 129.065 91.0557 129.377 90.501C129.697 89.9377 130.131 89.5087 130.677 89.214C131.223 88.9107 131.834 88.759 132.51 88.759C133.186 88.759 133.797 88.9107 134.343 89.214C134.889 89.5087 135.318 89.9333 135.63 90.488C135.95 91.0427 136.111 91.6883 136.111 92.425C136.111 93.1617 135.946 93.8117 135.617 94.375C135.296 94.9297 134.858 95.3587 134.304 95.662C133.749 95.9653 133.134 96.117 132.458 96.117ZM132.458 95.077C132.882 95.077 133.281 94.9773 133.654 94.778C134.026 94.5787 134.325 94.2797 134.551 93.881C134.785 93.4823 134.902 92.997 134.902 92.425C134.902 91.853 134.789 91.3677 134.564 90.969C134.338 90.5703 134.044 90.2757 133.68 90.085C133.316 89.8857 132.921 89.786 132.497 89.786C132.063 89.786 131.665 89.8857 131.301 90.085C130.945 90.2757 130.659 90.5703 130.443 90.969C130.226 91.3677 130.118 91.853 130.118 92.425C130.118 93.0057 130.222 93.4953 130.43 93.894C130.646 94.2927 130.932 94.5917 131.288 94.791C131.643 94.9817 132.033 95.077 132.458 95.077ZM141.137 88.746C142.004 88.746 142.706 89.0103 143.243 89.539C143.78 90.059 144.049 90.813 144.049 91.801V96H142.879V91.97C142.879 91.2593 142.701 90.7177 142.346 90.345C141.991 89.9637 141.505 89.773 140.89 89.773C140.266 89.773 139.768 89.968 139.395 90.358C139.031 90.748 138.849 91.3157 138.849 92.061V96H137.666V88.876H138.849V89.89C139.083 89.526 139.399 89.2443 139.798 89.045C140.205 88.8457 140.652 88.746 141.137 88.746ZM149.005 92.412C149.005 91.684 149.153 91.047 149.447 90.501C149.742 89.9463 150.145 89.5173 150.656 89.214C151.176 88.9107 151.757 88.759 152.398 88.759C152.953 88.759 153.469 88.889 153.945 89.149C154.422 89.4003 154.786 89.734 155.037 90.15V86.38H156.233V96H155.037V94.661C154.803 95.0857 154.457 95.4367 153.997 95.714C153.538 95.9827 153.001 96.117 152.385 96.117C151.753 96.117 151.176 95.961 150.656 95.649C150.145 95.337 149.742 94.8993 149.447 94.336C149.153 93.7727 149.005 93.1313 149.005 92.412ZM155.037 92.425C155.037 91.8877 154.929 91.4197 154.712 91.021C154.496 90.6223 154.201 90.319 153.828 90.111C153.464 89.8943 153.061 89.786 152.619 89.786C152.177 89.786 151.774 89.89 151.41 90.098C151.046 90.306 150.756 90.6093 150.539 91.008C150.323 91.4067 150.214 91.8747 150.214 92.412C150.214 92.958 150.323 93.4347 150.539 93.842C150.756 94.2407 151.046 94.5483 151.41 94.765C151.774 94.973 152.177 95.077 152.619 95.077C153.061 95.077 153.464 94.973 153.828 94.765C154.201 94.5483 154.496 94.2407 154.712 93.842C154.929 93.4347 155.037 92.9623 155.037 92.425ZM164.55 88.876V96H163.367V94.947C163.142 95.311 162.826 95.597 162.418 95.805C162.02 96.0043 161.578 96.104 161.092 96.104C160.538 96.104 160.039 95.9913 159.597 95.766C159.155 95.532 158.804 95.1853 158.544 94.726C158.293 94.2667 158.167 93.7077 158.167 93.049V88.876H159.337V92.893C159.337 93.595 159.515 94.1367 159.87 94.518C160.226 94.8907 160.711 95.077 161.326 95.077C161.959 95.077 162.457 94.882 162.821 94.492C163.185 94.102 163.367 93.5343 163.367 92.789V88.876H164.55ZM172.536 96.117C171.99 96.117 171.5 96.026 171.067 95.844C170.633 95.6533 170.291 95.3933 170.04 95.064C169.788 94.726 169.65 94.3403 169.624 93.907H170.846C170.88 94.2623 171.045 94.5527 171.34 94.778C171.643 95.0033 172.037 95.116 172.523 95.116C172.973 95.116 173.329 95.0163 173.589 94.817C173.849 94.6177 173.979 94.3663 173.979 94.063C173.979 93.751 173.84 93.5213 173.563 93.374C173.285 93.218 172.856 93.0663 172.276 92.919C171.747 92.7803 171.314 92.6417 170.976 92.503C170.646 92.3557 170.36 92.1433 170.118 91.866C169.884 91.58 169.767 91.2073 169.767 90.748C169.767 90.384 169.875 90.0503 170.092 89.747C170.308 89.4437 170.616 89.2053 171.015 89.032C171.413 88.85 171.868 88.759 172.38 88.759C173.168 88.759 173.805 88.9583 174.291 89.357C174.776 89.7557 175.036 90.3017 175.071 90.995H173.888C173.862 90.6223 173.71 90.3233 173.433 90.098C173.164 89.8727 172.8 89.76 172.341 89.76C171.916 89.76 171.578 89.851 171.327 90.033C171.075 90.215 170.95 90.4533 170.95 90.748C170.95 90.982 171.023 91.177 171.171 91.333C171.327 91.4803 171.517 91.6017 171.743 91.697C171.977 91.7837 172.297 91.8833 172.705 91.996C173.216 92.1347 173.632 92.2733 173.953 92.412C174.273 92.542 174.546 92.7413 174.772 93.01C175.006 93.2787 175.127 93.6297 175.136 94.063C175.136 94.453 175.027 94.804 174.811 95.116C174.594 95.428 174.286 95.675 173.888 95.857C173.498 96.0303 173.047 96.117 172.536 96.117ZM177.417 87.719C177.191 87.719 177.001 87.641 176.845 87.485C176.689 87.329 176.611 87.1383 176.611 86.913C176.611 86.6877 176.689 86.497 176.845 86.341C177.001 86.185 177.191 86.107 177.417 86.107C177.633 86.107 177.815 86.185 177.963 86.341C178.119 86.497 178.197 86.6877 178.197 86.913C178.197 87.1383 178.119 87.329 177.963 87.485C177.815 87.641 177.633 87.719 177.417 87.719ZM177.989 88.876V96H176.806V88.876H177.989ZM181.448 89.851V94.05C181.448 94.3967 181.522 94.6437 181.669 94.791C181.816 94.9297 182.072 94.999 182.436 94.999H183.307V96H182.241C181.582 96 181.088 95.8483 180.759 95.545C180.43 95.2417 180.265 94.7433 180.265 94.05V89.851H179.342V88.876H180.265V87.082H181.448V88.876H183.307V89.851H181.448ZM191.24 92.165C191.24 92.3903 191.227 92.6287 191.201 92.88H185.507C185.551 93.582 185.789 94.1323 186.222 94.531C186.664 94.921 187.197 95.116 187.821 95.116C188.333 95.116 188.757 94.999 189.095 94.765C189.442 94.5223 189.685 94.2017 189.823 93.803H191.097C190.907 94.4877 190.525 95.0467 189.953 95.48C189.381 95.9047 188.671 96.117 187.821 96.117C187.145 96.117 186.539 95.9653 186.001 95.662C185.473 95.3587 185.057 94.9297 184.753 94.375C184.45 93.8117 184.298 93.1617 184.298 92.425C184.298 91.6883 184.446 91.0427 184.74 90.488C185.035 89.9333 185.447 89.5087 185.975 89.214C186.513 88.9107 187.128 88.759 187.821 88.759C188.497 88.759 189.095 88.9063 189.615 89.201C190.135 89.4957 190.534 89.903 190.811 90.423C191.097 90.9343 191.24 91.515 191.24 92.165ZM190.018 91.918C190.018 91.4673 189.919 91.0817 189.719 90.761C189.52 90.4317 189.247 90.1847 188.9 90.02C188.562 89.8467 188.185 89.76 187.769 89.76C187.171 89.76 186.66 89.9507 186.235 90.332C185.819 90.7133 185.581 91.242 185.52 91.918H190.018ZM193.179 96.078C192.953 96.078 192.763 96 192.607 95.844C192.451 95.688 192.373 95.4973 192.373 95.272C192.373 95.0467 192.451 94.856 192.607 94.7C192.763 94.544 192.953 94.466 193.179 94.466C193.395 94.466 193.577 94.544 193.725 94.7C193.881 94.856 193.959 95.0467 193.959 95.272C193.959 95.4973 193.881 95.688 193.725 95.844C193.577 96 193.395 96.078 193.179 96.078Z" fill="#CCCCCC"/>
</svg>
