<svg width="1440" height="70" viewBox="0 0 1440 70" fill="none" xmlns="http://www.w3.org/2000/svg">
<mask id="path-1-inside-1_442_347" fill="white">
<path d="M120 18H1320V45H120V18Z"/>
</mask>
<path d="M120 18V19H1320V18V17H120V18Z" fill="#D1D1D1" mask="url(#path-1-inside-1_442_347)"/>
<path d="M489.883 40.416C489.883 39.328 490.129 38.352 490.619 37.488C491.11 36.6133 491.777 35.9307 492.619 35.44C493.473 34.9493 494.417 34.704 495.451 34.704C496.667 34.704 497.729 34.9973 498.635 35.584C499.542 36.1707 500.203 37.0027 500.619 38.08H498.875C498.566 37.408 498.118 36.8907 497.531 36.528C496.955 36.1653 496.262 35.984 495.451 35.984C494.673 35.984 493.974 36.1653 493.355 36.528C492.737 36.8907 492.251 37.408 491.899 38.08C491.547 38.7413 491.371 39.52 491.371 40.416C491.371 41.3013 491.547 42.08 491.899 42.752C492.251 43.4133 492.737 43.9253 493.355 44.288C493.974 44.6507 494.673 44.832 495.451 44.832C496.262 44.832 496.955 44.656 497.531 44.304C498.118 43.9413 498.566 43.424 498.875 42.752H500.619C500.203 43.8187 499.542 44.6453 498.635 45.232C497.729 45.808 496.667 46.096 495.451 46.096C494.417 46.096 493.473 45.856 492.619 45.376C491.777 44.8853 491.11 44.208 490.619 43.344C490.129 42.48 489.883 41.504 489.883 40.416ZM506.611 46.144C505.789 46.144 505.043 45.9573 504.371 45.584C503.709 45.2107 503.187 44.6827 502.803 44C502.429 43.3067 502.243 42.5067 502.243 41.6C502.243 40.704 502.435 39.9147 502.819 39.232C503.213 38.5387 503.747 38.0107 504.419 37.648C505.091 37.2747 505.843 37.088 506.675 37.088C507.507 37.088 508.259 37.2747 508.931 37.648C509.603 38.0107 510.131 38.5333 510.515 39.216C510.909 39.8987 511.107 40.6933 511.107 41.6C511.107 42.5067 510.904 43.3067 510.499 44C510.104 44.6827 509.565 45.2107 508.883 45.584C508.2 45.9573 507.443 46.144 506.611 46.144ZM506.611 44.864C507.133 44.864 507.624 44.7413 508.083 44.496C508.541 44.2507 508.909 43.8827 509.187 43.392C509.475 42.9013 509.619 42.304 509.619 41.6C509.619 40.896 509.48 40.2987 509.203 39.808C508.925 39.3173 508.563 38.9547 508.115 38.72C507.667 38.4747 507.181 38.352 506.659 38.352C506.125 38.352 505.635 38.4747 505.187 38.72C504.749 38.9547 504.397 39.3173 504.131 39.808C503.864 40.2987 503.731 40.896 503.731 41.6C503.731 42.3147 503.859 42.9173 504.115 43.408C504.381 43.8987 504.733 44.2667 505.171 44.512C505.608 44.7467 506.088 44.864 506.611 44.864ZM514.477 38.848C514.765 38.3467 515.192 37.9307 515.757 37.6C516.333 37.2587 517 37.088 517.757 37.088C518.536 37.088 519.24 37.2747 519.869 37.648C520.509 38.0213 521.01 38.5493 521.373 39.232C521.736 39.904 521.917 40.688 521.917 41.584C521.917 42.4693 521.736 43.2587 521.373 43.952C521.01 44.6453 520.509 45.184 519.869 45.568C519.24 45.952 518.536 46.144 517.757 46.144C517.01 46.144 516.349 45.9787 515.773 45.648C515.208 45.3067 514.776 44.8853 514.477 44.384V50.16H513.021V37.232H514.477V38.848ZM520.429 41.584C520.429 40.9227 520.296 40.3467 520.029 39.856C519.762 39.3653 519.4 38.992 518.941 38.736C518.493 38.48 517.997 38.352 517.453 38.352C516.92 38.352 516.424 38.4853 515.965 38.752C515.517 39.008 515.154 39.3867 514.877 39.888C514.61 40.3787 514.477 40.9493 514.477 41.6C514.477 42.2613 514.61 42.8427 514.877 43.344C515.154 43.8347 515.517 44.2133 515.965 44.48C516.424 44.736 516.92 44.864 517.453 44.864C517.997 44.864 518.493 44.736 518.941 44.48C519.4 44.2133 519.762 43.8347 520.029 43.344C520.296 42.8427 520.429 42.256 520.429 41.584ZM531.386 37.232L526.106 50.128H524.602L526.33 45.904L522.794 37.232H524.41L527.162 44.336L529.882 37.232H531.386ZM534.305 38.656C534.561 38.1547 534.924 37.7653 535.393 37.488C535.873 37.2107 536.455 37.072 537.137 37.072V38.576H536.753C535.121 38.576 534.305 39.4613 534.305 41.232V46H532.849V37.232H534.305V38.656ZM539.57 35.808C539.293 35.808 539.058 35.712 538.866 35.52C538.674 35.328 538.578 35.0933 538.578 34.816C538.578 34.5387 538.674 34.304 538.866 34.112C539.058 33.92 539.293 33.824 539.57 33.824C539.837 33.824 540.061 33.92 540.242 34.112C540.434 34.304 540.53 34.5387 540.53 34.816C540.53 35.0933 540.434 35.328 540.242 35.52C540.061 35.712 539.837 35.808 539.57 35.808ZM540.274 37.232V46H538.818V37.232H540.274ZM546.371 37.088C547.129 37.088 547.79 37.2533 548.355 37.584C548.931 37.9147 549.358 38.3307 549.635 38.832V37.232H551.107V46.192C551.107 46.992 550.937 47.7013 550.595 48.32C550.254 48.9493 549.763 49.44 549.123 49.792C548.494 50.144 547.758 50.32 546.915 50.32C545.763 50.32 544.803 50.048 544.035 49.504C543.267 48.96 542.814 48.2187 542.675 47.28H544.115C544.275 47.8133 544.606 48.24 545.107 48.56C545.609 48.8907 546.211 49.056 546.915 49.056C547.715 49.056 548.366 48.8053 548.867 48.304C549.379 47.8027 549.635 47.0987 549.635 46.192V44.352C549.347 44.864 548.921 45.2907 548.355 45.632C547.79 45.9733 547.129 46.144 546.371 46.144C545.593 46.144 544.883 45.952 544.243 45.568C543.614 45.184 543.118 44.6453 542.755 43.952C542.393 43.2587 542.211 42.4693 542.211 41.584C542.211 40.688 542.393 39.904 542.755 39.232C543.118 38.5493 543.614 38.0213 544.243 37.648C544.883 37.2747 545.593 37.088 546.371 37.088ZM549.635 41.6C549.635 40.9387 549.502 40.3627 549.235 39.872C548.969 39.3813 548.606 39.008 548.147 38.752C547.699 38.4853 547.203 38.352 546.659 38.352C546.115 38.352 545.619 38.48 545.171 38.736C544.723 38.992 544.366 39.3653 544.099 39.856C543.833 40.3467 543.699 40.9227 543.699 41.584C543.699 42.256 543.833 42.8427 544.099 43.344C544.366 43.8347 544.723 44.2133 545.171 44.48C545.619 44.736 546.115 44.864 546.659 44.864C547.203 44.864 547.699 44.736 548.147 44.48C548.606 44.2133 548.969 43.8347 549.235 43.344C549.502 42.8427 549.635 42.2613 549.635 41.6ZM557.92 37.072C558.581 37.072 559.179 37.216 559.712 37.504C560.245 37.7813 560.661 38.2027 560.96 38.768C561.269 39.3333 561.424 40.0213 561.424 40.832V46H559.984V41.04C559.984 40.1653 559.765 39.4987 559.328 39.04C558.891 38.5707 558.293 38.336 557.536 38.336C556.768 38.336 556.155 38.576 555.696 39.056C555.248 39.536 555.024 40.2347 555.024 41.152V46H553.568V34.16H555.024V38.48C555.312 38.032 555.707 37.6853 556.208 37.44C556.72 37.1947 557.291 37.072 557.92 37.072ZM565.578 38.432V43.6C565.578 44.0267 565.669 44.3307 565.85 44.512C566.032 44.6827 566.346 44.768 566.794 44.768H567.866V46H566.554C565.744 46 565.136 45.8133 564.73 45.44C564.325 45.0667 564.122 44.4533 564.122 43.6V38.432H562.986V37.232H564.122V35.024H565.578V37.232H567.866V38.432H565.578ZM579.016 34.736C580.093 34.736 581.053 34.9813 581.896 35.472C582.739 35.952 583.389 36.624 583.848 37.488C584.317 38.3413 584.552 39.3173 584.552 40.416C584.552 41.5147 584.317 42.496 583.848 43.36C583.389 44.2133 582.739 44.8853 581.896 45.376C581.053 45.856 580.093 46.096 579.016 46.096C577.928 46.096 576.963 45.856 576.12 45.376C575.277 44.8853 574.621 44.2133 574.152 43.36C573.683 42.496 573.448 41.5147 573.448 40.416C573.448 39.3173 573.683 38.3413 574.152 37.488C574.621 36.624 575.277 35.952 576.12 35.472C576.963 34.9813 577.928 34.736 579.016 34.736ZM579.016 35.376C578.024 35.376 577.16 35.5893 576.424 36.016C575.688 36.432 575.123 37.0187 574.728 37.776C574.333 38.5333 574.136 39.4133 574.136 40.416C574.136 41.408 574.333 42.288 574.728 43.056C575.123 43.8133 575.688 44.4053 576.424 44.832C577.16 45.2587 578.024 45.472 579.016 45.472C579.997 45.472 580.851 45.2587 581.576 44.832C582.312 44.4053 582.877 43.8133 583.272 43.056C583.667 42.288 583.864 41.408 583.864 40.416C583.864 39.4133 583.667 38.5333 583.272 37.776C582.877 37.0187 582.312 36.432 581.576 36.016C580.851 35.5893 579.997 35.376 579.016 35.376ZM578.984 36.704C578.344 36.704 577.757 36.8533 577.224 37.152C576.701 37.4507 576.285 37.8827 575.976 38.448C575.667 39.0027 575.512 39.6533 575.512 40.4C575.512 41.1467 575.667 41.8027 575.976 42.368C576.285 42.9227 576.701 43.3547 577.224 43.664C577.757 43.9627 578.344 44.112 578.984 44.112C579.784 44.112 580.477 43.8987 581.064 43.472C581.651 43.0347 582.051 42.4533 582.264 41.728H580.92C580.6 42.6133 579.955 43.056 578.984 43.056C578.344 43.056 577.821 42.8267 577.416 42.368C577.011 41.9093 576.808 41.2587 576.808 40.416C576.808 39.5627 577.011 38.9067 577.416 38.448C577.821 37.9893 578.344 37.76 578.984 37.76C579.453 37.76 579.859 37.8773 580.2 38.112C580.541 38.336 580.781 38.6613 580.92 39.088H582.264C582.061 38.3307 581.667 37.744 581.08 37.328C580.493 36.912 579.795 36.704 578.984 36.704ZM590.418 44.832C591.772 43.744 592.834 42.8533 593.602 42.16C594.37 41.456 595.015 40.7253 595.538 39.968C596.071 39.2 596.338 38.448 596.338 37.712C596.338 37.0187 596.167 36.4747 595.826 36.08C595.495 35.6747 594.956 35.472 594.21 35.472C593.484 35.472 592.919 35.7013 592.514 36.16C592.119 36.608 591.906 37.2107 591.874 37.968H590.466C590.508 36.7733 590.871 35.8507 591.554 35.2C592.236 34.5493 593.116 34.224 594.194 34.224C595.292 34.224 596.162 34.528 596.802 35.136C597.452 35.744 597.778 36.5813 597.778 37.648C597.778 38.5333 597.511 39.3973 596.978 40.24C596.455 41.072 595.858 41.808 595.186 42.448C594.514 43.0773 593.655 43.8133 592.61 44.656H598.114V45.872H590.418V44.832ZM599.797 40.096C599.797 38.2613 600.095 36.832 600.693 35.808C601.29 34.7733 602.335 34.256 603.829 34.256C605.311 34.256 606.351 34.7733 606.949 35.808C607.546 36.832 607.845 38.2613 607.845 40.096C607.845 41.9627 607.546 43.4133 606.949 44.448C606.351 45.4827 605.311 46 603.829 46C602.335 46 601.29 45.4827 600.693 44.448C600.095 43.4133 599.797 41.9627 599.797 40.096ZM606.405 40.096C606.405 39.168 606.341 38.384 606.213 37.744C606.095 37.0933 605.845 36.5707 605.461 36.176C605.087 35.7813 604.543 35.584 603.829 35.584C603.103 35.584 602.549 35.7813 602.165 36.176C601.791 36.5707 601.541 37.0933 601.413 37.744C601.295 38.384 601.237 39.168 601.237 40.096C601.237 41.056 601.295 41.8613 601.413 42.512C601.541 43.1627 601.791 43.6853 602.165 44.08C602.549 44.4747 603.103 44.672 603.829 44.672C604.543 44.672 605.087 44.4747 605.461 44.08C605.845 43.6853 606.095 43.1627 606.213 42.512C606.341 41.8613 606.405 41.056 606.405 40.096ZM609.668 44.832C611.022 43.744 612.084 42.8533 612.852 42.16C613.62 41.456 614.265 40.7253 614.788 39.968C615.321 39.2 615.588 38.448 615.588 37.712C615.588 37.0187 615.417 36.4747 615.076 36.08C614.745 35.6747 614.206 35.472 613.46 35.472C612.734 35.472 612.169 35.7013 611.764 36.16C611.369 36.608 611.156 37.2107 611.124 37.968H609.716C609.758 36.7733 610.121 35.8507 610.804 35.2C611.486 34.5493 612.366 34.224 613.444 34.224C614.542 34.224 615.412 34.528 616.052 35.136C616.702 35.744 617.028 36.5813 617.028 37.648C617.028 38.5333 616.761 39.3973 616.228 40.24C615.705 41.072 615.108 41.808 614.436 42.448C613.764 43.0773 612.905 43.8133 611.86 44.656H617.364V45.872H609.668V44.832ZM625.495 37.184C625.26 36 624.529 35.408 623.303 35.408C622.353 35.408 621.644 35.776 621.175 36.512C620.705 37.2373 620.476 38.4373 620.487 40.112C620.732 39.5573 621.137 39.1253 621.703 38.816C622.279 38.496 622.919 38.336 623.623 38.336C624.721 38.336 625.596 38.6773 626.247 39.36C626.908 40.0427 627.239 40.9867 627.239 42.192C627.239 42.9173 627.095 43.568 626.807 44.144C626.529 44.72 626.103 45.1787 625.527 45.52C624.961 45.8613 624.273 46.032 623.463 46.032C622.364 46.032 621.505 45.7867 620.887 45.296C620.268 44.8053 619.836 44.128 619.591 43.264C619.345 42.4 619.223 41.3333 619.223 40.064C619.223 36.1493 620.588 34.192 623.319 34.192C624.364 34.192 625.185 34.4747 625.783 35.04C626.38 35.6053 626.732 36.32 626.839 37.184H625.495ZM623.319 39.568C622.86 39.568 622.428 39.664 622.023 39.856C621.617 40.0373 621.287 40.32 621.031 40.704C620.785 41.0773 620.663 41.536 620.663 42.08C620.663 42.8907 620.897 43.552 621.367 44.064C621.836 44.5653 622.508 44.816 623.383 44.816C624.129 44.816 624.721 44.5867 625.159 44.128C625.607 43.6587 625.831 43.0293 625.831 42.24C625.831 41.408 625.617 40.7573 625.191 40.288C624.764 39.808 624.14 39.568 623.319 39.568ZM639.789 39.52V40.752H633.405V39.52H639.789ZM652.659 46L650.003 41.44H648.243V46H646.787V34.848H650.387C651.229 34.848 651.939 34.992 652.515 35.28C653.101 35.568 653.539 35.9573 653.827 36.448C654.115 36.9387 654.259 37.4987 654.259 38.128C654.259 38.896 654.035 39.5733 653.587 40.16C653.149 40.7467 652.488 41.136 651.603 41.328L654.403 46H652.659ZM648.243 40.272H650.387C651.176 40.272 651.768 40.08 652.163 39.696C652.557 39.3013 652.755 38.7787 652.755 38.128C652.755 37.4667 652.557 36.9547 652.163 36.592C651.779 36.2293 651.187 36.048 650.387 36.048H648.243V40.272ZM664.521 41.28C664.521 41.5573 664.505 41.8507 664.473 42.16H657.465C657.518 43.024 657.812 43.7013 658.345 44.192C658.889 44.672 659.545 44.912 660.313 44.912C660.942 44.912 661.465 44.768 661.881 44.48C662.308 44.1813 662.606 43.7867 662.777 43.296H664.345C664.11 44.1387 663.641 44.8267 662.937 45.36C662.233 45.8827 661.358 46.144 660.313 46.144C659.481 46.144 658.734 45.9573 658.073 45.584C657.422 45.2107 656.91 44.6827 656.537 44C656.164 43.3067 655.977 42.5067 655.977 41.6C655.977 40.6933 656.158 39.8987 656.521 39.216C656.884 38.5333 657.39 38.0107 658.041 37.648C658.702 37.2747 659.46 37.088 660.313 37.088C661.145 37.088 661.881 37.2693 662.521 37.632C663.161 37.9947 663.652 38.496 663.993 39.136C664.345 39.7653 664.521 40.48 664.521 41.28ZM663.017 40.976C663.017 40.4213 662.894 39.9467 662.649 39.552C662.404 39.1467 662.068 38.8427 661.641 38.64C661.225 38.4267 660.761 38.32 660.249 38.32C659.513 38.32 658.884 38.5547 658.361 39.024C657.849 39.4933 657.556 40.144 657.481 40.976H663.017ZM670.715 37.072C671.782 37.072 672.646 37.3973 673.307 38.048C673.968 38.688 674.299 39.616 674.299 40.832V46H672.859V41.04C672.859 40.1653 672.64 39.4987 672.203 39.04C671.766 38.5707 671.168 38.336 670.411 38.336C669.643 38.336 669.03 38.576 668.571 39.056C668.123 39.536 667.899 40.2347 667.899 41.152V46H666.443V37.232H667.899V38.48C668.187 38.032 668.576 37.6853 669.067 37.44C669.568 37.1947 670.118 37.072 670.715 37.072ZM684.229 37.232L678.949 50.128H677.445L679.173 45.904L675.637 37.232H677.253L680.005 44.336L682.725 37.232H684.229ZM689.517 46.144C688.696 46.144 687.949 45.9573 687.277 45.584C686.616 45.2107 686.093 44.6827 685.709 44C685.336 43.3067 685.149 42.5067 685.149 41.6C685.149 40.704 685.341 39.9147 685.725 39.232C686.12 38.5387 686.653 38.0107 687.325 37.648C687.997 37.2747 688.749 37.088 689.581 37.088C690.413 37.088 691.165 37.2747 691.837 37.648C692.509 38.0107 693.037 38.5333 693.421 39.216C693.816 39.8987 694.013 40.6933 694.013 41.6C694.013 42.5067 693.81 43.3067 693.405 44C693.01 44.6827 692.472 45.2107 691.789 45.584C691.106 45.9573 690.349 46.144 689.517 46.144ZM689.517 44.864C690.04 44.864 690.53 44.7413 690.989 44.496C691.448 44.2507 691.816 43.8827 692.093 43.392C692.381 42.9013 692.525 42.304 692.525 41.6C692.525 40.896 692.386 40.2987 692.109 39.808C691.832 39.3173 691.469 38.9547 691.021 38.72C690.573 38.4747 690.088 38.352 689.565 38.352C689.032 38.352 688.541 38.4747 688.093 38.72C687.656 38.9547 687.304 39.3173 687.037 39.808C686.77 40.2987 686.637 40.896 686.637 41.6C686.637 42.3147 686.765 42.9173 687.021 43.408C687.288 43.8987 687.64 44.2667 688.077 44.512C688.514 44.7467 688.994 44.864 689.517 44.864ZM703.703 37.232V46H702.247V44.704C701.97 45.152 701.581 45.504 701.079 45.76C700.589 46.0053 700.045 46.128 699.447 46.128C698.765 46.128 698.151 45.9893 697.607 45.712C697.063 45.424 696.631 44.9973 696.311 44.432C696.002 43.8667 695.847 43.1787 695.847 42.368V37.232H697.287V42.176C697.287 43.04 697.506 43.7067 697.943 44.176C698.381 44.6347 698.978 44.864 699.735 44.864C700.514 44.864 701.127 44.624 701.575 44.144C702.023 43.664 702.247 42.9653 702.247 42.048V37.232H703.703ZM705.618 41.584C705.618 40.688 705.799 39.904 706.162 39.232C706.524 38.5493 707.02 38.0213 707.65 37.648C708.29 37.2747 708.999 37.088 709.778 37.088C710.546 37.088 711.212 37.2533 711.778 37.584C712.343 37.9147 712.764 38.3307 713.042 38.832V37.232H714.514V46H713.042V44.368C712.754 44.88 712.322 45.3067 711.746 45.648C711.18 45.9787 710.519 46.144 709.762 46.144C708.983 46.144 708.279 45.952 707.65 45.568C707.02 45.184 706.524 44.6453 706.162 43.952C705.799 43.2587 705.618 42.4693 705.618 41.584ZM713.042 41.6C713.042 40.9387 712.908 40.3627 712.642 39.872C712.375 39.3813 712.012 39.008 711.554 38.752C711.106 38.4853 710.61 38.352 710.066 38.352C709.522 38.352 709.026 38.48 708.578 38.736C708.13 38.992 707.772 39.3653 707.506 39.856C707.239 40.3467 707.106 40.9227 707.106 41.584C707.106 42.256 707.239 42.8427 707.506 43.344C707.772 43.8347 708.13 44.2133 708.578 44.48C709.026 44.736 709.522 44.864 710.066 44.864C710.61 44.864 711.106 44.736 711.554 44.48C712.012 44.2133 712.375 43.8347 712.642 43.344C712.908 42.8427 713.042 42.2613 713.042 41.6ZM718.43 38.848C718.718 38.3467 719.145 37.9307 719.71 37.6C720.286 37.2587 720.953 37.088 721.71 37.088C722.489 37.088 723.193 37.2747 723.822 37.648C724.462 38.0213 724.964 38.5493 725.326 39.232C725.689 39.904 725.87 40.688 725.87 41.584C725.87 42.4693 725.689 43.2587 725.326 43.952C724.964 44.6453 724.462 45.184 723.822 45.568C723.193 45.952 722.489 46.144 721.71 46.144C720.964 46.144 720.302 45.9787 719.726 45.648C719.161 45.3067 718.729 44.8853 718.43 44.384V50.16H716.974V37.232H718.43V38.848ZM724.382 41.584C724.382 40.9227 724.249 40.3467 723.982 39.856C723.716 39.3653 723.353 38.992 722.894 38.736C722.446 38.48 721.95 38.352 721.406 38.352C720.873 38.352 720.377 38.4853 719.918 38.752C719.47 39.008 719.108 39.3867 718.83 39.888C718.564 40.3787 718.43 40.9493 718.43 41.6C718.43 42.2613 718.564 42.8427 718.83 43.344C719.108 43.8347 719.47 44.2133 719.918 44.48C720.377 44.736 720.873 44.864 721.406 44.864C721.95 44.864 722.446 44.736 722.894 44.48C723.353 44.2133 723.716 43.8347 723.982 43.344C724.249 42.8427 724.382 42.256 724.382 41.584ZM729.243 38.848C729.531 38.3467 729.957 37.9307 730.523 37.6C731.099 37.2587 731.765 37.088 732.523 37.088C733.301 37.088 734.005 37.2747 734.635 37.648C735.275 38.0213 735.776 38.5493 736.139 39.232C736.501 39.904 736.683 40.688 736.683 41.584C736.683 42.4693 736.501 43.2587 736.139 43.952C735.776 44.6453 735.275 45.184 734.635 45.568C734.005 45.952 733.301 46.144 732.523 46.144C731.776 46.144 731.115 45.9787 730.539 45.648C729.973 45.3067 729.541 44.8853 729.243 44.384V50.16H727.787V37.232H729.243V38.848ZM735.195 41.584C735.195 40.9227 735.061 40.3467 734.795 39.856C734.528 39.3653 734.165 38.992 733.707 38.736C733.259 38.48 732.763 38.352 732.219 38.352C731.685 38.352 731.189 38.4853 730.731 38.752C730.283 39.008 729.92 39.3867 729.643 39.888C729.376 40.3787 729.243 40.9493 729.243 41.6C729.243 42.2613 729.376 42.8427 729.643 43.344C729.92 43.8347 730.283 44.2133 730.731 44.48C731.189 44.736 731.685 44.864 732.219 44.864C732.763 44.864 733.259 44.736 733.707 44.48C734.165 44.2133 734.528 43.8347 734.795 43.344C735.061 42.8427 735.195 42.256 735.195 41.584ZM739.063 46.096C738.786 46.096 738.551 46 738.359 45.808C738.167 45.616 738.071 45.3813 738.071 45.104C738.071 44.8267 738.167 44.592 738.359 44.4C738.551 44.208 738.786 44.112 739.063 44.112C739.33 44.112 739.554 44.208 739.735 44.4C739.927 44.592 740.023 44.8267 740.023 45.104C740.023 45.3813 739.927 45.616 739.735 45.808C739.554 46 739.33 46.096 739.063 46.096ZM741.415 40.416C741.415 39.328 741.66 38.352 742.151 37.488C742.641 36.6133 743.308 35.9307 744.151 35.44C745.004 34.9493 745.948 34.704 746.983 34.704C748.199 34.704 749.26 34.9973 750.167 35.584C751.073 36.1707 751.735 37.0027 752.151 38.08H750.407C750.097 37.408 749.649 36.8907 749.063 36.528C748.487 36.1653 747.793 35.984 746.983 35.984C746.204 35.984 745.505 36.1653 744.887 36.528C744.268 36.8907 743.783 37.408 743.431 38.08C743.079 38.7413 742.903 39.52 742.903 40.416C742.903 41.3013 743.079 42.08 743.431 42.752C743.783 43.4133 744.268 43.9253 744.887 44.288C745.505 44.6507 746.204 44.832 746.983 44.832C747.793 44.832 748.487 44.656 749.063 44.304C749.649 43.9413 750.097 43.424 750.407 42.752H752.151C751.735 43.8187 751.073 44.6453 750.167 45.232C749.26 45.808 748.199 46.096 746.983 46.096C745.948 46.096 745.004 45.856 744.151 45.376C743.308 44.8853 742.641 44.208 742.151 43.344C741.66 42.48 741.415 41.504 741.415 40.416ZM758.142 46.144C757.321 46.144 756.574 45.9573 755.902 45.584C755.241 45.2107 754.718 44.6827 754.334 44C753.961 43.3067 753.774 42.5067 753.774 41.6C753.774 40.704 753.966 39.9147 754.35 39.232C754.745 38.5387 755.278 38.0107 755.95 37.648C756.622 37.2747 757.374 37.088 758.206 37.088C759.038 37.088 759.79 37.2747 760.462 37.648C761.134 38.0107 761.662 38.5333 762.046 39.216C762.441 39.8987 762.638 40.6933 762.638 41.6C762.638 42.5067 762.435 43.3067 762.03 44C761.635 44.6827 761.097 45.2107 760.414 45.584C759.731 45.9573 758.974 46.144 758.142 46.144ZM758.142 44.864C758.665 44.864 759.155 44.7413 759.614 44.496C760.073 44.2507 760.441 43.8827 760.718 43.392C761.006 42.9013 761.15 42.304 761.15 41.6C761.15 40.896 761.011 40.2987 760.734 39.808C760.457 39.3173 760.094 38.9547 759.646 38.72C759.198 38.4747 758.713 38.352 758.19 38.352C757.657 38.352 757.166 38.4747 756.718 38.72C756.281 38.9547 755.929 39.3173 755.662 39.808C755.395 40.2987 755.262 40.896 755.262 41.6C755.262 42.3147 755.39 42.9173 755.646 43.408C755.913 43.8987 756.265 44.2667 756.702 44.512C757.139 44.7467 757.619 44.864 758.142 44.864ZM775.096 37.072C775.779 37.072 776.387 37.216 776.92 37.504C777.454 37.7813 777.875 38.2027 778.184 38.768C778.494 39.3333 778.648 40.0213 778.648 40.832V46H777.208V41.04C777.208 40.1653 776.99 39.4987 776.552 39.04C776.126 38.5707 775.544 38.336 774.808 38.336C774.051 38.336 773.448 38.5813 773 39.072C772.552 39.552 772.328 40.2507 772.328 41.168V46H770.888V41.04C770.888 40.1653 770.67 39.4987 770.232 39.04C769.806 38.5707 769.224 38.336 768.488 38.336C767.731 38.336 767.128 38.5813 766.68 39.072C766.232 39.552 766.008 40.2507 766.008 41.168V46H764.552V37.232H766.008V38.496C766.296 38.0373 766.68 37.6853 767.16 37.44C767.651 37.1947 768.19 37.072 768.776 37.072C769.512 37.072 770.163 37.2373 770.728 37.568C771.294 37.8987 771.715 38.384 771.992 39.024C772.238 38.4053 772.643 37.9253 773.208 37.584C773.774 37.2427 774.403 37.072 775.096 37.072Z" fill="white"/>
<path d="M792.643 34.848V36.032H789.603V46H788.147V36.032H785.091V34.848H792.643ZM798.259 46.144C797.438 46.144 796.691 45.9573 796.019 45.584C795.358 45.2107 794.835 44.6827 794.451 44C794.078 43.3067 793.891 42.5067 793.891 41.6C793.891 40.704 794.083 39.9147 794.467 39.232C794.862 38.5387 795.395 38.0107 796.067 37.648C796.739 37.2747 797.491 37.088 798.323 37.088C799.155 37.088 799.907 37.2747 800.579 37.648C801.251 38.0107 801.779 38.5333 802.163 39.216C802.558 39.8987 802.755 40.6933 802.755 41.6C802.755 42.5067 802.552 43.3067 802.147 44C801.752 44.6827 801.214 45.2107 800.531 45.584C799.848 45.9573 799.091 46.144 798.259 46.144ZM798.259 44.864C798.782 44.864 799.272 44.7413 799.731 44.496C800.19 44.2507 800.558 43.8827 800.835 43.392C801.123 42.9013 801.267 42.304 801.267 41.6C801.267 40.896 801.128 40.2987 800.851 39.808C800.574 39.3173 800.211 38.9547 799.763 38.72C799.315 38.4747 798.83 38.352 798.307 38.352C797.774 38.352 797.283 38.4747 796.835 38.72C796.398 38.9547 796.046 39.3173 795.779 39.808C795.512 40.2987 795.379 40.896 795.379 41.6C795.379 42.3147 795.507 42.9173 795.763 43.408C796.03 43.8987 796.382 44.2667 796.819 44.512C797.256 44.7467 797.736 44.864 798.259 44.864ZM812.446 37.232V46H810.99V44.704C810.712 45.152 810.323 45.504 809.822 45.76C809.331 46.0053 808.787 46.128 808.19 46.128C807.507 46.128 806.894 45.9893 806.35 45.712C805.806 45.424 805.374 44.9973 805.054 44.432C804.744 43.8667 804.59 43.1787 804.59 42.368V37.232H806.03V42.176C806.03 43.04 806.248 43.7067 806.686 44.176C807.123 44.6347 807.72 44.864 808.478 44.864C809.256 44.864 809.87 44.624 810.318 44.144C810.766 43.664 810.99 42.9653 810.99 42.048V37.232H812.446ZM818.008 46.144C817.336 46.144 816.733 46.032 816.2 45.808C815.667 45.5733 815.245 45.2533 814.936 44.848C814.627 44.432 814.456 43.9573 814.424 43.424H815.928C815.971 43.8613 816.173 44.2187 816.536 44.496C816.909 44.7733 817.395 44.912 817.992 44.912C818.547 44.912 818.984 44.7893 819.304 44.544C819.624 44.2987 819.784 43.9893 819.784 43.616C819.784 43.232 819.613 42.9493 819.272 42.768C818.931 42.576 818.403 42.3893 817.688 42.208C817.037 42.0373 816.504 41.8667 816.088 41.696C815.683 41.5147 815.331 41.2533 815.032 40.912C814.744 40.56 814.6 40.1013 814.6 39.536C814.6 39.088 814.733 38.6773 815 38.304C815.267 37.9307 815.645 37.6373 816.136 37.424C816.627 37.2 817.187 37.088 817.816 37.088C818.787 37.088 819.571 37.3333 820.168 37.824C820.765 38.3147 821.085 38.9867 821.128 39.84H819.672C819.64 39.3813 819.453 39.0133 819.112 38.736C818.781 38.4587 818.333 38.32 817.768 38.32C817.245 38.32 816.829 38.432 816.52 38.656C816.211 38.88 816.056 39.1733 816.056 39.536C816.056 39.824 816.147 40.064 816.328 40.256C816.52 40.4373 816.755 40.5867 817.032 40.704C817.32 40.8107 817.715 40.9333 818.216 41.072C818.845 41.2427 819.357 41.4133 819.752 41.584C820.147 41.744 820.483 41.9893 820.76 42.32C821.048 42.6507 821.197 43.0827 821.208 43.616C821.208 44.096 821.075 44.528 820.808 44.912C820.541 45.296 820.163 45.6 819.672 45.824C819.192 46.0373 818.637 46.144 818.008 46.144ZM831.001 34.848C832.217 34.848 833.268 35.0773 834.153 35.536C835.049 35.984 835.732 36.6293 836.201 37.472C836.681 38.3147 836.921 39.3067 836.921 40.448C836.921 41.5893 836.681 42.5813 836.201 43.424C835.732 44.256 835.049 44.896 834.153 45.344C833.268 45.7813 832.217 46 831.001 46H827.529V34.848H831.001ZM831.001 44.8C832.441 44.8 833.54 44.4213 834.297 43.664C835.054 42.896 835.433 41.824 835.433 40.448C835.433 39.0613 835.049 37.9787 834.281 37.2C833.524 36.4213 832.43 36.032 831.001 36.032H828.985V44.8H831.001ZM840.297 38.656C840.553 38.1547 840.916 37.7653 841.385 37.488C841.865 37.2107 842.447 37.072 843.129 37.072V38.576H842.745C841.113 38.576 840.297 39.4613 840.297 41.232V46H838.841V37.232H840.297V38.656ZM848.634 46.144C847.813 46.144 847.066 45.9573 846.394 45.584C845.733 45.2107 845.21 44.6827 844.826 44C844.453 43.3067 844.266 42.5067 844.266 41.6C844.266 40.704 844.458 39.9147 844.842 39.232C845.237 38.5387 845.77 38.0107 846.442 37.648C847.114 37.2747 847.866 37.088 848.698 37.088C849.53 37.088 850.282 37.2747 850.954 37.648C851.626 38.0107 852.154 38.5333 852.538 39.216C852.933 39.8987 853.13 40.6933 853.13 41.6C853.13 42.5067 852.927 43.3067 852.522 44C852.127 44.6827 851.589 45.2107 850.906 45.584C850.223 45.9573 849.466 46.144 848.634 46.144ZM848.634 44.864C849.157 44.864 849.647 44.7413 850.106 44.496C850.565 44.2507 850.933 43.8827 851.21 43.392C851.498 42.9013 851.642 42.304 851.642 41.6C851.642 40.896 851.503 40.2987 851.226 39.808C850.949 39.3173 850.586 38.9547 850.138 38.72C849.69 38.4747 849.205 38.352 848.682 38.352C848.149 38.352 847.658 38.4747 847.21 38.72C846.773 38.9547 846.421 39.3173 846.154 39.808C845.887 40.2987 845.754 40.896 845.754 41.6C845.754 42.3147 845.882 42.9173 846.138 43.408C846.405 43.8987 846.757 44.2667 847.194 44.512C847.631 44.7467 848.111 44.864 848.634 44.864ZM855.797 35.808C855.519 35.808 855.285 35.712 855.093 35.52C854.901 35.328 854.805 35.0933 854.805 34.816C854.805 34.5387 854.901 34.304 855.093 34.112C855.285 33.92 855.519 33.824 855.797 33.824C856.063 33.824 856.287 33.92 856.469 34.112C856.661 34.304 856.757 34.5387 856.757 34.816C856.757 35.0933 856.661 35.328 856.469 35.52C856.287 35.712 856.063 35.808 855.797 35.808ZM856.501 37.232V46H855.045V37.232H856.501ZM860.758 38.432V43.6C860.758 44.0267 860.849 44.3307 861.03 44.512C861.211 44.6827 861.526 44.768 861.974 44.768H863.046V46H861.734C860.923 46 860.315 45.8133 859.91 45.44C859.505 45.0667 859.302 44.4533 859.302 43.6V38.432H858.166V37.232H859.302V35.024H860.758V37.232H863.046V38.432H860.758ZM867.914 46.144C867.242 46.144 866.639 46.032 866.106 45.808C865.573 45.5733 865.151 45.2533 864.842 44.848C864.533 44.432 864.362 43.9573 864.33 43.424H865.834C865.877 43.8613 866.079 44.2187 866.442 44.496C866.815 44.7733 867.301 44.912 867.898 44.912C868.453 44.912 868.89 44.7893 869.21 44.544C869.53 44.2987 869.69 43.9893 869.69 43.616C869.69 43.232 869.519 42.9493 869.178 42.768C868.837 42.576 868.309 42.3893 867.594 42.208C866.943 42.0373 866.41 41.8667 865.994 41.696C865.589 41.5147 865.237 41.2533 864.938 40.912C864.65 40.56 864.506 40.1013 864.506 39.536C864.506 39.088 864.639 38.6773 864.906 38.304C865.173 37.9307 865.551 37.6373 866.042 37.424C866.533 37.2 867.093 37.088 867.722 37.088C868.693 37.088 869.477 37.3333 870.074 37.824C870.671 38.3147 870.991 38.9867 871.034 39.84H869.578C869.546 39.3813 869.359 39.0133 869.018 38.736C868.687 38.4587 868.239 38.32 867.674 38.32C867.151 38.32 866.735 38.432 866.426 38.656C866.117 38.88 865.962 39.1733 865.962 39.536C865.962 39.824 866.053 40.064 866.234 40.256C866.426 40.4373 866.661 40.5867 866.938 40.704C867.226 40.8107 867.621 40.9333 868.122 41.072C868.751 41.2427 869.263 41.4133 869.658 41.584C870.053 41.744 870.389 41.9893 870.666 42.32C870.954 42.6507 871.103 43.0827 871.114 43.616C871.114 44.096 870.981 44.528 870.714 44.912C870.447 45.296 870.069 45.6 869.578 45.824C869.098 46.0373 868.543 46.144 867.914 46.144ZM883.307 46L880.651 41.44H878.891V46H877.435V34.848H881.035C881.878 34.848 882.587 34.992 883.163 35.28C883.75 35.568 884.187 35.9573 884.475 36.448C884.763 36.9387 884.907 37.4987 884.907 38.128C884.907 38.896 884.683 39.5733 884.235 40.16C883.798 40.7467 883.136 41.136 882.251 41.328L885.051 46H883.307ZM878.891 40.272H881.035C881.824 40.272 882.416 40.08 882.811 39.696C883.206 39.3013 883.403 38.7787 883.403 38.128C883.403 37.4667 883.206 36.9547 882.811 36.592C882.427 36.2293 881.835 36.048 881.035 36.048H878.891V40.272ZM895.17 41.28C895.17 41.5573 895.154 41.8507 895.122 42.16H888.114C888.167 43.024 888.46 43.7013 888.994 44.192C889.538 44.672 890.194 44.912 890.962 44.912C891.591 44.912 892.114 44.768 892.53 44.48C892.956 44.1813 893.255 43.7867 893.426 43.296H894.994C894.759 44.1387 894.29 44.8267 893.586 45.36C892.882 45.8827 892.007 46.144 890.962 46.144C890.13 46.144 889.383 45.9573 888.722 45.584C888.071 45.2107 887.559 44.6827 887.186 44C886.812 43.3067 886.626 42.5067 886.626 41.6C886.626 40.6933 886.807 39.8987 887.17 39.216C887.532 38.5333 888.039 38.0107 888.69 37.648C889.351 37.2747 890.108 37.088 890.962 37.088C891.794 37.088 892.53 37.2693 893.17 37.632C893.81 37.9947 894.3 38.496 894.642 39.136C894.994 39.7653 895.17 40.48 895.17 41.28ZM893.666 40.976C893.666 40.4213 893.543 39.9467 893.298 39.552C893.052 39.1467 892.716 38.8427 892.29 38.64C891.874 38.4267 891.41 38.32 890.898 38.32C890.162 38.32 889.532 38.5547 889.01 39.024C888.498 39.4933 888.204 40.144 888.13 40.976H893.666ZM892.466 34.752L889.058 36.576V35.488L892.466 33.488V34.752ZM900.195 46.144C899.523 46.144 898.921 46.032 898.387 45.808C897.854 45.5733 897.433 45.2533 897.123 44.848C896.814 44.432 896.643 43.9573 896.611 43.424H898.115C898.158 43.8613 898.361 44.2187 898.723 44.496C899.097 44.7733 899.582 44.912 900.179 44.912C900.734 44.912 901.171 44.7893 901.491 44.544C901.811 44.2987 901.971 43.9893 901.971 43.616C901.971 43.232 901.801 42.9493 901.459 42.768C901.118 42.576 900.59 42.3893 899.875 42.208C899.225 42.0373 898.691 41.8667 898.275 41.696C897.87 41.5147 897.518 41.2533 897.219 40.912C896.931 40.56 896.787 40.1013 896.787 39.536C896.787 39.088 896.921 38.6773 897.187 38.304C897.454 37.9307 897.833 37.6373 898.323 37.424C898.814 37.2 899.374 37.088 900.003 37.088C900.974 37.088 901.758 37.3333 902.355 37.824C902.953 38.3147 903.273 38.9867 903.315 39.84H901.859C901.827 39.3813 901.641 39.0133 901.299 38.736C900.969 38.4587 900.521 38.32 899.955 38.32C899.433 38.32 899.017 38.432 898.707 38.656C898.398 38.88 898.243 39.1733 898.243 39.536C898.243 39.824 898.334 40.064 898.515 40.256C898.707 40.4373 898.942 40.5867 899.219 40.704C899.507 40.8107 899.902 40.9333 900.403 41.072C901.033 41.2427 901.545 41.4133 901.939 41.584C902.334 41.744 902.67 41.9893 902.947 42.32C903.235 42.6507 903.385 43.0827 903.395 43.616C903.395 44.096 903.262 44.528 902.995 44.912C902.729 45.296 902.35 45.6 901.859 45.824C901.379 46.0373 900.825 46.144 900.195 46.144ZM913.451 41.28C913.451 41.5573 913.435 41.8507 913.403 42.16H906.395C906.448 43.024 906.741 43.7013 907.275 44.192C907.819 44.672 908.475 44.912 909.243 44.912C909.872 44.912 910.395 44.768 910.811 44.48C911.237 44.1813 911.536 43.7867 911.707 43.296H913.275C913.04 44.1387 912.571 44.8267 911.867 45.36C911.163 45.8827 910.288 46.144 909.243 46.144C908.411 46.144 907.664 45.9573 907.003 45.584C906.352 45.2107 905.84 44.6827 905.467 44C905.093 43.3067 904.907 42.5067 904.907 41.6C904.907 40.6933 905.088 39.8987 905.451 39.216C905.813 38.5333 906.32 38.0107 906.971 37.648C907.632 37.2747 908.389 37.088 909.243 37.088C910.075 37.088 910.811 37.2693 911.451 37.632C912.091 37.9947 912.581 38.496 912.923 39.136C913.275 39.7653 913.451 40.48 913.451 41.28ZM911.947 40.976C911.947 40.4213 911.824 39.9467 911.579 39.552C911.333 39.1467 910.997 38.8427 910.571 38.64C910.155 38.4267 909.691 38.32 909.179 38.32C908.443 38.32 907.813 38.5547 907.291 39.024C906.779 39.4933 906.485 40.144 906.411 40.976H911.947ZM916.829 38.656C917.085 38.1547 917.447 37.7653 917.917 37.488C918.397 37.2107 918.978 37.072 919.661 37.072V38.576H919.277C917.645 38.576 916.829 39.4613 916.829 41.232V46H915.373V37.232H916.829V38.656ZM924.605 44.656L927.325 37.232H928.877L925.437 46H923.741L920.301 37.232H921.869L924.605 44.656ZM938.31 41.28C938.31 41.5573 938.294 41.8507 938.262 42.16H931.254C931.307 43.024 931.601 43.7013 932.134 44.192C932.678 44.672 933.334 44.912 934.102 44.912C934.731 44.912 935.254 44.768 935.67 44.48C936.097 44.1813 936.395 43.7867 936.566 43.296H938.134C937.899 44.1387 937.43 44.8267 936.726 45.36C936.022 45.8827 935.147 46.144 934.102 46.144C933.27 46.144 932.523 45.9573 931.862 45.584C931.211 45.2107 930.699 44.6827 930.326 44C929.953 43.3067 929.766 42.5067 929.766 41.6C929.766 40.6933 929.947 39.8987 930.31 39.216C930.673 38.5333 931.179 38.0107 931.83 37.648C932.491 37.2747 933.249 37.088 934.102 37.088C934.934 37.088 935.67 37.2693 936.31 37.632C936.95 37.9947 937.441 38.496 937.782 39.136C938.134 39.7653 938.31 40.48 938.31 41.28ZM936.806 40.976C936.806 40.4213 936.683 39.9467 936.438 39.552C936.193 39.1467 935.857 38.8427 935.43 38.64C935.014 38.4267 934.55 38.32 934.038 38.32C933.302 38.32 932.673 38.5547 932.15 39.024C931.638 39.4933 931.345 40.144 931.27 40.976H936.806ZM935.606 34.752L932.198 36.576V35.488L935.606 33.488V34.752ZM943.336 46.144C942.664 46.144 942.061 46.032 941.528 45.808C940.995 45.5733 940.573 45.2533 940.264 44.848C939.955 44.432 939.784 43.9573 939.752 43.424H941.256C941.299 43.8613 941.501 44.2187 941.864 44.496C942.237 44.7733 942.723 44.912 943.32 44.912C943.875 44.912 944.312 44.7893 944.632 44.544C944.952 44.2987 945.112 43.9893 945.112 43.616C945.112 43.232 944.941 42.9493 944.6 42.768C944.259 42.576 943.731 42.3893 943.016 42.208C942.365 42.0373 941.832 41.8667 941.416 41.696C941.011 41.5147 940.659 41.2533 940.36 40.912C940.072 40.56 939.928 40.1013 939.928 39.536C939.928 39.088 940.061 38.6773 940.328 38.304C940.595 37.9307 940.973 37.6373 941.464 37.424C941.955 37.2 942.515 37.088 943.144 37.088C944.115 37.088 944.899 37.3333 945.496 37.824C946.093 38.3147 946.413 38.9867 946.456 39.84H945C944.968 39.3813 944.781 39.0133 944.44 38.736C944.109 38.4587 943.661 38.32 943.096 38.32C942.573 38.32 942.157 38.432 941.848 38.656C941.539 38.88 941.384 39.1733 941.384 39.536C941.384 39.824 941.475 40.064 941.656 40.256C941.848 40.4373 942.083 40.5867 942.36 40.704C942.648 40.8107 943.043 40.9333 943.544 41.072C944.173 41.2427 944.685 41.4133 945.08 41.584C945.475 41.744 945.811 41.9893 946.088 42.32C946.376 42.6507 946.525 43.0827 946.536 43.616C946.536 44.096 946.403 44.528 946.136 44.912C945.869 45.296 945.491 45.6 945 45.824C944.52 46.0373 943.965 46.144 943.336 46.144ZM949.055 46.096C948.778 46.096 948.543 46 948.351 45.808C948.159 45.616 948.063 45.3813 948.063 45.104C948.063 44.8267 948.159 44.592 948.351 44.4C948.543 44.208 948.778 44.112 949.055 44.112C949.322 44.112 949.546 44.208 949.727 44.4C949.919 44.592 950.015 44.8267 950.015 45.104C950.015 45.3813 949.919 45.616 949.727 45.808C949.546 46 949.322 46.096 949.055 46.096Z" fill="white"/>
</svg>
