<svg width="104" height="19" viewBox="0 0 104 19" fill="none" xmlns="http://www.w3.org/2000/svg">
<path d="M10.192 4.504V13.5H9.009V6.792L6.019 13.5H5.187L2.184 6.779V13.5H1.001V4.504H2.275L5.603 11.94L8.931 4.504H10.192ZM18.6983 9.665C18.6983 9.89033 18.6853 10.1287 18.6593 10.38H12.9653C13.0086 11.082 13.2469 11.6323 13.6803 12.031C14.1223 12.421 14.6553 12.616 15.2793 12.616C15.7906 12.616 16.2153 12.499 16.5533 12.265C16.8999 12.0223 17.1426 11.7017 17.2813 11.303H18.5553C18.3646 11.9877 17.9833 12.5467 17.4113 12.98C16.8393 13.4047 16.1286 13.617 15.2793 13.617C14.6033 13.617 13.9966 13.4653 13.4593 13.162C12.9306 12.8587 12.5146 12.4297 12.2113 11.875C11.9079 11.3117 11.7563 10.6617 11.7563 9.925C11.7563 9.18833 11.9036 8.54267 12.1983 7.988C12.4929 7.43333 12.9046 7.00867 13.4333 6.714C13.9706 6.41067 14.5859 6.259 15.2793 6.259C15.9553 6.259 16.5533 6.40633 17.0733 6.701C17.5933 6.99567 17.9919 7.403 18.2693 7.923C18.5553 8.43433 18.6983 9.015 18.6983 9.665ZM17.4763 9.418C17.4763 8.96733 17.3766 8.58167 17.1773 8.261C16.9779 7.93167 16.7049 7.68467 16.3583 7.52C16.0203 7.34667 15.6433 7.26 15.2273 7.26C14.6293 7.26 14.1179 7.45067 13.6933 7.832C13.2773 8.21333 13.0389 8.742 12.9783 9.418H17.4763ZM20.8708 5.219C20.6455 5.219 20.4548 5.141 20.2988 4.985C20.1428 4.829 20.0648 4.63833 20.0648 4.413C20.0648 4.18767 20.1428 3.997 20.2988 3.841C20.4548 3.685 20.6455 3.607 20.8708 3.607C21.0875 3.607 21.2695 3.685 21.4168 3.841C21.5728 3.997 21.6508 4.18767 21.6508 4.413C21.6508 4.63833 21.5728 4.829 21.4168 4.985C21.2695 5.141 21.0875 5.219 20.8708 5.219ZM21.4428 6.376V13.5H20.2598V6.376H21.4428ZM24.642 3.88V13.5H23.459V3.88H24.642ZM27.8412 3.88V13.5H26.6582V3.88H27.8412ZM36.3574 9.665C36.3574 9.89033 36.3444 10.1287 36.3184 10.38H30.6244C30.6678 11.082 30.9061 11.6323 31.3394 12.031C31.7814 12.421 32.3144 12.616 32.9384 12.616C33.4498 12.616 33.8744 12.499 34.2124 12.265C34.5591 12.0223 34.8018 11.7017 34.9404 11.303H36.2144C36.0238 11.9877 35.6424 12.5467 35.0704 12.98C34.4984 13.4047 33.7878 13.617 32.9384 13.617C32.2624 13.617 31.6558 13.4653 31.1184 13.162C30.5898 12.8587 30.1738 12.4297 29.8704 11.875C29.5671 11.3117 29.4154 10.6617 29.4154 9.925C29.4154 9.18833 29.5628 8.54267 29.8574 7.988C30.1521 7.43333 30.5638 7.00867 31.0924 6.714C31.6298 6.41067 32.2451 6.259 32.9384 6.259C33.6144 6.259 34.2124 6.40633 34.7324 6.701C35.2524 6.99567 35.6511 7.403 35.9284 7.923C36.2144 8.43433 36.3574 9.015 36.3574 9.665ZM35.1354 9.418C35.1354 8.96733 35.0358 8.58167 34.8364 8.261C34.6371 7.93167 34.3641 7.68467 34.0174 7.52C33.6794 7.34667 33.3024 7.26 32.8864 7.26C32.2884 7.26 31.7771 7.45067 31.3524 7.832C30.9364 8.21333 30.6981 8.742 30.6374 9.418H35.1354ZM44.237 6.376V13.5H43.054V12.447C42.8286 12.811 42.5123 13.097 42.105 13.305C41.7063 13.5043 41.2643 13.604 40.779 13.604C40.2243 13.604 39.726 13.4913 39.284 13.266C38.842 13.032 38.491 12.6853 38.231 12.226C37.9796 11.7667 37.854 11.2077 37.854 10.549V6.376H39.024V10.393C39.024 11.095 39.2016 11.6367 39.557 12.018C39.9123 12.3907 40.3976 12.577 41.013 12.577C41.6456 12.577 42.144 12.382 42.508 11.992C42.872 11.602 43.054 11.0343 43.054 10.289V6.376H44.237ZM47.4174 7.533C47.6254 7.12567 47.9201 6.80933 48.3014 6.584C48.6914 6.35867 49.1637 6.246 49.7184 6.246V7.468H49.4064C48.0804 7.468 47.4174 8.18733 47.4174 9.626V13.5H46.2344V6.376H47.4174V7.533ZM53.606 13.617C53.06 13.617 52.5703 13.526 52.137 13.344C51.7037 13.1533 51.3613 12.8933 51.11 12.564C50.8587 12.226 50.72 11.8403 50.694 11.407H51.916C51.9507 11.7623 52.1153 12.0527 52.41 12.278C52.7133 12.5033 53.1077 12.616 53.593 12.616C54.0437 12.616 54.399 12.5163 54.659 12.317C54.919 12.1177 55.049 11.8663 55.049 11.563C55.049 11.251 54.9103 11.0213 54.633 10.874C54.3557 10.718 53.9267 10.5663 53.346 10.419C52.8173 10.2803 52.384 10.1417 52.046 10.003C51.7167 9.85567 51.4307 9.64333 51.188 9.366C50.954 9.08 50.837 8.70733 50.837 8.248C50.837 7.884 50.9453 7.55033 51.162 7.247C51.3787 6.94367 51.6863 6.70533 52.085 6.532C52.4837 6.35 52.9387 6.259 53.45 6.259C54.2387 6.259 54.8757 6.45833 55.361 6.857C55.8463 7.25567 56.1063 7.80167 56.141 8.495H54.958C54.932 8.12233 54.7803 7.82333 54.503 7.598C54.2343 7.37267 53.8703 7.26 53.411 7.26C52.9863 7.26 52.6483 7.351 52.397 7.533C52.1457 7.715 52.02 7.95333 52.02 8.248C52.02 8.482 52.0937 8.677 52.241 8.833C52.397 8.98033 52.5877 9.10167 52.813 9.197C53.047 9.28367 53.3677 9.38333 53.775 9.496C54.2863 9.63467 54.7023 9.77333 55.023 9.912C55.3437 10.042 55.6167 10.2413 55.842 10.51C56.076 10.7787 56.1973 11.1297 56.206 11.563C56.206 11.953 56.0977 12.304 55.881 12.616C55.6643 12.928 55.3567 13.175 54.958 13.357C54.568 13.5303 54.1173 13.617 53.606 13.617ZM63.9938 12.408L66.2038 6.376H67.4648L64.6698 13.5H63.2918L60.4968 6.376H61.7708L63.9938 12.408ZM75.1289 9.665C75.1289 9.89033 75.1159 10.1287 75.0899 10.38H69.3959C69.4393 11.082 69.6776 11.6323 70.1109 12.031C70.5529 12.421 71.0859 12.616 71.7099 12.616C72.2213 12.616 72.6459 12.499 72.9839 12.265C73.3306 12.0223 73.5733 11.7017 73.7119 11.303H74.9859C74.7953 11.9877 74.4139 12.5467 73.8419 12.98C73.2699 13.4047 72.5593 13.617 71.7099 13.617C71.0339 13.617 70.4273 13.4653 69.8899 13.162C69.3613 12.8587 68.9453 12.4297 68.6419 11.875C68.3386 11.3117 68.1869 10.6617 68.1869 9.925C68.1869 9.18833 68.3343 8.54267 68.6289 7.988C68.9236 7.43333 69.3353 7.00867 69.8639 6.714C70.4013 6.41067 71.0166 6.259 71.7099 6.259C72.3859 6.259 72.9839 6.40633 73.5039 6.701C74.0239 6.99567 74.4226 7.403 74.6999 7.923C74.9859 8.43433 75.1289 9.015 75.1289 9.665ZM73.9069 9.418C73.9069 8.96733 73.8073 8.58167 73.6079 8.261C73.4086 7.93167 73.1356 7.68467 72.7889 7.52C72.4509 7.34667 72.0739 7.26 71.6579 7.26C71.0599 7.26 70.5486 7.45067 70.1239 7.832C69.7079 8.21333 69.4696 8.742 69.4089 9.418H73.9069ZM80.1615 6.246C81.0281 6.246 81.7301 6.51033 82.2675 7.039C82.8048 7.559 83.0735 8.313 83.0735 9.301V13.5H81.9035V9.47C81.9035 8.75933 81.7258 8.21767 81.3705 7.845C81.0151 7.46367 80.5298 7.273 79.9145 7.273C79.2905 7.273 78.7921 7.468 78.4195 7.858C78.0555 8.248 77.8735 8.81567 77.8735 9.561V13.5H76.6905V6.376H77.8735V7.39C78.1075 7.026 78.4238 6.74433 78.8225 6.545C79.2298 6.34567 79.6761 6.246 80.1615 6.246ZM86.4489 7.351V11.55C86.4489 11.8967 86.5225 12.1437 86.6699 12.291C86.8172 12.4297 87.0729 12.499 87.4369 12.499H88.3079V13.5H87.2419C86.5832 13.5 86.0892 13.3483 85.7599 13.045C85.4305 12.7417 85.2659 12.2433 85.2659 11.55V7.351H84.3429V6.376H85.2659V4.582H86.4489V6.376H88.3079V7.351H86.4489ZM96.2412 9.665C96.2412 9.89033 96.2282 10.1287 96.2022 10.38H90.5082C90.5516 11.082 90.7899 11.6323 91.2232 12.031C91.6652 12.421 92.1982 12.616 92.8222 12.616C93.3336 12.616 93.7582 12.499 94.0962 12.265C94.4429 12.0223 94.6856 11.7017 94.8242 11.303H96.0982C95.9076 11.9877 95.5262 12.5467 94.9542 12.98C94.3822 13.4047 93.6716 13.617 92.8222 13.617C92.1462 13.617 91.5396 13.4653 91.0022 13.162C90.4736 12.8587 90.0576 12.4297 89.7542 11.875C89.4509 11.3117 89.2992 10.6617 89.2992 9.925C89.2992 9.18833 89.4466 8.54267 89.7412 7.988C90.0359 7.43333 90.4476 7.00867 90.9762 6.714C91.5136 6.41067 92.1289 6.259 92.8222 6.259C93.4982 6.259 94.0962 6.40633 94.6162 6.701C95.1362 6.99567 95.5349 7.403 95.8122 7.923C96.0982 8.43433 96.2412 9.015 96.2412 9.665ZM95.0192 9.418C95.0192 8.96733 94.9196 8.58167 94.7202 8.261C94.5209 7.93167 94.2479 7.68467 93.9012 7.52C93.5632 7.34667 93.1862 7.26 92.7702 7.26C92.1722 7.26 91.6609 7.45067 91.2362 7.832C90.8202 8.21333 90.5819 8.742 90.5212 9.418H95.0192ZM100.325 13.617C99.7788 13.617 99.2891 13.526 98.8558 13.344C98.4224 13.1533 98.0801 12.8933 97.8288 12.564C97.5774 12.226 97.4388 11.8403 97.4128 11.407H98.6348C98.6694 11.7623 98.8341 12.0527 99.1288 12.278C99.4321 12.5033 99.8264 12.616 100.312 12.616C100.762 12.616 101.118 12.5163 101.378 12.317C101.638 12.1177 101.768 11.8663 101.768 11.563C101.768 11.251 101.629 11.0213 101.352 10.874C101.074 10.718 100.645 10.5663 100.065 10.419C99.5361 10.2803 99.1028 10.1417 98.7648 10.003C98.4354 9.85567 98.1494 9.64333 97.9068 9.366C97.6728 9.08 97.5558 8.70733 97.5558 8.248C97.5558 7.884 97.6641 7.55033 97.8808 7.247C98.0974 6.94367 98.4051 6.70533 98.8038 6.532C99.2024 6.35 99.6574 6.259 100.169 6.259C100.957 6.259 101.594 6.45833 102.08 6.857C102.565 7.25567 102.825 7.80167 102.86 8.495H101.677C101.651 8.12233 101.499 7.82333 101.222 7.598C100.953 7.37267 100.589 7.26 100.13 7.26C99.7051 7.26 99.3671 7.351 99.1158 7.533C98.8644 7.715 98.7388 7.95333 98.7388 8.248C98.7388 8.482 98.8124 8.677 98.9598 8.833C99.1158 8.98033 99.3064 9.10167 99.5318 9.197C99.7658 9.28367 100.086 9.38333 100.494 9.496C101.005 9.63467 101.421 9.77333 101.742 9.912C102.062 10.042 102.335 10.2413 102.561 10.51C102.795 10.7787 102.916 11.1297 102.925 11.563C102.925 11.953 102.816 12.304 102.6 12.616C102.383 12.928 102.075 13.175 101.677 13.357C101.287 13.5303 100.836 13.617 100.325 13.617Z" fill="white"/>
</svg>
