<svg width="122" height="19" viewBox="0 0 122 19" fill="none" xmlns="http://www.w3.org/2000/svg">
<path d="M8.125 13.5H6.942L2.184 6.285V13.5H1.001V4.426H2.184L6.942 11.628V4.426H8.125V13.5ZM13.2486 13.617C12.5813 13.617 11.9746 13.4653 11.4286 13.162C10.8913 12.8587 10.4666 12.4297 10.1546 11.875C9.85129 11.3117 9.69963 10.6617 9.69963 9.925C9.69963 9.197 9.85563 8.55567 10.1676 8.001C10.4883 7.43767 10.9216 7.00867 11.4676 6.714C12.0136 6.41067 12.6246 6.259 13.3006 6.259C13.9766 6.259 14.5876 6.41067 15.1336 6.714C15.6796 7.00867 16.1086 7.43333 16.4206 7.988C16.7413 8.54267 16.9016 9.18833 16.9016 9.925C16.9016 10.6617 16.737 11.3117 16.4076 11.875C16.087 12.4297 15.6493 12.8587 15.0946 13.162C14.54 13.4653 13.9246 13.617 13.2486 13.617ZM13.2486 12.577C13.6733 12.577 14.072 12.4773 14.4446 12.278C14.8173 12.0787 15.1163 11.7797 15.3416 11.381C15.5756 10.9823 15.6926 10.497 15.6926 9.925C15.6926 9.353 15.58 8.86767 15.3546 8.469C15.1293 8.07033 14.8346 7.77567 14.4706 7.585C14.1066 7.38567 13.7123 7.286 13.2876 7.286C12.8543 7.286 12.4556 7.38567 12.0916 7.585C11.7363 7.77567 11.4503 8.07033 11.2336 8.469C11.017 8.86767 10.9086 9.353 10.9086 9.925C10.9086 10.5057 11.0126 10.9953 11.2206 11.394C11.4373 11.7927 11.7233 12.0917 12.0786 12.291C12.434 12.4817 12.824 12.577 13.2486 12.577ZM24.7751 6.376V13.5H23.5921V12.447C23.3667 12.811 23.0504 13.097 22.6431 13.305C22.2444 13.5043 21.8024 13.604 21.3171 13.604C20.7624 13.604 20.2641 13.4913 19.8221 13.266C19.3801 13.032 19.0291 12.6853 18.7691 12.226C18.5177 11.7667 18.3921 11.2077 18.3921 10.549V6.376H19.5621V10.393C19.5621 11.095 19.7397 11.6367 20.0951 12.018C20.4504 12.3907 20.9357 12.577 21.5511 12.577C22.1837 12.577 22.6821 12.382 23.0461 11.992C23.4101 11.602 23.5921 11.0343 23.5921 10.289V6.376H24.7751ZM29.4245 12.408L31.6345 6.376H32.8955L30.1005 13.5H28.7225L25.9275 6.376H27.2015L29.4245 12.408ZM40.5596 9.665C40.5596 9.89033 40.5466 10.1287 40.5206 10.38H34.8266C34.8699 11.082 35.1083 11.6323 35.5416 12.031C35.9836 12.421 36.5166 12.616 37.1406 12.616C37.6519 12.616 38.0766 12.499 38.4146 12.265C38.7613 12.0223 39.0039 11.7017 39.1426 11.303H40.4166C40.2259 11.9877 39.8446 12.5467 39.2726 12.98C38.7006 13.4047 37.9899 13.617 37.1406 13.617C36.4646 13.617 35.8579 13.4653 35.3206 13.162C34.7919 12.8587 34.3759 12.4297 34.0726 11.875C33.7693 11.3117 33.6176 10.6617 33.6176 9.925C33.6176 9.18833 33.7649 8.54267 34.0596 7.988C34.3543 7.43333 34.7659 7.00867 35.2946 6.714C35.8319 6.41067 36.4473 6.259 37.1406 6.259C37.8166 6.259 38.4146 6.40633 38.9346 6.701C39.4546 6.99567 39.8533 7.403 40.1306 7.923C40.4166 8.43433 40.5596 9.015 40.5596 9.665ZM39.3376 9.418C39.3376 8.96733 39.2379 8.58167 39.0386 8.261C38.8393 7.93167 38.5663 7.68467 38.2196 7.52C37.8816 7.34667 37.5046 7.26 37.0886 7.26C36.4906 7.26 35.9793 7.45067 35.5546 7.832C35.1386 8.21333 34.9003 8.742 34.8396 9.418H39.3376ZM41.6791 9.912C41.6791 9.184 41.8265 8.547 42.1211 8.001C42.4158 7.44633 42.8188 7.01733 43.3301 6.714C43.8501 6.41067 44.4265 6.259 45.0591 6.259C45.6831 6.259 46.2248 6.39333 46.6841 6.662C47.1435 6.93067 47.4858 7.26867 47.7111 7.676V6.376H48.9071V13.5H47.7111V12.174C47.4771 12.59 47.1261 12.9367 46.6581 13.214C46.1988 13.4827 45.6615 13.617 45.0461 13.617C44.4135 13.617 43.8415 13.461 43.3301 13.149C42.8188 12.837 42.4158 12.3993 42.1211 11.836C41.8265 11.2727 41.6791 10.6313 41.6791 9.912ZM47.7111 9.925C47.7111 9.38767 47.6028 8.91967 47.3861 8.521C47.1695 8.12233 46.8748 7.819 46.5021 7.611C46.1381 7.39433 45.7351 7.286 45.2931 7.286C44.8511 7.286 44.4481 7.39 44.0841 7.598C43.7201 7.806 43.4298 8.10933 43.2131 8.508C42.9965 8.90667 42.8881 9.37467 42.8881 9.912C42.8881 10.458 42.9965 10.9347 43.2131 11.342C43.4298 11.7407 43.7201 12.0483 44.0841 12.265C44.4481 12.473 44.8511 12.577 45.2931 12.577C45.7351 12.577 46.1381 12.473 46.5021 12.265C46.8748 12.0483 47.1695 11.7407 47.3861 11.342C47.6028 10.9347 47.7111 10.4623 47.7111 9.925ZM57.2243 6.376V13.5H56.0413V12.447C55.8159 12.811 55.4996 13.097 55.0923 13.305C54.6936 13.5043 54.2516 13.604 53.7663 13.604C53.2116 13.604 52.7133 13.4913 52.2713 13.266C51.8293 13.032 51.4783 12.6853 51.2183 12.226C50.9669 11.7667 50.8413 11.2077 50.8413 10.549V6.376H52.0113V10.393C52.0113 11.095 52.1889 11.6367 52.5443 12.018C52.8996 12.3907 53.3849 12.577 54.0003 12.577C54.6329 12.577 55.1313 12.382 55.4953 11.992C55.8593 11.602 56.0413 11.0343 56.0413 10.289V6.376H57.2243ZM62.9397 13.5L61.2497 10.848L59.6247 13.5H58.3897L60.6907 9.964L58.3897 6.376H59.7287L61.4187 9.015L63.0307 6.376H64.2657L61.9777 9.899L64.2787 13.5H62.9397ZM70.0912 7.689C70.3252 7.28167 70.6719 6.94367 71.1312 6.675C71.5992 6.39767 72.1409 6.259 72.7562 6.259C73.3889 6.259 73.9609 6.41067 74.4722 6.714C74.9922 7.01733 75.3996 7.44633 75.6942 8.001C75.9889 8.547 76.1362 9.184 76.1362 9.912C76.1362 10.6313 75.9889 11.2727 75.6942 11.836C75.3996 12.3993 74.9922 12.837 74.4722 13.149C73.9609 13.461 73.3889 13.617 72.7562 13.617C72.1496 13.617 71.6122 13.4827 71.1442 13.214C70.6849 12.9367 70.3339 12.5943 70.0912 12.187V16.88H68.9082V6.376H70.0912V7.689ZM74.9272 9.912C74.9272 9.37467 74.8189 8.90667 74.6022 8.508C74.3856 8.10933 74.0909 7.806 73.7182 7.598C73.3542 7.39 72.9512 7.286 72.5092 7.286C72.0759 7.286 71.6729 7.39433 71.3002 7.611C70.9362 7.819 70.6416 8.12667 70.4162 8.534C70.1996 8.93267 70.0912 9.39633 70.0912 9.925C70.0912 10.4623 70.1996 10.9347 70.4162 11.342C70.6416 11.7407 70.9362 12.0483 71.3002 12.265C71.6729 12.473 72.0759 12.577 72.5092 12.577C72.9512 12.577 73.3542 12.473 73.7182 12.265C74.0909 12.0483 74.3856 11.7407 74.6022 11.342C74.8189 10.9347 74.9272 10.458 74.9272 9.912ZM78.8764 7.533C79.0844 7.12567 79.379 6.80933 79.7604 6.584C80.1504 6.35867 80.6227 6.246 81.1774 6.246V7.468H80.8654C79.5394 7.468 78.8764 8.18733 78.8764 9.626V13.5H77.6934V6.376H78.8764V7.533ZM85.65 13.617C84.9827 13.617 84.376 13.4653 83.83 13.162C83.2927 12.8587 82.868 12.4297 82.556 11.875C82.2527 11.3117 82.101 10.6617 82.101 9.925C82.101 9.197 82.257 8.55567 82.569 8.001C82.8897 7.43767 83.323 7.00867 83.869 6.714C84.415 6.41067 85.026 6.259 85.702 6.259C86.378 6.259 86.989 6.41067 87.535 6.714C88.081 7.00867 88.51 7.43333 88.822 7.988C89.1427 8.54267 89.303 9.18833 89.303 9.925C89.303 10.6617 89.1383 11.3117 88.809 11.875C88.4883 12.4297 88.0507 12.8587 87.496 13.162C86.9413 13.4653 86.326 13.617 85.65 13.617ZM85.65 12.577C86.0747 12.577 86.4733 12.4773 86.846 12.278C87.2187 12.0787 87.5177 11.7797 87.743 11.381C87.977 10.9823 88.094 10.497 88.094 9.925C88.094 9.353 87.9813 8.86767 87.756 8.469C87.5307 8.07033 87.236 7.77567 86.872 7.585C86.508 7.38567 86.1137 7.286 85.689 7.286C85.2557 7.286 84.857 7.38567 84.493 7.585C84.1377 7.77567 83.8517 8.07033 83.635 8.469C83.4183 8.86767 83.31 9.353 83.31 9.925C83.31 10.5057 83.414 10.9953 83.622 11.394C83.8387 11.7927 84.1247 12.0917 84.48 12.291C84.8353 12.4817 85.2253 12.577 85.65 12.577ZM90.4164 9.912C90.4164 9.184 90.5638 8.547 90.8584 8.001C91.1531 7.44633 91.5561 7.01733 92.0674 6.714C92.5874 6.41067 93.1681 6.259 93.8094 6.259C94.3641 6.259 94.8798 6.389 95.3564 6.649C95.8331 6.90033 96.1971 7.234 96.4484 7.65V3.88H97.6444V13.5H96.4484V12.161C96.2144 12.5857 95.8678 12.9367 95.4084 13.214C94.9491 13.4827 94.4118 13.617 93.7964 13.617C93.1638 13.617 92.5874 13.461 92.0674 13.149C91.5561 12.837 91.1531 12.3993 90.8584 11.836C90.5638 11.2727 90.4164 10.6313 90.4164 9.912ZM96.4484 9.925C96.4484 9.38767 96.3401 8.91967 96.1234 8.521C95.9068 8.12233 95.6121 7.819 95.2394 7.611C94.8754 7.39433 94.4724 7.286 94.0304 7.286C93.5884 7.286 93.1854 7.39 92.8214 7.598C92.4574 7.806 92.1671 8.10933 91.9504 8.508C91.7338 8.90667 91.6254 9.37467 91.6254 9.912C91.6254 10.458 91.7338 10.9347 91.9504 11.342C92.1671 11.7407 92.4574 12.0483 92.8214 12.265C93.1854 12.473 93.5884 12.577 94.0304 12.577C94.4724 12.577 94.8754 12.473 95.2394 12.265C95.6121 12.0483 95.9068 11.7407 96.1234 11.342C96.3401 10.9347 96.4484 10.4623 96.4484 9.925ZM105.962 6.376V13.5H104.779V12.447C104.553 12.811 104.237 13.097 103.83 13.305C103.431 13.5043 102.989 13.604 102.504 13.604C101.949 13.604 101.451 13.4913 101.009 13.266C100.567 13.032 100.216 12.6853 99.9556 12.226C99.7042 11.7667 99.5786 11.2077 99.5786 10.549V6.376H100.749V10.393C100.749 11.095 100.926 11.6367 101.282 12.018C101.637 12.3907 102.122 12.577 102.738 12.577C103.37 12.577 103.869 12.382 104.233 11.992C104.597 11.602 104.779 11.0343 104.779 10.289V6.376H105.962ZM108.57 5.219C108.345 5.219 108.154 5.141 107.998 4.985C107.842 4.829 107.764 4.63833 107.764 4.413C107.764 4.18767 107.842 3.997 107.998 3.841C108.154 3.685 108.345 3.607 108.57 3.607C108.787 3.607 108.969 3.685 109.116 3.841C109.272 3.997 109.35 4.18767 109.35 4.413C109.35 4.63833 109.272 4.829 109.116 4.985C108.969 5.141 108.787 5.219 108.57 5.219ZM109.142 6.376V13.5H107.959V6.376H109.142ZM112.601 7.351V11.55C112.601 11.8967 112.675 12.1437 112.822 12.291C112.97 12.4297 113.225 12.499 113.589 12.499H114.46V13.5H113.394C112.736 13.5 112.242 13.3483 111.912 13.045C111.583 12.7417 111.418 12.2433 111.418 11.55V7.351H110.495V6.376H111.418V4.582H112.601V6.376H114.46V7.351H112.601ZM118.416 13.617C117.87 13.617 117.38 13.526 116.947 13.344C116.513 13.1533 116.171 12.8933 115.92 12.564C115.668 12.226 115.53 11.8403 115.504 11.407H116.726C116.76 11.7623 116.925 12.0527 117.22 12.278C117.523 12.5033 117.917 12.616 118.403 12.616C118.853 12.616 119.209 12.5163 119.469 12.317C119.729 12.1177 119.859 11.8663 119.859 11.563C119.859 11.251 119.72 11.0213 119.443 10.874C119.165 10.718 118.736 10.5663 118.156 10.419C117.627 10.2803 117.194 10.1417 116.856 10.003C116.526 9.85567 116.24 9.64333 115.998 9.366C115.764 9.08 115.647 8.70733 115.647 8.248C115.647 7.884 115.755 7.55033 115.972 7.247C116.188 6.94367 116.496 6.70533 116.895 6.532C117.293 6.35 117.748 6.259 118.26 6.259C119.048 6.259 119.685 6.45833 120.171 6.857C120.656 7.25567 120.916 7.80167 120.951 8.495H119.768C119.742 8.12233 119.59 7.82333 119.313 7.598C119.044 7.37267 118.68 7.26 118.221 7.26C117.796 7.26 117.458 7.351 117.207 7.533C116.955 7.715 116.83 7.95333 116.83 8.248C116.83 8.482 116.903 8.677 117.051 8.833C117.207 8.98033 117.397 9.10167 117.623 9.197C117.857 9.28367 118.177 9.38333 118.585 9.496C119.096 9.63467 119.512 9.77333 119.833 9.912C120.153 10.042 120.426 10.2413 120.652 10.51C120.886 10.7787 121.007 11.1297 121.016 11.563C121.016 11.953 120.907 12.304 120.691 12.616C120.474 12.928 120.166 13.175 119.768 13.357C119.378 13.5303 118.927 13.617 118.416 13.617Z" fill="white"/>
</svg>
