<svg width="300" height="260" viewBox="0 0 300 260" fill="none" xmlns="http://www.w3.org/2000/svg">
<g clip-path="url(#clip0_442_280)">
<path d="M107.891 35.1887C107.891 38.7284 106.428 41.0217 103.478 42.1185C102.747 42.3927 101.991 42.5672 101.209 42.5672L107.79 51.5162H103.503L95.7378 40.4235H95.6622L95.6874 51.5661H92.2584L92.208 27.5359H99.4694C102.293 27.5359 104.386 28.209 105.722 29.5301C107.159 30.9261 107.891 32.8206 107.891 35.1887ZM104.462 35.1887C104.462 33.7429 103.957 32.6211 102.949 31.8733C101.89 31.1006 100.579 30.6768 99.2677 30.7266H95.6622L95.6874 39.9249H98.0322C98.8138 39.9249 99.5702 39.8501 100.352 39.7006C101.058 39.551 101.739 39.3266 102.369 39.0026C103.024 38.6785 103.554 38.18 103.907 37.5319C104.285 36.8339 104.487 36.0113 104.462 35.1887Z" fill="white"/>
<path d="M128.162 42.293C128.162 42.8664 128.137 43.4148 128.061 43.9881L113.538 44.013C113.841 45.3591 114.572 46.6055 115.631 47.5278C116.64 48.4252 117.951 48.9237 119.312 48.8988C120.346 48.8988 121.354 48.6246 122.237 48.0762C123.119 47.5527 123.851 46.78 124.304 45.8826H127.607C126.977 47.6524 125.842 49.198 124.33 50.2948C122.842 51.3916 121.052 51.9898 119.211 51.9649C116.74 51.9649 114.623 51.0177 112.883 49.173C111.168 47.3782 110.236 45.0101 110.261 42.5423C110.21 40.0745 111.143 37.6814 112.832 35.8617C116.085 32.3719 121.581 32.1475 125.111 35.3632C125.263 35.4878 125.389 35.6374 125.54 35.7869C127.254 37.5319 128.187 39.8751 128.162 42.293ZM124.859 41.3956C124.783 39.9498 124.128 38.6287 123.044 37.6814C120.875 35.6623 117.497 35.6623 115.354 37.6814C114.27 38.6287 113.614 39.9748 113.538 41.4206L124.859 41.3956Z" fill="white"/>
<path d="M147.021 51.4664H143.718L143.693 41.7197C143.693 37.9805 142.231 36.1359 139.306 36.1359C137.768 36.1359 136.608 36.6594 135.852 37.7063C135.095 38.7533 134.692 40.0745 134.692 41.6948L134.717 51.4664H131.414L131.389 33.5434H134.465V35.4629H134.516C135.701 33.8675 137.39 33.0698 139.634 33.0698C142.432 33.0698 144.5 34.1417 145.836 36.2605C146.567 37.4321 146.946 38.9527 146.946 40.8472L147.021 51.4664Z" fill="white"/>
<path d="M166.007 33.4936L156.35 57.424H152.921L155.493 51.0924L148.458 33.5185H151.988L157.182 47.4281L162.452 33.4936H166.007Z" fill="white"/>
<path d="M185.824 42.3678C185.874 44.8606 184.866 47.2785 183.076 49.0484C179.496 52.7127 173.596 52.8124 169.889 49.2727C169.814 49.1979 169.763 49.1481 169.688 49.0733C167.872 47.3035 166.864 44.8606 166.889 42.3429C166.839 39.8501 167.847 37.4322 169.688 35.7122C173.394 32.0977 179.344 32.0977 183.025 35.7122C184.866 37.4571 185.874 39.8501 185.824 42.3678ZM180.756 46.8797C181.941 45.6582 182.572 44.0379 182.546 42.3678C182.572 40.6977 181.916 39.1023 180.731 37.9058C178.437 35.5377 174.604 35.4379 172.209 37.7313C172.133 37.8061 172.058 37.8808 171.982 37.9556C170.797 39.1522 170.141 40.7724 170.192 42.4426C170.167 44.1127 170.822 45.733 172.007 46.9295C174.251 49.2977 178.033 49.4223 180.428 47.2037C180.554 47.104 180.655 46.9794 180.756 46.8797Z" fill="white"/>
<path d="M204.406 51.3667H201.406V49.4223H201.356C200.877 50.2449 200.12 50.893 199.212 51.242C198.254 51.6409 197.221 51.8403 196.187 51.8403C194.195 51.8403 192.531 51.242 191.17 50.0704C189.632 48.7243 188.85 46.4061 188.85 43.1904L188.825 33.4687H192.128L192.153 43.1655C192.153 44.9104 192.481 46.2814 193.136 47.2785C193.792 48.2756 194.926 48.7742 196.54 48.7742C198.128 48.7742 199.288 48.2507 200.019 47.1788C200.75 46.1069 201.129 44.7359 201.129 43.0658L201.078 33.4438H204.381L204.406 51.3667Z" fill="white"/>
<path d="M54.9683 45.6832C53.5312 44.8605 53.0521 43.0658 53.8842 41.6449C54.1363 41.1962 54.5145 40.8223 54.9683 40.573L66.6672 33.8675L71.2308 31.2501C74.9371 29.1313 79.6771 30.3776 81.8202 34.042C82.501 35.2136 82.854 36.5348 82.854 37.8808V40.0246C82.8792 49.5968 72.3906 55.6043 63.9946 50.8182L54.9683 45.6832Z" fill="white"/>
<path d="M61.7508 25.9156C64.0452 27.2119 64.8268 30.1035 63.5158 32.3719C63.0871 33.0948 62.482 33.693 61.7508 34.1168L59.1287 35.6124L52.069 39.6258C51.1866 40.1243 50.0772 39.8252 49.5729 38.9777C49.4217 38.7035 49.3208 38.3794 49.3208 38.0553V23.9464C49.3208 22.3011 50.6571 20.98 52.2959 20.98C52.8254 20.98 53.3549 21.1295 53.8087 21.3788L59.1287 24.42L61.7508 25.9156Z" fill="white"/>
<path d="M56.5317 63.3319C54.2373 64.653 51.3126 63.8803 49.9763 61.6119C49.5477 60.889 49.3208 60.0664 49.3208 59.2188V48.2008C49.3208 47.2037 50.1528 46.3811 51.1614 46.3811C51.4891 46.3811 51.7917 46.4559 52.069 46.6304L59.1287 50.6437L64.4486 53.6849C65.8858 54.5075 66.3648 56.3023 65.5328 57.7232C65.2807 58.1719 64.9025 58.5458 64.4486 58.795L59.1287 61.8362L56.5317 63.3319Z" fill="white"/>
<path d="M41.4795 45.6832C42.9166 44.8606 43.3956 43.0658 42.5636 41.6449C42.3115 41.1962 41.9333 40.8223 41.4795 40.573L29.7806 33.8675L25.2422 31.2501C21.5359 29.1313 16.7959 30.3527 14.6275 34.0171C13.9468 35.1887 13.5938 36.5348 13.5938 37.8808V40.0246C13.5686 49.5968 24.0572 55.6043 32.4532 50.8182L41.4795 45.6832Z" fill="white"/>
<path d="M34.6969 25.9156C32.4025 27.2119 31.6209 30.1035 32.932 32.3719C33.3606 33.0948 33.9658 33.693 34.6969 34.1168L37.2939 35.6124L44.3535 39.6258C45.236 40.1243 46.3454 39.8252 46.8749 38.9527C47.0261 38.6785 47.127 38.3545 47.127 38.0553V23.9464C47.127 22.3011 45.7907 20.98 44.1266 20.98C43.5972 20.98 43.0677 21.1295 42.6138 21.3788L37.3191 24.42L34.6969 25.9156Z" fill="white"/>
<path d="M39.916 63.3319C42.2104 64.653 45.1351 63.8803 46.4714 61.6119C46.9 60.889 47.1269 60.0664 47.1269 59.2188V48.2008C47.1269 47.2037 46.3201 46.3811 45.2864 46.3811C44.9586 46.3811 44.6308 46.4559 44.3535 46.6304L37.319 50.6437L31.9991 53.6849C30.5619 54.5075 30.0829 56.3023 30.9149 57.7232C31.167 58.1719 31.5452 58.5458 31.9991 58.795L37.319 61.8362L39.916 63.3319Z" fill="white"/>
<path d="M68.2556 24.0461C67.2471 24.0461 66.415 24.8438 66.415 25.8409C66.415 26.838 67.2219 27.6606 68.2304 27.6606C69.2389 27.6606 70.0709 26.8629 70.0709 25.8658C70.0709 24.8438 69.2641 24.0461 68.2556 24.0461ZM68.2556 27.4362C67.3731 27.4362 66.6672 26.7383 66.6672 25.8658C66.6672 24.9933 67.3731 24.2954 68.2556 24.2954C69.1381 24.2954 69.844 24.9933 69.844 25.8658C69.844 26.7133 69.1381 27.4362 68.2556 27.4362Z" fill="white"/>
<path d="M68.6338 26.115C68.9111 26.0153 69.1128 25.7411 69.0624 25.442C69.0624 25.2426 68.9868 25.0432 68.8355 24.8936C68.659 24.744 68.4321 24.6692 68.2304 24.6942H67.5244V27.0623H67.8522V25.9655L68.6086 27.0623H69.0372L68.3817 26.1898C68.4825 26.14 68.5582 26.14 68.6338 26.115ZM68.1043 25.8907H67.8774V24.9684H68.2304C68.3564 24.9684 68.4825 24.9933 68.5834 25.093C68.6842 25.1678 68.7346 25.2924 68.7346 25.4171C68.7346 25.4919 68.7094 25.5666 68.6842 25.6414C68.659 25.6913 68.6086 25.7411 68.5329 25.791C68.4573 25.8159 68.4069 25.8408 68.3312 25.8658C68.2556 25.8907 68.18 25.8907 68.1043 25.8907Z" fill="white"/>
</g>
<path d="M26.6602 167.036H23.3398C23.2487 167.036 23.1706 167.069 23.1055 167.134C23.0404 167.199 23.0078 167.277 23.0078 167.368C23.0078 167.459 23.0404 167.537 23.1055 167.603C23.1706 167.668 23.2487 167.7 23.3398 167.7H26.6602C26.7513 167.7 26.8294 167.668 26.8945 167.603C26.9596 167.537 26.9922 167.459 26.9922 167.368C26.9922 167.277 26.9596 167.199 26.8945 167.134C26.8294 167.069 26.7513 167.036 26.6602 167.036ZM29.0039 167.036H28.6719C28.5807 167.036 28.5026 167.069 28.4375 167.134C28.3724 167.199 28.3398 167.277 28.3398 167.368C28.3398 167.459 28.3724 167.537 28.4375 167.603C28.5026 167.668 28.5807 167.7 28.6719 167.7H29.0039C29.0951 167.7 29.1732 167.668 29.2383 167.603C29.3034 167.537 29.3359 167.459 29.3359 167.368C29.3359 167.277 29.3034 167.199 29.2383 167.134C29.1732 167.069 29.0951 167.036 29.0039 167.036ZM25.4102 183.032H24.5898C24.3294 183.032 24.1113 183.123 23.9355 183.306C23.7598 183.488 23.6719 183.703 23.6719 183.95V184.126C23.6719 184.373 23.7598 184.588 23.9355 184.771C24.1113 184.953 24.3294 185.044 24.5898 185.044H25.4102C25.6706 185.044 25.8887 184.953 26.0645 184.771C26.2402 184.588 26.3281 184.373 26.3281 184.126V183.95C26.3281 183.703 26.2402 183.488 26.0645 183.306C25.8887 183.123 25.6706 183.032 25.4102 183.032ZM25.6641 184.126C25.6641 184.191 25.6413 184.25 25.5957 184.302C25.5501 184.354 25.4883 184.38 25.4102 184.38H24.5898C24.5117 184.38 24.4499 184.354 24.4043 184.302C24.3587 184.25 24.3359 184.191 24.3359 184.126V183.95C24.3359 183.885 24.3587 183.83 24.4043 183.784C24.4499 183.739 24.5117 183.716 24.5898 183.716H25.4102C25.4883 183.716 25.5501 183.739 25.5957 183.784C25.6413 183.83 25.6641 183.885 25.6641 183.95V184.126ZM29.4531 166.04H20.5469C20.2083 166.04 19.9219 166.157 19.6875 166.392C19.4531 166.626 19.3359 166.912 19.3359 167.251V184.829C19.3359 185.168 19.4531 185.454 19.6875 185.688C19.9219 185.923 20.2083 186.04 20.5469 186.04H29.4531C29.7917 186.04 30.0781 185.923 30.3125 185.688C30.5469 185.454 30.6641 185.168 30.6641 184.829V167.251C30.6641 166.912 30.5469 166.626 30.3125 166.392C30.0781 166.157 29.7917 166.04 29.4531 166.04ZM30 184.829C30 184.985 29.9479 185.116 29.8438 185.22C29.7396 185.324 29.6094 185.376 29.4531 185.376H20.5469C20.3906 185.376 20.2604 185.324 20.1562 185.22C20.0521 185.116 20 184.985 20 184.829V167.251C20 167.095 20.0521 166.965 20.1562 166.86C20.2604 166.756 20.3906 166.704 20.5469 166.704H29.4531C29.6094 166.704 29.7396 166.756 29.8438 166.86C29.9479 166.965 30 167.095 30 167.251V184.829ZM30.332 168.032H19.668C19.5768 168.032 19.4987 168.065 19.4336 168.13C19.3685 168.195 19.3359 168.273 19.3359 168.364V182.368C19.3359 182.459 19.3685 182.537 19.4336 182.603C19.4987 182.668 19.5768 182.7 19.668 182.7H30.332C30.4232 182.7 30.5013 182.668 30.5664 182.603C30.6315 182.537 30.6641 182.459 30.6641 182.368V168.364C30.6641 168.273 30.6315 168.195 30.5664 168.13C30.5013 168.065 30.4232 168.032 30.332 168.032ZM30 182.036H20V168.716H30V182.036Z" fill="white"/>
<path d="M54.354 185.644C53.458 184.767 52.758 183.651 52.254 182.298C51.7593 180.945 51.512 179.484 51.512 177.916C51.512 176.311 51.7733 174.813 52.296 173.422C52.828 172.022 53.584 170.869 54.564 169.964H55.894V170.09C54.8487 171.07 54.06 172.251 53.528 173.632C53.0053 175.004 52.744 176.432 52.744 177.916C52.744 179.363 52.9913 180.744 53.486 182.06C53.99 183.376 54.7227 184.529 55.684 185.518V185.644H54.354ZM64.7154 178.462H61.7334V181.486H60.5434V178.462H57.5754V177.384H60.5434V174.346H61.7334V177.384H64.7154V178.462ZM66.6281 182.018C67.8134 181.066 68.7421 180.287 69.4141 179.68C70.0861 179.064 70.6507 178.425 71.1081 177.762C71.5747 177.09 71.8081 176.432 71.8081 175.788C71.8081 175.181 71.6587 174.705 71.3601 174.36C71.0707 174.005 70.5994 173.828 69.9461 173.828C69.3114 173.828 68.8167 174.029 68.4621 174.43C68.1167 174.822 67.9301 175.349 67.9021 176.012H66.6701C66.7074 174.967 67.0247 174.159 67.6221 173.59C68.2194 173.021 68.9894 172.736 69.9321 172.736C70.8934 172.736 71.6541 173.002 72.2141 173.534C72.7834 174.066 73.0681 174.799 73.0681 175.732C73.0681 176.507 72.8347 177.263 72.3681 178C71.9107 178.728 71.3881 179.372 70.8001 179.932C70.2121 180.483 69.4607 181.127 68.5461 181.864H73.3621V182.928H66.6281V182.018ZM74.4988 174.08V172.918H77.1308V183.04H75.8428V174.08H74.4988ZM84.9612 175.326C84.7558 174.29 84.1165 173.772 83.0432 173.772C82.2125 173.772 81.5918 174.094 81.1812 174.738C80.7705 175.373 80.5698 176.423 80.5792 177.888C80.7938 177.403 81.1485 177.025 81.6432 176.754C82.1472 176.474 82.7072 176.334 83.3232 176.334C84.2845 176.334 85.0498 176.633 85.6192 177.23C86.1978 177.827 86.4872 178.653 86.4872 179.708C86.4872 180.343 86.3612 180.912 86.1092 181.416C85.8665 181.92 85.4932 182.321 84.9892 182.62C84.4945 182.919 83.8925 183.068 83.1832 183.068C82.2218 183.068 81.4705 182.853 80.9292 182.424C80.3878 181.995 80.0098 181.402 79.7952 180.646C79.5805 179.89 79.4732 178.957 79.4732 177.846C79.4732 174.421 80.6678 172.708 83.0572 172.708C83.9718 172.708 84.6905 172.955 85.2132 173.45C85.7358 173.945 86.0438 174.57 86.1372 175.326H84.9612ZM83.0572 177.412C82.6558 177.412 82.2778 177.496 81.9232 177.664C81.5685 177.823 81.2792 178.07 81.0552 178.406C80.8405 178.733 80.7332 179.134 80.7332 179.61C80.7332 180.319 80.9385 180.898 81.3492 181.346C81.7598 181.785 82.3478 182.004 83.1132 182.004C83.7665 182.004 84.2845 181.803 84.6672 181.402C85.0592 180.991 85.2552 180.441 85.2552 179.75C85.2552 179.022 85.0685 178.453 84.6952 178.042C84.3218 177.622 83.7758 177.412 83.0572 177.412ZM88.0099 185.644V185.518C88.9712 184.529 89.6992 183.376 90.1939 182.06C90.6979 180.744 90.9499 179.363 90.9499 177.916C90.9499 176.432 90.6839 175.004 90.1519 173.632C89.6292 172.251 88.8452 171.07 87.7999 170.09V169.964H89.1299C90.1099 170.869 90.8612 172.022 91.3839 173.422C91.9159 174.813 92.1819 176.311 92.1819 177.916C92.1819 179.484 91.9299 180.945 91.4259 182.298C90.9312 183.651 90.2359 184.767 89.3399 185.644H88.0099ZM104.75 174.024H99.8357V177.216C100.05 176.917 100.368 176.675 100.788 176.488C101.208 176.292 101.66 176.194 102.146 176.194C102.92 176.194 103.55 176.357 104.036 176.684C104.521 177.001 104.866 177.417 105.072 177.93C105.286 178.434 105.394 178.971 105.394 179.54C105.394 180.212 105.268 180.814 105.016 181.346C104.764 181.878 104.376 182.298 103.854 182.606C103.34 182.914 102.701 183.068 101.936 183.068C100.956 183.068 100.162 182.816 99.5557 182.312C98.9491 181.808 98.5804 181.136 98.4497 180.296H99.6957C99.8171 180.828 100.074 181.243 100.466 181.542C100.858 181.841 101.352 181.99 101.95 181.99C102.687 181.99 103.242 181.771 103.616 181.332C103.989 180.884 104.176 180.296 104.176 179.568C104.176 178.84 103.989 178.28 103.616 177.888C103.242 177.487 102.692 177.286 101.964 177.286C101.469 177.286 101.035 177.407 100.662 177.65C100.298 177.883 100.032 178.205 99.8637 178.616H98.6597V172.904H104.75V174.024ZM106.933 182.018C108.118 181.066 109.047 180.287 109.719 179.68C110.391 179.064 110.955 178.425 111.413 177.762C111.879 177.09 112.113 176.432 112.113 175.788C112.113 175.181 111.963 174.705 111.665 174.36C111.375 174.005 110.904 173.828 110.251 173.828C109.616 173.828 109.121 174.029 108.767 174.43C108.421 174.822 108.235 175.349 108.207 176.012H106.975C107.012 174.967 107.329 174.159 107.927 173.59C108.524 173.021 109.294 172.736 110.237 172.736C111.198 172.736 111.959 173.002 112.519 173.534C113.088 174.066 113.373 174.799 113.373 175.732C113.373 176.507 113.139 177.263 112.673 178C112.215 178.728 111.693 179.372 111.105 179.932C110.517 180.483 109.765 181.127 108.851 181.864H113.667V182.928H106.933V182.018ZM118.872 177.874C118.872 176.269 119.133 175.018 119.656 174.122C120.179 173.217 121.093 172.764 122.4 172.764C123.697 172.764 124.607 173.217 125.13 174.122C125.653 175.018 125.914 176.269 125.914 177.874C125.914 179.507 125.653 180.777 125.13 181.682C124.607 182.587 123.697 183.04 122.4 183.04C121.093 183.04 120.179 182.587 119.656 181.682C119.133 180.777 118.872 179.507 118.872 177.874ZM124.654 177.874C124.654 177.062 124.598 176.376 124.486 175.816C124.383 175.247 124.164 174.789 123.828 174.444C123.501 174.099 123.025 173.926 122.4 173.926C121.765 173.926 121.28 174.099 120.944 174.444C120.617 174.789 120.398 175.247 120.286 175.816C120.183 176.376 120.132 177.062 120.132 177.874C120.132 178.714 120.183 179.419 120.286 179.988C120.398 180.557 120.617 181.015 120.944 181.36C121.28 181.705 121.765 181.878 122.4 181.878C123.025 181.878 123.501 181.705 123.828 181.36C124.164 181.015 124.383 180.557 124.486 179.988C124.598 179.419 124.654 178.714 124.654 177.874ZM127.663 177.874C127.663 176.269 127.924 175.018 128.447 174.122C128.97 173.217 129.884 172.764 131.191 172.764C132.488 172.764 133.398 173.217 133.921 174.122C134.444 175.018 134.705 176.269 134.705 177.874C134.705 179.507 134.444 180.777 133.921 181.682C133.398 182.587 132.488 183.04 131.191 183.04C129.884 183.04 128.97 182.587 128.447 181.682C127.924 180.777 127.663 179.507 127.663 177.874ZM133.445 177.874C133.445 177.062 133.389 176.376 133.277 175.816C133.174 175.247 132.955 174.789 132.619 174.444C132.292 174.099 131.816 173.926 131.191 173.926C130.556 173.926 130.071 174.099 129.735 174.444C129.408 174.789 129.189 175.247 129.077 175.816C128.974 176.376 128.923 177.062 128.923 177.874C128.923 178.714 128.974 179.419 129.077 179.988C129.189 180.557 129.408 181.015 129.735 181.36C130.071 181.705 130.556 181.878 131.191 181.878C131.816 181.878 132.292 181.705 132.619 181.36C132.955 181.015 133.174 180.557 133.277 179.988C133.389 179.419 133.445 178.714 133.445 177.874ZM140.186 177.874C140.186 176.269 140.448 175.018 140.97 174.122C141.493 173.217 142.408 172.764 143.714 172.764C145.012 172.764 145.922 173.217 146.444 174.122C146.967 175.018 147.228 176.269 147.228 177.874C147.228 179.507 146.967 180.777 146.444 181.682C145.922 182.587 145.012 183.04 143.714 183.04C142.408 183.04 141.493 182.587 140.97 181.682C140.448 180.777 140.186 179.507 140.186 177.874ZM145.968 177.874C145.968 177.062 145.912 176.376 145.8 175.816C145.698 175.247 145.478 174.789 145.142 174.444C144.816 174.099 144.34 173.926 143.714 173.926C143.08 173.926 142.594 174.099 142.258 174.444C141.932 174.789 141.712 175.247 141.6 175.816C141.498 176.376 141.446 177.062 141.446 177.874C141.446 178.714 141.498 179.419 141.6 179.988C141.712 180.557 141.932 181.015 142.258 181.36C142.594 181.705 143.08 181.878 143.714 181.878C144.34 181.878 144.816 181.705 145.142 181.36C145.478 181.015 145.698 180.557 145.8 179.988C145.912 179.419 145.968 178.714 145.968 177.874ZM148.977 177.874C148.977 176.269 149.239 175.018 149.761 174.122C150.284 173.217 151.199 172.764 152.505 172.764C153.803 172.764 154.713 173.217 155.235 174.122C155.758 175.018 156.019 176.269 156.019 177.874C156.019 179.507 155.758 180.777 155.235 181.682C154.713 182.587 153.803 183.04 152.505 183.04C151.199 183.04 150.284 182.587 149.761 181.682C149.239 180.777 148.977 179.507 148.977 177.874ZM154.759 177.874C154.759 177.062 154.703 176.376 154.591 175.816C154.489 175.247 154.269 174.789 153.933 174.444C153.607 174.099 153.131 173.926 152.505 173.926C151.871 173.926 151.385 174.099 151.049 174.444C150.723 174.789 150.503 175.247 150.391 175.816C150.289 176.376 150.237 177.062 150.237 177.874C150.237 178.714 150.289 179.419 150.391 179.988C150.503 180.557 150.723 181.015 151.049 181.36C151.385 181.705 151.871 181.878 152.505 181.878C153.131 181.878 153.607 181.705 153.933 181.36C154.269 181.015 154.489 180.557 154.591 179.988C154.703 179.419 154.759 178.714 154.759 177.874ZM161.501 177.874C161.501 176.269 161.762 175.018 162.285 174.122C162.807 173.217 163.722 172.764 165.029 172.764C166.326 172.764 167.236 173.217 167.759 174.122C168.281 175.018 168.543 176.269 168.543 177.874C168.543 179.507 168.281 180.777 167.759 181.682C167.236 182.587 166.326 183.04 165.029 183.04C163.722 183.04 162.807 182.587 162.285 181.682C161.762 180.777 161.501 179.507 161.501 177.874ZM167.283 177.874C167.283 177.062 167.227 176.376 167.115 175.816C167.012 175.247 166.793 174.789 166.457 174.444C166.13 174.099 165.654 173.926 165.029 173.926C164.394 173.926 163.909 174.099 163.573 174.444C163.246 174.789 163.027 175.247 162.915 175.816C162.812 176.376 162.761 177.062 162.761 177.874C162.761 178.714 162.812 179.419 162.915 179.988C163.027 180.557 163.246 181.015 163.573 181.36C163.909 181.705 164.394 181.878 165.029 181.878C165.654 181.878 166.13 181.705 166.457 181.36C166.793 181.015 167.012 180.557 167.115 179.988C167.227 179.419 167.283 178.714 167.283 177.874ZM170.292 177.874C170.292 176.269 170.553 175.018 171.076 174.122C171.598 173.217 172.513 172.764 173.82 172.764C175.117 172.764 176.027 173.217 176.55 174.122C177.072 175.018 177.334 176.269 177.334 177.874C177.334 179.507 177.072 180.777 176.55 181.682C176.027 182.587 175.117 183.04 173.82 183.04C172.513 183.04 171.598 182.587 171.076 181.682C170.553 180.777 170.292 179.507 170.292 177.874ZM176.074 177.874C176.074 177.062 176.018 176.376 175.906 175.816C175.803 175.247 175.584 174.789 175.248 174.444C174.921 174.099 174.445 173.926 173.82 173.926C173.185 173.926 172.7 174.099 172.364 174.444C172.037 174.789 171.818 175.247 171.706 175.816C171.603 176.376 171.552 177.062 171.552 177.874C171.552 178.714 171.603 179.419 171.706 179.988C171.818 180.557 172.037 181.015 172.364 181.36C172.7 181.705 173.185 181.878 173.82 181.878C174.445 181.878 174.921 181.705 175.248 181.36C175.584 181.015 175.803 180.557 175.906 179.988C176.018 179.419 176.074 178.714 176.074 177.874Z" fill="white"/>
<path d="M21.8164 215.856H18.1836C18.0404 215.856 17.9297 215.899 17.8516 215.983C17.7734 216.068 17.7344 216.175 17.7344 216.306C17.7344 216.449 17.7734 216.563 17.8516 216.647C17.9297 216.732 18.0404 216.774 18.1836 216.774H21.8164C21.9596 216.774 22.0703 216.732 22.1484 216.647C22.2266 216.563 22.2656 216.449 22.2656 216.306C22.2656 216.175 22.2266 216.068 22.1484 215.983C22.0703 215.899 21.9596 215.856 21.8164 215.856ZM20.4492 213.591H16.8164C16.6862 213.591 16.5788 213.633 16.4941 213.718C16.4095 213.802 16.3672 213.91 16.3672 214.04C16.3672 214.17 16.4095 214.278 16.4941 214.362C16.5788 214.447 16.6862 214.489 16.8164 214.489H20.4492C20.5924 214.489 20.7064 214.447 20.791 214.362C20.8757 214.278 20.918 214.17 20.918 214.04C20.918 213.91 20.8757 213.802 20.791 213.718C20.7064 213.633 20.5924 213.591 20.4492 213.591ZM19.082 211.306H15.4492C15.319 211.306 15.2116 211.348 15.127 211.433C15.0423 211.517 15 211.631 15 211.774C15 211.905 15.0423 212.012 15.127 212.097C15.2116 212.181 15.319 212.224 15.4492 212.224H19.082C19.2253 212.224 19.3392 212.181 19.4238 212.097C19.5085 212.012 19.5508 211.905 19.5508 211.774C19.5508 211.631 19.5085 211.517 19.4238 211.433C19.3392 211.348 19.2253 211.306 19.082 211.306ZM33.0859 210.134C33.0208 210.043 32.9232 209.987 32.793 209.968C32.6628 209.948 32.5521 209.971 32.4609 210.036L27.6367 213.728C27.3893 213.91 27.1094 214.001 26.7969 214.001C26.4844 214.001 26.2044 213.91 25.957 213.728L21.1328 210.036C21.0417 209.971 20.931 209.942 20.8008 209.948C20.6706 209.955 20.5729 210.017 20.5078 210.134C20.4297 210.225 20.3971 210.336 20.4102 210.466C20.4232 210.596 20.4818 210.694 20.5859 210.759L25.4492 214.45C25.6576 214.606 25.8822 214.72 26.123 214.792C26.3639 214.864 26.5951 214.899 26.8164 214.899C27.0508 214.899 27.2917 214.864 27.5391 214.792C27.7865 214.72 28.0013 214.606 28.1836 214.45L33.0078 210.759C33.099 210.694 33.151 210.596 33.1641 210.466C33.1771 210.336 33.151 210.225 33.0859 210.134ZM33.6328 208.122H19.082C18.9518 208.122 18.8444 208.164 18.7598 208.249C18.6751 208.334 18.6328 208.448 18.6328 208.591C18.6328 208.721 18.6751 208.828 18.7598 208.913C18.8444 208.998 18.9518 209.04 19.082 209.04H33.6328C33.776 209.04 33.8867 209.082 33.9648 209.167C34.043 209.252 34.082 209.359 34.082 209.489V218.591C34.082 218.721 34.043 218.828 33.9648 218.913C33.8867 218.998 33.776 219.04 33.6328 219.04H19.082C18.9518 219.04 18.8444 219.082 18.7598 219.167C18.6751 219.252 18.6328 219.359 18.6328 219.489C18.6328 219.632 18.6751 219.746 18.7598 219.831C18.8444 219.916 18.9518 219.958 19.082 219.958H33.6328C34.0234 219.958 34.349 219.825 34.6094 219.558C34.8698 219.291 35 218.968 35 218.591V209.489C35 209.112 34.8698 208.789 34.6094 208.522C34.349 208.256 34.0234 208.122 33.6328 208.122ZM33.0469 217.36L30.3125 214.626C30.2214 214.535 30.1172 214.489 30 214.489C29.8828 214.489 29.7786 214.535 29.6875 214.626C29.5964 214.717 29.5508 214.825 29.5508 214.948C29.5508 215.072 29.5964 215.179 29.6875 215.271L32.4023 217.985C32.4544 218.037 32.5098 218.073 32.5684 218.093C32.627 218.112 32.6823 218.122 32.7344 218.122C32.7734 218.122 32.8223 218.112 32.8809 218.093C32.9395 218.073 32.9948 218.037 33.0469 217.985C33.138 217.894 33.1836 217.79 33.1836 217.673C33.1836 217.556 33.138 217.451 33.0469 217.36Z" fill="white"/>
<path d="M50.559 217.465C50.559 216.728 50.7063 216.087 51.001 215.541C51.2957 214.986 51.703 214.557 52.223 214.254C52.7517 213.951 53.354 213.799 54.03 213.799C54.9053 213.799 55.6247 214.011 56.188 214.436C56.76 214.861 57.137 215.45 57.319 216.204H56.045C55.9237 215.771 55.6853 215.428 55.33 215.177C54.9833 214.926 54.55 214.8 54.03 214.8C53.354 214.8 52.808 215.034 52.392 215.502C51.976 215.961 51.768 216.616 51.768 217.465C51.768 218.323 51.976 218.986 52.392 219.454C52.808 219.922 53.354 220.156 54.03 220.156C54.55 220.156 54.9833 220.035 55.33 219.792C55.6767 219.549 55.915 219.203 56.045 218.752H57.319C57.1283 219.48 56.747 220.065 56.175 220.507C55.603 220.94 54.888 221.157 54.03 221.157C53.354 221.157 52.7517 221.005 52.223 220.702C51.703 220.399 51.2957 219.97 51.001 219.415C50.7063 218.86 50.559 218.21 50.559 217.465ZM62.0045 221.157C61.3372 221.157 60.7305 221.005 60.1845 220.702C59.6472 220.399 59.2225 219.97 58.9105 219.415C58.6072 218.852 58.4555 218.202 58.4555 217.465C58.4555 216.737 58.6115 216.096 58.9235 215.541C59.2442 214.978 59.6775 214.549 60.2235 214.254C60.7695 213.951 61.3805 213.799 62.0565 213.799C62.7325 213.799 63.3435 213.951 63.8895 214.254C64.4355 214.549 64.8645 214.973 65.1765 215.528C65.4972 216.083 65.6575 216.728 65.6575 217.465C65.6575 218.202 65.4928 218.852 65.1635 219.415C64.8428 219.97 64.4052 220.399 63.8505 220.702C63.2958 221.005 62.6805 221.157 62.0045 221.157ZM62.0045 220.117C62.4292 220.117 62.8278 220.017 63.2005 219.818C63.5732 219.619 63.8722 219.32 64.0975 218.921C64.3315 218.522 64.4485 218.037 64.4485 217.465C64.4485 216.893 64.3358 216.408 64.1105 216.009C63.8852 215.61 63.5905 215.316 63.2265 215.125C62.8625 214.926 62.4682 214.826 62.0435 214.826C61.6102 214.826 61.2115 214.926 60.8475 215.125C60.4922 215.316 60.2062 215.61 59.9895 216.009C59.7728 216.408 59.6645 216.893 59.6645 217.465C59.6645 218.046 59.7685 218.535 59.9765 218.934C60.1932 219.333 60.4792 219.632 60.8345 219.831C61.1898 220.022 61.5798 220.117 62.0045 220.117ZM70.6839 213.786C71.5506 213.786 72.2526 214.05 72.7899 214.579C73.3272 215.099 73.5959 215.853 73.5959 216.841V221.04H72.4259V217.01C72.4259 216.299 72.2482 215.758 71.8929 215.385C71.5376 215.004 71.0522 214.813 70.4369 214.813C69.8129 214.813 69.3146 215.008 68.9419 215.398C68.5779 215.788 68.3959 216.356 68.3959 217.101V221.04H67.2129V213.916H68.3959V214.93C68.6299 214.566 68.9462 214.284 69.3449 214.085C69.7522 213.886 70.1986 213.786 70.6839 213.786ZM76.9713 214.891V219.09C76.9713 219.437 77.045 219.684 77.1923 219.831C77.3397 219.97 77.5953 220.039 77.9593 220.039H78.8303V221.04H77.7643C77.1057 221.04 76.6117 220.888 76.2823 220.585C75.953 220.282 75.7883 219.783 75.7883 219.09V214.891H74.8653V213.916H75.7883V212.122H76.9713V213.916H78.8303V214.891H76.9713ZM79.8217 217.452C79.8217 216.724 79.969 216.087 80.2637 215.541C80.5584 214.986 80.9614 214.557 81.4727 214.254C81.9927 213.951 82.569 213.799 83.2017 213.799C83.8257 213.799 84.3674 213.933 84.8267 214.202C85.286 214.471 85.6284 214.809 85.8537 215.216V213.916H87.0497V221.04H85.8537V219.714C85.6197 220.13 85.2687 220.477 84.8007 220.754C84.3414 221.023 83.804 221.157 83.1887 221.157C82.556 221.157 81.984 221.001 81.4727 220.689C80.9614 220.377 80.5584 219.939 80.2637 219.376C79.969 218.813 79.8217 218.171 79.8217 217.452ZM85.8537 217.465C85.8537 216.928 85.7454 216.46 85.5287 216.061C85.312 215.662 85.0174 215.359 84.6447 215.151C84.2807 214.934 83.8777 214.826 83.4357 214.826C82.9937 214.826 82.5907 214.93 82.2267 215.138C81.8627 215.346 81.5724 215.649 81.3557 216.048C81.139 216.447 81.0307 216.915 81.0307 217.452C81.0307 217.998 81.139 218.475 81.3557 218.882C81.5724 219.281 81.8627 219.588 82.2267 219.805C82.5907 220.013 82.9937 220.117 83.4357 220.117C83.8777 220.117 84.2807 220.013 84.6447 219.805C85.0174 219.588 85.312 219.281 85.5287 218.882C85.7454 218.475 85.8537 218.002 85.8537 217.465ZM88.6069 217.465C88.6069 216.728 88.7542 216.087 89.0489 215.541C89.3435 214.986 89.7509 214.557 90.2709 214.254C90.7995 213.951 91.4019 213.799 92.0779 213.799C92.9532 213.799 93.6725 214.011 94.2359 214.436C94.8079 214.861 95.1849 215.45 95.3669 216.204H94.0929C93.9715 215.771 93.7332 215.428 93.3779 215.177C93.0312 214.926 92.5979 214.8 92.0779 214.8C91.4019 214.8 90.8559 215.034 90.4399 215.502C90.0239 215.961 89.8159 216.616 89.8159 217.465C89.8159 218.323 90.0239 218.986 90.4399 219.454C90.8559 219.922 91.4019 220.156 92.0779 220.156C92.5979 220.156 93.0312 220.035 93.3779 219.792C93.7245 219.549 93.9629 219.203 94.0929 218.752H95.3669C95.1762 219.48 94.7949 220.065 94.2229 220.507C93.6509 220.94 92.9359 221.157 92.0779 221.157C91.4019 221.157 90.7995 221.005 90.2709 220.702C89.7509 220.399 89.3435 219.97 89.0489 219.415C88.7542 218.86 88.6069 218.21 88.6069 217.465ZM98.3883 214.891V219.09C98.3883 219.437 98.462 219.684 98.6093 219.831C98.7567 219.97 99.0123 220.039 99.3763 220.039H100.247V221.04H99.1813C98.5227 221.04 98.0287 220.888 97.6993 220.585C97.37 220.282 97.2053 219.783 97.2053 219.09V214.891H96.2823V213.916H97.2053V212.122H98.3883V213.916H100.247V214.891H98.3883ZM108.181 212.707C109.143 212.707 109.979 212.889 110.69 213.253C111.4 213.617 111.946 214.128 112.328 214.787C112.709 215.437 112.9 216.191 112.9 217.049C112.9 217.734 112.787 218.392 112.562 219.025C112.336 219.649 112.007 220.156 111.574 220.546C111.149 220.936 110.651 221.131 110.079 221.131C109.645 221.131 109.312 221.023 109.078 220.806C108.844 220.589 108.709 220.295 108.675 219.922C108.406 220.295 108.064 220.589 107.648 220.806C107.24 221.023 106.807 221.131 106.348 221.131C105.689 221.131 105.169 220.932 104.788 220.533C104.415 220.126 104.229 219.58 104.229 218.895C104.229 218.245 104.363 217.638 104.632 217.075C104.909 216.512 105.29 216.061 105.776 215.723C106.261 215.376 106.811 215.203 107.427 215.203C108.25 215.203 108.805 215.515 109.091 216.139L109.234 215.333H110.261L109.611 219.09C109.585 219.255 109.572 219.406 109.572 219.545C109.572 220.065 109.801 220.325 110.261 220.325C110.607 220.325 110.906 220.16 111.158 219.831C111.418 219.502 111.613 219.09 111.743 218.596C111.873 218.093 111.938 217.599 111.938 217.114C111.938 215.979 111.595 215.099 110.911 214.475C110.235 213.851 109.277 213.539 108.038 213.539C107.006 213.539 106.075 213.79 105.243 214.293C104.419 214.787 103.774 215.467 103.306 216.334C102.838 217.201 102.604 218.158 102.604 219.207C102.595 220.351 102.937 221.231 103.631 221.846C104.324 222.47 105.286 222.782 106.517 222.782C107.331 222.782 108.051 222.635 108.675 222.34L108.831 223.146C108.059 223.467 107.21 223.627 106.283 223.627C105.355 223.627 104.536 223.449 103.826 223.094C103.124 222.747 102.578 222.245 102.188 221.586C101.806 220.936 101.616 220.178 101.616 219.311C101.616 218.089 101.897 216.975 102.461 215.97C103.024 214.956 103.804 214.159 104.801 213.578C105.806 212.997 106.933 212.707 108.181 212.707ZM106.699 220.208C107.089 220.208 107.448 220.095 107.778 219.87C108.107 219.636 108.367 219.324 108.558 218.934C108.748 218.535 108.844 218.102 108.844 217.634C108.844 217.183 108.718 216.819 108.467 216.542C108.224 216.256 107.877 216.113 107.427 216.113C107.011 216.113 106.642 216.239 106.322 216.49C106.01 216.733 105.767 217.058 105.594 217.465C105.42 217.864 105.334 218.28 105.334 218.713C105.334 219.172 105.451 219.536 105.685 219.805C105.919 220.074 106.257 220.208 106.699 220.208ZM119.617 221.04L117.459 217.335H116.029V221.04H114.846V211.979H117.771C118.455 211.979 119.032 212.096 119.5 212.33C119.976 212.564 120.332 212.88 120.566 213.279C120.8 213.678 120.917 214.133 120.917 214.644C120.917 215.268 120.735 215.818 120.371 216.295C120.015 216.772 119.478 217.088 118.759 217.244L121.034 221.04H119.617ZM116.029 216.386H117.771C118.412 216.386 118.893 216.23 119.214 215.918C119.534 215.597 119.695 215.173 119.695 214.644C119.695 214.107 119.534 213.691 119.214 213.396C118.902 213.101 118.421 212.954 117.771 212.954H116.029V216.386ZM129.255 217.205C129.255 217.43 129.242 217.669 129.216 217.92H123.522C123.565 218.622 123.804 219.172 124.237 219.571C124.679 219.961 125.212 220.156 125.836 220.156C126.347 220.156 126.772 220.039 127.11 219.805C127.457 219.562 127.699 219.242 127.838 218.843H129.112C128.921 219.528 128.54 220.087 127.968 220.52C127.396 220.945 126.685 221.157 125.836 221.157C125.16 221.157 124.553 221.005 124.016 220.702C123.487 220.399 123.071 219.97 122.768 219.415C122.465 218.852 122.313 218.202 122.313 217.465C122.313 216.728 122.46 216.083 122.755 215.528C123.05 214.973 123.461 214.549 123.99 214.254C124.527 213.951 125.143 213.799 125.836 213.799C126.512 213.799 127.11 213.946 127.63 214.241C128.15 214.536 128.549 214.943 128.826 215.463C129.112 215.974 129.255 216.555 129.255 217.205ZM128.033 216.958C128.033 216.507 127.933 216.122 127.734 215.801C127.535 215.472 127.262 215.225 126.915 215.06C126.577 214.887 126.2 214.8 125.784 214.8C125.186 214.8 124.675 214.991 124.25 215.372C123.834 215.753 123.596 216.282 123.535 216.958H128.033ZM134.287 213.786C135.154 213.786 135.856 214.05 136.393 214.579C136.931 215.099 137.199 215.853 137.199 216.841V221.04H136.029V217.01C136.029 216.299 135.852 215.758 135.496 215.385C135.141 215.004 134.656 214.813 134.04 214.813C133.416 214.813 132.918 215.008 132.545 215.398C132.181 215.788 131.999 216.356 131.999 217.101V221.04H130.816V213.916H131.999V214.93C132.233 214.566 132.55 214.284 132.948 214.085C133.356 213.886 133.802 213.786 134.287 213.786ZM145.268 213.916L140.978 224.394H139.756L141.16 220.962L138.287 213.916H139.6L141.836 219.688L144.046 213.916H145.268ZM149.564 221.157C148.897 221.157 148.29 221.005 147.744 220.702C147.207 220.399 146.782 219.97 146.47 219.415C146.167 218.852 146.015 218.202 146.015 217.465C146.015 216.737 146.171 216.096 146.483 215.541C146.804 214.978 147.237 214.549 147.783 214.254C148.329 213.951 148.94 213.799 149.616 213.799C150.292 213.799 150.903 213.951 151.449 214.254C151.995 214.549 152.424 214.973 152.736 215.528C153.057 216.083 153.217 216.728 153.217 217.465C153.217 218.202 153.052 218.852 152.723 219.415C152.402 219.97 151.965 220.399 151.41 220.702C150.855 221.005 150.24 221.157 149.564 221.157ZM149.564 220.117C149.989 220.117 150.387 220.017 150.76 219.818C151.133 219.619 151.432 219.32 151.657 218.921C151.891 218.522 152.008 218.037 152.008 217.465C152.008 216.893 151.895 216.408 151.67 216.009C151.445 215.61 151.15 215.316 150.786 215.125C150.422 214.926 150.028 214.826 149.603 214.826C149.17 214.826 148.771 214.926 148.407 215.125C148.052 215.316 147.766 215.61 147.549 216.009C147.332 216.408 147.224 216.893 147.224 217.465C147.224 218.046 147.328 218.535 147.536 218.934C147.753 219.333 148.039 219.632 148.394 219.831C148.749 220.022 149.139 220.117 149.564 220.117ZM161.09 213.916V221.04H159.907V219.987C159.682 220.351 159.366 220.637 158.958 220.845C158.56 221.044 158.118 221.144 157.632 221.144C157.078 221.144 156.579 221.031 156.137 220.806C155.695 220.572 155.344 220.225 155.084 219.766C154.833 219.307 154.707 218.748 154.707 218.089V213.916H155.877V217.933C155.877 218.635 156.055 219.177 156.41 219.558C156.766 219.931 157.251 220.117 157.866 220.117C158.499 220.117 158.997 219.922 159.361 219.532C159.725 219.142 159.907 218.574 159.907 217.829V213.916H161.09ZM162.646 217.452C162.646 216.724 162.793 216.087 163.088 215.541C163.383 214.986 163.786 214.557 164.297 214.254C164.817 213.951 165.393 213.799 166.026 213.799C166.65 213.799 167.192 213.933 167.651 214.202C168.11 214.471 168.453 214.809 168.678 215.216V213.916H169.874V221.04H168.678V219.714C168.444 220.13 168.093 220.477 167.625 220.754C167.166 221.023 166.628 221.157 166.013 221.157C165.38 221.157 164.808 221.001 164.297 220.689C163.786 220.377 163.383 219.939 163.088 219.376C162.793 218.813 162.646 218.171 162.646 217.452ZM168.678 217.465C168.678 216.928 168.57 216.46 168.353 216.061C168.136 215.662 167.842 215.359 167.469 215.151C167.105 214.934 166.702 214.826 166.26 214.826C165.818 214.826 165.415 214.93 165.051 215.138C164.687 215.346 164.397 215.649 164.18 216.048C163.963 216.447 163.855 216.915 163.855 217.452C163.855 217.998 163.963 218.475 164.18 218.882C164.397 219.281 164.687 219.588 165.051 219.805C165.415 220.013 165.818 220.117 166.26 220.117C166.702 220.117 167.105 220.013 167.469 219.805C167.842 219.588 168.136 219.281 168.353 218.882C168.57 218.475 168.678 218.002 168.678 217.465ZM173.056 215.229C173.29 214.822 173.637 214.484 174.096 214.215C174.564 213.938 175.106 213.799 175.721 213.799C176.354 213.799 176.926 213.951 177.437 214.254C177.957 214.557 178.364 214.986 178.659 215.541C178.954 216.087 179.101 216.724 179.101 217.452C179.101 218.171 178.954 218.813 178.659 219.376C178.364 219.939 177.957 220.377 177.437 220.689C176.926 221.001 176.354 221.157 175.721 221.157C175.114 221.157 174.577 221.023 174.109 220.754C173.65 220.477 173.299 220.134 173.056 219.727V224.42H171.873V213.916H173.056V215.229ZM177.892 217.452C177.892 216.915 177.784 216.447 177.567 216.048C177.35 215.649 177.056 215.346 176.683 215.138C176.319 214.93 175.916 214.826 175.474 214.826C175.041 214.826 174.638 214.934 174.265 215.151C173.901 215.359 173.606 215.667 173.381 216.074C173.164 216.473 173.056 216.936 173.056 217.465C173.056 218.002 173.164 218.475 173.381 218.882C173.606 219.281 173.901 219.588 174.265 219.805C174.638 220.013 175.041 220.117 175.474 220.117C175.916 220.117 176.319 220.013 176.683 219.805C177.056 219.588 177.35 219.281 177.567 218.882C177.784 218.475 177.892 217.998 177.892 217.452ZM181.841 215.229C182.075 214.822 182.422 214.484 182.881 214.215C183.349 213.938 183.891 213.799 184.506 213.799C185.139 213.799 185.711 213.951 186.222 214.254C186.742 214.557 187.15 214.986 187.444 215.541C187.739 216.087 187.886 216.724 187.886 217.452C187.886 218.171 187.739 218.813 187.444 219.376C187.15 219.939 186.742 220.377 186.222 220.689C185.711 221.001 185.139 221.157 184.506 221.157C183.9 221.157 183.362 221.023 182.894 220.754C182.435 220.477 182.084 220.134 181.841 219.727V224.42H180.658V213.916H181.841V215.229ZM186.677 217.452C186.677 216.915 186.569 216.447 186.352 216.048C186.136 215.649 185.841 215.346 185.468 215.138C185.104 214.93 184.701 214.826 184.259 214.826C183.826 214.826 183.423 214.934 183.05 215.151C182.686 215.359 182.392 215.667 182.166 216.074C181.95 216.473 181.841 216.936 181.841 217.465C181.841 218.002 181.95 218.475 182.166 218.882C182.392 219.281 182.686 219.588 183.05 219.805C183.423 220.013 183.826 220.117 184.259 220.117C184.701 220.117 185.104 220.013 185.468 219.805C185.841 219.588 186.136 219.281 186.352 218.882C186.569 218.475 186.677 217.998 186.677 217.452ZM189.82 221.118C189.595 221.118 189.404 221.04 189.248 220.884C189.092 220.728 189.014 220.537 189.014 220.312C189.014 220.087 189.092 219.896 189.248 219.74C189.404 219.584 189.595 219.506 189.82 219.506C190.037 219.506 190.219 219.584 190.366 219.74C190.522 219.896 190.6 220.087 190.6 220.312C190.6 220.537 190.522 220.728 190.366 220.884C190.219 221.04 190.037 221.118 189.82 221.118ZM191.731 217.465C191.731 216.728 191.878 216.087 192.173 215.541C192.468 214.986 192.875 214.557 193.395 214.254C193.924 213.951 194.526 213.799 195.202 213.799C196.077 213.799 196.797 214.011 197.36 214.436C197.932 214.861 198.309 215.45 198.491 216.204H197.217C197.096 215.771 196.857 215.428 196.502 215.177C196.155 214.926 195.722 214.8 195.202 214.8C194.526 214.8 193.98 215.034 193.564 215.502C193.148 215.961 192.94 216.616 192.94 217.465C192.94 218.323 193.148 218.986 193.564 219.454C193.98 219.922 194.526 220.156 195.202 220.156C195.722 220.156 196.155 220.035 196.502 219.792C196.849 219.549 197.087 219.203 197.217 218.752H198.491C198.3 219.48 197.919 220.065 197.347 220.507C196.775 220.94 196.06 221.157 195.202 221.157C194.526 221.157 193.924 221.005 193.395 220.702C192.875 220.399 192.468 219.97 192.173 219.415C191.878 218.86 191.731 218.21 191.731 217.465ZM203.176 221.157C202.509 221.157 201.902 221.005 201.356 220.702C200.819 220.399 200.394 219.97 200.082 219.415C199.779 218.852 199.627 218.202 199.627 217.465C199.627 216.737 199.783 216.096 200.095 215.541C200.416 214.978 200.849 214.549 201.395 214.254C201.941 213.951 202.552 213.799 203.228 213.799C203.904 213.799 204.515 213.951 205.061 214.254C205.607 214.549 206.036 214.973 206.348 215.528C206.669 216.083 206.829 216.728 206.829 217.465C206.829 218.202 206.665 218.852 206.335 219.415C206.015 219.97 205.577 220.399 205.022 220.702C204.468 221.005 203.852 221.157 203.176 221.157ZM203.176 220.117C203.601 220.117 204 220.017 204.372 219.818C204.745 219.619 205.044 219.32 205.269 218.921C205.503 218.522 205.62 218.037 205.62 217.465C205.62 216.893 205.508 216.408 205.282 216.009C205.057 215.61 204.762 215.316 204.398 215.125C204.034 214.926 203.64 214.826 203.215 214.826C202.782 214.826 202.383 214.926 202.019 215.125C201.664 215.316 201.378 215.61 201.161 216.009C200.945 216.408 200.836 216.893 200.836 217.465C200.836 218.046 200.94 218.535 201.148 218.934C201.365 219.333 201.651 219.632 202.006 219.831C202.362 220.022 202.752 220.117 203.176 220.117ZM216.952 213.786C217.506 213.786 218 213.903 218.434 214.137C218.867 214.362 219.209 214.705 219.461 215.164C219.712 215.623 219.838 216.182 219.838 216.841V221.04H218.668V217.01C218.668 216.299 218.49 215.758 218.135 215.385C217.788 215.004 217.316 214.813 216.718 214.813C216.102 214.813 215.613 215.012 215.249 215.411C214.885 215.801 214.703 216.369 214.703 217.114V221.04H213.533V217.01C213.533 216.299 213.355 215.758 213 215.385C212.653 215.004 212.181 214.813 211.583 214.813C210.967 214.813 210.478 215.012 210.114 215.411C209.75 215.801 209.568 216.369 209.568 217.114V221.04H208.385V213.916H209.568V214.943C209.802 214.57 210.114 214.284 210.504 214.085C210.902 213.886 211.34 213.786 211.817 213.786C212.415 213.786 212.943 213.92 213.403 214.189C213.862 214.458 214.204 214.852 214.43 215.372C214.629 214.869 214.958 214.479 215.418 214.202C215.877 213.925 216.388 213.786 216.952 213.786Z" fill="white"/>
<defs>
<clipPath id="clip0_442_280">
<rect width="190.812" height="43" fill="white" transform="translate(13.5938 20.98)"/>
</clipPath>
</defs>
</svg>
