<svg width="109" height="19" viewBox="0 0 109 19" fill="none" xmlns="http://www.w3.org/2000/svg">
<path d="M3.874 13.591C3.276 13.591 2.73867 13.487 2.262 13.279C1.794 13.0623 1.42567 12.7677 1.157 12.395C0.888333 12.0137 0.749667 11.576 0.741 11.082H2.002C2.04533 11.5067 2.21867 11.8663 2.522 12.161C2.834 12.447 3.28467 12.59 3.874 12.59C4.43733 12.59 4.87933 12.4513 5.2 12.174C5.52933 11.888 5.694 11.524 5.694 11.082C5.694 10.7353 5.59867 10.4537 5.408 10.237C5.21733 10.0203 4.979 9.85567 4.693 9.743C4.407 9.63033 4.02133 9.509 3.536 9.379C2.938 9.223 2.457 9.067 2.093 8.911C1.73767 8.755 1.43 8.51233 1.17 8.183C0.918667 7.845 0.793 7.39433 0.793 6.831C0.793 6.337 0.918667 5.89933 1.17 5.518C1.42133 5.13667 1.77233 4.842 2.223 4.634C2.68233 4.426 3.20667 4.322 3.796 4.322C4.64533 4.322 5.33867 4.53433 5.876 4.959C6.422 5.38367 6.72967 5.947 6.799 6.649H5.499C5.45567 6.30233 5.27367 5.999 4.953 5.739C4.63233 5.47033 4.20767 5.336 3.679 5.336C3.185 5.336 2.782 5.466 2.47 5.726C2.158 5.97733 2.002 6.33267 2.002 6.792C2.002 7.12133 2.093 7.39 2.275 7.598C2.46567 7.806 2.69533 7.96633 2.964 8.079C3.24133 8.183 3.627 8.30433 4.121 8.443C4.719 8.60767 5.2 8.77233 5.564 8.937C5.928 9.093 6.24 9.34 6.5 9.678C6.76 10.0073 6.89 10.458 6.89 11.03C6.89 11.472 6.773 11.888 6.539 12.278C6.305 12.668 5.95833 12.9843 5.499 13.227C5.03967 13.4697 4.498 13.591 3.874 13.591ZM15.1309 9.665C15.1309 9.89033 15.1179 10.1287 15.0919 10.38H9.39788C9.44122 11.082 9.67955 11.6323 10.1129 12.031C10.5549 12.421 11.0879 12.616 11.7119 12.616C12.2232 12.616 12.6479 12.499 12.9859 12.265C13.3325 12.0223 13.5752 11.7017 13.7139 11.303H14.9879C14.7972 11.9877 14.4159 12.5467 13.8439 12.98C13.2719 13.4047 12.5612 13.617 11.7119 13.617C11.0359 13.617 10.4292 13.4653 9.89188 13.162C9.36322 12.8587 8.94722 12.4297 8.64388 11.875C8.34055 11.3117 8.18888 10.6617 8.18888 9.925C8.18888 9.18833 8.33622 8.54267 8.63088 7.988C8.92555 7.43333 9.33722 7.00867 9.86588 6.714C10.4032 6.41067 11.0185 6.259 11.7119 6.259C12.3879 6.259 12.9859 6.40633 13.5059 6.701C14.0259 6.99567 14.4245 7.403 14.7019 7.923C14.9879 8.43433 15.1309 9.015 15.1309 9.665ZM13.9089 9.418C13.9089 8.96733 13.8092 8.58167 13.6099 8.261C13.4105 7.93167 13.1375 7.68467 12.7909 7.52C12.4529 7.34667 12.0759 7.26 11.6599 7.26C11.0619 7.26 10.5505 7.45067 10.1259 7.832C9.70988 8.21333 9.47155 8.742 9.41088 9.418H13.9089ZM17.8754 7.533C18.0834 7.12567 18.3781 6.80933 18.7594 6.584C19.1494 6.35867 19.6217 6.246 20.1764 6.246V7.468H19.8644C18.5384 7.468 17.8754 8.18733 17.8754 9.626V13.5H16.6924V6.376H17.8754V7.533ZM24.194 12.408L26.404 6.376H27.665L24.87 13.5H23.492L20.697 6.376H21.971L24.194 12.408ZM29.4401 5.219C29.2148 5.219 29.0241 5.141 28.8681 4.985C28.7121 4.829 28.6341 4.63833 28.6341 4.413C28.6341 4.18767 28.7121 3.997 28.8681 3.841C29.0241 3.685 29.2148 3.607 29.4401 3.607C29.6568 3.607 29.8388 3.685 29.9861 3.841C30.1421 3.997 30.2201 4.18767 30.2201 4.413C30.2201 4.63833 30.1421 4.829 29.9861 4.985C29.8388 5.141 29.6568 5.219 29.4401 5.219ZM30.0121 6.376V13.5H28.8291V6.376H30.0121ZM31.5863 9.925C31.5863 9.18833 31.7337 8.547 32.0283 8.001C32.323 7.44633 32.7303 7.01733 33.2503 6.714C33.779 6.41067 34.3813 6.259 35.0573 6.259C35.9327 6.259 36.652 6.47133 37.2153 6.896C37.7873 7.32067 38.1643 7.91 38.3463 8.664H37.0723C36.951 8.23067 36.7127 7.88833 36.3573 7.637C36.0107 7.38567 35.5773 7.26 35.0573 7.26C34.3813 7.26 33.8353 7.494 33.4193 7.962C33.0033 8.42133 32.7953 9.07567 32.7953 9.925C32.7953 10.783 33.0033 11.446 33.4193 11.914C33.8353 12.382 34.3813 12.616 35.0573 12.616C35.5773 12.616 36.0107 12.4947 36.3573 12.252C36.704 12.0093 36.9423 11.6627 37.0723 11.212H38.3463C38.1557 11.94 37.7743 12.525 37.2023 12.967C36.6303 13.4003 35.9153 13.617 35.0573 13.617C34.3813 13.617 33.779 13.4653 33.2503 13.162C32.7303 12.8587 32.323 12.4297 32.0283 11.875C31.7337 11.3203 31.5863 10.6703 31.5863 9.925ZM46.4248 9.665C46.4248 9.89033 46.4118 10.1287 46.3858 10.38H40.6918C40.7352 11.082 40.9735 11.6323 41.4068 12.031C41.8488 12.421 42.3818 12.616 43.0058 12.616C43.5172 12.616 43.9418 12.499 44.2798 12.265C44.6265 12.0223 44.8692 11.7017 45.0078 11.303H46.2818C46.0912 11.9877 45.7098 12.5467 45.1378 12.98C44.5658 13.4047 43.8552 13.617 43.0058 13.617C42.3298 13.617 41.7232 13.4653 41.1858 13.162C40.6572 12.8587 40.2412 12.4297 39.9378 11.875C39.6345 11.3117 39.4828 10.6617 39.4828 9.925C39.4828 9.18833 39.6302 8.54267 39.9248 7.988C40.2195 7.43333 40.6312 7.00867 41.1598 6.714C41.6972 6.41067 42.3125 6.259 43.0058 6.259C43.6818 6.259 44.2798 6.40633 44.7998 6.701C45.3198 6.99567 45.7185 7.403 45.9958 7.923C46.2818 8.43433 46.4248 9.015 46.4248 9.665ZM45.2028 9.418C45.2028 8.96733 45.1032 8.58167 44.9038 8.261C44.7045 7.93167 44.4315 7.68467 44.0848 7.52C43.7468 7.34667 43.3698 7.26 42.9538 7.26C42.3558 7.26 41.8445 7.45067 41.4198 7.832C41.0038 8.21333 40.7655 8.742 40.7048 9.418H45.2028ZM54.3252 13.591C53.7272 13.591 53.1898 13.487 52.7132 13.279C52.2452 13.0623 51.8768 12.7677 51.6082 12.395C51.3395 12.0137 51.2008 11.576 51.1922 11.082H52.4532C52.4965 11.5067 52.6698 11.8663 52.9732 12.161C53.2852 12.447 53.7358 12.59 54.3252 12.59C54.8885 12.59 55.3305 12.4513 55.6512 12.174C55.9805 11.888 56.1452 11.524 56.1452 11.082C56.1452 10.7353 56.0498 10.4537 55.8592 10.237C55.6685 10.0203 55.4302 9.85567 55.1442 9.743C54.8582 9.63033 54.4725 9.509 53.9872 9.379C53.3892 9.223 52.9082 9.067 52.5442 8.911C52.1888 8.755 51.8812 8.51233 51.6212 8.183C51.3698 7.845 51.2442 7.39433 51.2442 6.831C51.2442 6.337 51.3698 5.89933 51.6212 5.518C51.8725 5.13667 52.2235 4.842 52.6742 4.634C53.1335 4.426 53.6578 4.322 54.2472 4.322C55.0965 4.322 55.7898 4.53433 56.3272 4.959C56.8732 5.38367 57.1808 5.947 57.2502 6.649H55.9502C55.9068 6.30233 55.7248 5.999 55.4042 5.739C55.0835 5.47033 54.6588 5.336 54.1302 5.336C53.6362 5.336 53.2332 5.466 52.9212 5.726C52.6092 5.97733 52.4532 6.33267 52.4532 6.792C52.4532 7.12133 52.5442 7.39 52.7262 7.598C52.9168 7.806 53.1465 7.96633 53.4152 8.079C53.6925 8.183 54.0782 8.30433 54.5722 8.443C55.1702 8.60767 55.6512 8.77233 56.0152 8.937C56.3792 9.093 56.6912 9.34 56.9512 9.678C57.2112 10.0073 57.3412 10.458 57.3412 11.03C57.3412 11.472 57.2242 11.888 56.9902 12.278C56.7562 12.668 56.4095 12.9843 55.9502 13.227C55.4908 13.4697 54.9492 13.591 54.3252 13.591ZM63.0601 13.5L60.2651 10.354V13.5H59.0821V3.88H60.2651V9.535L63.0081 6.376H64.6591L61.3051 9.925L64.6721 13.5H63.0601ZM66.3835 5.219C66.1582 5.219 65.9675 5.141 65.8115 4.985C65.6555 4.829 65.5775 4.63833 65.5775 4.413C65.5775 4.18767 65.6555 3.997 65.8115 3.841C65.9675 3.685 66.1582 3.607 66.3835 3.607C66.6002 3.607 66.7822 3.685 66.9295 3.841C67.0855 3.997 67.1635 4.18767 67.1635 4.413C67.1635 4.63833 67.0855 4.829 66.9295 4.985C66.7822 5.141 66.6002 5.219 66.3835 5.219ZM66.9555 6.376V13.5H65.7725V6.376H66.9555ZM72.4427 6.246C73.3094 6.246 74.0114 6.51033 74.5487 7.039C75.086 7.559 75.3547 8.313 75.3547 9.301V13.5H74.1847V9.47C74.1847 8.75933 74.007 8.21767 73.6517 7.845C73.2964 7.46367 72.811 7.273 72.1957 7.273C71.5717 7.273 71.0734 7.468 70.7007 7.858C70.3367 8.248 70.1547 8.81567 70.1547 9.561V13.5H68.9717V6.376H70.1547V7.39C70.3887 7.026 70.705 6.74433 71.1037 6.545C71.511 6.34567 71.9574 6.246 72.4427 6.246ZM76.8451 8.963C76.8451 8.079 77.0445 7.286 77.4431 6.584C77.8418 5.87333 78.3835 5.31867 79.0681 4.92C79.7615 4.52133 80.5285 4.322 81.3691 4.322C82.3571 4.322 83.2195 4.56033 83.9561 5.037C84.6928 5.51367 85.2301 6.18967 85.5681 7.065H84.1511C83.8998 6.519 83.5358 6.09867 83.0591 5.804C82.5911 5.50933 82.0278 5.362 81.3691 5.362C80.7365 5.362 80.1688 5.50933 79.6661 5.804C79.1635 6.09867 78.7691 6.519 78.4831 7.065C78.1971 7.60233 78.0541 8.235 78.0541 8.963C78.0541 9.68233 78.1971 10.315 78.4831 10.861C78.7691 11.3983 79.1635 11.8143 79.6661 12.109C80.1688 12.4037 80.7365 12.551 81.3691 12.551C82.0278 12.551 82.5911 12.408 83.0591 12.122C83.5358 11.8273 83.8998 11.407 84.1511 10.861H85.5681C85.2301 11.7277 84.6928 12.3993 83.9561 12.876C83.2195 13.344 82.3571 13.578 81.3691 13.578C80.5285 13.578 79.7615 13.383 79.0681 12.993C78.3835 12.5943 77.8418 12.044 77.4431 11.342C77.0445 10.64 76.8451 9.847 76.8451 8.963ZM86.8871 9.912C86.8871 9.184 87.0345 8.547 87.3291 8.001C87.6238 7.44633 88.0268 7.01733 88.5381 6.714C89.0581 6.41067 89.6345 6.259 90.2671 6.259C90.8911 6.259 91.4328 6.39333 91.8921 6.662C92.3515 6.93067 92.6938 7.26867 92.9191 7.676V6.376H94.1151V13.5H92.9191V12.174C92.6851 12.59 92.3341 12.9367 91.8661 13.214C91.4068 13.4827 90.8695 13.617 90.2541 13.617C89.6215 13.617 89.0495 13.461 88.5381 13.149C88.0268 12.837 87.6238 12.3993 87.3291 11.836C87.0345 11.2727 86.8871 10.6313 86.8871 9.912ZM92.9191 9.925C92.9191 9.38767 92.8108 8.91967 92.5941 8.521C92.3775 8.12233 92.0828 7.819 91.7101 7.611C91.3461 7.39433 90.9431 7.286 90.5011 7.286C90.0591 7.286 89.6561 7.39 89.2921 7.598C88.9281 7.806 88.6378 8.10933 88.4211 8.508C88.2045 8.90667 88.0961 9.37467 88.0961 9.912C88.0961 10.458 88.2045 10.9347 88.4211 11.342C88.6378 11.7407 88.9281 12.0483 89.2921 12.265C89.6561 12.473 90.0591 12.577 90.5011 12.577C90.9431 12.577 91.3461 12.473 91.7101 12.265C92.0828 12.0483 92.3775 11.7407 92.5941 11.342C92.8108 10.9347 92.9191 10.4623 92.9191 9.925ZM97.2973 7.533C97.5053 7.12567 97.7999 6.80933 98.1813 6.584C98.5713 6.35867 99.0436 6.246 99.5983 6.246V7.468H99.2863C97.9603 7.468 97.2973 8.18733 97.2973 9.626V13.5H96.1143V6.376H97.2973V7.533ZM107.464 9.665C107.464 9.89033 107.451 10.1287 107.425 10.38H101.731C101.774 11.082 102.013 11.6323 102.446 12.031C102.888 12.421 103.421 12.616 104.045 12.616C104.556 12.616 104.981 12.499 105.319 12.265C105.666 12.0223 105.908 11.7017 106.047 11.303H107.321C107.13 11.9877 106.749 12.5467 106.177 12.98C105.605 13.4047 104.894 13.617 104.045 13.617C103.369 13.617 102.762 13.4653 102.225 13.162C101.696 12.8587 101.28 12.4297 100.977 11.875C100.674 11.3117 100.522 10.6617 100.522 9.925C100.522 9.18833 100.669 8.54267 100.964 7.988C101.259 7.43333 101.67 7.00867 102.199 6.714C102.736 6.41067 103.352 6.259 104.045 6.259C104.721 6.259 105.319 6.40633 105.839 6.701C106.359 6.99567 106.758 7.403 107.035 7.923C107.321 8.43433 107.464 9.015 107.464 9.665ZM106.242 9.418C106.242 8.96733 106.142 8.58167 105.943 8.261C105.744 7.93167 105.471 7.68467 105.124 7.52C104.786 7.34667 104.409 7.26 103.993 7.26C103.395 7.26 102.884 7.45067 102.459 7.832C102.043 8.21333 101.805 8.742 101.744 9.418H106.242Z" fill="white"/>
</svg>
