<svg width="142" height="19" viewBox="0 0 142 19" fill="none" xmlns="http://www.w3.org/2000/svg">
<g opacity="0.54">
<path d="M17.836 4.636L14.68 13H13.42L10.264 4.636H11.428L14.056 11.848L16.684 4.636H17.836ZM21.9014 13.108C21.2854 13.108 20.7254 12.968 20.2214 12.688C19.7254 12.408 19.3334 12.012 19.0454 11.5C18.7654 10.98 18.6254 10.38 18.6254 9.7C18.6254 9.028 18.7694 8.436 19.0574 7.924C19.3534 7.404 19.7534 7.008 20.2574 6.736C20.7614 6.456 21.3254 6.316 21.9494 6.316C22.5734 6.316 23.1374 6.456 23.6414 6.736C24.1454 7.008 24.5414 7.4 24.8294 7.912C25.1254 8.424 25.2734 9.02 25.2734 9.7C25.2734 10.38 25.1214 10.98 24.8174 11.5C24.5214 12.012 24.1174 12.408 23.6054 12.688C23.0934 12.968 22.5254 13.108 21.9014 13.108ZM21.9014 12.148C22.2934 12.148 22.6614 12.056 23.0054 11.872C23.3494 11.688 23.6254 11.412 23.8334 11.044C24.0494 10.676 24.1574 10.228 24.1574 9.7C24.1574 9.172 24.0534 8.724 23.8454 8.356C23.6374 7.988 23.3654 7.716 23.0294 7.54C22.6934 7.356 22.3294 7.264 21.9374 7.264C21.5374 7.264 21.1694 7.356 20.8334 7.54C20.5054 7.716 20.2414 7.988 20.0414 8.356C19.8414 8.724 19.7414 9.172 19.7414 9.7C19.7414 10.236 19.8374 10.688 20.0294 11.056C20.2294 11.424 20.4934 11.7 20.8214 11.884C21.1494 12.06 21.5094 12.148 21.9014 12.148ZM28.0412 7.324V11.2C28.0412 11.52 28.1092 11.748 28.2452 11.884C28.3812 12.012 28.6172 12.076 28.9532 12.076H29.7572V13H28.7732C28.1652 13 27.7092 12.86 27.4052 12.58C27.1012 12.3 26.9492 11.84 26.9492 11.2V7.324H26.0972V6.424H26.9492V4.768H28.0412V6.424H29.7572V7.324H28.0412ZM32.1723 7.492C32.3643 7.116 32.6363 6.824 32.9883 6.616C33.3483 6.408 33.7843 6.304 34.2963 6.304V7.432H34.0083C32.7843 7.432 32.1723 8.096 32.1723 9.424V13H31.0803V6.424H32.1723V7.492ZM41.5568 9.46C41.5568 9.668 41.5448 9.888 41.5208 10.12H36.2648C36.3048 10.768 36.5248 11.276 36.9248 11.644C37.3328 12.004 37.8248 12.184 38.4008 12.184C38.8728 12.184 39.2648 12.076 39.5768 11.86C39.8968 11.636 40.1208 11.34 40.2488 10.972H41.4248C41.2488 11.604 40.8968 12.12 40.3688 12.52C39.8408 12.912 39.1848 13.108 38.4008 13.108C37.7768 13.108 37.2168 12.968 36.7208 12.688C36.2328 12.408 35.8488 12.012 35.5688 11.5C35.2888 10.98 35.1488 10.38 35.1488 9.7C35.1488 9.02 35.2848 8.424 35.5568 7.912C35.8288 7.4 36.2088 7.008 36.6968 6.736C37.1928 6.456 37.7608 6.316 38.4008 6.316C39.0248 6.316 39.5768 6.452 40.0568 6.724C40.5368 6.996 40.9048 7.372 41.1608 7.852C41.4248 8.324 41.5568 8.86 41.5568 9.46ZM40.4288 9.232C40.4288 8.816 40.3368 8.46 40.1528 8.164C39.9688 7.86 39.7168 7.632 39.3968 7.48C39.0848 7.32 38.7368 7.24 38.3528 7.24C37.8008 7.24 37.3288 7.416 36.9368 7.768C36.5528 8.12 36.3328 8.608 36.2768 9.232H40.4288ZM45.7894 9.688C45.7894 9.016 45.9254 8.428 46.1974 7.924C46.4694 7.412 46.8414 7.016 47.3134 6.736C47.7934 6.456 48.3254 6.316 48.9094 6.316C49.4854 6.316 49.9854 6.44 50.4094 6.688C50.8334 6.936 51.1494 7.248 51.3574 7.624V6.424H52.4614V13H51.3574V11.776C51.1414 12.16 50.8174 12.48 50.3854 12.736C49.9614 12.984 49.4654 13.108 48.8974 13.108C48.3134 13.108 47.7854 12.964 47.3134 12.676C46.8414 12.388 46.4694 11.984 46.1974 11.464C45.9254 10.944 45.7894 10.352 45.7894 9.688ZM51.3574 9.7C51.3574 9.204 51.2574 8.772 51.0574 8.404C50.8574 8.036 50.5854 7.756 50.2414 7.564C49.9054 7.364 49.5334 7.264 49.1254 7.264C48.7174 7.264 48.3454 7.36 48.0094 7.552C47.6734 7.744 47.4054 8.024 47.2054 8.392C47.0054 8.76 46.9054 9.192 46.9054 9.688C46.9054 10.192 47.0054 10.632 47.2054 11.008C47.4054 11.376 47.6734 11.66 48.0094 11.86C48.3454 12.052 48.7174 12.148 49.1254 12.148C49.5334 12.148 49.9054 12.052 50.2414 11.86C50.5854 11.66 50.8574 11.376 51.0574 11.008C51.2574 10.632 51.3574 10.196 51.3574 9.7ZM53.8988 9.688C53.8988 9.016 54.0348 8.428 54.3068 7.924C54.5788 7.412 54.9508 7.016 55.4228 6.736C55.9028 6.456 56.4388 6.316 57.0308 6.316C57.5428 6.316 58.0188 6.436 58.4588 6.676C58.8988 6.908 59.2348 7.216 59.4668 7.6V4.12H60.5708V13H59.4668V11.764C59.2508 12.156 58.9308 12.48 58.5068 12.736C58.0828 12.984 57.5868 13.108 57.0188 13.108C56.4348 13.108 55.9028 12.964 55.4228 12.676C54.9508 12.388 54.5788 11.984 54.3068 11.464C54.0348 10.944 53.8988 10.352 53.8988 9.688ZM59.4668 9.7C59.4668 9.204 59.3668 8.772 59.1668 8.404C58.9668 8.036 58.6948 7.756 58.3508 7.564C58.0148 7.364 57.6428 7.264 57.2348 7.264C56.8268 7.264 56.4548 7.36 56.1188 7.552C55.7828 7.744 55.5148 8.024 55.3148 8.392C55.1148 8.76 55.0148 9.192 55.0148 9.688C55.0148 10.192 55.1148 10.632 55.3148 11.008C55.5148 11.376 55.7828 11.66 56.1188 11.86C56.4548 12.052 56.8268 12.148 57.2348 12.148C57.6428 12.148 58.0148 12.052 58.3508 11.86C58.6948 11.66 58.9668 11.376 59.1668 11.008C59.3668 10.632 59.4668 10.196 59.4668 9.7ZM63.5082 7.492C63.7002 7.116 63.9722 6.824 64.3242 6.616C64.6842 6.408 65.1202 6.304 65.6322 6.304V7.432H65.3442C64.1202 7.432 63.5082 8.096 63.5082 9.424V13H62.4162V6.424H63.5082V7.492ZM72.8928 9.46C72.8928 9.668 72.8808 9.888 72.8568 10.12H67.6008C67.6408 10.768 67.8608 11.276 68.2608 11.644C68.6688 12.004 69.1608 12.184 69.7368 12.184C70.2088 12.184 70.6008 12.076 70.9128 11.86C71.2328 11.636 71.4568 11.34 71.5848 10.972H72.7608C72.5848 11.604 72.2328 12.12 71.7048 12.52C71.1768 12.912 70.5208 13.108 69.7368 13.108C69.1128 13.108 68.5528 12.968 68.0568 12.688C67.5688 12.408 67.1848 12.012 66.9048 11.5C66.6248 10.98 66.4848 10.38 66.4848 9.7C66.4848 9.02 66.6208 8.424 66.8928 7.912C67.1648 7.4 67.5448 7.008 68.0328 6.736C68.5288 6.456 69.0968 6.316 69.7368 6.316C70.3608 6.316 70.9128 6.452 71.3928 6.724C71.8728 6.996 72.2408 7.372 72.4968 7.852C72.7608 8.324 72.8928 8.86 72.8928 9.46ZM71.7648 9.232C71.7648 8.816 71.6728 8.46 71.4888 8.164C71.3048 7.86 71.0528 7.632 70.7328 7.48C70.4208 7.32 70.0728 7.24 69.6888 7.24C69.1368 7.24 68.6648 7.416 68.2728 7.768C67.8888 8.12 67.6688 8.608 67.6128 9.232H71.7648ZM76.6622 13.108C76.1582 13.108 75.7062 13.024 75.3062 12.856C74.9062 12.68 74.5902 12.44 74.3582 12.136C74.1262 11.824 73.9982 11.468 73.9742 11.068H75.1022C75.1342 11.396 75.2862 11.664 75.5582 11.872C75.8382 12.08 76.2022 12.184 76.6502 12.184C77.0662 12.184 77.3942 12.092 77.6342 11.908C77.8742 11.724 77.9942 11.492 77.9942 11.212C77.9942 10.924 77.8662 10.712 77.6102 10.576C77.3542 10.432 76.9582 10.292 76.4222 10.156C75.9342 10.028 75.5342 9.9 75.2222 9.772C74.9182 9.636 74.6542 9.44 74.4302 9.184C74.2142 8.92 74.1062 8.576 74.1062 8.152C74.1062 7.816 74.2062 7.508 74.4062 7.228C74.6062 6.948 74.8902 6.728 75.2582 6.568C75.6262 6.4 76.0462 6.316 76.5182 6.316C77.2462 6.316 77.8342 6.5 78.2822 6.868C78.7302 7.236 78.9702 7.74 79.0022 8.38H77.9102C77.8862 8.036 77.7462 7.76 77.4902 7.552C77.2422 7.344 76.9062 7.24 76.4822 7.24C76.0902 7.24 75.7782 7.324 75.5462 7.492C75.3142 7.66 75.1982 7.88 75.1982 8.152C75.1982 8.368 75.2662 8.548 75.4022 8.692C75.5462 8.828 75.7222 8.94 75.9302 9.028C76.1462 9.108 76.4422 9.2 76.8182 9.304C77.2902 9.432 77.6742 9.56 77.9702 9.688C78.2662 9.808 78.5182 9.992 78.7262 10.24C78.9422 10.488 79.0542 10.812 79.0622 11.212C79.0622 11.572 78.9622 11.896 78.7622 12.184C78.5622 12.472 78.2782 12.7 77.9102 12.868C77.5502 13.028 77.1342 13.108 76.6622 13.108ZM82.9317 13.108C82.4277 13.108 81.9757 13.024 81.5757 12.856C81.1757 12.68 80.8597 12.44 80.6277 12.136C80.3957 11.824 80.2677 11.468 80.2437 11.068H81.3717C81.4037 11.396 81.5557 11.664 81.8277 11.872C82.1077 12.08 82.4717 12.184 82.9197 12.184C83.3357 12.184 83.6637 12.092 83.9037 11.908C84.1437 11.724 84.2637 11.492 84.2637 11.212C84.2637 10.924 84.1357 10.712 83.8797 10.576C83.6237 10.432 83.2277 10.292 82.6917 10.156C82.2037 10.028 81.8037 9.9 81.4917 9.772C81.1877 9.636 80.9237 9.44 80.6997 9.184C80.4837 8.92 80.3757 8.576 80.3757 8.152C80.3757 7.816 80.4757 7.508 80.6757 7.228C80.8757 6.948 81.1597 6.728 81.5277 6.568C81.8957 6.4 82.3157 6.316 82.7877 6.316C83.5157 6.316 84.1037 6.5 84.5517 6.868C84.9997 7.236 85.2397 7.74 85.2717 8.38H84.1797C84.1557 8.036 84.0157 7.76 83.7597 7.552C83.5117 7.344 83.1757 7.24 82.7517 7.24C82.3597 7.24 82.0477 7.324 81.8157 7.492C81.5837 7.66 81.4677 7.88 81.4677 8.152C81.4677 8.368 81.5357 8.548 81.6717 8.692C81.8157 8.828 81.9917 8.94 82.1997 9.028C82.4157 9.108 82.7117 9.2 83.0877 9.304C83.5597 9.432 83.9437 9.56 84.2397 9.688C84.5357 9.808 84.7877 9.992 84.9957 10.24C85.2117 10.488 85.3237 10.812 85.3317 11.212C85.3317 11.572 85.2317 11.896 85.0317 12.184C84.8317 12.472 84.5477 12.7 84.1797 12.868C83.8197 13.028 83.4037 13.108 82.9317 13.108ZM92.8732 9.46C92.8732 9.668 92.8612 9.888 92.8372 10.12H87.5812C87.6212 10.768 87.8412 11.276 88.2412 11.644C88.6492 12.004 89.1412 12.184 89.7172 12.184C90.1892 12.184 90.5812 12.076 90.8932 11.86C91.2132 11.636 91.4372 11.34 91.5652 10.972H92.7412C92.5652 11.604 92.2132 12.12 91.6852 12.52C91.1572 12.912 90.5012 13.108 89.7172 13.108C89.0932 13.108 88.5332 12.968 88.0372 12.688C87.5492 12.408 87.1652 12.012 86.8852 11.5C86.6052 10.98 86.4652 10.38 86.4652 9.7C86.4652 9.02 86.6012 8.424 86.8732 7.912C87.1452 7.4 87.5252 7.008 88.0132 6.736C88.5092 6.456 89.0772 6.316 89.7172 6.316C90.3412 6.316 90.8932 6.452 91.3732 6.724C91.8532 6.996 92.2212 7.372 92.4772 7.852C92.7412 8.324 92.8732 8.86 92.8732 9.46ZM91.7452 9.232C91.7452 8.816 91.6532 8.46 91.4692 8.164C91.2852 7.86 91.0332 7.632 90.7132 7.48C90.4012 7.32 90.0532 7.24 89.6692 7.24C89.1172 7.24 88.6452 7.416 88.2532 7.768C87.8692 8.12 87.6492 8.608 87.5932 9.232H91.7452ZM103.514 9.46C103.514 9.668 103.502 9.888 103.478 10.12H98.2218C98.2618 10.768 98.4818 11.276 98.8818 11.644C99.2898 12.004 99.7818 12.184 100.358 12.184C100.83 12.184 101.222 12.076 101.534 11.86C101.854 11.636 102.078 11.34 102.206 10.972H103.382C103.206 11.604 102.854 12.12 102.326 12.52C101.798 12.912 101.142 13.108 100.358 13.108C99.7338 13.108 99.1738 12.968 98.6778 12.688C98.1898 12.408 97.8058 12.012 97.5258 11.5C97.2458 10.98 97.1058 10.38 97.1058 9.7C97.1058 9.02 97.2418 8.424 97.5138 7.912C97.7858 7.4 98.1658 7.008 98.6538 6.736C99.1498 6.456 99.7178 6.316 100.358 6.316C100.982 6.316 101.534 6.452 102.014 6.724C102.494 6.996 102.862 7.372 103.118 7.852C103.382 8.324 103.514 8.86 103.514 9.46ZM102.386 9.232C102.386 8.816 102.294 8.46 102.11 8.164C101.926 7.86 101.674 7.632 101.354 7.48C101.042 7.32 100.694 7.24 100.31 7.24C99.7578 7.24 99.2858 7.416 98.8938 7.768C98.5098 8.12 98.2898 8.608 98.2338 9.232H102.386ZM109.515 8.14V9.064H104.727V8.14H109.515ZM119.473 6.304C119.985 6.304 120.441 6.412 120.841 6.628C121.241 6.836 121.557 7.152 121.789 7.576C122.021 8 122.137 8.516 122.137 9.124V13H121.057V9.28C121.057 8.624 120.893 8.124 120.565 7.78C120.245 7.428 119.809 7.252 119.257 7.252C118.689 7.252 118.237 7.436 117.901 7.804C117.565 8.164 117.397 8.688 117.397 9.376V13H116.317V9.28C116.317 8.624 116.153 8.124 115.825 7.78C115.505 7.428 115.069 7.252 114.517 7.252C113.949 7.252 113.497 7.436 113.161 7.804C112.825 8.164 112.657 8.688 112.657 9.376V13H111.565V6.424H112.657V7.372C112.873 7.028 113.161 6.764 113.521 6.58C113.889 6.396 114.293 6.304 114.733 6.304C115.285 6.304 115.773 6.428 116.197 6.676C116.621 6.924 116.937 7.288 117.145 7.768C117.329 7.304 117.633 6.944 118.057 6.688C118.481 6.432 118.953 6.304 119.473 6.304ZM123.52 9.688C123.52 9.016 123.656 8.428 123.928 7.924C124.2 7.412 124.572 7.016 125.044 6.736C125.524 6.456 126.056 6.316 126.64 6.316C127.216 6.316 127.716 6.44 128.14 6.688C128.564 6.936 128.88 7.248 129.088 7.624V6.424H130.192V13H129.088V11.776C128.872 12.16 128.548 12.48 128.116 12.736C127.692 12.984 127.196 13.108 126.628 13.108C126.044 13.108 125.516 12.964 125.044 12.676C124.572 12.388 124.2 11.984 123.928 11.464C123.656 10.944 123.52 10.352 123.52 9.688ZM129.088 9.7C129.088 9.204 128.988 8.772 128.788 8.404C128.588 8.036 128.316 7.756 127.972 7.564C127.636 7.364 127.264 7.264 126.856 7.264C126.448 7.264 126.076 7.36 125.74 7.552C125.404 7.744 125.136 8.024 124.936 8.392C124.736 8.76 124.636 9.192 124.636 9.688C124.636 10.192 124.736 10.632 124.936 11.008C125.136 11.376 125.404 11.66 125.74 11.86C126.076 12.052 126.448 12.148 126.856 12.148C127.264 12.148 127.636 12.052 127.972 11.86C128.316 11.66 128.588 11.376 128.788 11.008C128.988 10.632 129.088 10.196 129.088 9.7ZM132.601 5.356C132.393 5.356 132.217 5.284 132.073 5.14C131.929 4.996 131.857 4.82 131.857 4.612C131.857 4.404 131.929 4.228 132.073 4.084C132.217 3.94 132.393 3.868 132.601 3.868C132.801 3.868 132.969 3.94 133.105 4.084C133.249 4.228 133.321 4.404 133.321 4.612C133.321 4.82 133.249 4.996 133.105 5.14C132.969 5.284 132.801 5.356 132.601 5.356ZM133.129 6.424V13H132.037V6.424H133.129ZM136.082 4.12V13H134.99V4.12H136.082Z" fill="#999999"/>
</g>
</svg>
