<svg width="45" height="19" viewBox="0 0 45 19" fill="none" xmlns="http://www.w3.org/2000/svg">
<path d="M8.489 4.439L5.07 13.5H3.705L0.286 4.439H1.547L4.394 12.252L7.241 4.439H8.489ZM10.3972 5.219C10.1718 5.219 9.98116 5.141 9.82516 4.985C9.66916 4.829 9.59116 4.63833 9.59116 4.413C9.59116 4.18767 9.66916 3.997 9.82516 3.841C9.98116 3.685 10.1718 3.607 10.3972 3.607C10.6138 3.607 10.7958 3.685 10.9432 3.841C11.0992 3.997 11.1772 4.18767 11.1772 4.413C11.1772 4.63833 11.0992 4.829 10.9432 4.985C10.7958 5.141 10.6138 5.219 10.3972 5.219ZM10.9692 6.376V13.5H9.78616V6.376H10.9692ZM15.5074 13.617C14.9614 13.617 14.4717 13.526 14.0384 13.344C13.605 13.1533 13.2627 12.8933 13.0114 12.564C12.76 12.226 12.6214 11.8403 12.5954 11.407H13.8174C13.852 11.7623 14.0167 12.0527 14.3114 12.278C14.6147 12.5033 15.009 12.616 15.4944 12.616C15.945 12.616 16.3004 12.5163 16.5604 12.317C16.8204 12.1177 16.9504 11.8663 16.9504 11.563C16.9504 11.251 16.8117 11.0213 16.5344 10.874C16.257 10.718 15.828 10.5663 15.2474 10.419C14.7187 10.2803 14.2854 10.1417 13.9474 10.003C13.618 9.85567 13.332 9.64333 13.0894 9.366C12.8554 9.08 12.7384 8.70733 12.7384 8.248C12.7384 7.884 12.8467 7.55033 13.0634 7.247C13.28 6.94367 13.5877 6.70533 13.9864 6.532C14.385 6.35 14.84 6.259 15.3514 6.259C16.14 6.259 16.777 6.45833 17.2624 6.857C17.7477 7.25567 18.0077 7.80167 18.0424 8.495H16.8594C16.8334 8.12233 16.6817 7.82333 16.4044 7.598C16.1357 7.37267 15.7717 7.26 15.3124 7.26C14.8877 7.26 14.5497 7.351 14.2984 7.533C14.047 7.715 13.9214 7.95333 13.9214 8.248C13.9214 8.482 13.995 8.677 14.1424 8.833C14.2984 8.98033 14.489 9.10167 14.7144 9.197C14.9484 9.28367 15.269 9.38333 15.6764 9.496C16.1877 9.63467 16.6037 9.77333 16.9244 9.912C17.245 10.042 17.518 10.2413 17.7434 10.51C17.9774 10.7787 18.0987 11.1297 18.1074 11.563C18.1074 11.953 17.999 12.304 17.7824 12.616C17.5657 12.928 17.258 13.175 16.8594 13.357C16.4694 13.5303 16.0187 13.617 15.5074 13.617ZM19.3354 9.912C19.3354 9.184 19.4827 8.547 19.7774 8.001C20.072 7.44633 20.475 7.01733 20.9864 6.714C21.5064 6.41067 22.0827 6.259 22.7154 6.259C23.3394 6.259 23.881 6.39333 24.3404 6.662C24.7997 6.93067 25.142 7.26867 25.3674 7.676V6.376H26.5634V13.5H25.3674V12.174C25.1334 12.59 24.7824 12.9367 24.3144 13.214C23.855 13.4827 23.3177 13.617 22.7024 13.617C22.0697 13.617 21.4977 13.461 20.9864 13.149C20.475 12.837 20.072 12.3993 19.7774 11.836C19.4827 11.2727 19.3354 10.6313 19.3354 9.912ZM25.3674 9.925C25.3674 9.38767 25.259 8.91967 25.0424 8.521C24.8257 8.12233 24.531 7.819 24.1584 7.611C23.7944 7.39433 23.3914 7.286 22.9494 7.286C22.5074 7.286 22.1044 7.39 21.7404 7.598C21.3764 7.806 21.086 8.10933 20.8694 8.508C20.6527 8.90667 20.5444 9.37467 20.5444 9.912C20.5444 10.458 20.6527 10.9347 20.8694 11.342C21.086 11.7407 21.3764 12.0483 21.7404 12.265C22.1044 12.473 22.5074 12.577 22.9494 12.577C23.3914 12.577 23.7944 12.473 24.1584 12.265C24.531 12.0483 24.8257 11.7407 25.0424 11.342C25.259 10.9347 25.3674 10.4623 25.3674 9.925ZM31.5005 6.259C32.1159 6.259 32.6532 6.39333 33.1125 6.662C33.5805 6.93067 33.9272 7.26867 34.1525 7.676V6.376H35.3485V13.656C35.3485 14.306 35.2099 14.8823 34.9325 15.385C34.6552 15.8963 34.2565 16.295 33.7365 16.581C33.2252 16.867 32.6272 17.01 31.9425 17.01C31.0065 17.01 30.2265 16.789 29.6025 16.347C28.9785 15.905 28.6102 15.3027 28.4975 14.54H29.6675C29.7975 14.9733 30.0662 15.32 30.4735 15.58C30.8809 15.8487 31.3705 15.983 31.9425 15.983C32.5925 15.983 33.1212 15.7793 33.5285 15.372C33.9445 14.9647 34.1525 14.3927 34.1525 13.656V12.161C33.9185 12.577 33.5719 12.9237 33.1125 13.201C32.6532 13.4783 32.1159 13.617 31.5005 13.617C30.8679 13.617 30.2915 13.461 29.7715 13.149C29.2602 12.837 28.8572 12.3993 28.5625 11.836C28.2679 11.2727 28.1205 10.6313 28.1205 9.912C28.1205 9.184 28.2679 8.547 28.5625 8.001C28.8572 7.44633 29.2602 7.01733 29.7715 6.714C30.2915 6.41067 30.8679 6.259 31.5005 6.259ZM34.1525 9.925C34.1525 9.38767 34.0442 8.91967 33.8275 8.521C33.6109 8.12233 33.3162 7.819 32.9435 7.611C32.5795 7.39433 32.1765 7.286 31.7345 7.286C31.2925 7.286 30.8895 7.39 30.5255 7.598C30.1615 7.806 29.8712 8.10933 29.6545 8.508C29.4379 8.90667 29.3295 9.37467 29.3295 9.912C29.3295 10.458 29.4379 10.9347 29.6545 11.342C29.8712 11.7407 30.1615 12.0483 30.5255 12.265C30.8895 12.473 31.2925 12.577 31.7345 12.577C32.1765 12.577 32.5795 12.473 32.9435 12.265C33.3162 12.0483 33.6109 11.7407 33.8275 11.342C34.0442 10.9347 34.1525 10.4623 34.1525 9.925ZM43.8477 9.665C43.8477 9.89033 43.8347 10.1287 43.8087 10.38H38.1147C38.158 11.082 38.3963 11.6323 38.8297 12.031C39.2717 12.421 39.8047 12.616 40.4287 12.616C40.94 12.616 41.3647 12.499 41.7027 12.265C42.0493 12.0223 42.292 11.7017 42.4307 11.303H43.7047C43.514 11.9877 43.1327 12.5467 42.5607 12.98C41.9887 13.4047 41.278 13.617 40.4287 13.617C39.7527 13.617 39.146 13.4653 38.6087 13.162C38.08 12.8587 37.664 12.4297 37.3607 11.875C37.0573 11.3117 36.9057 10.6617 36.9057 9.925C36.9057 9.18833 37.053 8.54267 37.3477 7.988C37.6423 7.43333 38.054 7.00867 38.5827 6.714C39.12 6.41067 39.7353 6.259 40.4287 6.259C41.1047 6.259 41.7027 6.40633 42.2227 6.701C42.7427 6.99567 43.1413 7.403 43.4187 7.923C43.7047 8.43433 43.8477 9.015 43.8477 9.665ZM42.6257 9.418C42.6257 8.96733 42.526 8.58167 42.3267 8.261C42.1273 7.93167 41.8543 7.68467 41.5077 7.52C41.1697 7.34667 40.7927 7.26 40.3767 7.26C39.7787 7.26 39.2673 7.45067 38.8427 7.832C38.4267 8.21333 38.1883 8.742 38.1277 9.418H42.6257Z" fill="white"/>
</svg>
