<svg width="396" height="20" viewBox="0 0 396 20" fill="none" xmlns="http://www.w3.org/2000/svg">
<path d="M147.564 10.75L151.764 14.95L150.695 16L144.695 10L150.695 4L151.764 5.05L147.564 9.25H156.695V10.75H147.564Z" fill="#524E8D"/>
<path d="M161.829 15V4.81445H165.584C166.306 4.81445 166.905 4.93328 167.379 5.17095C167.853 5.40861 168.207 5.72892 168.441 6.13188C168.674 6.53483 168.791 6.98632 168.791 7.48635C168.791 7.91236 168.713 8.27004 168.556 8.55939C168.399 8.84873 168.191 9.0812 167.931 9.25679C167.67 9.43238 167.383 9.56078 167.069 9.64199V9.74016C167.409 9.75757 167.741 9.86674 168.065 10.0677C168.389 10.2686 168.657 10.5526 168.869 10.9197C169.081 11.2868 169.187 11.732 169.187 12.2554C169.187 12.774 169.065 13.2406 168.821 13.6553C168.577 14.07 168.201 14.3978 167.694 14.6387C167.187 14.8796 166.538 15 165.748 15H161.829ZM163.391 13.6621H165.587C166.32 13.6621 166.845 13.5209 167.162 13.2385C167.479 12.9562 167.637 12.6034 167.637 12.1802C167.637 11.8564 167.556 11.5619 167.395 11.2965C167.233 11.0311 167.004 10.8196 166.708 10.662C166.412 10.5045 166.059 10.4257 165.65 10.4257H163.391V13.6621ZM163.391 9.22117H165.434C165.777 9.22117 166.086 9.15555 166.362 9.0243C166.638 8.89305 166.857 8.70706 167.017 8.46635C167.178 8.22563 167.259 7.94253 167.259 7.61705C167.259 7.19878 167.112 6.84928 166.819 6.56855C166.527 6.28782 166.078 6.14745 165.475 6.14745H163.391V9.22117ZM173.046 15.1679C172.562 15.1679 172.125 15.0786 171.734 14.9C171.343 14.7214 171.033 14.4587 170.805 14.1119C170.576 13.7651 170.462 13.3406 170.462 12.8385C170.462 12.4043 170.546 12.0484 170.713 11.7708C170.881 11.4933 171.106 11.273 171.389 11.1101C171.673 10.9471 171.989 10.8246 172.338 10.7426C172.686 10.6607 173.042 10.5985 173.405 10.5562C173.856 10.5019 174.222 10.4576 174.504 10.4232C174.786 10.3888 174.994 10.3319 175.129 10.2524C175.264 10.1728 175.331 10.0434 175.331 9.86389V9.82533C175.331 9.53995 175.276 9.29844 175.167 9.10079C175.057 8.90314 174.893 8.75142 174.676 8.64565C174.459 8.53987 174.188 8.48699 173.865 8.48699C173.535 8.48699 173.25 8.53821 173.012 8.64066C172.773 8.74311 172.579 8.87342 172.43 9.03161C172.28 9.18979 172.169 9.3557 172.096 9.52933L170.681 9.16552C170.855 8.70724 171.104 8.33908 171.427 8.06104C171.751 7.783 172.122 7.58027 172.541 7.45285C172.959 7.32543 173.394 7.26172 173.844 7.26172C174.151 7.26172 174.478 7.29843 174.824 7.37184C175.17 7.44526 175.496 7.57722 175.801 7.76771C176.105 7.95821 176.354 8.22741 176.546 8.57531C176.739 8.92321 176.835 9.37352 176.835 9.92623V15H175.38V13.9536H175.303C175.204 14.151 175.057 14.343 174.861 14.5297C174.665 14.7164 174.417 14.8694 174.118 14.9888C173.818 15.1082 173.461 15.1679 173.046 15.1679ZM173.38 13.9641C173.791 13.9641 174.142 13.8834 174.433 13.7221C174.724 13.5608 174.948 13.3488 175.103 13.0861C175.259 12.8234 175.336 12.5441 175.336 12.2481V11.2661C175.282 11.3196 175.178 11.3684 175.025 11.4126C174.872 11.4567 174.699 11.4958 174.504 11.5298C174.31 11.5638 174.121 11.5927 173.937 11.6166C173.753 11.6404 173.603 11.6595 173.486 11.674C173.204 11.7097 172.946 11.7707 172.711 11.8571C172.475 11.9435 172.288 12.0664 172.15 12.2258C172.011 12.3853 171.942 12.5964 171.942 12.8594C171.942 13.1016 172.004 13.3043 172.129 13.4677C172.253 13.6311 172.423 13.7547 172.639 13.8384C172.854 13.9222 173.101 13.9641 173.38 13.9641ZM182.07 15.1591C181.353 15.1591 180.727 14.9949 180.193 14.6663C179.659 14.3378 179.244 13.8775 178.949 13.2855C178.653 12.6934 178.506 12.0055 178.506 11.2216C178.506 10.4266 178.653 9.73209 178.949 9.13818C179.244 8.54428 179.659 8.08306 180.193 7.75452C180.727 7.42599 181.353 7.26172 182.07 7.26172C182.468 7.26172 182.84 7.31326 183.186 7.41635C183.532 7.51943 183.845 7.66754 184.124 7.86068C184.404 8.05382 184.641 8.29002 184.835 8.56929C185.029 8.84856 185.174 9.16438 185.268 9.51675L183.844 9.8591C183.793 9.66231 183.716 9.48291 183.611 9.3209C183.507 9.15889 183.38 9.01894 183.231 8.90104C183.082 8.78314 182.911 8.69238 182.717 8.62876C182.523 8.56514 182.31 8.53333 182.078 8.53333C181.616 8.53333 181.234 8.65494 180.933 8.89817C180.632 9.14139 180.407 9.46553 180.259 9.87058C180.11 10.2756 180.036 10.7252 180.036 11.2192C180.036 11.7049 180.11 12.1498 180.259 12.5538C180.407 12.9578 180.632 13.2811 180.933 13.5236C181.234 13.7662 181.616 13.8875 182.078 13.8875C182.314 13.8875 182.531 13.8546 182.728 13.7887C182.925 13.7228 183.101 13.6288 183.254 13.5068C183.407 13.3847 183.536 13.2383 183.641 13.0676C183.745 12.8969 183.822 12.709 183.872 12.5039L185.29 12.845C185.2 13.2073 185.056 13.5304 184.86 13.8142C184.664 14.0981 184.426 14.3407 184.145 14.5421C183.864 14.7436 183.548 14.8968 183.198 15.0017C182.848 15.1067 182.472 15.1591 182.07 15.1591ZM188.328 12.4218V10.5836H188.582L191.594 7.35742H193.4L189.943 11.055H189.691L188.328 12.4218ZM186.938 15V4.81445H188.441V15H186.938ZM191.75 15L189.036 11.3899L190.076 10.3261L193.608 15H191.75ZM201.768 7.35742V8.57995H197.623V7.35742H201.768ZM198.739 5.53906H200.243V12.9327C200.243 13.2417 200.307 13.4678 200.436 13.6111C200.565 13.7544 200.778 13.826 201.076 13.826C201.155 13.826 201.257 13.8167 201.385 13.798C201.512 13.7794 201.621 13.761 201.713 13.7427L201.979 14.9479C201.818 15.0009 201.646 15.0394 201.463 15.0634C201.281 15.0874 201.102 15.0994 200.927 15.0994C200.23 15.0994 199.692 14.9212 199.311 14.5648C198.93 14.2083 198.739 13.7056 198.739 13.0567V5.53906ZM206.339 15.1591C205.622 15.1591 204.996 14.9949 204.461 14.6663C203.927 14.3378 203.512 13.8775 203.216 13.2855C202.921 12.6934 202.773 12.0055 202.773 11.2216C202.773 10.4266 202.921 9.73209 203.216 9.13818C203.512 8.54428 203.927 8.08306 204.461 7.75452C204.996 7.42599 205.622 7.26172 206.339 7.26172C207.06 7.26172 207.688 7.42599 208.224 7.75452C208.759 8.08306 209.175 8.54428 209.47 9.13818C209.766 9.73209 209.913 10.4266 209.913 11.2216C209.913 12.0055 209.766 12.6934 209.47 13.2855C209.175 13.8775 208.759 14.3378 208.224 14.6663C207.688 14.9949 207.06 15.1591 206.339 15.1591ZM206.339 13.8875C206.804 13.8875 207.188 13.7656 207.492 13.5218C207.795 13.278 208.021 12.9539 208.168 12.5495C208.315 12.145 208.389 11.7016 208.389 11.2192C208.389 10.7322 208.315 10.2852 208.168 9.87831C208.021 9.47139 207.795 9.14549 207.492 8.90063C207.188 8.65576 206.804 8.53333 206.339 8.53333C205.877 8.53333 205.496 8.65576 205.196 8.90063C204.895 9.14549 204.672 9.47045 204.524 9.87551C204.377 10.2806 204.304 10.7285 204.304 11.2192C204.304 11.7016 204.377 12.145 204.524 12.5495C204.672 12.9539 204.895 13.278 205.196 13.5218C205.496 13.7656 205.877 13.8875 206.339 13.8875ZM215.43 15V4.81445H216.992V13.6572H221.6V15H215.43ZM226.443 15.1591C225.726 15.1591 225.1 14.9949 224.566 14.6663C224.031 14.3378 223.616 13.8775 223.321 13.2855C223.026 12.6934 222.878 12.0055 222.878 11.2216C222.878 10.4266 223.026 9.73209 223.321 9.13818C223.616 8.54428 224.031 8.08306 224.566 7.75452C225.1 7.42599 225.726 7.26172 226.443 7.26172C227.165 7.26172 227.793 7.42599 228.328 7.75452C228.864 8.08306 229.279 8.54428 229.575 9.13818C229.87 9.73209 230.018 10.4266 230.018 11.2216C230.018 12.0055 229.87 12.6934 229.575 13.2855C229.279 13.8775 228.864 14.3378 228.328 14.6663C227.793 14.9949 227.165 15.1591 226.443 15.1591ZM226.443 13.8875C226.908 13.8875 227.293 13.7656 227.596 13.5218C227.9 13.278 228.125 12.9539 228.272 12.5495C228.42 12.145 228.493 11.7016 228.493 11.2192C228.493 10.7322 228.42 10.2852 228.272 9.87831C228.125 9.47139 227.9 9.14549 227.596 8.90063C227.293 8.65576 226.908 8.53333 226.443 8.53333C225.981 8.53333 225.6 8.65576 225.3 8.90063C225 9.14549 224.776 9.47045 224.629 9.87551C224.482 10.2806 224.408 10.7285 224.408 11.2192C224.408 11.7016 224.482 12.145 224.629 12.5495C224.776 12.9539 225 13.278 225.3 13.5218C225.6 13.7656 225.981 13.8875 226.443 13.8875ZM234.882 18.0215C234.293 18.0215 233.783 17.9468 233.35 17.7975C232.917 17.6482 232.561 17.4475 232.279 17.1954C231.998 16.9432 231.786 16.6638 231.642 16.3571L232.894 15.7662C232.989 15.9104 233.112 16.0642 233.265 16.2275C233.417 16.3909 233.622 16.5287 233.88 16.6409C234.139 16.7531 234.472 16.8092 234.88 16.8092C235.461 16.8092 235.933 16.672 236.295 16.3975C236.658 16.1231 236.839 15.6919 236.839 15.104V13.6146H236.708C236.62 13.7801 236.495 13.9615 236.332 14.1588C236.17 14.356 235.944 14.5258 235.654 14.6683C235.365 14.8107 234.987 14.8819 234.521 14.8819C233.923 14.8819 233.383 14.7405 232.901 14.4576C232.419 14.1748 232.037 13.7562 231.756 13.2019C231.475 12.6475 231.334 11.9642 231.334 11.1519C231.334 10.3389 231.474 9.64227 231.754 9.06203C232.034 8.4818 232.416 8.03669 232.9 7.7267C233.383 7.41671 233.931 7.26172 234.541 7.26172C235.013 7.26172 235.395 7.33974 235.688 7.49578C235.98 7.65182 236.21 7.83548 236.376 8.04676C236.543 8.25803 236.671 8.44311 236.76 8.60197H236.865V7.35742H238.336V15.1109C238.336 15.7778 238.184 16.3265 237.881 16.757C237.578 17.1876 237.165 17.5059 236.644 17.7122C236.123 17.9184 235.536 18.0215 234.882 18.0215ZM234.871 13.6331C235.298 13.6331 235.659 13.5337 235.953 13.3349C236.247 13.1361 236.47 12.8494 236.622 12.4749C236.774 12.1003 236.85 11.6518 236.85 11.1295C236.85 10.6167 236.775 10.1668 236.625 9.7798C236.475 9.39279 236.253 9.08994 235.959 8.87123C235.665 8.65253 235.302 8.54318 234.871 8.54318C234.43 8.54318 234.061 8.65813 233.764 8.88805C233.466 9.11797 233.243 9.42736 233.093 9.81624C232.944 10.2051 232.869 10.6429 232.869 11.1295C232.869 11.6265 232.945 12.0632 233.096 12.4397C233.247 12.8161 233.472 13.1091 233.769 13.3187C234.066 13.5283 234.434 13.6331 234.871 13.6331ZM240.361 15V7.35742H241.864V15H240.361ZM241.117 6.19134C240.859 6.19134 240.637 6.10378 240.451 5.92864C240.265 5.75351 240.172 5.54335 240.172 5.29816C240.172 5.04797 240.265 4.83647 240.451 4.66365C240.637 4.49084 240.859 4.40444 241.117 4.40444C241.378 4.40444 241.602 4.4908 241.788 4.66352C241.974 4.83625 242.067 5.04777 242.067 5.2981C242.067 5.54341 241.974 5.75362 241.788 5.92871C241.602 6.1038 241.378 6.19134 241.117 6.19134ZM245.392 10.4716V15H243.888V7.35742H245.322L245.337 9.22842H245.182C245.404 8.545 245.726 8.04637 246.15 7.73251C246.573 7.41865 247.085 7.26172 247.686 7.26172C248.206 7.26172 248.661 7.37075 249.05 7.58882C249.439 7.80688 249.743 8.12959 249.959 8.55692C250.176 8.98426 250.285 9.51329 250.285 10.144V15H248.781V10.3315C248.781 9.7813 248.638 9.35034 248.351 9.03858C248.064 8.72681 247.671 8.57093 247.172 8.57093C246.833 8.57093 246.528 8.64514 246.259 8.79358C245.99 8.94201 245.778 9.15761 245.624 9.4404C245.469 9.72318 245.392 10.0669 245.392 10.4716Z" fill="#524E8D"/>
</svg>
