<svg width="396" height="48" viewBox="0 0 396 48" fill="none" xmlns="http://www.w3.org/2000/svg">
<rect x="0.5" y="0.5" width="395" height="47" rx="12.3" fill="#F8FAFC"/>
<rect x="0.5" y="0.5" width="395" height="47" rx="12.3" stroke="#E2E8F0"/>
<g clip-path="url(#clip0_205_1765)">
<path d="M27.7727 21H26.3636C26.2803 20.5947 26.1345 20.2386 25.9261 19.9318C25.7216 19.625 25.4716 19.3674 25.1761 19.1591C24.8845 18.947 24.5606 18.7879 24.2045 18.6818C23.8485 18.5758 23.4773 18.5227 23.0909 18.5227C22.3864 18.5227 21.7481 18.7008 21.1761 19.0568C20.608 19.4129 20.1553 19.9375 19.8182 20.6307C19.4848 21.3239 19.3182 22.1742 19.3182 23.1818C19.3182 24.1894 19.4848 25.0398 19.8182 25.733C20.1553 26.4261 20.608 26.9508 21.1761 27.3068C21.7481 27.6629 22.3864 27.8409 23.0909 27.8409C23.4773 27.8409 23.8485 27.7879 24.2045 27.6818C24.5606 27.5758 24.8845 27.4186 25.1761 27.2102C25.4716 26.9981 25.7216 26.7386 25.9261 26.4318C26.1345 26.1212 26.2803 25.7652 26.3636 25.3636H27.7727C27.6667 25.9583 27.4735 26.4905 27.1932 26.9602C26.9129 27.4299 26.5644 27.8295 26.1477 28.1591C25.7311 28.4848 25.2633 28.733 24.7443 28.9034C24.2292 29.0739 23.678 29.1591 23.0909 29.1591C22.0985 29.1591 21.2159 28.9167 20.4432 28.4318C19.6705 27.947 19.0625 27.2576 18.6193 26.3636C18.1761 25.4697 17.9545 24.4091 17.9545 23.1818C17.9545 21.9545 18.1761 20.8939 18.6193 20C19.0625 19.1061 19.6705 18.4167 20.4432 17.9318C21.2159 17.447 22.0985 17.2045 23.0909 17.2045C23.678 17.2045 24.2292 17.2898 24.7443 17.4602C25.2633 17.6307 25.7311 17.8807 26.1477 18.2102C26.5644 18.536 26.9129 18.9337 27.1932 19.4034C27.4735 19.8693 27.6667 20.4015 27.7727 21ZM33.4134 29.1818C32.6255 29.1818 31.9342 28.9943 31.3395 28.6193C30.7486 28.2443 30.2865 27.7197 29.9531 27.0455C29.6236 26.3712 29.4588 25.5833 29.4588 24.6818C29.4588 23.7727 29.6236 22.9792 29.9531 22.3011C30.2865 21.6231 30.7486 21.0966 31.3395 20.7216C31.9342 20.3466 32.6255 20.1591 33.4134 20.1591C34.2012 20.1591 34.8906 20.3466 35.4815 20.7216C36.0762 21.0966 36.5384 21.6231 36.8679 22.3011C37.2012 22.9792 37.3679 23.7727 37.3679 24.6818C37.3679 25.5833 37.2012 26.3712 36.8679 27.0455C36.5384 27.7197 36.0762 28.2443 35.4815 28.6193C34.8906 28.9943 34.2012 29.1818 33.4134 29.1818ZM33.4134 27.9773C34.0118 27.9773 34.5043 27.8239 34.8906 27.517C35.277 27.2102 35.563 26.8068 35.7486 26.3068C35.9342 25.8068 36.027 25.2652 36.027 24.6818C36.027 24.0985 35.9342 23.5549 35.7486 23.0511C35.563 22.5473 35.277 22.1402 34.8906 21.8295C34.5043 21.5189 34.0118 21.3636 33.4134 21.3636C32.8149 21.3636 32.3224 21.5189 31.9361 21.8295C31.5497 22.1402 31.2637 22.5473 31.0781 23.0511C30.8925 23.5549 30.7997 24.0985 30.7997 24.6818C30.7997 25.2652 30.8925 25.8068 31.0781 26.3068C31.2637 26.8068 31.5497 27.2102 31.9361 27.517C32.3224 27.8239 32.8149 27.9773 33.4134 27.9773ZM40.7557 23.75V29H39.4148V20.2727H40.7102V21.6364H40.8239C41.0284 21.1932 41.339 20.8371 41.7557 20.5682C42.1723 20.2955 42.7102 20.1591 43.3693 20.1591C43.9602 20.1591 44.4773 20.2803 44.9205 20.5227C45.3636 20.7614 45.7083 21.125 45.9545 21.6136C46.2008 22.0985 46.3239 22.7121 46.3239 23.4545V29H44.983V23.5455C44.983 22.8598 44.8049 22.3258 44.4489 21.9432C44.0928 21.5568 43.6042 21.3636 42.983 21.3636C42.5549 21.3636 42.1723 21.4564 41.8352 21.642C41.5019 21.8277 41.2386 22.0985 41.0455 22.4545C40.8523 22.8106 40.7557 23.2424 40.7557 23.75ZM52.6605 20.2727V21.4091H47.956V20.2727H52.6605ZM49.3651 29V19.0682C49.3651 18.5682 49.4825 18.1515 49.7173 17.8182C49.9522 17.4848 50.2571 17.2348 50.6321 17.0682C51.0071 16.9015 51.4029 16.8182 51.8196 16.8182C52.1491 16.8182 52.4181 16.8447 52.6264 16.8977C52.8348 16.9508 52.9901 17 53.0923 17.0455L52.706 18.2045C52.6378 18.1818 52.5431 18.1534 52.4219 18.1193C52.3045 18.0852 52.1491 18.0682 51.956 18.0682C51.5128 18.0682 51.1927 18.1799 50.9957 18.4034C50.8026 18.6269 50.706 18.9545 50.706 19.3864V29H49.3651ZM54.5398 29V20.2727H55.8807V29H54.5398ZM55.2216 18.8182C54.9602 18.8182 54.7348 18.7292 54.5455 18.5511C54.3598 18.3731 54.267 18.1591 54.267 17.9091C54.267 17.6591 54.3598 17.4451 54.5455 17.267C54.7348 17.089 54.9602 17 55.2216 17C55.483 17 55.7064 17.089 55.892 17.267C56.0814 17.4451 56.1761 17.6591 56.1761 17.9091C56.1761 18.1591 56.0814 18.3731 55.892 18.5511C55.7064 18.7292 55.483 18.8182 55.2216 18.8182ZM58.3366 29V20.2727H59.6321V21.5909H59.723C59.8821 21.1591 60.17 20.8087 60.5866 20.5398C61.0033 20.2708 61.473 20.1364 61.9957 20.1364C62.0942 20.1364 62.2173 20.1383 62.3651 20.142C62.5128 20.1458 62.6245 20.1515 62.7003 20.1591V21.5227C62.6548 21.5114 62.5507 21.4943 62.3878 21.4716C62.2287 21.4451 62.0601 21.4318 61.8821 21.4318C61.4579 21.4318 61.0791 21.5208 60.7457 21.6989C60.4162 21.8731 60.1548 22.1155 59.9616 22.4261C59.7723 22.733 59.6776 23.0833 59.6776 23.4773V29H58.3366ZM64.2898 29V20.2727H65.5852V21.6364H65.6989C65.8807 21.1705 66.1742 20.8087 66.5795 20.5511C66.9848 20.2898 67.4716 20.1591 68.0398 20.1591C68.6155 20.1591 69.0947 20.2898 69.4773 20.5511C69.8636 20.8087 70.1648 21.1705 70.3807 21.6364H70.4716C70.6951 21.1856 71.0303 20.8277 71.4773 20.5625C71.9242 20.2936 72.4602 20.1591 73.0852 20.1591C73.8655 20.1591 74.5038 20.4034 75 20.892C75.4962 21.3769 75.7443 22.1326 75.7443 23.1591V29H74.4034V23.1591C74.4034 22.5152 74.2273 22.0549 73.875 21.7784C73.5227 21.5019 73.108 21.3636 72.6307 21.3636C72.017 21.3636 71.5417 21.5492 71.2045 21.9205C70.8674 22.2879 70.6989 22.7538 70.6989 23.3182V29H69.3352V23.0227C69.3352 22.5265 69.1742 22.1269 68.8523 21.8239C68.5303 21.517 68.1155 21.3636 67.608 21.3636C67.2595 21.3636 66.9337 21.4564 66.6307 21.642C66.3314 21.8277 66.089 22.0852 65.9034 22.4148C65.7216 22.7405 65.6307 23.1174 65.6307 23.5455V29H64.2898ZM83.5597 32.2727C83.3324 32.2727 83.1297 32.2538 82.9517 32.2159C82.7737 32.1818 82.6506 32.1477 82.5824 32.1136L82.9233 30.9318C83.2491 31.0152 83.5369 31.0455 83.7869 31.0227C84.0369 31 84.2585 30.8883 84.4517 30.6875C84.6487 30.4905 84.8286 30.1705 84.9915 29.7273L85.2415 29.0455L82.0142 20.2727H83.4688L85.8778 27.2273H85.9688L88.3778 20.2727H89.8324L86.1278 30.2727C85.9612 30.7235 85.7547 31.0966 85.5085 31.392C85.2623 31.6913 84.9763 31.9129 84.6506 32.0568C84.3286 32.2008 83.965 32.2727 83.5597 32.2727ZM94.8352 29.1818C94.0473 29.1818 93.3561 28.9943 92.7614 28.6193C92.1705 28.2443 91.7083 27.7197 91.375 27.0455C91.0455 26.3712 90.8807 25.5833 90.8807 24.6818C90.8807 23.7727 91.0455 22.9792 91.375 22.3011C91.7083 21.6231 92.1705 21.0966 92.7614 20.7216C93.3561 20.3466 94.0473 20.1591 94.8352 20.1591C95.6231 20.1591 96.3125 20.3466 96.9034 20.7216C97.4981 21.0966 97.9602 21.6231 98.2898 22.3011C98.6231 22.9792 98.7898 23.7727 98.7898 24.6818C98.7898 25.5833 98.6231 26.3712 98.2898 27.0455C97.9602 27.7197 97.4981 28.2443 96.9034 28.6193C96.3125 28.9943 95.6231 29.1818 94.8352 29.1818ZM94.8352 27.9773C95.4337 27.9773 95.9261 27.8239 96.3125 27.517C96.6989 27.2102 96.9848 26.8068 97.1705 26.3068C97.3561 25.8068 97.4489 25.2652 97.4489 24.6818C97.4489 24.0985 97.3561 23.5549 97.1705 23.0511C96.9848 22.5473 96.6989 22.1402 96.3125 21.8295C95.9261 21.5189 95.4337 21.3636 94.8352 21.3636C94.2367 21.3636 93.7443 21.5189 93.358 21.8295C92.9716 22.1402 92.6856 22.5473 92.5 23.0511C92.3144 23.5549 92.2216 24.0985 92.2216 24.6818C92.2216 25.2652 92.3144 25.8068 92.5 26.3068C92.6856 26.8068 92.9716 27.2102 93.358 27.517C93.7443 27.8239 94.2367 27.9773 94.8352 27.9773ZM106.337 25.4318V20.2727H107.678V29H106.337V27.5227H106.246C106.041 27.9659 105.723 28.3428 105.291 28.6534C104.859 28.9602 104.314 29.1136 103.655 29.1136C103.109 29.1136 102.625 28.9943 102.2 28.7557C101.776 28.5133 101.443 28.1496 101.2 27.6648C100.958 27.1761 100.837 26.5606 100.837 25.8182V20.2727H102.178V25.7273C102.178 26.3636 102.356 26.8712 102.712 27.25C103.071 27.6288 103.53 27.8182 104.087 27.8182C104.42 27.8182 104.759 27.733 105.104 27.5625C105.452 27.392 105.744 27.1307 105.979 26.7784C106.217 26.4261 106.337 25.9773 106.337 25.4318ZM110.134 29V20.2727H111.429V21.5909H111.52C111.679 21.1591 111.967 20.8087 112.384 20.5398C112.8 20.2708 113.27 20.1364 113.793 20.1364C113.891 20.1364 114.014 20.1383 114.162 20.142C114.31 20.1458 114.421 20.1515 114.497 20.1591V21.5227C114.452 21.5114 114.348 21.4943 114.185 21.4716C114.026 21.4451 113.857 21.4318 113.679 21.4318C113.255 21.4318 112.876 21.5208 112.543 21.6989C112.213 21.8731 111.952 22.1155 111.759 22.4261C111.569 22.733 111.474 23.0833 111.474 23.4773V29H110.134ZM121.928 23.75V29H120.587V20.2727H121.882V21.6364H121.996C122.2 21.1932 122.511 20.8371 122.928 20.5682C123.344 20.2955 123.882 20.1591 124.541 20.1591C125.132 20.1591 125.649 20.2803 126.092 20.5227C126.536 20.7614 126.88 21.125 127.126 21.6136C127.373 22.0985 127.496 22.7121 127.496 23.4545V29H126.155V23.5455C126.155 22.8598 125.977 22.3258 125.621 21.9432C125.265 21.5568 124.776 21.3636 124.155 21.3636C123.727 21.3636 123.344 21.4564 123.007 21.642C122.674 21.8277 122.411 22.0985 122.217 22.4545C122.024 22.8106 121.928 23.2424 121.928 23.75ZM133.605 29.1818C132.764 29.1818 132.039 28.9962 131.429 28.625C130.823 28.25 130.355 27.7273 130.026 27.0568C129.7 26.3826 129.537 25.5985 129.537 24.7045C129.537 23.8106 129.7 23.0227 130.026 22.3409C130.355 21.6553 130.813 21.1212 131.401 20.7386C131.991 20.3523 132.681 20.1591 133.469 20.1591C133.923 20.1591 134.372 20.2348 134.815 20.3864C135.259 20.5379 135.662 20.7841 136.026 21.125C136.389 21.4621 136.679 21.9091 136.895 22.4659C137.111 23.0227 137.219 23.7083 137.219 24.5227V25.0909H130.491V23.9318H135.855C135.855 23.4394 135.757 23 135.56 22.6136C135.366 22.2273 135.09 21.9223 134.73 21.6989C134.374 21.4754 133.954 21.3636 133.469 21.3636C132.935 21.3636 132.473 21.4962 132.082 21.7614C131.696 22.0227 131.399 22.3636 131.19 22.7841C130.982 23.2045 130.878 23.6553 130.878 24.1364V24.9091C130.878 25.5682 130.991 26.1269 131.219 26.5852C131.45 27.0398 131.77 27.3864 132.179 27.625C132.588 27.8598 133.063 27.9773 133.605 27.9773C133.957 27.9773 134.276 27.928 134.56 27.8295C134.848 27.7273 135.096 27.5758 135.304 27.375C135.512 27.1705 135.673 26.9167 135.787 26.6136L137.082 26.9773C136.946 27.4167 136.717 27.803 136.395 28.1364C136.073 28.4659 135.675 28.7235 135.202 28.9091C134.728 29.0909 134.196 29.1818 133.605 29.1818ZM141.236 29L138.577 20.2727H139.986L141.872 26.9545H141.963L143.827 20.2727H145.259L147.099 26.9318H147.19L149.077 20.2727H150.486L147.827 29H146.509L144.599 22.2955H144.463L142.554 29H141.236ZM156.759 32.2727V20.2727H158.054V21.6591H158.213C158.312 21.5076 158.448 21.3144 158.622 21.0795C158.8 20.8409 159.054 20.6288 159.384 20.4432C159.717 20.2538 160.168 20.1591 160.736 20.1591C161.471 20.1591 162.118 20.3428 162.679 20.7102C163.24 21.0777 163.677 21.5985 163.991 22.2727C164.306 22.947 164.463 23.7424 164.463 24.6591C164.463 25.5833 164.306 26.3845 163.991 27.0625C163.677 27.7367 163.241 28.2595 162.685 28.6307C162.128 28.9981 161.486 29.1818 160.759 29.1818C160.198 29.1818 159.749 29.089 159.412 28.9034C159.075 28.714 158.815 28.5 158.634 28.2614C158.452 28.0189 158.312 27.8182 158.213 27.6591H158.099V32.2727H156.759ZM158.077 24.6364C158.077 25.2955 158.173 25.8769 158.366 26.3807C158.56 26.8807 158.842 27.2727 159.213 27.5568C159.584 27.8371 160.039 27.9773 160.577 27.9773C161.137 27.9773 161.605 27.8295 161.98 27.5341C162.359 27.2348 162.643 26.8333 162.832 26.3295C163.026 25.822 163.122 25.2576 163.122 24.6364C163.122 24.0227 163.027 23.4697 162.838 22.9773C162.652 22.4811 162.37 22.089 161.991 21.8011C161.616 21.5095 161.145 21.3636 160.577 21.3636C160.031 21.3636 159.573 21.5019 159.202 21.7784C158.83 22.0511 158.55 22.4337 158.361 22.9261C158.171 23.4148 158.077 23.9848 158.077 24.6364ZM169.077 29.2045C168.524 29.2045 168.022 29.1004 167.571 28.892C167.12 28.6799 166.762 28.375 166.497 27.9773C166.232 27.5758 166.099 27.0909 166.099 26.5227C166.099 26.0227 166.198 25.6174 166.395 25.3068C166.592 24.9924 166.855 24.7462 167.185 24.5682C167.514 24.3902 167.878 24.2576 168.276 24.1705C168.677 24.0795 169.08 24.0076 169.486 23.9545C170.016 23.8864 170.446 23.8352 170.776 23.8011C171.109 23.7633 171.351 23.7008 171.503 23.6136C171.658 23.5265 171.736 23.375 171.736 23.1591V23.1136C171.736 22.553 171.582 22.1174 171.276 21.8068C170.973 21.4962 170.512 21.3409 169.895 21.3409C169.255 21.3409 168.753 21.4811 168.389 21.7614C168.026 22.0417 167.77 22.3409 167.622 22.6591L166.349 22.2045C166.577 21.6742 166.88 21.2614 167.259 20.9659C167.641 20.6667 168.058 20.4583 168.509 20.3409C168.963 20.2197 169.41 20.1591 169.849 20.1591C170.13 20.1591 170.452 20.1932 170.815 20.2614C171.183 20.3258 171.537 20.4602 171.878 20.6648C172.223 20.8693 172.509 21.178 172.736 21.5909C172.963 22.0038 173.077 22.5568 173.077 23.25V29H171.736V27.8182H171.668C171.577 28.0076 171.425 28.2102 171.213 28.4261C171.001 28.642 170.719 28.8258 170.366 28.9773C170.014 29.1288 169.584 29.2045 169.077 29.2045ZM169.281 28C169.812 28 170.259 27.8958 170.622 27.6875C170.99 27.4792 171.266 27.2102 171.452 26.8807C171.641 26.5511 171.736 26.2045 171.736 25.8409V24.6136C171.679 24.6818 171.554 24.7443 171.361 24.8011C171.171 24.8542 170.952 24.9015 170.702 24.9432C170.455 24.9811 170.215 25.0152 169.98 25.0455C169.749 25.072 169.562 25.0947 169.418 25.1136C169.069 25.1591 168.743 25.233 168.44 25.3352C168.141 25.4337 167.899 25.5833 167.713 25.7841C167.531 25.9811 167.44 26.25 167.44 26.5909C167.44 27.0568 167.613 27.4091 167.957 27.6477C168.306 27.8826 168.747 28 169.281 28ZM181.706 22.2273L180.501 22.5682C180.426 22.3674 180.314 22.1723 180.166 21.983C180.022 21.7898 179.825 21.6307 179.575 21.5057C179.325 21.3807 179.005 21.3182 178.615 21.3182C178.081 21.3182 177.636 21.4413 177.28 21.6875C176.928 21.9299 176.751 22.2386 176.751 22.6136C176.751 22.947 176.873 23.2102 177.115 23.4034C177.357 23.5966 177.736 23.7576 178.251 23.8864L179.547 24.2045C180.327 24.3939 180.909 24.6837 181.291 25.0739C181.674 25.4602 181.865 25.9583 181.865 26.5682C181.865 27.0682 181.721 27.5152 181.433 27.9091C181.149 28.303 180.751 28.6136 180.24 28.8409C179.729 29.0682 179.134 29.1818 178.456 29.1818C177.566 29.1818 176.829 28.9886 176.246 28.6023C175.662 28.2159 175.293 27.6515 175.138 26.9091L176.411 26.5909C176.532 27.0606 176.761 27.4129 177.098 27.6477C177.439 27.8826 177.884 28 178.433 28C179.058 28 179.554 27.8674 179.922 27.6023C180.293 27.3333 180.479 27.0114 180.479 26.6364C180.479 26.3333 180.373 26.0795 180.161 25.875C179.948 25.6667 179.623 25.5114 179.183 25.4091L177.729 25.0682C176.929 24.8788 176.342 24.5852 175.967 24.1875C175.596 23.786 175.411 23.2841 175.411 22.6818C175.411 22.1894 175.549 21.7538 175.825 21.375C176.106 20.9962 176.486 20.6989 176.967 20.483C177.452 20.267 178.001 20.1591 178.615 20.1591C179.479 20.1591 180.157 20.3485 180.649 20.7273C181.145 21.1061 181.498 21.6061 181.706 22.2273ZM190.065 22.2273L188.861 22.5682C188.785 22.3674 188.673 22.1723 188.526 21.983C188.382 21.7898 188.185 21.6307 187.935 21.5057C187.685 21.3807 187.365 21.3182 186.974 21.3182C186.44 21.3182 185.995 21.4413 185.639 21.6875C185.287 21.9299 185.111 22.2386 185.111 22.6136C185.111 22.947 185.232 23.2102 185.474 23.4034C185.717 23.5966 186.096 23.7576 186.611 23.8864L187.906 24.2045C188.687 24.3939 189.268 24.6837 189.651 25.0739C190.033 25.4602 190.224 25.9583 190.224 26.5682C190.224 27.0682 190.08 27.5152 189.793 27.9091C189.509 28.303 189.111 28.6136 188.599 28.8409C188.088 29.0682 187.493 29.1818 186.815 29.1818C185.925 29.1818 185.188 28.9886 184.605 28.6023C184.022 28.2159 183.652 27.6515 183.497 26.9091L184.77 26.5909C184.891 27.0606 185.12 27.4129 185.457 27.6477C185.798 27.8826 186.243 28 186.793 28C187.418 28 187.914 27.8674 188.281 27.6023C188.652 27.3333 188.838 27.0114 188.838 26.6364C188.838 26.3333 188.732 26.0795 188.52 25.875C188.308 25.6667 187.982 25.5114 187.543 25.4091L186.088 25.0682C185.289 24.8788 184.702 24.5852 184.327 24.1875C183.955 23.786 183.77 23.2841 183.77 22.6818C183.77 22.1894 183.908 21.7538 184.185 21.375C184.465 20.9962 184.846 20.6989 185.327 20.483C185.812 20.267 186.361 20.1591 186.974 20.1591C187.838 20.1591 188.516 20.3485 189.009 20.7273C189.505 21.1061 189.857 21.6061 190.065 22.2273ZM194.22 29L191.561 20.2727H192.97L194.857 26.9545H194.947L196.811 20.2727H198.243L200.084 26.9318H200.175L202.061 20.2727H203.47L200.811 29H199.493L197.584 22.2955H197.447L195.538 29H194.22ZM208.491 29.1818C207.704 29.1818 207.012 28.9943 206.418 28.6193C205.827 28.2443 205.365 27.7197 205.031 27.0455C204.702 26.3712 204.537 25.5833 204.537 24.6818C204.537 23.7727 204.702 22.9792 205.031 22.3011C205.365 21.6231 205.827 21.0966 206.418 20.7216C207.012 20.3466 207.704 20.1591 208.491 20.1591C209.279 20.1591 209.969 20.3466 210.56 20.7216C211.154 21.0966 211.616 21.6231 211.946 22.3011C212.279 22.9792 212.446 23.7727 212.446 24.6818C212.446 25.5833 212.279 26.3712 211.946 27.0455C211.616 27.7197 211.154 28.2443 210.56 28.6193C209.969 28.9943 209.279 29.1818 208.491 29.1818ZM208.491 27.9773C209.09 27.9773 209.582 27.8239 209.969 27.517C210.355 27.2102 210.641 26.8068 210.827 26.3068C211.012 25.8068 211.105 25.2652 211.105 24.6818C211.105 24.0985 211.012 23.5549 210.827 23.0511C210.641 22.5473 210.355 22.1402 209.969 21.8295C209.582 21.5189 209.09 21.3636 208.491 21.3636C207.893 21.3636 207.401 21.5189 207.014 21.8295C206.628 22.1402 206.342 22.5473 206.156 23.0511C205.971 23.5549 205.878 24.0985 205.878 24.6818C205.878 25.2652 205.971 25.8068 206.156 26.3068C206.342 26.8068 206.628 27.2102 207.014 27.517C207.401 27.8239 207.893 27.9773 208.491 27.9773ZM214.493 29V20.2727H215.788V21.5909H215.879C216.038 21.1591 216.326 20.8087 216.743 20.5398C217.16 20.2708 217.629 20.1364 218.152 20.1364C218.25 20.1364 218.374 20.1383 218.521 20.142C218.669 20.1458 218.781 20.1515 218.857 20.1591V21.5227C218.811 21.5114 218.707 21.4943 218.544 21.4716C218.385 21.4451 218.216 21.4318 218.038 21.4318C217.614 21.4318 217.235 21.5208 216.902 21.6989C216.572 21.8731 216.311 22.1155 216.118 22.4261C215.929 22.733 215.834 23.0833 215.834 23.4773V29H214.493ZM223.476 29.1818C222.749 29.1818 222.107 28.9981 221.55 28.6307C220.993 28.2595 220.557 27.7367 220.243 27.0625C219.929 26.3845 219.771 25.5833 219.771 24.6591C219.771 23.7424 219.929 22.947 220.243 22.2727C220.557 21.5985 220.995 21.0777 221.555 20.7102C222.116 20.3428 222.764 20.1591 223.499 20.1591C224.067 20.1591 224.516 20.2538 224.845 20.4432C225.179 20.6288 225.432 20.8409 225.607 21.0795C225.785 21.3144 225.923 21.5076 226.021 21.6591H226.135V17.3636H227.476V29H226.18V27.6591H226.021C225.923 27.8182 225.783 28.0189 225.601 28.2614C225.419 28.5 225.16 28.714 224.822 28.9034C224.485 29.089 224.036 29.1818 223.476 29.1818ZM223.658 27.9773C224.196 27.9773 224.65 27.8371 225.021 27.5568C225.393 27.2727 225.675 26.8807 225.868 26.3807C226.061 25.8769 226.158 25.2955 226.158 24.6364C226.158 23.9848 226.063 23.4148 225.874 22.9261C225.684 22.4337 225.404 22.0511 225.033 21.7784C224.661 21.5019 224.203 21.3636 223.658 21.3636C223.089 21.3636 222.616 21.5095 222.237 21.8011C221.862 22.089 221.58 22.4811 221.391 22.9773C221.205 23.4697 221.112 24.0227 221.112 24.6364C221.112 25.2576 221.207 25.822 221.396 26.3295C221.589 26.8333 221.874 27.2348 222.249 27.5341C222.627 27.8295 223.097 27.9773 223.658 27.9773Z" fill="#6B7280"/>
</g>
<path d="M374.834 27.75C375.875 27.75 376.761 27.3854 377.49 26.6562C378.219 25.9271 378.584 25.0417 378.584 24C378.584 22.9583 378.219 22.0729 377.49 21.3438C376.761 20.6146 375.875 20.25 374.834 20.25C373.792 20.25 372.907 20.6146 372.177 21.3438C371.448 22.0729 371.084 22.9583 371.084 24C371.084 25.0417 371.448 25.9271 372.177 26.6562C372.907 27.3854 373.792 27.75 374.834 27.75ZM374.834 26.25C374.209 26.25 373.677 26.0312 373.24 25.5938C372.802 25.1562 372.584 24.625 372.584 24C372.584 23.375 372.802 22.8438 373.24 22.4062C373.677 21.9688 374.209 21.75 374.834 21.75C375.459 21.75 375.99 21.9688 376.427 22.4062C376.865 22.8438 377.084 23.375 377.084 24C377.084 24.625 376.865 25.1562 376.427 25.5938C375.99 26.0312 375.459 26.25 374.834 26.25ZM374.834 30.25C372.806 30.25 370.959 29.684 369.292 28.5521C367.625 27.4201 366.417 25.9028 365.667 24C366.417 22.0972 367.625 20.5799 369.292 19.4479C370.959 18.316 372.806 17.75 374.834 17.75C376.861 17.75 378.709 18.316 380.375 19.4479C382.042 20.5799 383.25 22.0972 384 24C383.25 25.9028 382.042 27.4201 380.375 28.5521C378.709 29.684 376.861 30.25 374.834 30.25ZM374.834 28.5833C376.403 28.5833 377.844 28.1701 379.157 27.3438C380.469 26.5174 381.473 25.4028 382.167 24C381.473 22.5972 380.469 21.4826 379.157 20.6562C377.844 19.8299 376.403 19.4167 374.834 19.4167C373.264 19.4167 371.823 19.8299 370.511 20.6562C369.198 21.4826 368.195 22.5972 367.5 24C368.195 25.4028 369.198 26.5174 370.511 27.3438C371.823 28.1701 373.264 28.5833 374.834 28.5833Z" fill="#94A3B8"/>
<defs>
<clipPath id="clip0_205_1765">
<rect width="362" height="19" fill="white" transform="translate(17 14)"/>
</clipPath>
</defs>
</svg>
