<svg width="396" height="20" viewBox="0 0 396 20" fill="none" xmlns="http://www.w3.org/2000/svg">
<path d="M9.71946 8.25355H7.86009C7.80706 7.94863 7.70928 7.6785 7.56676 7.44318C7.42424 7.20455 7.24692 7.00237 7.0348 6.83665C6.82268 6.67093 6.58073 6.54664 6.30895 6.46378C6.04048 6.3776 5.75047 6.33452 5.43892 6.33452C4.88542 6.33452 4.39489 6.47372 3.96733 6.75213C3.53977 7.02722 3.20502 7.43158 2.96307 7.9652C2.72112 8.4955 2.60014 9.14347 2.60014 9.90909C2.60014 10.688 2.72112 11.3442 2.96307 11.8778C3.20833 12.4081 3.54309 12.8092 3.96733 13.081C4.39489 13.3494 4.88376 13.4837 5.43395 13.4837C5.73887 13.4837 6.02391 13.4439 6.28906 13.3643C6.55753 13.2815 6.79782 13.1605 7.00994 13.0014C7.22538 12.8423 7.40601 12.6468 7.55185 12.4148C7.70099 12.1828 7.80374 11.9176 7.86009 11.6193L9.71946 11.6293C9.64986 12.1132 9.49905 12.5672 9.26705 12.9915C9.03835 13.4157 8.7384 13.7902 8.36719 14.1151C7.99598 14.4366 7.56179 14.6884 7.06463 14.8707C6.56747 15.0497 6.01563 15.1392 5.40909 15.1392C4.5142 15.1392 3.71544 14.9321 3.01278 14.5178C2.31013 14.1035 1.75663 13.5052 1.35227 12.723C0.947917 11.9408 0.745739 11.0028 0.745739 9.90909C0.745739 8.81203 0.949574 7.87405 1.35724 7.09517C1.76491 6.31297 2.32008 5.71473 3.02273 5.30043C3.72538 4.88613 4.52083 4.67898 5.40909 4.67898C5.97585 4.67898 6.50284 4.75852 6.99006 4.91761C7.47727 5.0767 7.91146 5.31037 8.29261 5.61861C8.67377 5.92353 8.98698 6.29806 9.23224 6.74219C9.48082 7.183 9.64323 7.68679 9.71946 8.25355ZM14.66 15.1491C13.9142 15.1491 13.2679 14.9851 12.7211 14.657C12.1742 14.3288 11.7499 13.8698 11.4483 13.2798C11.15 12.6899 11.0009 12.0005 11.0009 11.2116C11.0009 10.4228 11.15 9.73177 11.4483 9.13849C11.7499 8.54522 12.1742 8.08452 12.7211 7.75639C13.2679 7.42827 13.9142 7.2642 14.66 7.2642C15.4057 7.2642 16.052 7.42827 16.5989 7.75639C17.1458 8.08452 17.5684 8.54522 17.8667 9.13849C18.1683 9.73177 18.3191 10.4228 18.3191 11.2116C18.3191 12.0005 18.1683 12.6899 17.8667 13.2798C17.5684 13.8698 17.1458 14.3288 16.5989 14.657C16.052 14.9851 15.4057 15.1491 14.66 15.1491ZM14.6699 13.7074C15.0743 13.7074 15.4123 13.5964 15.6841 13.3743C15.9559 13.1489 16.1581 12.8473 16.2907 12.4695C16.4266 12.0916 16.4945 11.6707 16.4945 11.2067C16.4945 10.7393 16.4266 10.3168 16.2907 9.93892C16.1581 9.55777 15.9559 9.2545 15.6841 9.02912C15.4123 8.80374 15.0743 8.69105 14.6699 8.69105C14.2556 8.69105 13.9109 8.80374 13.6358 9.02912C13.3641 9.2545 13.1602 9.55777 13.0243 9.93892C12.8917 10.3168 12.8255 10.7393 12.8255 11.2067C12.8255 11.6707 12.8917 12.0916 13.0243 12.4695C13.1602 12.8473 13.3641 13.1489 13.6358 13.3743C13.9109 13.5964 14.2556 13.7074 14.6699 13.7074ZM21.6463 10.5256V15H19.8466V7.36364H21.5668V8.66122H21.6562C21.8319 8.23366 22.112 7.89394 22.4964 7.64205C22.8842 7.39015 23.3632 7.2642 23.9332 7.2642C24.4602 7.2642 24.9193 7.37689 25.3104 7.60227C25.7048 7.82765 26.0097 8.15412 26.2251 8.58168C26.4439 9.00923 26.5516 9.52794 26.5483 10.1378V15H24.7486V10.4162C24.7486 9.90578 24.616 9.50639 24.3509 9.21804C24.089 8.92969 23.7261 8.78551 23.2621 8.78551C22.9472 8.78551 22.6671 8.85511 22.4219 8.99432C22.1799 9.13021 21.9893 9.32741 21.8501 9.58594C21.7143 9.84446 21.6463 10.1577 21.6463 10.5256ZM32.2457 7.36364V8.75568H27.7315V7.36364H32.2457ZM28.8601 15V6.64276C28.8601 6.12902 28.9661 5.70147 29.1783 5.36008C29.3937 5.0187 29.6821 4.76349 30.0433 4.59446C30.4046 4.42543 30.8056 4.34091 31.2464 4.34091C31.558 4.34091 31.8348 4.36577 32.0767 4.41548C32.3187 4.4652 32.4976 4.50994 32.6136 4.54972L32.2557 5.94176C32.1795 5.91856 32.0833 5.89536 31.9673 5.87216C31.8513 5.84564 31.7221 5.83239 31.5795 5.83239C31.2448 5.83239 31.0078 5.91359 30.8686 6.07599C30.7327 6.23508 30.6648 6.46378 30.6648 6.76207V15H28.8601ZM33.6552 15V7.36364H35.4549V15H33.6552ZM34.56 6.27983C34.275 6.27983 34.0297 6.18537 33.8242 5.99645C33.6187 5.80421 33.516 5.57386 33.516 5.3054C33.516 5.03362 33.6187 4.80327 33.8242 4.61435C34.0297 4.42211 34.275 4.32599 34.56 4.32599C34.8484 4.32599 35.0936 4.42211 35.2958 4.61435C35.5013 4.80327 35.604 5.03362 35.604 5.3054C35.604 5.57386 35.5013 5.80421 35.2958 5.99645C35.0936 6.18537 34.8484 6.27983 34.56 6.27983ZM37.3056 15V7.36364H39.0506V8.63636H39.1301C39.2694 8.19555 39.508 7.85582 39.8461 7.61719C40.1874 7.37524 40.5769 7.25426 41.0144 7.25426C41.1138 7.25426 41.2248 7.25923 41.3475 7.26918C41.4734 7.2758 41.5778 7.2874 41.6607 7.30398V8.95952C41.5845 8.933 41.4635 8.9098 41.2978 8.88991C41.1354 8.86671 40.9779 8.85511 40.8255 8.85511C40.4973 8.85511 40.2024 8.92637 39.9405 9.06889C39.682 9.2081 39.4782 9.40199 39.329 9.65057C39.1799 9.89915 39.1053 10.1858 39.1053 10.5107V15H37.3056ZM42.8564 15V7.36364H44.5765V8.66122H44.666C44.8251 8.22372 45.0886 7.88234 45.4565 7.63707C45.8244 7.38849 46.2636 7.2642 46.774 7.2642C47.291 7.2642 47.7269 7.39015 48.0815 7.64205C48.4395 7.89062 48.6913 8.23035 48.8372 8.66122H48.9167C49.0858 8.23698 49.3708 7.89891 49.7718 7.64702C50.1762 7.39181 50.6551 7.2642 51.2086 7.2642C51.9113 7.2642 52.4847 7.48627 52.9288 7.9304C53.3729 8.37453 53.595 9.02249 53.595 9.87429V15H51.7903V10.1527C51.7903 9.67874 51.6644 9.33239 51.4125 9.11364C51.1606 8.89157 50.8523 8.78054 50.4877 8.78054C50.0536 8.78054 49.7138 8.91643 49.4686 9.18821C49.2266 9.45668 49.1056 9.80634 49.1056 10.2372V15H47.3407V10.0781C47.3407 9.68371 47.2214 9.36884 46.9828 9.13352C46.7475 8.8982 46.4392 8.78054 46.0581 8.78054C45.7995 8.78054 45.5642 8.84683 45.3521 8.9794C45.14 9.10866 44.9709 9.29261 44.845 9.53125C44.719 9.76657 44.6561 10.0417 44.6561 10.3565V15H42.8564ZM67.3402 4.81818V15H65.6996L60.902 8.06463H60.8175V15H58.973V4.81818H60.6236L65.4162 11.7585H65.5057V4.81818H67.3402ZM72.6511 15.1491C71.8855 15.1491 71.2243 14.9901 70.6674 14.6719C70.1139 14.3504 69.688 13.8963 69.3897 13.3097C69.0914 12.7197 68.9423 12.0253 68.9423 11.2266C68.9423 10.4411 69.0914 9.75166 69.3897 9.15838C69.6913 8.56179 70.1123 8.09777 70.6525 7.76633C71.1928 7.43158 71.8275 7.2642 72.5566 7.2642C73.0273 7.2642 73.4714 7.34044 73.889 7.4929C74.31 7.64205 74.6812 7.87405 75.0027 8.18892C75.3275 8.50379 75.5827 8.90483 75.7683 9.39205C75.9539 9.87595 76.0467 10.4527 76.0467 11.1222V11.674H69.7875V10.4609H74.3216C74.3182 10.1162 74.2437 9.80966 74.0978 9.54119C73.952 9.26941 73.7482 9.05563 73.4863 8.89986C73.2278 8.74408 72.9262 8.66619 72.5815 8.66619C72.2136 8.66619 71.8904 8.75568 71.612 8.93466C71.3336 9.11032 71.1165 9.34233 70.9608 9.63068C70.8083 9.91572 70.7304 10.2289 70.7271 10.5703V11.6293C70.7271 12.0734 70.8083 12.4545 70.9707 12.7727C71.1331 13.0876 71.3601 13.3295 71.6518 13.4986C71.9435 13.6643 72.2849 13.7472 72.676 13.7472C72.9378 13.7472 73.1748 13.7107 73.3869 13.6378C73.599 13.5616 73.783 13.4505 73.9387 13.3047C74.0945 13.1589 74.2122 12.9782 74.2917 12.7628L75.9721 12.9517C75.8661 13.3958 75.6639 13.7836 75.3656 14.1151C75.0706 14.4432 74.6928 14.6984 74.2321 14.8807C73.7714 15.0597 73.2444 15.1491 72.6511 15.1491ZM79.1042 15L76.9466 7.36364H78.7811L80.1234 12.733H80.193L81.5652 7.36364H83.3798L84.752 12.7031H84.8265L86.149 7.36364H87.9885L85.8258 15H83.9515L82.5197 9.83949H82.4153L80.9835 15H79.1042ZM92.7972 15V4.81818H96.6154C97.3976 4.81818 98.0539 4.96401 98.5842 5.25568C99.1178 5.54735 99.5205 5.94839 99.7923 6.45881C100.067 6.96591 100.205 7.54261 100.205 8.18892C100.205 8.84186 100.067 9.42187 99.7923 9.92898C99.5172 10.4361 99.1112 10.8355 98.5742 11.1271C98.0373 11.4155 97.3761 11.5597 96.5906 11.5597H94.06V10.0433H96.342C96.7994 10.0433 97.1739 9.96378 97.4656 9.80469C97.7572 9.6456 97.9727 9.42685 98.1119 9.14844C98.2544 8.87003 98.3256 8.55019 98.3256 8.18892C98.3256 7.82765 98.2544 7.50947 98.1119 7.23438C97.9727 6.95928 97.7556 6.7455 97.4606 6.59304C97.1689 6.43726 96.7927 6.35938 96.332 6.35938H94.6417V15H92.7972ZM103.788 15.1541C103.304 15.1541 102.868 15.0679 102.481 14.8956C102.096 14.7199 101.791 14.4614 101.566 14.12C101.344 13.7786 101.233 13.3577 101.233 12.8572C101.233 12.4264 101.312 12.0701 101.471 11.7884C101.631 11.5066 101.848 11.2812 102.123 11.1122C102.398 10.9432 102.708 10.8156 103.052 10.7294C103.4 10.6399 103.76 10.5753 104.131 10.5355C104.579 10.4891 104.942 10.4477 105.22 10.4112C105.498 10.3714 105.701 10.3118 105.827 10.2322C105.956 10.1494 106.02 10.0218 106.02 9.84943V9.8196C106.02 9.44508 105.909 9.15507 105.687 8.94957C105.465 8.74408 105.145 8.64134 104.728 8.64134C104.287 8.64134 103.937 8.73745 103.679 8.92969C103.424 9.12192 103.251 9.34896 103.162 9.6108L101.481 9.37216C101.614 8.90814 101.833 8.52036 102.138 8.20881C102.443 7.89394 102.815 7.65862 103.256 7.50284C103.697 7.34375 104.184 7.2642 104.718 7.2642C105.086 7.2642 105.452 7.30729 105.817 7.39347C106.181 7.47964 106.514 7.62216 106.816 7.82102C107.117 8.01657 107.359 8.28338 107.542 8.62145C107.727 8.95952 107.82 9.3821 107.82 9.8892V15H106.09V13.951H106.03C105.921 14.1631 105.767 14.362 105.568 14.5476C105.372 14.7299 105.126 14.8774 104.827 14.9901C104.532 15.0994 104.186 15.1541 103.788 15.1541ZM104.256 13.8317C104.617 13.8317 104.93 13.7604 105.195 13.6179C105.46 13.4721 105.664 13.2798 105.807 13.0412C105.952 12.8026 106.025 12.5424 106.025 12.2607V11.3608C105.969 11.4072 105.873 11.4503 105.737 11.4901C105.604 11.5298 105.455 11.5646 105.29 11.5945C105.124 11.6243 104.96 11.6508 104.797 11.674C104.635 11.6972 104.494 11.7171 104.375 11.7337C104.106 11.7701 103.866 11.8298 103.654 11.9126C103.442 11.9955 103.274 12.1115 103.152 12.2607C103.029 12.4065 102.968 12.5954 102.968 12.8274C102.968 13.1589 103.089 13.4091 103.331 13.5781C103.573 13.7472 103.881 13.8317 104.256 13.8317ZM115.665 9.3821L114.025 9.56108C113.978 9.39536 113.897 9.23958 113.781 9.09375C113.668 8.94792 113.516 8.83026 113.324 8.74077C113.131 8.65128 112.896 8.60653 112.618 8.60653C112.243 8.60653 111.928 8.68774 111.673 8.85014C111.421 9.01255 111.297 9.22301 111.3 9.48153C111.297 9.7036 111.378 9.88423 111.544 10.0234C111.713 10.1626 111.991 10.277 112.379 10.3665L113.682 10.6449C114.404 10.8007 114.941 11.0476 115.292 11.3857C115.647 11.7237 115.826 12.1662 115.829 12.7131C115.826 13.1937 115.685 13.6179 115.407 13.9858C115.132 14.3504 114.749 14.6354 114.258 14.8409C113.768 15.0464 113.204 15.1491 112.568 15.1491C111.633 15.1491 110.881 14.9536 110.311 14.5625C109.741 14.1681 109.401 13.6196 109.292 12.9169L111.047 12.7479C111.126 13.0926 111.295 13.3527 111.554 13.5284C111.812 13.7041 112.149 13.7919 112.563 13.7919C112.991 13.7919 113.334 13.7041 113.592 13.5284C113.854 13.3527 113.985 13.1357 113.985 12.8771C113.985 12.6584 113.9 12.4777 113.731 12.3352C113.566 12.1927 113.307 12.0833 112.956 12.0071L111.653 11.7337C110.921 11.5812 110.379 11.3243 110.028 10.9631C109.676 10.5985 109.502 10.1378 109.506 9.58097C109.502 9.11032 109.63 8.70265 109.888 8.35795C110.15 8.00994 110.513 7.74148 110.977 7.55256C111.444 7.36032 111.983 7.2642 112.593 7.2642C113.488 7.2642 114.192 7.45478 114.706 7.83594C115.223 8.21709 115.543 8.73248 115.665 9.3821ZM123.349 9.3821L121.708 9.56108C121.662 9.39536 121.581 9.23958 121.465 9.09375C121.352 8.94792 121.2 8.83026 121.007 8.74077C120.815 8.65128 120.58 8.60653 120.301 8.60653C119.927 8.60653 119.612 8.68774 119.357 8.85014C119.105 9.01255 118.981 9.22301 118.984 9.48153C118.981 9.7036 119.062 9.88423 119.227 10.0234C119.396 10.1626 119.675 10.277 120.063 10.3665L121.365 10.6449C122.088 10.8007 122.625 11.0476 122.976 11.3857C123.331 11.7237 123.51 12.1662 123.513 12.7131C123.51 13.1937 123.369 13.6179 123.09 13.9858C122.815 14.3504 122.432 14.6354 121.942 14.8409C121.451 15.0464 120.888 15.1491 120.252 15.1491C119.317 15.1491 118.565 14.9536 117.994 14.5625C117.424 14.1681 117.085 13.6196 116.975 12.9169L118.73 12.7479C118.81 13.0926 118.979 13.3527 119.237 13.5284C119.496 13.7041 119.832 13.7919 120.247 13.7919C120.674 13.7919 121.017 13.7041 121.276 13.5284C121.538 13.3527 121.669 13.1357 121.669 12.8771C121.669 12.6584 121.584 12.4777 121.415 12.3352C121.249 12.1927 120.991 12.0833 120.639 12.0071L119.337 11.7337C118.604 11.5812 118.062 11.3243 117.711 10.9631C117.36 10.5985 117.186 10.1378 117.189 9.58097C117.186 9.11032 117.313 8.70265 117.572 8.35795C117.834 8.00994 118.197 7.74148 118.661 7.55256C119.128 7.36032 119.667 7.2642 120.276 7.2642C121.171 7.2642 121.876 7.45478 122.389 7.83594C122.906 8.21709 123.226 8.73248 123.349 9.3821ZM126.573 15L124.415 7.36364H126.25L127.592 12.733H127.662L129.034 7.36364H130.849L132.221 12.7031H132.295L133.618 7.36364H135.457L133.295 15H131.42L129.988 9.83949H129.884L128.452 15H126.573ZM139.826 15.1491C139.08 15.1491 138.434 14.9851 137.887 14.657C137.34 14.3288 136.916 13.8698 136.614 13.2798C136.316 12.6899 136.167 12.0005 136.167 11.2116C136.167 10.4228 136.316 9.73177 136.614 9.13849C136.916 8.54522 137.34 8.08452 137.887 7.75639C138.434 7.42827 139.08 7.2642 139.826 7.2642C140.572 7.2642 141.218 7.42827 141.765 7.75639C142.312 8.08452 142.734 8.54522 143.033 9.13849C143.334 9.73177 143.485 10.4228 143.485 11.2116C143.485 12.0005 143.334 12.6899 143.033 13.2798C142.734 13.8698 142.312 14.3288 141.765 14.657C141.218 14.9851 140.572 15.1491 139.826 15.1491ZM139.836 13.7074C140.24 13.7074 140.578 13.5964 140.85 13.3743C141.122 13.1489 141.324 12.8473 141.457 12.4695C141.593 12.0916 141.661 11.6707 141.661 11.2067C141.661 10.7393 141.593 10.3168 141.457 9.93892C141.324 9.55777 141.122 9.2545 140.85 9.02912C140.578 8.80374 140.24 8.69105 139.836 8.69105C139.422 8.69105 139.077 8.80374 138.802 9.02912C138.53 9.2545 138.326 9.55777 138.19 9.93892C138.058 10.3168 137.991 10.7393 137.991 11.2067C137.991 11.6707 138.058 12.0916 138.19 12.4695C138.326 12.8473 138.53 13.1489 138.802 13.3743C139.077 13.5964 139.422 13.7074 139.836 13.7074ZM145.013 15V7.36364H146.758V8.63636H146.837C146.976 8.19555 147.215 7.85582 147.553 7.61719C147.894 7.37524 148.284 7.25426 148.721 7.25426C148.821 7.25426 148.932 7.25923 149.055 7.26918C149.18 7.2758 149.285 7.2874 149.368 7.30398V8.95952C149.291 8.933 149.171 8.9098 149.005 8.88991C148.842 8.86671 148.685 8.85511 148.532 8.85511C148.204 8.85511 147.909 8.92637 147.648 9.06889C147.389 9.2081 147.185 9.40199 147.036 9.65057C146.887 9.89915 146.812 10.1858 146.812 10.5107V15H145.013ZM153.083 15.1342C152.483 15.1342 151.946 14.9801 151.472 14.6719C150.998 14.3636 150.623 13.9162 150.348 13.3295C150.073 12.7429 149.936 12.0303 149.936 11.1918C149.936 10.3433 150.075 9.62737 150.353 9.04403C150.635 8.45739 151.015 8.01491 151.492 7.71662C151.969 7.41501 152.501 7.2642 153.088 7.2642C153.535 7.2642 153.903 7.34044 154.191 7.4929C154.48 7.64205 154.708 7.82268 154.877 8.0348C155.047 8.24361 155.177 8.44081 155.27 8.62642H155.345V4.81818H157.15V15H155.38V13.7969H155.27C155.177 13.9825 155.043 14.1797 154.868 14.3885C154.692 14.594 154.46 14.7696 154.172 14.9155C153.883 15.0613 153.52 15.1342 153.083 15.1342ZM153.585 13.6577C153.966 13.6577 154.291 13.5549 154.559 13.3494C154.828 13.1406 155.032 12.8506 155.171 12.4794C155.31 12.1082 155.38 11.6757 155.38 11.1818C155.38 10.688 155.31 10.2588 155.171 9.89418C155.035 9.52959 154.833 9.24621 154.564 9.04403C154.299 8.84186 153.973 8.74077 153.585 8.74077C153.184 8.74077 152.849 8.84517 152.581 9.05398C152.312 9.26278 152.11 9.55114 151.974 9.91903C151.838 10.2869 151.77 10.7079 151.77 11.1818C151.77 11.6591 151.838 12.085 151.974 12.4595C152.113 12.8307 152.317 13.1241 152.586 13.3395C152.857 13.5516 153.19 13.6577 153.585 13.6577Z" fill="#334155"/>
</svg>
