<svg width="396" height="20" viewBox="0 0 396 20" fill="none" xmlns="http://www.w3.org/2000/svg">
<path d="M9.37145 4.81818V15H7.73082L2.93324 8.06463H2.84872V15H1.00426V4.81818H2.65483L7.44744 11.7585H7.53693V4.81818H9.37145ZM14.6824 15.1491C13.9167 15.1491 13.2555 14.9901 12.6987 14.6719C12.1452 14.3504 11.7193 13.8963 11.421 13.3097C11.1227 12.7197 10.9735 12.0253 10.9735 11.2266C10.9735 10.4411 11.1227 9.75166 11.421 9.15838C11.7226 8.56179 12.1435 8.09777 12.6838 7.76633C13.224 7.43158 13.8587 7.2642 14.5879 7.2642C15.0585 7.2642 15.5027 7.34044 15.9203 7.4929C16.3412 7.64205 16.7124 7.87405 17.0339 8.18892C17.3587 8.50379 17.6139 8.90483 17.7995 9.39205C17.9851 9.87595 18.0779 10.4527 18.0779 11.1222V11.674H11.8187V10.4609H16.3528C16.3495 10.1162 16.2749 9.80966 16.1291 9.54119C15.9833 9.26941 15.7794 9.05563 15.5176 8.89986C15.2591 8.74408 14.9574 8.66619 14.6127 8.66619C14.2449 8.66619 13.9217 8.75568 13.6433 8.93466C13.3649 9.11032 13.1478 9.34233 12.992 9.63068C12.8395 9.91572 12.7617 10.2289 12.7583 10.5703V11.6293C12.7583 12.0734 12.8395 12.4545 13.002 12.7727C13.1644 13.0876 13.3914 13.3295 13.6831 13.4986C13.9747 13.6643 14.3161 13.7472 14.7072 13.7472C14.969 13.7472 15.206 13.7107 15.4181 13.6378C15.6303 13.5616 15.8142 13.4505 15.97 13.3047C16.1258 13.1589 16.2434 12.9782 16.323 12.7628L18.0034 12.9517C17.8973 13.3958 17.6951 13.7836 17.3968 14.1151C17.1019 14.4432 16.724 14.6984 16.2633 14.8807C15.8026 15.0597 15.2756 15.1491 14.6824 15.1491ZM21.1355 15L18.9778 7.36364H20.8123L22.1547 12.733H22.2243L23.5964 7.36364H25.411L26.7832 12.7031H26.8578L28.1802 7.36364H30.0197L27.8571 15H25.9828L24.551 9.83949H24.4466L23.0147 15H21.1355ZM34.8285 15V4.81818H38.6467C39.4289 4.81818 40.0851 4.96401 40.6154 5.25568C41.149 5.54735 41.5517 5.94839 41.8235 6.45881C42.0986 6.96591 42.2362 7.54261 42.2362 8.18892C42.2362 8.84186 42.0986 9.42187 41.8235 9.92898C41.5484 10.4361 41.1424 10.8355 40.6055 11.1271C40.0685 11.4155 39.4073 11.5597 38.6218 11.5597H36.0913V10.0433H38.3732C38.8306 10.0433 39.2051 9.96378 39.4968 9.80469C39.7885 9.6456 40.0039 9.42685 40.1431 9.14844C40.2856 8.87003 40.3569 8.55019 40.3569 8.18892C40.3569 7.82765 40.2856 7.50947 40.1431 7.23438C40.0039 6.95928 39.7868 6.7455 39.4918 6.59304C39.2002 6.43726 38.824 6.35938 38.3633 6.35938H36.6729V15H34.8285ZM45.8194 15.1541C45.3355 15.1541 44.8997 15.0679 44.5119 14.8956C44.1274 14.7199 43.8225 14.4614 43.5971 14.12C43.3751 13.7786 43.264 13.3577 43.264 12.8572C43.264 12.4264 43.3436 12.0701 43.5027 11.7884C43.6618 11.5066 43.8788 11.2812 44.1539 11.1122C44.429 10.9432 44.7389 10.8156 45.0836 10.7294C45.4316 10.6399 45.7913 10.5753 46.1625 10.5355C46.6099 10.4891 46.9728 10.4477 47.2512 10.4112C47.5297 10.3714 47.7318 10.3118 47.8578 10.2322C47.987 10.1494 48.0517 10.0218 48.0517 9.84943V9.8196C48.0517 9.44508 47.9406 9.15507 47.7186 8.94957C47.4965 8.74408 47.1767 8.64134 46.7591 8.64134C46.3182 8.64134 45.9686 8.73745 45.71 8.92969C45.4548 9.12192 45.2825 9.34896 45.193 9.6108L43.5126 9.37216C43.6452 8.90814 43.8639 8.52036 44.1689 8.20881C44.4738 7.89394 44.8467 7.65862 45.2875 7.50284C45.7283 7.34375 46.2155 7.2642 46.7491 7.2642C47.117 7.2642 47.4833 7.30729 47.8478 7.39347C48.2124 7.47964 48.5455 7.62216 48.8471 7.82102C49.1487 8.01657 49.3907 8.28338 49.573 8.62145C49.7586 8.95952 49.8514 9.3821 49.8514 9.8892V15H48.1213V13.951H48.0616C47.9522 14.1631 47.7981 14.362 47.5993 14.5476C47.4037 14.7299 47.1568 14.8774 46.8585 14.9901C46.5635 15.0994 46.2172 15.1541 45.8194 15.1541ZM46.2868 13.8317C46.648 13.8317 46.9612 13.7604 47.2264 13.6179C47.4915 13.4721 47.6954 13.2798 47.8379 13.0412C47.9837 12.8026 48.0566 12.5424 48.0566 12.2607V11.3608C48.0003 11.4072 47.9042 11.4503 47.7683 11.4901C47.6357 11.5298 47.4866 11.5646 47.3208 11.5945C47.1551 11.6243 46.9911 11.6508 46.8287 11.674C46.6663 11.6972 46.5254 11.7171 46.4061 11.7337C46.1376 11.7701 45.8973 11.8298 45.6852 11.9126C45.4731 11.9955 45.3057 12.1115 45.1831 12.2607C45.0604 12.4065 44.9991 12.5954 44.9991 12.8274C44.9991 13.1589 45.1201 13.4091 45.362 13.5781C45.604 13.7472 45.9122 13.8317 46.2868 13.8317ZM57.6966 9.3821L56.0559 9.56108C56.0095 9.39536 55.9283 9.23958 55.8123 9.09375C55.6996 8.94792 55.5472 8.83026 55.3549 8.74077C55.1627 8.65128 54.9274 8.60653 54.649 8.60653C54.2744 8.60653 53.9596 8.68774 53.7044 8.85014C53.4525 9.01255 53.3282 9.22301 53.3315 9.48153C53.3282 9.7036 53.4094 9.88423 53.5751 10.0234C53.7441 10.1626 54.0225 10.277 54.4103 10.3665L55.7129 10.6449C56.4354 10.8007 56.9724 11.0476 57.3237 11.3857C57.6783 11.7237 57.8573 12.1662 57.8606 12.7131C57.8573 13.1937 57.7164 13.6179 57.438 13.9858C57.1629 14.3504 56.7801 14.6354 56.2896 14.8409C55.7991 15.0464 55.2356 15.1491 54.5993 15.1491C53.6646 15.1491 52.9122 14.9536 52.3422 14.5625C51.7721 14.1681 51.4324 13.6196 51.323 12.9169L53.0779 12.7479C53.1575 13.0926 53.3265 13.3527 53.585 13.5284C53.8436 13.7041 54.18 13.7919 54.5943 13.7919C55.0218 13.7919 55.3649 13.7041 55.6234 13.5284C55.8852 13.3527 56.0162 13.1357 56.0162 12.8771C56.0162 12.6584 55.9316 12.4777 55.7626 12.3352C55.5969 12.1927 55.3384 12.0833 54.987 12.0071L53.6845 11.7337C52.952 11.5812 52.4101 11.3243 52.0588 10.9631C51.7074 10.5985 51.5334 10.1378 51.5368 9.58097C51.5334 9.11032 51.661 8.70265 51.9196 8.35795C52.1814 8.00994 52.5443 7.74148 53.0083 7.55256C53.4757 7.36032 54.0143 7.2642 54.6241 7.2642C55.519 7.2642 56.2233 7.45478 56.737 7.83594C57.2541 8.21709 57.5739 8.73248 57.6966 9.3821ZM65.3801 9.3821L63.7395 9.56108C63.6931 9.39536 63.6119 9.23958 63.4959 9.09375C63.3832 8.94792 63.2308 8.83026 63.0385 8.74077C62.8463 8.65128 62.611 8.60653 62.3326 8.60653C61.958 8.60653 61.6432 8.68774 61.388 8.85014C61.1361 9.01255 61.0118 9.22301 61.0151 9.48153C61.0118 9.7036 61.093 9.88423 61.2587 10.0234C61.4277 10.1626 61.7061 10.277 62.0939 10.3665L63.3965 10.6449C64.119 10.8007 64.656 11.0476 65.0073 11.3857C65.3619 11.7237 65.5409 12.1662 65.5442 12.7131C65.5409 13.1937 65.4 13.6179 65.1216 13.9858C64.8465 14.3504 64.4637 14.6354 63.9732 14.8409C63.4827 15.0464 62.9192 15.1491 62.2828 15.1491C61.3482 15.1491 60.5958 14.9536 60.0257 14.5625C59.4557 14.1681 59.1159 13.6196 59.0066 12.9169L60.7615 12.7479C60.8411 13.0926 61.0101 13.3527 61.2686 13.5284C61.5272 13.7041 61.8636 13.7919 62.2779 13.7919C62.7054 13.7919 63.0485 13.7041 63.307 13.5284C63.5688 13.3527 63.6998 13.1357 63.6998 12.8771C63.6998 12.6584 63.6152 12.4777 63.4462 12.3352C63.2805 12.1927 63.022 12.0833 62.6706 12.0071L61.3681 11.7337C60.6356 11.5812 60.0937 11.3243 59.7424 10.9631C59.391 10.5985 59.217 10.1378 59.2203 9.58097C59.217 9.11032 59.3446 8.70265 59.6032 8.35795C59.865 8.00994 60.2279 7.74148 60.6919 7.55256C61.1593 7.36032 61.6979 7.2642 62.3077 7.2642C63.2026 7.2642 63.9069 7.45478 64.4206 7.83594C64.9377 8.21709 65.2575 8.73248 65.3801 9.3821ZM68.6042 15L66.4466 7.36364H68.2811L69.6234 12.733H69.693L71.0652 7.36364H72.8798L74.252 12.7031H74.3265L75.649 7.36364H77.4885L75.3258 15H73.4515L72.0197 9.83949H71.9153L70.4835 15H68.6042ZM81.8572 15.1491C81.1115 15.1491 80.4652 14.9851 79.9183 14.657C79.3714 14.3288 78.9472 13.8698 78.6456 13.2798C78.3473 12.6899 78.1982 12.0005 78.1982 11.2116C78.1982 10.4228 78.3473 9.73177 78.6456 9.13849C78.9472 8.54522 79.3714 8.08452 79.9183 7.75639C80.4652 7.42827 81.1115 7.2642 81.8572 7.2642C82.603 7.2642 83.2493 7.42827 83.7962 7.75639C84.343 8.08452 84.7656 8.54522 85.0639 9.13849C85.3655 9.73177 85.5163 10.4228 85.5163 11.2116C85.5163 12.0005 85.3655 12.6899 85.0639 13.2798C84.7656 13.8698 84.343 14.3288 83.7962 14.657C83.2493 14.9851 82.603 15.1491 81.8572 15.1491ZM81.8672 13.7074C82.2715 13.7074 82.6096 13.5964 82.8814 13.3743C83.1532 13.1489 83.3554 12.8473 83.4879 12.4695C83.6238 12.0916 83.6918 11.6707 83.6918 11.2067C83.6918 10.7393 83.6238 10.3168 83.4879 9.93892C83.3554 9.55777 83.1532 9.2545 82.8814 9.02912C82.6096 8.80374 82.2715 8.69105 81.8672 8.69105C81.4529 8.69105 81.1082 8.80374 80.8331 9.02912C80.5613 9.2545 80.3575 9.55777 80.2216 9.93892C80.089 10.3168 80.0227 10.7393 80.0227 11.2067C80.0227 11.6707 80.089 12.0916 80.2216 12.4695C80.3575 12.8473 80.5613 13.1489 80.8331 13.3743C81.1082 13.5964 81.4529 13.7074 81.8672 13.7074ZM87.0439 15V7.36364H88.7889V8.63636H88.8684C89.0076 8.19555 89.2463 7.85582 89.5843 7.61719C89.9257 7.37524 90.3152 7.25426 90.7527 7.25426C90.8521 7.25426 90.9631 7.25923 91.0858 7.26918C91.2117 7.2758 91.3161 7.2874 91.399 7.30398V8.95952C91.3227 8.933 91.2018 8.9098 91.036 8.88991C90.8736 8.86671 90.7162 8.85511 90.5637 8.85511C90.2356 8.85511 89.9406 8.92637 89.6788 9.06889C89.4203 9.2081 89.2164 9.40199 89.0673 9.65057C88.9181 9.89915 88.8436 10.1858 88.8436 10.5107V15H87.0439ZM95.114 15.1342C94.5141 15.1342 93.9772 14.9801 93.5032 14.6719C93.0292 14.3636 92.6547 13.9162 92.3796 13.3295C92.1045 12.7429 91.967 12.0303 91.967 11.1918C91.967 10.3433 92.1062 9.62737 92.3846 9.04403C92.6663 8.45739 93.0458 8.01491 93.5231 7.71662C94.0004 7.41501 94.5323 7.2642 95.119 7.2642C95.5664 7.2642 95.9343 7.34044 96.2227 7.4929C96.511 7.64205 96.7397 7.82268 96.9087 8.0348C97.0778 8.24361 97.2087 8.44081 97.3015 8.62642H97.3761V4.81818H99.1808V15H97.4109V13.7969H97.3015C97.2087 13.9825 97.0745 14.1797 96.8988 14.3885C96.7231 14.594 96.4911 14.7696 96.2028 14.9155C95.9144 15.0613 95.5515 15.1342 95.114 15.1342ZM95.6161 13.6577C95.9973 13.6577 96.3221 13.5549 96.5906 13.3494C96.859 13.1406 97.0629 12.8506 97.2021 12.4794C97.3413 12.1082 97.4109 11.6757 97.4109 11.1818C97.4109 10.688 97.3413 10.2588 97.2021 9.89418C97.0662 9.52959 96.864 9.24621 96.5955 9.04403C96.3304 8.84186 96.0039 8.74077 95.6161 8.74077C95.2151 8.74077 94.8803 8.84517 94.6119 9.05398C94.3434 9.26278 94.1412 9.55114 94.0053 9.91903C93.8694 10.2869 93.8015 10.7079 93.8015 11.1818C93.8015 11.6591 93.8694 12.085 94.0053 12.4595C94.1445 12.8307 94.3484 13.1241 94.6168 13.3395C94.8886 13.5516 95.2217 13.6577 95.6161 13.6577Z" fill="#334155"/>
</svg>
