<svg width="396" height="48" viewBox="0 0 396 48" fill="none" xmlns="http://www.w3.org/2000/svg">
<rect x="0.5" y="0.5" width="395" height="47" rx="12.3" fill="#F8FAFC"/>
<rect x="0.5" y="0.5" width="395" height="47" rx="12.3" stroke="#E2E8F0"/>
<g clip-path="url(#clip0_205_1755)">
<path d="M18.4091 29V17.3636H25.4318V18.6136H19.8182V22.5455H25.0682V23.7955H19.8182V27.75H25.5227V29H18.4091ZM29.1307 23.75V29H27.7898V20.2727H29.0852V21.6364H29.1989C29.4034 21.1932 29.714 20.8371 30.1307 20.5682C30.5473 20.2955 31.0852 20.1591 31.7443 20.1591C32.3352 20.1591 32.8523 20.2803 33.2955 20.5227C33.7386 20.7614 34.0833 21.125 34.3295 21.6136C34.5758 22.0985 34.6989 22.7121 34.6989 23.4545V29H33.358V23.5455C33.358 22.8598 33.1799 22.3258 32.8239 21.9432C32.4678 21.5568 31.9792 21.3636 31.358 21.3636C30.9299 21.3636 30.5473 21.4564 30.2102 21.642C29.8769 21.8277 29.6136 22.0985 29.4205 22.4545C29.2273 22.8106 29.1307 23.2424 29.1307 23.75ZM40.9446 20.2727V21.4091H36.4219V20.2727H40.9446ZM37.7401 18.1818H39.081V26.5C39.081 26.8788 39.1359 27.1629 39.2457 27.3523C39.3594 27.5379 39.5033 27.6629 39.6776 27.7273C39.8556 27.7879 40.0431 27.8182 40.2401 27.8182C40.3878 27.8182 40.509 27.8106 40.6037 27.7955C40.6984 27.7765 40.7741 27.7614 40.831 27.75L41.1037 28.9545C41.0128 28.9886 40.8859 29.0227 40.723 29.0568C40.5601 29.0947 40.3537 29.1136 40.1037 29.1136C39.7249 29.1136 39.3537 29.0322 38.9901 28.8693C38.6302 28.7064 38.331 28.4583 38.0923 28.125C37.8575 27.7917 37.7401 27.3712 37.7401 26.8636V18.1818ZM46.527 29.1818C45.6861 29.1818 44.9607 28.9962 44.3509 28.625C43.7448 28.25 43.277 27.7273 42.9474 27.0568C42.6217 26.3826 42.4588 25.5985 42.4588 24.7045C42.4588 23.8106 42.6217 23.0227 42.9474 22.3409C43.277 21.6553 43.7353 21.1212 44.3224 20.7386C44.9134 20.3523 45.6027 20.1591 46.3906 20.1591C46.8452 20.1591 47.294 20.2348 47.7372 20.3864C48.1804 20.5379 48.5838 20.7841 48.9474 21.125C49.3111 21.4621 49.6009 21.9091 49.8168 22.4659C50.0327 23.0227 50.1406 23.7083 50.1406 24.5227V25.0909H43.4134V23.9318H48.777C48.777 23.4394 48.6785 23 48.4815 22.6136C48.2884 22.2273 48.0118 21.9223 47.652 21.6989C47.2959 21.4754 46.8755 21.3636 46.3906 21.3636C45.8565 21.3636 45.3944 21.4962 45.0043 21.7614C44.6179 22.0227 44.3205 22.3636 44.1122 22.7841C43.9039 23.2045 43.7997 23.6553 43.7997 24.1364V24.9091C43.7997 25.5682 43.9134 26.1269 44.1406 26.5852C44.3717 27.0398 44.6918 27.3864 45.1009 27.625C45.5099 27.8598 45.9853 27.9773 46.527 27.9773C46.8793 27.9773 47.1974 27.928 47.4815 27.8295C47.7694 27.7273 48.0175 27.5758 48.2259 27.375C48.4342 27.1705 48.5952 26.9167 48.7088 26.6136L50.0043 26.9773C49.8679 27.4167 49.6387 27.803 49.3168 28.1364C48.9948 28.4659 48.5971 28.7235 48.1236 28.9091C47.6501 29.0909 47.1179 29.1818 46.527 29.1818ZM52.1804 29V20.2727H53.4759V21.5909H53.5668C53.7259 21.1591 54.0137 20.8087 54.4304 20.5398C54.8471 20.2708 55.3168 20.1364 55.8395 20.1364C55.938 20.1364 56.0611 20.1383 56.2088 20.142C56.3565 20.1458 56.4683 20.1515 56.544 20.1591V21.5227C56.4986 21.5114 56.3944 21.4943 56.2315 21.4716C56.0724 21.4451 55.9039 21.4318 55.7259 21.4318C55.3016 21.4318 54.9228 21.5208 54.5895 21.6989C54.2599 21.8731 53.9986 22.1155 53.8054 22.4261C53.616 22.733 53.5213 23.0833 53.5213 23.4773V29H52.1804ZM63.9744 23.75V29H62.6335V20.2727H63.929V21.6364H64.0426C64.2472 21.1932 64.5578 20.8371 64.9744 20.5682C65.3911 20.2955 65.929 20.1591 66.5881 20.1591C67.179 20.1591 67.696 20.2803 68.1392 20.5227C68.5824 20.7614 68.9271 21.125 69.1733 21.6136C69.4195 22.0985 69.5426 22.7121 69.5426 23.4545V29H68.2017V23.5455C68.2017 22.8598 68.0237 22.3258 67.6676 21.9432C67.3116 21.5568 66.8229 21.3636 66.2017 21.3636C65.7737 21.3636 65.3911 21.4564 65.054 21.642C64.7206 21.8277 64.4574 22.0985 64.2642 22.4545C64.071 22.8106 63.9744 23.2424 63.9744 23.75ZM75.652 29.1818C74.8111 29.1818 74.0857 28.9962 73.4759 28.625C72.8698 28.25 72.402 27.7273 72.0724 27.0568C71.7467 26.3826 71.5838 25.5985 71.5838 24.7045C71.5838 23.8106 71.7467 23.0227 72.0724 22.3409C72.402 21.6553 72.8603 21.1212 73.4474 20.7386C74.0384 20.3523 74.7277 20.1591 75.5156 20.1591C75.9702 20.1591 76.419 20.2348 76.8622 20.3864C77.3054 20.5379 77.7088 20.7841 78.0724 21.125C78.4361 21.4621 78.7259 21.9091 78.9418 22.4659C79.1577 23.0227 79.2656 23.7083 79.2656 24.5227V25.0909H72.5384V23.9318H77.902C77.902 23.4394 77.8035 23 77.6065 22.6136C77.4134 22.2273 77.1368 21.9223 76.777 21.6989C76.4209 21.4754 76.0005 21.3636 75.5156 21.3636C74.9815 21.3636 74.5194 21.4962 74.1293 21.7614C73.7429 22.0227 73.4455 22.3636 73.2372 22.7841C73.0289 23.2045 72.9247 23.6553 72.9247 24.1364V24.9091C72.9247 25.5682 73.0384 26.1269 73.2656 26.5852C73.4967 27.0398 73.8168 27.3864 74.2259 27.625C74.6349 27.8598 75.1103 27.9773 75.652 27.9773C76.0043 27.9773 76.3224 27.928 76.6065 27.8295C76.8944 27.7273 77.1425 27.5758 77.3509 27.375C77.5592 27.1705 77.7202 26.9167 77.8338 26.6136L79.1293 26.9773C78.9929 27.4167 78.7637 27.803 78.4418 28.1364C78.1198 28.4659 77.7221 28.7235 77.2486 28.9091C76.7751 29.0909 76.2429 29.1818 75.652 29.1818ZM83.2827 29L80.6236 20.2727H82.0327L83.919 26.9545H84.0099L85.8736 20.2727H87.3054L89.1463 26.9318H89.2372L91.1236 20.2727H92.5327L89.8736 29H88.5554L86.6463 22.2955H86.5099L84.6009 29H83.2827ZM98.8054 32.2727V20.2727H100.101V21.6591H100.26C100.358 21.5076 100.495 21.3144 100.669 21.0795C100.847 20.8409 101.101 20.6288 101.43 20.4432C101.764 20.2538 102.214 20.1591 102.783 20.1591C103.518 20.1591 104.165 20.3428 104.726 20.7102C105.286 21.0777 105.724 21.5985 106.038 22.2727C106.353 22.947 106.51 23.7424 106.51 24.6591C106.51 25.5833 106.353 26.3845 106.038 27.0625C105.724 27.7367 105.288 28.2595 104.732 28.6307C104.175 28.9981 103.533 29.1818 102.805 29.1818C102.245 29.1818 101.796 29.089 101.459 28.9034C101.122 28.714 100.862 28.5 100.68 28.2614C100.499 28.0189 100.358 27.8182 100.26 27.6591H100.146V32.2727H98.8054ZM100.124 24.6364C100.124 25.2955 100.22 25.8769 100.413 26.3807C100.607 26.8807 100.889 27.2727 101.26 27.5568C101.631 27.8371 102.086 27.9773 102.624 27.9773C103.184 27.9773 103.652 27.8295 104.027 27.5341C104.406 27.2348 104.69 26.8333 104.879 26.3295C105.072 25.822 105.169 25.2576 105.169 24.6364C105.169 24.0227 105.074 23.4697 104.885 22.9773C104.699 22.4811 104.417 22.089 104.038 21.8011C103.663 21.5095 103.192 21.3636 102.624 21.3636C102.078 21.3636 101.62 21.5019 101.249 21.7784C100.877 22.0511 100.597 22.4337 100.408 22.9261C100.218 23.4148 100.124 23.9848 100.124 24.6364ZM111.124 29.2045C110.571 29.2045 110.069 29.1004 109.618 28.892C109.167 28.6799 108.809 28.375 108.544 27.9773C108.279 27.5758 108.146 27.0909 108.146 26.5227C108.146 26.0227 108.245 25.6174 108.442 25.3068C108.639 24.9924 108.902 24.7462 109.232 24.5682C109.561 24.3902 109.925 24.2576 110.322 24.1705C110.724 24.0795 111.127 24.0076 111.533 23.9545C112.063 23.8864 112.493 23.8352 112.822 23.8011C113.156 23.7633 113.398 23.7008 113.55 23.6136C113.705 23.5265 113.783 23.375 113.783 23.1591V23.1136C113.783 22.553 113.629 22.1174 113.322 21.8068C113.019 21.4962 112.559 21.3409 111.942 21.3409C111.302 21.3409 110.8 21.4811 110.436 21.7614C110.072 22.0417 109.817 22.3409 109.669 22.6591L108.396 22.2045C108.624 21.6742 108.927 21.2614 109.305 20.9659C109.688 20.6667 110.105 20.4583 110.555 20.3409C111.01 20.2197 111.457 20.1591 111.896 20.1591C112.177 20.1591 112.499 20.1932 112.862 20.2614C113.23 20.3258 113.584 20.4602 113.925 20.6648C114.269 20.8693 114.555 21.178 114.783 21.5909C115.01 22.0038 115.124 22.5568 115.124 23.25V29H113.783V27.8182H113.714C113.624 28.0076 113.472 28.2102 113.26 28.4261C113.048 28.642 112.766 28.8258 112.413 28.9773C112.061 29.1288 111.631 29.2045 111.124 29.2045ZM111.328 28C111.858 28 112.305 27.8958 112.669 27.6875C113.036 27.4792 113.313 27.2102 113.499 26.8807C113.688 26.5511 113.783 26.2045 113.783 25.8409V24.6136C113.726 24.6818 113.601 24.7443 113.408 24.8011C113.218 24.8542 112.999 24.9015 112.749 24.9432C112.502 24.9811 112.262 25.0152 112.027 25.0455C111.796 25.072 111.608 25.0947 111.464 25.1136C111.116 25.1591 110.79 25.233 110.487 25.3352C110.188 25.4337 109.946 25.5833 109.76 25.7841C109.578 25.9811 109.487 26.25 109.487 26.5909C109.487 27.0568 109.66 27.4091 110.004 27.6477C110.353 27.8826 110.794 28 111.328 28ZM123.753 22.2273L122.548 22.5682C122.473 22.3674 122.361 22.1723 122.213 21.983C122.069 21.7898 121.872 21.6307 121.622 21.5057C121.372 21.3807 121.052 21.3182 120.662 21.3182C120.128 21.3182 119.683 21.4413 119.327 21.6875C118.974 21.9299 118.798 22.2386 118.798 22.6136C118.798 22.947 118.92 23.2102 119.162 23.4034C119.404 23.5966 119.783 23.7576 120.298 23.8864L121.594 24.2045C122.374 24.3939 122.955 24.6837 123.338 25.0739C123.721 25.4602 123.912 25.9583 123.912 26.5682C123.912 27.0682 123.768 27.5152 123.48 27.9091C123.196 28.303 122.798 28.6136 122.287 28.8409C121.776 29.0682 121.181 29.1818 120.503 29.1818C119.613 29.1818 118.876 28.9886 118.293 28.6023C117.709 28.2159 117.34 27.6515 117.185 26.9091L118.457 26.5909C118.579 27.0606 118.808 27.4129 119.145 27.6477C119.486 27.8826 119.931 28 120.48 28C121.105 28 121.601 27.8674 121.969 27.6023C122.34 27.3333 122.526 27.0114 122.526 26.6364C122.526 26.3333 122.42 26.0795 122.207 25.875C121.995 25.6667 121.67 25.5114 121.23 25.4091L119.776 25.0682C118.976 24.8788 118.389 24.5852 118.014 24.1875C117.643 23.786 117.457 23.2841 117.457 22.6818C117.457 22.1894 117.596 21.7538 117.872 21.375C118.152 20.9962 118.533 20.6989 119.014 20.483C119.499 20.267 120.048 20.1591 120.662 20.1591C121.526 20.1591 122.204 20.3485 122.696 20.7273C123.192 21.1061 123.545 21.6061 123.753 22.2273ZM132.112 22.2273L130.908 22.5682C130.832 22.3674 130.72 22.1723 130.572 21.983C130.429 21.7898 130.232 21.6307 129.982 21.5057C129.732 21.3807 129.411 21.3182 129.021 21.3182C128.487 21.3182 128.042 21.4413 127.686 21.6875C127.334 21.9299 127.158 22.2386 127.158 22.6136C127.158 22.947 127.279 23.2102 127.521 23.4034C127.764 23.5966 128.143 23.7576 128.658 23.8864L129.953 24.2045C130.733 24.3939 131.315 24.6837 131.697 25.0739C132.08 25.4602 132.271 25.9583 132.271 26.5682C132.271 27.0682 132.127 27.5152 131.839 27.9091C131.555 28.303 131.158 28.6136 130.646 28.8409C130.135 29.0682 129.54 29.1818 128.862 29.1818C127.972 29.1818 127.235 28.9886 126.652 28.6023C126.069 28.2159 125.699 27.6515 125.544 26.9091L126.817 26.5909C126.938 27.0606 127.167 27.4129 127.504 27.6477C127.845 27.8826 128.29 28 128.839 28C129.464 28 129.961 27.8674 130.328 27.6023C130.699 27.3333 130.885 27.0114 130.885 26.6364C130.885 26.3333 130.779 26.0795 130.567 25.875C130.355 25.6667 130.029 25.5114 129.589 25.4091L128.135 25.0682C127.336 24.8788 126.749 24.5852 126.374 24.1875C126.002 23.786 125.817 23.2841 125.817 22.6818C125.817 22.1894 125.955 21.7538 126.232 21.375C126.512 20.9962 126.893 20.6989 127.374 20.483C127.858 20.267 128.408 20.1591 129.021 20.1591C129.885 20.1591 130.563 20.3485 131.055 20.7273C131.552 21.1061 131.904 21.6061 132.112 22.2273ZM136.267 29L133.608 20.2727H135.017L136.903 26.9545H136.994L138.858 20.2727H140.29L142.131 26.9318H142.222L144.108 20.2727H145.517L142.858 29H141.54L139.631 22.2955H139.494L137.585 29H136.267ZM150.538 29.1818C149.75 29.1818 149.059 28.9943 148.464 28.6193C147.874 28.2443 147.411 27.7197 147.078 27.0455C146.749 26.3712 146.584 25.5833 146.584 24.6818C146.584 23.7727 146.749 22.9792 147.078 22.3011C147.411 21.6231 147.874 21.0966 148.464 20.7216C149.059 20.3466 149.75 20.1591 150.538 20.1591C151.326 20.1591 152.016 20.3466 152.607 20.7216C153.201 21.0966 153.663 21.6231 153.993 22.3011C154.326 22.9792 154.493 23.7727 154.493 24.6818C154.493 25.5833 154.326 26.3712 153.993 27.0455C153.663 27.7197 153.201 28.2443 152.607 28.6193C152.016 28.9943 151.326 29.1818 150.538 29.1818ZM150.538 27.9773C151.137 27.9773 151.629 27.8239 152.016 27.517C152.402 27.2102 152.688 26.8068 152.874 26.3068C153.059 25.8068 153.152 25.2652 153.152 24.6818C153.152 24.0985 153.059 23.5549 152.874 23.0511C152.688 22.5473 152.402 22.1402 152.016 21.8295C151.629 21.5189 151.137 21.3636 150.538 21.3636C149.94 21.3636 149.447 21.5189 149.061 21.8295C148.675 22.1402 148.389 22.5473 148.203 23.0511C148.018 23.5549 147.925 24.0985 147.925 24.6818C147.925 25.2652 148.018 25.8068 148.203 26.3068C148.389 26.8068 148.675 27.2102 149.061 27.517C149.447 27.8239 149.94 27.9773 150.538 27.9773ZM156.54 29V20.2727H157.835V21.5909H157.926C158.085 21.1591 158.373 20.8087 158.79 20.5398C159.206 20.2708 159.676 20.1364 160.199 20.1364C160.297 20.1364 160.42 20.1383 160.568 20.142C160.716 20.1458 160.828 20.1515 160.903 20.1591V21.5227C160.858 21.5114 160.754 21.4943 160.591 21.4716C160.432 21.4451 160.263 21.4318 160.085 21.4318C159.661 21.4318 159.282 21.5208 158.949 21.6989C158.619 21.8731 158.358 22.1155 158.165 22.4261C157.975 22.733 157.881 23.0833 157.881 23.4773V29H156.54ZM165.523 29.1818C164.795 29.1818 164.153 28.9981 163.597 28.6307C163.04 28.2595 162.604 27.7367 162.29 27.0625C161.975 26.3845 161.818 25.5833 161.818 24.6591C161.818 23.7424 161.975 22.947 162.29 22.2727C162.604 21.5985 163.042 21.0777 163.602 20.7102C164.163 20.3428 164.811 20.1591 165.545 20.1591C166.114 20.1591 166.563 20.2538 166.892 20.4432C167.225 20.6288 167.479 20.8409 167.653 21.0795C167.831 21.3144 167.97 21.5076 168.068 21.6591H168.182V17.3636H169.523V29H168.227V27.6591H168.068C167.97 27.8182 167.83 28.0189 167.648 28.2614C167.466 28.5 167.206 28.714 166.869 28.9034C166.532 29.089 166.083 29.1818 165.523 29.1818ZM165.705 27.9773C166.242 27.9773 166.697 27.8371 167.068 27.5568C167.439 27.2727 167.722 26.8807 167.915 26.3807C168.108 25.8769 168.205 25.2955 168.205 24.6364C168.205 23.9848 168.11 23.4148 167.92 22.9261C167.731 22.4337 167.451 22.0511 167.08 21.7784C166.708 21.5019 166.25 21.3636 165.705 21.3636C165.136 21.3636 164.663 21.5095 164.284 21.8011C163.909 22.089 163.627 22.4811 163.438 22.9773C163.252 23.4697 163.159 24.0227 163.159 24.6364C163.159 25.2576 163.254 25.822 163.443 26.3295C163.636 26.8333 163.92 27.2348 164.295 27.5341C164.674 27.8295 165.144 27.9773 165.705 27.9773Z" fill="#6B7280"/>
</g>
<path d="M374.834 27.75C375.875 27.75 376.761 27.3854 377.49 26.6562C378.219 25.9271 378.584 25.0417 378.584 24C378.584 22.9583 378.219 22.0729 377.49 21.3438C376.761 20.6146 375.875 20.25 374.834 20.25C373.792 20.25 372.907 20.6146 372.177 21.3438C371.448 22.0729 371.084 22.9583 371.084 24C371.084 25.0417 371.448 25.9271 372.177 26.6562C372.907 27.3854 373.792 27.75 374.834 27.75ZM374.834 26.25C374.209 26.25 373.677 26.0312 373.24 25.5938C372.802 25.1562 372.584 24.625 372.584 24C372.584 23.375 372.802 22.8438 373.24 22.4062C373.677 21.9688 374.209 21.75 374.834 21.75C375.459 21.75 375.99 21.9688 376.427 22.4062C376.865 22.8438 377.084 23.375 377.084 24C377.084 24.625 376.865 25.1562 376.427 25.5938C375.99 26.0312 375.459 26.25 374.834 26.25ZM374.834 30.25C372.806 30.25 370.959 29.684 369.292 28.5521C367.625 27.4201 366.417 25.9028 365.667 24C366.417 22.0972 367.625 20.5799 369.292 19.4479C370.959 18.316 372.806 17.75 374.834 17.75C376.861 17.75 378.709 18.316 380.375 19.4479C382.042 20.5799 383.25 22.0972 384 24C383.25 25.9028 382.042 27.4201 380.375 28.5521C378.709 29.684 376.861 30.25 374.834 30.25ZM374.834 28.5833C376.403 28.5833 377.844 28.1701 379.157 27.3438C380.469 26.5174 381.473 25.4028 382.167 24C381.473 22.5972 380.469 21.4826 379.157 20.6562C377.844 19.8299 376.403 19.4167 374.834 19.4167C373.264 19.4167 371.823 19.8299 370.511 20.6562C369.198 21.4826 368.195 22.5972 367.5 24C368.195 25.4028 369.198 26.5174 370.511 27.3438C371.823 28.1701 373.264 28.5833 374.834 28.5833Z" fill="#94A3B8"/>
<defs>
<clipPath id="clip0_205_1755">
<rect width="362" height="19" fill="white" transform="translate(17 14)"/>
</clipPath>
</defs>
</svg>
