<svg width="396" height="53" viewBox="0 0 396 53" fill="none" xmlns="http://www.w3.org/2000/svg">
<path d="M96.3263 20V5.44922H102.003C103.108 5.44922 104.047 5.64466 104.822 6.03555C105.596 6.42643 106.188 6.97712 106.595 7.6876C107.003 8.39809 107.206 9.23022 107.206 10.184C107.206 11.1448 107 11.9713 106.587 12.6635C106.174 13.3557 105.575 13.8863 104.79 14.2554C104.004 14.6245 103.052 14.809 101.934 14.809H98.0892V12.3939H101.461C102.067 12.3939 102.567 12.3106 102.961 12.144C103.354 11.9774 103.648 11.7305 103.841 11.4032C104.035 11.0759 104.132 10.6695 104.132 10.184C104.132 9.69247 104.035 9.27832 103.841 8.94154C103.648 8.60476 103.353 8.34832 102.958 8.17222C102.563 7.99612 102.061 7.90807 101.452 7.90807H99.3104V20H96.3263ZM104.422 20L100.885 13.3787H104.114L107.731 20H104.422ZM114.088 20.2133C112.973 20.2133 112.012 19.9851 111.205 19.5286C110.398 19.0722 109.778 18.424 109.345 17.5842C108.913 16.7443 108.696 15.7487 108.696 14.5973C108.696 13.474 108.911 12.4885 109.341 11.6409C109.771 10.7933 110.379 10.1322 111.166 9.65742C111.952 9.18268 112.877 8.94531 113.941 8.94531C114.654 8.94531 115.32 9.05892 115.939 9.28614C116.559 9.51335 117.102 9.856 117.57 10.3141C118.038 10.7721 118.403 11.3477 118.666 12.0408C118.929 12.7339 119.06 13.5481 119.06 14.4834V15.3055H109.898V13.4625H117.633L116.264 13.9566C116.264 13.3881 116.178 12.8941 116.004 12.4746C115.83 12.0551 115.573 11.7297 115.232 11.4983C114.892 11.2669 114.468 11.1512 113.962 11.1512C113.455 11.1512 113.026 11.2684 112.673 11.5028C112.32 11.7371 112.052 12.0551 111.868 12.4567C111.684 12.8582 111.592 13.3148 111.592 13.8264V15.1238C111.592 15.7553 111.697 16.2859 111.909 16.7154C112.12 17.145 112.417 17.4677 112.801 17.6836C113.184 17.8994 113.628 18.0074 114.134 18.0074C114.476 18.0074 114.787 17.9587 115.066 17.8614C115.346 17.7641 115.586 17.6199 115.787 17.4291C115.988 17.2382 116.142 17.0029 116.247 16.7232L118.895 17.2131C118.719 17.8162 118.413 18.3428 117.978 18.7929C117.542 19.2429 116.997 19.5922 116.342 19.8406C115.686 20.0891 114.935 20.2133 114.088 20.2133ZM125.402 20.2133C124.524 20.2133 123.745 20.0875 123.068 19.836C122.39 19.5845 121.837 19.2202 121.408 18.7431C120.98 18.2659 120.702 17.6902 120.576 17.016L123.305 16.547C123.448 17.0546 123.697 17.4351 124.055 17.6887C124.412 17.9423 124.89 18.0691 125.488 18.0691C126.046 18.0691 126.487 17.9626 126.811 17.7496C127.135 17.5366 127.297 17.267 127.297 16.9408C127.297 16.6546 127.182 16.4205 126.952 16.2384C126.722 16.0563 126.366 15.9157 125.886 15.8166L124.006 15.4291C122.953 15.2123 122.166 14.8459 121.646 14.3297C121.126 13.8136 120.865 13.1468 120.865 12.3293C120.865 11.6305 121.056 11.0286 121.438 10.5237C121.819 10.0188 122.353 9.62956 123.039 9.35586C123.725 9.08216 124.527 8.94531 125.446 8.94531C126.311 8.94531 127.059 9.06465 127.69 9.30332C128.322 9.54199 128.832 9.87849 129.22 10.3128C129.609 10.7471 129.87 11.2619 130.005 11.8571L127.406 12.3147C127.291 11.9416 127.076 11.6369 126.762 11.4005C126.447 11.1641 126.024 11.0459 125.493 11.0459C125.011 11.0459 124.607 11.1473 124.281 11.3501C123.955 11.5529 123.792 11.8207 123.792 12.1533C123.792 12.4269 123.898 12.6585 124.108 12.8481C124.318 13.0378 124.681 13.1864 125.196 13.2939L127.157 13.6845C128.214 13.8978 129 14.2476 129.516 14.7339C130.031 15.2201 130.289 15.8534 130.289 16.6338C130.289 17.3491 130.08 17.9752 129.663 18.5119C129.245 19.0486 128.669 19.4664 127.935 19.7651C127.202 20.0639 126.357 20.2133 125.402 20.2133ZM137.203 20.2133C136.088 20.2133 135.128 19.9851 134.32 19.5286C133.513 19.0722 132.893 18.424 132.461 17.5842C132.028 16.7443 131.811 15.7487 131.811 14.5973C131.811 13.474 132.026 12.4885 132.456 11.6409C132.887 10.7933 133.495 10.1322 134.281 9.65742C135.068 9.18268 135.992 8.94531 137.056 8.94531C137.769 8.94531 138.435 9.05892 139.054 9.28614C139.674 9.51335 140.217 9.856 140.685 10.3141C141.153 10.7721 141.518 11.3477 141.781 12.0408C142.044 12.7339 142.176 13.5481 142.176 14.4834V15.3055H133.013V13.4625H140.748L139.38 13.9566C139.38 13.3881 139.293 12.8941 139.119 12.4746C138.946 12.0551 138.688 11.7297 138.348 11.4983C138.007 11.2669 137.583 11.1512 137.077 11.1512C136.571 11.1512 136.141 11.2684 135.788 11.5028C135.436 11.7371 135.167 12.0551 134.983 12.4567C134.799 12.8582 134.707 13.3148 134.707 13.8264V15.1238C134.707 15.7553 134.813 16.2859 135.024 16.7154C135.235 17.145 135.533 17.4677 135.916 17.6836C136.299 17.8994 136.744 18.0074 137.25 18.0074C137.591 18.0074 137.902 17.9587 138.181 17.8614C138.461 17.7641 138.701 17.6199 138.902 17.4291C139.104 17.2382 139.257 17.0029 139.362 16.7232L142.01 17.2131C141.834 17.8162 141.528 18.3428 141.093 18.7929C140.658 19.2429 140.112 19.5922 139.457 19.8406C138.801 20.0891 138.05 20.2133 137.203 20.2133ZM149.605 9.08203V11.3137H143.127V9.08203H149.605ZM144.63 6.48438H147.559V16.8041C147.559 17.1517 147.636 17.408 147.791 17.5728C147.945 17.7376 148.199 17.8201 148.553 17.8201C148.667 17.8201 148.824 17.8062 149.025 17.7784C149.225 17.7506 149.378 17.7236 149.483 17.6976L149.902 19.8939C149.576 19.9907 149.252 20.058 148.931 20.0958C148.61 20.1336 148.303 20.1525 148.008 20.1525C146.913 20.1525 146.076 19.8868 145.498 19.3554C144.919 18.8239 144.63 18.0595 144.63 17.0621V6.48438ZM160.857 20V14.5282L155.468 5.44922H158.961L161.42 9.983C161.672 10.44 161.896 10.892 162.092 11.3388C162.288 11.7857 162.49 12.321 162.697 12.9447H162.045C162.245 12.315 162.44 11.7752 162.631 11.3254C162.821 10.8755 163.036 10.428 163.275 9.983L165.656 5.44922H169.134L163.83 14.5282V20H160.857ZM173.548 20.2133C172.453 20.2133 171.505 19.978 170.705 19.5075C169.905 19.037 169.289 18.3795 168.857 17.5349C168.424 16.6903 168.208 15.7081 168.208 14.5883C168.208 13.4595 168.424 12.4721 168.857 11.626C169.289 10.7799 169.905 10.1216 170.705 9.65107C171.505 9.18057 172.453 8.94531 173.548 8.94531C174.646 8.94531 175.594 9.18057 176.392 9.65107C177.19 10.1216 177.805 10.7799 178.237 11.626C178.67 12.4721 178.886 13.4595 178.886 14.5883C178.886 15.7081 178.67 16.6903 178.237 17.5349C177.805 18.3795 177.19 19.037 176.392 19.5075C175.594 19.978 174.646 20.2133 173.548 20.2133ZM173.548 17.908C174.069 17.908 174.505 17.7631 174.855 17.4734C175.206 17.1837 175.469 16.7875 175.644 16.2847C175.819 15.782 175.906 15.213 175.906 14.5777C175.906 13.9359 175.819 13.3648 175.644 12.8644C175.469 12.3639 175.206 11.9699 174.855 11.6822C174.505 11.3945 174.069 11.2506 173.548 11.2506C173.026 11.2506 172.591 11.3945 172.241 11.6822C171.892 11.9699 171.63 12.3632 171.455 12.8621C171.28 13.3611 171.192 13.9329 171.192 14.5777C171.192 15.213 171.28 15.782 171.455 16.2847C171.63 16.7875 171.892 17.1837 172.241 17.4734C172.591 17.7631 173.026 17.908 173.548 17.908ZM184.686 20.1367C183.933 20.1367 183.274 19.9722 182.708 19.6431C182.143 19.314 181.705 18.8417 181.394 18.2262C181.083 17.6107 180.927 16.8773 180.927 16.0262V9.08203H183.856V15.5158C183.856 16.1939 184.031 16.7258 184.383 17.1114C184.734 17.497 185.218 17.6898 185.836 17.6898C186.251 17.6898 186.617 17.5996 186.934 17.4192C187.251 17.2388 187.5 16.9772 187.681 16.6344C187.862 16.2917 187.952 15.8814 187.952 15.4035V9.08203H190.886V20H188.116L188.074 17.2744H188.245C187.955 18.1911 187.517 18.8973 186.931 19.3931C186.344 19.8888 185.596 20.1367 184.686 20.1367ZM193.378 20V9.08203H196.217V10.9832H196.334C196.532 10.3103 196.867 9.80091 197.339 9.45508C197.811 9.10925 198.353 8.93633 198.965 8.93633C199.117 8.93633 199.279 8.94486 199.453 8.96192C199.627 8.97897 199.78 9.00306 199.912 9.03419V11.6508C199.783 11.6062 199.594 11.57 199.345 11.5422C199.096 11.5144 198.863 11.5005 198.646 11.5005C198.199 11.5005 197.798 11.5972 197.443 11.7907C197.087 11.9842 196.809 12.252 196.608 12.5942C196.407 12.9364 196.307 13.3338 196.307 13.7864V20H193.378ZM206.326 20V5.44922H212.003C213.108 5.44922 214.047 5.65944 214.822 6.07988C215.596 6.50033 216.188 7.07995 216.595 7.81876C217.003 8.55756 217.206 9.40561 217.206 10.3629C217.206 11.3237 217 12.1706 216.587 12.9036C216.174 13.6367 215.575 14.2106 214.79 14.6255C214.004 15.0404 213.052 15.2479 211.934 15.2479H208.287V12.8418H211.461C212.067 12.8418 212.568 12.7363 212.963 12.5254C213.358 12.3144 213.651 12.0226 213.844 11.6497C214.036 11.2769 214.132 10.8479 214.132 10.3629C214.132 9.87086 214.036 9.44079 213.844 9.07269C213.651 8.7046 213.357 8.41847 212.961 8.21431C212.564 8.01015 212.061 7.90807 211.452 7.90807H209.31V20H206.326ZM222.016 20.2117C221.322 20.2117 220.701 20.0894 220.152 19.8448C219.602 19.6002 219.171 19.2361 218.856 18.7523C218.542 18.2686 218.385 17.6669 218.385 16.9473C218.385 16.3363 218.496 15.8268 218.719 15.4186C218.941 15.0104 219.246 14.6816 219.633 14.4324C220.02 14.1832 220.46 13.9936 220.953 13.8636C221.445 13.7336 221.961 13.643 222.501 13.592C223.131 13.5284 223.639 13.4686 224.027 13.4125C224.414 13.3564 224.698 13.2686 224.879 13.1491C225.06 13.0296 225.151 12.8523 225.151 12.617V12.5689C225.151 12.2574 225.084 11.9938 224.952 11.7782C224.82 11.5627 224.626 11.3975 224.372 11.2828C224.118 11.168 223.806 11.1106 223.435 11.1106C223.062 11.1106 222.735 11.1674 222.456 11.2809C222.176 11.3944 221.947 11.546 221.769 11.7357C221.59 11.9253 221.462 12.1383 221.383 12.3746L218.697 11.9287C218.882 11.2928 219.193 10.7534 219.629 10.3105C220.066 9.86756 220.609 9.52931 221.257 9.29571C221.906 9.06211 222.635 8.94531 223.444 8.94531C224.03 8.94531 224.6 9.01475 225.153 9.15362C225.707 9.29249 226.203 9.50971 226.643 9.80529C227.083 10.1009 227.433 10.4831 227.691 10.952C227.95 11.4208 228.079 11.9868 228.079 12.6498V20H225.301V18.484H225.205C225.029 18.8223 224.794 19.1212 224.501 19.3809C224.208 19.6405 223.856 19.8439 223.445 19.991C223.033 20.1381 222.557 20.2117 222.016 20.2117ZM222.84 18.158C223.302 18.158 223.707 18.0662 224.056 17.8826C224.405 17.699 224.678 17.4512 224.875 17.1392C225.073 16.8273 225.172 16.4798 225.172 16.0969V14.9155C225.082 14.9755 224.951 15.0318 224.777 15.0843C224.603 15.1368 224.408 15.1839 224.194 15.2254C223.98 15.2669 223.768 15.303 223.559 15.3335C223.35 15.364 223.165 15.3908 223.003 15.4139C222.643 15.4625 222.326 15.5449 222.054 15.6613C221.781 15.7778 221.569 15.9334 221.418 16.1283C221.267 16.3232 221.191 16.5675 221.191 16.8611C221.191 17.1438 221.262 17.3813 221.405 17.5737C221.547 17.7661 221.742 17.9116 221.989 18.0101C222.237 18.1087 222.52 18.158 222.84 18.158ZM234.914 20.2133C234.035 20.2133 233.257 20.0875 232.579 19.836C231.902 19.5845 231.349 19.2202 230.92 18.7431C230.492 18.2659 230.214 17.6902 230.087 17.016L232.817 16.547C232.959 17.0546 233.209 17.4351 233.567 17.6887C233.924 17.9423 234.402 18.0691 235 18.0691C235.558 18.0691 235.999 17.9626 236.323 17.7496C236.647 17.5366 236.809 17.267 236.809 16.9408C236.809 16.6546 236.694 16.4205 236.464 16.2384C236.233 16.0563 235.878 15.9157 235.397 15.8166L233.518 15.4291C232.465 15.2123 231.678 14.8459 231.158 14.3297C230.637 13.8136 230.377 13.1468 230.377 12.3293C230.377 11.6305 230.568 11.0286 230.949 10.5237C231.331 10.0188 231.864 9.62956 232.551 9.35586C233.237 9.08216 234.039 8.94531 234.958 8.94531C235.823 8.94531 236.571 9.06465 237.202 9.30332C237.833 9.54199 238.343 9.87849 238.732 10.3128C239.12 10.7471 239.382 11.2619 239.517 11.8571L236.918 12.3147C236.803 11.9416 236.588 11.6369 236.273 11.4005C235.958 11.1641 235.536 11.0459 235.005 11.0459C234.522 11.0459 234.118 11.1473 233.793 11.3501C233.467 11.5529 233.304 11.8207 233.304 12.1533C233.304 12.4269 233.409 12.6585 233.62 12.8481C233.83 13.0378 234.193 13.1864 234.708 13.2939L236.669 13.6845C237.726 13.8978 238.512 14.2476 239.027 14.7339C239.543 15.2201 239.801 15.8534 239.801 16.6338C239.801 17.3491 239.592 17.9752 239.174 18.5119C238.757 19.0486 238.181 19.4664 237.447 19.7651C236.713 20.0639 235.869 20.2133 234.914 20.2133ZM246.115 20.2133C245.236 20.2133 244.458 20.0875 243.781 19.836C243.103 19.5845 242.55 19.2202 242.121 18.7431C241.693 18.2659 241.415 17.6902 241.288 17.016L244.018 16.547C244.161 17.0546 244.41 17.4351 244.768 17.6887C245.125 17.9423 245.603 18.0691 246.201 18.0691C246.759 18.0691 247.2 17.9626 247.524 17.7496C247.848 17.5366 248.01 17.267 248.01 16.9408C248.01 16.6546 247.895 16.4205 247.665 16.2384C247.435 16.0563 247.079 15.9157 246.599 15.8166L244.719 15.4291C243.666 15.2123 242.879 14.8459 242.359 14.3297C241.838 13.8136 241.578 13.1468 241.578 12.3293C241.578 11.6305 241.769 11.0286 242.15 10.5237C242.532 10.0188 243.066 9.62956 243.752 9.35586C244.438 9.08216 245.24 8.94531 246.159 8.94531C247.024 8.94531 247.772 9.06465 248.403 9.30332C249.035 9.54199 249.544 9.87849 249.933 10.3128C250.322 10.7471 250.583 11.2619 250.718 11.8571L248.119 12.3147C248.004 11.9416 247.789 11.6369 247.474 11.4005C247.16 11.1641 246.737 11.0459 246.206 11.0459C245.724 11.0459 245.32 11.1473 244.994 11.3501C244.668 11.5529 244.505 11.8207 244.505 12.1533C244.505 12.4269 244.61 12.6585 244.821 12.8481C245.031 13.0378 245.394 13.1864 245.909 13.2939L247.87 13.6845C248.927 13.8978 249.713 14.2476 250.228 14.7339C250.744 15.2201 251.002 15.8534 251.002 16.6338C251.002 17.3491 250.793 17.9752 250.376 18.5119C249.958 19.0486 249.382 19.4664 248.648 19.7651C247.914 20.0639 247.07 20.2133 246.115 20.2133ZM255.255 20L252.034 9.08203H255.107L256.055 13.1199C256.217 13.8412 256.392 14.6269 256.581 15.4768C256.77 16.3268 256.944 17.2655 257.104 18.2931H256.769C256.94 17.2865 257.126 16.3566 257.328 15.5034C257.53 14.6502 257.718 13.8557 257.893 13.1199L258.89 9.08203H261.588L262.555 13.1199C262.724 13.8502 262.909 14.6404 263.111 15.4903C263.313 16.3402 263.499 17.2745 263.67 18.2931H263.342C263.501 17.2805 263.67 16.3492 263.849 15.4993C264.027 14.6493 264.199 13.8562 264.363 13.1199L265.311 9.08203H268.426L265.184 20H262.208L260.997 15.7864C260.879 15.3695 260.761 14.905 260.643 14.3929C260.526 13.8809 260.412 13.3593 260.301 12.8283C260.19 12.2972 260.077 11.8012 259.961 11.3403H260.478C260.369 11.7982 260.258 12.2935 260.143 12.826C260.029 13.3586 259.914 13.8824 259.799 14.3974C259.683 14.9125 259.564 15.3754 259.442 15.7864L258.232 20H255.255ZM274.593 20.2133C273.498 20.2133 272.55 19.978 271.75 19.5075C270.95 19.037 270.334 18.3795 269.902 17.5349C269.469 16.6903 269.253 15.7081 269.253 14.5883C269.253 13.4595 269.469 12.4721 269.902 11.626C270.334 10.7799 270.95 10.1216 271.75 9.65107C272.55 9.18057 273.498 8.94531 274.593 8.94531C275.691 8.94531 276.639 9.18057 277.437 9.65107C278.235 10.1216 278.85 10.7799 279.282 11.626C279.715 12.4721 279.931 13.4595 279.931 14.5883C279.931 15.7081 279.715 16.6903 279.282 17.5349C278.85 18.3795 278.235 19.037 277.437 19.5075C276.639 19.978 275.691 20.2133 274.593 20.2133ZM274.593 17.908C275.114 17.908 275.55 17.7631 275.9 17.4734C276.251 17.1837 276.513 16.7875 276.689 16.2847C276.864 15.782 276.951 15.213 276.951 14.5777C276.951 13.9359 276.864 13.3648 276.689 12.8644C276.513 12.3639 276.251 11.9699 275.9 11.6822C275.55 11.3945 275.114 11.2506 274.593 11.2506C274.071 11.2506 273.636 11.3945 273.286 11.6822C272.937 11.9699 272.675 12.3632 272.5 12.8621C272.325 13.3611 272.237 13.9329 272.237 14.5777C272.237 15.213 272.325 15.782 272.5 16.2847C272.675 16.7875 272.937 17.1837 273.286 17.4734C273.636 17.7631 274.071 17.908 274.593 17.908ZM281.972 20V9.08203H284.81V10.9832H284.928C285.126 10.3103 285.461 9.80091 285.933 9.45508C286.405 9.10925 286.947 8.93633 287.559 8.93633C287.71 8.93633 287.873 8.94486 288.047 8.96192C288.221 8.97897 288.374 9.00306 288.506 9.03419V11.6508C288.376 11.6062 288.187 11.57 287.939 11.5422C287.69 11.5144 287.457 11.5005 287.24 11.5005C286.793 11.5005 286.392 11.5972 286.037 11.7907C285.681 11.9842 285.403 12.252 285.202 12.5942C285.001 12.9364 284.901 13.3338 284.901 13.7864V20H281.972ZM293.62 20.1816C292.785 20.1816 292.031 19.9655 291.357 19.5331C290.684 19.1008 290.151 18.4667 289.761 17.6309C289.37 16.7951 289.175 15.7714 289.175 14.5598C289.175 13.316 289.376 12.2779 289.779 11.4453C290.181 10.6128 290.719 9.98795 291.391 9.57089C292.063 9.15384 292.8 8.94531 293.603 8.94531C294.221 8.94531 294.736 9.04932 295.148 9.25732C295.559 9.46533 295.891 9.72184 296.144 10.0269C296.397 10.3319 296.587 10.6295 296.715 10.9197H296.809V5.44922H299.738V20H296.857V18.2525H296.715C296.58 18.5458 296.384 18.8402 296.126 19.1359C295.869 19.4316 295.536 19.6799 295.129 19.8806C294.721 20.0813 294.218 20.1816 293.62 20.1816ZM294.522 17.8341C295.02 17.8341 295.445 17.6969 295.795 17.4224C296.146 17.1479 296.412 16.7647 296.596 16.2728C296.779 15.7809 296.871 15.2069 296.871 14.5508C296.871 13.8876 296.78 13.313 296.598 12.8268C296.416 12.3406 296.15 11.9634 295.8 11.6952C295.45 11.4269 295.023 11.2928 294.522 11.2928C294.011 11.2928 293.581 11.4314 293.233 11.7086C292.885 11.9858 292.622 12.369 292.445 12.8582C292.269 13.3474 292.18 13.9116 292.18 14.5508C292.18 15.1894 292.269 15.7564 292.448 16.2515C292.626 16.7467 292.89 17.1343 293.24 17.4142C293.59 17.6941 294.017 17.8341 294.522 17.8341Z" fill="#0F172A"/>
<path d="M26.1958 48V37.8145H29.6821C30.4751 37.8145 31.1279 37.9591 31.6406 38.2485C32.1533 38.5379 32.5338 38.9264 32.7822 39.4141C33.0306 39.9017 33.1547 40.4486 33.1547 41.0547C33.1547 41.6608 33.0306 42.21 32.7822 42.7021C32.5338 43.1943 32.1544 43.5863 31.644 43.8779C31.1336 44.1696 30.4819 44.3154 29.6889 44.3154H27.2212V43.1738H29.6274C30.1652 43.1738 30.5981 43.0815 30.9262 42.897C31.2544 42.7124 31.4925 42.4595 31.6406 42.1382C31.7887 41.8169 31.8628 41.4557 31.8628 41.0547C31.8628 40.6536 31.7887 40.2948 31.6406 39.978C31.4925 39.6613 31.2532 39.4118 30.9228 39.2295C30.5924 39.0472 30.156 38.9561 29.6137 38.9561H27.4946V48H26.1958ZM36.2172 37.8145V48H34.9868V37.8145H36.2172ZM41.5903 48.1641C40.852 48.1641 40.2151 48 39.6796 47.6719C39.1442 47.3438 38.7317 46.8857 38.4423 46.2979C38.153 45.71 38.0083 45.0241 38.0083 44.2402C38.0083 43.4564 38.1495 42.766 38.4321 42.1689C38.7146 41.5719 39.1145 41.1048 39.6318 40.7676C40.149 40.4303 40.754 40.2617 41.4467 40.2617C41.8523 40.2617 42.2522 40.3289 42.6464 40.4634C43.0407 40.5978 43.3984 40.8143 43.7197 41.1128C44.041 41.4113 44.2973 41.8044 44.4887 42.292C44.6801 42.7796 44.7758 43.3766 44.7758 44.083V44.5957H38.8422V43.5566H44.1128L43.5385 43.9395C43.5385 43.4382 43.4599 42.9927 43.3027 42.603C43.1455 42.2134 42.9119 41.908 42.602 41.687C42.2921 41.466 41.907 41.3555 41.4467 41.3555C40.9865 41.3555 40.5922 41.4683 40.2641 41.6938C39.936 41.9194 39.6853 42.2134 39.5122 42.5757C39.339 42.938 39.2524 43.3265 39.2524 43.7412V44.4316C39.2524 44.9967 39.3504 45.4764 39.5463 45.8706C39.7423 46.2648 40.0169 46.5633 40.3701 46.7661C40.7233 46.9689 41.1323 47.0703 41.5971 47.0703C41.8979 47.0703 42.1713 47.027 42.4174 46.9404C42.6635 46.8538 42.8754 46.7228 43.0532 46.5474C43.2309 46.3719 43.3676 46.1543 43.4633 45.8945L44.6528 46.2227C44.5343 46.6055 44.3338 46.9427 44.0512 47.2344C43.7687 47.526 43.4189 47.7539 43.0019 47.918C42.5849 48.082 42.1144 48.1641 41.5903 48.1641ZM48.8159 48.1777C48.3328 48.1777 47.8942 48.0866 47.5 47.9043C47.1058 47.722 46.7924 47.4554 46.56 47.1045C46.3276 46.7536 46.2114 46.3275 46.2114 45.8262C46.2114 45.3887 46.298 45.0332 46.4712 44.7598C46.6443 44.4863 46.8756 44.271 47.165 44.1138C47.4544 43.9565 47.7745 43.8392 48.1255 43.7617C48.4764 43.6842 48.8296 43.6227 49.185 43.5771C49.6407 43.5179 50.0122 43.4723 50.2993 43.4404C50.5864 43.4085 50.7994 43.3538 50.9384 43.2764C51.0774 43.1989 51.1469 43.0667 51.1469 42.8799V42.8389C51.1469 42.5199 51.0877 42.2498 50.9692 42.0288C50.8507 41.8078 50.673 41.638 50.436 41.5195C50.199 41.401 49.9028 41.3418 49.5473 41.3418C49.1827 41.3418 48.8706 41.3988 48.6108 41.5127C48.351 41.6266 48.1403 41.769 47.9785 41.9399C47.8167 42.1108 47.6948 42.2852 47.6128 42.4629L46.4301 42.0732C46.6261 41.6084 46.8904 41.245 47.2231 40.9829C47.5558 40.7209 47.9227 40.5352 48.3237 40.4258C48.7247 40.3164 49.1212 40.2617 49.5131 40.2617C49.7684 40.2617 50.0589 40.2925 50.3847 40.354C50.7106 40.4155 51.025 40.5374 51.3281 40.7197C51.6311 40.902 51.8818 41.172 52.08 41.5298C52.2783 41.8875 52.3774 42.3649 52.3774 42.9619V48H51.1674V46.9609H51.0854C50.9988 47.1387 50.8598 47.3221 50.6684 47.5112C50.477 47.7004 50.2286 47.8587 49.9233 47.9863C49.618 48.1139 49.2488 48.1777 48.8159 48.1777ZM49.0278 47.0908C49.4835 47.0908 49.8686 47.002 50.1831 46.8242C50.4975 46.6465 50.7368 46.4152 50.9008 46.1304C51.0649 45.8455 51.1469 45.5482 51.1469 45.2383V44.1787C51.0968 44.238 50.9874 44.2915 50.8188 44.3394C50.6502 44.3872 50.4576 44.4294 50.2412 44.4658C50.0247 44.5023 49.8151 44.533 49.6123 44.5581C49.4095 44.5832 49.2488 44.6025 49.1303 44.6162C48.8341 44.6527 48.5573 44.7153 48.2998 44.8042C48.0423 44.8931 47.8361 45.0229 47.6811 45.1938C47.5262 45.3647 47.4487 45.596 47.4487 45.8877C47.4487 46.152 47.5171 46.373 47.6538 46.5508C47.7905 46.7285 47.9773 46.863 48.2143 46.9541C48.4513 47.0452 48.7225 47.0908 49.0278 47.0908ZM57.1352 48.1641C56.6111 48.1641 56.1451 48.0877 55.7373 47.9351C55.3294 47.7824 54.9933 47.5557 54.729 47.2549C54.4646 46.9541 54.2869 46.585 54.1958 46.1475L55.3647 45.8672C55.4741 46.2865 55.6803 46.5941 55.9834 46.79C56.2864 46.986 56.6658 47.084 57.1215 47.084C57.6547 47.084 58.0797 46.9701 58.3964 46.7422C58.7132 46.5143 58.8715 46.2432 58.8715 45.9287C58.8715 45.6644 58.7793 45.4445 58.5947 45.269C58.4101 45.0936 58.1287 44.9626 57.7505 44.876L56.479 44.5752C55.7863 44.4111 55.2713 44.1571 54.934 43.813C54.5968 43.4689 54.4282 43.028 54.4282 42.4902C54.4282 42.0527 54.5512 41.6665 54.7973 41.3315C55.0434 40.9966 55.3795 40.7345 55.8056 40.5454C56.2317 40.3563 56.7159 40.2617 57.2583 40.2617C57.7824 40.2617 58.2278 40.3403 58.5947 40.4976C58.9616 40.6548 59.2601 40.8713 59.4902 41.147C59.7203 41.4227 59.8924 41.7406 60.0063 42.1006L58.8921 42.3877C58.7872 42.1143 58.6129 41.8659 58.3691 41.6426C58.1253 41.4193 57.7573 41.3076 57.2651 41.3076C56.8094 41.3076 56.43 41.4124 56.1269 41.6221C55.8239 41.8317 55.6723 42.096 55.6723 42.415C55.6723 42.6976 55.7749 42.9243 55.9799 43.0952C56.185 43.2661 56.5109 43.404 56.9575 43.5088L58.1128 43.7822C58.8055 43.9463 59.3182 44.2004 59.6508 44.5444C59.9835 44.8885 60.1499 45.3226 60.1499 45.8467C60.1499 46.2933 60.0234 46.6909 59.7705 47.0396C59.5175 47.3882 59.1643 47.6628 58.7109 47.8633C58.2574 48.0638 57.7322 48.1641 57.1352 48.1641ZM65.1401 48.1641C64.4018 48.1641 63.7649 48 63.2295 47.6719C62.694 47.3438 62.2815 46.8857 61.9921 46.2979C61.7028 45.71 61.5581 45.0241 61.5581 44.2402C61.5581 43.4564 61.6993 42.766 61.9819 42.1689C62.2644 41.5719 62.6643 41.1048 63.1816 40.7676C63.6989 40.4303 64.3038 40.2617 64.9965 40.2617C65.4021 40.2617 65.802 40.3289 66.1963 40.4634C66.5905 40.5978 66.9482 40.8143 67.2695 41.1128C67.5908 41.4113 67.8471 41.8044 68.0385 42.292C68.2299 42.7796 68.3256 43.3766 68.3256 44.083V44.5957H62.3921V43.5566H67.6626L67.0883 43.9395C67.0883 43.4382 67.0097 42.9927 66.8525 42.603C66.6953 42.2134 66.4617 41.908 66.1518 41.687C65.8419 41.466 65.4568 41.3555 64.9965 41.3555C64.5363 41.3555 64.1421 41.4683 63.8139 41.6938C63.4858 41.9194 63.2352 42.2134 63.062 42.5757C62.8888 42.938 62.8022 43.3265 62.8022 43.7412V44.4316C62.8022 44.9967 62.9002 45.4764 63.0962 45.8706C63.2921 46.2648 63.5667 46.5633 63.9199 46.7661C64.2731 46.9689 64.6821 47.0703 65.1469 47.0703C65.4477 47.0703 65.7212 47.027 65.9672 46.9404C66.2133 46.8538 66.4253 46.7228 66.603 46.5474C66.7807 46.3719 66.9174 46.1543 67.0131 45.8945L68.2026 46.2227C68.0841 46.6055 67.8836 46.9427 67.601 47.2344C67.3185 47.526 66.9687 47.7539 66.5517 47.918C66.1347 48.082 65.6642 48.1641 65.1401 48.1641ZM77.2397 48.1641C76.5014 48.1641 75.8645 48 75.3291 47.6719C74.7936 47.3438 74.3811 46.8857 74.0918 46.2979C73.8024 45.71 73.6577 45.0241 73.6577 44.2402C73.6577 43.4564 73.799 42.766 74.0815 42.1689C74.3641 41.5719 74.764 41.1048 75.2812 40.7676C75.7985 40.4303 76.4034 40.2617 77.0962 40.2617C77.5018 40.2617 77.9017 40.3289 78.2959 40.4634C78.6901 40.5978 79.0478 40.8143 79.3691 41.1128C79.6904 41.4113 79.9467 41.8044 80.1381 42.292C80.3296 42.7796 80.4253 43.3766 80.4253 44.083V44.5957H74.4917V43.5566H79.7622L79.188 43.9395C79.188 43.4382 79.1093 42.9927 78.9521 42.603C78.7949 42.2134 78.5613 41.908 78.2514 41.687C77.9415 41.466 77.5564 41.3555 77.0962 41.3555C76.6359 41.3555 76.2417 41.4683 75.9135 41.6938C75.5854 41.9194 75.3348 42.2134 75.1616 42.5757C74.9884 42.938 74.9018 43.3265 74.9018 43.7412V44.4316C74.9018 44.9967 74.9998 45.4764 75.1958 45.8706C75.3917 46.2648 75.6663 46.5633 76.0195 46.7661C76.3727 46.9689 76.7817 47.0703 77.2465 47.0703C77.5473 47.0703 77.8208 47.027 78.0669 46.9404C78.313 46.8538 78.5249 46.7228 78.7026 46.5474C78.8803 46.3719 79.0171 46.1543 79.1128 45.8945L80.3022 46.2227C80.1837 46.6055 79.9832 46.9427 79.7006 47.2344C79.4181 47.526 79.0683 47.7539 78.6513 47.918C78.2343 48.082 77.7638 48.1641 77.2397 48.1641ZM83.4194 43.4199V48H82.1889V40.3574H83.3715L83.3784 42.21H83.2075C83.4399 41.5036 83.7714 41.0023 84.2021 40.7061C84.6328 40.4098 85.1375 40.2617 85.7163 40.2617C86.2312 40.2617 86.6824 40.3677 87.0698 40.5796C87.4572 40.7915 87.7591 41.1105 87.9755 41.5366C88.192 41.9627 88.3003 42.4993 88.3003 43.1465V48H87.0698V43.249C87.0698 42.6611 86.916 42.2008 86.6084 41.8682C86.3007 41.5355 85.8803 41.3691 85.3471 41.3691C84.9825 41.3691 84.6544 41.4489 84.3628 41.6084C84.0711 41.7679 83.8409 42.0003 83.6723 42.3057C83.5037 42.611 83.4194 42.9824 83.4194 43.4199ZM93.4682 40.3574V41.4102H89.5171V40.3574H93.4682ZM90.6655 38.5391H91.896V46.0176C91.896 46.3594 91.9655 46.6089 92.1045 46.7661C92.2435 46.9233 92.4747 47.002 92.7983 47.002C92.8758 47.002 92.9749 46.9928 93.0957 46.9746C93.2164 46.9564 93.3269 46.9382 93.4272 46.9199L93.6801 47.959C93.5525 48.0046 93.4078 48.0387 93.2461 48.0615C93.0843 48.0843 92.9236 48.0957 92.7641 48.0957C92.1033 48.0957 91.5883 47.9214 91.2192 47.5728C90.8501 47.2241 90.6655 46.7376 90.6655 46.1133V38.5391ZM98.1167 48.1641C97.3784 48.1641 96.7415 48 96.206 47.6719C95.6705 47.3438 95.2581 46.8857 94.9687 46.2979C94.6793 45.71 94.5346 45.0241 94.5346 44.2402C94.5346 43.4564 94.6759 42.766 94.9585 42.1689C95.241 41.5719 95.6409 41.1048 96.1582 40.7676C96.6754 40.4303 97.2804 40.2617 97.9731 40.2617C98.3787 40.2617 98.7786 40.3289 99.1728 40.4634C99.567 40.5978 99.9248 40.8143 100.246 41.1128C100.567 41.4113 100.824 41.8044 101.015 42.292C101.207 42.7796 101.302 43.3766 101.302 44.083V44.5957H95.3686V43.5566H100.639L100.065 43.9395C100.065 43.4382 99.9863 42.9927 99.8291 42.603C99.6718 42.2134 99.4383 41.908 99.1284 41.687C98.8185 41.466 98.4334 41.3555 97.9731 41.3555C97.5128 41.3555 97.1186 41.4683 96.7905 41.6938C96.4624 41.9194 96.2117 42.2134 96.0385 42.5757C95.8654 42.938 95.7788 43.3265 95.7788 43.7412V44.4316C95.7788 44.9967 95.8768 45.4764 96.0727 45.8706C96.2687 46.2648 96.5433 46.5633 96.8964 46.7661C97.2496 46.9689 97.6587 47.0703 98.1235 47.0703C98.4243 47.0703 98.6977 47.027 98.9438 46.9404C99.1899 46.8538 99.4018 46.7228 99.5796 46.5474C99.7573 46.3719 99.894 46.1543 99.9897 45.8945L101.179 46.2227C101.061 46.6055 100.86 46.9427 100.578 47.2344C100.295 47.526 99.9453 47.7539 99.5283 47.918C99.1113 48.082 98.6407 48.1641 98.1167 48.1641ZM103.066 48V40.3574H104.255V41.5332H104.337C104.479 41.1458 104.73 40.8348 105.093 40.6001C105.455 40.3654 105.864 40.248 106.32 40.248C106.411 40.248 106.519 40.2503 106.644 40.2549C106.77 40.2594 106.869 40.264 106.942 40.2686V41.5059C106.905 41.4967 106.814 41.4831 106.668 41.4648C106.523 41.4466 106.368 41.4375 106.204 41.4375C105.839 41.4375 105.512 41.5138 105.223 41.6665C104.933 41.8192 104.707 42.0288 104.542 42.2954C104.378 42.562 104.296 42.8685 104.296 43.2148V48H103.066ZM114.414 48.1777C113.93 48.1777 113.492 48.0866 113.098 47.9043C112.703 47.722 112.39 47.4554 112.158 47.1045C111.925 46.7536 111.809 46.3275 111.809 45.8262C111.809 45.3887 111.896 45.0332 112.069 44.7598C112.242 44.4863 112.473 44.271 112.763 44.1138C113.052 43.9565 113.372 43.8392 113.723 43.7617C114.074 43.6842 114.427 43.6227 114.783 43.5771C115.238 43.5179 115.61 43.4723 115.897 43.4404C116.184 43.4085 116.397 43.3538 116.536 43.2764C116.675 43.1989 116.745 43.0667 116.745 42.8799V42.8389C116.745 42.5199 116.685 42.2498 116.567 42.0288C116.448 41.8078 116.271 41.638 116.034 41.5195C115.797 41.401 115.5 41.3418 115.145 41.3418C114.78 41.3418 114.468 41.3988 114.208 41.5127C113.949 41.6266 113.738 41.769 113.576 41.9399C113.414 42.1108 113.292 42.2852 113.21 42.4629L112.028 42.0732C112.224 41.6084 112.488 41.245 112.821 40.9829C113.153 40.7209 113.52 40.5352 113.921 40.4258C114.322 40.3164 114.719 40.2617 115.111 40.2617C115.366 40.2617 115.657 40.2925 115.982 40.354C116.308 40.4155 116.623 40.5374 116.926 40.7197C117.229 40.902 117.479 41.172 117.678 41.5298C117.876 41.8875 117.975 42.3649 117.975 42.9619V48H116.765V46.9609H116.683C116.596 47.1387 116.457 47.3221 116.266 47.5112C116.075 47.7004 115.826 47.8587 115.521 47.9863C115.216 48.1139 114.846 48.1777 114.414 48.1777ZM114.625 47.0908C115.081 47.0908 115.466 47.002 115.781 46.8242C116.095 46.6465 116.334 46.4152 116.498 46.1304C116.663 45.8455 116.745 45.5482 116.745 45.2383V44.1787C116.694 44.238 116.585 44.2915 116.416 44.3394C116.248 44.3872 116.055 44.4294 115.839 44.4658C115.622 44.5023 115.413 44.533 115.21 44.5581C115.007 44.5832 114.846 44.6025 114.728 44.6162C114.432 44.6527 114.155 44.7153 113.897 44.8042C113.64 44.8931 113.434 45.0229 113.279 45.1938C113.124 45.3647 113.046 45.596 113.046 45.8877C113.046 46.152 113.115 46.373 113.251 46.5508C113.388 46.7285 113.575 46.863 113.812 46.9541C114.049 47.0452 114.32 47.0908 114.625 47.0908ZM121.366 43.4199V48H120.135V40.3574H121.318L121.325 42.21H121.154C121.386 41.5036 121.718 41.0023 122.148 40.7061C122.579 40.4098 123.084 40.2617 123.663 40.2617C124.178 40.2617 124.629 40.3677 125.016 40.5796C125.403 40.7915 125.705 41.1105 125.922 41.5366C126.138 41.9627 126.247 42.4993 126.247 43.1465V48H125.016V43.249C125.016 42.6611 124.862 42.2008 124.555 41.8682C124.247 41.5355 123.827 41.3691 123.293 41.3691C122.929 41.3691 122.601 41.4489 122.309 41.6084C122.017 41.7679 121.787 42.0003 121.619 42.3057C121.45 42.611 121.366 42.9824 121.366 43.4199ZM131.271 48.1641C130.637 48.1641 130.077 48.0023 129.589 47.6787C129.102 47.3551 128.721 46.8971 128.448 46.3047C128.174 45.7122 128.038 45.0104 128.038 44.1992C128.038 43.3926 128.175 42.6942 128.451 42.104C128.727 41.5138 129.109 41.0592 129.596 40.7402C130.084 40.4212 130.644 40.2617 131.278 40.2617C131.775 40.2617 132.169 40.3438 132.46 40.5078C132.752 40.6719 132.977 40.8576 133.134 41.0649C133.291 41.2723 133.411 41.4443 133.493 41.5811H133.588V37.8145H134.819V48H133.629V46.8174H133.493C133.411 46.9587 133.289 47.1353 133.127 47.3472C132.965 47.5591 132.737 47.7482 132.443 47.9146C132.149 48.0809 131.759 48.1641 131.271 48.1641ZM131.456 47.0635C131.92 47.0635 132.312 46.9416 132.631 46.6978C132.95 46.4539 133.192 46.1156 133.356 45.6826C133.52 45.2497 133.602 44.7507 133.602 44.1855C133.602 43.6204 133.521 43.1271 133.359 42.7056C133.198 42.284 132.957 41.9548 132.638 41.7178C132.319 41.4808 131.925 41.3623 131.456 41.3623C130.972 41.3623 130.57 41.4876 130.249 41.7383C129.928 41.9889 129.687 42.3273 129.528 42.7534C129.368 43.1795 129.289 43.6569 129.289 44.1855C129.289 44.7188 129.369 45.203 129.531 45.6382C129.693 46.0734 129.936 46.4198 130.259 46.6772C130.583 46.9347 130.982 47.0635 131.456 47.0635ZM144.027 48.1641C143.334 48.1641 142.727 48 142.205 47.6719C141.683 47.3438 141.276 46.8835 140.985 46.291C140.693 45.6986 140.547 45.0104 140.547 44.2266C140.547 43.429 140.693 42.7329 140.985 42.1382C141.276 41.5435 141.683 41.082 142.205 40.7539C142.727 40.4258 143.334 40.2617 144.027 40.2617C144.396 40.2617 144.745 40.3096 145.073 40.4053C145.401 40.501 145.7 40.6388 145.972 40.8188C146.243 40.9989 146.476 41.2199 146.672 41.4819C146.868 41.744 147.019 42.0413 147.123 42.374L145.941 42.709C145.886 42.513 145.802 42.333 145.688 42.1689C145.574 42.0049 145.436 41.8625 145.274 41.7417C145.113 41.6209 144.927 41.5275 144.717 41.4614C144.508 41.3953 144.277 41.3623 144.027 41.3623C143.516 41.3623 143.097 41.4956 142.769 41.7622C142.441 42.0288 142.197 42.3786 142.038 42.8115C141.878 43.2445 141.798 43.7161 141.798 44.2266C141.798 44.7279 141.878 45.1938 142.038 45.6245C142.197 46.0552 142.441 46.4027 142.769 46.667C143.097 46.9313 143.516 47.0635 144.027 47.0635C144.282 47.0635 144.517 47.0293 144.731 46.9609C144.945 46.8926 145.135 46.7957 145.302 46.6704C145.468 46.5451 145.608 46.3958 145.722 46.2227C145.836 46.0495 145.92 45.8604 145.975 45.6553L147.151 45.9902C147.051 46.332 146.901 46.6362 146.703 46.9028C146.505 47.1694 146.269 47.3973 145.996 47.5864C145.722 47.7756 145.419 47.9191 145.086 48.0171C144.754 48.1151 144.401 48.1641 144.027 48.1641ZM152.025 48.1641C151.332 48.1641 150.725 48 150.203 47.6719C149.681 47.3438 149.275 46.8835 148.983 46.291C148.691 45.6986 148.545 45.0104 148.545 44.2266C148.545 43.429 148.691 42.7329 148.983 42.1382C149.275 41.5435 149.681 41.082 150.203 40.7539C150.725 40.4258 151.332 40.2617 152.025 40.2617C152.722 40.2617 153.333 40.4258 153.857 40.7539C154.381 41.082 154.789 41.5435 155.081 42.1382C155.372 42.7329 155.518 43.429 155.518 44.2266C155.518 45.0104 155.372 45.6986 155.081 46.291C154.789 46.8835 154.381 47.3438 153.857 47.6719C153.333 48 152.722 48.1641 152.025 48.1641ZM152.025 47.0635C152.54 47.0635 152.964 46.9313 153.296 46.667C153.629 46.4027 153.875 46.0552 154.035 45.6245C154.194 45.1938 154.274 44.7279 154.274 44.2266C154.274 43.7207 154.194 43.2502 154.035 42.8149C153.875 42.3797 153.629 42.0288 153.296 41.7622C152.964 41.4956 152.54 41.3623 152.025 41.3623C151.514 41.3623 151.095 41.4956 150.767 41.7622C150.439 42.0288 150.195 42.3786 150.036 42.8115C149.876 43.2445 149.796 43.7161 149.796 44.2266C149.796 44.7279 149.876 45.1938 150.036 45.6245C150.195 46.0552 150.439 46.4027 150.767 46.667C151.095 46.9313 151.514 47.0635 152.025 47.0635ZM158.54 43.4199V48H157.309V40.3574H158.492L158.498 42.21H158.328C158.56 41.5036 158.892 41.0023 159.322 40.7061C159.753 40.4098 160.258 40.2617 160.836 40.2617C161.351 40.2617 161.803 40.3677 162.19 40.5796C162.577 40.7915 162.879 41.1105 163.096 41.5366C163.312 41.9627 163.42 42.4993 163.42 43.1465V48H162.19V43.249C162.19 42.6611 162.036 42.2008 161.728 41.8682C161.421 41.5355 161 41.3691 160.467 41.3691C160.103 41.3691 159.775 41.4489 159.483 41.6084C159.191 41.7679 158.961 42.0003 158.792 42.3057C158.624 42.611 158.54 42.9824 158.54 43.4199ZM169.135 40.3574V41.4102H164.637V40.3574H169.135ZM166.141 48V39.3389C166.141 38.8968 166.245 38.5277 166.452 38.2314C166.659 37.9352 166.929 37.7119 167.262 37.5615C167.595 37.4111 167.946 37.3359 168.315 37.3359C168.607 37.3359 168.848 37.3599 169.04 37.4077C169.231 37.4556 169.372 37.5 169.463 37.541L169.122 38.5938C169.058 38.571 168.975 38.5459 168.872 38.5186C168.769 38.4912 168.632 38.4775 168.458 38.4775C168.08 38.4775 167.804 38.5744 167.631 38.7681C167.458 38.9618 167.372 39.2432 167.372 39.6123V48H166.141ZM170.762 48V40.3574H171.993V48H170.762ZM171.384 39.1064C171.152 39.1064 170.951 39.0267 170.783 38.8672C170.614 38.7077 170.53 38.5163 170.53 38.293C170.53 38.0651 170.614 37.8726 170.783 37.7153C170.951 37.5581 171.152 37.4795 171.384 37.4795C171.621 37.4795 171.824 37.5581 171.993 37.7153C172.161 37.8726 172.246 38.0651 172.246 38.293C172.246 38.5163 172.161 38.7077 171.993 38.8672C171.824 39.0267 171.621 39.1064 171.384 39.1064ZM174.153 48V40.3574H175.342V41.5332H175.424C175.566 41.1458 175.817 40.8348 176.18 40.6001C176.542 40.3654 176.951 40.248 177.407 40.248C177.498 40.248 177.606 40.2503 177.731 40.2549C177.857 40.2594 177.956 40.264 178.029 40.2686V41.5059C177.992 41.4967 177.901 41.4831 177.755 41.4648C177.609 41.4466 177.455 41.4375 177.29 41.4375C176.926 41.4375 176.599 41.5138 176.31 41.6665C176.02 41.8192 175.793 42.0288 175.629 42.2954C175.465 42.562 175.383 42.8685 175.383 43.2148V48H174.153ZM179.642 48V40.3574H180.838L180.845 42.0664H180.749C180.854 41.6517 181.019 41.3088 181.245 41.0376C181.471 40.7664 181.735 40.5625 182.038 40.4258C182.341 40.2891 182.657 40.2207 182.985 40.2207C183.541 40.2207 183.991 40.3916 184.335 40.7334C184.679 41.0752 184.901 41.5241 185.001 42.0801H184.837C184.929 41.6973 185.095 41.3669 185.336 41.0889C185.578 40.8109 185.871 40.5967 186.215 40.4463C186.559 40.2959 186.934 40.2207 187.339 40.2207C187.781 40.2207 188.185 40.3164 188.549 40.5078C188.914 40.6992 189.204 40.9886 189.421 41.376C189.637 41.7633 189.746 42.2533 189.746 42.8457V48H188.515V42.8799C188.515 42.3285 188.36 41.9342 188.05 41.6973C187.74 41.4603 187.38 41.3418 186.97 41.3418C186.628 41.3418 186.333 41.4136 186.085 41.5571C185.837 41.7007 185.645 41.8978 185.511 42.1484C185.376 42.3991 185.309 42.6862 185.309 43.0098V48H184.079V42.7568C184.079 42.333 183.937 41.9912 183.655 41.7314C183.372 41.4717 183.014 41.3418 182.581 41.3418C182.285 41.3418 182.006 41.4113 181.744 41.5503C181.482 41.6893 181.271 41.8955 181.112 42.1689C180.952 42.4424 180.873 42.7819 180.873 43.1875V48H179.642ZM195.72 50.7686L196.035 49.7021L196.165 49.7363C196.415 49.8001 196.643 49.8172 196.848 49.7876C197.053 49.758 197.238 49.6566 197.402 49.4834C197.566 49.3102 197.709 49.0413 197.832 48.6768L198.051 48.041L195.132 40.3574H196.479L198.106 44.8896C198.279 45.3636 198.425 45.833 198.543 46.2979C198.662 46.7627 198.787 47.2139 198.919 47.6514H198.468C198.6 47.2139 198.727 46.7616 198.848 46.2944C198.968 45.8273 199.113 45.359 199.282 44.8896L200.922 40.3574H202.262L198.906 49.1416C198.751 49.5472 198.565 49.881 198.349 50.1431C198.132 50.4051 197.88 50.5988 197.593 50.7241C197.306 50.8494 196.983 50.9121 196.623 50.9121C196.404 50.9121 196.215 50.8962 196.055 50.8643C195.896 50.8324 195.784 50.8005 195.72 50.7686ZM206.548 48.1641C205.856 48.1641 205.248 48 204.727 47.6719C204.205 47.3438 203.798 46.8835 203.506 46.291C203.215 45.6986 203.069 45.0104 203.069 44.2266C203.069 43.429 203.215 42.7329 203.506 42.1382C203.798 41.5435 204.205 41.082 204.727 40.7539C205.248 40.4258 205.856 40.2617 206.548 40.2617C207.246 40.2617 207.856 40.4258 208.38 40.7539C208.904 41.082 209.312 41.5435 209.604 42.1382C209.896 42.7329 210.041 43.429 210.041 44.2266C210.041 45.0104 209.896 45.6986 209.604 46.291C209.312 46.8835 208.904 47.3438 208.38 47.6719C207.856 48 207.246 48.1641 206.548 48.1641ZM206.548 47.0635C207.063 47.0635 207.487 46.9313 207.82 46.667C208.152 46.4027 208.399 46.0552 208.558 45.6245C208.718 45.1938 208.797 44.7279 208.797 44.2266C208.797 43.7207 208.718 43.2502 208.558 42.8149C208.399 42.3797 208.152 42.0288 207.82 41.7622C207.487 41.4956 207.063 41.3623 206.548 41.3623C206.038 41.3623 205.619 41.4956 205.29 41.7622C204.962 42.0288 204.719 42.3786 204.559 42.8115C204.4 43.2445 204.32 43.7161 204.32 44.2266C204.32 44.7279 204.4 45.1938 204.559 45.6245C204.719 46.0552 204.962 46.4027 205.29 46.667C205.619 46.9313 206.038 47.0635 206.548 47.0635ZM214.423 48.0957C213.908 48.0957 213.456 47.9897 213.066 47.7778C212.677 47.5659 212.374 47.2458 212.157 46.8174C211.941 46.389 211.832 45.8535 211.832 45.2109V40.3574H213.063V45.1084C213.063 45.6963 213.218 46.1566 213.528 46.4893C213.838 46.8219 214.259 46.9883 214.792 46.9883C215.157 46.9883 215.484 46.9085 215.773 46.749C216.063 46.5895 216.292 46.356 216.46 46.0483C216.629 45.7407 216.713 45.3704 216.713 44.9375V40.3574H217.951V48H216.761V46.1475H216.925C216.688 46.863 216.352 47.3665 215.917 47.6582C215.482 47.9499 214.984 48.0957 214.423 48.0957ZM220.111 48V40.3574H221.3V41.5332H221.382C221.524 41.1458 221.775 40.8348 222.138 40.6001C222.5 40.3654 222.909 40.248 223.365 40.248C223.456 40.248 223.564 40.2503 223.689 40.2549C223.815 40.2594 223.914 40.264 223.987 40.2686V41.5059C223.95 41.4967 223.859 41.4831 223.713 41.4648C223.567 41.4466 223.413 41.4375 223.248 41.4375C222.884 41.4375 222.557 41.5138 222.268 41.6665C221.978 41.8192 221.751 42.0288 221.587 42.2954C221.423 42.562 221.341 42.8685 221.341 43.2148V48H220.111ZM230.549 43.4199V48H229.319V40.3574H230.501L230.508 42.21H230.337C230.57 41.5036 230.901 41.0023 231.332 40.7061C231.763 40.4098 232.267 40.2617 232.846 40.2617C233.361 40.2617 233.812 40.3677 234.2 40.5796C234.587 40.7915 234.889 41.1105 235.105 41.5366C235.322 41.9627 235.43 42.4993 235.43 43.1465V48H234.2V43.249C234.2 42.6611 234.046 42.2008 233.738 41.8682C233.431 41.5355 233.01 41.3691 232.477 41.3691C232.112 41.3691 231.784 41.4489 231.493 41.6084C231.201 41.7679 230.971 42.0003 230.802 42.3057C230.634 42.611 230.549 42.9824 230.549 43.4199ZM240.803 48.1641C240.065 48.1641 239.428 48 238.893 47.6719C238.357 47.3438 237.945 46.8857 237.655 46.2979C237.366 45.71 237.221 45.0241 237.221 44.2402C237.221 43.4564 237.362 42.766 237.645 42.1689C237.928 41.5719 238.327 41.1048 238.845 40.7676C239.362 40.4303 239.967 40.2617 240.66 40.2617C241.065 40.2617 241.465 40.3289 241.859 40.4634C242.254 40.5978 242.611 40.8143 242.933 41.1128C243.254 41.4113 243.51 41.8044 243.702 42.292C243.893 42.7796 243.989 43.3766 243.989 44.083V44.5957H238.055V43.5566H243.326L242.751 43.9395C242.751 43.4382 242.673 42.9927 242.516 42.603C242.358 42.2134 242.125 41.908 241.815 41.687C241.505 41.466 241.12 41.3555 240.66 41.3555C240.199 41.3555 239.805 41.4683 239.477 41.6938C239.149 41.9194 238.898 42.2134 238.725 42.5757C238.552 42.938 238.465 43.3265 238.465 43.7412V44.4316C238.465 44.9967 238.563 45.4764 238.759 45.8706C238.955 46.2648 239.23 46.5633 239.583 46.7661C239.936 46.9689 240.345 47.0703 240.81 47.0703C241.111 47.0703 241.384 47.027 241.63 46.9404C241.876 46.8538 242.088 46.7228 242.266 46.5474C242.444 46.3719 242.581 46.1543 242.676 45.8945L243.866 46.2227C243.747 46.6055 243.547 46.9427 243.264 47.2344C242.982 47.526 242.632 47.7539 242.215 47.918C241.798 48.082 241.327 48.1641 240.803 48.1641ZM247.215 48L244.898 40.3574H246.204L247.133 43.6934C247.261 44.1491 247.398 44.6652 247.543 45.2417C247.689 45.8182 247.833 46.471 247.974 47.2002H247.762C247.899 46.5029 248.038 45.8649 248.179 45.2861C248.32 44.7074 248.457 44.1764 248.589 43.6934L249.505 40.3574H250.818L251.72 43.6934C251.848 44.1628 251.981 44.6857 252.12 45.2622C252.259 45.8387 252.397 46.4847 252.534 47.2002H252.315C252.461 46.4938 252.605 45.8524 252.749 45.2759C252.893 44.6994 253.03 44.1719 253.163 43.6934L254.092 40.3574H255.398L253.081 48H251.857L250.866 44.541C250.765 44.1901 250.667 43.8324 250.572 43.4678C250.476 43.1032 250.383 42.7295 250.291 42.3467C250.2 41.9639 250.107 41.5742 250.011 41.1777H250.285C250.193 41.5697 250.101 41.9582 250.008 42.3433C249.914 42.7284 249.82 43.1055 249.724 43.4746C249.628 43.8438 249.53 44.1992 249.43 44.541L248.439 48H247.215ZM260.894 50.8574V40.3574H262.083V41.5811H262.22C262.307 41.4443 262.428 41.2723 262.582 41.0649C262.737 40.8576 262.961 40.6719 263.252 40.5078C263.544 40.3438 263.938 40.2617 264.435 40.2617C265.073 40.2617 265.635 40.4212 266.12 40.7402C266.605 41.0592 266.986 41.5138 267.262 42.104C267.537 42.6942 267.675 43.3926 267.675 44.1992C267.675 45.0104 267.539 45.7122 267.265 46.3047C266.992 46.8971 266.612 47.3551 266.127 47.6787C265.642 48.0023 265.08 48.1641 264.442 48.1641C263.959 48.1641 263.569 48.0809 263.273 47.9146C262.977 47.7482 262.749 47.5591 262.589 47.3472C262.43 47.1353 262.307 46.9587 262.22 46.8174H262.124V50.8574H260.894ZM264.257 47.0635C264.736 47.0635 265.136 46.9347 265.457 46.6772C265.778 46.4198 266.02 46.0734 266.182 45.6382C266.343 45.203 266.424 44.7188 266.424 44.1855C266.424 43.6569 266.345 43.1795 266.185 42.7534C266.026 42.3273 265.785 41.9889 265.464 41.7383C265.143 41.4876 264.74 41.3623 264.257 41.3623C263.788 41.3623 263.394 41.4808 263.075 41.7178C262.756 41.9548 262.515 42.284 262.353 42.7056C262.192 43.1271 262.111 43.6204 262.111 44.1855C262.111 44.7507 262.193 45.2497 262.357 45.6826C262.521 46.1156 262.764 46.4539 263.085 46.6978C263.406 46.9416 263.797 47.0635 264.257 47.0635ZM271.743 48.1777C271.26 48.1777 270.821 48.0866 270.427 47.9043C270.033 47.722 269.719 47.4554 269.487 47.1045C269.254 46.7536 269.138 46.3275 269.138 45.8262C269.138 45.3887 269.225 45.0332 269.398 44.7598C269.571 44.4863 269.802 44.271 270.092 44.1138C270.381 43.9565 270.701 43.8392 271.052 43.7617C271.403 43.6842 271.756 43.6227 272.112 43.5771C272.567 43.5179 272.939 43.4723 273.226 43.4404C273.513 43.4085 273.726 43.3538 273.865 43.2764C274.004 43.1989 274.074 43.0667 274.074 42.8799V42.8389C274.074 42.5199 274.014 42.2498 273.896 42.0288C273.777 41.8078 273.6 41.638 273.363 41.5195C273.126 41.401 272.83 41.3418 272.474 41.3418C272.109 41.3418 271.797 41.3988 271.538 41.5127C271.278 41.6266 271.067 41.769 270.905 41.9399C270.743 42.1108 270.622 42.2852 270.54 42.4629L269.357 42.0732C269.553 41.6084 269.817 41.245 270.15 40.9829C270.483 40.7209 270.849 40.5352 271.25 40.4258C271.651 40.3164 272.048 40.2617 272.44 40.2617C272.695 40.2617 272.986 40.2925 273.311 40.354C273.637 40.4155 273.952 40.5374 274.255 40.7197C274.558 40.902 274.809 41.172 275.007 41.5298C275.205 41.8875 275.304 42.3649 275.304 42.9619V48H274.094V46.9609H274.012C273.926 47.1387 273.787 47.3221 273.595 47.5112C273.404 47.7004 273.155 47.8587 272.85 47.9863C272.545 48.1139 272.176 48.1777 271.743 48.1777ZM271.955 47.0908C272.41 47.0908 272.795 47.002 273.11 46.8242C273.424 46.6465 273.664 46.4152 273.828 46.1304C273.992 45.8455 274.074 45.5482 274.074 45.2383V44.1787C274.024 44.238 273.914 44.2915 273.746 44.3394C273.577 44.3872 273.384 44.4294 273.168 44.4658C272.951 44.5023 272.742 44.533 272.539 44.5581C272.336 44.5832 272.176 44.6025 272.057 44.6162C271.761 44.6527 271.484 44.7153 271.227 44.8042C270.969 44.8931 270.763 45.0229 270.608 45.1938C270.453 45.3647 270.375 45.596 270.375 45.8877C270.375 46.152 270.444 46.373 270.581 46.5508C270.717 46.7285 270.904 46.863 271.141 46.9541C271.378 47.0452 271.649 47.0908 271.955 47.0908ZM280.062 48.1641C279.538 48.1641 279.072 48.0877 278.664 47.9351C278.256 47.7824 277.92 47.5557 277.656 47.2549C277.391 46.9541 277.214 46.585 277.123 46.1475L278.291 45.8672C278.401 46.2865 278.607 46.5941 278.91 46.79C279.213 46.986 279.593 47.084 280.048 47.084C280.581 47.084 281.006 46.9701 281.323 46.7422C281.64 46.5143 281.798 46.2432 281.798 45.9287C281.798 45.6644 281.706 45.4445 281.521 45.269C281.337 45.0936 281.055 44.9626 280.677 44.876L279.406 44.5752C278.713 44.4111 278.198 44.1571 277.861 43.813C277.524 43.4689 277.355 43.028 277.355 42.4902C277.355 42.0527 277.478 41.6665 277.724 41.3315C277.97 40.9966 278.306 40.7345 278.732 40.5454C279.158 40.3563 279.643 40.2617 280.185 40.2617C280.709 40.2617 281.155 40.3403 281.521 40.4976C281.888 40.6548 282.187 40.8713 282.417 41.147C282.647 41.4227 282.819 41.7406 282.933 42.1006L281.819 42.3877C281.714 42.1143 281.54 41.8659 281.296 41.6426C281.052 41.4193 280.684 41.3076 280.192 41.3076C279.736 41.3076 279.357 41.4124 279.054 41.6221C278.751 41.8317 278.599 42.096 278.599 42.415C278.599 42.6976 278.702 42.9243 278.907 43.0952C279.112 43.2661 279.438 43.404 279.884 43.5088L281.04 43.7822C281.732 43.9463 282.245 44.2004 282.578 44.5444C282.91 44.8885 283.077 45.3226 283.077 45.8467C283.077 46.2933 282.95 46.6909 282.697 47.0396C282.444 47.3882 282.091 47.6628 281.638 47.8633C281.184 48.0638 280.659 48.1641 280.062 48.1641ZM287.452 48.1641C286.928 48.1641 286.462 48.0877 286.054 47.9351C285.646 47.7824 285.31 47.5557 285.045 47.2549C284.781 46.9541 284.603 46.585 284.512 46.1475L285.681 45.8672C285.79 46.2865 285.997 46.5941 286.3 46.79C286.603 46.986 286.982 47.084 287.438 47.084C287.971 47.084 288.396 46.9701 288.713 46.7422C289.03 46.5143 289.188 46.2432 289.188 45.9287C289.188 45.6644 289.096 45.4445 288.911 45.269C288.727 45.0936 288.445 44.9626 288.067 44.876L286.795 44.5752C286.103 44.4111 285.588 44.1571 285.25 43.813C284.913 43.4689 284.745 43.028 284.745 42.4902C284.745 42.0527 284.868 41.6665 285.114 41.3315C285.36 40.9966 285.696 40.7345 286.122 40.5454C286.548 40.3563 287.032 40.2617 287.575 40.2617C288.099 40.2617 288.544 40.3403 288.911 40.4976C289.278 40.6548 289.576 40.8713 289.807 41.147C290.037 41.4227 290.209 41.7406 290.323 42.1006L289.208 42.3877C289.104 42.1143 288.929 41.8659 288.686 41.6426C288.442 41.4193 288.074 41.3076 287.582 41.3076C287.126 41.3076 286.746 41.4124 286.443 41.6221C286.14 41.8317 285.989 42.096 285.989 42.415C285.989 42.6976 286.091 42.9243 286.296 43.0952C286.501 43.2661 286.827 43.404 287.274 43.5088L288.429 43.7822C289.122 43.9463 289.635 44.2004 289.967 44.5444C290.3 44.8885 290.466 45.3226 290.466 45.8467C290.466 46.2933 290.34 46.6909 290.087 47.0396C289.834 47.3882 289.481 47.6628 289.027 47.8633C288.574 48.0638 288.049 48.1641 287.452 48.1641ZM293.959 48L291.642 40.3574H292.948L293.877 43.6934C294.005 44.1491 294.142 44.6652 294.288 45.2417C294.433 45.8182 294.577 46.471 294.718 47.2002H294.506C294.643 46.5029 294.782 45.8649 294.923 45.2861C295.065 44.7074 295.201 44.1764 295.333 43.6934L296.249 40.3574H297.562L298.464 43.6934C298.592 44.1628 298.725 44.6857 298.864 45.2622C299.003 45.8387 299.141 46.4847 299.278 47.2002H299.059C299.205 46.4938 299.35 45.8524 299.493 45.2759C299.637 44.6994 299.775 44.1719 299.907 43.6934L300.836 40.3574H302.142L299.825 48H298.601L297.61 44.541C297.51 44.1901 297.412 43.8324 297.316 43.4678C297.22 43.1032 297.127 42.7295 297.036 42.3467C296.944 41.9639 296.851 41.5742 296.755 41.1777H297.029C296.938 41.5697 296.845 41.9582 296.752 42.3433C296.658 42.7284 296.564 43.1055 296.468 43.4746C296.373 43.8438 296.275 44.1992 296.174 44.541L295.183 48H293.959ZM306.558 48.1641C305.865 48.1641 305.258 48 304.736 47.6719C304.214 47.3438 303.808 46.8835 303.516 46.291C303.224 45.6986 303.079 45.0104 303.079 44.2266C303.079 43.429 303.224 42.7329 303.516 42.1382C303.808 41.5435 304.214 41.082 304.736 40.7539C305.258 40.4258 305.865 40.2617 306.558 40.2617C307.255 40.2617 307.866 40.4258 308.39 40.7539C308.914 41.082 309.322 41.5435 309.614 42.1382C309.905 42.7329 310.051 43.429 310.051 44.2266C310.051 45.0104 309.905 45.6986 309.614 46.291C309.322 46.8835 308.914 47.3438 308.39 47.6719C307.866 48 307.255 48.1641 306.558 48.1641ZM306.558 47.0635C307.073 47.0635 307.497 46.9313 307.83 46.667C308.162 46.4027 308.408 46.0552 308.568 45.6245C308.727 45.1938 308.807 44.7279 308.807 44.2266C308.807 43.7207 308.727 43.2502 308.568 42.8149C308.408 42.3797 308.162 42.0288 307.83 41.7622C307.497 41.4956 307.073 41.3623 306.558 41.3623C306.048 41.3623 305.628 41.4956 305.3 41.7622C304.972 42.0288 304.728 42.3786 304.569 42.8115C304.409 43.2445 304.33 43.7161 304.33 44.2266C304.33 44.7279 304.409 45.1938 304.569 45.6245C304.728 46.0552 304.972 46.4027 305.3 46.667C305.628 46.9313 306.048 47.0635 306.558 47.0635ZM311.842 48V40.3574H313.032V41.5332H313.114C313.255 41.1458 313.507 40.8348 313.869 40.6001C314.231 40.3654 314.64 40.248 315.096 40.248C315.187 40.248 315.296 40.2503 315.421 40.2549C315.546 40.2594 315.645 40.264 315.718 40.2686V41.5059C315.682 41.4967 315.591 41.4831 315.445 41.4648C315.299 41.4466 315.144 41.4375 314.98 41.4375C314.615 41.4375 314.288 41.5138 313.999 41.6665C313.71 41.8192 313.483 42.0288 313.319 42.2954C313.155 42.562 313.073 42.8685 313.073 43.2148V48H311.842ZM319.745 48.1641C319.111 48.1641 318.551 48.0023 318.063 47.6787C317.575 47.3551 317.195 46.8971 316.921 46.3047C316.648 45.7122 316.511 45.0104 316.511 44.1992C316.511 43.3926 316.649 42.6942 316.925 42.104C317.2 41.5138 317.582 41.0592 318.07 40.7402C318.557 40.4212 319.118 40.2617 319.751 40.2617C320.248 40.2617 320.642 40.3438 320.934 40.5078C321.226 40.6719 321.45 40.8576 321.607 41.0649C321.765 41.2723 321.884 41.4443 321.966 41.5811H322.062V37.8145H323.292V48H322.103V46.8174H321.966C321.884 46.9587 321.762 47.1353 321.601 47.3472C321.439 47.5591 321.211 47.7482 320.917 47.9146C320.623 48.0809 320.232 48.1641 319.745 48.1641ZM319.929 47.0635C320.394 47.0635 320.786 46.9416 321.105 46.6978C321.424 46.4539 321.665 46.1156 321.83 45.6826C321.994 45.2497 322.076 44.7507 322.076 44.1855C322.076 43.6204 321.995 43.1271 321.833 42.7056C321.671 42.284 321.431 41.9548 321.112 41.7178C320.793 41.4808 320.399 41.3623 319.929 41.3623C319.446 41.3623 319.044 41.4876 318.723 41.7383C318.401 41.9889 318.161 42.3273 318.001 42.7534C317.842 43.1795 317.762 43.6569 317.762 44.1855C317.762 44.7188 317.843 45.203 318.005 45.6382C318.167 46.0734 318.409 46.4198 318.733 46.6772C319.056 46.9347 319.455 47.0635 319.929 47.0635ZM332.938 48.1641C332.455 48.1641 332.065 48.0809 331.769 47.9146C331.473 47.7482 331.245 47.5591 331.085 47.3472C330.926 47.1353 330.803 46.9587 330.716 46.8174H330.58V48H329.39V37.8145H330.621V41.5811H330.716C330.803 41.4443 330.924 41.2723 331.079 41.0649C331.234 40.8576 331.457 40.6719 331.749 40.5078C332.04 40.3438 332.434 40.2617 332.931 40.2617C333.569 40.2617 334.131 40.4212 334.616 40.7402C335.102 41.0592 335.482 41.5138 335.758 42.104C336.033 42.6942 336.171 43.3926 336.171 44.1992C336.171 45.0104 336.035 45.7122 335.761 46.3047C335.488 46.8971 335.108 47.3551 334.623 47.6787C334.138 48.0023 333.576 48.1641 332.938 48.1641ZM332.753 47.0635C333.232 47.0635 333.632 46.9347 333.953 46.6772C334.274 46.4198 334.516 46.0734 334.678 45.6382C334.839 45.203 334.92 44.7188 334.92 44.1855C334.92 43.6569 334.841 43.1795 334.681 42.7534C334.522 42.3273 334.281 41.9889 333.96 41.7383C333.639 41.4876 333.236 41.3623 332.753 41.3623C332.284 41.3623 331.89 41.4808 331.571 41.7178C331.252 41.9548 331.011 42.284 330.85 42.7056C330.688 43.1271 330.607 43.6204 330.607 44.1855C330.607 44.7507 330.689 45.2497 330.853 45.6826C331.017 46.1156 331.26 46.4539 331.581 46.6978C331.902 46.9416 332.293 47.0635 332.753 47.0635ZM341.175 48.1641C340.437 48.1641 339.8 48 339.265 47.6719C338.729 47.3438 338.317 46.8857 338.027 46.2979C337.738 45.71 337.593 45.0241 337.593 44.2402C337.593 43.4564 337.735 42.766 338.017 42.1689C338.3 41.5719 338.7 41.1048 339.217 40.7676C339.734 40.4303 340.339 40.2617 341.032 40.2617C341.437 40.2617 341.837 40.3289 342.231 40.4634C342.626 40.5978 342.983 40.8143 343.305 41.1128C343.626 41.4113 343.882 41.8044 344.074 42.292C344.265 42.7796 344.361 43.3766 344.361 44.083V44.5957H338.427V43.5566H343.698L343.124 43.9395C343.124 43.4382 343.045 42.9927 342.888 42.603C342.73 42.2134 342.497 41.908 342.187 41.687C341.877 41.466 341.492 41.3555 341.032 41.3555C340.571 41.3555 340.177 41.4683 339.849 41.6938C339.521 41.9194 339.27 42.2134 339.097 42.5757C338.924 42.938 338.837 43.3265 338.837 43.7412V44.4316C338.837 44.9967 338.935 45.4764 339.131 45.8706C339.327 46.2648 339.602 46.5633 339.955 46.7661C340.308 46.9689 340.717 47.0703 341.182 47.0703C341.483 47.0703 341.756 47.027 342.002 46.9404C342.249 46.8538 342.46 46.7228 342.638 46.5474C342.816 46.3719 342.953 46.1543 343.048 45.8945L344.238 46.2227C344.119 46.6055 343.919 46.9427 343.636 47.2344C343.354 47.526 343.004 47.7539 342.587 47.918C342.17 48.082 341.699 48.1641 341.175 48.1641ZM347.355 37.8145V48H346.124V37.8145H347.355ZM352.625 48.1641C351.933 48.1641 351.325 48 350.804 47.6719C350.282 47.3438 349.875 46.8835 349.583 46.291C349.292 45.6986 349.146 45.0104 349.146 44.2266C349.146 43.429 349.292 42.7329 349.583 42.1382C349.875 41.5435 350.282 41.082 350.804 40.7539C351.325 40.4258 351.933 40.2617 352.625 40.2617C353.323 40.2617 353.933 40.4258 354.457 40.7539C354.982 41.082 355.389 41.5435 355.681 42.1382C355.973 42.7329 356.119 43.429 356.119 44.2266C356.119 45.0104 355.973 45.6986 355.681 46.291C355.389 46.8835 354.982 47.3438 354.457 47.6719C353.933 48 353.323 48.1641 352.625 48.1641ZM352.625 47.0635C353.14 47.0635 353.564 46.9313 353.897 46.667C354.23 46.4027 354.476 46.0552 354.635 45.6245C354.795 45.1938 354.874 44.7279 354.874 44.2266C354.874 43.7207 354.795 43.2502 354.635 42.8149C354.476 42.3797 354.23 42.0288 353.897 41.7622C353.564 41.4956 353.14 41.3623 352.625 41.3623C352.115 41.3623 351.696 41.4956 351.368 41.7622C351.04 42.0288 350.796 42.3786 350.636 42.8115C350.477 43.2445 350.397 43.7161 350.397 44.2266C350.397 44.7279 350.477 45.1938 350.636 45.6245C350.796 46.0552 351.04 46.4027 351.368 46.667C351.696 46.9313 352.115 47.0635 352.625 47.0635ZM359.373 48L357.055 40.3574H358.361L359.29 43.6934C359.418 44.1491 359.555 44.6652 359.701 45.2417C359.846 45.8182 359.99 46.471 360.131 47.2002H359.919C360.056 46.5029 360.195 45.8649 360.336 45.2861C360.478 44.7074 360.614 44.1764 360.747 43.6934L361.663 40.3574H362.975L363.877 43.6934C364.005 44.1628 364.138 44.6857 364.277 45.2622C364.416 45.8387 364.554 46.4847 364.691 47.2002H364.472C364.618 46.4938 364.763 45.8524 364.906 45.2759C365.05 44.6994 365.188 44.1719 365.32 43.6934L366.249 40.3574H367.555L365.238 48H364.014L363.023 44.541C362.923 44.1901 362.825 43.8324 362.729 43.4678C362.633 43.1032 362.54 42.7295 362.449 42.3467C362.358 41.9639 362.264 41.5742 362.168 41.1777H362.442C362.351 41.5697 362.258 41.9582 362.165 42.3433C362.072 42.7284 361.977 43.1055 361.881 43.4746C361.786 43.8438 361.688 44.1992 361.587 44.541L360.596 48H359.373ZM369.018 48.0889C368.763 48.0889 368.545 47.9989 368.365 47.8188C368.185 47.6388 368.095 47.4212 368.095 47.166C368.095 46.9108 368.185 46.6932 368.365 46.5132C368.545 46.3332 368.763 46.2432 369.018 46.2432C369.273 46.2432 369.491 46.3332 369.671 46.5132C369.851 46.6932 369.941 46.9108 369.941 47.166C369.941 47.4212 369.851 47.6388 369.671 47.8188C369.491 47.9989 369.273 48.0889 369.018 48.0889Z" fill="#64748B"/>
</svg>
