<svg width="420" height="72" viewBox="0 0 420 72" fill="none" xmlns="http://www.w3.org/2000/svg">
<rect x="12" y="2" width="396" height="48" rx="12.8" fill="#FF8C61"/>
<g filter="url(#filter0_dd_205_1772)">
<rect x="12" y="2" width="396" height="48" rx="12.8" fill="white" fill-opacity="0.01" shape-rendering="crispEdges"/>
</g>
<path d="M148.669 32V20.3594H153.211C154.094 20.3594 154.846 20.5157 155.466 20.8284C156.085 21.1411 156.558 21.5817 156.884 22.1501C157.21 22.7185 157.373 23.3842 157.373 24.1472C157.373 24.9159 157.208 25.5771 156.878 26.1308C156.548 26.6846 156.068 27.1091 155.44 27.4043C154.812 27.6996 154.05 27.8472 153.155 27.8472H150.08V25.9151H152.777C153.262 25.9151 153.662 25.8485 153.977 25.7152C154.291 25.5819 154.526 25.3844 154.681 25.1226C154.836 24.8608 154.914 24.5356 154.914 24.1472C154.914 23.754 154.836 23.4227 154.681 23.1532C154.526 22.8838 154.291 22.6787 153.975 22.5378C153.659 22.3969 153.257 22.3265 152.77 22.3265H151.057V32H148.669ZM155.146 32L152.316 26.703H154.9L157.793 32H155.146ZM162.878 32.1706C161.987 32.1706 161.218 31.988 160.572 31.6229C159.927 31.2577 159.431 30.7392 159.085 30.0673C158.738 29.3955 158.565 28.599 158.565 27.6778C158.565 26.7792 158.737 25.9908 159.081 25.3127C159.425 24.6347 159.912 24.1057 160.541 23.7259C161.17 23.3461 161.91 23.1562 162.761 23.1562C163.331 23.1562 163.864 23.2471 164.36 23.4289C164.855 23.6107 165.29 23.8848 165.664 24.2513C166.038 24.6177 166.331 25.0782 166.541 25.6327C166.751 26.1871 166.857 26.8385 166.857 27.5867V28.2444H159.527V26.77H165.715L164.62 27.1653C164.62 26.7105 164.55 26.3153 164.411 25.9797C164.272 25.6441 164.067 25.3837 163.794 25.1986C163.522 25.0135 163.183 24.921 162.778 24.921C162.372 24.921 162.029 25.0147 161.747 25.2022C161.464 25.3897 161.25 25.6441 161.102 25.9653C160.955 26.2866 160.882 26.6518 160.882 27.0611V28.0991C160.882 28.6043 160.966 29.0287 161.135 29.3723C161.304 29.716 161.542 29.9741 161.849 30.1468C162.155 30.3195 162.511 30.4059 162.916 30.4059C163.189 30.4059 163.438 30.367 163.661 30.2891C163.885 30.2112 164.077 30.096 164.238 29.9433C164.399 29.7905 164.521 29.6023 164.606 29.3786L166.724 29.7705C166.583 30.253 166.339 30.6742 165.99 31.0343C165.642 31.3943 165.206 31.6737 164.682 31.8725C164.157 32.0712 163.556 32.1706 162.878 32.1706ZM171.93 32.1706C171.227 32.1706 170.605 32.07 170.062 31.8688C169.52 31.6676 169.078 31.3762 168.735 30.9944C168.392 30.6127 168.17 30.1522 168.069 29.6128L170.253 29.2376C170.366 29.6437 170.566 29.9481 170.852 30.151C171.138 30.3538 171.52 30.4553 171.999 30.4553C172.445 30.4553 172.798 30.3701 173.057 30.1997C173.316 30.0293 173.446 29.8136 173.446 29.5527C173.446 29.3237 173.354 29.1364 173.17 28.9907C172.986 28.845 172.701 28.7326 172.317 28.6533L170.813 28.3433C169.971 28.1699 169.341 27.8767 168.925 27.4638C168.509 27.0508 168.301 26.5174 168.301 25.8634C168.301 25.3044 168.453 24.8229 168.758 24.419C169.063 24.0151 169.49 23.7036 170.039 23.4847C170.588 23.2657 171.23 23.1562 171.965 23.1562C172.657 23.1562 173.255 23.2517 173.76 23.4427C174.266 23.6336 174.674 23.9028 174.984 24.2502C175.295 24.5977 175.504 25.0095 175.612 25.4856L173.533 25.8517C173.441 25.5533 173.269 25.3095 173.017 25.1204C172.766 24.9313 172.427 24.8368 172.003 24.8368C171.617 24.8368 171.294 24.9179 171.033 25.0801C170.772 25.2423 170.642 25.4565 170.642 25.7227C170.642 25.9415 170.726 26.1268 170.895 26.2785C171.063 26.4302 171.353 26.5491 171.765 26.6351L173.334 26.9476C174.179 27.1183 174.808 27.3981 175.221 27.7871C175.633 28.1761 175.84 28.6827 175.84 29.307C175.84 29.8793 175.672 30.3801 175.338 30.8095C175.004 31.2389 174.544 31.5731 173.957 31.8121C173.369 32.0511 172.694 32.1706 171.93 32.1706ZM181.371 32.1706C180.479 32.1706 179.71 31.988 179.065 31.6229C178.419 31.2577 177.923 30.7392 177.577 30.0673C177.231 29.3955 177.057 28.599 177.057 27.6778C177.057 26.7792 177.229 25.9908 177.573 25.3127C177.917 24.6347 178.404 24.1057 179.033 23.7259C179.662 23.3461 180.402 23.1562 181.253 23.1562C181.823 23.1562 182.356 23.2471 182.852 23.4289C183.347 23.6107 183.782 23.8848 184.156 24.2513C184.531 24.6177 184.823 25.0782 185.033 25.6327C185.244 26.1871 185.349 26.8385 185.349 27.5867V28.2444H178.019V26.77H184.207L183.112 27.1653C183.112 26.7105 183.042 26.3153 182.904 25.9797C182.765 25.6441 182.559 25.3837 182.286 25.1986C182.014 25.0135 181.675 24.921 181.27 24.921C180.865 24.921 180.521 25.0147 180.239 25.2022C179.957 25.3897 179.742 25.6441 179.595 25.9653C179.447 26.2866 179.374 26.6518 179.374 27.0611V28.0991C179.374 28.6043 179.458 29.0287 179.627 29.3723C179.797 29.716 180.034 29.9741 180.341 30.1468C180.648 30.3195 181.003 30.4059 181.408 30.4059C181.681 30.4059 181.93 30.367 182.153 30.2891C182.377 30.2112 182.569 30.096 182.73 29.9433C182.891 29.7905 183.014 29.6023 183.098 29.3786L185.217 29.7705C185.075 30.253 184.831 30.6742 184.483 31.0343C184.134 31.3943 183.698 31.6737 183.174 31.8725C182.649 32.0712 182.048 32.1706 181.371 32.1706ZM191.292 23.2656V25.051H186.11V23.2656H191.292ZM187.312 21.1875H189.655V29.4433C189.655 29.7214 189.717 29.9264 189.841 30.0582C189.965 30.1901 190.168 30.2561 190.45 30.2561C190.542 30.2561 190.668 30.2449 190.828 30.2227C190.989 30.2005 191.111 30.1789 191.194 30.1581L191.53 31.9152C191.269 31.9926 191.01 32.0464 190.753 32.0766C190.497 32.1069 190.25 32.122 190.015 32.122C189.138 32.122 188.469 31.9095 188.006 31.4843C187.544 31.0591 187.312 30.4476 187.312 29.6497V21.1875ZM196.654 32V20.3594H201.195C202.079 20.3594 202.83 20.5276 203.45 20.8639C204.07 21.2003 204.543 21.664 204.869 22.255C205.195 22.846 205.358 23.5245 205.358 24.2903C205.358 25.059 205.193 25.7365 204.862 26.3229C204.532 26.9093 204.053 27.3685 203.424 27.7004C202.796 28.0323 202.034 28.1983 201.139 28.1983H198.222V26.2734H200.761C201.246 26.2734 201.647 26.189 201.963 26.0203C202.279 25.8516 202.514 25.618 202.667 25.3198C202.821 25.0215 202.898 24.6783 202.898 24.2903C202.898 23.8967 202.821 23.5526 202.667 23.2582C202.514 22.9637 202.278 22.7348 201.961 22.5714C201.644 22.4081 201.242 22.3265 200.754 22.3265H199.041V32H196.654ZM209.205 32.1694C208.65 32.1694 208.153 32.0715 207.714 31.8759C207.275 31.6802 206.929 31.3889 206.678 31.0019C206.426 30.6149 206.3 30.1335 206.3 29.5578C206.3 29.0691 206.389 28.6614 206.568 28.3348C206.746 28.0083 206.99 27.7453 207.299 27.5459C207.609 27.3466 207.961 27.1949 208.355 27.0909C208.749 26.9868 209.162 26.9144 209.593 26.8736C210.097 26.8228 210.504 26.7749 210.814 26.73C211.124 26.6851 211.351 26.6149 211.496 26.5193C211.641 26.4237 211.713 26.2818 211.713 26.0936V26.0552C211.713 25.8059 211.66 25.595 211.554 25.4226C211.448 25.2502 211.294 25.118 211.09 25.0262C210.887 24.9344 210.637 24.8885 210.341 24.8885C210.042 24.8885 209.781 24.9339 209.557 25.0247C209.333 25.1155 209.15 25.2368 209.007 25.3885C208.865 25.5403 208.762 25.7106 208.699 25.8997L206.55 25.543C206.698 25.0342 206.947 24.6027 207.296 24.2484C207.645 23.8941 208.079 23.6234 208.598 23.4366C209.117 23.2497 209.7 23.1562 210.348 23.1562C210.817 23.1562 211.273 23.2118 211.715 23.3229C212.158 23.434 212.555 23.6078 212.907 23.8442C213.259 24.0807 213.539 24.3865 213.746 24.7616C213.952 25.1367 214.056 25.5894 214.056 26.1198V32H211.833V30.7872H211.757C211.615 31.0578 211.428 31.297 211.194 31.5047C210.959 31.7124 210.678 31.8751 210.348 31.9928C210.019 32.1105 209.638 32.1694 209.205 32.1694ZM209.865 30.5264C210.234 30.5264 210.558 30.4529 210.837 30.3061C211.116 30.1592 211.335 29.961 211.493 29.7114C211.651 29.4618 211.73 29.1839 211.73 28.8775V27.9324C211.659 27.9804 211.553 28.0254 211.414 28.0674C211.275 28.1095 211.119 28.1471 210.948 28.1803C210.776 28.2136 210.607 28.2424 210.44 28.2668C210.273 28.2912 210.125 28.3127 209.995 28.3311C209.707 28.37 209.454 28.436 209.235 28.5291C209.017 28.6222 208.848 28.7467 208.727 28.9027C208.606 29.0586 208.545 29.254 208.545 29.4889C208.545 29.715 208.602 29.9051 208.717 30.059C208.831 30.2129 208.986 30.3292 209.184 30.4081C209.382 30.4869 209.609 30.5264 209.865 30.5264ZM219.524 32.1706C218.821 32.1706 218.198 32.07 217.656 31.8688C217.114 31.6676 216.672 31.3762 216.329 30.9944C215.986 30.6127 215.764 30.1522 215.662 29.6128L217.846 29.2376C217.96 29.6437 218.16 29.9481 218.446 30.151C218.732 30.3538 219.114 30.4553 219.593 30.4553C220.039 30.4553 220.392 30.3701 220.651 30.1997C220.91 30.0293 221.04 29.8136 221.04 29.5527C221.04 29.3237 220.948 29.1364 220.764 28.9907C220.579 28.845 220.295 28.7326 219.911 28.6533L218.407 28.3433C217.564 28.1699 216.935 27.8767 216.519 27.4638C216.102 27.0508 215.894 26.5174 215.894 25.8634C215.894 25.3044 216.047 24.8229 216.352 24.419C216.657 24.0151 217.084 23.7036 217.633 23.4847C218.182 23.2657 218.824 23.1562 219.559 23.1562C220.251 23.1562 220.849 23.2517 221.354 23.4427C221.859 23.6336 222.267 23.9028 222.578 24.2502C222.889 24.5977 223.098 25.0095 223.206 25.4856L221.127 25.8517C221.035 25.5533 220.863 25.3095 220.611 25.1204C220.359 24.9313 220.021 24.8368 219.596 24.8368C219.211 24.8368 218.887 24.9179 218.627 25.0801C218.366 25.2423 218.236 25.4565 218.236 25.7227C218.236 25.9415 218.32 26.1268 218.488 26.2785C218.657 26.4302 218.947 26.5491 219.359 26.6351L220.928 26.9476C221.773 27.1183 222.402 27.3981 222.814 27.7871C223.227 28.1761 223.433 28.6827 223.433 29.307C223.433 29.8793 223.266 30.3801 222.932 30.8095C222.598 31.2389 222.137 31.5731 221.55 31.8121C220.963 32.0511 220.288 32.1706 219.524 32.1706ZM228.485 32.1706C227.782 32.1706 227.159 32.07 226.617 31.8688C226.075 31.6676 225.633 31.3762 225.29 30.9944C224.947 30.6127 224.725 30.1522 224.623 29.6128L226.807 29.2376C226.921 29.6437 227.121 29.9481 227.407 30.151C227.693 30.3538 228.075 30.4553 228.554 30.4553C229 30.4553 229.353 30.3701 229.612 30.1997C229.871 30.0293 230.001 29.8136 230.001 29.5527C230.001 29.3237 229.909 29.1364 229.725 28.9907C229.54 28.845 229.256 28.7326 228.871 28.6533L227.368 28.3433C226.525 28.1699 225.896 27.8767 225.48 27.4638C225.063 27.0508 224.855 26.5174 224.855 25.8634C224.855 25.3044 225.008 24.8229 225.313 24.419C225.618 24.0151 226.045 23.7036 226.594 23.4847C227.143 23.2657 227.785 23.1562 228.52 23.1562C229.212 23.1562 229.81 23.2517 230.315 23.4427C230.82 23.6336 231.228 23.9028 231.539 24.2502C231.85 24.5977 232.059 25.0095 232.167 25.4856L230.088 25.8517C229.996 25.5533 229.824 25.3095 229.572 25.1204C229.32 24.9313 228.982 24.8368 228.557 24.8368C228.171 24.8368 227.848 24.9179 227.588 25.0801C227.327 25.2423 227.197 25.4565 227.197 25.7227C227.197 25.9415 227.281 26.1268 227.449 26.2785C227.618 26.4302 227.908 26.5491 228.32 26.6351L229.889 26.9476C230.734 27.1183 231.363 27.3981 231.775 27.7871C232.188 28.1761 232.394 28.6827 232.394 29.307C232.394 29.8793 232.227 30.3801 231.893 30.8095C231.559 31.2389 231.098 31.5731 230.511 31.8121C229.924 32.0511 229.249 32.1706 228.485 32.1706ZM235.797 32L233.22 23.2656H235.678L236.437 26.4959C236.566 27.073 236.706 27.7015 236.857 28.3815C237.008 29.0614 237.148 29.8124 237.276 30.6345H237.008C237.145 29.8292 237.294 29.0853 237.455 28.4027C237.617 27.7201 237.767 27.0845 237.907 26.4959L238.705 23.2656H240.863L241.637 26.4959C241.772 27.0802 241.92 27.7123 242.081 28.3922C242.243 29.0722 242.392 29.8196 242.529 30.6345H242.266C242.393 29.8244 242.528 29.0794 242.671 28.3994C242.814 27.7195 242.952 27.085 243.083 26.4959L243.842 23.2656H246.334L243.74 32H241.359L240.39 28.6291C240.296 28.2956 240.201 27.924 240.107 27.5143C240.013 27.1047 239.922 26.6875 239.833 26.2626C239.745 25.8378 239.654 25.441 239.562 25.0723H239.975C239.888 25.4386 239.799 25.8348 239.707 26.2608C239.616 26.6869 239.524 27.1059 239.432 27.5179C239.339 27.93 239.244 28.3004 239.146 28.6291L238.178 32H235.797ZM251.267 32.1706C250.391 32.1706 249.633 31.9824 248.993 31.606C248.353 31.2296 247.86 30.7036 247.514 30.0279C247.168 29.3522 246.995 28.5665 246.995 27.6706C246.995 26.7676 247.168 25.9777 247.514 25.3008C247.86 24.6239 248.353 24.0973 248.993 23.7209C249.633 23.3445 250.391 23.1562 251.267 23.1562C252.145 23.1562 252.904 23.3445 253.542 23.7209C254.18 24.0973 254.672 24.6239 255.018 25.3008C255.364 25.9777 255.537 26.7676 255.537 27.6706C255.537 28.5665 255.364 29.3522 255.018 30.0279C254.672 30.7036 254.18 31.2296 253.542 31.606C252.904 31.9824 252.145 32.1706 251.267 32.1706ZM251.267 30.3264C251.684 30.3264 252.032 30.2105 252.313 29.9787C252.593 29.7469 252.803 29.43 252.943 29.0278C253.084 28.6256 253.154 28.1704 253.154 27.6622C253.154 27.1488 253.084 26.6919 252.943 26.2915C252.803 25.8911 252.593 25.5759 252.313 25.3457C252.032 25.1156 251.684 25.0005 251.267 25.0005C250.849 25.0005 250.501 25.1156 250.222 25.3457C249.942 25.5759 249.733 25.8905 249.592 26.2897C249.452 26.6889 249.382 27.1464 249.382 27.6622C249.382 28.1704 249.452 28.6256 249.592 29.0278C249.733 29.43 249.942 29.7469 250.222 29.9787C250.501 30.2105 250.849 30.3264 251.267 30.3264ZM257.17 32V23.2656H259.441V24.7866H259.535C259.693 24.2482 259.961 23.8407 260.339 23.5641C260.716 23.2874 261.15 23.1491 261.64 23.1491C261.761 23.1491 261.891 23.1559 262.03 23.1695C262.169 23.1832 262.291 23.2025 262.397 23.2273V25.3207C262.294 25.2849 262.142 25.256 261.943 25.2337C261.744 25.2115 261.558 25.2004 261.385 25.2004C261.027 25.2004 260.706 25.2778 260.422 25.4325C260.138 25.5873 259.915 25.8016 259.754 26.0754C259.593 26.3491 259.513 26.667 259.513 27.0291V32H257.17ZM266.488 32.1453C265.821 32.1453 265.217 31.9724 264.678 31.6265C264.139 31.2806 263.714 30.7733 263.401 30.1047C263.089 29.436 262.932 28.6171 262.932 27.6478C262.932 26.6528 263.093 25.8223 263.416 25.1562C263.738 24.4902 264.168 23.9904 264.705 23.6567C265.243 23.3231 265.833 23.1562 266.475 23.1562C266.97 23.1562 267.382 23.2395 267.711 23.4059C268.04 23.5723 268.306 23.7775 268.508 24.0215C268.71 24.2655 268.862 24.5036 268.964 24.7358H269.04V20.3594H271.383V32H269.078V30.602H268.964C268.856 30.8366 268.7 31.0722 268.494 31.3088C268.288 31.5453 268.022 31.7439 267.695 31.9045C267.369 32.065 266.967 32.1453 266.488 32.1453ZM267.21 30.2673C267.609 30.2673 267.949 30.1575 268.229 29.9379C268.509 29.7183 268.722 29.4118 268.869 29.0183C269.016 28.6247 269.089 28.1655 269.089 27.6406C269.089 27.1101 269.017 26.6504 268.871 26.2614C268.725 25.8725 268.513 25.5707 268.232 25.3561C267.952 25.1416 267.611 25.0343 267.21 25.0343C266.801 25.0343 266.458 25.1451 266.179 25.3669C265.901 25.5887 265.69 25.8952 265.549 26.2866C265.407 26.6779 265.337 27.1293 265.337 27.6406C265.337 28.1516 265.408 28.6051 265.551 29.0012C265.693 29.3974 265.905 29.7074 266.184 29.9314C266.464 30.1553 266.806 30.2673 267.21 30.2673Z" fill="white"/>
<defs>
<filter id="filter0_dd_205_1772" x="0" y="0" width="420" height="72" filterUnits="userSpaceOnUse" color-interpolation-filters="sRGB">
<feFlood flood-opacity="0" result="BackgroundImageFix"/>
<feColorMatrix in="SourceAlpha" type="matrix" values="0 0 0 0 0 0 0 0 0 0 0 0 0 0 0 0 0 0 127 0" result="hardAlpha"/>
<feMorphology radius="4" operator="erode" in="SourceAlpha" result="effect1_dropShadow_205_1772"/>
<feOffset dy="4"/>
<feGaussianBlur stdDeviation="3"/>
<feComposite in2="hardAlpha" operator="out"/>
<feColorMatrix type="matrix" values="0 0 0 0 1 0 0 0 0 0.54902 0 0 0 0 0.380392 0 0 0 0.3 0"/>
<feBlend mode="normal" in2="BackgroundImageFix" result="effect1_dropShadow_205_1772"/>
<feColorMatrix in="SourceAlpha" type="matrix" values="0 0 0 0 0 0 0 0 0 0 0 0 0 0 0 0 0 0 127 0" result="hardAlpha"/>
<feMorphology radius="3" operator="erode" in="SourceAlpha" result="effect2_dropShadow_205_1772"/>
<feOffset dy="10"/>
<feGaussianBlur stdDeviation="7.5"/>
<feComposite in2="hardAlpha" operator="out"/>
<feColorMatrix type="matrix" values="0 0 0 0 1 0 0 0 0 0.54902 0 0 0 0 0.380392 0 0 0 0.3 0"/>
<feBlend mode="normal" in2="effect1_dropShadow_205_1772" result="effect2_dropShadow_205_1772"/>
<feBlend mode="normal" in="SourceGraphic" in2="effect2_dropShadow_205_1772" result="shape"/>
</filter>
</defs>
</svg>
