<svg width="13" height="17" viewBox="0 0 13 17" fill="none" xmlns="http://www.w3.org/2000/svg">
<path d="M4.08105 15.4902V2.32422H4.90137V15.4902H4.08105ZM4.49121 14.1777C3.75749 14.1777 3.12061 14.0592 2.58057 13.8223C2.04053 13.5853 1.61784 13.2537 1.3125 12.8276C1.00716 12.4015 0.833984 11.9036 0.792969 11.334H2.12598C2.16243 11.7168 2.29232 12.0324 2.51562 12.2808C2.73893 12.5291 3.0249 12.7137 3.37354 12.8345C3.72217 12.9552 4.09473 13.0156 4.49121 13.0156C4.9515 13.0156 5.36507 12.9404 5.73193 12.79C6.0988 12.6396 6.38932 12.4277 6.60352 12.1543C6.81771 11.8809 6.9248 11.5641 6.9248 11.2041C6.9248 10.876 6.83252 10.6094 6.64795 10.4043C6.46338 10.1992 6.21842 10.0306 5.91309 9.89844C5.60775 9.76628 5.27279 9.65007 4.9082 9.5498L3.67773 9.20117C2.85742 8.96875 2.2194 8.63607 1.76367 8.20312C1.30794 7.77018 1.08008 7.21647 1.08008 6.54199C1.08008 5.96777 1.23503 5.46533 1.54492 5.03467C1.85482 4.604 2.27409 4.27018 2.80273 4.0332C3.33138 3.79622 3.92383 3.67773 4.58008 3.67773C5.25 3.67773 5.84245 3.79622 6.35742 4.0332C6.8724 4.27018 7.27913 4.59261 7.57764 5.00049C7.87614 5.40837 8.03451 5.86979 8.05273 6.38477H6.78125C6.72201 5.88802 6.48503 5.50407 6.07031 5.23291C5.6556 4.96175 5.14518 4.82617 4.53906 4.82617C4.10156 4.82617 3.71761 4.89795 3.38721 5.0415C3.0568 5.18506 2.80046 5.38102 2.61816 5.62939C2.43587 5.87777 2.34473 6.16146 2.34473 6.48047C2.34473 6.83594 2.45524 7.12191 2.67627 7.33838C2.8973 7.55485 3.15934 7.72347 3.4624 7.84424C3.76546 7.96501 4.04004 8.05957 4.28613 8.12793L5.30469 8.4082C5.57812 8.48112 5.88005 8.58138 6.21045 8.70898C6.54085 8.83659 6.85645 9.00635 7.15723 9.21826C7.45801 9.43018 7.70524 9.69906 7.89893 10.0249C8.09261 10.3507 8.18945 10.7507 8.18945 11.2246C8.18945 11.7806 8.04476 12.2819 7.75537 12.7285C7.46598 13.1751 7.04557 13.5283 6.49414 13.7881C5.94271 14.0479 5.27507 14.1777 4.49121 14.1777Z" fill="#8A9198"/>
</svg>
