<svg width="114" height="40" viewBox="0 0 114 40" fill="none" xmlns="http://www.w3.org/2000/svg">
<rect x="0.5" y="0.5" width="112.32" height="39" rx="5.5" stroke="black" stroke-opacity="0.08"/>
<path d="M17.0811 26.9902V13.8242H17.9014V26.9902H17.0811ZM17.4912 25.6777C16.7575 25.6777 16.1206 25.5592 15.5806 25.3223C15.0405 25.0853 14.6178 24.7537 14.3125 24.3276C14.0072 23.9015 13.834 23.4036 13.793 22.834H15.126C15.1624 23.2168 15.2923 23.5324 15.5156 23.7808C15.7389 24.0291 16.0249 24.2137 16.3735 24.3345C16.7222 24.4552 17.0947 24.5156 17.4912 24.5156C17.9515 24.5156 18.3651 24.4404 18.7319 24.29C19.0988 24.1396 19.3893 23.9277 19.6035 23.6543C19.8177 23.3809 19.9248 23.0641 19.9248 22.7041C19.9248 22.376 19.8325 22.1094 19.6479 21.9043C19.4634 21.6992 19.2184 21.5306 18.9131 21.3984C18.6077 21.2663 18.2728 21.1501 17.9082 21.0498L16.6777 20.7012C15.8574 20.4688 15.2194 20.1361 14.7637 19.7031C14.3079 19.2702 14.0801 18.7165 14.0801 18.042C14.0801 17.4678 14.235 16.9653 14.5449 16.5347C14.8548 16.104 15.2741 15.7702 15.8027 15.5332C16.3314 15.2962 16.9238 15.1777 17.5801 15.1777C18.25 15.1777 18.8424 15.2962 19.3574 15.5332C19.8724 15.7702 20.2791 16.0926 20.5776 16.5005C20.8761 16.9084 21.0345 17.3698 21.0527 17.8848H19.7812C19.722 17.388 19.485 17.0041 19.0703 16.7329C18.6556 16.4618 18.1452 16.3262 17.5391 16.3262C17.1016 16.3262 16.7176 16.3979 16.3872 16.5415C16.0568 16.6851 15.8005 16.881 15.6182 17.1294C15.4359 17.3778 15.3447 17.6615 15.3447 17.9805C15.3447 18.3359 15.4552 18.6219 15.6763 18.8384C15.8973 19.0549 16.1593 19.2235 16.4624 19.3442C16.7655 19.465 17.04 19.5596 17.2861 19.6279L18.3047 19.9082C18.5781 19.9811 18.88 20.0814 19.2104 20.209C19.5409 20.3366 19.8564 20.5063 20.1572 20.7183C20.458 20.9302 20.7052 21.1991 20.8989 21.5249C21.0926 21.8507 21.1895 22.2507 21.1895 22.7246C21.1895 23.2806 21.0448 23.7819 20.7554 24.2285C20.466 24.6751 20.0456 25.0283 19.4941 25.2881C18.9427 25.5479 18.2751 25.6777 17.4912 25.6777Z" fill="#8A9198"/>
</svg>
