<svg width="250" height="19" viewBox="0 0 250 19" fill="none" xmlns="http://www.w3.org/2000/svg">
<path d="M1.14773 15V3.36364H5.51136C6.4053 3.36364 7.1553 3.5303 7.76136 3.86364C8.37121 4.19697 8.83144 4.6553 9.14205 5.23864C9.45644 5.81818 9.61364 6.47727 9.61364 7.21591C9.61364 7.96212 9.45644 8.625 9.14205 9.20455C8.82765 9.78409 8.36364 10.2405 7.75 10.5739C7.13636 10.9034 6.38068 11.0682 5.48295 11.0682H2.59091V9.33523H5.19886C5.72159 9.33523 6.14962 9.24432 6.48295 9.0625C6.81629 8.88068 7.0625 8.63068 7.22159 8.3125C7.38447 7.99432 7.46591 7.62879 7.46591 7.21591C7.46591 6.80303 7.38447 6.43939 7.22159 6.125C7.0625 5.81061 6.81439 5.56629 6.47727 5.39205C6.14394 5.21402 5.71402 5.125 5.1875 5.125H3.25568V15H1.14773ZM11.3537 15V6.27273H13.348V7.72727H13.4389C13.598 7.22348 13.8707 6.83523 14.2571 6.5625C14.6473 6.28598 15.0923 6.14773 15.5923 6.14773C15.706 6.14773 15.8329 6.15341 15.973 6.16477C16.117 6.17235 16.2363 6.18561 16.331 6.20455V8.09659C16.2438 8.06629 16.1056 8.03977 15.9162 8.01705C15.7306 7.99053 15.5507 7.97727 15.3764 7.97727C15.0014 7.97727 14.6643 8.05871 14.3651 8.22159C14.0696 8.38068 13.8366 8.60227 13.6662 8.88636C13.4957 9.17045 13.4105 9.49811 13.4105 9.86932V15H11.3537ZM17.6974 15V6.27273H19.7543V15H17.6974ZM18.7315 5.03409C18.4058 5.03409 18.1255 4.92614 17.8906 4.71023C17.6558 4.49053 17.5384 4.22727 17.5384 3.92045C17.5384 3.60985 17.6558 3.34659 17.8906 3.13068C18.1255 2.91098 18.4058 2.80114 18.7315 2.80114C19.0611 2.80114 19.3414 2.91098 19.5724 3.13068C19.8073 3.34659 19.9247 3.60985 19.9247 3.92045C19.9247 4.22727 19.8073 4.49053 19.5724 4.71023C19.3414 4.92614 19.0611 5.03409 18.7315 5.03409ZM25.6761 15.1705C24.8049 15.1705 24.0568 14.9792 23.4318 14.5966C22.8106 14.214 22.3314 13.6856 21.9943 13.0114C21.661 12.3333 21.4943 11.553 21.4943 10.6705C21.4943 9.78409 21.6648 9.00189 22.0057 8.32386C22.3466 7.64205 22.8277 7.11174 23.4489 6.73295C24.0739 6.35038 24.8125 6.15909 25.6648 6.15909C26.3731 6.15909 27 6.28977 27.5455 6.55114C28.0947 6.80871 28.5322 7.17424 28.858 7.64773C29.1837 8.11742 29.3693 8.66667 29.4148 9.29545H27.4489C27.3693 8.875 27.1799 8.52462 26.8807 8.24432C26.5852 7.96023 26.1894 7.81818 25.6932 7.81818C25.2727 7.81818 24.9034 7.93182 24.5852 8.15909C24.267 8.38258 24.0189 8.70455 23.8409 9.125C23.6667 9.54545 23.5795 10.0492 23.5795 10.6364C23.5795 11.2311 23.6667 11.7424 23.8409 12.1705C24.0152 12.5947 24.2595 12.9223 24.5739 13.1534C24.892 13.3807 25.2652 13.4943 25.6932 13.4943C25.9962 13.4943 26.267 13.4375 26.5057 13.3239C26.7481 13.2064 26.9508 13.0379 27.1136 12.8182C27.2765 12.5985 27.3883 12.3314 27.4489 12.017H29.4148C29.3655 12.6345 29.1837 13.1818 28.8693 13.6591C28.5549 14.1326 28.1269 14.5038 27.5852 14.7727C27.0436 15.0379 26.4072 15.1705 25.6761 15.1705ZM34.9673 15.1705C34.0923 15.1705 33.3366 14.9886 32.7003 14.625C32.0677 14.2576 31.581 13.7386 31.2401 13.0682C30.8991 12.3939 30.7287 11.6004 30.7287 10.6875C30.7287 9.78977 30.8991 9.00189 31.2401 8.32386C31.5848 7.64205 32.0658 7.11174 32.6832 6.73295C33.3007 6.35038 34.026 6.15909 34.8594 6.15909C35.3973 6.15909 35.9048 6.24621 36.3821 6.42045C36.8632 6.59091 37.2874 6.85606 37.6548 7.21591C38.026 7.57576 38.3177 8.03409 38.5298 8.59091C38.742 9.14394 38.848 9.80303 38.848 10.5682V11.1989H31.6946V9.8125H36.8764C36.8726 9.41856 36.7874 9.06818 36.6207 8.76136C36.4541 8.45076 36.2211 8.20644 35.9219 8.02841C35.6264 7.85038 35.2817 7.76136 34.8878 7.76136C34.4673 7.76136 34.098 7.86364 33.7798 8.06818C33.4616 8.26894 33.2135 8.53409 33.0355 8.86364C32.8613 9.18939 32.7723 9.54735 32.7685 9.9375V11.1477C32.7685 11.6553 32.8613 12.0909 33.0469 12.4545C33.2325 12.8144 33.492 13.0909 33.8253 13.2841C34.1586 13.4735 34.5488 13.5682 34.9957 13.5682C35.295 13.5682 35.5658 13.5265 35.8082 13.4432C36.0507 13.3561 36.2609 13.2292 36.4389 13.0625C36.617 12.8958 36.7514 12.6894 36.8423 12.4432L38.7628 12.6591C38.6416 13.1667 38.4105 13.6098 38.0696 13.9886C37.7325 14.3636 37.3007 14.6553 36.7741 14.8636C36.2476 15.0682 35.6454 15.1705 34.9673 15.1705ZM44.6477 15V3.36364H49.0114C49.9053 3.36364 50.6553 3.51894 51.2614 3.82955C51.8712 4.14015 52.3314 4.57576 52.642 5.13636C52.9564 5.69318 53.1136 6.3428 53.1136 7.08523C53.1136 7.83144 52.9545 8.47917 52.6364 9.02841C52.322 9.57386 51.858 9.99621 51.2443 10.2955C50.6307 10.5909 49.8769 10.7386 48.983 10.7386H45.875V8.98864H48.6989C49.2216 8.98864 49.6496 8.91667 49.983 8.77273C50.3163 8.625 50.5625 8.41098 50.7216 8.13068C50.8845 7.84659 50.9659 7.49811 50.9659 7.08523C50.9659 6.67235 50.8845 6.32008 50.7216 6.02841C50.5587 5.73295 50.3106 5.50947 49.9773 5.35795C49.6439 5.20265 49.214 5.125 48.6875 5.125H46.7557V15H44.6477ZM50.6591 9.72727L53.5398 15H51.1875L48.358 9.72727H50.6591ZM57.4744 15.1761C56.9214 15.1761 56.4233 15.0777 55.9801 14.8807C55.5407 14.6799 55.1922 14.3845 54.9347 13.9943C54.6809 13.6042 54.554 13.1231 54.554 12.5511C54.554 12.0587 54.6449 11.6515 54.8267 11.3295C55.0085 11.0076 55.2566 10.75 55.571 10.5568C55.8854 10.3636 56.2396 10.2178 56.6335 10.1193C57.0313 10.017 57.4422 9.94318 57.8665 9.89773C58.3778 9.8447 58.7926 9.79735 59.1108 9.75568C59.429 9.71023 59.66 9.64205 59.804 9.55114C59.9517 9.45644 60.0256 9.31061 60.0256 9.11364V9.07955C60.0256 8.65152 59.8987 8.32008 59.6449 8.08523C59.3911 7.85038 59.0256 7.73295 58.5483 7.73295C58.0445 7.73295 57.6449 7.8428 57.3494 8.0625C57.0578 8.2822 56.8608 8.54167 56.7585 8.84091L54.8381 8.56818C54.9896 8.03788 55.2396 7.5947 55.5881 7.23864C55.9366 6.87879 56.3627 6.60985 56.8665 6.43182C57.3703 6.25 57.9271 6.15909 58.5369 6.15909C58.9574 6.15909 59.3759 6.20833 59.7926 6.30682C60.2093 6.4053 60.59 6.56818 60.9347 6.79545C61.2794 7.01894 61.5559 7.32386 61.7642 7.71023C61.9763 8.09659 62.0824 8.57955 62.0824 9.15909V15H60.1051V13.8011H60.0369C59.9119 14.0436 59.7358 14.2708 59.5085 14.483C59.285 14.6913 59.0028 14.8598 58.6619 14.9886C58.3248 15.1136 57.929 15.1761 57.4744 15.1761ZM58.0085 13.6648C58.4214 13.6648 58.7794 13.5833 59.0824 13.4205C59.3854 13.2538 59.6184 13.0341 59.7812 12.7614C59.9479 12.4886 60.0312 12.1913 60.0312 11.8693V10.8409C59.9669 10.8939 59.857 10.9432 59.7017 10.9886C59.5502 11.0341 59.3797 11.0739 59.1903 11.108C59.0009 11.142 58.8134 11.1723 58.6278 11.1989C58.4422 11.2254 58.2813 11.2481 58.1449 11.267C57.8381 11.3087 57.5634 11.3769 57.321 11.4716C57.0786 11.5663 56.8873 11.6989 56.7472 11.8693C56.607 12.036 56.5369 12.2519 56.5369 12.517C56.5369 12.8958 56.6752 13.1818 56.9517 13.375C57.2282 13.5682 57.5805 13.6648 58.0085 13.6648ZM66.2074 9.88636V15H64.1506V6.27273H66.1165V7.75568H66.2188C66.4195 7.26705 66.7396 6.87879 67.179 6.59091C67.6222 6.30303 68.1695 6.15909 68.821 6.15909C69.4233 6.15909 69.9479 6.28788 70.3949 6.54545C70.8456 6.80303 71.1941 7.17614 71.4403 7.66477C71.6903 8.15341 71.8134 8.74621 71.8097 9.44318V15H69.7528V9.76136C69.7528 9.17803 69.6013 8.72159 69.2983 8.39205C68.9991 8.0625 68.5843 7.89773 68.054 7.89773C67.6941 7.89773 67.3741 7.97727 67.0938 8.13636C66.8172 8.29167 66.5994 8.51705 66.4403 8.8125C66.285 9.10795 66.2074 9.46591 66.2074 9.88636ZM77.696 18.4545C76.9574 18.4545 76.3229 18.3542 75.7926 18.1534C75.2623 17.9564 74.8362 17.6913 74.5142 17.358C74.1922 17.0246 73.9688 16.6553 73.8438 16.25L75.696 15.8011C75.7794 15.9716 75.9006 16.1402 76.0597 16.3068C76.2188 16.4773 76.4328 16.6174 76.7017 16.7273C76.9744 16.8409 77.3172 16.8977 77.7301 16.8977C78.3134 16.8977 78.7964 16.7557 79.179 16.4716C79.5616 16.1913 79.7528 15.7292 79.7528 15.0852V13.4318H79.6506C79.5445 13.6439 79.3892 13.8617 79.1847 14.0852C78.9839 14.3087 78.7169 14.4962 78.3835 14.6477C78.054 14.7992 77.6392 14.875 77.1392 14.875C76.4688 14.875 75.8608 14.7178 75.3153 14.4034C74.7737 14.0852 74.3419 13.6117 74.0199 12.983C73.7017 12.3504 73.5426 11.5587 73.5426 10.608C73.5426 9.64962 73.7017 8.84091 74.0199 8.18182C74.3419 7.51894 74.7756 7.01705 75.321 6.67614C75.8665 6.33144 76.4744 6.15909 77.1449 6.15909C77.6563 6.15909 78.0767 6.24621 78.4062 6.42045C78.7396 6.59091 79.0047 6.79735 79.2017 7.03977C79.3987 7.27841 79.5483 7.50379 79.6506 7.71591H79.7642V6.27273H81.7926V15.142C81.7926 15.8883 81.6146 16.5057 81.2585 16.9943C80.9025 17.483 80.4157 17.8485 79.7983 18.0909C79.1809 18.3333 78.4801 18.4545 77.696 18.4545ZM77.7131 13.2614C78.1487 13.2614 78.5199 13.1553 78.8267 12.9432C79.1335 12.7311 79.3665 12.4261 79.5256 12.0284C79.6847 11.6307 79.7642 11.1534 79.7642 10.5966C79.7642 10.0473 79.6847 9.56629 79.5256 9.15341C79.3703 8.74053 79.1392 8.42045 78.8324 8.19318C78.5294 7.96212 78.1563 7.84659 77.7131 7.84659C77.2547 7.84659 76.8722 7.96591 76.5653 8.20455C76.2585 8.44318 76.0275 8.77083 75.8722 9.1875C75.7169 9.60038 75.6392 10.0701 75.6392 10.5966C75.6392 11.1307 75.7169 11.5985 75.8722 12C76.0313 12.3977 76.2642 12.7083 76.571 12.9318C76.8816 13.1515 77.2623 13.2614 77.7131 13.2614ZM87.7642 15.1705C86.8892 15.1705 86.1335 14.9886 85.4972 14.625C84.8646 14.2576 84.3778 13.7386 84.0369 13.0682C83.696 12.3939 83.5256 11.6004 83.5256 10.6875C83.5256 9.78977 83.696 9.00189 84.0369 8.32386C84.3816 7.64205 84.8627 7.11174 85.4801 6.73295C86.0975 6.35038 86.8229 6.15909 87.6562 6.15909C88.1941 6.15909 88.7017 6.24621 89.179 6.42045C89.66 6.59091 90.0843 6.85606 90.4517 7.21591C90.8229 7.57576 91.1146 8.03409 91.3267 8.59091C91.5388 9.14394 91.6449 9.80303 91.6449 10.5682V11.1989H84.4915V9.8125H89.6733C89.6695 9.41856 89.5843 9.06818 89.4176 8.76136C89.2509 8.45076 89.018 8.20644 88.7188 8.02841C88.4233 7.85038 88.0786 7.76136 87.6847 7.76136C87.2642 7.76136 86.8949 7.86364 86.5767 8.06818C86.2585 8.26894 86.0104 8.53409 85.8324 8.86364C85.6581 9.18939 85.5691 9.54735 85.5653 9.9375V11.1477C85.5653 11.6553 85.6581 12.0909 85.8438 12.4545C86.0294 12.8144 86.2888 13.0909 86.6222 13.2841C86.9555 13.4735 87.3456 13.5682 87.7926 13.5682C88.0919 13.5682 88.3627 13.5265 88.6051 13.4432C88.8475 13.3561 89.0578 13.2292 89.2358 13.0625C89.4138 12.8958 89.5483 12.6894 89.6392 12.4432L91.5597 12.6591C91.4384 13.1667 91.2074 13.6098 90.8665 13.9886C90.5294 14.3636 90.0975 14.6553 89.571 14.8636C89.0445 15.0682 88.4422 15.1705 87.7642 15.1705Z" fill="#0B1A2B"/>
</svg>
